<?xml version="1.0" standalone="no"?>
<!DOCTYPE svg PUBLIC "-//W3C//DTD SVG 1.1//EN" "http://www.w3.org/Graphics/SVG/1.1/DTD/svg11.dtd" >
<svg xmlns="http://www.w3.org/2000/svg" xmlns:xlink="http://www.w3.org/1999/xlink" version="1.1">
<metadata>
Created by FontForge 20170731 at Sun Sep 27 23:45:44 2020
 By Aleksey,,,
Copyright (c) 2016 Miguel Reyes under exclusive license to Schwartzco Inc. / Commercial Type. All rights reserved.
</metadata>
<defs>
<font id="Canela-LightItalic" horiz-adv-x="919" >
  <font-face 
    font-family="Canela"
    font-weight="300"
    font-style="italic"
    font-stretch="normal"
    units-per-em="2048"
    panose-1="0 0 0 0 0 0 0 0 0 0"
    ascent="1587"
    descent="-461"
    x-height="975"
    cap-height="1499"
    bbox="-238 -532 2003 2345"
    underline-thickness="40"
    underline-position="-204"
    slope="-10"
    unicode-range="U+000D-FB04"
  />
<missing-glyph horiz-adv-x="329" 
 />
    <glyph glyph-name="f_b" unicode="fb" horiz-adv-x="1482" 
d="M2 -338l270 1274h-120l8 39h121l36 172q46 219 155 333.5t249 114.5q91 0 182 -57l137 57l-217 -995q163 406 408 406q215 0 215 -314q0 -185 -68.5 -350.5t-192 -269t-270.5 -103.5q-66 0 -122.5 22t-102.5 71t-59 128t8 193l178 831q30 143 -4 240.5t-121 97.5
q-73 0 -127.5 -80t-93.5 -270l-47 -227h190l-8 -39h-190l-271 -1274h-143zM928 6q64 0 123 42.5t102 113.5t75 160t48 184.5t16 185.5q0 119 -31 171t-96 52q-183 0 -370 -477l-19 -82q-18 -98 -13.5 -164.5t30 -108t59.5 -59.5t76 -18z" />
    <glyph glyph-name="f_f_b" unicode="ffb" horiz-adv-x="1951" 
d="M272 936h-120l8 39h121l28 131q48 218 154 333t237 115q51 0 121 -26v-217l-12 -4q-35 94 -73 149t-89 55q-111 0 -184 -350l-39 -186h326l36 172q46 219 155 333.5t249 114.5q93 0 180 -57l139 57l-217 -995q163 406 406 406q217 0 217 -314q0 -185 -69 -350.5
t-192.5 -269t-269.5 -103.5q-53 0 -100.5 14t-90 44t-67.5 78.5t-33 117.5t13 160l180 831q30 143 -4 240.5t-121 97.5q-73 0 -127.5 -80t-93.5 -270l-47 -227h190l-8 -39h-190l-271 -1274h-143l270 1274h-325l-271 -1274h-143zM1397 6q64 0 123 42.5t102 113.5t75 160
t48 184.5t16 185.5q0 118 -31.5 170.5t-95.5 52.5q-38 0 -75.5 -19.5t-84 -68t-100 -144.5t-108.5 -234l-21 -93q-18 -98 -13.5 -164.5t30 -108t59.5 -59.5t76 -18z" />
    <glyph glyph-name="f_f_h" unicode="ffh" horiz-adv-x="1964" 
d="M741 936h-325l-271 -1274h-143l270 1274h-120l8 39h121l28 131q46 221 144.5 334.5t230.5 113.5q47 0 107 -24l14 -193l-12 -2q-28 47 -43.5 71.5t-37 52.5t-40.5 40t-39 12q-94 0 -170 -350l-39 -186h326l36 172q46 219 155 333.5t249 114.5q93 0 180 -57l139 57
l-245 -1118q98 235 220 382t247 147q93 0 131 -78t8 -221l-94 -447q-30 -124 -18.5 -178.5t89.5 -65.5v-4l-276 -30l155 723q20 75 2 129.5t-75 54.5q-174 0 -414 -553l-12 -57q-14 -72 -20 -111.5t-5 -82t12 -81.5v-4h-225v4q38 66 59.5 139t49.5 213l186 858q18 93 12 168
t-41.5 122.5t-93.5 47.5q-73 0 -127.5 -80t-93.5 -270l-47 -227h190l-8 -39h-190l-271 -1274h-143z" />
    <glyph glyph-name="f_f_j" unicode="ffj" horiz-adv-x="1380" 
d="M1143 -57q-36 -168 -121 -266.5t-195 -116.5l-2 10q111 74 158 274l168 813q41 194 -27 279h-239l-271 -1274h-143l270 1274h-325l-271 -1274h-143l270 1274h-120l8 39h121l28 131q46 221 144.5 334.5t230.5 113.5q47 0 107 -24l14 -193l-12 -2q-28 47 -43.5 71.5
t-37 52.5t-40.5 40t-39 12q-94 0 -170 -350l-39 -186h326l36 172q46 219 151 333.5t243 114.5q91 0 157 -49l19 -250l-10 -4q-64 142 -108.5 201t-98.5 59q-63 0 -111 -80t-88 -270l-47 -227h221q136 0 252 41z" />
    <glyph glyph-name="f_f_k" unicode="ffk" horiz-adv-x="1849" 
d="M1298 508l293 287q111 111 64 176v4h258v-4q-83 -32 -137.5 -71.5t-153.5 -133.5l-195 -188l193 -390q36 -74 69 -114.5t83 -69.5v-4h-226zM272 936h-120l8 39h121l28 131q46 221 144.5 334.5t230.5 113.5q47 0 107 -24l14 -193l-12 -2q-28 47 -43.5 71.5t-37 52.5
t-40.5 40t-39 12q-94 0 -170 -350l-39 -186h326l36 172q46 219 155 333.5t249 114.5q93 0 180 -57l139 57l-272 -1271q-19 -91 -26.5 -139t-7.5 -94.5t11 -86.5v-4h-223v4q36 62 58 136.5t51 215.5l184 858q18 93 12 168t-41.5 122.5t-93.5 47.5q-73 0 -127.5 -80
t-93.5 -270l-47 -227h190l-8 -39h-190l-271 -1274h-143l270 1274h-325l-271 -1274h-143z" />
    <glyph glyph-name="f_h" unicode="fh" horiz-adv-x="1495" 
d="M416 936l-271 -1274h-143l270 1274h-120l8 39h121l36 172q46 219 155 333.5t249 114.5q91 0 182 -57l137 57l-247 -1120q62 152 135 268.5t161.5 189.5t174.5 73q90 0 129 -78t10 -221l-96 -447q-30 -124 -19 -178.5t92 -65.5v-4l-278 -30l158 723q20 75 0.5 129.5
t-76.5 54.5q-86 0 -188 -136t-228 -425l-10 -54q-14 -71 -20 -109.5t-5 -80t12 -80.5v-4h-225v4q38 63 60 138t51 214l184 858q18 93 12 168t-41.5 122.5t-93.5 47.5q-73 0 -127.5 -80t-93.5 -270l-47 -227h190l-8 -39h-190z" />
    <glyph glyph-name="f_j" unicode="fj" horiz-adv-x="911" 
d="M674 -57q-36 -169 -120 -267t-196 -116l-2 10q118 79 158 274l168 813q41 194 -27 279h-239l-271 -1274h-143l270 1274h-120l8 39h121l36 172q46 219 151 333.5t243 114.5q93 0 159 -49l19 -250l-12 -4q-64 142 -108.5 201t-98.5 59q-63 0 -111 -80t-88 -270l-47 -227
h221q136 0 252 41z" />
    <glyph glyph-name="f_k" unicode="fk" horiz-adv-x="1380" 
d="M2 -338l270 1274h-120l8 39h121l36 172q46 219 155 333.5t249 114.5q91 0 182 -57l137 57l-272 -1271q-26 -128 -31 -188.5t11 -131.5v-4h-226v4q36 62 58 136.5t51 215.5l184 858q18 93 12 168t-41.5 122.5t-93.5 47.5q-73 0 -127.5 -80t-93.5 -270l-47 -227h190l-8 -39
h-190l-271 -1274h-143zM829 508l295 287q111 111 62 176v4h258v-4q-82 -32 -136 -71t-153 -134l-197 -188l193 -390q36 -74 69 -114.5t83 -69.5v-4h-224z" />
    <glyph glyph-name="f_t" unicode="ft" horiz-adv-x="1064" 
d="M272 936h-120l8 39h121l36 172q48 218 154 333t238 115q64 0 118 -28l17 -209l-13 -4q-27 45 -39.5 66t-34 52t-36 44.5t-33.5 24.5t-37 11q-107 0 -180 -350l-47 -227h238l249 182h11l-39 -182h237l-8 -39h-238l-157 -731q-30 -129 41 -129q75 0 190 153l19 -12
q-62 -117 -136.5 -182.5t-148.5 -65.5q-68 0 -101.5 55t-7.5 179l158 733h-315l-271 -1274h-143z" />
    <glyph glyph-name="f_f_t" unicode="fft" horiz-adv-x="1533" 
d="M272 936h-120l8 39h121l28 131q46 221 144.5 334.5t230.5 113.5q47 0 107 -24l14 -193l-12 -2q-28 47 -43.5 71.5t-37 52.5t-40.5 40t-39 12q-94 0 -170 -350l-39 -186h326l36 172q48 218 154 333t238 115q64 0 118 -28l15 -209l-11 -4q-62 105 -100.5 151.5t-81.5 46.5
q-105 0 -178 -350l-47 -227h237l248 182h13l-39 -182h237l-8 -39h-238l-157 -731q-30 -129 41 -129q75 0 190 153l19 -12q-64 -118 -137.5 -183t-147.5 -65q-67 0 -102 55.5t-9 178.5l158 733h-313l-271 -1274h-143l270 1274h-325l-271 -1274h-143z" />
    <glyph glyph-name="f_f" unicode="ff" horiz-adv-x="1009" 
d="M272 936h-120l8 39h121l28 131q46 221 144.5 334.5t230.5 113.5q47 0 107 -24l14 -193l-12 -2q-28 47 -43.5 71.5t-37 52.5t-40.5 40t-39 12q-94 0 -170 -350l-39 -186h326l36 172q48 218 154 333t238 115q64 0 118 -28l15 -209l-11 -4q-62 105 -100.5 151.5t-81.5 46.5
q-105 0 -178 -350l-47 -227h190l-8 -39h-190l-271 -1274h-143l270 1274h-325l-271 -1274h-143z" />
    <glyph glyph-name="f_i" unicode="fi" horiz-adv-x="917" 
d="M2 -338l270 1274h-120l8 39h121l36 172q46 219 151 333.5t243 114.5q93 0 159 -49l19 -250l-12 -4q-64 142 -108.5 201t-98.5 59q-63 0 -111 -80t-88 -270l-47 -227h221q136 0 252 41l-141 -705q-18 -82 -25.5 -130t-7 -92.5t11.5 -84.5v-4h-225v4q28 43 49 101.5
t30.5 101.5t31.5 149l61 301q39 197 -27 279h-239l-271 -1274h-143z" />
    <glyph glyph-name="f_l" unicode="fl" horiz-adv-x="927" 
d="M2 -338l270 1274h-120l8 39h121l36 172q46 219 155 333.5t249 114.5q91 0 178 -57l137 57l-262 -1235q-32 -148 -37.5 -221t11.5 -135v-4h-226v4q36 62 58.5 139.5t50.5 212.5l182 858q18 93 12.5 168t-40.5 122.5t-93 47.5q-73 0 -127.5 -80t-93.5 -270l-47 -227h190
l-8 -39h-190l-271 -1274h-143z" />
    <glyph glyph-name="f_f_i" unicode="ffi" horiz-adv-x="1386" 
d="M2 -338l270 1274h-120l8 39h121l28 131q46 221 144.5 334.5t230.5 113.5q47 0 107 -24l14 -193l-12 -2q-28 47 -43.5 71.5t-37 52.5t-40.5 40t-39 12q-94 0 -170 -350l-39 -186h326l36 172q46 219 151 333.5t243 114.5q91 0 157 -49l19 -250l-10 -4q-64 142 -108.5 201
t-98.5 59q-63 0 -111 -80t-88 -270l-47 -227h221q136 0 252 41l-143 -705q-25 -112 -29.5 -179t10.5 -128v-4h-225v4q28 43 49 101.5t30.5 101.5t31.5 149l61 301q39 197 -27 279h-239l-271 -1274h-143l270 1274h-325l-271 -1274h-143z" />
    <glyph glyph-name="f_f_l" unicode="ffl" horiz-adv-x="1396" 
d="M272 936h-120l8 39h121l28 131q46 221 144.5 334.5t230.5 113.5q47 0 107 -24l14 -193l-12 -2q-28 47 -43.5 71.5t-37 52.5t-40.5 40t-39 12q-94 0 -170 -350l-39 -186h326l36 172q46 219 155 333.5t249 114.5q91 0 178 -57l137 57l-262 -1235q-32 -145 -38 -221t9 -135
v-4h-223v4q36 62 58.5 139.5t50.5 212.5l182 858q18 93 12.5 168t-40.5 122.5t-93 47.5q-73 0 -127.5 -80t-93.5 -270l-47 -227h190l-8 -39h-190l-271 -1274h-143l270 1274h-325l-271 -1274h-143z" />
    <glyph glyph-name="f_b.alt" unicode="&#xe4c5;b" horiz-adv-x="1470" 
d="M903 -31q-65 0 -121.5 22t-103 71t-59.5 128t8 193l178 850q15 86 9 156.5t-41.5 116.5t-92.5 46q-73 0 -127.5 -80t-93.5 -270l-47 -227h190l-8 -39h-191l-129 -610q-19 -93 -26 -140.5t-7 -94t11 -87.5v-4h-223v4q35 64 57.5 139.5t50.5 212.5l123 580h-121l8 39h121
l37 172q46 219 155 333.5t249 114.5q97 0 176 -57l139 57l-213 -997q164 408 408 408q215 0 215 -314q0 -185 -68.5 -350.5t-192 -269t-270.5 -103.5zM915 6q106 0 192 111t129.5 266.5t43.5 308.5q0 119 -31 171t-96 52q-184 0 -371 -477l-18 -82q-28 -129 -8 -206.5
t61 -110.5t98 -33z" />
    <glyph glyph-name="f_f.alt" unicode="&#xe4c5;&#xe4c5;" horiz-adv-x="999" 
d="M29 4q35 64 57.5 139.5t50.5 212.5l123 580h-121l8 39h121l29 131q46 222 144 335t231 113q46 0 106 -24l15 -193l-13 -2q-38 64 -57 93.5t-47.5 56t-54.5 26.5q-97 0 -170 -350l-39 -186h325l39 180q46 214 150.5 327t236.5 113q65 0 119 -28l16 -209l-12 -4
q-59 104 -98 151t-82 47q-52 0 -94 -78.5t-82 -263.5l-49 -235h190l-8 -39h-193l-129 -610q-27 -126 -31.5 -191t11.5 -131v-4h-225v4q35 64 57.5 139.5t50.5 212.5l125 580h-326l-129 -610q-19 -93 -26 -140.5t-7 -94t11 -87.5v-4h-223v4z" />
    <glyph glyph-name="f_f_b.alt" unicode="&#xe4c5;&#xe4c5;b" horiz-adv-x="1939" 
d="M1372 -31q-53 0 -100 14t-89.5 44t-67.5 78.5t-33.5 117.5t12.5 160l180 850q15 86 9 156.5t-41.5 116.5t-92.5 46q-73 0 -127.5 -80t-93.5 -270l-49 -227h192l-8 -39h-193l-129 -610q-26 -130 -31 -191t11 -131v-4h-223v4q35 64 57.5 139.5t50.5 212.5l123 580h-326
l-129 -610q-19 -93 -26 -140.5t-7 -94t11 -87.5v-4h-223v4q35 64 57.5 139.5t50.5 212.5l123 580h-121l8 39h121l29 131q46 222 144 335t231 113q46 0 106 -24l15 -193l-13 -2q-38 64 -57 93.5t-47.5 56t-54.5 26.5q-97 0 -170 -350l-39 -186h325l37 172q46 219 155 333.5
t249 114.5q97 0 176 -57l139 57l-213 -997q164 408 406 408q217 0 217 -314q0 -185 -69 -350.5t-192.5 -269t-269.5 -103.5zM1384 6q106 0 192 111t129.5 266.5t43.5 308.5q0 118 -31.5 170.5t-95.5 52.5q-183 0 -369 -466l-20 -93q-28 -129 -8 -206.5t61 -110.5t98 -33z
" />
    <glyph glyph-name="f_f_h.alt" unicode="&#xe4c5;&#xe4c5;h" horiz-adv-x="1951" 
d="M1714 705q20 75 1.5 129.5t-75.5 54.5q-86 0 -187.5 -134.5t-227.5 -420.5l-13 -60q-20 -101 -23 -153.5t13 -116.5v-4h-225v4q38 66 58.5 138t49.5 214l187 875q26 131 -6.5 226t-116.5 95q-73 0 -127.5 -80t-93.5 -270l-49 -227h192l-8 -39h-193l-129 -610
q-26 -130 -31 -191t11 -131v-4h-223v4q35 64 57.5 139.5t50.5 212.5l123 580h-326l-129 -610q-19 -93 -26 -140.5t-7 -94t11 -87.5v-4h-223v4q35 64 57.5 139.5t50.5 212.5l123 580h-121l8 39h121l29 131q46 222 144 335t231 113q46 0 106 -24l15 -193l-13 -2
q-38 64 -57 93.5t-47.5 56t-54.5 26.5q-97 0 -170 -350l-39 -186h325l37 172q46 219 155 333.5t249 114.5q97 0 176 -57l139 57l-244 -1118q63 151 136 266.5t160.5 189t172.5 73.5q93 0 131.5 -78t8.5 -221l-95 -447q-30 -124 -18 -178.5t90 -65.5v-4l-276 -30z" />
    <glyph glyph-name="f_f_i.alt" unicode="&#xe4c5;&#xe4c5;i" horiz-adv-x="1376" 
d="M29 0v4q35 64 57.5 139.5t50.5 212.5l123 580h-121l8 39h121l29 131q46 222 144 335t231 113q46 0 106 -24l15 -193l-13 -2q-38 64 -57 93.5t-47.5 56t-54.5 26.5q-97 0 -170 -350l-39 -186h325l37 172q48 222 151 335t242 113q92 0 158 -49l18 -250l-10 -4
q-64 142 -108.5 201t-98.5 59q-64 0 -110 -79t-86 -271l-49 -227h223q152 0 250 41l-142 -705q-25 -111 -29 -179t11 -128v-4h-225v4q39 62 59.5 135t48.5 217l62 301q26 128 10 195t-78 84h-199l-131 -610q-26 -130 -31 -191t11 -131v-4h-223v4q23 43 42.5 99.5t30 99
t35.5 153.5l123 580h-326l-129 -610q-19 -93 -26 -140.5t-7 -94t11 -87.5v-4h-223z" />
    <glyph glyph-name="f_f_j.alt" unicode="&#xe4c5;&#xe4c5;j" horiz-adv-x="1368" 
d="M1130 -57q-36 -168 -119.5 -266.5t-193.5 -116.5l-4 10q62 41 99.5 107.5t58.5 166.5l168 813q26 128 10 195t-78 84h-199l-131 -610q-26 -130 -31 -191t11 -131v-4h-223v4q23 43 42.5 99.5t30 99t35.5 153.5l123 580h-326l-129 -610q-19 -93 -26 -140.5t-7 -94t11 -87.5
v-4h-223v4q35 64 57.5 139.5t50.5 212.5l123 580h-121l8 39h121l29 131q46 222 144 335t231 113q46 0 106 -24l15 -193l-13 -2q-38 64 -57 93.5t-47.5 56t-54.5 26.5q-97 0 -170 -350l-39 -186h325l37 172q48 222 151 335t242 113q92 0 158 -49l18 -250l-10 -4
q-64 142 -108.5 201t-98.5 59q-64 0 -110 -79t-86 -271l-49 -227h223q152 0 250 41z" />
    <glyph glyph-name="f_f_k.alt" unicode="&#xe4c5;&#xe4c5;k" horiz-adv-x="1837" 
d="M1286 508l293 287q110 110 63 176v4h259v-4q-83 -32 -137.5 -71.5t-153.5 -133.5l-195 -188l193 -390q37 -75 69.5 -115.5t81.5 -68.5v-4h-225zM29 4q35 64 57.5 139.5t50.5 212.5l123 580h-121l8 39h121l29 131q46 222 144 335t231 113q46 0 106 -24l15 -193l-13 -2
q-38 64 -57 93.5t-47.5 56t-54.5 26.5q-97 0 -170 -350l-39 -186h325l37 172q46 219 155 333.5t249 114.5q101 0 180 -57l139 57l-266 -1235q-32 -145 -38 -221t9 -135v-4h-223v4q24 42 43 96t27.5 89.5t29.5 129.5l193 895q18 93 12 168t-41.5 122.5t-93.5 47.5
q-73 0 -127.5 -80t-93.5 -270l-49 -227h192l-8 -39h-193l-129 -610q-26 -130 -31 -191t11 -131v-4h-223v4q35 64 57.5 139.5t50.5 212.5l123 580h-326l-129 -610q-19 -93 -26 -140.5t-7 -94t11 -87.5v-4h-223v4z" />
    <glyph glyph-name="f_f_l.alt" unicode="&#xe4c5;&#xe4c5;l" horiz-adv-x="1384" 
d="M29 4q35 64 57.5 139.5t50.5 212.5l123 580h-121l8 39h121l29 131q46 222 144 335t231 113q46 0 106 -24l15 -193l-13 -2q-38 64 -57 93.5t-47.5 56t-54.5 26.5q-97 0 -170 -350l-39 -186h325l37 172q46 219 155 333.5t249 114.5q97 0 176 -57l139 57l-262 -1235
q-32 -145 -38 -221t9 -135v-4h-223v4q24 42 43 96t27.5 89.5t29.5 129.5l193 912q26 131 -6.5 226t-116.5 95q-73 0 -127.5 -80t-93.5 -270l-49 -227h192l-8 -39h-193l-129 -610q-26 -130 -31 -191t11 -131v-4h-223v4q35 64 57.5 139.5t50.5 212.5l123 580h-326l-129 -610
q-19 -93 -26 -140.5t-7 -94t11 -87.5v-4h-223v4z" />
    <glyph glyph-name="f_f_t.alt" unicode="&#xe4c5;&#xe4c5;t" horiz-adv-x="1523" 
d="M1425 217q-135 -248 -286 -248q-68 0 -101.5 55t-7.5 179l158 733h-316l-129 -610q-26 -130 -31 -191t11 -131v-4h-225v4q35 64 57.5 139.5t50.5 212.5l125 580h-328l-129 -610q-19 -93 -26 -140.5t-7 -94t11 -87.5v-4h-223v4q35 64 57.5 139.5t50.5 212.5l123 580h-121
l8 39h121l29 131q46 222 144 335t231 113q46 0 106 -24l15 -193l-13 -2q-38 64 -57 93.5t-47.5 56t-54.5 26.5q-97 0 -170 -350l-39 -186h327l39 180q46 214 150.5 327t236.5 113q65 0 119 -28l16 -209l-12 -4q-59 104 -98 151t-82 47q-52 0 -94 -78.5t-82 -263.5l-49 -235
h237l248 182h10l-39 -182h240l-8 -39h-240l-157 -731q-30 -129 40 -129q45 0 101.5 50t89.5 103z" />
    <glyph glyph-name="f_h.alt" unicode="&#xe4c5;h" horiz-adv-x="1482" 
d="M1247 705q20 75 0.5 129.5t-76.5 54.5q-86 0 -187.5 -136t-227.5 -425l-11 -47q-22 -103 -25 -158.5t13 -118.5v-4h-225v4q38 63 59 136.5t51 215.5l187 875q26 130 -7.5 225.5t-117.5 95.5q-73 0 -127.5 -80t-93.5 -270l-47 -227h190l-8 -39h-191l-129 -610
q-19 -93 -26 -140.5t-7 -94t11 -87.5v-4h-223v4q35 64 57.5 139.5t50.5 212.5l123 580h-121l8 39h121l37 172q46 219 155 333.5t249 114.5q97 0 176 -57l139 57l-244 -1124q63 154 135.5 270.5t160.5 190.5t175 74q90 0 129.5 -78t10.5 -221l-97 -447q-30 -124 -18.5 -178.5
t92.5 -65.5v-4l-278 -30z" />
    <glyph glyph-name="f_i.alt" unicode="&#xe4c5;i" 
d="M41 0v4q34 62 54 131.5t55 220.5l122 580h-120l10 39h119l36 172q48 221 152 334.5t242 113.5q93 0 159 -49l19 -250l-12 -4q-64 142 -108.5 201t-98.5 59q-64 0 -110.5 -79t-86.5 -271l-49 -227h223q150 0 252 41l-143 -705q-25 -112 -29.5 -179t10.5 -128v-4h-225v4
q27 43 47.5 99.5t32 105t31.5 147.5l59 301q27 127 11 194.5t-79 84.5h-198l-129 -610q-19 -95 -26.5 -141t-7.5 -93t11 -88v-4h-223z" />
    <glyph glyph-name="f_j.alt" unicode="&#xe4c5;j" horiz-adv-x="911" 
d="M674 -57q-34 -167 -119 -266t-195 -117l-4 10q62 41 99.5 107.5t58.5 166.5l168 813q27 127 11 194.5t-79 84.5h-198l-129 -610q-19 -95 -26.5 -141t-7.5 -93t11 -88v-4h-223v4q34 62 54 131.5t55 220.5l122 580h-120l10 39h119l36 172q48 221 152 334.5t242 113.5
q93 0 159 -49l19 -250l-12 -4q-64 142 -108.5 201t-98.5 59q-64 0 -110.5 -79t-86.5 -271l-49 -227h223q150 0 252 41z" />
    <glyph glyph-name="f_k.alt" unicode="&#xe4c5;k" horiz-adv-x="1368" 
d="M29 0v4q35 64 57.5 139.5t50.5 212.5l123 580h-121l8 39h121l37 172q46 219 155 333.5t249 114.5q58 0 106.5 -18.5t73.5 -38.5l139 57l-266 -1235q-32 -145 -38 -221t9 -135l2 -4h-225v4q24 42 43 96t27.5 89.5t29.5 129.5l193 895q18 93 12 168t-41.5 122.5t-93.5 47.5
q-73 0 -127.5 -80t-93.5 -270l-47 -227h190l-8 -39h-191l-129 -610q-19 -93 -26 -140.5t-7 -94t11 -87.5v-4h-223zM817 508l295 287q111 111 62 176v4h258v-4q-82 -32 -136 -71t-153 -134l-197 -188l193 -390q37 -75 69.5 -115.5t81.5 -68.5v-4h-223z" />
    <glyph glyph-name="f_l.alt" unicode="&#xe4c5;l" horiz-adv-x="915" 
d="M29 0v4q35 64 57.5 139.5t50.5 212.5l123 580h-121l8 39h121l37 172q46 219 155 333.5t249 114.5q97 0 176 -57l139 57l-262 -1235q-32 -145 -38 -221t9 -135l2 -4h-225v4q24 42 43 96t27.5 89.5t29.5 129.5l195 912q26 130 -7.5 225.5t-117.5 95.5q-73 0 -127.5 -80
t-93.5 -270l-47 -227h190l-8 -39h-191l-129 -610q-19 -93 -26 -140.5t-7 -94t11 -87.5v-4h-223z" />
    <glyph glyph-name="f_t.alt" unicode="&#xe4c5;t" horiz-adv-x="1054" 
d="M956 217q-64 -118 -137 -183t-147 -65q-67 0 -102 55.5t-9 178.5l158 733h-316l-129 -610q-19 -93 -26 -140.5t-7 -94t11 -87.5v-4h-223v4q23 43 42.5 99.5t30 99t35.5 153.5l123 580h-121l11 39h118l39 180q48 213 153 326.5t236 113.5q65 0 119 -28l16 -209l-12 -4
q-27 45 -39.5 66t-34 52t-36 44.5t-33.5 24.5t-37 11q-105 0 -178 -342l-49 -235h239l248 182h10l-39 -182h240l-8 -39h-240l-155 -731q-30 -129 38 -129q45 0 101.5 50t89.5 103z" />
    <glyph glyph-name="f_f_k.altfk" unicode="&#xe4c5;&#xe4c5;&#xe4ca;" horiz-adv-x="1855" 
d="M1620 -14q-57 0 -109 40.5t-104 149.5q-69 143 -125 330l289 280q38 38 59 68.5t27 62t-15 54.5v4h259v-4q-83 -32 -137.5 -71.5t-153.5 -133.5l-201 -195q66 -205 119 -307q47 -93 82 -125.5t71 -32.5q52 0 84 41l7 -4q-47 -157 -152 -157zM29 4q35 64 57.5 139.5
t50.5 212.5l123 580h-121l8 39h121l29 131q46 222 144 335t231 113q46 0 106 -24l15 -193l-13 -2q-38 64 -57 93.5t-47.5 56t-54.5 26.5q-97 0 -170 -350l-39 -186h325l37 172q46 219 155 333.5t249 114.5q101 0 180 -57l139 57l-266 -1235q-32 -145 -38 -221t9 -135v-4
h-223v4q24 42 43 96t27.5 89.5t29.5 129.5l193 895q18 93 12 168t-41.5 122.5t-93.5 47.5q-73 0 -127.5 -80t-93.5 -270l-49 -227h192l-8 -39h-193l-129 -610q-26 -130 -31 -191t11 -131v-4h-223v4q35 64 57.5 139.5t50.5 212.5l123 580h-326l-129 -610q-19 -93 -26 -140.5
t-7 -94t11 -87.5v-4h-223v4z" />
    <glyph glyph-name="f_k.altfk" unicode="&#xe4c5;&#xe4ca;" horiz-adv-x="1384" 
d="M29 0v4q35 64 57.5 139.5t50.5 212.5l123 580h-121l8 39h121l37 172q46 219 155 333.5t249 114.5q58 0 106.5 -18.5t73.5 -38.5l139 57l-266 -1235q-32 -145 -38 -221t9 -135l2 -4h-225v4q24 42 43 96t27.5 89.5t29.5 129.5l193 895q18 93 12 168t-41.5 122.5t-93.5 47.5
q-73 0 -127.5 -80t-93.5 -270l-47 -227h190l-8 -39h-191l-129 -610q-19 -93 -26 -140.5t-7 -94t11 -87.5v-4h-223zM1149 -14q-55 0 -107 40.5t-104 149.5q-69 143 -125 330l289 280q39 39 59.5 69t27 61.5t-14.5 54.5v4h256v-4q-82 -32 -136 -71t-153 -134l-201 -195
q63 -198 117 -307q48 -93 82.5 -125.5t72.5 -32.5q50 0 82 41l6 -4q-41 -157 -151 -157z" />
    <glyph glyph-name="f_f_k.altk" unicode="ff&#xe4ca;" horiz-adv-x="1867" 
d="M1632 -14q-57 0 -109 40.5t-104 149.5q-69 143 -125 330l289 280q39 39 59.5 69t27 61.5t-14.5 54.5v4h258v-4q-83 -32 -137.5 -71.5t-153.5 -133.5l-201 -195q66 -205 119 -307q47 -93 82.5 -125.5t71.5 -32.5q52 0 84 41l6 -4q-47 -157 -152 -157zM272 936h-120l8 39
h121l28 131q46 221 144.5 334.5t230.5 113.5q47 0 107 -24l14 -193l-12 -2q-28 47 -43.5 71.5t-37 52.5t-40.5 40t-39 12q-94 0 -170 -350l-39 -186h326l36 172q46 219 155 333.5t249 114.5q93 0 180 -57l139 57l-272 -1271q-19 -91 -26.5 -139t-7.5 -94.5t11 -86.5v-4h-223
v4q36 62 58 136.5t51 215.5l184 858q18 93 12 168t-41.5 122.5t-93.5 47.5q-73 0 -127.5 -80t-93.5 -270l-47 -227h190l-8 -39h-190l-271 -1274h-143l270 1274h-325l-271 -1274h-143z" />
    <glyph glyph-name="f_k.altk" unicode="f&#xe4ca;" horiz-adv-x="1396" 
d="M2 -338l270 1274h-120l8 39h121l36 172q46 219 155 333.5t249 114.5q91 0 182 -57l137 57l-272 -1271q-26 -128 -31 -188.5t11 -131.5v-4h-226v4q36 62 58 136.5t51 215.5l184 858q18 93 12 168t-41.5 122.5t-93.5 47.5q-73 0 -127.5 -80t-93.5 -270l-47 -227h190l-8 -39
h-190l-271 -1274h-143zM1161 -14q-55 0 -107 40.5t-104 149.5q-69 143 -125 330l289 280q39 39 59.5 69t27 61.5t-14.5 54.5v4h256v-4q-82 -32 -136 -71t-153 -134l-201 -195q63 -198 117 -307q47 -93 82.5 -125.5t73.5 -32.5q50 0 82 41l6 -4q-41 -157 -152 -157z" />
    <glyph glyph-name=".notdef" horiz-adv-x="329" 
 />
    <glyph glyph-name=".null" horiz-adv-x="0" 
 />
    <glyph glyph-name=".null" horiz-adv-x="0" 
 />
    <glyph glyph-name="nonmarkingreturn" horiz-adv-x="682" 
 />
    <glyph glyph-name="CR" unicode="&#xd;" horiz-adv-x="284" 
 />
    <glyph glyph-name="space" unicode=" " horiz-adv-x="284" 
 />
    <glyph glyph-name="exclam" unicode="!" horiz-adv-x="440" 
d="M512 1495l-293 -1071h-31l160 1071l2 4h164zM156 -8q-47 0 -81 33.5t-34 80.5q0 49 33.5 83t81.5 34q47 0 80.5 -34t33.5 -83q0 -47 -33.5 -80.5t-80.5 -33.5z" />
    <glyph glyph-name="quotedbl" unicode="&#x22;" horiz-adv-x="567" 
d="M240 1077l2 422h196l-178 -422h-20zM506 1077l2 422h197l-179 -422h-20z" />
    <glyph glyph-name="numbersign" unicode="#" horiz-adv-x="1150" 
d="M850 987h-389l-101 -475h390zM741 473h-389l-100 -473h-49l100 473h-270v39h278l101 475h-273l2 39h279l100 473h49l-100 -473h389l100 473h50l-101 -473h275l-2 -39h-281l-100 -475h272v-39h-280l-101 -473h-49z" />
    <glyph glyph-name="dollar" unicode="$" 
d="M934 1133l-19 -5q-98 295 -223 345h-2l-129 -596l37 -35q53 -53 86 -92t70 -95.5t55 -121.5t18 -138q0 -201 -126.5 -313.5t-325.5 -112.5h-4l-43 -202h-49l43 204q-46 2 -127 21q-84 20 -150 57l-14 365l18 4q58 -167 121 -260t139 -127l25 -8l145 686l-16 16l-82 86
q-143 150 -143 330q0 125 59 215t150.5 132t201.5 42h4l33 153h49l-35 -155q43 -2 99 -17q67 -17 125 -47zM416 10q84 0 147.5 45.5t95 118t31.5 158.5q0 166 -143 309l-29 29l-139 -658q12 -2 37 -2zM610 1489q-107 0 -174 -75t-67 -189q0 -84 38 -155t107 -144l10 -11
l119 572q-10 2 -33 2z" />
    <glyph glyph-name="percent" unicode="%" horiz-adv-x="1433" 
d="M760 1227q0 -138 -55 -259t-141 -190t-177 -69q-98 0 -157.5 83t-59.5 220q0 104 33 201t85.5 165.5t120 110t134.5 41.5q99 0 158 -83t59 -220zM391 735q68 0 125.5 102t86 238.5t28.5 261.5q0 166 -90 166q-68 0 -125.5 -102t-86 -238.5t-28.5 -261.5q0 -166 90 -166z
M209 29l1067 1493l35 -23l-1069 -1497zM1352 502q0 -138 -55 -259t-141 -190t-177 -69q-98 0 -157.5 83t-59.5 220q0 104 33 201t85.5 165.5t120 110t134.5 41.5q99 0 158 -83t59 -220zM983 10q68 0 125.5 102t86 238.5t28.5 261.5q0 166 -90 166q-68 0 -125.5 -102
t-86 -238.5t-28.5 -261.5q0 -166 90 -166z" />
    <glyph glyph-name="ampersand" unicode="&#x26;" horiz-adv-x="1656" 
d="M1546 592q0 -92 -27.5 -180.5t-87 -169t-144.5 -141t-207.5 -96.5t-268.5 -36q-163 0 -299.5 45t-229 124t-143.5 187.5t-51 233.5q0 195 107 306t276 124q-59 25 -97 87t-38 151q0 132 89 217.5t245 85.5q83 0 159 -22.5t101 -43.5l16 -235l-14 -4q-67 125 -129.5 176
t-153.5 51q-110 0 -174.5 -65t-64.5 -179q0 -92 41 -145t110 -53q52 0 92 37l-4 -148q-27 16 -43 24t-49 16.5t-70 8.5q-136 0 -227.5 -92.5t-91.5 -257.5q0 -118 52 -211t144 -151.5t212 -88.5t260 -30q300 0 477.5 131.5t177.5 357.5q0 152 -91.5 228.5t-285.5 76.5
q-129 0 -202.5 -31.5t-73.5 -95.5q0 -75 100 -75q72 0 143 30l-18 -157q-59 -5 -105.5 5.5t-75.5 31t-47.5 49t-26 58t-7.5 60.5q0 101 73.5 167.5t235.5 84.5q172 17 231 21q293 18 293 221q0 67 -29 94t-81 27q-63 0 -152 -33l17 160q80 6 137.5 -12.5t87.5 -56.5
t43.5 -83t13.5 -100q0 -69 -20.5 -126.5t-64.5 -105.5t-121 -79t-183 -39q125 -17 194.5 -103.5t69.5 -230.5z" />
    <glyph glyph-name="quotesingle" unicode="'" horiz-adv-x="301" 
d="M240 1077l2 422h196l-178 -422h-20z" />
    <glyph glyph-name="parenleft" unicode="(" horiz-adv-x="630" 
d="M408 -266q-104 104 -174 285.5t-70 412.5q0 182 44 347t126.5 303t190.5 252.5t245 211.5l14 -20q-221 -208 -355 -513.5t-134 -666.5q0 -194 36.5 -349t94.5 -247z" />
    <glyph glyph-name="parenright" unicode=")" horiz-adv-x="630" 
d="M274 1546q104 -104 174 -285.5t70 -412.5q0 -182 -44 -347t-126.5 -303t-190.5 -252.5t-245 -211.5l-14 20q221 208 355 513.5t134 666.5q0 194 -36.5 349t-94.5 247z" />
    <glyph glyph-name="asterisk" unicode="*" horiz-adv-x="724" 
d="M547 918l-66 262l-166 -215l-88 96l230 143l-254 92l65 113l207 -174l8 270l129 -26l-100 -248l258 72l14 -127l-272 16l154 -223z" />
    <glyph glyph-name="plus" unicode="+" horiz-adv-x="1089" 
d="M608 610v-430h-45v430h-430v41h430v430h45v-430h430v-41h-430z" />
    <glyph glyph-name="comma" unicode="," horiz-adv-x="471" 
d="M-53 -272q86 58 139 125.5t53 121.5q0 56 -69 146v4l157 111q74 -60 74 -146q0 -57 -32 -115t-85.5 -107t-109 -87t-115.5 -70z" />
    <glyph glyph-name="hyphen" unicode="-" horiz-adv-x="585" 
d="M88 526l18 90h439l-17 -90h-440z" />
    <glyph glyph-name="period" unicode="." horiz-adv-x="471" 
d="M186 -8q-47 0 -80.5 33.5t-33.5 80.5t33.5 81t80.5 34t81 -34t34 -81t-34 -80.5t-81 -33.5z" />
    <glyph glyph-name="slash" unicode="/" horiz-adv-x="737" 
d="M893 1599h55l-1130 -1865h-56z" />
    <glyph glyph-name="zero" unicode="0" horiz-adv-x="1187" 
d="M1188 948q0 -192 -59 -374t-154.5 -313.5t-220.5 -211.5t-252 -80q-188 0 -300 158.5t-112 423.5q0 192 59 374t154.5 313.5t220.5 211.5t252 80q187 0 299.5 -159t112.5 -423zM504 10q80 0 152.5 47.5t128 129t101 187.5t74.5 225t44.5 241t15.5 235q0 208 -64 311
t-184 103q-95 0 -179.5 -67.5t-144.5 -178t-103.5 -250.5t-65 -286t-21.5 -283q0 -207 63.5 -310.5t182.5 -103.5z" />
    <glyph glyph-name="one" unicode="1" horiz-adv-x="503" 
d="M295 291q-19 -102 -16.5 -163t28.5 -124v-4h-282v4q49 64 71 121t43 168l166 944h-145l2 12q90 46 178.5 119.5t157.5 157.5h14z" />
    <glyph glyph-name="two" unicode="2" horiz-adv-x="917" 
d="M-61 0l2 25q242 211 405.5 381.5t258.5 312t135 257.5t40 232q0 143 -57.5 212t-144.5 69q-30 0 -58 -8t-51.5 -20.5t-49 -36t-45 -45t-46 -58t-45.5 -64.5t-49 -74q-11 -17 -17 -26l-18 6l96 305q145 62 291 62q174 0 267 -85.5t93 -250.5q0 -101 -35 -200t-97.5 -193.5
t-167.5 -202t-226.5 -212t-292.5 -236.5h389q99 0 164 42.5t141 133.5l13 -9l-121 -317h-774z" />
    <glyph glyph-name="three" unicode="3" horiz-adv-x="940" 
d="M338 -31q-93 0 -171 21.5t-118 54.5l-20 307l16 4q71 -182 142 -264t175 -82q83 0 153 48t114 125t68 169.5t24 186.5q0 170 -68.5 250.5t-185.5 80.5q-137 0 -242 -92l-16 21l588 538h-543l78 150h674l-5 -21l-626 -573q52 22 129 22q73 0 139 -24t120.5 -71t87 -126
t32.5 -180q0 -104 -34.5 -199.5t-99.5 -173.5t-171.5 -125t-239.5 -47z" />
    <glyph glyph-name="four" unicode="4" horiz-adv-x="970" 
d="M461 4q41 65 60 121t40 168l17 96h-570l4 25l785 1085h184l-907 -1063h514l94 531h154l-95 -531h152l-21 -47h-139l-18 -98q-19 -109 -16.5 -164.5t28.5 -122.5v-4h-268z" />
    <glyph glyph-name="five" unicode="5" horiz-adv-x="948" 
d="M334 -31q-94 0 -172 22t-117 54l-22 307l18 4q70 -183 140.5 -264.5t180.5 -81.5q86 0 154 46t109 123t62.5 172t21.5 200q0 187 -69.5 274.5t-205.5 87.5q-137 0 -246 -90l-14 11l236 665h630l-53 -149h-586l-161 -453q102 61 239 61q183 0 290.5 -108t107.5 -309
q0 -114 -37 -217t-104.5 -182.5t-171.5 -126t-230 -46.5z" />
    <glyph glyph-name="six" unicode="6" horiz-adv-x="999" 
d="M438 -31q-170 0 -268 127.5t-98 337.5q0 117 30 237.5t97.5 246t165.5 236.5t245 210.5t326 165.5l8 -21q-215 -105 -367.5 -279t-242.5 -390q51 69 128 112t171 43q152 0 242 -102.5t90 -290.5q0 -129 -44.5 -247t-117 -202t-168.5 -134t-197 -50zM442 10
q103 0 186 87.5t127 224t44 288.5q0 314 -219 314q-178 0 -281 -176q-66 -210 -66 -392q0 -168 53.5 -257t155.5 -89z" />
    <glyph glyph-name="seven" unicode="7" horiz-adv-x="858" 
d="M80 0q250 651 803 1350h-674l53 149h746l-2 -20q-521 -761 -748 -1479h-178z" />
    <glyph glyph-name="eight" unicode="8" horiz-adv-x="937" 
d="M424 -31q-166 0 -278.5 94.5t-112.5 253.5q0 152 94.5 268t282.5 173q-189 165 -189 370q0 118 56 210.5t145.5 140t193.5 47.5q146 0 232 -87.5t86 -230.5q0 -81 -28.5 -152.5t-102 -138.5t-187.5 -106q53 -46 90 -83.5t78 -92.5t62.5 -119.5t21.5 -136.5
q0 -120 -61.5 -215t-162.5 -145t-220 -50zM594 829q68 39 115 91t70 107.5t32.5 103t9.5 96.5q0 122 -53 190t-160 68q-119 0 -193.5 -73.5t-74.5 -194.5q0 -59 18.5 -112t56 -101.5t77.5 -86.5t100 -86zM442 10q136 0 219.5 84t83.5 213q0 28 -5 55t-11 48.5t-22 48
t-25 42.5t-34 42.5t-35.5 39t-43 40.5t-43 37.5t-48.5 41t-48 39.5q-278 -134 -278 -417q0 -147 78 -230.5t212 -83.5z" />
    <glyph glyph-name="nine" unicode="9" horiz-adv-x="999" 
d="M147 -10q213 104 366 278t243 389q-51 -68 -127.5 -110.5t-169.5 -42.5q-152 0 -242 102.5t-90 290.5q0 129 44 247t116.5 202t168.5 134t197 50q169 0 268 -128t99 -337q0 -117 -30 -237.5t-97.5 -246t-165.5 -236.5t-245 -210.5t-326 -165.5zM512 575q177 0 279 175
q67 195 67 393q0 168 -54 257t-157 89q-101 0 -183.5 -87t-126.5 -222.5t-44 -284.5q0 -320 219 -320z" />
    <glyph glyph-name="colon" unicode=":" horiz-adv-x="489" 
d="M303 631q-47 0 -81 33.5t-34 80.5t34 81t81 34t81 -34t34 -81t-34 -80.5t-81 -33.5zM190 -8q-47 0 -80.5 33.5t-33.5 80.5t33.5 81t80.5 34t81 -34t34 -81t-34 -80.5t-81 -33.5z" />
    <glyph glyph-name="semicolon" unicode=";" horiz-adv-x="479" 
d="M-53 -272q86 58 139 125.5t53 121.5q0 56 -69 146v4l157 111q74 -60 74 -146q0 -57 -32 -115t-85.5 -107t-109 -87t-115.5 -70zM303 631q-47 0 -81 33.5t-34 80.5t34 81t81 34t81 -34t34 -81t-34 -80.5t-81 -33.5z" />
    <glyph glyph-name="less" unicode="&#x3c;" horiz-adv-x="1085" 
d="M111 600v53l880 426v-51l-837 -401l837 -402v-51z" />
    <glyph glyph-name="equal" unicode="=" horiz-adv-x="1089" 
d="M133 774v43h905v-43h-905zM133 485v43h905v-43h-905z" />
    <glyph glyph-name="greater" unicode="&#x3e;" horiz-adv-x="1085" 
d="M135 174v51l838 402l-838 401v51l881 -426v-53z" />
    <glyph glyph-name="question" unicode="?" horiz-adv-x="808" 
d="M211 424q25 88 67.5 165t90 132t99.5 106.5t98.5 99t84.5 97.5t60 113.5t22 136.5q0 106 -43.5 162.5t-128.5 56.5q-88 0 -166.5 -68.5t-187.5 -218.5l-12 6l92 258q149 60 295 60q147 0 233 -69.5t86 -205.5q0 -76 -28 -141t-75 -115.5t-105.5 -97t-124 -95.5
t-125 -101.5t-113.5 -125t-86 -155.5h-33zM188 -8q-47 0 -79.5 33.5t-32.5 80.5q0 49 32.5 83t79.5 34q48 0 81.5 -34t33.5 -83q0 -47 -34 -80.5t-81 -33.5z" />
    <glyph glyph-name="at" unicode="@" horiz-adv-x="1722" 
d="M850 -330q-166 0 -309 51t-247.5 144.5t-164 233.5t-59.5 309q0 144 42.5 278.5t124 245.5t192 194.5t254 130t302.5 46.5q316 0 500 -169t184 -466q0 -122 -33.5 -232t-92.5 -192t-145 -130t-186 -48q-65 0 -113 22t-73 58t-36 83.5t-7.5 95.5t16.5 97l2 12
q-70 -167 -163.5 -275t-190.5 -108q-75 0 -119.5 61t-44.5 175t43 230t114.5 207.5t173.5 149.5t212 58q95 0 154 -33l65 33h12l-131 -494q-20 -75 -26.5 -131t1 -104t40.5 -73.5t92 -25.5q103 0 185 79.5t125.5 207.5t43.5 277q0 284 -164.5 439t-443.5 155
q-146 0 -274.5 -45t-224 -125t-165 -187t-104.5 -234.5t-35 -264.5q0 -213 87 -371.5t241 -241t354 -82.5q123 0 238 32t200 91l17 -33q-183 -131 -463 -131zM713 158q35 0 73 28t69 69t65.5 103t58 112.5t51.5 115.5l64 248q-30 59 -107 59q-74 0 -142.5 -57t-115.5 -144
t-75.5 -189t-28.5 -192q0 -153 88 -153z" />
    <glyph glyph-name="A" unicode="A" horiz-adv-x="1003" 
d="M588 1247l-297 -641h362zM152 0h-254v4q69 60 109 121.5t104 193.5l559 1194h49l129 -1230q11 -113 30.5 -169t59.5 -110v-4h-311v4q79 82 57 289l-27 272h-385l-92 -198q-38 -81 -52 -155t-6.5 -124.5t30.5 -83.5v-4z" />
    <glyph glyph-name="B" unicode="B" horiz-adv-x="1050" 
d="M31 0v4q41 70 61 131t43 180l158 871q20 109 18.5 175t-26.5 134v4q70 0 182 3t172 3q405 0 405 -321q0 -159 -89 -266.5t-255 -133.5q126 -22 204.5 -103.5t78.5 -227.5q0 -93 -32.5 -172.5t-97.5 -143.5t-175.5 -100.5t-255.5 -36.5h-391zM385 801h164q75 0 134 23
t96.5 61t62.5 89.5t35 105t10 112.5q0 135 -60.5 204.5t-205.5 69.5q-73 0 -119 -12zM420 41q190 0 290.5 109.5t100.5 312.5q0 66 -11.5 115.5t-40 92.5t-84 66t-136.5 23h-162l-125 -701q63 -18 168 -18z" />
    <glyph glyph-name="C" unicode="C" horiz-adv-x="1243" 
d="M1071 102q-56 -44 -180 -88.5t-258 -44.5q-174 0 -295.5 82.5t-179.5 224t-58 330.5q0 183 59.5 352t161.5 295t249 201.5t313 75.5q104 0 197 -28.5t149 -59.5l22 -322l-18 -4q-85 201 -176.5 287t-214.5 86q-104 0 -196 -53.5t-158.5 -144.5t-115 -210.5t-72.5 -254
t-24 -271.5q0 -247 95 -396t266 -149q61 0 118.5 22.5t104.5 57t98 92t90 112t89 132.5l20 -4z" />
    <glyph glyph-name="D" unicode="D" horiz-adv-x="1232" 
d="M29 4q42 63 63.5 122.5t36.5 158.5l168 929q17 99 14 159t-28 122v4q109 0 199 3t194 3q549 0 549 -596q0 -253 -99.5 -459.5t-285 -328t-422.5 -121.5h-389v4zM502 1466l-256 -1431l166 4q108 2 200.5 39t161 100.5t121.5 147.5t86 183.5t49.5 205t16.5 215.5
q0 268 -99.5 402t-304.5 134h-141z" />
    <glyph glyph-name="E" unicode="E" horiz-adv-x="1036" 
d="M838 0h-807v4q40 69 61.5 132.5t38.5 162.5l164 901q16 108 13.5 163t-21.5 132v4h704l25 -321l-19 -4q-70 141 -123.5 209t-117.5 69l-252 8l-123 -686h158q17 0 34 6t34.5 19t31.5 25t32 33.5t28 34t29 37.5t26 34h18l-70 -408h-18q-4 9 -16 35t-17.5 37t-17 32
t-20.5 30.5t-22 21.5t-27.5 17t-31.5 5h-159l-125 -698l301 10q53 2 101.5 23.5t94.5 63.5t85 86.5t92 110.5q6 9 10 13.5t9.5 11.5t10.5 13l19 -9z" />
    <glyph glyph-name="F" unicode="F" horiz-adv-x="960" 
d="M303 0h-274v4q43 72 64.5 133.5t41.5 171.5l158 881q17 110 15.5 172t-23.5 133v4h737l25 -321l-19 -4q-71 144 -123.5 210.5t-118.5 67.5l-284 10l-121 -667h178q20 0 41.5 10t37.5 21t39 36t33 37.5t34 44.5t30 39h19l-68 -408h-18q-4 9 -16 35t-17.5 37t-17 32t-21 31
t-22.5 22t-28 17t-32 5h-180l-80 -445q-20 -110 -17.5 -172.5t27.5 -132.5v-4z" />
    <glyph glyph-name="G" unicode="G" horiz-adv-x="1286" 
d="M1253 668q-41 -70 -62 -133.5t-42 -178.5l-31 -174q-4 -3 -48 -38.5t-63 -49t-69 -43.5t-89.5 -43.5t-99.5 -26t-122 -12.5q-254 0 -390.5 172t-136.5 463q0 180 60 348.5t163 296t251.5 204.5t316.5 77q104 0 198.5 -29t149.5 -59l21 -322l-19 -4q-88 202 -177 287.5
t-214 85.5q-130 0 -240.5 -81.5t-182 -215.5t-111.5 -301.5t-40 -343.5q0 -120 19.5 -215.5t61 -169t111.5 -113t165 -39.5q169 0 261 119t110 330q8 113 -25 209v4h274v-4z" />
    <glyph glyph-name="H" unicode="H" horiz-adv-x="1236" 
d="M31 4q42 71 62.5 132t41.5 173l156 881q17 110 15.5 172t-23.5 133l-2 4h276v-4q-42 -66 -63.5 -129.5t-42.5 -175.5l-70 -395h580l69 395q20 109 18.5 172.5t-26.5 132.5v4h276v-4q-43 -68 -64 -129t-42 -176l-156 -881q-18 -117 -14.5 -172t25.5 -133v-4h-275v4
q43 72 64 133t41 172l77 445h-579l-78 -445q-19 -114 -16.5 -171.5t24.5 -133.5v-4h-274v4z" />
    <glyph glyph-name="I" unicode="I" horiz-adv-x="495" 
d="M29 0v4q43 72 64.5 133.5t41.5 171.5l158 881q17 110 15.5 172t-23.5 133v4h274v-4q-43 -68 -64 -129t-42 -176l-158 -881q-19 -114 -16.5 -171.5t24.5 -133.5v-4h-274z" />
    <glyph glyph-name="J" unicode="J" horiz-adv-x="684" 
d="M492 295q-29 -164 -108.5 -245t-199.5 -81q-93 0 -176 47l23 287l18 4q47 -164 79.5 -230.5t76.5 -66.5q76 0 106 168l178 1012q18 108 17 172.5t-25 132.5v4h275v-4q-42 -65 -63 -127t-42 -178z" />
    <glyph glyph-name="K" unicode="K" horiz-adv-x="1064" 
d="M29 4q43 72 64.5 133.5t41.5 171.5l158 881q17 110 15.5 172t-23.5 133v4h276l-2 -4q-43 -68 -64 -129t-42 -176l-158 -881q-19 -114 -16.5 -171.5t24.5 -133.5v-4h-274v4zM770 0l-375 739l418 482q89 100 115.5 159.5t1.5 114.5v4h262v-4q-103 -58 -170 -116.5
t-148 -153.5l-346 -394l308 -608q38 -80 72.5 -125.5t97.5 -93.5v-4h-236z" />
    <glyph glyph-name="L" unicode="L" horiz-adv-x="993" 
d="M29 0v4q44 74 65.5 134t40.5 171l158 881q17 110 15.5 172t-23.5 133v4h274v-4q-43 -65 -64 -127.5t-42 -177.5l-207 -1159l280 14q44 2 88.5 21.5t81 46.5t80 73.5t75 85.5t75.5 99l14 -9l-145 -362h-766z" />
    <glyph glyph-name="M" unicode="M" horiz-adv-x="1470" 
d="M-8 0v4q73 101 103 171.5t50 191.5l142 804l-2 -6q21 122 11.5 189t-69.5 141v4h252l219 -1220l631 1220h266v-4q-88 -68 -117.5 -129t-56.5 -203l-149 -854q-19 -114 -16.5 -171.5t24.5 -133.5l-2 -4h-274v4q43 67 64 129t42 176l176 1010l-659 -1276h-43l-228 1270
l-163 -946q-23 -115 -17 -192.5t53 -170.5v-4h-237z" />
    <glyph glyph-name="N" unicode="N" horiz-adv-x="1212" 
d="M358 1303l-168 -941q-23 -114 -16.5 -189t53.5 -169v-4h-227v4q49 68 75.5 124.5t37 95.5t30.5 138l146 803l-2 -4q10 62 13.5 90.5t5 68t-5.5 63.5t-21.5 52.5t-40.5 59.5v4h213l522 -1225l153 863q22 114 17 189t-47 169v4h227v-4q-71 -98 -98.5 -166.5t-48.5 -191.5
l-205 -1137l-51 -6z" />
    <glyph glyph-name="O" unicode="O" horiz-adv-x="1368" 
d="M1360 905q0 -181 -62.5 -353.5t-165 -300t-242.5 -205t-288 -77.5t-262.5 79.5t-177 221.5t-62.5 324q0 181 62.5 353.5t165 300t242.5 205t288 77.5t262.5 -79.5t177 -221.5t62.5 -324zM276 528q0 -237 86 -377.5t252 -140.5q104 0 195.5 55.5t158.5 150t116 217
t73.5 260.5t24.5 278q0 238 -85 378t-251 140q-128 0 -237.5 -85t-181 -222.5t-111.5 -308t-40 -345.5z" />
    <glyph glyph-name="P" unicode="P" horiz-adv-x="999" 
d="M29 4q43 72 64.5 133.5t41.5 171.5l158 881q17 110 15.5 172t-23.5 133v4h372q406 0 406 -350q0 -234 -157 -384.5t-408 -150.5h-148l-55 -305q-19 -114 -16.5 -171.5t24.5 -133.5v-4h-274v4zM643 1458q-59 0 -141 -4l-146 -799h150q84 0 151.5 30t110.5 79.5t72 116.5
t41 136.5t12 143.5q0 160 -57.5 228.5t-192.5 68.5z" />
    <glyph glyph-name="Q" unicode="Q" horiz-adv-x="1368" 
d="M1360 905q0 -273 -131 -507.5t-338 -352.5q-115 -65 -240 -74q75 -75 166 -106q107 -37 207 -37q130 0 229 45l-57 -149q-65 -41 -176 -41q-130 0 -228 63.5t-153 153.5q-29 49 -39 69q-117 0 -203 45q-139 71 -218 223t-79 357q0 181 62.5 353.5t165 300t242.5 205
t288 77.5t262.5 -79.5t177 -221.5t62.5 -324zM276 528q0 -237 86 -377.5t252 -140.5q104 0 195.5 55.5t158.5 150t116 217t73.5 260.5t24.5 278q0 238 -85 378t-251 140q-128 0 -237.5 -85t-181 -222.5t-111.5 -308t-40 -345.5z" />
    <glyph glyph-name="R" unicode="R" horiz-adv-x="1067" 
d="M31 4q40 69 61 132t43 179l158 871q17 110 15.5 173.5t-23.5 135.5v4h393q371 0 371 -317q0 -158 -93.5 -275.5t-242.5 -158.5l129 -504q29 -105 61.5 -153t93.5 -83v-8h-262l-182 723h-184l-74 -410q-19 -115 -16.5 -175t24.5 -134v-4h-272v4zM645 1458h-70
q-48 0 -75 -2l-123 -692h172q81 0 144.5 36.5t102 98t58.5 136.5t20 157q0 133 -55 199.5t-174 66.5z" />
    <glyph glyph-name="S" unicode="S" 
d="M934 1133l-19 -5q-65 202 -138.5 281.5t-166.5 79.5q-107 0 -174 -75t-67 -189q0 -55 15.5 -104t51.5 -98.5t62.5 -78.5t80.5 -83l19 -19q53 -53 86 -92t70 -95.5t55 -121.5t18 -138q0 -201 -126.5 -313.5t-325.5 -112.5q-90 0 -178.5 22t-151.5 58l-14 365l18 4
q76 -220 163.5 -314t203.5 -94q84 0 147.5 45.5t95 118t31.5 158.5q0 62 -17.5 117t-55 106.5t-68.5 84.5t-86 85l-82 86q-143 150 -143 330q0 125 59 215t150.5 132t201.5 42q153 0 275 -66z" />
    <glyph glyph-name="T" unicode="T" horiz-adv-x="1171" 
d="M360 0v4q41 71 63 134t42 171l209 1155l-180 -8q-69 -4 -141.5 -82t-198.5 -258l-19 8l129 375h989l-4 -379l-18 -4q-60 177 -103.5 257t-95.5 81l-198 8l-207 -1153q-19 -114 -16.5 -172.5t24.5 -132.5v-4h-275z" />
    <glyph glyph-name="U" unicode="U" horiz-adv-x="1138" 
d="M520 -31q-93 0 -170.5 29.5t-136 91.5t-78.5 158.5t2 230.5l129 711q20 109 18.5 172.5t-26.5 132.5v4h274v-4q-39 -64 -61.5 -130t-42.5 -175l-127 -705q-22 -128 -14.5 -217.5t46 -145.5t92 -81t122.5 -25q68 0 126 24.5t99 64.5t73 96.5t51.5 115.5t31.5 127l129 693
q25 119 17.5 189.5t-56.5 168.5v4h246v-4q-77 -100 -107.5 -169t-50.5 -189l-131 -693q-88 -475 -455 -475z" />
    <glyph glyph-name="V" unicode="V" horiz-adv-x="991" 
d="M358 -16l-106 1187q-11 132 -30 201.5t-50 122.5v4h299v-4q-73 -103 -55 -326l76 -915l411 879q107 228 51 362v4h228v-4q-63 -54 -102.5 -116t-104.5 -201l-565 -1194h-52z" />
    <glyph glyph-name="W" unicode="W" horiz-adv-x="1576" 
d="M348 -16l-96 1187q-11 135 -28.5 202.5t-49.5 121.5v4h295v-4q-72 -114 -55 -326l69 -901l391 867l-2 36q-11 135 -28.5 201t-50.5 123v4h299v-4q-71 -95 -58 -326l62 -901l395 865q108 227 51 362v4h227v-4q-65 -57 -103.5 -117t-102.5 -200l-551 -1194h-51l-78 1058
l-484 -1058h-51z" />
    <glyph glyph-name="X" unicode="X" horiz-adv-x="1054" 
d="M213 0h-268v4q75 56 126.5 116t131.5 175l301 448l-152 482q-40 119 -67.5 175.5t-73.5 94.5v4h328v-4q-28 -35 -35.5 -97t18.5 -159l117 -371l199 293q55 80 78.5 146.5t22 106.5t-18.5 81v4h266v-4q-52 -36 -98.5 -83.5t-73.5 -83t-92 -124.5l-265 -389l170 -541
q32 -108 64.5 -168.5t79.5 -101.5v-4h-328v4q28 35 34 97.5t-20 158.5l-135 430l-235 -352q-146 -221 -74 -334v-4z" />
    <glyph glyph-name="Y" unicode="Y" horiz-adv-x="970" 
d="M248 4q53 78 76.5 138.5t44.5 164.5l69 385l-135 535q-30 108 -57.5 168t-67.5 100v4h320v-4q-33 -33 -41.5 -96.5t12.5 -157.5l119 -491l248 409q126 200 59 336v4h246v-4q-65 -65 -114.5 -127.5t-119.5 -169.5l-311 -516l-66 -375q-20 -105 -16.5 -165.5t33.5 -137.5
l-2 -4h-297v4z" />
    <glyph glyph-name="Z" unicode="Z" horiz-adv-x="1009" 
d="M-45 0v23l979 1441l-266 -8q-63 -3 -115.5 -20t-91 -40t-83 -69.5t-75 -86.5t-82.5 -114l-18 9l133 364h788v-22l-974 -1444l307 12q65 3 120 21.5t98 46.5t89 78.5t82.5 101.5t87.5 131l18 -6l-155 -418h-842z" />
    <glyph glyph-name="bracketleft" unicode="[" horiz-adv-x="671" 
d="M416 1546h432l-8 -39h-305l-353 -1734h307l-10 -39h-430z" />
    <glyph glyph-name="backslash" unicode="\" horiz-adv-x="735" 
d="M166 1599l612 -1865h-51l-612 1865h51z" />
    <glyph glyph-name="bracketright" unicode="]" horiz-adv-x="671" 
d="M299 -266h-432l8 39h305l352 1734h-307l11 39h430z" />
    <glyph glyph-name="asciicircum" unicode="^" horiz-adv-x="843" 
d="M571 1343l-399 -362l-16 16l436 537h12l250 -539l-20 -14z" />
    <glyph glyph-name="underscore" unicode="_" horiz-adv-x="1009" 
d="M-18 -205l6 39h880l-6 -39h-880z" />
    <glyph glyph-name="grave" unicode="`" horiz-adv-x="612" 
d="M606 1100l-307 346l127 88l199 -420z" />
    <glyph glyph-name="a" unicode="a" 
d="M631 410q-40 -94 -84.5 -170.5t-96 -139t-110.5 -97t-119 -34.5q-86 0 -135 72t-49 205q0 107 31.5 217.5t90.5 207t136 172t174.5 119.5t200.5 44q102 0 174 -35l63 35h13l-197 -754q-8 -32 -11.5 -47t-8 -39t-4 -34.5t1.5 -27t7 -25t15.5 -20t23.5 -20t33 -16.5v-3
l-264 -38zM297 86q36 0 73 21.5t71 63.5t64.5 87.5t62.5 110.5t54 114t50 115l78 295q-38 65 -127 65q-88 0 -169.5 -66.5t-137.5 -168t-89.5 -221t-33.5 -226.5q0 -190 104 -190z" />
    <glyph glyph-name="b" unicode="b" horiz-adv-x="940" 
d="M373 -31q-67 0 -124.5 22t-103.5 71t-59 128t8 193l185 854q19 98 9.5 160.5t-50.5 109.5v4l260 84l-217 -995q163 406 405 406q217 0 217 -314q0 -138 -41 -269.5t-110.5 -231.5t-169 -161t-209.5 -61zM385 6q106 0 192 111t129.5 266.5t43.5 308.5q0 118 -31.5 170.5
t-95.5 52.5q-37 0 -75.5 -20t-86 -68t-101 -144.5t-106.5 -233.5l-21 -93q-18 -98 -13.5 -164.5t30 -108t59.5 -59.5t76 -18z" />
    <glyph glyph-name="c" unicode="c" horiz-adv-x="782" 
d="M694 289q-45 -147 -136.5 -233.5t-221.5 -86.5q-143 0 -221 103.5t-78 275.5q0 124 42 244t113 211t171.5 147t209.5 56q60 0 110.5 -14t74.5 -29l8 -232l-18 -4q-29 60 -49.5 97t-48.5 74t-58.5 54t-65.5 17q-41 0 -86.5 -24.5t-89 -73t-78.5 -113.5t-56 -154t-21 -186
q0 -161 57 -244.5t166 -83.5q74 0 138 45.5t120 159.5z" />
    <glyph glyph-name="d" unicode="d" horiz-adv-x="950" 
d="M297 86q185 0 399 530l56 256q-30 86 -150 86q-83 0 -161 -66t-132 -167t-86.5 -222.5t-32.5 -232.5q0 -106 29 -145t78 -39zM676 475q-46 -107 -94.5 -193.5t-106 -159t-122 -113t-130.5 -40.5q-88 0 -137 68.5t-49 202.5q0 138 47 275.5t126.5 246t195 176.5t243.5 68
q54 0 127 -15l53 246q25 97 17.5 160.5t-55.5 109.5v4l258 84l-287 -1343q-22 -114 -19 -144q5 -48 56 -71q10 -4 22 -8v-4l-262 -43z" />
    <glyph glyph-name="e" unicode="e" horiz-adv-x="770" 
d="M315 -31q-129 0 -203.5 94.5t-74.5 260.5q0 169 76 327t205.5 256.5t273.5 98.5q78 0 136 -34.5t58 -107.5q0 -50 -29 -92.5t-91 -78t-173 -55.5t-260 -20q-34 -112 -34 -237q0 -156 53.5 -226.5t142.5 -70.5q145 0 250 168l14 -10q-54 -129 -144 -201t-200 -72zM571 969
q-98 0 -189 -90t-140 -238q103 12 181 34.5t121.5 46.5t70.5 54t35.5 54.5t8.5 50.5q0 88 -88 88z" />
    <glyph glyph-name="f" unicode="f" horiz-adv-x="542" 
d="M272 936h-120l8 39h121l36 172q48 218 154 333t238 115q64 0 118 -28l17 -209l-13 -4q-27 45 -39.5 66t-34 52t-36 44.5t-33.5 24.5t-37 11q-107 0 -180 -350l-47 -227h190l-8 -39h-190l-271 -1274h-143z" />
    <glyph glyph-name="g" unicode="g" horiz-adv-x="835" 
d="M242 530q0 -97 24 -142.5t82 -45.5q100 0 175 128t75 310q0 96 -25 142.5t-84 46.5q-65 0 -121.5 -58t-91 -159.5t-34.5 -221.5zM702 -137q0 -133 -132.5 -228.5t-346.5 -95.5q-162 0 -263 55.5t-101 157.5q0 68 47.5 122.5t117.5 86t156 45.5q-100 54 -100 144
q0 69 44.5 115t111.5 67q-68 35 -105 101.5t-37 146.5t36 158.5t92 137t127 94.5t140 36q73 0 132 -35l301 61l2 -2l-33 -139h-8l-230 55q92 -86 92 -217q0 -79 -36 -157.5t-92.5 -136.5t-128.5 -94t-140 -36q-39 0 -86 14q-45 -19 -62.5 -42t-17.5 -54q0 -56 60.5 -85.5
t169.5 -47.5q131 -29 184 -58q105 -58 106 -169zM266 -408q156 0 249 60.5t93 150.5q0 21 -6.5 39t-15.5 30.5t-27 24t-32 18t-40 14t-41.5 11t-46.5 10t-45 9.5q-84 14 -145 37q-217 -58 -217 -219q0 -85 66.5 -135t207.5 -50z" />
    <glyph glyph-name="h" unicode="h" horiz-adv-x="976" 
d="M739 705q20 75 2 129.5t-75 54.5q-87 0 -188 -134t-228 -421l-12 -60q-13 -66 -18.5 -105t-4.5 -82.5t12 -82.5v-4h-223v4q36 62 58.5 139.5t50.5 212.5l188 881q25 97 17 160.5t-56 109.5v4l258 84l-248 -1126q63 154 135.5 271t160.5 191.5t175 74.5q93 0 131.5 -78
t8.5 -221l-95 -447q-6 -32 -9 -47t-7.5 -40t-5 -36.5t-1 -29.5t2 -26t7 -20t12 -17l18 -12t24 -10.5t31.5 -5.5v-4l-276 -30z" />
    <glyph glyph-name="i" unicode="i" horiz-adv-x="415" 
d="M471 1350q0 -43 -29.5 -73t-70.5 -30q-42 0 -72.5 30.5t-30.5 72.5q0 41 30.5 70.5t72.5 29.5q41 0 70.5 -29.5t29.5 -70.5zM8 4q28 43 49 101.5t30.5 101.5t31.5 149l61 301q41 189 -41 271v4l256 84l-141 -705q-18 -82 -25.5 -130t-7 -92.5t11.5 -84.5v-4h-225v4z" />
    <glyph glyph-name="j" unicode="j" horiz-adv-x="401" 
d="M463 1350q0 -43 -30 -73t-73 -30q-41 0 -70.5 30t-29.5 73q0 41 29.5 70.5t70.5 29.5q43 0 73 -29.5t30 -70.5zM-154 -430q111 74 158 274l168 813q41 189 -41 271v4l254 84l-221 -1073q-36 -168 -121 -266.5t-195 -116.5z" />
    <glyph glyph-name="k" unicode="k" horiz-adv-x="862" 
d="M4 0v4q38 66 59.5 139t49.5 213l186 881q25 97 17 160.5t-56 109.5v4l260 84l-270 -1271q-19 -91 -26.5 -139t-7.5 -94.5t11 -86.5v-4h-223zM311 508l295 287q111 111 64 176v4h256v-4q-82 -32 -136 -71t-153 -134l-197 -188l193 -390q41 -81 72 -120.5t81 -63.5v-4h-225
z" />
    <glyph glyph-name="l" unicode="l" horiz-adv-x="411" 
d="M4 0v4q36 62 58.5 139.5t50.5 212.5l188 881q25 97 17 160.5t-56 109.5v4l258 84l-264 -1235q-32 -145 -38 -221t9 -135v-4h-223z" />
    <glyph glyph-name="m" unicode="m" horiz-adv-x="1460" 
d="M1225 705q19 82 3.5 133t-67.5 51q-82 0 -176 -134t-217 -427l-6 -27q-23 -114 -26.5 -168t12.5 -129v-4h-224v4q36 63 57 134.5t50 211.5l78 355q20 85 4 134.5t-66 49.5q-78 0 -172 -134t-215 -421l-12 -60q-20 -93 -23 -147.5t13 -122.5v-4h-226v4q38 63 60 138
t51 214l63 301q42 188 -41 271v4l256 84l-110 -518q60 148 127 258.5t148 180t161 69.5q83 0 115 -78t0 -223l-47 -222q45 113 94 204.5t104.5 164.5t118 113.5t125.5 40.5q92 0 127 -78.5t4 -220.5l-100 -449q-33 -124 -20.5 -175.5t93.5 -62.5v-4l-276 -34z" />
    <glyph glyph-name="n" unicode="n" horiz-adv-x="987" 
d="M752 705q20 75 0.5 129.5t-76.5 54.5q-175 0 -414 -555l-12 -60q-21 -95 -24 -147.5t12 -122.5v-4h-226v4q39 66 60.5 139t50.5 213l63 301q42 190 -39 271v4l256 84l-116 -537q63 152 135.5 267t160 187.5t173.5 72.5q90 0 129.5 -78.5t9.5 -220.5l-98 -447
q-34 -124 -21.5 -178.5t92.5 -65.5v-4l-276 -30z" />
    <glyph glyph-name="o" unicode="o" horiz-adv-x="870" 
d="M834 643q0 -165 -72.5 -322t-190 -254.5t-241.5 -97.5q-136 0 -214.5 96.5t-78.5 266.5q0 165 72.5 322t190 254.5t241.5 97.5q136 0 214.5 -96.5t78.5 -266.5zM190 279q0 -273 146 -273q65 0 127.5 53.5t110.5 144.5t77 220t29 270q0 275 -145 275q-89 0 -168.5 -90.5
t-128 -251t-48.5 -348.5z" />
    <glyph glyph-name="p" unicode="p" horiz-adv-x="952" 
d="M401 6q66 0 124.5 43t101 113.5t73.5 159.5t46.5 182.5t15.5 181.5q0 121 -32 175t-97 54q-182 0 -361 -475l-30 -151q-10 -76 0.5 -133.5t35.5 -88.5t56 -46t67 -15zM-92 -461v4q38 66 58.5 138t49.5 215l158 761q42 190 -39 271v4l256 84l-90 -420q162 410 397 410
q217 0 217 -322q0 -137 -39.5 -266.5t-107.5 -228.5t-166.5 -159.5t-208.5 -60.5q-127 0 -203 76l-36 -182q-18 -88 -25.5 -137.5t-7 -95.5t11.5 -87v-4h-225z" />
    <glyph glyph-name="q" unicode="q" horiz-adv-x="935" 
d="M430 -457q41 67 66 148.5t53 218.5l117 555q-90 -225 -206 -360.5t-235 -135.5q-88 0 -138 70t-50 203q0 137 48 274t130 245.5t202 176.5t253 68q116 0 194 -45l51 45h11l-236 -1108q-16 -77 -24 -119t-13.5 -89.5t-3.5 -81t10 -65.5v-4h-231zM301 86q183 0 408 576
l28 143q13 76 -19 114.5t-97 38.5q-59 0 -116 -30.5t-103.5 -81.5t-86.5 -119.5t-67 -144t-42.5 -155t-15.5 -151.5q0 -190 111 -190z" />
    <glyph glyph-name="r" unicode="r" horiz-adv-x="653" 
d="M12 4q38 63 60 138t51 214l63 301q42 190 -39 271v4l254 84l-118 -543q99 250 208 391.5t234 141.5l-74 -199h-6l-20 8q-12 4 -25 4q-82 0 -154 -107.5t-184 -379.5l-12 -58q-21 -92 -24.5 -147.5t12.5 -122.5v-4h-226v4z" />
    <glyph glyph-name="s" unicode="s" horiz-adv-x="657" 
d="M616 743l-14 -4q-59 126 -110.5 178t-112.5 52t-97 -43.5t-36 -106.5q0 -42 17.5 -80.5t45.5 -69.5t62.5 -63t68.5 -67t62 -73t45.5 -89.5t17.5 -110.5q0 -138 -86.5 -217.5t-218.5 -79.5q-72 0 -136.5 19t-100.5 49l-9 260l15 4q119 -295 266 -295q68 0 113 48.5
t45 131.5q0 63 -32.5 118t-78.5 98.5t-92 89t-78.5 109t-32.5 138.5q0 128 82.5 197.5t204.5 69.5q108 0 188 -37z" />
    <glyph glyph-name="t" unicode="t" horiz-adv-x="591" 
d="M207 -31q-42 0 -70.5 21t-43.5 73t5 140l158 733h-111v10l291 211h10l-38 -182h239l-8 -39h-240l-157 -731q-30 -129 41 -129q45 0 100.5 49.5t89.5 103.5l19 -12q-62 -117 -136.5 -182.5t-148.5 -65.5z" />
    <glyph glyph-name="u" unicode="u" horiz-adv-x="933" 
d="M637 412q-90 -198 -199 -320.5t-227 -122.5q-91 0 -137.5 77t-7.5 220l122 471q13 47 17 80t0 64.5t-23.5 53.5t-54.5 36v4h260l-178 -705q-24 -92 -2.5 -140t78.5 -48q95 0 202.5 152.5t212.5 427.5l29 106q44 156 -72 203v4h269l-191 -723q-9 -36 -13 -53.5t-8 -42.5
t-2.5 -37t5.5 -28.5t14 -26.5t25 -20.5t37 -20.5v-3l-269 -38z" />
    <glyph glyph-name="v" unicode="v" horiz-adv-x="741" 
d="M166 715q-5 114 -20.5 164t-65.5 92v4h223l23 -733l221 364q65 103 90.5 169.5t15 114.5t-62.5 81v4h237v-4l-612 -985h-27z" />
    <glyph glyph-name="w" unicode="w" horiz-adv-x="1118" 
d="M166 715q-5 113 -20.5 162t-65.5 94v4h225l21 -721l270 457v4q0 104 -20 156.5t-70 99.5v4h229l10 -713l195 344q87 151 94.5 232t-63.5 133v4h229v-4l-567 -985h-27l-8 643l-383 -643h-25z" />
    <glyph glyph-name="x" unicode="x" horiz-adv-x="856" 
d="M190 0h-245v4q79 58 130 106.5t109 125.5l187 239l-103 277q-35 91 -61.5 137.5t-63.5 81.5v4h279v-4q-15 -10 -24 -33t-6.5 -68.5t22.5 -101.5l73 -199l115 148q72 92 88 159.5t-24 94.5v4h245v-4q-78 -57 -127 -105t-108 -127l-172 -217l110 -301q31 -86 59.5 -132.5
t69.5 -84.5v-4h-276v4q54 54 2 203l-82 221l-129 -170q-50 -63 -72.5 -114.5t-20 -84.5t24.5 -55v-4z" />
    <glyph glyph-name="y" unicode="y" horiz-adv-x="747" 
d="M-178 -291q43 0 72.5 3t77 18t86 43.5t86.5 84t92 134.5l-66 723q-12 126 -27.5 169.5t-66.5 86.5v4h219l65 -750l203 381q35 65 56 110t32.5 86.5t8 70.5t-21 53.5t-50.5 44.5v4h233v-4l-571 -1037q-52 -96 -104 -166.5t-95.5 -111.5t-92.5 -66.5t-86.5 -35t-86.5 -15.5
z" />
    <glyph glyph-name="z" unicode="z" horiz-adv-x="780" 
d="M-43 0v14l676 926l-195 -8q-72 -4 -143 -49.5t-168 -134.5l-8 4l100 223h592v-19l-674 -923l246 6q88 4 159.5 52t174.5 151l8 -4l-121 -238h-647z" />
    <glyph glyph-name="braceleft" unicode="{" horiz-adv-x="630" 
d="M383 -266q-146 0 -218.5 52.5t-72.5 152.5q0 55 22.5 112.5t54 107.5t63.5 99.5t54.5 106t22.5 110.5q0 78 -48.5 112t-141.5 34h-35l10 38h33q224 0 260 185q12 65 -1.5 151.5t-27 147t1.5 151.5q24 119 123.5 185.5t268.5 66.5h53l-6 -39h-54q-209 0 -251 -213
q-14 -80 -6.5 -223t-6.5 -207q-12 -60 -38.5 -102.5t-65 -67t-82 -37t-98.5 -16.5l-2 -6q92 -5 146 -48t54 -132q0 -60 -26.5 -134t-58.5 -133.5t-58.5 -133.5t-26.5 -134q0 -80 44 -113.5t124 -33.5h53l-8 -39h-55z" />
    <glyph glyph-name="bar" unicode="|" horiz-adv-x="417" 
d="M236 -266v1865h49v-1865h-49z" />
    <glyph glyph-name="braceright" unicode="}" horiz-adv-x="630" 
d="M299 1546q146 0 218.5 -52.5t72.5 -152.5q0 -55 -22.5 -112.5t-54 -107.5t-63.5 -99.5t-54.5 -106t-22.5 -110.5q0 -78 48.5 -112t141.5 -34h35l-10 -38h-33q-224 0 -260 -185q-12 -65 1.5 -151.5t27 -147t-1.5 -151.5q-24 -119 -123.5 -185.5t-268.5 -66.5h-53l6 39h54
q209 0 251 213q14 80 6.5 223t6.5 207q12 60 38.5 102.5t65 67t82 37t98.5 16.5l2 6q-92 5 -146 48t-54 132q0 60 26.5 134t58.5 133.5t58.5 133.5t26.5 134q0 80 -44 113.5t-124 33.5h-53l8 39h55z" />
    <glyph glyph-name="asciitilde" unicode="~" horiz-adv-x="925" 
d="M303 674q40 0 115.5 -27t160 -53.5t144.5 -26.5q59 0 90 28t49 91l19 -4q-2 -28 -7.5 -55t-19.5 -59t-34.5 -55.5t-55 -39.5t-78.5 -16q-58 0 -213 53t-209 53q-59 0 -92 -30.5t-47 -92.5l-21 4q3 35 13.5 70.5t31.5 73.5t61 62t93 24z" />
    <glyph glyph-name="uni00A0" unicode="&#xa0;" horiz-adv-x="284" 
 />
    <glyph glyph-name="exclamdown" unicode="&#xa1;" horiz-adv-x="440" 
d="M-63 -498l292 1071h31l-160 -1071l-2 -4h-164zM293 1006q47 0 81 -34t34 -81q0 -49 -33.5 -83t-81.5 -34t-81.5 34t-33.5 83q0 47 34 81t81 34z" />
    <glyph glyph-name="cent" unicode="&#xa2;" horiz-adv-x="782" 
d="M694 289q-44 -143 -133 -232q-85 -82 -211 -88l-43 -202h-47l43 204q-49 3 -96 27q-82 39 -126 131t-44 219q0 187 90.5 353.5t234.5 248.5q80 43 158 51l31 140h47l-29 -135h4q60 0 110.5 -14t74.5 -29l8 -232l-18 -4q-44 92 -78.5 145t-77.5 78q-13 8 -31 15l-184 -873
q12 -2 41 -2q74 0 138 45.5t120 159.5zM416 930q-92 -63 -156.5 -199t-64.5 -313q0 -166 57 -246q30 -47 80 -68l182 865q-48 -6 -98 -39z" />
    <glyph glyph-name="sterling" unicode="&#xa3;" horiz-adv-x="1060" 
d="M856 0h-907v16q56 36 90.5 63t75.5 75.5t70 111.5t60 162t60 234l17 79h-160l10 39h158l39 187q60 278 180 420.5t272 142.5q57 0 114 -19t97 -45l21 -309l-19 -4q-80 180 -142 258t-104 78q-118 0 -241 -485l-55 -224h245l-8 -39h-248q-47 -172 -105 -296.5t-113 -193.5
t-120 -114h512q85 0 142 21t100.5 65t97.5 129l15 -6z" />
    <glyph glyph-name="yen" unicode="&#xa5;" horiz-adv-x="966" 
d="M246 4q53 78 76.5 138.5t44.5 164.5l14 84h-322l7 39h323l41 229h-321l8 39h311l-121 529q-44 185 -127 268v4h324v-4q-67 -67 -29 -254l109 -508l245 426q122 210 60 336v4h244v-4q-75 -75 -124 -135.5t-108 -161.5l-291 -500h308l-9 -39h-319l-41 -229h315l-6 -39h-315
l-15 -84q-20 -105 -16.5 -165.5t33.5 -137.5l-2 -4h-297v4z" />
    <glyph glyph-name="brokenbar" unicode="&#xa6;" horiz-adv-x="417" 
d="M236 748v851h49v-851h-49zM236 -266v850h49v-850h-49z" />
    <glyph glyph-name="section" unicode="&#xa7;" horiz-adv-x="1007" 
d="M467 377q108 -83 147 -127q79 25 124.5 87.5t45.5 147.5q0 43 -13.5 81.5t-30.5 65.5t-52 60.5t-58 51t-70 51.5q-7 5 -11 8q-97 69 -150 129q-78 -25 -124 -88.5t-46 -147.5q0 -31 8 -61t17 -52t31.5 -48.5t35.5 -41t46.5 -41.5t47 -36.5t52.5 -38.5zM336 -336
q-87 0 -162 20.5t-106 41.5l-23 264l14 2q100 -289 303 -289q108 0 169 67t61 173q0 46 -13.5 86.5t-31.5 69.5t-52 61.5t-58.5 51t-68.5 50.5q-3 2 -5 3.5t-4.5 3t-4.5 3.5q-54 37 -92 70.5t-73.5 77.5t-53.5 97.5t-18 115.5q0 124 69 211t191 119q-66 89 -66 208
q0 160 110 259.5t288 99.5q78 0 145.5 -18t95.5 -39l17 -234l-15 -4q-95 254 -278 254q-108 0 -172 -71.5t-64 -184.5q0 -57 16.5 -104t53 -88t68.5 -68t88 -68q56 -42 91 -72t72 -74.5t54.5 -96t17.5 -113.5q0 -121 -69 -207.5t-189 -122.5q72 -92 72 -215
q0 -156 -99.5 -248t-277.5 -92z" />
    <glyph glyph-name="dieresis" unicode="&#xa8;" horiz-adv-x="761" 
d="M457 1350q0 -43 -29 -73t-72 -30q-41 0 -70.5 30t-29.5 73q0 41 29.5 70.5t70.5 29.5q42 0 71.5 -29t29.5 -71zM817 1350q0 -43 -29.5 -73t-70.5 -30q-42 0 -72.5 30.5t-30.5 72.5q0 41 30.5 70.5t72.5 29.5q41 0 70.5 -29.5t29.5 -70.5z" />
    <glyph glyph-name="copyright" unicode="&#xa9;" horiz-adv-x="1722" 
d="M104 752q0 160 61.5 304.5t166.5 248t249.5 164.5t303.5 61t304 -61t249.5 -164.5t166.5 -248t62 -304.5q0 -161 -62 -305.5t-166.5 -249t-249.5 -165.5t-304 -61t-303.5 61t-249.5 165.5t-166.5 249t-61.5 305.5zM156 752q0 -151 57.5 -288t155.5 -236t232.5 -157.5
t283.5 -58.5q148 0 282.5 58.5t232 157.5t155 236t57.5 288q0 201 -97.5 370t-265 267t-364.5 98q-149 0 -283.5 -58t-232.5 -156t-155.5 -234.5t-57.5 -286.5zM1190 406q-32 -26 -118.5 -55t-180.5 -29q-194 0 -309 122t-115 308q0 183 123 305.5t321 122.5q136 0 275 -56
l22 -194l-10 -4q-70 115 -137.5 167t-163.5 52q-100 0 -168.5 -52.5t-99.5 -139t-31 -201.5q0 -179 73.5 -287.5t219.5 -108.5q112 0 182.5 68.5t126.5 198.5l12 -7z" />
    <glyph glyph-name="ordfeminine" unicode="&#xaa;" horiz-adv-x="747" 
d="M594 1065q-41 -100 -86.5 -174t-105.5 -124t-123 -50q-69 0 -109.5 58t-40.5 165q0 139 64 274t182 225.5t256 90.5q83 0 141 -27l57 27h11l-154 -586q-24 -75 -16 -118t63 -66v-2l-227 -31zM348 823q49 0 103.5 63.5t94 142.5t77.5 177l63 240q-27 47 -90 47
q-88 0 -165 -88t-118 -208.5t-41 -229.5q0 -144 76 -144z" />
    <glyph glyph-name="guillemotleft" unicode="&#xab;" horiz-adv-x="788" 
d="M614 106l-221 359l10 41l373 358l12 -12l-266 -377l109 -358zM319 106l-221 359l11 41l372 358l13 -12l-267 -377l109 -358z" />
    <glyph glyph-name="registered" unicode="&#xae;" horiz-adv-x="989" 
d="M98 1108q0 177 127 299.5t307 122.5q179 0 302.5 -122t123.5 -300q0 -176 -127 -298t-305 -122q-180 0 -304 121t-124 299zM147 1108q0 -160 110.5 -269.5t270.5 -109.5t270.5 109t110.5 270q0 160 -110.5 270.5t-270.5 110.5t-270.5 -110.5t-110.5 -270.5zM367 889
q16 22 20 37.5t4 50.5v268q0 34 -4 50t-20 38v4h180q149 0 149 -114q0 -88 -90 -115l78 -143q19 -36 32.5 -51t37.5 -25v-4h-111l-111 207h-65v-115q0 -34 4 -50t21 -38v-4h-125v4zM467 1305v-179h68q86 0 86 95q0 40 -20 62t-71 22h-63z" />
    <glyph glyph-name="macron" unicode="&#xaf;" horiz-adv-x="759" 
d="M297 1321h496l-19 -86h-495z" />
    <glyph glyph-name="degree" unicode="&#xb0;" horiz-adv-x="690" 
d="M135 1260q0 111 81 190.5t196 79.5q114 0 190 -79t76 -191q0 -113 -81 -193t-194 -80q-116 0 -192 79t-76 194zM188 1260q0 -99 61.5 -163.5t158.5 -64.5q96 0 156.5 64.5t60.5 163.5q0 98 -60.5 161.5t-156.5 63.5q-97 0 -158.5 -63.5t-61.5 -161.5z" />
    <glyph glyph-name="acute" unicode="&#xb4;" horiz-adv-x="759" 
d="M653 1534l101 -109l-408 -317l-10 14z" />
    <glyph glyph-name="paragraph" unicode="&#xb6;" horiz-adv-x="974" 
d="M373 -33v2q32 71 47 122.5t39 160.5l102 530h-57q-170 0 -269.5 83t-99.5 243q0 123 62 213t166 134t237 44h193v-2q-33 -74 -50 -129.5t-38 -155.5l-183 -960q-21 -97 -26 -152.5t2 -130.5l-2 -2h-123zM578 -33v2q32 71 47 122.5t39 160.5l184 960q18 105 23 158.5
t1 126.5v2h123v-2q-33 -74 -50 -129.5t-38 -155.5l-182 -960q-20 -91 -25 -150t0 -133v-2h-122z" />
    <glyph glyph-name="periodcentered" unicode="&#xb7;" horiz-adv-x="419" 
d="M221 444q-47 0 -81 34t-34 81t34 81t81 34t81 -34t34 -81t-34 -81t-81 -34z" />
    <glyph glyph-name="cedilla" unicode="&#xb8;" horiz-adv-x="759" 
d="M70 -506q107 28 173 78.5t66 118.5q0 24 -10 42t-22 27.5t-32.5 17t-32.5 9.5t-31 5q-5 1 -7 1l-2 4l160 207h53l-100 -125q66 -18 100.5 -52.5t34.5 -94.5q0 -101 -94.5 -167t-253.5 -87z" />
    <glyph glyph-name="ordmasculine" unicode="&#xba;" horiz-adv-x="708" 
d="M786 1233q0 -127 -60 -247.5t-156 -194.5t-195 -74q-116 0 -181 78t-65 219q0 128 60 248.5t156 194t196 73.5q116 0 180.5 -78t64.5 -219zM274 944q0 -199 105 -199q65 0 125.5 77.5t98.5 207.5t38 273q0 198 -104 198q-68 0 -129 -77.5t-97.5 -206.5t-36.5 -273z" />
    <glyph glyph-name="guillemotright" unicode="&#xbb;" horiz-adv-x="788" 
d="M479 864l221 -358l-10 -41l-373 -359l-12 13l266 377l-108 358zM184 864l222 -358l-11 -41l-372 -359l-13 13l266 377l-108 358z" />
    <glyph glyph-name="onequarter" unicode="&#xbc;" horiz-adv-x="1280" 
d="M399 913q-14 -65 -13.5 -102.5t17.5 -83.5v-2h-210v2q33 49 48 85.5t27 100.5l82 437h-78l2 12q102 49 226 162h12zM127 29l1067 1493l35 -23l-1069 -1497zM788 2q29 47 42.5 83.5t25.5 102.5l4 17h-276l2 14l389 569h155l-509 -555h243l45 238h133l-43 -238h76l-10 -28
h-72l-2 -17q-12 -66 -12 -104t12 -82v-2h-205z" />
    <glyph glyph-name="onehalf" unicode="&#xbd;" horiz-adv-x="1314" 
d="M127 29l1067 1493l35 -23l-1069 -1497zM686 0l4 14q239 226 327.5 367.5t88.5 273.5q0 123 -80 123q-41 0 -84.5 -47.5t-105.5 -144.5l-11 4l52 182q92 33 159 33q99 0 151 -45.5t52 -130.5q0 -121 -101 -237.5t-321 -274.5h182q55 0 92 23.5t83 72.5l6 -2l-80 -211h-414
zM422 913q-14 -65 -13.5 -102.5t17.5 -83.5v-2h-211v2q34 49 49 85.5t27 100.5l82 437h-78l2 12q100 48 225 162h13z" />
    <glyph glyph-name="threequarters" unicode="&#xbe;" horiz-adv-x="1316" 
d="M293 709q-97 0 -150 32l-14 189l10 2q38 -100 75.5 -148.5t88.5 -48.5q71 0 116.5 86t45.5 191q0 162 -109 162q-52 0 -114 -48l-9 13l283 256h-278l61 114h373l-2 -10l-334 -303q33 10 61 10q83 0 142 -54t59 -153q0 -121 -84 -205.5t-221 -84.5zM164 29l1067 1493
l35 -23l-1069 -1497zM825 2q29 47 42.5 83.5t25.5 102.5l4 17h-276l2 14l389 569h155l-510 -555h244l45 238h133l-43 -238h76l-10 -28h-72l-2 -17q-12 -66 -12 -104t12 -82v-2h-205z" />
    <glyph glyph-name="questiondown" unicode="&#xbf;" horiz-adv-x="808" 
d="M637 573q-25 -88 -67.5 -165t-90 -132t-99.5 -106.5t-98.5 -98.5t-84.5 -97t-60 -113.5t-22 -136.5q0 -106 43.5 -163t128.5 -57q88 0 166.5 68.5t187.5 218.5l12 -6l-92 -258q-146 -59 -295 -59q-147 0 -233 69t-86 205q0 76 28 141t75 115.5t105.5 97t124 95.5
t125 101.5t113.5 125t86 155.5h33zM659 1006q47 0 80 -34t33 -81q0 -49 -33 -83t-80 -34t-80.5 34t-33.5 83q0 47 33.5 81t80.5 34z" />
    <glyph glyph-name="Agrave" unicode="&#xc0;" horiz-adv-x="1003" 
d="M588 1247l-297 -641h362zM152 0h-254v4q69 60 109 121.5t104 193.5l559 1194h49l129 -1230q11 -113 30.5 -169t59.5 -110v-4h-311v4q79 82 57 289l-27 272h-385l-92 -198q-38 -81 -52 -155t-6.5 -124.5t30.5 -83.5v-4zM864 1602l-444 225l98 137l359 -346z" />
    <glyph glyph-name="Aacute" unicode="&#xc1;" horiz-adv-x="1003" 
d="M588 1247l-297 -641h362zM152 0h-254v4q69 60 109 121.5t104 193.5l559 1194h49l129 -1230q11 -113 30.5 -169t59.5 -110v-4h-311v4q79 82 57 289l-27 272h-385l-92 -198q-38 -81 -52 -155t-6.5 -124.5t30.5 -83.5v-4zM926 1964l73 -137l-501 -225l-11 16z" />
    <glyph glyph-name="Acircumflex" unicode="&#xc2;" horiz-adv-x="1003" 
d="M588 1247l-297 -641h362zM152 0h-254v4q69 60 109 121.5t104 193.5l559 1194h49l129 -1230q11 -113 30.5 -169t59.5 -110v-4h-311v4q79 82 57 289l-27 272h-385l-92 -198q-38 -81 -52 -155t-6.5 -124.5t30.5 -83.5v-4zM733 1774l-330 -172l-10 16l355 317h10l223 -317
l-16 -16z" />
    <glyph glyph-name="Atilde" unicode="&#xc3;" horiz-adv-x="1003" 
d="M588 1247l-297 -641h362zM152 0h-254v4q69 60 109 121.5t104 193.5l559 1194h49l129 -1230q11 -113 30.5 -169t59.5 -110v-4h-311v4q79 82 57 289l-27 272h-385l-92 -198q-38 -81 -52 -155t-6.5 -124.5t30.5 -83.5v-4zM600 1843q46 0 93 -23.5l94 -47t92 -23.5
q51 0 84.5 28.5t66.5 96.5l17 -2q-9 -34 -17.5 -61t-26.5 -62.5t-40 -59t-57.5 -40.5t-78.5 -17q-57 0 -142.5 47t-139.5 47q-50 0 -87 -29t-67 -95l-16 2q7 40 21.5 77t39.5 76t67.5 62.5t96.5 23.5z" />
    <glyph glyph-name="Adieresis" unicode="&#xc4;" horiz-adv-x="1003" 
d="M588 1247l-297 -641h362zM152 0h-254v4q69 60 109 121.5t104 193.5l559 1194h49l129 -1230q11 -113 30.5 -169t59.5 -110v-4h-311v4q79 82 57 289l-27 272h-385l-92 -198q-38 -81 -52 -155t-6.5 -124.5t30.5 -83.5v-4zM1008 1778q0 -41 -30 -71t-71 -30t-70.5 30
t-29.5 71t29.5 71.5t70.5 30.5t71 -30.5t30 -71.5zM627 1778q0 -41 -30 -71t-73 -30q-41 0 -70.5 30t-29.5 71t29.5 71.5t70.5 30.5q42 0 72.5 -30t30.5 -72z" />
    <glyph glyph-name="Aring" unicode="&#xc5;" horiz-adv-x="1003" 
d="M588 1247l-297 -641h362zM152 0h-254v4q69 60 109 121.5t104 193.5l559 1194h49l129 -1230q11 -113 30.5 -169t59.5 -110v-4h-311v4q79 82 57 289l-27 272h-385l-92 -198q-38 -81 -52 -155t-6.5 -124.5t30.5 -83.5v-4zM530 1774q0 75 50.5 124.5t128.5 49.5t128 -48
t50 -126q0 -77 -51 -124.5t-127 -47.5t-127.5 47.5t-51.5 124.5zM598 1774q0 -64 29 -100t82 -36t81.5 36t28.5 100q0 63 -28.5 101t-81.5 38t-82 -38t-29 -101z" />
    <glyph glyph-name="AE" unicode="&#xc6;" horiz-adv-x="1658" 
d="M922 1235q13 86 14 98l-469 -727h342zM199 0h-246v4q87 66 142.5 130t131.5 185l705 1088q-11 46 -53 88v4h733l24 -321l-18 -4q-70 141 -124 209t-118 69l-252 8l-123 -686h158q17 0 34 6t34.5 19t31.5 25t32 33.5t28 34t29 37.5t26 34h19l-68 -408h-18q-4 9 -16 35
t-17.5 37t-17 32t-21 30.5t-22.5 21.5t-28 17t-32 5h-160l-125 -698l303 10q43 2 84.5 18.5t72.5 37.5t74 64.5t68 73.5t74 90q21 25 31 38l16 -9l-131 -358h-809v4q39 65 59 125.5t44 169.5l47 266h-361l-135 -211q-58 -92 -86.5 -158t-31 -110.5t11.5 -81.5v-4z" />
    <glyph glyph-name="Ccedilla" unicode="&#xc7;" horiz-adv-x="1243" 
d="M324 -506q107 28 173 78.5t66 118.5q0 24 -10 42t-22 27.5t-32.5 17t-32.5 9.5t-31 5q-5 1 -7 1l-2 4l135 176q-94 10 -162 43q-148 69 -223.5 222t-75.5 368q0 183 59.5 352t161.5 295t249 201.5t313 75.5q104 0 197 -28.5t149 -59.5l22 -322l-18 -4q-85 201 -176.5 287
t-214.5 86q-104 0 -196 -53.5t-158.5 -144.5t-115 -210.5t-72.5 -254t-24 -271.5q0 -247 95 -396t266 -149q61 0 118.5 22.5t104.5 57t98 92t90 112t89 132.5l20 -4l-86 -320q-56 -44 -180 -88.5t-258 -44.5h-23l-71 -90q66 -18 100.5 -52.5t34.5 -94.5q0 -101 -94.5 -167
t-253.5 -87z" />
    <glyph glyph-name="Egrave" unicode="&#xc8;" horiz-adv-x="1036" 
d="M838 0h-807v4q40 69 61.5 132.5t38.5 162.5l164 901q16 108 13.5 163t-21.5 132v4h704l25 -321l-19 -4q-70 141 -123.5 209t-117.5 69l-252 8l-123 -686h158q17 0 34 6t34.5 19t31.5 25t32 33.5t28 34t29 37.5t26 34h18l-70 -408h-18q-4 9 -16 35t-17.5 37t-17 32
t-20.5 30.5t-22 21.5t-27.5 17t-31.5 5h-159l-125 -698l301 10q53 2 101.5 23.5t94.5 63.5t85 86.5t92 110.5q6 9 10 13.5t9.5 11.5t10.5 13l19 -9zM868 1602l-444 225l98 137l359 -346z" />
    <glyph glyph-name="Eacute" unicode="&#xc9;" horiz-adv-x="1036" 
d="M838 0h-807v4q40 69 61.5 132.5t38.5 162.5l164 901q16 108 13.5 163t-21.5 132v4h704l25 -321l-19 -4q-70 141 -123.5 209t-117.5 69l-252 8l-123 -686h158q17 0 34 6t34.5 19t31.5 25t32 33.5t28 34t29 37.5t26 34h18l-70 -408h-18q-4 9 -16 35t-17.5 37t-17 32
t-20.5 30.5t-22 21.5t-27.5 17t-31.5 5h-159l-125 -698l301 10q53 2 101.5 23.5t94.5 63.5t85 86.5t92 110.5q6 9 10 13.5t9.5 11.5t10.5 13l19 -9zM909 1964l74 -137l-502 -225l-10 16z" />
    <glyph glyph-name="Ecircumflex" unicode="&#xca;" horiz-adv-x="1036" 
d="M838 0h-807v4q40 69 61.5 132.5t38.5 162.5l164 901q16 108 13.5 163t-21.5 132v4h704l25 -321l-19 -4q-70 141 -123.5 209t-117.5 69l-252 8l-123 -686h158q17 0 34 6t34.5 19t31.5 25t32 33.5t28 34t29 37.5t26 34h18l-70 -408h-18q-4 9 -16 35t-17.5 37t-17 32
t-20.5 30.5t-22 21.5t-27.5 17t-31.5 5h-159l-125 -698l301 10q53 2 101.5 23.5t94.5 63.5t85 86.5t92 110.5q6 9 10 13.5t9.5 11.5t10.5 13l19 -9zM729 1774l-330 -172l-10 16l354 317h11l223 -317l-16 -16z" />
    <glyph glyph-name="Edieresis" unicode="&#xcb;" horiz-adv-x="1036" 
d="M838 0h-807v4q40 69 61.5 132.5t38.5 162.5l164 901q16 108 13.5 163t-21.5 132v4h704l25 -321l-19 -4q-70 141 -123.5 209t-117.5 69l-252 8l-123 -686h158q17 0 34 6t34.5 19t31.5 25t32 33.5t28 34t29 37.5t26 34h18l-70 -408h-18q-4 9 -16 35t-17.5 37t-17 32
t-20.5 30.5t-22 21.5t-27.5 17t-31.5 5h-159l-125 -698l301 10q53 2 101.5 23.5t94.5 63.5t85 86.5t92 110.5q6 9 10 13.5t9.5 11.5t10.5 13l19 -9zM991 1778q0 -41 -29.5 -71t-70.5 -30t-70.5 30t-29.5 71t29.5 71.5t70.5 30.5t70.5 -30.5t29.5 -71.5zM610 1778
q0 -42 -30 -71.5t-72 -29.5q-41 0 -70.5 30t-29.5 71t29.5 71.5t70.5 30.5q42 0 72 -30t30 -72z" />
    <glyph glyph-name="Igrave" unicode="&#xcc;" horiz-adv-x="495" 
d="M29 0v4q43 72 64.5 133.5t41.5 171.5l158 881q17 110 15.5 172t-23.5 133v4h274v-4q-43 -68 -64 -129t-42 -176l-158 -881q-19 -114 -16.5 -171.5t24.5 -133.5v-4h-274zM614 1602l-444 225l98 137l359 -346z" />
    <glyph glyph-name="Iacute" unicode="&#xcd;" horiz-adv-x="495" 
d="M29 0v4q43 72 64.5 133.5t41.5 171.5l158 881q17 110 15.5 172t-23.5 133v4h274v-4q-43 -68 -64 -129t-42 -176l-158 -881q-19 -114 -16.5 -171.5t24.5 -133.5v-4h-274zM688 1964l74 -137l-502 -225l-10 16z" />
    <glyph glyph-name="Icircumflex" unicode="&#xce;" horiz-adv-x="495" 
d="M29 0v4q43 72 64.5 133.5t41.5 171.5l158 881q17 110 15.5 172t-23.5 133v4h274v-4q-43 -68 -64 -129t-42 -176l-158 -881q-19 -114 -16.5 -171.5t24.5 -133.5v-4h-274zM479 1774l-329 -172l-11 16l355 317h10l223 -317l-16 -16z" />
    <glyph glyph-name="Idieresis" unicode="&#xcf;" horiz-adv-x="495" 
d="M731 1778q0 -42 -29.5 -71.5t-72.5 -29.5q-41 0 -71 30t-30 71t30 71.5t71 30.5q42 0 72 -30t30 -72zM391 1778q0 -41 -29.5 -71t-70.5 -30t-72 30t-31 71t31 71.5t72 30.5t70.5 -30.5t29.5 -71.5zM29 0v4q43 72 64.5 133.5t41.5 171.5l158 881q17 110 15.5 172
t-23.5 133v4h274v-4q-43 -68 -64 -129t-42 -176l-158 -881q-19 -114 -16.5 -171.5t24.5 -133.5v-4h-274z" />
    <glyph glyph-name="Eth" unicode="&#xd0;" horiz-adv-x="1253" 
d="M70 770h168l79 444q17 99 14 159t-28 122v4q109 0 199 3t194 3q549 0 549 -596q0 -253 -99.5 -459.5t-285 -328t-422.5 -121.5h-389v4q43 64 64.5 123.5t36.5 157.5l79 448h-168zM522 1466l-125 -696h338l-8 -37h-336l-125 -698l166 4q108 2 200.5 39t161 100.5
t121.5 147.5t86 183.5t49.5 205t16.5 215.5q0 268 -99 402t-304 134h-142z" />
    <glyph glyph-name="Ntilde" unicode="&#xd1;" horiz-adv-x="1212" 
d="M358 1303l-168 -941q-23 -114 -16.5 -189t53.5 -169v-4h-227v4q49 68 75.5 124.5t37 95.5t30.5 138l146 803l-2 -4q10 62 13.5 90.5t5 68t-5.5 63.5t-21.5 52.5t-40.5 59.5v4h213l522 -1225l153 863q22 114 17 189t-47 169v4h227v-4q-71 -98 -98.5 -166.5t-48.5 -191.5
l-205 -1137l-51 -6zM715 1843q46 0 93 -23.5t93.5 -47t91.5 -23.5q51 0 85.5 28.5t66.5 96.5l16 -2q-9 -35 -17.5 -61t-26.5 -62t-40 -59.5t-57 -40.5t-78 -17q-57 0 -143 47t-140 47q-50 0 -86.5 -28.5t-66.5 -95.5l-17 2q7 39 21.5 77t40 76.5t68 62t96.5 23.5z" />
    <glyph glyph-name="Ograve" unicode="&#xd2;" horiz-adv-x="1368" 
d="M1360 905q0 -181 -62.5 -353.5t-165 -300t-242.5 -205t-288 -77.5t-262.5 79.5t-177 221.5t-62.5 324q0 181 62.5 353.5t165 300t242.5 205t288 77.5t262.5 -79.5t177 -221.5t62.5 -324zM276 528q0 -237 86 -377.5t252 -140.5q104 0 195.5 55.5t158.5 150t116 217
t73.5 260.5t24.5 278q0 238 -85 378t-251 140q-128 0 -237.5 -85t-181 -222.5t-111.5 -308t-40 -345.5zM1051 1602l-445 225l99 137l358 -346z" />
    <glyph glyph-name="Oacute" unicode="&#xd3;" horiz-adv-x="1368" 
d="M1360 905q0 -181 -62.5 -353.5t-165 -300t-242.5 -205t-288 -77.5t-262.5 79.5t-177 221.5t-62.5 324q0 181 62.5 353.5t165 300t242.5 205t288 77.5t262.5 -79.5t177 -221.5t62.5 -324zM276 528q0 -237 86 -377.5t252 -140.5q104 0 195.5 55.5t158.5 150t116 217
t73.5 260.5t24.5 278q0 238 -85 378t-251 140q-128 0 -237.5 -85t-181 -222.5t-111.5 -308t-40 -345.5zM1124 1964l74 -137l-502 -225l-10 16z" />
    <glyph glyph-name="Ocircumflex" unicode="&#xd4;" horiz-adv-x="1368" 
d="M1360 905q0 -181 -62.5 -353.5t-165 -300t-242.5 -205t-288 -77.5t-262.5 79.5t-177 221.5t-62.5 324q0 181 62.5 353.5t165 300t242.5 205t288 77.5t262.5 -79.5t177 -221.5t62.5 -324zM276 528q0 -237 86 -377.5t252 -140.5q104 0 195.5 55.5t158.5 150t116 217
t73.5 260.5t24.5 278q0 238 -85 378t-251 140q-128 0 -237.5 -85t-181 -222.5t-111.5 -308t-40 -345.5zM915 1774l-329 -172l-11 16l355 317h10l223 -317l-16 -16z" />
    <glyph glyph-name="Otilde" unicode="&#xd5;" horiz-adv-x="1368" 
d="M1360 905q0 -181 -62.5 -353.5t-165 -300t-242.5 -205t-288 -77.5t-262.5 79.5t-177 221.5t-62.5 324q0 181 62.5 353.5t165 300t242.5 205t288 77.5t262.5 -79.5t177 -221.5t62.5 -324zM276 528q0 -237 86 -377.5t252 -140.5q104 0 195.5 55.5t158.5 150t116 217
t73.5 260.5t24.5 278q0 238 -85 378t-251 140q-128 0 -237.5 -85t-181 -222.5t-111.5 -308t-40 -345.5zM778 1843q46 0 93 -23.5l94 -47t92 -23.5q51 0 84.5 28.5t66.5 96.5l17 -2q-9 -35 -17.5 -61t-26.5 -62t-40 -59.5t-57 -40.5t-78 -17q-57 0 -143 47t-140 47
q-50 0 -87 -29t-67 -95l-16 2q7 40 21.5 77t39.5 76t67.5 62.5t96.5 23.5z" />
    <glyph glyph-name="Odieresis" unicode="&#xd6;" horiz-adv-x="1368" 
d="M1360 905q0 -181 -62.5 -353.5t-165 -300t-242.5 -205t-288 -77.5t-262.5 79.5t-177 221.5t-62.5 324q0 181 62.5 353.5t165 300t242.5 205t288 77.5t262.5 -79.5t177 -221.5t62.5 -324zM276 528q0 -237 86 -377.5t252 -140.5q104 0 195.5 55.5t158.5 150t116 217
t73.5 260.5t24.5 278q0 238 -85 378t-251 140q-128 0 -237.5 -85t-181 -222.5t-111.5 -308t-40 -345.5zM1186 1778q0 -41 -30 -71t-71 -30t-70.5 30t-29.5 71t29.5 71.5t70.5 30.5t71 -30.5t30 -71.5zM805 1778q0 -41 -30 -71t-73 -30q-41 0 -70.5 30t-29.5 71t29.5 71.5
t70.5 30.5q42 0 72.5 -30t30.5 -72z" />
    <glyph glyph-name="multiply" unicode="&#xd7;" horiz-adv-x="966" 
d="M514 598l-348 -348l-33 31l348 348l-348 348l33 31l348 -346l346 346l33 -31l-348 -348l348 -348l-33 -31z" />
    <glyph glyph-name="Oslash" unicode="&#xd8;" horiz-adv-x="1368" 
d="M276 528q0 -180 50 -307l784 1106q-86 162 -264 162q-128 0 -237.5 -85t-181 -222.5t-111.5 -308t-40 -345.5zM614 10q104 0 195.5 55.5t158.5 150t116 217t73.5 260.5t24.5 278q0 184 -49 309l-785 -1106q87 -164 266 -164zM602 -31q-184 0 -311 121l-107 -149h-57
l129 184q-156 180 -156 469q0 181 62.5 353.5t165 300t242.5 205t288 77.5q181 0 309 -119l107 150h57l-129 -183q158 -182 158 -473q0 -181 -62.5 -353.5t-165 -300t-242.5 -205t-288 -77.5z" />
    <glyph glyph-name="Ugrave" unicode="&#xd9;" horiz-adv-x="1138" 
d="M520 -31q-93 0 -170.5 29.5t-136 91.5t-78.5 158.5t2 230.5l129 711q20 109 18.5 172.5t-26.5 132.5v4h274v-4q-39 -64 -61.5 -130t-42.5 -175l-127 -705q-22 -128 -14.5 -217.5t46 -145.5t92 -81t122.5 -25q68 0 126 24.5t99 64.5t73 96.5t51.5 115.5t31.5 127l129 693
q25 119 17.5 189.5t-56.5 168.5v4h246v-4q-77 -100 -107.5 -169t-50.5 -189l-131 -693q-88 -475 -455 -475zM956 1602l-444 225l98 137l359 -346z" />
    <glyph glyph-name="Uacute" unicode="&#xda;" horiz-adv-x="1138" 
d="M520 -31q-93 0 -170.5 29.5t-136 91.5t-78.5 158.5t2 230.5l129 711q20 109 18.5 172.5t-26.5 132.5v4h274v-4q-39 -64 -61.5 -130t-42.5 -175l-127 -705q-22 -128 -14.5 -217.5t46 -145.5t92 -81t122.5 -25q68 0 126 24.5t99 64.5t73 96.5t51.5 115.5t31.5 127l129 693
q25 119 17.5 189.5t-56.5 168.5v4h246v-4q-77 -100 -107.5 -169t-50.5 -189l-131 -693q-88 -475 -455 -475zM1030 1964l74 -137l-502 -225l-10 16z" />
    <glyph glyph-name="Ucircumflex" unicode="&#xdb;" horiz-adv-x="1138" 
d="M520 -31q-93 0 -170.5 29.5t-136 91.5t-78.5 158.5t2 230.5l129 711q20 109 18.5 172.5t-26.5 132.5v4h274v-4q-39 -64 -61.5 -130t-42.5 -175l-127 -705q-22 -128 -14.5 -217.5t46 -145.5t92 -81t122.5 -25q68 0 126 24.5t99 64.5t73 96.5t51.5 115.5t31.5 127l129 693
q25 119 17.5 189.5t-56.5 168.5v4h246v-4q-77 -100 -107.5 -169t-50.5 -189l-131 -693q-88 -475 -455 -475zM819 1774l-330 -172l-10 16l355 317h10l223 -317l-16 -16z" />
    <glyph glyph-name="Udieresis" unicode="&#xdc;" horiz-adv-x="1138" 
d="M520 -31q-93 0 -170.5 29.5t-136 91.5t-78.5 158.5t2 230.5l129 711q20 109 18.5 172.5t-26.5 132.5v4h274v-4q-39 -64 -61.5 -130t-42.5 -175l-127 -705q-22 -128 -14.5 -217.5t46 -145.5t92 -81t122.5 -25q68 0 126 24.5t99 64.5t73 96.5t51.5 115.5t31.5 127l129 693
q25 119 17.5 189.5t-56.5 168.5v4h246v-4q-77 -100 -107.5 -169t-50.5 -189l-131 -693q-88 -475 -455 -475zM1090 1778q0 -41 -30 -71t-71 -30t-70.5 30t-29.5 71t29.5 71.5t70.5 30.5t71 -30.5t30 -71.5zM709 1778q0 -41 -30 -71t-73 -30q-41 0 -70.5 30t-29.5 71
t29.5 71.5t70.5 30.5q42 0 72.5 -30t30.5 -72z" />
    <glyph glyph-name="Yacute" unicode="&#xdd;" horiz-adv-x="970" 
d="M248 4q53 78 76.5 138.5t44.5 164.5l69 385l-135 535q-30 108 -57.5 168t-67.5 100v4h320v-4q-33 -33 -41.5 -96.5t12.5 -157.5l119 -491l248 409q126 200 59 336v4h246v-4q-65 -65 -114.5 -127.5t-119.5 -169.5l-311 -516l-66 -375q-20 -105 -16.5 -165.5t33.5 -137.5
l-2 -4h-297v4zM965 1964l73 -137l-501 -225l-11 16z" />
    <glyph glyph-name="Thorn" unicode="&#xde;" horiz-adv-x="1024" 
d="M29 4q43 72 64.5 133.5t41.5 171.5l158 881q17 110 15.5 172t-23.5 133v4h274v-4q-43 -68 -64 -129t-42 -176l-2 -12h176q405 0 405 -328q0 -216 -156.5 -352t-408.5 -136h-162l-10 -53q-19 -114 -16.5 -171.5t24.5 -133.5v-4h-274v4zM594 1137q-58 0 -152 -4l-131 -730
h164q104 0 182 40.5t121 109t63.5 147t20.5 166.5q0 147 -60.5 209t-207.5 62z" />
    <glyph glyph-name="germandbls" unicode="&#xdf;" horiz-adv-x="997" 
d="M-12 -338l272 1274h-123l8 39h123l23 104q53 254 179 390.5t298 136.5q128 0 201 -68.5t73 -187.5q0 -65 -23 -121.5t-60 -96.5t-82 -76t-89.5 -67t-81.5 -62t-60 -69t-23 -80q0 -47 32 -93t77.5 -87.5t90.5 -87.5t77 -112t32 -142q0 -133 -82.5 -210t-214.5 -77
q-71 0 -139.5 19.5t-104.5 48.5l-8 260l14 4q62 -153 126.5 -224t142.5 -71q67 0 110 47.5t43 124.5q0 44 -17 85t-44 73.5t-59.5 64t-65.5 64.5t-60 68t-44 80.5t-17 95.5q0 57 22 104t58 81t79 67t85.5 69.5t78.5 78.5t58 105t22 140q0 92 -37 152.5t-124 60.5
q-106 0 -183.5 -97.5t-117.5 -300.5l-322 -1507h-143z" />
    <glyph glyph-name="agrave" unicode="&#xe0;" 
d="M631 410q-40 -94 -84.5 -170.5t-96 -139t-110.5 -97t-119 -34.5q-86 0 -135 72t-49 205q0 107 31.5 217.5t90.5 207t136 172t174.5 119.5t200.5 44q102 0 174 -35l63 35h13l-197 -754q-8 -32 -11.5 -47t-8 -39t-4 -34.5t1.5 -27t7 -25t15.5 -20t23.5 -20t33 -16.5v-3
l-264 -38zM297 86q36 0 73 21.5t71 63.5t64.5 87.5t62.5 110.5t54 114t50 115l78 295q-38 65 -127 65q-88 0 -169.5 -66.5t-137.5 -168t-89.5 -221t-33.5 -226.5q0 -190 104 -190zM737 1100l-307 346l127 88l199 -420z" />
    <glyph glyph-name="aacute" unicode="&#xe1;" 
d="M631 410q-40 -94 -84.5 -170.5t-96 -139t-110.5 -97t-119 -34.5q-86 0 -135 72t-49 205q0 107 31.5 217.5t90.5 207t136 172t174.5 119.5t200.5 44q102 0 174 -35l63 35h13l-197 -754q-8 -32 -11.5 -47t-8 -39t-4 -34.5t1.5 -27t7 -25t15.5 -20t23.5 -20t33 -16.5v-3
l-264 -38zM297 86q36 0 73 21.5t71 63.5t64.5 87.5t62.5 110.5t54 114t50 115l78 295q-38 65 -127 65q-88 0 -169.5 -66.5t-137.5 -168t-89.5 -221t-33.5 -226.5q0 -190 104 -190zM795 1534l100 -109l-408 -317l-10 14z" />
    <glyph glyph-name="acircumflex" unicode="&#xe2;" 
d="M631 410q-40 -94 -84.5 -170.5t-96 -139t-110.5 -97t-119 -34.5q-86 0 -135 72t-49 205q0 107 31.5 217.5t90.5 207t136 172t174.5 119.5t200.5 44q102 0 174 -35l63 35h13l-197 -754q-8 -32 -11.5 -47t-8 -39t-4 -34.5t1.5 -27t7 -25t15.5 -20t23.5 -20t33 -16.5v-3
l-264 -38zM297 86q36 0 73 21.5t71 63.5t64.5 87.5t62.5 110.5t54 114t50 115l78 295q-38 65 -127 65q-88 0 -169.5 -66.5t-137.5 -168t-89.5 -221t-33.5 -226.5q0 -190 104 -190zM659 1303l-288 -197l-13 16l322 351h8l182 -351l-18 -16z" />
    <glyph glyph-name="atilde" unicode="&#xe3;" 
d="M631 410q-40 -94 -84.5 -170.5t-96 -139t-110.5 -97t-119 -34.5q-86 0 -135 72t-49 205q0 107 31.5 217.5t90.5 207t136 172t174.5 119.5t200.5 44q102 0 174 -35l63 35h13l-197 -754q-8 -32 -11.5 -47t-8 -39t-4 -34.5t1.5 -27t7 -25t15.5 -20t23.5 -20t33 -16.5v-3
l-264 -38zM297 86q36 0 73 21.5t71 63.5t64.5 87.5t62.5 110.5t54 114t50 115l78 295q-38 65 -127 65q-88 0 -169.5 -66.5t-137.5 -168t-89.5 -221t-33.5 -226.5q0 -190 104 -190zM559 1389q47 0 125.5 -34t124.5 -34q48 0 77 23.5t50 72.5l16 -2q-6 -26 -14 -51t-24 -55
t-36 -52.5t-51 -37.5t-67 -15q-46 0 -126 34t-126 34q-49 0 -79.5 -23.5t-51.5 -72.5l-17 2q6 26 14 50.5t24.5 55t37 53t52.5 37.5t71 15z" />
    <glyph glyph-name="adieresis" unicode="&#xe4;" 
d="M631 410q-40 -94 -84.5 -170.5t-96 -139t-110.5 -97t-119 -34.5q-86 0 -135 72t-49 205q0 107 31.5 217.5t90.5 207t136 172t174.5 119.5t200.5 44q102 0 174 -35l63 35h13l-197 -754q-8 -32 -11.5 -47t-8 -39t-4 -34.5t1.5 -27t7 -25t15.5 -20t23.5 -20t33 -16.5v-3
l-264 -38zM297 86q36 0 73 21.5t71 63.5t64.5 87.5t62.5 110.5t54 114t50 115l78 295q-38 65 -127 65q-88 0 -169.5 -66.5t-137.5 -168t-89.5 -221t-33.5 -226.5q0 -190 104 -190zM573 1350q0 -43 -29 -73t-71 -30q-41 0 -70.5 30t-29.5 73q0 41 29.5 70.5t70.5 29.5
q42 0 71 -29t29 -71zM934 1350q0 -43 -29.5 -73t-70.5 -30q-42 0 -72.5 30.5t-30.5 72.5q0 41 30.5 70.5t72.5 29.5q41 0 70.5 -29.5t29.5 -70.5z" />
    <glyph glyph-name="aring" unicode="&#xe5;" 
d="M631 410q-40 -94 -84.5 -170.5t-96 -139t-110.5 -97t-119 -34.5q-86 0 -135 72t-49 205q0 107 31.5 217.5t90.5 207t136 172t174.5 119.5t200.5 44q102 0 174 -35l63 35h13l-197 -754q-8 -32 -11.5 -47t-8 -39t-4 -34.5t1.5 -27t7 -25t15.5 -20t23.5 -20t33 -16.5v-3
l-264 -38zM297 86q36 0 73 21.5t71 63.5t64.5 87.5t62.5 110.5t54 114t50 115l78 295q-38 65 -127 65q-88 0 -169.5 -66.5t-137.5 -168t-89.5 -221t-33.5 -226.5q0 -190 104 -190zM463 1313q0 75 50 124.5t128 49.5t128 -48t50 -126q0 -77 -51 -124.5t-127 -47.5t-127 47.5
t-51 124.5zM530 1313q0 -64 29 -99.5t82 -35.5t82 35.5t29 99.5t-28.5 101.5t-82.5 37.5t-82.5 -37.5t-28.5 -101.5z" />
    <glyph glyph-name="ae" unicode="&#xe6;" horiz-adv-x="1341" 
d="M608 324v26q0 19 2 29q-190 -410 -393 -410q-82 0 -131 72.5t-49 204.5q0 107 32 217.5t90.5 206.5t134 172t169 120t188.5 44q147 0 226 -111q129 111 286 111q49 0 91 -12.5t73 -46t31 -83.5t-28.5 -92t-90 -77.5t-172.5 -56t-262 -20.5q-35 -116 -35 -237
q0 -156 54 -225.5t143 -69.5q143 0 250 168l14 -10q-51 -128 -142.5 -200.5t-201.5 -72.5q-129 0 -204 94.5t-75 258.5zM291 86q47 0 97.5 42.5t98.5 119.5t85.5 150.5t78.5 168.5q38 113 119 221q-8 77 -47 123.5t-105 46.5q-83 0 -163 -66.5t-136.5 -167.5t-91 -221
t-34.5 -227q0 -190 98 -190zM1139 969q-95 0 -187 -91t-141 -237q103 12 181.5 34t123 46.5t72 54.5t36.5 54.5t9 50.5q0 88 -94 88z" />
    <glyph glyph-name="ccedilla" unicode="&#xe7;" horiz-adv-x="782" 
d="M16 -506q107 28 173.5 78.5t66.5 118.5q0 24 -10 42t-22 27.5t-32.5 17t-32.5 9.5t-31 5q-5 1 -7 1l-2 4l139 180q-34 11 -51 21q-82 39 -126 131t-44 219q0 124 42 244t113 211t171.5 147t209.5 56q60 0 110.5 -14t74.5 -29l8 -232l-18 -4q-29 60 -49.5 97t-48.5 74
t-58.5 54t-65.5 17q-41 0 -86.5 -24.5t-89 -73t-78.5 -113.5t-56 -154t-21 -186q0 -161 57 -244.5t166 -83.5q74 0 138 45.5t120 159.5l18 -6q-45 -147 -136.5 -233.5t-221.5 -86.5q-23 0 -33 2l-72 -92q66 -19 101 -53t35 -94q0 -101 -95 -167t-254 -87z" />
    <glyph glyph-name="egrave" unicode="&#xe8;" horiz-adv-x="770" 
d="M315 -31q-129 0 -203.5 94.5t-74.5 260.5q0 169 76 327t205.5 256.5t273.5 98.5q78 0 136 -34.5t58 -107.5q0 -50 -29 -92.5t-91 -78t-173 -55.5t-260 -20q-34 -112 -34 -237q0 -156 53.5 -226.5t142.5 -70.5q145 0 250 168l14 -10q-54 -129 -144 -201t-200 -72zM571 969
q-98 0 -189 -90t-140 -238q103 12 181 34.5t121.5 46.5t70.5 54t35.5 54.5t8.5 50.5q0 88 -88 88zM629 1100l-307 346l127 88l198 -420z" />
    <glyph glyph-name="eacute" unicode="&#xe9;" horiz-adv-x="770" 
d="M315 -31q-129 0 -203.5 94.5t-74.5 260.5q0 169 76 327t205.5 256.5t273.5 98.5q78 0 136 -34.5t58 -107.5q0 -50 -29 -92.5t-91 -78t-173 -55.5t-260 -20q-34 -112 -34 -237q0 -156 53.5 -226.5t142.5 -70.5q145 0 250 168l14 -10q-54 -129 -144 -201t-200 -72zM571 969
q-98 0 -189 -90t-140 -238q103 12 181 34.5t121.5 46.5t70.5 54t35.5 54.5t8.5 50.5q0 88 -88 88zM745 1534l101 -109l-408 -317l-10 14z" />
    <glyph glyph-name="ecircumflex" unicode="&#xea;" horiz-adv-x="770" 
d="M315 -31q-129 0 -203.5 94.5t-74.5 260.5q0 169 76 327t205.5 256.5t273.5 98.5q78 0 136 -34.5t58 -107.5q0 -50 -29 -92.5t-91 -78t-173 -55.5t-260 -20q-34 -112 -34 -237q0 -156 53.5 -226.5t142.5 -70.5q145 0 250 168l14 -10q-54 -129 -144 -201t-200 -72zM571 969
q-98 0 -189 -90t-140 -238q103 12 181 34.5t121.5 46.5t70.5 54t35.5 54.5t8.5 50.5q0 88 -88 88zM584 1303l-289 -197l-12 16l321 351h8l183 -351l-19 -16z" />
    <glyph glyph-name="edieresis" unicode="&#xeb;" horiz-adv-x="770" 
d="M315 -31q-129 0 -203.5 94.5t-74.5 260.5q0 169 76 327t205.5 256.5t273.5 98.5q78 0 136 -34.5t58 -107.5q0 -50 -29 -92.5t-91 -78t-173 -55.5t-260 -20q-34 -112 -34 -237q0 -156 53.5 -226.5t142.5 -70.5q145 0 250 168l14 -10q-54 -129 -144 -201t-200 -72zM571 969
q-98 0 -189 -90t-140 -238q103 12 181 34.5t121.5 46.5t70.5 54t35.5 54.5t8.5 50.5q0 88 -88 88zM471 1350q0 -43 -29 -73t-71 -30q-41 0 -71 30t-30 73q0 41 30 70.5t71 29.5q42 0 71 -29t29 -71zM831 1350q0 -43 -29.5 -73t-70.5 -30t-71.5 30.5t-30.5 72.5
q0 41 30.5 70.5t71.5 29.5t70.5 -29.5t29.5 -70.5z" />
    <glyph glyph-name="igrave" unicode="&#xec;" horiz-adv-x="415" 
d="M10 4q37 67 59 142t50 210l61 301q40 182 -49 271v4l272 84l-137 -654q-32 -148 -38.5 -223t8.5 -135v-4h-226v4zM408 1100l-308 346l127 88l199 -420z" />
    <glyph glyph-name="iacute" unicode="&#xed;" horiz-adv-x="415" 
d="M10 4q37 67 59 142t50 210l61 301q40 182 -49 271v4l272 84l-137 -654q-32 -148 -38.5 -223t8.5 -135v-4h-226v4zM526 1534l101 -109l-408 -317l-10 14z" />
    <glyph glyph-name="icircumflex" unicode="&#xee;" horiz-adv-x="415" 
d="M10 4q37 67 59 142t50 210l61 301q40 182 -49 271v4l272 84l-137 -654q-32 -148 -38.5 -223t8.5 -135v-4h-226v4zM371 1303l-289 -197l-12 16l321 351h8l183 -351l-19 -16z" />
    <glyph glyph-name="idieresis" unicode="&#xef;" horiz-adv-x="415" 
d="M311 1350q0 -43 -29.5 -73t-70.5 -30t-71.5 30.5t-30.5 72.5q0 41 30.5 70.5t71.5 29.5t70.5 -29.5t29.5 -70.5zM600 1350q0 -43 -29.5 -73t-70.5 -30t-71 30t-30 73q0 41 30 70.5t71 29.5t70.5 -29.5t29.5 -70.5zM10 4q37 67 59 142t50 210l61 301q40 182 -49 271v4
l272 84l-137 -654q-32 -148 -38.5 -223t8.5 -135v-4h-226v4z" />
    <glyph glyph-name="eth" unicode="&#xf0;" horiz-adv-x="870" 
d="M332 -31q-134 0 -212.5 97.5t-78.5 267.5q0 123 43 246t113 216.5t163.5 151.5t188.5 58q62 0 125 -19q-36 191 -121 330l-279 -141l-14 32l275 140q-93 139 -248 227l10 18q185 -79 309 -209l238 121l14 -32l-227 -117q215 -248 215 -619q0 -161 -42.5 -305t-113 -244.5
t-164.5 -159.5t-194 -59zM195 279q0 -273 147 -273q86 0 165 89.5t128 248.5t49 344q0 281 -145 281q-89 0 -168 -90.5t-127.5 -250.5t-48.5 -349z" />
    <glyph glyph-name="ntilde" unicode="&#xf1;" horiz-adv-x="987" 
d="M752 705q20 75 0.5 129.5t-76.5 54.5q-175 0 -414 -555l-12 -60q-21 -95 -24 -147.5t12 -122.5v-4h-226v4q39 66 60.5 139t50.5 213l63 301q42 190 -39 271v4l256 84l-116 -537q63 152 135.5 267t160 187.5t173.5 72.5q90 0 129.5 -78.5t9.5 -220.5l-98 -447
q-34 -124 -21.5 -178.5t92.5 -65.5v-4l-276 -30zM522 1389q47 0 125.5 -34t124.5 -34q48 0 77 23.5t50 72.5l16 -2q-6 -26 -14 -51t-24 -55t-36 -52.5t-51 -37.5t-67 -15q-46 0 -126 34t-126 34q-49 0 -79.5 -23.5t-51.5 -72.5l-16 2q7 34 19.5 65t34.5 67t59 57.5t85 21.5z
" />
    <glyph glyph-name="ograve" unicode="&#xf2;" horiz-adv-x="870" 
d="M834 643q0 -165 -72.5 -322t-190 -254.5t-241.5 -97.5q-136 0 -214.5 96.5t-78.5 266.5q0 165 72.5 322t190 254.5t241.5 97.5q136 0 214.5 -96.5t78.5 -266.5zM190 279q0 -273 146 -273q65 0 127.5 53.5t110.5 144.5t77 220t29 270q0 275 -145 275q-89 0 -168.5 -90.5
t-128 -251t-48.5 -348.5zM635 1100l-307 346l127 88l198 -420z" />
    <glyph glyph-name="oacute" unicode="&#xf3;" horiz-adv-x="870" 
d="M834 643q0 -165 -72.5 -322t-190 -254.5t-241.5 -97.5q-136 0 -214.5 96.5t-78.5 266.5q0 165 72.5 322t190 254.5t241.5 97.5q136 0 214.5 -96.5t78.5 -266.5zM190 279q0 -273 146 -273q65 0 127.5 53.5t110.5 144.5t77 220t29 270q0 275 -145 275q-89 0 -168.5 -90.5
t-128 -251t-48.5 -348.5zM741 1534l101 -109l-408 -317l-10 14z" />
    <glyph glyph-name="ocircumflex" unicode="&#xf4;" horiz-adv-x="870" 
d="M834 643q0 -165 -72.5 -322t-190 -254.5t-241.5 -97.5q-136 0 -214.5 96.5t-78.5 266.5q0 165 72.5 322t190 254.5t241.5 97.5q136 0 214.5 -96.5t78.5 -266.5zM190 279q0 -273 146 -273q65 0 127.5 53.5t110.5 144.5t77 220t29 270q0 275 -145 275q-89 0 -168.5 -90.5
t-128 -251t-48.5 -348.5zM586 1303l-289 -197l-12 16l321 351h8l183 -351l-19 -16z" />
    <glyph glyph-name="otilde" unicode="&#xf5;" horiz-adv-x="870" 
d="M834 643q0 -165 -72.5 -322t-190 -254.5t-241.5 -97.5q-136 0 -214.5 96.5t-78.5 266.5q0 165 72.5 322t190 254.5t241.5 97.5q136 0 214.5 -96.5t78.5 -266.5zM190 279q0 -273 146 -273q65 0 127.5 53.5t110.5 144.5t77 220t29 270q0 275 -145 275q-89 0 -168.5 -90.5
t-128 -251t-48.5 -348.5zM479 1389q47 0 125.5 -34t124.5 -34q48 0 77 23.5t50 72.5l16 -2q-6 -26 -14 -51t-24 -55t-36 -52.5t-51 -37.5t-67 -15q-46 0 -126 34t-126 34q-49 0 -79.5 -23.5t-51.5 -72.5l-16 2q7 34 19.5 65t34.5 67t59 57.5t85 21.5z" />
    <glyph glyph-name="odieresis" unicode="&#xf6;" horiz-adv-x="870" 
d="M834 643q0 -165 -72.5 -322t-190 -254.5t-241.5 -97.5q-136 0 -214.5 96.5t-78.5 266.5q0 165 72.5 322t190 254.5t241.5 97.5q136 0 214.5 -96.5t78.5 -266.5zM190 279q0 -273 146 -273q65 0 127.5 53.5t110.5 144.5t77 220t29 270q0 275 -145 275q-89 0 -168.5 -90.5
t-128 -251t-48.5 -348.5zM489 1350q0 -43 -29 -73t-71 -30q-41 0 -70.5 30t-29.5 73q0 41 29.5 70.5t70.5 29.5q42 0 71 -29t29 -71zM850 1350q0 -43 -29.5 -73t-70.5 -30q-42 0 -72.5 30.5t-30.5 72.5q0 41 30.5 70.5t72.5 29.5q41 0 70.5 -29.5t29.5 -70.5z" />
    <glyph glyph-name="divide" unicode="&#xf7;" horiz-adv-x="1101" 
d="M139 610v41h905v-41h-905zM549 176q-47 0 -81 34t-34 81t34 81t81 34t81 -34t34 -81t-34 -81t-81 -34zM549 850q-47 0 -81 34t-34 81t34 80.5t81 33.5t81 -33.5t34 -80.5t-34 -81t-81 -34z" />
    <glyph glyph-name="oslash" unicode="&#xf8;" horiz-adv-x="870" 
d="M834 643q0 -165 -72.5 -322t-190 -254.5t-241.5 -97.5q-116 0 -189 70l-127 -176h-55l152 211q-74 95 -74 258q0 165 72.5 322t190 254.5t241.5 97.5q112 0 188 -70l127 178h55l-151 -213q74 -95 74 -258zM680 694q0 46 -6 90l-469 -655q35 -123 131 -123
q65 0 127.5 53.5t110.5 144.5t77 220t29 270zM190 279q0 -21 5 -89l469 656q-35 123 -129 123q-89 0 -168.5 -90.5t-128 -251t-48.5 -348.5z" />
    <glyph glyph-name="ugrave" unicode="&#xf9;" horiz-adv-x="933" 
d="M637 412q-90 -198 -199 -320.5t-227 -122.5q-91 0 -137.5 77t-7.5 220l122 471q13 47 17 80t0 64.5t-23.5 53.5t-54.5 36v4h260l-178 -705q-24 -92 -2.5 -140t78.5 -48q95 0 202.5 152.5t212.5 427.5l29 106q44 156 -72 203v4h269l-191 -723q-9 -36 -13 -53.5t-8 -42.5
t-2.5 -37t5.5 -28.5t14 -26.5t25 -20.5t37 -20.5v-3l-269 -38zM651 1100l-307 346l127 88l199 -420z" />
    <glyph glyph-name="uacute" unicode="&#xfa;" horiz-adv-x="933" 
d="M637 412q-90 -198 -199 -320.5t-227 -122.5q-91 0 -137.5 77t-7.5 220l122 471q13 47 17 80t0 64.5t-23.5 53.5t-54.5 36v4h260l-178 -705q-24 -92 -2.5 -140t78.5 -48q95 0 202.5 152.5t212.5 427.5l29 106q44 156 -72 203v4h269l-191 -723q-9 -36 -13 -53.5t-8 -42.5
t-2.5 -37t5.5 -28.5t14 -26.5t25 -20.5t37 -20.5v-3l-269 -38zM803 1534l100 -109l-407 -317l-11 14z" />
    <glyph glyph-name="ucircumflex" unicode="&#xfb;" horiz-adv-x="933" 
d="M637 412q-90 -198 -199 -320.5t-227 -122.5q-91 0 -137.5 77t-7.5 220l122 471q13 47 17 80t0 64.5t-23.5 53.5t-54.5 36v4h260l-178 -705q-24 -92 -2.5 -140t78.5 -48q95 0 202.5 152.5t212.5 427.5l29 106q44 156 -72 203v4h269l-191 -723q-9 -36 -13 -53.5t-8 -42.5
t-2.5 -37t5.5 -28.5t14 -26.5t25 -20.5t37 -20.5v-3l-269 -38zM618 1303l-288 -197l-13 16l322 351h8l182 -351l-18 -16z" />
    <glyph glyph-name="udieresis" unicode="&#xfc;" horiz-adv-x="933" 
d="M637 412q-90 -198 -199 -320.5t-227 -122.5q-91 0 -137.5 77t-7.5 220l122 471q13 47 17 80t0 64.5t-23.5 53.5t-54.5 36v4h260l-178 -705q-24 -92 -2.5 -140t78.5 -48q95 0 202.5 152.5t212.5 427.5l29 106q44 156 -72 203v4h269l-191 -723q-9 -36 -13 -53.5t-8 -42.5
t-2.5 -37t5.5 -28.5t14 -26.5t25 -20.5t37 -20.5v-3l-269 -38zM526 1350q0 -43 -29 -73t-71 -30q-41 0 -70.5 30t-29.5 73q0 41 29.5 70.5t70.5 29.5q42 0 71 -29t29 -71zM887 1350q0 -43 -30 -73t-71 -30q-42 0 -72 30.5t-30 72.5q0 41 30.5 70.5t71.5 29.5t71 -29.5
t30 -70.5z" />
    <glyph glyph-name="yacute" unicode="&#xfd;" horiz-adv-x="747" 
d="M-178 -291q43 0 72.5 3t77 18t86 43.5t86.5 84t92 134.5l-66 723q-12 126 -27.5 169.5t-66.5 86.5v4h219l65 -750l203 381q35 65 56 110t32.5 86.5t8 70.5t-21 53.5t-50.5 44.5v4h233v-4l-571 -1037q-52 -96 -104 -166.5t-95.5 -111.5t-92.5 -66.5t-86.5 -35t-86.5 -15.5
zM715 1534l100 -109l-407 -317l-11 14z" />
    <glyph glyph-name="thorn" unicode="&#xfe;" horiz-adv-x="948" 
d="M399 6q81 0 151 65.5t114.5 166.5t70 219.5t25.5 228.5q0 121 -32.5 175t-96.5 54q-176 0 -355 -456l-36 -178q-10 -74 0.5 -129.5t35.5 -86t56 -45t67 -14.5zM131 -461h-225v4q38 66 58.5 138t49.5 215l283 1341q22 96 14 160.5t-55 109.5v4l258 84l-203 -964
q160 375 385 375q215 0 215 -322q0 -183 -66 -346.5t-187 -266t-267 -102.5q-129 0 -203 74l-36 -180q-18 -86 -25.5 -137t-7 -97t11.5 -86v-4z" />
    <glyph glyph-name="ydieresis" unicode="&#xff;" horiz-adv-x="747" 
d="M-178 -291q43 0 72.5 3t77 18t86 43.5t86.5 84t92 134.5l-66 723q-12 126 -27.5 169.5t-66.5 86.5v4h219l65 -750l203 381q35 65 56 110t32.5 86.5t8 70.5t-21 53.5t-50.5 44.5v4h233v-4l-571 -1037q-52 -96 -104 -166.5t-95.5 -111.5t-92.5 -66.5t-86.5 -35t-86.5 -15.5
zM420 1350q0 -43 -29 -73t-72 -30q-41 0 -70.5 30t-29.5 73q0 41 29.5 70.5t70.5 29.5q43 0 72 -29t29 -71zM780 1350q0 -43 -29.5 -73t-70.5 -30q-42 0 -72 30.5t-30 72.5q0 41 30.5 70.5t71.5 29.5t70.5 -29.5t29.5 -70.5z" />
    <glyph glyph-name="Amacron" unicode="&#x100;" horiz-adv-x="1003" 
d="M588 1247l-297 -641h362zM152 0h-254v4q69 60 109 121.5t104 193.5l559 1194h49l129 -1230q11 -113 30.5 -169t59.5 -110v-4h-311v4q79 82 57 289l-27 272h-385l-92 -198q-38 -81 -52 -155t-6.5 -124.5t30.5 -83.5v-4zM440 1796h537l-19 -84h-536z" />
    <glyph glyph-name="amacron" unicode="&#x101;" 
d="M631 410q-40 -94 -84.5 -170.5t-96 -139t-110.5 -97t-119 -34.5q-86 0 -135 72t-49 205q0 107 31.5 217.5t90.5 207t136 172t174.5 119.5t200.5 44q102 0 174 -35l63 35h13l-197 -754q-8 -32 -11.5 -47t-8 -39t-4 -34.5t1.5 -27t7 -25t15.5 -20t23.5 -20t33 -16.5v-3
l-264 -38zM297 86q36 0 73 21.5t71 63.5t64.5 87.5t62.5 110.5t54 114t50 115l78 295q-38 65 -127 65q-88 0 -169.5 -66.5t-137.5 -168t-89.5 -221t-33.5 -226.5q0 -190 104 -190zM385 1321h496l-19 -86h-495z" />
    <glyph glyph-name="Abreve" unicode="&#x102;" horiz-adv-x="1003" 
d="M588 1247l-297 -641h362zM152 0h-254v4q69 60 109 121.5t104 193.5l559 1194h49l129 -1230q11 -113 30.5 -169t59.5 -110v-4h-311v4q79 82 57 289l-27 272h-385l-92 -198q-38 -81 -52 -155t-6.5 -124.5t30.5 -83.5v-4zM717 1751q191 0 252 162h16q-7 -45 -24.5 -88.5
t-49.5 -88t-86.5 -71.5t-124.5 -27q-55 0 -98.5 19t-68.5 48t-40.5 66.5t-20.5 72.5t-3 69h16q37 -162 232 -162z" />
    <glyph glyph-name="abreve" unicode="&#x103;" 
d="M631 410q-40 -94 -84.5 -170.5t-96 -139t-110.5 -97t-119 -34.5q-86 0 -135 72t-49 205q0 107 31.5 217.5t90.5 207t136 172t174.5 119.5t200.5 44q102 0 174 -35l63 35h13l-197 -754q-8 -32 -11.5 -47t-8 -39t-4 -34.5t1.5 -27t7 -25t15.5 -20t23.5 -20t33 -16.5v-3
l-264 -38zM297 86q36 0 73 21.5t71 63.5t64.5 87.5t62.5 110.5t54 114t50 115l78 295q-38 65 -127 65q-88 0 -169.5 -66.5t-137.5 -168t-89.5 -221t-33.5 -226.5q0 -190 104 -190zM649 1274q161 0 213 156h19q-4 -42 -19.5 -84.5t-43 -83.5t-75.5 -67t-108 -26
q-59 0 -102.5 26t-64.5 67t-29.5 84t-4.5 84h17q14 -75 65 -115.5t133 -40.5z" />
    <glyph glyph-name="Aogonek" unicode="&#x104;" horiz-adv-x="1003" 
d="M489 -504q-70 0 -110.5 39.5t-40.5 110.5q0 98 66 181.5t169 143.5q59 38 83.5 88t29.5 117q4 33 -2 117l-27 272h-385l-92 -198q-38 -81 -52 -155t-6.5 -124.5t30.5 -83.5v-4h-254v4q69 60 109 121.5t104 193.5l559 1194h49l129 -1230q11 -113 30.5 -169t59.5 -110v-4
h-262q-107 -59 -158 -139.5t-51 -157.5q0 -106 98 -106q93 0 166 108l14 -12q-105 -197 -256 -197zM590 1251l-299 -645h362z" />
    <glyph glyph-name="aogonek" unicode="&#x105;" 
d="M397 -504q-68 0 -108.5 39.5t-40.5 110.5q0 101 75.5 194t194.5 152l113 418q-54 -127 -115 -222t-138.5 -157t-156.5 -62q-86 0 -135 72t-49 205q0 107 31.5 217.5t90.5 207t136 172t174.5 119.5t200.5 44q102 0 174 -35l63 35h13l-197 -754q-8 -32 -11.5 -47t-8 -39
t-4 -34.5t1.5 -27t7 -25t15.5 -20t23.5 -20t33 -16.5v-3q-105 -10 -159 -26q-81 -23 -138 -74t-81.5 -107t-24.5 -112q0 -104 96 -104q91 0 166 108l14 -12q-105 -197 -256 -197zM297 86q36 0 73 21.5t71 63.5t64.5 87.5t62.5 110.5t54 114t50 115l78 295q-38 65 -127 65
q-88 0 -169.5 -66.5t-137.5 -168t-89.5 -221t-33.5 -226.5q0 -190 104 -190z" />
    <glyph glyph-name="Cacute" unicode="&#x106;" horiz-adv-x="1243" 
d="M1071 102q-56 -44 -180 -88.5t-258 -44.5q-174 0 -295.5 82.5t-179.5 224t-58 330.5q0 183 59.5 352t161.5 295t249 201.5t313 75.5q104 0 197 -28.5t149 -59.5l22 -322l-18 -4q-85 201 -176.5 287t-214.5 86q-104 0 -196 -53.5t-158.5 -144.5t-115 -210.5t-72.5 -254
t-24 -271.5q0 -247 95 -396t266 -149q61 0 118.5 22.5t104.5 57t98 92t90 112t89 132.5l20 -4zM1096 1964l73 -137l-501 -225l-11 16z" />
    <glyph glyph-name="cacute" unicode="&#x107;" horiz-adv-x="782" 
d="M694 289q-45 -147 -136.5 -233.5t-221.5 -86.5q-143 0 -221 103.5t-78 275.5q0 124 42 244t113 211t171.5 147t209.5 56q60 0 110.5 -14t74.5 -29l8 -232l-18 -4q-29 60 -49.5 97t-48.5 74t-58.5 54t-65.5 17q-41 0 -86.5 -24.5t-89 -73t-78.5 -113.5t-56 -154t-21 -186
q0 -161 57 -244.5t166 -83.5q74 0 138 45.5t120 159.5zM735 1534l101 -109l-408 -317l-10 14z" />
    <glyph glyph-name="Ccircumflex" unicode="&#x108;" horiz-adv-x="1243" 
d="M1071 102q-56 -44 -180 -88.5t-258 -44.5q-174 0 -295.5 82.5t-179.5 224t-58 330.5q0 183 59.5 352t161.5 295t249 201.5t313 75.5q104 0 197 -28.5t149 -59.5l22 -322l-18 -4q-85 201 -176.5 287t-214.5 86q-104 0 -196 -53.5t-158.5 -144.5t-115 -210.5t-72.5 -254
t-24 -271.5q0 -247 95 -396t266 -149q61 0 118.5 22.5t104.5 57t98 92t90 112t89 132.5l20 -4zM909 1774l-329 -172l-11 16l355 317h10l223 -317l-16 -16z" />
    <glyph glyph-name="ccircumflex" unicode="&#x109;" horiz-adv-x="782" 
d="M694 289q-45 -147 -136.5 -233.5t-221.5 -86.5q-143 0 -221 103.5t-78 275.5q0 124 42 244t113 211t171.5 147t209.5 56q60 0 110.5 -14t74.5 -29l8 -232l-18 -4q-29 60 -49.5 97t-48.5 74t-58.5 54t-65.5 17q-41 0 -86.5 -24.5t-89 -73t-78.5 -113.5t-56 -154t-21 -186
q0 -161 57 -244.5t166 -83.5q74 0 138 45.5t120 159.5zM592 1303l-289 -197l-12 16l321 351h9l182 -351l-19 -16z" />
    <glyph glyph-name="Cdotaccent" unicode="&#x10a;" horiz-adv-x="1243" 
d="M1071 102q-56 -44 -180 -88.5t-258 -44.5q-174 0 -295.5 82.5t-179.5 224t-58 330.5q0 183 59.5 352t161.5 295t249 201.5t313 75.5q104 0 197 -28.5t149 -59.5l22 -322l-18 -4q-85 201 -176.5 287t-214.5 86q-104 0 -196 -53.5t-158.5 -144.5t-115 -210.5t-72.5 -254
t-24 -271.5q0 -247 95 -396t266 -149q61 0 118.5 22.5t104.5 57t98 92t90 112t89 132.5l20 -4zM975 1778q0 -41 -30 -71t-73 -30q-41 0 -70.5 30t-29.5 71t29.5 71.5t70.5 30.5q42 0 72.5 -30t30.5 -72z" />
    <glyph glyph-name="cdotaccent" unicode="&#x10b;" horiz-adv-x="782" 
d="M694 289q-45 -147 -136.5 -233.5t-221.5 -86.5q-143 0 -221 103.5t-78 275.5q0 124 42 244t113 211t171.5 147t209.5 56q60 0 110.5 -14t74.5 -29l8 -232l-18 -4q-29 60 -49.5 97t-48.5 74t-58.5 54t-65.5 17q-41 0 -86.5 -24.5t-89 -73t-78.5 -113.5t-56 -154t-21 -186
q0 -161 57 -244.5t166 -83.5q74 0 138 45.5t120 159.5zM655 1350q0 -43 -29.5 -73t-70.5 -30t-71.5 30.5t-30.5 72.5q0 41 30.5 70.5t71.5 29.5t70.5 -29.5t29.5 -70.5z" />
    <glyph glyph-name="Ccaron" unicode="&#x10c;" horiz-adv-x="1243" 
d="M1071 102q-56 -44 -180 -88.5t-258 -44.5q-174 0 -295.5 82.5t-179.5 224t-58 330.5q0 183 59.5 352t161.5 295t249 201.5t313 75.5q104 0 197 -28.5t149 -59.5l22 -322l-18 -4q-85 201 -176.5 287t-214.5 86q-104 0 -196 -53.5t-158.5 -144.5t-115 -210.5t-72.5 -254
t-24 -271.5q0 -247 95 -396t266 -149q61 0 118.5 22.5t104.5 57t98 92t90 112t89 132.5l20 -4zM844 1602l-223 317l16 16l231 -172l330 172l10 -16l-354 -317h-10z" />
    <glyph glyph-name="ccaron" unicode="&#x10d;" horiz-adv-x="782" 
d="M694 289q-45 -147 -136.5 -233.5t-221.5 -86.5q-143 0 -221 103.5t-78 275.5q0 124 42 244t113 211t171.5 147t209.5 56q60 0 110.5 -14t74.5 -29l8 -232l-18 -4q-29 60 -49.5 97t-48.5 74t-58.5 54t-65.5 17q-41 0 -86.5 -24.5t-89 -73t-78.5 -113.5t-56 -154t-21 -186
q0 -161 57 -244.5t166 -83.5q74 0 138 45.5t120 159.5zM524 1106l-182 350l18 17l193 -197l289 197l12 -17l-322 -350h-8z" />
    <glyph glyph-name="Dcaron" unicode="&#x10e;" horiz-adv-x="1232" 
d="M29 4q42 63 63.5 122.5t36.5 158.5l168 929q17 99 14 159t-28 122v4q109 0 199 3t194 3q549 0 549 -596q0 -253 -99.5 -459.5t-285 -328t-422.5 -121.5h-389v4zM502 1466l-256 -1431l166 4q108 2 200.5 39t161 100.5t121.5 147.5t86 183.5t49.5 205t16.5 215.5
q0 268 -99.5 402t-304.5 134h-141zM743 1602l-223 317l17 16l231 -172l330 172l10 -16l-354 -317h-11z" />
    <glyph glyph-name="dcaron" unicode="&#x10f;" horiz-adv-x="950" 
d="M297 86q185 0 399 530l56 256q-30 86 -150 86q-83 0 -161 -66t-132 -167t-86.5 -222.5t-32.5 -232.5q0 -106 29 -145t78 -39zM676 475q-46 -107 -94.5 -193.5t-106 -159t-122 -113t-130.5 -40.5q-88 0 -137 68.5t-49 202.5q0 138 47 275.5t126.5 246t195 176.5t243.5 68
q54 0 127 -15l53 246q25 97 17.5 160.5t-55.5 109.5v4l258 84l-287 -1343q-22 -114 -19 -144q5 -48 56 -71q10 -4 22 -8v-4l-262 -43zM1171 1587h156l-258 -416l-14 5z" />
    <glyph glyph-name="Dcroat" unicode="&#x110;" horiz-adv-x="1253" 
d="M70 770h168l79 444q17 99 14 159t-28 122v4q109 0 199 3t194 3q549 0 549 -596q0 -253 -99.5 -459.5t-285 -328t-422.5 -121.5h-389v4q43 64 64.5 123.5t36.5 157.5l79 448h-168zM522 1466l-125 -696h338l-8 -37h-336l-125 -698l166 4q108 2 200.5 39t161 100.5
t121.5 147.5t86 183.5t49.5 205t16.5 215.5q0 268 -99 402t-304 134h-142z" />
    <glyph glyph-name="dcroat" unicode="&#x111;" horiz-adv-x="950" 
d="M676 475q-46 -107 -94.5 -193.5t-106 -159t-122 -113t-130.5 -40.5q-88 0 -137 68.5t-49 202.5q0 138 47 275.5t126.5 246t195 176.5t243.5 68q54 0 127 -15l41 195h-328l9 39h327l4 12q25 97 17.5 160.5t-55.5 109.5v4l258 84l-80 -370h147l-8 -39h-147l-199 -934
q-22 -114 -19 -144q5 -48 56 -71q10 -4 22 -8v-4l-262 -43zM297 86q185 0 399 530l56 256q-30 86 -150 86q-83 0 -161 -66t-132 -167t-86.5 -222.5t-32.5 -232.5q0 -106 29 -145t78 -39z" />
    <glyph glyph-name="Emacron" unicode="&#x112;" horiz-adv-x="1036" 
d="M838 0h-807v4q40 69 61.5 132.5t38.5 162.5l164 901q16 108 13.5 163t-21.5 132v4h704l25 -321l-19 -4q-70 141 -123.5 209t-117.5 69l-252 8l-123 -686h158q17 0 34 6t34.5 19t31.5 25t32 33.5t28 34t29 37.5t26 34h18l-70 -408h-18q-4 9 -16 35t-17.5 37t-17 32
t-20.5 30.5t-22 21.5t-27.5 17t-31.5 5h-159l-125 -698l301 10q53 2 101.5 23.5t94.5 63.5t85 86.5t92 110.5q6 9 10 13.5t9.5 11.5t10.5 13l19 -9zM434 1796h537l-19 -84h-536z" />
    <glyph glyph-name="emacron" unicode="&#x113;" horiz-adv-x="770" 
d="M315 -31q-129 0 -203.5 94.5t-74.5 260.5q0 169 76 327t205.5 256.5t273.5 98.5q78 0 136 -34.5t58 -107.5q0 -50 -29 -92.5t-91 -78t-173 -55.5t-260 -20q-34 -112 -34 -237q0 -156 53.5 -226.5t142.5 -70.5q145 0 250 168l14 -10q-54 -129 -144 -201t-200 -72zM571 969
q-98 0 -189 -90t-140 -238q103 12 181 34.5t121.5 46.5t70.5 54t35.5 54.5t8.5 50.5q0 88 -88 88zM336 1321h495l-18 -86h-496z" />
    <glyph glyph-name="Ebreve" unicode="&#x114;" horiz-adv-x="1036" 
d="M838 0h-807v4q40 69 61.5 132.5t38.5 162.5l164 901q16 108 13.5 163t-21.5 132v4h704l25 -321l-19 -4q-70 141 -123.5 209t-117.5 69l-252 8l-123 -686h158q17 0 34 6t34.5 19t31.5 25t32 33.5t28 34t29 37.5t26 34h18l-70 -408h-18q-4 9 -16 35t-17.5 37t-17 32
t-20.5 30.5t-22 21.5t-27.5 17t-31.5 5h-159l-125 -698l301 10q53 2 101.5 23.5t94.5 63.5t85 86.5t92 110.5q6 9 10 13.5t9.5 11.5t10.5 13l19 -9zM696 1751q191 0 252 162h17q-7 -45 -24.5 -88.5t-49.5 -88t-86.5 -71.5t-124.5 -27q-55 0 -98.5 19t-68.5 48t-40.5 66.5
t-20.5 72.5t-3 69h16q37 -162 231 -162z" />
    <glyph glyph-name="ebreve" unicode="&#x115;" horiz-adv-x="770" 
d="M315 -31q-129 0 -203.5 94.5t-74.5 260.5q0 169 76 327t205.5 256.5t273.5 98.5q78 0 136 -34.5t58 -107.5q0 -50 -29 -92.5t-91 -78t-173 -55.5t-260 -20q-34 -112 -34 -237q0 -156 53.5 -226.5t142.5 -70.5q145 0 250 168l14 -10q-54 -129 -144 -201t-200 -72zM571 969
q-98 0 -189 -90t-140 -238q103 12 181 34.5t121.5 46.5t70.5 54t35.5 54.5t8.5 50.5q0 88 -88 88zM545 1274q161 0 213 156h18q-4 -42 -19.5 -84.5t-43 -83.5t-75.5 -67t-108 -26q-59 0 -102 26t-64.5 67t-29.5 84t-4 84h16q13 -75 65 -115.5t134 -40.5z" />
    <glyph glyph-name="Edotaccent" unicode="&#x116;" horiz-adv-x="1036" 
d="M838 0h-807v4q40 69 61.5 132.5t38.5 162.5l164 901q16 108 13.5 163t-21.5 132v4h704l25 -321l-19 -4q-70 141 -123.5 209t-117.5 69l-252 8l-123 -686h158q17 0 34 6t34.5 19t31.5 25t32 33.5t28 34t29 37.5t26 34h18l-70 -408h-18q-4 9 -16 35t-17.5 37t-17 32
t-20.5 30.5t-22 21.5t-27.5 17t-31.5 5h-159l-125 -698l301 10q53 2 101.5 23.5t94.5 63.5t85 86.5t92 110.5q6 9 10 13.5t9.5 11.5t10.5 13l19 -9zM799 1778q0 -41 -30 -71t-73 -30q-41 0 -70.5 30t-29.5 71t29.5 71.5t70.5 30.5q42 0 72.5 -30t30.5 -72z" />
    <glyph glyph-name="edotaccent" unicode="&#x117;" horiz-adv-x="770" 
d="M315 -31q-129 0 -203.5 94.5t-74.5 260.5q0 169 76 327t205.5 256.5t273.5 98.5q78 0 136 -34.5t58 -107.5q0 -50 -29 -92.5t-91 -78t-173 -55.5t-260 -20q-34 -112 -34 -237q0 -156 53.5 -226.5t142.5 -70.5q145 0 250 168l14 -10q-54 -129 -144 -201t-200 -72zM571 969
q-98 0 -189 -90t-140 -238q103 12 181 34.5t121.5 46.5t70.5 54t35.5 54.5t8.5 50.5q0 88 -88 88zM649 1350q0 -43 -29.5 -73t-70.5 -30q-42 0 -72.5 30.5t-30.5 72.5q0 41 30.5 70.5t72.5 29.5q41 0 70.5 -29.5t29.5 -70.5z" />
    <glyph glyph-name="Eogonek" unicode="&#x118;" horiz-adv-x="1036" 
d="M838 0h-201q-52 -24 -96 -68q-113 -107 -113 -231q0 -104 96 -104q93 0 168 108l13 -12q-21 -40 -42.5 -70.5t-52.5 -61.5t-71.5 -48t-87.5 -17q-70 0 -111 39.5t-41 110.5q0 102 82 200q80 95 207 154h-557v4q40 69 61.5 132.5t38.5 162.5l164 901q16 108 13.5 163
t-21.5 132v4h704l25 -321l-19 -4q-70 141 -123.5 209t-117.5 69l-252 8l-123 -686h158q17 0 34 6t34.5 19t31.5 25t32 33.5t28 34t29 37.5t26 34h18l-70 -408h-18q-4 9 -16 35t-17.5 37t-17 32t-20.5 30.5t-22 21.5t-27.5 17t-31.5 5h-159l-125 -698l301 10q53 2 101.5 23.5
t94.5 63.5t85 86.5t92 110.5q6 9 10 13.5t9.5 11.5t10.5 13l19 -9z" />
    <glyph glyph-name="eogonek" unicode="&#x119;" horiz-adv-x="770" 
d="M256 -504q-70 0 -110 39.5t-40 110.5q0 97 69.5 184.5t172.5 140.5q-2 -2 -16 -2h-17q-129 0 -203.5 94.5t-74.5 260.5q0 169 76 327t205.5 256.5t273.5 98.5q78 0 136 -34.5t58 -107.5q0 -50 -29 -92.5t-91 -78t-173 -55.5t-260 -20q-34 -112 -34 -237
q0 -156 53.5 -226.5t142.5 -70.5q145 0 250 168l14 -10q-34 -93 -102 -164q-17 -18 -39.5 -35t-39 -27.5t-44.5 -27.5t-41 -25q-78 -54 -119 -122t-41 -140q0 -104 99 -104q91 0 166 108l14 -12q-21 -39 -43 -69.5t-53.5 -62t-72 -48.5t-87.5 -17zM571 969q-98 0 -189 -90
t-140 -238q103 12 181 34.5t121.5 46.5t70.5 54t35.5 54.5t8.5 50.5q0 88 -88 88z" />
    <glyph glyph-name="Ecaron" unicode="&#x11a;" horiz-adv-x="1036" 
d="M838 0h-807v4q40 69 61.5 132.5t38.5 162.5l164 901q16 108 13.5 163t-21.5 132v4h704l25 -321l-19 -4q-70 141 -123.5 209t-117.5 69l-252 8l-123 -686h158q17 0 34 6t34.5 19t31.5 25t32 33.5t28 34t29 37.5t26 34h18l-70 -408h-18q-4 9 -16 35t-17.5 37t-17 32
t-20.5 30.5t-22 21.5t-27.5 17t-31.5 5h-159l-125 -698l301 10q53 2 101.5 23.5t94.5 63.5t85 86.5t92 110.5q6 9 10 13.5t9.5 11.5t10.5 13l19 -9zM680 1602l-223 317l16 16l232 -172l329 172l10 -16l-354 -317h-10z" />
    <glyph glyph-name="ecaron" unicode="&#x11b;" horiz-adv-x="770" 
d="M315 -31q-129 0 -203.5 94.5t-74.5 260.5q0 169 76 327t205.5 256.5t273.5 98.5q78 0 136 -34.5t58 -107.5q0 -50 -29 -92.5t-91 -78t-173 -55.5t-260 -20q-34 -112 -34 -237q0 -156 53.5 -226.5t142.5 -70.5q145 0 250 168l14 -10q-54 -129 -144 -201t-200 -72zM571 969
q-98 0 -189 -90t-140 -238q103 12 181 34.5t121.5 46.5t70.5 54t35.5 54.5t8.5 50.5q0 88 -88 88zM528 1106l-182 350l19 17l192 -197l289 197l12 -17l-321 -350h-9z" />
    <glyph glyph-name="Gcircumflex" unicode="&#x11c;" horiz-adv-x="1286" 
d="M1253 668q-41 -70 -62 -133.5t-42 -178.5l-31 -174q-4 -3 -48 -38.5t-63 -49t-69 -43.5t-89.5 -43.5t-99.5 -26t-122 -12.5q-254 0 -390.5 172t-136.5 463q0 180 60 348.5t163 296t251.5 204.5t316.5 77q104 0 198.5 -29t149.5 -59l21 -322l-19 -4q-88 202 -177 287.5
t-214 85.5q-130 0 -240.5 -81.5t-182 -215.5t-111.5 -301.5t-40 -343.5q0 -120 19.5 -215.5t61 -169t111.5 -113t165 -39.5q169 0 261 119t110 330q8 113 -25 209v4h274v-4zM909 1774l-329 -172l-11 16l355 317h10l223 -317l-16 -16z" />
    <glyph glyph-name="gcircumflex" unicode="&#x11d;" horiz-adv-x="835" 
d="M242 530q0 -97 24 -142.5t82 -45.5q100 0 175 128t75 310q0 96 -25 142.5t-84 46.5q-65 0 -121.5 -58t-91 -159.5t-34.5 -221.5zM702 -137q0 -133 -132.5 -228.5t-346.5 -95.5q-162 0 -263 55.5t-101 157.5q0 68 47.5 122.5t117.5 86t156 45.5q-100 54 -100 144
q0 69 44.5 115t111.5 67q-68 35 -105 101.5t-37 146.5t36 158.5t92 137t127 94.5t140 36q73 0 132 -35l301 61l2 -2l-33 -139h-8l-230 55q92 -86 92 -217q0 -79 -36 -157.5t-92.5 -136.5t-128.5 -94t-140 -36q-39 0 -86 14q-45 -19 -62.5 -42t-17.5 -54q0 -56 60.5 -85.5
t169.5 -47.5q131 -29 184 -58q105 -58 106 -169zM266 -408q156 0 249 60.5t93 150.5q0 21 -6.5 39t-15.5 30.5t-27 24t-32 18t-40 14t-41.5 11t-46.5 10t-45 9.5q-84 14 -145 37q-217 -58 -217 -219q0 -85 66.5 -135t207.5 -50zM545 1303l-289 -197l-12 16l321 351h8
l183 -351l-19 -16z" />
    <glyph glyph-name="Gbreve" unicode="&#x11e;" horiz-adv-x="1286" 
d="M1253 668q-41 -70 -62 -133.5t-42 -178.5l-31 -174q-4 -3 -48 -38.5t-63 -49t-69 -43.5t-89.5 -43.5t-99.5 -26t-122 -12.5q-254 0 -390.5 172t-136.5 463q0 180 60 348.5t163 296t251.5 204.5t316.5 77q104 0 198.5 -29t149.5 -59l21 -322l-19 -4q-88 202 -177 287.5
t-214 85.5q-130 0 -240.5 -81.5t-182 -215.5t-111.5 -301.5t-40 -343.5q0 -120 19.5 -215.5t61 -169t111.5 -113t165 -39.5q169 0 261 119t110 330q8 113 -25 209v4h274v-4zM872 1751q191 0 252 162h17q-7 -45 -24.5 -88.5t-49.5 -88t-86.5 -71.5t-124.5 -27q-55 0 -98.5 19
t-68.5 48t-40.5 66.5t-20.5 72.5t-3 69h16q37 -162 231 -162z" />
    <glyph glyph-name="gbreve" unicode="&#x11f;" horiz-adv-x="835" 
d="M242 530q0 -97 24 -142.5t82 -45.5q100 0 175 128t75 310q0 96 -25 142.5t-84 46.5q-65 0 -121.5 -58t-91 -159.5t-34.5 -221.5zM702 -137q0 -133 -132.5 -228.5t-346.5 -95.5q-162 0 -263 55.5t-101 157.5q0 68 47.5 122.5t117.5 86t156 45.5q-100 54 -100 144
q0 69 44.5 115t111.5 67q-68 35 -105 101.5t-37 146.5t36 158.5t92 137t127 94.5t140 36q73 0 132 -35l301 61l2 -2l-33 -139h-8l-230 55q92 -86 92 -217q0 -79 -36 -157.5t-92.5 -136.5t-128.5 -94t-140 -36q-39 0 -86 14q-45 -19 -62.5 -42t-17.5 -54q0 -56 60.5 -85.5
t169.5 -47.5q131 -29 184 -58q105 -58 106 -169zM266 -408q156 0 249 60.5t93 150.5q0 21 -6.5 39t-15.5 30.5t-27 24t-32 18t-40 14t-41.5 11t-46.5 10t-45 9.5q-84 14 -145 37q-217 -58 -217 -219q0 -85 66.5 -135t207.5 -50zM557 1274q161 0 213 156h18q-4 -42 -19 -84.5
t-42.5 -83.5t-75.5 -67t-108 -26q-59 0 -102.5 26t-64.5 67t-29.5 84t-4.5 84h16q13 -75 65 -115.5t134 -40.5z" />
    <glyph glyph-name="Gdotaccent" unicode="&#x120;" horiz-adv-x="1286" 
d="M1253 668q-41 -70 -62 -133.5t-42 -178.5l-31 -174q-4 -3 -48 -38.5t-63 -49t-69 -43.5t-89.5 -43.5t-99.5 -26t-122 -12.5q-254 0 -390.5 172t-136.5 463q0 180 60 348.5t163 296t251.5 204.5t316.5 77q104 0 198.5 -29t149.5 -59l21 -322l-19 -4q-88 202 -177 287.5
t-214 85.5q-130 0 -240.5 -81.5t-182 -215.5t-111.5 -301.5t-40 -343.5q0 -120 19.5 -215.5t61 -169t111.5 -113t165 -39.5q169 0 261 119t110 330q8 113 -25 209v4h274v-4zM975 1778q0 -41 -30 -71t-73 -30q-41 0 -70.5 30t-29.5 71t29.5 71.5t70.5 30.5q42 0 72.5 -30
t30.5 -72z" />
    <glyph glyph-name="gdotaccent" unicode="&#x121;" horiz-adv-x="835" 
d="M242 530q0 -97 24 -142.5t82 -45.5q100 0 175 128t75 310q0 96 -25 142.5t-84 46.5q-65 0 -121.5 -58t-91 -159.5t-34.5 -221.5zM702 -137q0 -133 -132.5 -228.5t-346.5 -95.5q-162 0 -263 55.5t-101 157.5q0 68 47.5 122.5t117.5 86t156 45.5q-100 54 -100 144
q0 69 44.5 115t111.5 67q-68 35 -105 101.5t-37 146.5t36 158.5t92 137t127 94.5t140 36q73 0 132 -35l301 61l2 -2l-33 -139h-8l-230 55q92 -86 92 -217q0 -79 -36 -157.5t-92.5 -136.5t-128.5 -94t-140 -36q-39 0 -86 14q-45 -19 -62.5 -42t-17.5 -54q0 -56 60.5 -85.5
t169.5 -47.5q131 -29 184 -58q105 -58 106 -169zM266 -408q156 0 249 60.5t93 150.5q0 21 -6.5 39t-15.5 30.5t-27 24t-32 18t-40 14t-41.5 11t-46.5 10t-45 9.5q-84 14 -145 37q-217 -58 -217 -219q0 -85 66.5 -135t207.5 -50zM641 1350q0 -43 -29.5 -73t-70.5 -30
q-42 0 -72.5 30.5t-30.5 72.5q0 41 30.5 70.5t72.5 29.5q41 0 70.5 -29.5t29.5 -70.5z" />
    <glyph glyph-name="uni0122" unicode="&#x122;" horiz-adv-x="1286" 
d="M1253 668q-41 -70 -62 -133.5t-42 -178.5l-31 -174q-4 -3 -48 -38.5t-63 -49t-69 -43.5t-89.5 -43.5t-99.5 -26t-122 -12.5q-254 0 -390.5 172t-136.5 463q0 180 60 348.5t163 296t251.5 204.5t316.5 77q104 0 198.5 -29t149.5 -59l21 -322l-19 -4q-88 202 -177 287.5
t-214 85.5q-130 0 -240.5 -81.5t-182 -215.5t-111.5 -301.5t-40 -343.5q0 -120 19.5 -215.5t61 -169t111.5 -113t165 -39.5q169 0 261 119t110 330q8 113 -25 209v4h274v-4zM379 -467q58 39 94.5 85.5t36.5 82.5q0 56 -61 117v4l120 86q66 -52 66 -119q0 -52 -43 -106.5
t-94.5 -90.5t-112.5 -69z" />
    <glyph glyph-name="uni0123" unicode="&#x123;" horiz-adv-x="835" 
d="M242 530q0 -97 24 -142.5t82 -45.5q100 0 175 128t75 310q0 96 -25 142.5t-84 46.5q-65 0 -121.5 -58t-91 -159.5t-34.5 -221.5zM702 -137q0 -133 -132.5 -228.5t-346.5 -95.5q-162 0 -263 55.5t-101 157.5q0 68 47.5 122.5t117.5 86t156 45.5q-100 54 -100 144
q0 69 44.5 115t111.5 67q-68 35 -105 101.5t-37 146.5t36 158.5t92 137t127 94.5t140 36q73 0 132 -35l301 61l2 -2l-33 -139h-8l-230 55q92 -86 92 -217q0 -79 -36 -157.5t-92.5 -136.5t-128.5 -94t-140 -36q-39 0 -86 14q-45 -19 -62.5 -42t-17.5 -54q0 -56 60.5 -85.5
t169.5 -47.5q131 -29 184 -58q105 -58 106 -169zM266 -408q156 0 249 60.5t93 150.5q0 21 -6.5 39t-15.5 30.5t-27 24t-32 18t-40 14t-41.5 11t-46.5 10t-45 9.5q-84 14 -145 37q-217 -58 -217 -219q0 -85 66.5 -135t207.5 -50zM707 1571q-58 -39 -95 -85.5t-37 -82.5
q0 -55 62 -117v-4l-121 -86q-65 52 -65 119q0 39 23.5 79.5t63 75t79 61.5t83.5 50z" />
    <glyph glyph-name="Hcircumflex" unicode="&#x124;" horiz-adv-x="1236" 
d="M31 4q42 71 62.5 132t41.5 173l156 881q17 110 15.5 172t-23.5 133l-2 4h276v-4q-42 -66 -63.5 -129.5t-42.5 -175.5l-70 -395h580l69 395q20 109 18.5 172.5t-26.5 132.5v4h276v-4q-43 -68 -64 -129t-42 -176l-156 -881q-18 -117 -14.5 -172t25.5 -133v-4h-275v4
q43 72 64 133t41 172l77 445h-579l-78 -445q-19 -114 -16.5 -171.5t24.5 -133.5v-4h-274v4zM850 1774l-330 -172l-10 16l354 317h10l224 -317l-17 -16z" />
    <glyph glyph-name="hcircumflex" unicode="&#x125;" horiz-adv-x="976" 
d="M739 705q20 75 2 129.5t-75 54.5q-87 0 -188 -134t-228 -421l-12 -60q-13 -66 -18.5 -105t-4.5 -82.5t12 -82.5v-4h-223v4q36 62 58.5 139.5t50.5 212.5l188 881q25 97 17 160.5t-56 109.5v4l258 84l-248 -1126q63 154 135.5 271t160.5 191.5t175 74.5q93 0 131.5 -78
t8.5 -221l-95 -447q-6 -32 -9 -47t-7.5 -40t-5 -36.5t-1 -29.5t2 -26t7 -20t12 -17l18 -12t24 -10.5t31.5 -5.5v-4l-276 -30zM723 1815l-330 -173l-10 17l354 317h11l223 -317l-17 -17z" />
    <glyph glyph-name="Hbar" unicode="&#x126;" horiz-adv-x="1277" 
d="M51 4q43 72 64 133t41 172l143 813h-197l9 37h194l6 31q17 110 15.5 172t-23.5 133l-2 4h277v-4q-42 -67 -64.5 -130.5t-42.5 -174.5l-6 -31h579l7 31q20 109 18 172t-27 133v4h277v-4q-44 -68 -65.5 -129.5t-41.5 -175.5l-6 -31h199l-8 -37h-197l-143 -813
q-18 -116 -15 -172t25 -133v-4h-274v4q42 71 62.5 132t41.5 173l78 445h-580l-78 -445q-19 -115 -16 -171.5t25 -133.5v-4h-275v4zM981 795l57 327h-579l-58 -327h580z" />
    <glyph glyph-name="hbar" unicode="&#x127;" horiz-adv-x="976" 
d="M739 705q20 75 2 129.5t-75 54.5q-87 0 -188 -134t-228 -421l-12 -60q-13 -66 -18.5 -105t-4.5 -82.5t12 -82.5v-4h-223v4q36 62 58.5 139.5t50.5 212.5l176 830h-139l8 39h139l4 12q25 97 17 160.5t-56 109.5v4l258 84l-82 -370h338l-8 -39h-338l-158 -717
q63 154 135.5 271t160.5 191.5t175 74.5q93 0 131.5 -78t8.5 -221l-95 -447q-6 -32 -9 -47t-7.5 -40t-5 -36.5t-1 -29.5t2 -26t7 -20t12 -17l18 -12t24 -10.5t31.5 -5.5v-4l-276 -30z" />
    <glyph glyph-name="Itilde" unicode="&#x128;" horiz-adv-x="495" 
d="M29 0v4q43 72 64.5 133.5t41.5 171.5l158 881q17 110 15.5 172t-23.5 133v4h274v-4q-43 -68 -64 -129t-42 -176l-158 -881q-19 -114 -16.5 -171.5t24.5 -133.5v-4h-274zM342 1843q46 0 93 -23.5l94 -47t92 -23.5q51 0 84.5 28.5t66.5 96.5l16 -2q-9 -35 -17.5 -61
t-26.5 -62t-40 -59.5t-57 -40.5t-78 -17q-57 0 -142.5 47t-139.5 47q-50 0 -87 -29t-67 -95l-16 2q7 40 21.5 77t39.5 76t67.5 62.5t96.5 23.5z" />
    <glyph glyph-name="itilde" unicode="&#x129;" horiz-adv-x="415" 
d="M10 4q37 67 59 142t50 210l61 301q40 182 -49 271v4l272 84l-137 -654q-32 -148 -38.5 -223t8.5 -135v-4h-226v4zM258 1389q47 0 125.5 -34t124.5 -34q48 0 77 23.5t50 72.5l16 -2q-6 -26 -14 -51t-24 -55t-36 -52.5t-51 -37.5t-67 -15q-46 0 -126 34t-126 34
q-49 0 -79.5 -23.5t-51.5 -72.5l-17 2q6 26 14 50.5t24.5 55t37 53t52.5 37.5t71 15z" />
    <glyph glyph-name="Imacron" unicode="&#x12a;" horiz-adv-x="495" 
d="M29 0v4q43 72 64.5 133.5t41.5 171.5l158 881q17 110 15.5 172t-23.5 133v4h274v-4q-43 -68 -64 -129t-42 -176l-158 -881q-19 -114 -16.5 -171.5t24.5 -133.5v-4h-274zM203 1796h536l-18 -84h-537z" />
    <glyph glyph-name="imacron" unicode="&#x12b;" horiz-adv-x="415" 
d="M172 1321h371l-19 -86h-368zM10 4q37 67 59 142t50 210l61 301q40 182 -49 271v4l272 84l-137 -654q-32 -148 -38.5 -223t8.5 -135v-4h-226v4z" />
    <glyph glyph-name="Ibreve" unicode="&#x12c;" horiz-adv-x="495" 
d="M29 0v4q43 72 64.5 133.5t41.5 171.5l158 881q17 110 15.5 172t-23.5 133v4h274v-4q-43 -68 -64 -129t-42 -176l-158 -881q-19 -114 -16.5 -171.5t24.5 -133.5v-4h-274zM467 1751q191 0 252 162h16q-5 -35 -16.5 -69.5t-34 -72.5t-53 -67t-77.5 -47.5t-103 -18.5
q-55 0 -98.5 19t-68.5 48t-41 66.5t-21 72.5t-3 69h17q37 -162 231 -162z" />
    <glyph glyph-name="ibreve" unicode="&#x12d;" horiz-adv-x="415" 
d="M10 4q37 67 59 142t50 210l61 301q40 182 -49 271v4l272 84l-137 -654q-32 -148 -38.5 -223t8.5 -135v-4h-226v4zM371 1274q161 0 213 156h18q-4 -42 -19.5 -84.5t-43 -83.5t-75.5 -67t-108 -26q-59 0 -102 26t-64.5 67t-29.5 84t-4 84h16q13 -75 65 -115.5t134 -40.5z
" />
    <glyph glyph-name="Iogonek" unicode="&#x12e;" horiz-adv-x="495" 
d="M29 0v4q43 72 64.5 133.5t41.5 171.5l158 881q17 110 15.5 172t-23.5 133v4h274v-4q-43 -68 -64 -129t-42 -176l-158 -881q-19 -114 -16.5 -171.5t24.5 -133.5v-4h-59q-54 -25 -97 -68q-112 -107 -112 -231q0 -104 96 -104q93 0 168 108l12 -12q-21 -40 -42.5 -70.5
t-52.5 -61.5t-71.5 -48t-87.5 -17q-70 0 -110.5 39.5t-40.5 110.5q0 102 82 200q80 95 207 154h-166z" />
    <glyph glyph-name="iogonek" unicode="&#x12f;" horiz-adv-x="415" 
d="M8 4q28 43 49 101.5t30.5 101.5t31.5 149l61 301q41 189 -41 271v4l256 84l-141 -705q-18 -82 -25.5 -130t-7 -92.5t11.5 -84.5v-4h-20q-52 -24 -96 -68q-113 -107 -113 -231q0 -104 96 -104q93 0 168 108l13 -12q-21 -40 -42.5 -70.5t-52.5 -61.5t-71.5 -48t-87.5 -17
q-70 0 -111 39.5t-41 110.5q0 102 82 200q80 95 207 154h-156v4zM471 1350q0 -43 -29.5 -73t-70.5 -30q-42 0 -72.5 30.5t-30.5 72.5q0 41 30.5 70.5t72.5 29.5q41 0 70.5 -29.5t29.5 -70.5z" />
    <glyph glyph-name="Idotaccent" unicode="&#x130;" horiz-adv-x="495" 
d="M29 0v4q43 72 64.5 133.5t41.5 171.5l158 881q17 110 15.5 172t-23.5 133v4h274v-4q-43 -68 -64 -129t-42 -176l-158 -881q-19 -114 -16.5 -171.5t24.5 -133.5v-4h-274zM567 1778q0 -42 -29.5 -71.5t-72.5 -29.5q-41 0 -70.5 30t-29.5 71t29.5 71.5t70.5 30.5
q42 0 72 -30t30 -72z" />
    <glyph glyph-name="dotlessi" unicode="&#x131;" horiz-adv-x="421" 
d="M10 4q37 67 59 142t50 210l61 301q40 182 -49 271v4l272 84l-137 -654q-32 -148 -38.5 -223t8.5 -135v-4h-226v4z" />
    <glyph glyph-name="IJ" unicode="&#x132;" horiz-adv-x="1171" 
d="M29 0v4q43 72 64.5 133.5t41.5 171.5l158 881q17 110 15.5 172t-23.5 133v4h274v-4q-43 -68 -64 -129t-42 -176l-158 -881q-19 -114 -16.5 -171.5t24.5 -133.5v-4h-274zM979 295q-29 -164 -108 -245t-199 -81q-93 0 -176 47l22 287l19 4q48 -165 79.5 -231t75.5 -66
q77 0 107 168l178 1012q18 108 17 172.5t-25 132.5v4h274v-4q-42 -64 -62 -125.5t-42 -179.5z" />
    <glyph glyph-name="ij" unicode="&#x133;" horiz-adv-x="821" 
d="M471 1350q0 -43 -29.5 -73t-70.5 -30q-42 0 -72.5 30.5t-30.5 72.5q0 41 30.5 70.5t72.5 29.5q41 0 70.5 -29.5t29.5 -70.5zM8 4q28 43 49 101.5t30.5 101.5t31.5 149l61 301q41 189 -41 271v4l256 84l-141 -705q-18 -82 -25.5 -130t-7 -92.5t11.5 -84.5v-4h-225v4z
M885 1350q0 -43 -30 -73t-73 -30q-41 0 -70.5 30t-29.5 73q0 41 29.5 70.5t70.5 29.5q43 0 73 -29.5t30 -70.5zM268 -430q111 74 158 274l168 813q41 189 -41 271v4l254 84l-221 -1073q-36 -168 -121 -266.5t-195 -116.5z" />
    <glyph glyph-name="Jcircumflex" unicode="&#x134;" horiz-adv-x="684" 
d="M492 295q-29 -164 -108.5 -245t-199.5 -81q-93 0 -176 47l23 287l18 4q47 -164 79.5 -230.5t76.5 -66.5q76 0 106 168l178 1012q18 108 17 172.5t-25 132.5v4h275v-4q-42 -65 -63 -127t-42 -178zM672 1774l-330 -172l-10 16l354 317h10l224 -317l-17 -16z" />
    <glyph glyph-name="jcircumflex" unicode="&#x135;" horiz-adv-x="401" 
d="M-156 -430q118 79 158 274l168 813q41 189 -41 271v4l264 84l-233 -1073q-37 -170 -120 -267.5t-194 -115.5zM358 1303l-288 -197l-13 16l322 351h8l182 -351l-18 -16z" />
    <glyph glyph-name="uni0136" unicode="&#x136;" horiz-adv-x="1064" 
d="M29 4q43 72 64.5 133.5t41.5 171.5l158 881q17 110 15.5 172t-23.5 133v4h276l-2 -4q-43 -68 -64 -129t-42 -176l-158 -881q-19 -114 -16.5 -171.5t24.5 -133.5v-4h-274v4zM770 0l-375 739l418 482q89 100 115.5 159.5t1.5 114.5v4h262v-4q-103 -58 -170 -116.5
t-148 -153.5l-346 -394l308 -608q38 -80 72.5 -125.5t97.5 -93.5v-4h-236zM328 -467q58 39 94.5 85.5t36.5 82.5q0 55 -62 117v4l121 86q66 -52 66 -119q0 -52 -43 -106.5t-94.5 -90.5t-112.5 -69z" />
    <glyph glyph-name="uni0137" unicode="&#x137;" horiz-adv-x="862" 
d="M4 0v4q38 66 59.5 139t49.5 213l186 881q25 97 17 160.5t-56 109.5v4l260 84l-270 -1271q-19 -91 -26.5 -139t-7.5 -94.5t11 -86.5v-4h-223zM311 508l295 287q111 111 64 176v4h256v-4q-82 -32 -136 -71t-153 -134l-197 -188l193 -390q41 -81 72 -120.5t81 -63.5v-4h-225
zM184 -467q58 39 94.5 85.5t36.5 82.5q0 56 -61 117v4l121 86q65 -52 65 -119q0 -52 -43 -106.5t-94.5 -90.5t-112.5 -69z" />
    <glyph glyph-name="Lacute" unicode="&#x139;" horiz-adv-x="993" 
d="M29 0v4q44 74 65.5 134t40.5 171l158 881q17 110 15.5 172t-23.5 133v4h274v-4q-43 -65 -64 -127.5t-42 -177.5l-207 -1159l280 14q44 2 88.5 21.5t81 46.5t80 73.5t75 85.5t75.5 99l14 -9l-145 -362h-766zM711 1964l73 -137l-501 -225l-11 16z" />
    <glyph glyph-name="lacute" unicode="&#x13a;" horiz-adv-x="411" 
d="M4 0v4q36 62 58.5 139.5t50.5 212.5l188 881q25 97 17 160.5t-56 109.5v4l258 84l-264 -1235q-32 -145 -38 -221t9 -135v-4h-223zM670 1964l73 -137l-501 -225l-11 16z" />
    <glyph glyph-name="uni013B" unicode="&#x13b;" horiz-adv-x="993" 
d="M29 0v4q44 74 65.5 134t40.5 171l158 881q17 110 15.5 172t-23.5 133v4h274v-4q-43 -65 -64 -127.5t-42 -177.5l-207 -1159l280 14q44 2 88.5 21.5t81 46.5t80 73.5t75 85.5t75.5 99l14 -9l-145 -362h-766zM274 -467q58 39 95 85.5t37 82.5q0 55 -62 117v4l121 86
q65 -52 65 -119q0 -39 -23.5 -79.5t-63 -75t-79 -61.5t-83.5 -50z" />
    <glyph glyph-name="uni013C" unicode="&#x13c;" horiz-adv-x="411" 
d="M4 0v4q36 62 58.5 139.5t50.5 212.5l188 881q25 97 17 160.5t-56 109.5v4l258 84l-264 -1235q-32 -145 -38 -221t9 -135v-4h-223zM-66 -467q58 39 95 85.5t37 82.5q0 55 -62 117v4l121 86q65 -52 65 -119q0 -39 -23.5 -79.5t-63 -75t-79 -61.5t-83.5 -50z" />
    <glyph glyph-name="Lcaron" unicode="&#x13d;" horiz-adv-x="993" 
d="M29 0v4q44 74 65.5 134t40.5 171l158 881q17 110 15.5 172t-23.5 133v4h274v-4q-43 -65 -64 -127.5t-42 -177.5l-207 -1159l280 14q44 2 88.5 21.5t81 46.5t80 73.5t75 85.5t75.5 99l14 -9l-145 -362h-766zM674 1499h155l-258 -416l-14 4z" />
    <glyph glyph-name="lcaron" unicode="&#x13e;" horiz-adv-x="411" 
d="M4 0v4q36 62 58.5 139.5t50.5 212.5l188 881q25 97 17 160.5t-56 109.5v4l258 84l-264 -1235q-32 -145 -38 -221t9 -135v-4h-223zM637 1587h156l-258 -416l-15 5z" />
    <glyph glyph-name="Ldot" unicode="&#x13f;" horiz-adv-x="993" 
d="M29 0v4q44 74 65.5 134t40.5 171l158 881q17 110 15.5 172t-23.5 133v4h274v-4q-43 -65 -64 -127.5t-42 -177.5l-207 -1159l280 14q44 2 88.5 21.5t81 46.5t80 73.5t75 85.5t75.5 99l14 -9l-145 -362h-766zM821 639q-47 0 -80.5 34t-33.5 81t33.5 80.5t80.5 33.5
t81 -33.5t34 -80.5t-34 -81t-81 -34z" />
    <glyph glyph-name="ldot" unicode="&#x140;" horiz-adv-x="634" 
d="M4 0v4q36 62 58.5 139.5t50.5 212.5l188 881q25 97 17 160.5t-56 109.5v4l258 84l-264 -1235q-32 -145 -38 -221t9 -135v-4h-223zM582 627q-47 0 -81 33.5t-34 80.5t34 81t81 34t80.5 -34t33.5 -81t-33.5 -80.5t-80.5 -33.5z" />
    <glyph glyph-name="Lslash" unicode="&#x141;" horiz-adv-x="1011" 
d="M49 0v4q44 75 66 135t41 170l41 232l-160 -92l6 51l162 92l108 598q17 110 15.5 172t-23.5 133v4h275v-4q-43 -66 -64.5 -128.5t-42.5 -176.5l-88 -496l420 242l-6 -51l-424 -242l-109 -612l281 14q44 2 88.5 21.5t81 46.5t80 73.5t74 85.5t75.5 99l15 -9l-146 -362h-766
z" />
    <glyph glyph-name="lslash" unicode="&#x142;" horiz-adv-x="452" 
d="M25 0v4q35 61 57.5 137.5t50.5 214.5l66 308l-154 -121v49l166 129l111 516q25 97 17 160.5t-56 109.5v4l258 84l-160 -739l156 121v-49l-168 -131l-93 -437q-32 -144 -37.5 -221t9.5 -135v-4h-223z" />
    <glyph glyph-name="Nacute" unicode="&#x143;" horiz-adv-x="1212" 
d="M358 1303l-168 -941q-23 -114 -16.5 -189t53.5 -169v-4h-227v4q49 68 75.5 124.5t37 95.5t30.5 138l146 803l-2 -4q10 62 13.5 90.5t5 68t-5.5 63.5t-21.5 52.5t-40.5 59.5v4h213l522 -1225l153 863q22 114 17 189t-47 169v4h227v-4q-71 -98 -98.5 -166.5t-48.5 -191.5
l-205 -1137l-51 -6zM1071 1964l74 -137l-502 -225l-10 16z" />
    <glyph glyph-name="nacute" unicode="&#x144;" horiz-adv-x="987" 
d="M752 705q20 75 0.5 129.5t-76.5 54.5q-175 0 -414 -555l-12 -60q-21 -95 -24 -147.5t12 -122.5v-4h-226v4q39 66 60.5 139t50.5 213l63 301q42 190 -39 271v4l256 84l-116 -537q63 152 135.5 267t160 187.5t173.5 72.5q90 0 129.5 -78.5t9.5 -220.5l-98 -447
q-34 -124 -21.5 -178.5t92.5 -65.5v-4l-276 -30zM788 1534l101 -109l-408 -317l-10 14z" />
    <glyph glyph-name="uni0145" unicode="&#x145;" horiz-adv-x="1218" 
d="M358 1303l-168 -941q-23 -114 -16.5 -189t53.5 -169v-4h-227v4q49 68 75.5 124.5t37 95.5t30.5 138l146 803l-2 -4q10 62 13.5 90.5t5 68t-5.5 63.5t-21.5 52.5t-40.5 59.5v4h213l522 -1225l153 863q22 114 17 189t-47 169v4h227v-4q-71 -98 -98.5 -166.5t-48.5 -191.5
l-205 -1137l-51 -6zM346 -467q58 39 94.5 85.5t36.5 82.5q0 56 -61 117v4l121 86q65 -52 65 -119q0 -52 -43 -106.5t-94.5 -90.5t-112.5 -69z" />
    <glyph glyph-name="uni0146" unicode="&#x146;" horiz-adv-x="987" 
d="M752 705q20 75 0.5 129.5t-76.5 54.5q-175 0 -414 -555l-12 -60q-21 -95 -24 -147.5t12 -122.5v-4h-226v4q39 66 60.5 139t50.5 213l63 301q42 190 -39 271v4l256 84l-116 -537q63 152 135.5 267t160 187.5t173.5 72.5q90 0 129.5 -78.5t9.5 -220.5l-98 -447
q-34 -124 -21.5 -178.5t92.5 -65.5v-4l-276 -30zM236 -467q58 39 94.5 85.5t36.5 82.5q0 55 -62 117v4l121 86q66 -52 66 -119q0 -52 -43 -106.5t-94.5 -90.5t-112.5 -69z" />
    <glyph glyph-name="Ncaron" unicode="&#x147;" horiz-adv-x="1212" 
d="M358 1303l-168 -941q-23 -114 -16.5 -189t53.5 -169v-4h-227v4q49 68 75.5 124.5t37 95.5t30.5 138l146 803l-2 -4q10 62 13.5 90.5t5 68t-5.5 63.5t-21.5 52.5t-40.5 59.5v4h213l522 -1225l153 863q22 114 17 189t-47 169v4h227v-4q-71 -98 -98.5 -166.5t-48.5 -191.5
l-205 -1137l-51 -6zM811 1602l-223 317l16 16l232 -172l329 172l11 -16l-355 -317h-10z" />
    <glyph glyph-name="ncaron" unicode="&#x148;" horiz-adv-x="987" 
d="M752 705q20 75 0.5 129.5t-76.5 54.5q-175 0 -414 -555l-12 -60q-21 -95 -24 -147.5t12 -122.5v-4h-226v4q39 66 60.5 139t50.5 213l63 301q42 190 -39 271v4l256 84l-116 -537q63 152 135.5 267t160 187.5t173.5 72.5q90 0 129.5 -78.5t9.5 -220.5l-98 -447
q-34 -124 -21.5 -178.5t92.5 -65.5v-4l-276 -30zM598 1106l-182 350l18 17l193 -197l288 197l13 -17l-322 -350h-8z" />
    <glyph glyph-name="napostrophe" unicode="&#x149;" horiz-adv-x="987" 
d="M752 705q20 75 0.5 129.5t-76.5 54.5q-175 0 -414 -555l-12 -60q-21 -95 -24 -147.5t12 -122.5v-4h-226v4q39 66 60.5 139t50.5 213l63 301q42 190 -39 271v4l256 84l-116 -537q63 152 135.5 267t160 187.5t173.5 72.5q90 0 129.5 -78.5t9.5 -220.5l-98 -447
q-34 -124 -21.5 -178.5t92.5 -65.5v-4l-276 -30zM-41 1092q68 49 113 109t45 106q0 52 -70 131v4l141 104q70 -56 70 -131q0 -158 -289 -336z" />
    <glyph glyph-name="Eng" unicode="&#x14a;" horiz-adv-x="1218" 
d="M637 -461q-109 0 -186 47l20 287l18 4q21 -64 33 -97t28.5 -73.5t28.5 -59t28 -37t33.5 -24.5t39.5 -6q65 0 126.5 58.5t88.5 187.5l31 172l-6 -4l-562 1309l-168 -941q-23 -114 -16.5 -189t53.5 -169v-4h-237v4q71 100 99 167t54 191l146 803l-2 -4q23 121 13 191
t-71 143v4h222l524 -1225l151 863q22 114 17 189t-47 169v4h231v-4q-73 -102 -102 -170.5t-49 -187.5l-234 -1301q-28 -144 -99.5 -220.5t-205.5 -76.5z" />
    <glyph glyph-name="eng" unicode="&#x14b;" horiz-adv-x="962" 
d="M412 -430q117 78 157 274l183 861q20 75 0.5 129.5t-76.5 54.5q-175 0 -414 -555l-12 -60q-21 -95 -24 -147.5t12 -122.5v-4h-226v4q39 66 60.5 139t50.5 213l63 301q42 190 -39 271v4l256 84l-116 -539q63 151 136 266.5t160.5 189t172.5 73.5q90 0 129 -78t10 -221
l-168 -764q-37 -170 -119.5 -267.5t-193.5 -115.5z" />
    <glyph glyph-name="Omacron" unicode="&#x14c;" horiz-adv-x="1368" 
d="M1360 905q0 -181 -62.5 -353.5t-165 -300t-242.5 -205t-288 -77.5t-262.5 79.5t-177 221.5t-62.5 324q0 181 62.5 353.5t165 300t242.5 205t288 77.5t262.5 -79.5t177 -221.5t62.5 -324zM276 528q0 -237 86 -377.5t252 -140.5q104 0 195.5 55.5t158.5 150t116 217
t73.5 260.5t24.5 278q0 238 -85 378t-251 140q-128 0 -237.5 -85t-181 -222.5t-111.5 -308t-40 -345.5zM639 1796h537l-19 -84h-536z" />
    <glyph glyph-name="omacron" unicode="&#x14d;" horiz-adv-x="870" 
d="M834 643q0 -165 -72.5 -322t-190 -254.5t-241.5 -97.5q-136 0 -214.5 96.5t-78.5 266.5q0 165 72.5 322t190 254.5t241.5 97.5q136 0 214.5 -96.5t78.5 -266.5zM190 279q0 -273 146 -273q65 0 127.5 53.5t110.5 144.5t77 220t29 270q0 275 -145 275q-89 0 -168.5 -90.5
t-128 -251t-48.5 -348.5zM336 1321h495l-18 -86h-496z" />
    <glyph glyph-name="Obreve" unicode="&#x14e;" horiz-adv-x="1368" 
d="M1360 905q0 -181 -62.5 -353.5t-165 -300t-242.5 -205t-288 -77.5t-262.5 79.5t-177 221.5t-62.5 324q0 181 62.5 353.5t165 300t242.5 205t288 77.5t262.5 -79.5t177 -221.5t62.5 -324zM276 528q0 -237 86 -377.5t252 -140.5q104 0 195.5 55.5t158.5 150t116 217
t73.5 260.5t24.5 278q0 238 -85 378t-251 140q-128 0 -237.5 -85t-181 -222.5t-111.5 -308t-40 -345.5zM903 1751q191 0 252 162h16q-5 -35 -16.5 -69.5t-34 -72.5t-53 -67t-77.5 -47.5t-103 -18.5q-55 0 -98.5 19t-68.5 48t-41 66.5t-21 72.5t-3 69h17q37 -162 231 -162z
" />
    <glyph glyph-name="obreve" unicode="&#x14f;" horiz-adv-x="870" 
d="M834 643q0 -165 -72.5 -322t-190 -254.5t-241.5 -97.5q-136 0 -214.5 96.5t-78.5 266.5q0 165 72.5 322t190 254.5t241.5 97.5q136 0 214.5 -96.5t78.5 -266.5zM190 279q0 -273 146 -273q65 0 127.5 53.5t110.5 144.5t77 220t29 270q0 275 -145 275q-89 0 -168.5 -90.5
t-128 -251t-48.5 -348.5zM575 1274q161 0 213 156h19q-4 -42 -19.5 -84.5t-43 -83.5t-75.5 -67t-108 -26q-59 0 -102.5 26t-64.5 67t-29.5 84t-4.5 84h17q14 -75 65 -115.5t133 -40.5z" />
    <glyph glyph-name="Ohungarumlaut" unicode="&#x150;" horiz-adv-x="1368" 
d="M1360 905q0 -181 -62.5 -353.5t-165 -300t-242.5 -205t-288 -77.5t-262.5 79.5t-177 221.5t-62.5 324q0 181 62.5 353.5t165 300t242.5 205t288 77.5t262.5 -79.5t177 -221.5t62.5 -324zM276 528q0 -237 86 -377.5t252 -140.5q104 0 195.5 55.5t158.5 150t116 217
t73.5 260.5t24.5 278q0 238 -85 378t-251 140q-128 0 -237.5 -85t-181 -222.5t-111.5 -308t-40 -345.5zM1214 1944l97 -115l-338 -227l-10 14zM877 1944l96 -115l-336 -227l-12 14z" />
    <glyph glyph-name="ohungarumlaut" unicode="&#x151;" horiz-adv-x="870" 
d="M834 643q0 -165 -72.5 -322t-190 -254.5t-241.5 -97.5q-136 0 -214.5 96.5t-78.5 266.5q0 165 72.5 322t190 254.5t241.5 97.5q136 0 214.5 -96.5t78.5 -266.5zM190 279q0 -273 146 -273q65 0 127.5 53.5t110.5 144.5t77 220t29 270q0 275 -145 275q-89 0 -168.5 -90.5
t-128 -251t-48.5 -348.5zM866 1493l99 -86l-289 -289l-19 15zM578 1493l98 -86l-289 -289l-18 15z" />
    <glyph glyph-name="OE" unicode="&#x152;" horiz-adv-x="1755" 
d="M1020 1245q19 108 -10 223l-97 -2q-129 -3 -236 -54.5t-180.5 -136t-124 -197.5t-73.5 -237t-23 -257q0 -545 406 -545h86q56 114 76 223zM1556 0h-907q-272 0 -410.5 152.5t-138.5 451.5q0 253 100 456t287.5 321t430.5 118h792l23 -321l-19 -4q-68 141 -121.5 209
t-117.5 69l-252 6l-123 -684h157q17 0 34 5.5t35 19t31.5 25t32.5 34t28.5 34t29 38t25.5 33.5h16l-68 -408h-18q-4 9 -16 35t-17.5 37t-17 32t-20.5 30.5t-22 21.5t-27.5 17t-31.5 5h-159l-125 -698l301 10q52 2 98 21t98.5 68.5t80 80.5t93.5 112q7 9 11 13.5t10.5 12.5
t11.5 14l19 -9z" />
    <glyph glyph-name="oe" unicode="&#x153;" horiz-adv-x="1380" 
d="M1180 969q-97 0 -189 -90.5t-141 -237.5q104 12 182.5 34.5t122.5 46.5t71 54t35.5 54.5t8.5 50.5q0 88 -90 88zM190 279q0 -273 146 -273q65 0 127.5 53.5t110.5 144.5t77 220t29 270q0 275 -145 275q-89 0 -168.5 -90.5t-128 -251t-48.5 -348.5zM926 -29
q-96 0 -160.5 59t-89.5 165q-71 -105 -161.5 -165.5t-186.5 -60.5q-135 0 -213 96.5t-78 266.5q0 165 72.5 322t190 254.5t241.5 97.5q102 0 170.5 -62.5t93.5 -175.5q78 110 180 174t215 64q49 0 91.5 -12.5t74 -46t31.5 -83.5t-29 -92.5t-91.5 -78t-173.5 -55.5t-261 -20
q-35 -116 -35 -237q0 -156 54 -225.5t143 -69.5q144 0 251 168l15 -10q-54 -129 -144.5 -201t-199.5 -72z" />
    <glyph glyph-name="Racute" unicode="&#x154;" horiz-adv-x="1067" 
d="M31 4q40 69 61 132t43 179l158 871q17 110 15.5 173.5t-23.5 135.5v4h393q371 0 371 -317q0 -158 -93.5 -275.5t-242.5 -158.5l129 -504q29 -105 61.5 -153t93.5 -83v-8h-262l-182 723h-184l-74 -410q-19 -115 -16.5 -175t24.5 -134v-4h-272v4zM645 1458h-70
q-48 0 -75 -2l-123 -692h172q81 0 144.5 36.5t102 98t58.5 136.5t20 157q0 133 -55 199.5t-174 66.5zM936 1964l74 -137l-502 -225l-10 16z" />
    <glyph glyph-name="racute" unicode="&#x155;" horiz-adv-x="653" 
d="M12 4q38 63 60 138t51 214l63 301q42 190 -39 271v4l254 84l-118 -543q99 250 208 391.5t234 141.5l-74 -199h-6l-20 8q-12 4 -25 4q-82 0 -154 -107.5t-184 -379.5l-12 -58q-21 -92 -24.5 -147.5t12.5 -122.5v-4h-226v4zM672 1534l100 -109l-407 -317l-11 14z" />
    <glyph glyph-name="uni0156" unicode="&#x156;" horiz-adv-x="1067" 
d="M31 4q40 69 61 132t43 179l158 871q17 110 15.5 173.5t-23.5 135.5v4h393q371 0 371 -317q0 -158 -93.5 -275.5t-242.5 -158.5l129 -504q29 -105 61.5 -153t93.5 -83v-8h-262l-182 723h-184l-74 -410q-19 -115 -16.5 -175t24.5 -134v-4h-272v4zM645 1458h-70
q-48 0 -75 -2l-123 -692h172q81 0 144.5 36.5t102 98t58.5 136.5t20 157q0 133 -55 199.5t-174 66.5zM336 -467q58 39 94.5 85.5t36.5 82.5q0 56 -61 117v4l120 86q66 -52 66 -119q0 -52 -43 -106.5t-94.5 -90.5t-112.5 -69z" />
    <glyph glyph-name="uni0157" unicode="&#x157;" horiz-adv-x="653" 
d="M12 4q38 63 60 138t51 214l63 301q42 190 -39 271v4l254 84l-118 -543q99 250 208 391.5t234 141.5l-74 -199h-6l-20 8q-12 4 -25 4q-82 0 -154 -107.5t-184 -379.5l-12 -58q-21 -92 -24.5 -147.5t12.5 -122.5v-4h-226v4zM-55 -467q58 39 94.5 85.5t36.5 82.5
q0 55 -62 117v4l121 86q66 -52 66 -119q0 -52 -43 -106.5t-94.5 -90.5t-112.5 -69z" />
    <glyph glyph-name="Rcaron" unicode="&#x158;" horiz-adv-x="1067" 
d="M31 4q40 69 61 132t43 179l158 871q17 110 15.5 173.5t-23.5 135.5v4h393q371 0 371 -317q0 -158 -93.5 -275.5t-242.5 -158.5l129 -504q29 -105 61.5 -153t93.5 -83v-8h-262l-182 723h-184l-74 -410q-19 -115 -16.5 -175t24.5 -134v-4h-272v4zM645 1458h-70
q-48 0 -75 -2l-123 -692h172q81 0 144.5 36.5t102 98t58.5 136.5t20 157q0 133 -55 199.5t-174 66.5zM672 1602l-223 317l16 16l231 -172l330 172l10 -16l-354 -317h-10z" />
    <glyph glyph-name="rcaron" unicode="&#x159;" horiz-adv-x="653" 
d="M12 4q38 63 60 138t51 214l63 301q42 190 -39 271v4l254 84l-118 -543q99 250 208 391.5t234 141.5l-74 -199h-6l-20 8q-12 4 -25 4q-82 0 -154 -107.5t-184 -379.5l-12 -58q-21 -92 -24.5 -147.5t12.5 -122.5v-4h-226v4zM492 1106l-183 350l19 17l192 -197l289 197
l12 -17l-321 -350h-8z" />
    <glyph glyph-name="Sacute" unicode="&#x15a;" 
d="M934 1133l-19 -5q-65 202 -138.5 281.5t-166.5 79.5q-107 0 -174 -75t-67 -189q0 -55 15.5 -104t51.5 -98.5t62.5 -78.5t80.5 -83l19 -19q53 -53 86 -92t70 -95.5t55 -121.5t18 -138q0 -201 -126.5 -313.5t-325.5 -112.5q-90 0 -178.5 22t-151.5 58l-14 365l18 4
q76 -220 163.5 -314t203.5 -94q84 0 147.5 45.5t95 118t31.5 158.5q0 62 -17.5 117t-55 106.5t-68.5 84.5t-86 85l-82 86q-143 150 -143 330q0 125 59 215t150.5 132t201.5 42q153 0 275 -66zM911 1964l74 -137l-502 -225l-10 16z" />
    <glyph glyph-name="sacute" unicode="&#x15b;" horiz-adv-x="657" 
d="M616 743l-14 -4q-59 126 -110.5 178t-112.5 52t-97 -43.5t-36 -106.5q0 -42 17.5 -80.5t45.5 -69.5t62.5 -63t68.5 -67t62 -73t45.5 -89.5t17.5 -110.5q0 -138 -86.5 -217.5t-218.5 -79.5q-72 0 -136.5 19t-100.5 49l-9 260l15 4q119 -295 266 -295q68 0 113 48.5
t45 131.5q0 63 -32.5 118t-78.5 98.5t-92 89t-78.5 109t-32.5 138.5q0 128 82.5 197.5t204.5 69.5q108 0 188 -37zM616 1534l101 -109l-408 -317l-10 14z" />
    <glyph glyph-name="Scircumflex" unicode="&#x15c;" 
d="M934 1133l-19 -5q-65 202 -138.5 281.5t-166.5 79.5q-107 0 -174 -75t-67 -189q0 -55 15.5 -104t51.5 -98.5t62.5 -78.5t80.5 -83l19 -19q53 -53 86 -92t70 -95.5t55 -121.5t18 -138q0 -201 -126.5 -313.5t-325.5 -112.5q-90 0 -178.5 22t-151.5 58l-14 365l18 4
q76 -220 163.5 -314t203.5 -94q84 0 147.5 45.5t95 118t31.5 158.5q0 62 -17.5 117t-55 106.5t-68.5 84.5t-86 85l-82 86q-143 150 -143 330q0 125 59 215t150.5 132t201.5 42q153 0 275 -66zM674 1774l-330 -172l-10 16l354 317h10l224 -317l-17 -16z" />
    <glyph glyph-name="scircumflex" unicode="&#x15d;" horiz-adv-x="657" 
d="M616 743l-14 -4q-59 126 -110.5 178t-112.5 52t-97 -43.5t-36 -106.5q0 -42 17.5 -80.5t45.5 -69.5t62.5 -63t68.5 -67t62 -73t45.5 -89.5t17.5 -110.5q0 -138 -86.5 -217.5t-218.5 -79.5q-72 0 -136.5 19t-100.5 49l-9 260l15 4q119 -295 266 -295q68 0 113 48.5
t45 131.5q0 63 -32.5 118t-78.5 98.5t-92 89t-78.5 109t-32.5 138.5q0 128 82.5 197.5t204.5 69.5q108 0 188 -37zM451 1303l-289 -197l-12 16l321 351h8l183 -351l-19 -16z" />
    <glyph glyph-name="uni015E" unicode="&#x15e;" 
d="M109 -506q107 28 173 78.5t66 118.5q0 24 -10 42t-22 27.5t-32.5 17t-32.5 9.5t-31 5q-5 1 -7 1l-2 4l133 172q-66 3 -149 23q-84 20 -150 57l-14 365l18 4q76 -220 163.5 -314t203.5 -94q84 0 147.5 45.5t95 118t31.5 158.5q0 62 -17.5 117t-55 106.5t-68.5 84.5t-86 85
l-82 86q-143 150 -143 330q0 125 59 215t150.5 132t201.5 42q153 0 275 -66l10 -331l-19 -5q-65 202 -138.5 281.5t-166.5 79.5q-107 0 -174 -75t-67 -189q0 -55 15.5 -104t51.5 -98.5t62.5 -78.5t80.5 -83l19 -19q53 -53 86 -92t70 -95.5t55 -121.5t18 -138
q0 -151 -73.5 -253.5t-200.5 -143.5q-80 -26 -158 -29l-71 -90q66 -18 100.5 -52.5t34.5 -94.5q0 -101 -94.5 -167t-253.5 -87z" />
    <glyph glyph-name="uni015F" unicode="&#x15f;" horiz-adv-x="657" 
d="M-20 -506q107 28 173 78.5t66 118.5q0 81 -111 99q-6 0 -17 2l-7 1l-2 4l133 174q-43 3 -94 19q-59 16 -98 47l-9 260l15 4q119 -295 266 -295q68 0 113 48.5t45 131.5q0 63 -32.5 118t-78.5 98.5t-92 89t-78.5 109t-32.5 138.5q0 128 82.5 197.5t204.5 69.5
q108 0 188 -37l2 -226l-14 -4q-59 126 -110.5 178t-112.5 52t-97 -43.5t-36 -106.5q0 -42 17.5 -80.5t45.5 -69.5t62.5 -63t68.5 -67t62 -73t45.5 -89.5t17.5 -110.5q0 -105 -50 -176t-136 -100q-52 -18 -113 -21l-71 -90q66 -18 100.5 -52.5t34.5 -94.5q0 -101 -94.5 -167
t-253.5 -87z" />
    <glyph glyph-name="Scaron" unicode="&#x160;" 
d="M934 1133l-19 -5q-65 202 -138.5 281.5t-166.5 79.5q-107 0 -174 -75t-67 -189q0 -55 15.5 -104t51.5 -98.5t62.5 -78.5t80.5 -83l19 -19q53 -53 86 -92t70 -95.5t55 -121.5t18 -138q0 -201 -126.5 -313.5t-325.5 -112.5q-90 0 -178.5 22t-151.5 58l-14 365l18 4
q76 -220 163.5 -314t203.5 -94q84 0 147.5 45.5t95 118t31.5 158.5q0 62 -17.5 117t-55 106.5t-68.5 84.5t-86 85l-82 86q-143 150 -143 330q0 125 59 215t150.5 132t201.5 42q153 0 275 -66zM664 1602l-224 317l17 16l231 -172l330 172l10 -16l-354 -317h-10z" />
    <glyph glyph-name="scaron" unicode="&#x161;" horiz-adv-x="657" 
d="M616 743l-14 -4q-59 126 -110.5 178t-112.5 52t-97 -43.5t-36 -106.5q0 -42 17.5 -80.5t45.5 -69.5t62.5 -63t68.5 -67t62 -73t45.5 -89.5t17.5 -110.5q0 -138 -86.5 -217.5t-218.5 -79.5q-72 0 -136.5 19t-100.5 49l-9 260l15 4q119 -295 266 -295q68 0 113 48.5
t45 131.5q0 63 -32.5 118t-78.5 98.5t-92 89t-78.5 109t-32.5 138.5q0 128 82.5 197.5t204.5 69.5q108 0 188 -37zM416 1106l-183 350l19 17l192 -197l289 197l12 -17l-321 -350h-8z" />
    <glyph glyph-name="Tcommaaccent" unicode="&#x162;" horiz-adv-x="1171" 
d="M360 0v4q41 71 63 134t42 171l209 1155l-180 -8q-69 -4 -141.5 -82t-198.5 -258l-19 8l129 375h989l-4 -379l-18 -4q-60 177 -103.5 257t-95.5 81l-198 8l-207 -1153q-19 -114 -16.5 -172.5t24.5 -132.5v-4h-275zM309 -467q58 39 94.5 85.5t36.5 82.5q0 56 -61 117v4
l121 86q65 -52 65 -119q0 -52 -43 -106.5t-94.5 -90.5t-112.5 -69z" />
    <glyph glyph-name="tcommaaccent" unicode="&#x163;" horiz-adv-x="591" 
d="M207 -31q-42 0 -70.5 21t-43.5 73t5 140l158 733h-111v10l291 211h10l-38 -182h239l-8 -39h-240l-157 -731q-30 -129 41 -129q45 0 100.5 49.5t89.5 103.5l19 -12q-62 -117 -136.5 -182.5t-148.5 -65.5zM47 -467q58 39 94.5 85.5t36.5 82.5q0 56 -61 117v4l121 86
q65 -52 65 -119q0 -52 -43 -106.5t-94.5 -90.5t-112.5 -69z" />
    <glyph glyph-name="Tcaron" unicode="&#x164;" horiz-adv-x="1171" 
d="M360 0v4q41 71 63 134t42 171l209 1155l-180 -8q-69 -4 -141.5 -82t-198.5 -258l-19 8l129 375h989l-4 -379l-18 -4q-60 177 -103.5 257t-95.5 81l-198 8l-207 -1153q-19 -114 -16.5 -172.5t24.5 -132.5v-4h-275zM766 1602l-223 317l16 16l232 -172l329 172l10 -16
l-354 -317h-10z" />
    <glyph glyph-name="tcaron" unicode="&#x165;" horiz-adv-x="591" 
d="M207 -31q-42 0 -70.5 21t-43.5 73t5 140l158 733h-111v10l291 211h10l-38 -182h239l-8 -39h-240l-157 -731q-30 -129 41 -129q45 0 100.5 49.5t89.5 103.5l19 -12q-62 -117 -136.5 -182.5t-148.5 -65.5zM674 1587h155l-258 -416l-14 5z" />
    <glyph glyph-name="Tbar" unicode="&#x166;" horiz-adv-x="1171" 
d="M360 0v4q41 71 63 134t42 171l76 422h-301l8 41h301l125 692l-180 -8q-69 -4 -141.5 -82t-198.5 -258l-19 8l129 375h989l-4 -379l-18 -4q-60 177 -103.5 257t-95.5 81l-198 8l-125 -690h315l-8 -41h-314l-75 -422q-19 -114 -16.5 -172.5t24.5 -132.5v-4h-275z" />
    <glyph glyph-name="tbar" unicode="&#x167;" horiz-adv-x="591" 
d="M207 -31q-42 0 -70.5 21t-43.5 73t5 140l92 430h-96l6 35h97l59 268h-111v10l291 211h10l-38 -182h239l-8 -39h-240l-59 -268h252l-6 -35h-252l-92 -428q-30 -129 41 -129q45 0 100.5 49.5t89.5 103.5l19 -12q-62 -117 -136.5 -182.5t-148.5 -65.5z" />
    <glyph glyph-name="Utilde" unicode="&#x168;" horiz-adv-x="1138" 
d="M520 -31q-93 0 -170.5 29.5t-136 91.5t-78.5 158.5t2 230.5l129 711q20 109 18.5 172.5t-26.5 132.5v4h274v-4q-39 -64 -61.5 -130t-42.5 -175l-127 -705q-22 -128 -14.5 -217.5t46 -145.5t92 -81t122.5 -25q68 0 126 24.5t99 64.5t73 96.5t51.5 115.5t31.5 127l129 693
q25 119 17.5 189.5t-56.5 168.5v4h246v-4q-77 -100 -107.5 -169t-50.5 -189l-131 -693q-88 -475 -455 -475zM682 1843q46 0 93 -23.5l94 -47t92 -23.5q51 0 84.5 28.5t66.5 96.5l16 -2q-9 -35 -17.5 -61t-26.5 -62t-40 -59.5t-57 -40.5t-78 -17q-57 0 -142.5 47t-139.5 47
q-50 0 -87 -29t-67 -95l-16 2q7 40 21.5 77t39.5 76t67.5 62.5t96.5 23.5z" />
    <glyph glyph-name="utilde" unicode="&#x169;" horiz-adv-x="933" 
d="M637 412q-90 -198 -199 -320.5t-227 -122.5q-91 0 -137.5 77t-7.5 220l122 471q13 47 17 80t0 64.5t-23.5 53.5t-54.5 36v4h260l-178 -705q-24 -92 -2.5 -140t78.5 -48q95 0 202.5 152.5t212.5 427.5l29 106q44 156 -72 203v4h269l-191 -723q-9 -36 -13 -53.5t-8 -42.5
t-2.5 -37t5.5 -28.5t14 -26.5t25 -20.5t37 -20.5v-3l-269 -38zM492 1389q47 0 125 -34t124 -34q48 0 77 23.5t50 72.5l17 -2q-6 -26 -14 -51t-24.5 -55t-36.5 -52.5t-51 -37.5t-67 -15q-46 0 -126 34t-126 34q-49 0 -79.5 -23.5t-51.5 -72.5l-16 2q6 26 14 50.5t24.5 55
t37 53t52.5 37.5t71 15z" />
    <glyph glyph-name="Umacron" unicode="&#x16a;" horiz-adv-x="1138" 
d="M520 -31q-93 0 -170.5 29.5t-136 91.5t-78.5 158.5t2 230.5l129 711q20 109 18.5 172.5t-26.5 132.5v4h274v-4q-39 -64 -61.5 -130t-42.5 -175l-127 -705q-22 -128 -14.5 -217.5t46 -145.5t92 -81t122.5 -25q68 0 126 24.5t99 64.5t73 96.5t51.5 115.5t31.5 127l129 693
q25 119 17.5 189.5t-56.5 168.5v4h246v-4q-77 -100 -107.5 -169t-50.5 -189l-131 -693q-88 -475 -455 -475zM543 1796h536l-18 -84h-537z" />
    <glyph glyph-name="umacron" unicode="&#x16b;" horiz-adv-x="933" 
d="M637 412q-90 -198 -199 -320.5t-227 -122.5q-91 0 -137.5 77t-7.5 220l122 471q13 47 17 80t0 64.5t-23.5 53.5t-54.5 36v4h260l-178 -705q-24 -92 -2.5 -140t78.5 -48q95 0 202.5 152.5t212.5 427.5l29 106q44 156 -72 203v4h269l-191 -723q-9 -36 -13 -53.5t-8 -42.5
t-2.5 -37t5.5 -28.5t14 -26.5t25 -20.5t37 -20.5v-3l-269 -38zM362 1321h496l-18 -86h-496z" />
    <glyph glyph-name="Ubreve" unicode="&#x16c;" horiz-adv-x="1138" 
d="M520 -31q-93 0 -170.5 29.5t-136 91.5t-78.5 158.5t2 230.5l129 711q20 109 18.5 172.5t-26.5 132.5v4h274v-4q-39 -64 -61.5 -130t-42.5 -175l-127 -705q-22 -128 -14.5 -217.5t46 -145.5t92 -81t122.5 -25q68 0 126 24.5t99 64.5t73 96.5t51.5 115.5t31.5 127l129 693
q25 119 17.5 189.5t-56.5 168.5v4h246v-4q-77 -100 -107.5 -169t-50.5 -189l-131 -693q-88 -475 -455 -475zM807 1751q191 0 252 162h16q-5 -35 -16.5 -69.5t-34 -72.5t-53 -67t-77.5 -47.5t-103 -18.5q-55 0 -98.5 19t-68.5 48t-41 66.5t-21 72.5t-3 69h16
q37 -162 232 -162z" />
    <glyph glyph-name="ubreve" unicode="&#x16d;" horiz-adv-x="933" 
d="M637 412q-90 -198 -199 -320.5t-227 -122.5q-91 0 -137.5 77t-7.5 220l122 471q13 47 17 80t0 64.5t-23.5 53.5t-54.5 36v4h260l-178 -705q-24 -92 -2.5 -140t78.5 -48q95 0 202.5 152.5t212.5 427.5l29 106q44 156 -72 203v4h269l-191 -723q-9 -36 -13 -53.5t-8 -42.5
t-2.5 -37t5.5 -28.5t14 -26.5t25 -20.5t37 -20.5v-3l-269 -38zM604 1274q160 0 213 156h19q-4 -42 -19.5 -84.5t-43 -83.5t-75.5 -67t-108 -26q-59 0 -102.5 26t-64.5 67t-29.5 84t-4.5 84h17q14 -75 65 -115.5t133 -40.5z" />
    <glyph glyph-name="Uring" unicode="&#x16e;" horiz-adv-x="1138" 
d="M520 -31q-93 0 -170.5 29.5t-136 91.5t-78.5 158.5t2 230.5l129 711q20 109 18.5 172.5t-26.5 132.5v4h274v-4q-39 -64 -61.5 -130t-42.5 -175l-127 -705q-22 -128 -14.5 -217.5t46 -145.5t92 -81t122.5 -25q68 0 126 24.5t99 64.5t73 96.5t51.5 115.5t31.5 127l129 693
q25 119 17.5 189.5t-56.5 168.5v4h246v-4q-77 -100 -107.5 -169t-50.5 -189l-131 -693q-88 -475 -455 -475zM629 1765q0 75 50 124.5t128 49.5t128 -48t50 -126q0 -77 -51 -124.5t-127 -47.5t-127 47.5t-51 124.5zM696 1765q0 -64 29 -99.5t82 -35.5t82 35.5t29 99.5
q0 63 -29 101.5t-82 38.5t-82 -38.5t-29 -101.5z" />
    <glyph glyph-name="uring" unicode="&#x16f;" horiz-adv-x="933" 
d="M637 412q-90 -198 -199 -320.5t-227 -122.5q-91 0 -137.5 77t-7.5 220l122 471q13 47 17 80t0 64.5t-23.5 53.5t-54.5 36v4h260l-178 -705q-24 -92 -2.5 -140t78.5 -48q95 0 202.5 152.5t212.5 427.5l29 106q44 156 -72 203v4h269l-191 -723q-9 -36 -13 -53.5t-8 -42.5
t-2.5 -37t5.5 -28.5t14 -26.5t25 -20.5t37 -20.5v-3l-269 -38zM416 1313q0 75 50 124.5t128 49.5t128 -48t50 -126q0 -77 -51 -124.5t-127 -47.5t-127 47.5t-51 124.5zM483 1313q0 -64 29 -99.5t82 -35.5t82 35.5t29 99.5t-28.5 101.5t-82.5 37.5t-82.5 -37.5t-28.5 -101.5z
" />
    <glyph glyph-name="Uhungarumlaut" unicode="&#x170;" horiz-adv-x="1138" 
d="M520 -31q-93 0 -170.5 29.5t-136 91.5t-78.5 158.5t2 230.5l129 711q20 109 18.5 172.5t-26.5 132.5v4h274v-4q-39 -64 -61.5 -130t-42.5 -175l-127 -705q-22 -128 -14.5 -217.5t46 -145.5t92 -81t122.5 -25q68 0 126 24.5t99 64.5t73 96.5t51.5 115.5t31.5 127l129 693
q25 119 17.5 189.5t-56.5 168.5v4h246v-4q-77 -100 -107.5 -169t-50.5 -189l-131 -693q-88 -475 -455 -475zM1130 1944l97 -115l-338 -227l-10 14zM793 1944l96 -115l-336 -227l-12 14z" />
    <glyph glyph-name="uhungarumlaut" unicode="&#x171;" horiz-adv-x="933" 
d="M637 412q-90 -198 -199 -320.5t-227 -122.5q-91 0 -137.5 77t-7.5 220l122 471q13 47 17 80t0 64.5t-23.5 53.5t-54.5 36v4h260l-178 -705q-24 -92 -2.5 -140t78.5 -48q95 0 202.5 152.5t212.5 427.5l29 106q44 156 -72 203v4h269l-191 -723q-9 -36 -13 -53.5t-8 -42.5
t-2.5 -37t5.5 -28.5t14 -26.5t25 -20.5t37 -20.5v-3l-269 -38zM895 1493l98 -86l-288 -289l-19 15zM606 1493l99 -86l-289 -289l-19 15z" />
    <glyph glyph-name="Uogonek" unicode="&#x172;" horiz-adv-x="1138" 
d="M440 -504q-70 0 -109.5 39.5t-39.5 112.5q0 103 68 185t176 136h-23q-91 0 -167.5 30t-133.5 92.5t-76.5 158.5t2.5 229l129 711q20 109 18.5 172.5t-26.5 132.5v4h274v-4q-39 -64 -61.5 -130t-42.5 -175l-127 -705q-22 -128 -14.5 -217.5t46 -145.5t92 -81t122.5 -25
q68 0 126 24.5t99 64.5t73 96.5t51.5 115.5t31.5 127l129 693q25 119 17.5 189.5t-56.5 168.5v4h246v-4q-77 -100 -107.5 -169t-50.5 -189l-131 -693q-57 -305 -234 -417q-25 -15 -76 -35.5t-67 -28.5q-93 -46 -136.5 -115.5t-43.5 -142.5q0 -108 98 -108q91 0 166 108
l14 -12q-105 -197 -256 -197z" />
    <glyph glyph-name="uogonek" unicode="&#x173;" horiz-adv-x="933" 
d="M412 -504q-70 0 -110 39.5t-40 110.5q0 102 72.5 193.5t191.5 148.5l111 426q-43 -95 -89.5 -171.5t-100 -140t-114 -98.5t-122.5 -35q-91 0 -137.5 77t-7.5 220l122 471q13 47 17 80t0 64.5t-23.5 53.5t-54.5 36v4h260l-178 -705q-23 -92 -2 -140t78 -48
q95 0 202.5 152.5t212.5 427.5l29 106q44 156 -72 203v4h269l-191 -723q-9 -36 -13 -53.5t-8 -42.5t-2.5 -37t5.5 -28.5t14 -26.5t25 -20.5t37 -20.5v-3q-104 -10 -158 -26q-80 -23 -137.5 -74t-83 -107t-25.5 -112q0 -104 98 -104q91 0 166 108l15 -12q-105 -197 -256 -197
z" />
    <glyph glyph-name="Wcircumflex" unicode="&#x174;" horiz-adv-x="1576" 
d="M348 -16l-96 1187q-11 135 -28.5 202.5t-49.5 121.5v4h295v-4q-72 -114 -55 -326l69 -901l391 867l-2 36q-11 135 -28.5 201t-50.5 123v4h299v-4q-71 -95 -58 -326l62 -901l395 865q108 227 51 362v4h227v-4q-65 -57 -103.5 -117t-102.5 -200l-551 -1194h-51l-78 1058
l-484 -1058h-51zM1036 1774l-329 -172l-11 16l355 317h10l223 -317l-16 -16z" />
    <glyph glyph-name="wcircumflex" unicode="&#x175;" horiz-adv-x="1118" 
d="M166 715q-5 113 -20.5 162t-65.5 94v4h225l21 -721l270 457v4q0 104 -20 156.5t-70 99.5v4h229l10 -713l195 344q87 151 94.5 232t-63.5 133v4h229v-4l-567 -985h-27l-8 643l-383 -643h-25zM713 1303l-289 -197l-12 16l321 351h8l183 -351l-19 -16z" />
    <glyph glyph-name="Ycircumflex" unicode="&#x176;" horiz-adv-x="970" 
d="M248 4q53 78 76.5 138.5t44.5 164.5l69 385l-135 535q-30 108 -57.5 168t-67.5 100v4h320v-4q-33 -33 -41.5 -96.5t12.5 -157.5l119 -491l248 409q126 200 59 336v4h246v-4q-65 -65 -114.5 -127.5t-119.5 -169.5l-311 -516l-66 -375q-20 -105 -16.5 -165.5t33.5 -137.5
l-2 -4h-297v4zM745 1774l-329 -172l-10 16l354 317h10l223 -317l-16 -16z" />
    <glyph glyph-name="ycircumflex" unicode="&#x177;" horiz-adv-x="747" 
d="M-178 -291q43 0 72.5 3t77 18t86 43.5t86.5 84t92 134.5l-66 723q-12 126 -27.5 169.5t-66.5 86.5v4h219l65 -750l203 381q35 65 56 110t32.5 86.5t8 70.5t-21 53.5t-50.5 44.5v4h233v-4l-571 -1037q-52 -96 -104 -166.5t-95.5 -111.5t-92.5 -66.5t-86.5 -35t-86.5 -15.5
zM539 1303l-289 -197l-12 16l321 351h8l183 -351l-19 -16z" />
    <glyph glyph-name="Ydieresis" unicode="&#x178;" horiz-adv-x="970" 
d="M248 4q53 78 76.5 138.5t44.5 164.5l69 385l-135 535q-30 108 -57.5 168t-67.5 100v4h320v-4q-33 -33 -41.5 -96.5t12.5 -157.5l119 -491l248 409q126 200 59 336v4h246v-4q-65 -65 -114.5 -127.5t-119.5 -169.5l-311 -516l-66 -375q-20 -105 -16.5 -165.5t33.5 -137.5
l-2 -4h-297v4zM1016 1778q0 -41 -30 -71t-71 -30t-70.5 30t-29.5 71t29.5 71.5t70.5 30.5t71 -30.5t30 -71.5zM635 1778q0 -41 -30 -71t-73 -30q-41 0 -70.5 30t-29.5 71t29.5 71.5t70.5 30.5q42 0 72.5 -30t30.5 -72z" />
    <glyph glyph-name="Zacute" unicode="&#x179;" horiz-adv-x="1009" 
d="M-45 0v23l979 1441l-266 -8q-63 -3 -115.5 -20t-91 -40t-83 -69.5t-75 -86.5t-82.5 -114l-18 9l133 364h788v-22l-974 -1444l307 12q65 3 120 21.5t98 46.5t89 78.5t82.5 101.5t87.5 131l18 -6l-155 -418h-842zM967 1964l73 -137l-501 -225l-11 16z" />
    <glyph glyph-name="zacute" unicode="&#x17a;" horiz-adv-x="780" 
d="M-43 0v14l676 926l-195 -8q-72 -4 -143 -49.5t-168 -134.5l-8 4l100 223h592v-19l-674 -923l246 6q88 4 159.5 52t174.5 151l8 -4l-121 -238h-647zM711 1534l100 -109l-408 -317l-10 14z" />
    <glyph glyph-name="Zdotaccent" unicode="&#x17b;" horiz-adv-x="1009" 
d="M-45 0v23l979 1441l-266 -8q-63 -3 -115.5 -20t-91 -40t-83 -69.5t-75 -86.5t-82.5 -114l-18 9l133 364h788v-22l-974 -1444l307 12q65 3 120 21.5t98 46.5t89 78.5t82.5 101.5t87.5 131l18 -6l-155 -418h-842zM827 1778q0 -42 -29.5 -71.5t-72.5 -29.5q-41 0 -70.5 30
t-29.5 71t29.5 71.5t70.5 30.5q42 0 72 -30t30 -72z" />
    <glyph glyph-name="zdotaccent" unicode="&#x17c;" horiz-adv-x="780" 
d="M-43 0v14l676 926l-195 -8q-72 -4 -143 -49.5t-168 -134.5l-8 4l100 223h592v-19l-674 -923l246 6q88 4 159.5 52t174.5 151l8 -4l-121 -238h-647zM627 1350q0 -43 -30 -73t-71 -30q-42 0 -72 30.5t-30 72.5q0 41 30.5 70.5t71.5 29.5t71 -29.5t30 -70.5z" />
    <glyph glyph-name="Zcaron" unicode="&#x17d;" horiz-adv-x="1009" 
d="M-45 0v23l979 1441l-266 -8q-63 -3 -115.5 -20t-91 -40t-83 -69.5t-75 -86.5t-82.5 -114l-18 9l133 364h788v-22l-974 -1444l307 12q65 3 120 21.5t98 46.5t89 78.5t82.5 101.5t87.5 131l18 -6l-155 -418h-842zM707 1602l-224 317l17 16l231 -172l330 172l10 -16
l-354 -317h-10z" />
    <glyph glyph-name="zcaron" unicode="&#x17e;" horiz-adv-x="780" 
d="M-43 0v14l676 926l-195 -8q-72 -4 -143 -49.5t-168 -134.5l-8 4l100 223h592v-19l-674 -923l246 6q88 4 159.5 52t174.5 151l8 -4l-121 -238h-647zM500 1106l-183 350l19 17l192 -197l289 197l12 -17l-321 -350h-8z" />
    <glyph glyph-name="uni0192" unicode="&#x192;" horiz-adv-x="915" 
d="M-33 -389q-77 0 -123 20l-18 283l16 4q13 -26 31.5 -65t28.5 -59.5t24.5 -47.5t23.5 -41t21 -28t22.5 -19.5t22.5 -5.5q42 0 83.5 93.5t107.5 324.5l201 682h-166l12 41h166l57 196q82 276 178 408.5t238 132.5q75 0 123 -21l20 -282l-18 -4q-11 22 -25 52t-23 48
t-20.5 41.5t-19 37.5t-17.5 30t-17.5 25t-16.5 17t-17.5 11.5t-17.5 3.5q-43 0 -81 -88t-108 -326l-86 -282h213l-10 -41h-215l-180 -600q-83 -277 -176 -409t-234 -132z" />
    <glyph glyph-name="Aringacute" unicode="&#x1fa;" horiz-adv-x="1003" 
d="M588 1247l-297 -641h362zM152 0h-254v4q69 60 109 121.5t104 193.5l559 1194h49l129 -1230q11 -113 30.5 -169t59.5 -110v-4h-311v4q79 82 57 289l-27 272h-385l-92 -198q-38 -81 -52 -155t-6.5 -124.5t30.5 -83.5v-4zM530 1774q0 75 50.5 124.5t128.5 49.5t128 -48
t50 -126q0 -77 -51 -124.5t-127 -47.5t-127.5 47.5t-51.5 124.5zM598 1774q0 -64 29 -100t82 -36t81.5 36t28.5 100q0 63 -28.5 101t-81.5 38t-82 -38t-29 -101zM946 2345l74 -137l-502 -226l-10 17z" />
    <glyph glyph-name="aringacute" unicode="&#x1fb;" 
d="M631 410q-40 -94 -84.5 -170.5t-96 -139t-110.5 -97t-119 -34.5q-86 0 -135 72t-49 205q0 107 31.5 217.5t90.5 207t136 172t174.5 119.5t200.5 44q102 0 174 -35l63 35h13l-197 -754q-8 -32 -11.5 -47t-8 -39t-4 -34.5t1.5 -27t7 -25t15.5 -20t23.5 -20t33 -16.5v-3
l-264 -38zM297 86q36 0 73 21.5t71 63.5t64.5 87.5t62.5 110.5t54 114t50 115l78 295q-38 65 -127 65q-88 0 -169.5 -66.5t-137.5 -168t-89.5 -221t-33.5 -226.5q0 -190 104 -190zM438 1313q0 75 50 124.5t128 49.5q79 0 129 -48.5t50 -125.5t-51.5 -124.5t-127.5 -47.5
t-127 47.5t-51 124.5zM506 1313q0 -64 28.5 -99.5t81.5 -35.5t82 35.5t29 99.5t-28.5 101.5t-82.5 37.5t-82 -37.5t-28 -101.5zM909 1911l74 -137l-502 -226l-10 17z" />
    <glyph glyph-name="AEacute" unicode="&#x1fc;" horiz-adv-x="1658" 
d="M922 1235q13 86 14 98l-469 -727h342zM199 0h-246v4q87 66 142.5 130t131.5 185l705 1088q-11 46 -53 88v4h733l24 -321l-18 -4q-70 141 -124 209t-118 69l-252 8l-123 -686h158q17 0 34 6t34.5 19t31.5 25t32 33.5t28 34t29 37.5t26 34h19l-68 -408h-18q-4 9 -16 35
t-17.5 37t-17 32t-21 30.5t-22.5 21.5t-28 17t-32 5h-160l-125 -698l303 10q43 2 84.5 18.5t72.5 37.5t74 64.5t68 73.5t74 90q21 25 31 38l16 -9l-131 -358h-809v4q39 65 59 125.5t44 169.5l47 266h-361l-135 -211q-58 -92 -86.5 -158t-31 -110.5t11.5 -81.5v-4zM1495 1964
l74 -137l-502 -225l-10 16z" />
    <glyph glyph-name="aeacute" unicode="&#x1fd;" horiz-adv-x="1341" 
d="M608 324v26q0 19 2 29q-190 -410 -393 -410q-82 0 -131 72.5t-49 204.5q0 107 32 217.5t90.5 206.5t134 172t169 120t188.5 44q147 0 226 -111q129 111 286 111q49 0 91 -12.5t73 -46t31 -83.5t-28.5 -92t-90 -77.5t-172.5 -56t-262 -20.5q-35 -116 -35 -237
q0 -156 54 -225.5t143 -69.5q143 0 250 168l14 -10q-51 -128 -142.5 -200.5t-201.5 -72.5q-129 0 -204 94.5t-75 258.5zM291 86q47 0 97.5 42.5t98.5 119.5t85.5 150.5t78.5 168.5q38 113 119 221q-8 77 -47 123.5t-105 46.5q-83 0 -163 -66.5t-136.5 -167.5t-91 -221
t-34.5 -227q0 -190 98 -190zM1139 969q-95 0 -187 -91t-141 -237q103 12 181.5 34t123 46.5t72 54.5t36.5 54.5t9 50.5q0 88 -94 88zM1069 1534l100 -109l-407 -317l-10 14z" />
    <glyph glyph-name="Oslashacute" unicode="&#x1fe;" horiz-adv-x="1368" 
d="M276 528q0 -180 50 -307l784 1106q-86 162 -264 162q-128 0 -237.5 -85t-181 -222.5t-111.5 -308t-40 -345.5zM614 10q104 0 195.5 55.5t158.5 150t116 217t73.5 260.5t24.5 278q0 184 -49 309l-785 -1106q87 -164 266 -164zM602 -31q-184 0 -311 121l-107 -149h-57
l129 184q-156 180 -156 469q0 181 62.5 353.5t165 300t242.5 205t288 77.5q181 0 309 -119l107 150h57l-129 -183q158 -182 158 -473q0 -181 -62.5 -353.5t-165 -300t-242.5 -205t-288 -77.5zM1133 1964l73 -137l-501 -225l-11 16z" />
    <glyph glyph-name="oslashacute" unicode="&#x1ff;" horiz-adv-x="870" 
d="M834 643q0 -165 -72.5 -322t-190 -254.5t-241.5 -97.5q-116 0 -189 70l-127 -176h-55l152 211q-74 95 -74 258q0 165 72.5 322t190 254.5t241.5 97.5q112 0 188 -70l127 178h55l-151 -213q74 -95 74 -258zM680 694q0 46 -6 90l-469 -655q35 -123 131 -123
q65 0 127.5 53.5t110.5 144.5t77 220t29 270zM190 279q0 -21 5 -89l469 656q-35 123 -129 123q-89 0 -168.5 -90.5t-128 -251t-48.5 -348.5zM729 1534l100 -109l-407 -317l-10 14z" />
    <glyph glyph-name="uni0218" unicode="&#x218;" 
d="M934 1133l-19 -5q-65 202 -138.5 281.5t-166.5 79.5q-107 0 -174 -75t-67 -189q0 -55 15.5 -104t51.5 -98.5t62.5 -78.5t80.5 -83l19 -19q53 -53 86 -92t70 -95.5t55 -121.5t18 -138q0 -201 -126.5 -313.5t-325.5 -112.5q-90 0 -178.5 22t-151.5 58l-14 365l18 4
q76 -220 163.5 -314t203.5 -94q84 0 147.5 45.5t95 118t31.5 158.5q0 62 -17.5 117t-55 106.5t-68.5 84.5t-86 85l-82 86q-143 150 -143 330q0 125 59 215t150.5 132t201.5 42q153 0 275 -66zM203 -467q58 39 94.5 85.5t36.5 82.5q0 55 -62 117v4l121 86q66 -52 66 -119
q0 -52 -43 -106.5t-94.5 -90.5t-112.5 -69z" />
    <glyph glyph-name="uni0219" unicode="&#x219;" horiz-adv-x="657" 
d="M616 743l-14 -4q-59 126 -110.5 178t-112.5 52t-97 -43.5t-36 -106.5q0 -42 17.5 -80.5t45.5 -69.5t62.5 -63t68.5 -67t62 -73t45.5 -89.5t17.5 -110.5q0 -138 -86.5 -217.5t-218.5 -79.5q-72 0 -136.5 19t-100.5 49l-9 260l15 4q119 -295 266 -295q68 0 113 48.5
t45 131.5q0 63 -32.5 118t-78.5 98.5t-92 89t-78.5 109t-32.5 138.5q0 128 82.5 197.5t204.5 69.5q108 0 188 -37zM57 -467q58 39 94.5 85.5t36.5 82.5q0 56 -61 117v4l121 86q65 -52 65 -119q0 -52 -43 -106.5t-94.5 -90.5t-112.5 -69z" />
    <glyph glyph-name="uni021A" unicode="&#x21a;" horiz-adv-x="1171" 
d="M360 0v4q41 71 63 134t42 171l209 1155l-180 -8q-69 -4 -141.5 -82t-198.5 -258l-19 8l129 375h989l-4 -379l-18 -4q-60 177 -103.5 257t-95.5 81l-198 8l-207 -1153q-19 -114 -16.5 -172.5t24.5 -132.5v-4h-275zM309 -467q58 39 94.5 85.5t36.5 82.5q0 56 -61 117v4
l121 86q65 -52 65 -119q0 -52 -43 -106.5t-94.5 -90.5t-112.5 -69z" />
    <glyph glyph-name="uni021B" unicode="&#x21b;" horiz-adv-x="591" 
d="M207 -31q-42 0 -70.5 21t-43.5 73t5 140l158 733h-111v10l291 211h10l-38 -182h239l-8 -39h-240l-157 -731q-30 -129 41 -129q45 0 100.5 49.5t89.5 103.5l19 -12q-62 -117 -136.5 -182.5t-148.5 -65.5zM47 -467q58 39 94.5 85.5t36.5 82.5q0 56 -61 117v4l121 86
q65 -52 65 -119q0 -52 -43 -106.5t-94.5 -90.5t-112.5 -69z" />
    <glyph glyph-name="uni0237" unicode="&#x237;" horiz-adv-x="403" 
d="M-156 -430q118 79 158 274l168 813q41 189 -41 271v4l264 84l-233 -1073q-37 -170 -120 -267.5t-194 -115.5z" />
    <glyph glyph-name="circumflex" unicode="&#x2c6;" horiz-adv-x="761" 
d="M543 1303l-289 -197l-12 16l321 351h8l183 -351l-19 -16z" />
    <glyph glyph-name="caron" unicode="&#x2c7;" horiz-adv-x="612" 
d="M401 1106l-182 350l19 17l192 -197l289 197l12 -17l-321 -350h-9z" />
    <glyph glyph-name="breve" unicode="&#x2d8;" horiz-adv-x="761" 
d="M541 1274q161 0 213 156h18q-4 -42 -19.5 -84.5t-43 -83.5t-75.5 -67t-108 -26q-59 0 -102 26t-64.5 67t-29.5 84t-4 84h16q13 -75 65 -115.5t134 -40.5z" />
    <glyph glyph-name="dotaccent" unicode="&#x2d9;" horiz-adv-x="761" 
d="M639 1350q0 -43 -29.5 -73t-70.5 -30q-42 0 -72.5 30.5t-30.5 72.5q0 41 30.5 70.5t72.5 29.5q41 0 70.5 -29.5t29.5 -70.5z" />
    <glyph glyph-name="ring" unicode="&#x2da;" horiz-adv-x="614" 
d="M293 1313q0 75 50 124.5t128 49.5t128 -48t50 -126q0 -77 -51 -124.5t-127 -47.5t-127 47.5t-51 124.5zM360 1313q0 -64 29 -99.5t82 -35.5t82 35.5t29 99.5t-28.5 101.5t-82.5 37.5t-82.5 -37.5t-28.5 -101.5z" />
    <glyph glyph-name="ogonek" unicode="&#x2db;" horiz-adv-x="614" 
d="M344 2q-75 -39 -125.5 -95t-69 -107t-18.5 -99q0 -104 96 -104q93 0 168 108l13 -12q-21 -40 -42.5 -70.5t-52.5 -61.5t-71.5 -48t-87.5 -17q-70 0 -111 39.5t-41 110.5q0 101 81 198t212 158h49z" />
    <glyph glyph-name="tilde" unicode="&#x2dc;" horiz-adv-x="761" 
d="M436 1389q47 0 125.5 -34t124.5 -34q48 0 77 23.5t50 72.5l16 -2q-6 -26 -14 -51t-24 -55t-36 -52.5t-51 -37.5t-67 -15q-46 0 -126 34t-126 34q-49 0 -79.5 -23.5t-51.5 -72.5l-16 2q7 34 19.5 65t34.5 67t59 57.5t85 21.5z" />
    <glyph glyph-name="hungarumlaut" unicode="&#x2dd;" horiz-adv-x="759" 
d="M733 1493l98 -86l-288 -289l-19 15zM444 1493l99 -86l-289 -289l-18 15z" />
    <glyph glyph-name="Wgrave" unicode="&#x1e80;" horiz-adv-x="1576" 
d="M348 -16l-96 1187q-11 135 -28.5 202.5t-49.5 121.5v4h295v-4q-72 -114 -55 -326l69 -901l391 867l-2 36q-11 135 -28.5 201t-50.5 123v4h299v-4q-71 -95 -58 -326l62 -901l395 865q108 227 51 362v4h227v-4q-65 -57 -103.5 -117t-102.5 -200l-551 -1194h-51l-78 1058
l-484 -1058h-51zM1167 1602l-444 225l98 137l359 -346z" />
    <glyph glyph-name="wgrave" unicode="&#x1e81;" horiz-adv-x="1118" 
d="M166 715q-5 113 -20.5 162t-65.5 94v4h225l21 -721l270 457v4q0 104 -20 156.5t-70 99.5v4h229l10 -713l195 344q87 151 94.5 232t-63.5 133v4h229v-4l-567 -985h-27l-8 643l-383 -643h-25zM762 1100l-307 346l127 88l198 -420z" />
    <glyph glyph-name="Wacute" unicode="&#x1e82;" horiz-adv-x="1576" 
d="M348 -16l-96 1187q-11 135 -28.5 202.5t-49.5 121.5v4h295v-4q-72 -114 -55 -326l69 -901l391 867l-2 36q-11 135 -28.5 201t-50.5 123v4h299v-4q-71 -95 -58 -326l62 -901l395 865q108 227 51 362v4h227v-4q-65 -57 -103.5 -117t-102.5 -200l-551 -1194h-51l-78 1058
l-484 -1058h-51zM1200 1964l74 -137l-502 -225l-10 16z" />
    <glyph glyph-name="wacute" unicode="&#x1e83;" horiz-adv-x="1118" 
d="M166 715q-5 113 -20.5 162t-65.5 94v4h225l21 -721l270 457v4q0 104 -20 156.5t-70 99.5v4h229l10 -713l195 344q87 151 94.5 232t-63.5 133v4h229v-4l-567 -985h-27l-8 643l-383 -643h-25zM856 1534l100 -109l-407 -317l-10 14z" />
    <glyph glyph-name="Wdieresis" unicode="&#x1e84;" horiz-adv-x="1576" 
d="M348 -16l-96 1187q-11 135 -28.5 202.5t-49.5 121.5v4h295v-4q-72 -114 -55 -326l69 -901l391 867l-2 36q-11 135 -28.5 201t-50.5 123v4h299v-4q-71 -95 -58 -326l62 -901l395 865q108 227 51 362v4h227v-4q-65 -57 -103.5 -117t-102.5 -200l-551 -1194h-51l-78 1058
l-484 -1058h-51zM1290 1778q0 -41 -29.5 -71t-70.5 -30t-70.5 30t-29.5 71t29.5 71.5t70.5 30.5t70.5 -30.5t29.5 -71.5zM909 1778q0 -42 -29.5 -71.5t-72.5 -29.5q-41 0 -70.5 30t-29.5 71t29.5 71.5t70.5 30.5q42 0 72 -30t30 -72z" />
    <glyph glyph-name="wdieresis" unicode="&#x1e85;" horiz-adv-x="1118" 
d="M166 715q-5 113 -20.5 162t-65.5 94v4h225l21 -721l270 457v4q0 104 -20 156.5t-70 99.5v4h229l10 -713l195 344q87 151 94.5 232t-63.5 133v4h229v-4l-567 -985h-27l-8 643l-383 -643h-25zM616 1350q0 -43 -29 -73t-71 -30q-41 0 -70.5 30t-29.5 73q0 41 29.5 70.5
t70.5 29.5q42 0 71 -29t29 -71zM977 1350q0 -43 -29.5 -73t-70.5 -30q-42 0 -72.5 30.5t-30.5 72.5q0 41 30.5 70.5t72.5 29.5q41 0 70.5 -29.5t29.5 -70.5z" />
    <glyph glyph-name="Ygrave" unicode="&#x1ef2;" horiz-adv-x="970" 
d="M248 4q53 78 76.5 138.5t44.5 164.5l69 385l-135 535q-30 108 -57.5 168t-67.5 100v4h320v-4q-33 -33 -41.5 -96.5t12.5 -157.5l119 -491l248 409q126 200 59 336v4h246v-4q-65 -65 -114.5 -127.5t-119.5 -169.5l-311 -516l-66 -375q-20 -105 -16.5 -165.5t33.5 -137.5
l-2 -4h-297v4zM893 1602l-444 225l98 137l358 -346z" />
    <glyph glyph-name="ygrave" unicode="&#x1ef3;" horiz-adv-x="747" 
d="M-178 -291q43 0 72.5 3t77 18t86 43.5t86.5 84t92 134.5l-66 723q-12 126 -27.5 169.5t-66.5 86.5v4h219l65 -750l203 381q35 65 56 110t32.5 86.5t8 70.5t-21 53.5t-50.5 44.5v4h233v-4l-571 -1037q-52 -96 -104 -166.5t-95.5 -111.5t-92.5 -66.5t-86.5 -35t-86.5 -15.5
zM588 1100l-307 346l127 88l198 -420z" />
    <glyph glyph-name="uni2009" unicode="&#x2009;" horiz-adv-x="186" 
 />
    <glyph glyph-name="endash" unicode="&#x2013;" horiz-adv-x="983" 
d="M88 547l6 39h848l-6 -39h-848z" />
    <glyph glyph-name="emdash" unicode="&#x2014;" horiz-adv-x="1472" 
d="M88 547l6 39h1338l-9 -39h-1335z" />
    <glyph glyph-name="quoteleft" unicode="&#x2018;" horiz-adv-x="411" 
d="M516 1534q-68 -49 -113 -109t-45 -106q0 -52 70 -131v-4l-141 -105q-70 56 -70 131q0 158 289 336z" />
    <glyph glyph-name="quoteright" unicode="&#x2019;" horiz-adv-x="411" 
d="M184 1092q68 49 113 109t45 106q0 52 -70 131v4l142 104q69 -55 69 -131q0 -159 -288 -336z" />
    <glyph glyph-name="quotesinglbase" unicode="&#x201a;" horiz-adv-x="411" 
d="M-35 -172q68 49 113 109t45 106q0 52 -70 131v4l142 105q69 -55 69 -131q0 -158 -289 -336z" />
    <glyph glyph-name="quotedblleft" unicode="&#x201c;" horiz-adv-x="714" 
d="M819 1534q-68 -48 -112.5 -108.5t-44.5 -106.5q0 -53 69 -131v-4l-141 -105q-70 56 -70 131q0 158 289 336zM516 1534q-68 -49 -113 -109t-45 -106q0 -52 70 -131v-4l-141 -105q-70 56 -70 131q0 158 289 336z" />
    <glyph glyph-name="quotedblright" unicode="&#x201d;" horiz-adv-x="714" 
d="M184 1092q68 49 113 109t45 106q0 52 -70 131v4l142 104q69 -55 69 -131q0 -159 -288 -336zM487 1092q68 49 113 109t45 106q0 52 -70 131v4l142 104q69 -55 69 -131q0 -159 -288 -336z" />
    <glyph glyph-name="quotedblbase" unicode="&#x201e;" horiz-adv-x="714" 
d="M-35 -172q68 49 113 109t45 106q0 52 -70 131v4l142 105q69 -55 69 -131q0 -158 -289 -336zM270 -172q68 49 113 109t45 106q0 52 -70 131v4l142 105q69 -55 69 -131q0 -159 -288 -336z" />
    <glyph glyph-name="dagger" unicode="&#x2020;" horiz-adv-x="804" 
d="M291 0h-37l43 557l168 502l-356 -70l34 168l326 -67l4 409h186l-159 -412l350 70l-35 -168l-321 70l-31 -522z" />
    <glyph glyph-name="daggerdbl" unicode="&#x2021;" horiz-adv-x="804" 
d="M371 410l-4 -410h-187l158 410l-348 -68l35 168l319 -68l-4 318l121 297l-352 -68l34 168l326 -67l4 409h186l-157 -409l348 67l-35 -168l-319 68l-4 -320l-113 -295l352 68l-35 -168z" />
    <glyph glyph-name="bullet" unicode="&#x2022;" horiz-adv-x="561" 
d="M299 418q-67 0 -116.5 50t-49.5 116q0 72 48.5 121t117.5 49q68 0 118 -50.5t50 -119.5q0 -66 -50.5 -116t-117.5 -50z" />
    <glyph glyph-name="ellipsis" unicode="&#x2026;" horiz-adv-x="1447" 
d="M186 -8q-47 0 -80.5 33.5t-33.5 80.5t33.5 81t80.5 34t81 -34t34 -81t-34 -80.5t-81 -33.5zM676 -8q-47 0 -81 33.5t-34 80.5t34 81t81 34t81 -34t34 -81t-34 -80.5t-81 -33.5zM1165 -8q-47 0 -80.5 33.5t-33.5 80.5t33.5 81t80.5 34t81 -34t34 -81t-34 -80.5t-81 -33.5z
" />
    <glyph glyph-name="perthousand" unicode="&#x2030;" horiz-adv-x="2058" 
d="M750 1227q0 -138 -55 -259t-141 -190t-177 -69q-98 0 -157.5 83t-59.5 220q0 104 32.5 201t85 165.5t120 110t134.5 41.5q99 0 158.5 -83t59.5 -220zM381 735q68 0 125.5 102t86 238.5t28.5 261.5q0 166 -91 166q-52 0 -98 -60t-76 -151.5t-47.5 -195t-17.5 -195.5
q0 -166 90 -166zM199 29l1067 1493l34 -23l-1069 -1497zM1341 502q0 -138 -54.5 -259t-140.5 -190t-177 -69q-98 0 -157.5 83t-59.5 220q0 104 32.5 201t85 165.5t120 110t134.5 41.5q99 0 158 -83t59 -220zM973 10q52 0 98 60t76 151.5t47.5 195t17.5 195.5q0 166 -90 166
q-52 0 -98 -60t-76 -151.5t-47.5 -195t-17.5 -195.5q0 -166 90 -166zM2003 502q0 -138 -55 -259t-141 -190t-177 -69q-98 0 -157.5 83t-59.5 220q0 104 33 201t85.5 165.5t120 110t134.5 41.5q99 0 158 -83t59 -220zM1634 10q68 0 125.5 102t86 238.5t28.5 261.5
q0 166 -90 166q-68 0 -125.5 -102t-86 -238.5t-28.5 -261.5q0 -166 90 -166z" />
    <glyph glyph-name="guilsinglleft" unicode="&#x2039;" horiz-adv-x="493" 
d="M319 106l-221 359l11 41l372 358l13 -12l-267 -377l109 -358z" />
    <glyph glyph-name="guilsinglright" unicode="&#x203a;" horiz-adv-x="493" 
d="M184 864l222 -358l-11 -41l-372 -359l-13 13l266 377l-108 358z" />
    <glyph glyph-name="fraction" unicode="&#x2044;" horiz-adv-x="557" 
d="M-231 29l1067 1493l34 -23l-1069 -1497z" />
    <glyph glyph-name="Euro" unicode="&#x20ac;" horiz-adv-x="1284" 
d="M1112 102q-47 -43 -168 -88t-252 -45q-127 0 -226 47t-162 131.5t-95.5 198t-32.5 250.5h-178l8 39h170q3 113 31 229h-154l10 39h154q75 272 270 449.5t441 177.5q101 0 195 -29t149 -59l20 -312l-18 -4q-86 195 -174.5 279t-204.5 84q-121 0 -224.5 -80.5t-172 -210.5
t-105.5 -295h428l-10 -39h-426q-20 -104 -29 -229h408l-8 -39h-402v-41q0 -248 88.5 -396.5t251.5 -148.5q69 0 132.5 30.5t126 94t111 127t116.5 164.5l20 -4z" />
    <glyph glyph-name="trademark" unicode="&#x2122;" horiz-adv-x="1341" 
d="M205 825v4q20 31 29.5 58.5t17.5 77.5l94 508l-65 -3q-51 -2 -162 -161l-15 4l56 186h491l-2 -188l-14 -2q-18 43 -28 65t-24.5 48t-27.5 36.5t-27 11.5l-71 3l-90 -508q-8 -48 -7.5 -77.5t11.5 -58.5v-4h-166zM731 825h-117v4q33 44 47 75.5t21 84.5l68 371
q8 51 2.5 76.5t-31.5 60.5v2h156l79 -471l246 471h162v-2q-40 -33 -53.5 -59.5t-26.5 -89.5l-70 -383q-13 -84 5 -136v-4h-164v4q35 58 47 136l74 413l-281 -534h-18l-93 536l-69 -391q-10 -54 -7.5 -85t23.5 -75v-4z" />
    <glyph glyph-name="onethird" unicode="&#x2153;" horiz-adv-x="1302" 
d="M401 913q-14 -65 -13 -102t18 -84v-2h-211v2q33 49 48 85.5t27 100.5l82 437h-78l2 12q102 49 226 162h12zM127 29l1067 1493l35 -23l-1069 -1497zM883 -16q-97 0 -150 32l-14 189l10 2q38 -100 75.5 -148.5t88.5 -48.5q71 0 116.5 86t45.5 191q0 162 -109 162
q-53 0 -115 -48l-8 13l283 256h-279l62 114h373l-2 -10l-334 -303q33 10 61 10q83 0 142 -54t59 -153q0 -121 -84 -205.5t-221 -84.5z" />
    <glyph glyph-name="twothirds" unicode="&#x2154;" horiz-adv-x="1359" 
d="M86 725l4 14q239 226 327.5 367.5t88.5 273.5q0 123 -80 123q-41 0 -84.5 -47.5t-105.5 -144.5l-11 4l51 182q92 33 160 33q99 0 151 -45.5t52 -130.5q0 -121 -101 -237.5t-321 -274.5h182q55 0 91.5 23t82.5 73l7 -2l-80 -211h-414zM190 29l1067 1493l35 -23
l-1069 -1497zM940 -16q-96 0 -149 32l-15 189l10 2q38 -100 75.5 -148.5t88.5 -48.5q71 0 116.5 86t45.5 191q0 162 -108 162q-53 0 -115 -48l-8 13l282 256h-278l61 114h373l-2 -10l-334 -303q33 10 61 10q83 0 142 -54t59 -153q0 -121 -84 -205.5t-221 -84.5z" />
    <glyph glyph-name="oneeighth" unicode="&#x215b;" horiz-adv-x="1302" 
d="M422 913q-14 -65 -13.5 -102.5t17.5 -83.5v-2h-211v2q34 49 49 85.5t27 100.5l82 437h-78l2 12q100 48 225 162h13zM127 29l1067 1493l35 -23l-1069 -1497zM920 -16q-93 0 -152 49t-59 135q0 76 49 133.5t149 85.5q-47 41 -71.5 82.5t-24.5 103.5q0 100 69 164t167 64
q83 0 130.5 -44.5t47.5 -117.5q0 -66 -42 -121t-130 -78q32 -28 49 -45t39 -45t31.5 -59.5t9.5 -69.5q0 -107 -76.5 -172t-185.5 -65zM928 10q63 0 104 42.5t41 105.5q0 41 -22.5 81t-46 62.5t-66.5 58.5l-18 17q-123 -75 -123 -211q0 -72 35 -114t96 -42zM1038 453
q99 73 99 196q0 60 -27 93.5t-76 33.5q-55 0 -88 -34t-33 -93q0 -57 31.5 -100.5t91.5 -93.5z" />
    <glyph glyph-name="threeeighths" unicode="&#x215c;" horiz-adv-x="1339" 
d="M293 709q-97 0 -150 32l-14 189l10 2q38 -100 75.5 -148.5t88.5 -48.5q71 0 116.5 86t45.5 191q0 162 -109 162q-52 0 -114 -48l-9 13l283 256h-278l61 114h373l-2 -10l-334 -303q33 10 61 10q83 0 142 -54t59 -153q0 -121 -84 -205.5t-221 -84.5zM164 29l1067 1493
l35 -23l-1069 -1497zM956 -16q-93 0 -152 49t-59 135q0 75 49.5 133t149.5 86q-47 41 -71.5 82.5t-24.5 103.5q0 100 68.5 164t166.5 64q84 0 131.5 -44.5t47.5 -117.5q0 -66 -42 -121t-130 -78q32 -28 49 -45t39 -45t31.5 -59.5t9.5 -69.5q0 -107 -77 -172t-186 -65z
M965 10q63 0 104 42.5t41 105.5q0 41 -22.5 81t-46 62.5t-66.5 58.5l-19 17q-122 -75 -122 -211q0 -72 35 -114t96 -42zM1075 453q99 73 99 196q0 60 -27 93.5t-76 33.5q-55 0 -88 -34t-33 -93q0 -57 31.5 -100.5t91.5 -93.5z" />
    <glyph glyph-name="fiveeighths" unicode="&#x215d;" horiz-adv-x="1325" 
d="M274 709q-90 0 -143 32l-16 189l10 2q38 -100 75.5 -148.5t88.5 -48.5q71 0 115.5 86.5t44.5 200.5q0 174 -123 174q-55 0 -119 -41l-6 4l112 354h334l-39 -116h-305l-65 -201q54 31 129 31q94 0 154.5 -54t60.5 -161q0 -131 -88.5 -217t-219.5 -86zM150 29l1067 1493
l34 -23l-1069 -1497zM942 -16q-93 0 -152 49t-59 135q0 75 49.5 133t149.5 86q-47 41 -71.5 82.5t-24.5 103.5q0 100 68.5 164t166.5 64q83 0 130.5 -44.5t47.5 -117.5q0 -66 -42 -121t-130 -78q32 -28 49 -45t39 -45t31.5 -59.5t9.5 -69.5q0 -107 -76.5 -172t-185.5 -65z
M950 10q63 0 104.5 42.5t41.5 105.5q0 41 -22.5 81t-46 62.5t-66.5 58.5l-19 17q-123 -75 -123 -211q0 -72 35 -114t96 -42zM1061 453q98 72 98 196q0 60 -26.5 93.5t-75.5 33.5q-55 0 -88 -34t-33 -93q0 -57 31.5 -100.5t91.5 -93.5z" />
    <glyph glyph-name="seveneighths" unicode="&#x215e;" horiz-adv-x="1325" 
d="M231 725q144 336 428 668h-368l45 120h418v-10q-265 -408 -379 -778h-144zM150 29l1067 1493l34 -23l-1069 -1497zM940 -16q-93 0 -152 49t-59 135q0 75 49.5 133t149.5 86q-48 41 -72.5 82.5t-24.5 103.5q0 100 69 164t167 64q83 0 130.5 -44.5t47.5 -117.5
q0 -66 -42 -121t-130 -78q32 -28 49 -45t39 -45t31.5 -59.5t9.5 -69.5q0 -107 -76.5 -172t-185.5 -65zM948 10q63 0 104.5 42.5t41.5 105.5q0 31 -10.5 59.5t-34 55.5t-41 43.5t-50.5 43.5l-18 17q-123 -75 -123 -211q0 -72 35 -114t96 -42zM1059 453q98 72 98 196
q0 60 -26.5 93.5t-75.5 33.5q-55 0 -88 -34t-33 -93q0 -57 31.5 -100.5t91.5 -93.5z" />
    <glyph glyph-name="minus" unicode="&#x2212;" horiz-adv-x="1089" 
d="M133 610v41h905v-41h-905z" />
    <glyph glyph-name="uni24C5" unicode="&#x24c5;" horiz-adv-x="1722" 
d="M104 752q0 160 61.5 304.5t166.5 248t249.5 164.5t303.5 61t304 -61t249.5 -164.5t166.5 -248t62 -304.5q0 -161 -62 -305.5t-166.5 -249t-249.5 -165.5t-304 -61t-303.5 61t-249.5 165.5t-166.5 249t-61.5 305.5zM156 752q0 -151 57.5 -288t155.5 -236t232.5 -157.5
t283.5 -58.5q148 0 282.5 58.5t232 157.5t155 236t57.5 288q0 201 -97.5 370t-265 267t-364.5 98q-149 0 -283.5 -58t-232.5 -156t-155.5 -234.5t-57.5 -286.5zM639 317q29 42 37 72.5t8 89.5v494q0 59 -8.5 90.5t-36.5 71.5v4h276q150 0 216.5 -63.5t66.5 -166.5
q0 -118 -79 -188t-220 -70h-106v-172q0 -60 7.5 -90.5t35.5 -71.5v-4h-197v4zM897 1104h-39q-34 0 -65 -2v-414h104q96 0 144.5 62t48.5 159q0 109 -52 152t-141 43z" />
    <glyph glyph-name="f.alt" unicode="&#xe4c5;" horiz-adv-x="530" 
d="M29 4q23 43 42.5 99.5t30 99t35.5 153.5l123 580h-121l8 39h121l39 180q48 213 153 326.5t236 113.5q65 0 119 -28l14 -209l-10 -4q-62 105 -100.5 151.5t-81.5 46.5q-103 0 -176 -342l-49 -235h192l-8 -39h-195l-129 -610q-26 -130 -31 -191t11 -131v-4h-223v4z" />
    <glyph glyph-name="k.alt" unicode="&#xe4ca;" horiz-adv-x="878" 
d="M4 0v4q38 66 59.5 139t49.5 213l184 881q25 97 17 160.5t-56 109.5v4l260 84l-268 -1271q-19 -91 -26.5 -139t-7.5 -94.5t11 -86.5v-4h-223zM643 -14q-56 0 -106 40t-107 150q-63 129 -125 330l289 280q39 38 60 68.5t27 62t-15 54.5v4h258v-4q-82 -32 -136 -71
t-153 -134l-201 -195q63 -198 117 -307q47 -93 82.5 -125.5t73.5 -32.5q49 0 81 41l7 -4q-20 -76 -60.5 -116.5t-91.5 -40.5z" />
    <glyph glyph-name="v.alt" unicode="&#xe4d5;" horiz-adv-x="786" 
d="M215 256q-22 -104 -6.5 -144t67.5 -40q113 0 226 172q73 107 131.5 272t58.5 281q0 67 -17.5 108t-62.5 66v4h215v-4q-33 -194 -116.5 -411.5t-184.5 -362.5q-158 -228 -325 -228q-85 0 -125.5 69.5t-5.5 209.5l118 493q11 47 14.5 79.5t-1 63t-22.5 52t-50 35.5v4h258z
" />
    <glyph glyph-name="w.alt" unicode="&#xe4d6;" horiz-adv-x="1236" 
d="M670 -31q-90 0 -126.5 68t-2.5 211l10 39q-41 -79 -57 -101q-136 -217 -297 -217q-87 0 -124 68.5t-3 210.5l118 493q11 47 14.5 79.5t-1 63t-22.5 52t-50 35.5v4h260l-174 -719q-22 -104 -8.5 -143t63.5 -39q94 0 189 145q66 101 118 239.5t78 268.5l4 14
q11 47 14.5 79.5t-1 63t-22.5 52t-50 35.5v4h256l-172 -719q-24 -104 -9 -144t68 -40q101 0 207 161q77 115 134 281.5t57 282.5q0 67 -17.5 108t-62.5 66v4h213v-4q-33 -192 -111 -404t-176 -364q-78 -114 -154 -174t-163 -60z" />
    <glyph glyph-name="x.alt" unicode="&#xe4d7;" horiz-adv-x="823" 
d="M313 303q-82 -168 -165 -242.5t-207 -74.5l30 131q206 0 318 229l61 129l-61 260q-26 106 -56 157t-88 79v4h236l94 -402l68 138q68 152 149 215t199 63l-33 -131q-46 0 -83 -7.5t-77 -26.5t-74 -58.5t-59 -97.5l-73 -158l63 -270q23 -103 54.5 -155t88.5 -81v-4h-233
l-98 414z" />
    <glyph glyph-name="y.alt" unicode="&#xe4d8;" horiz-adv-x="765" 
d="M-184 -324q88 -5 209.5 39.5t218.5 141.5q-2 479 -62 811q-21 141 -50 206.5t-91 96.5l-2 4h240q37 -115 65 -309q34 -228 37 -617q266 452 266 737q0 128 -92 185v4h229v-4q-80 -448 -329 -883q-48 -81 -90.5 -143.5t-108.5 -139t-134 -130t-160 -97.5t-193 -61z" />
    <glyph glyph-name="z.alt" unicode="&#xe4d9;" horiz-adv-x="749" 
d="M-49 0l2 14l690 838l-307 -8q-55 -1 -99.5 -23.5t-101.5 -72.5l-8 4l98 223h574l-2 -19l-688 -835l350 8q68 1 115.5 27t105.5 86l8 -4l-108 -238h-629z" />
    <glyph glyph-name="idotaccent" horiz-adv-x="415" 
d="M471 1350q0 -43 -29.5 -73t-70.5 -30q-42 0 -72.5 30.5t-30.5 72.5q0 41 30.5 70.5t72.5 29.5q41 0 70.5 -29.5t29.5 -70.5zM8 4q28 43 49 101.5t30.5 101.5t31.5 149l61 301q41 189 -41 271v4l256 84l-141 -705q-18 -82 -25.5 -130t-7 -92.5t11.5 -84.5v-4h-225v4z" />
    <glyph glyph-name="space_uni0326" horiz-adv-x="614" 
d="M57 -467q58 39 94.5 85.5t36.5 82.5q0 56 -61 117v4l121 86q65 -52 65 -119q0 -52 -43 -106.5t-94.5 -90.5t-112.5 -69z" />
    <glyph glyph-name="five.num" horiz-adv-x="512" 
d="M254 709q-90 0 -143 32l-17 189l10 2q38 -100 75.5 -148.5t88.5 -48.5q71 0 115.5 86.5t44.5 200.5q0 174 -123 174q-55 0 -119 -41l-6 4l113 354h334l-39 -116h-305l-66 -201q54 31 129 31q94 0 154.5 -54t60.5 -161q0 -131 -88 -217t-219 -86z" />
    <glyph glyph-name="zero.num" horiz-adv-x="671" 
d="M739 1227q0 -138 -54.5 -259t-140.5 -190t-177 -69q-98 0 -157.5 83t-59.5 220q0 104 32.5 201t85 165.5t120 110t134.5 41.5q99 0 158 -83t59 -220zM371 735q52 0 98 60t76 151.5t47.5 195t17.5 195.5q0 166 -90 166q-52 0 -98 -60t-76 -151.5t-47.5 -195t-17.5 -195.5
q0 -166 90 -166z" />
    <glyph glyph-name="one.num" horiz-adv-x="352" 
d="M313 913q-14 -65 -13.5 -102.5t17.5 -83.5v-2h-211v2q34 49 49 85.5t27 100.5l82 437h-78l2 12q102 49 226 162h12z" />
    <glyph glyph-name="two.num" horiz-adv-x="542" 
d="M66 725l4 14q238 226 326.5 367.5t88.5 273.5q0 123 -79 123q-41 0 -85.5 -48t-105.5 -144l-10 4l51 182q92 33 160 33q99 0 150.5 -45.5t51.5 -130.5q0 -121 -100.5 -237.5t-320.5 -274.5h182q55 0 91.5 23t82.5 73l6 -2l-80 -211h-413z" />
    <glyph glyph-name="three.num" horiz-adv-x="542" 
d="M272 709q-96 0 -149 32l-14 189l10 2q38 -100 75.5 -148.5t88.5 -48.5q71 0 116 85.5t45 191.5q0 162 -108 162q-53 0 -115 -48l-8 13l283 256h-279l62 114h372l-2 -10l-334 -303q33 10 62 10q83 0 142 -54t59 -153q0 -121 -84.5 -205.5t-221.5 -84.5z" />
    <glyph glyph-name="four.num" horiz-adv-x="546" 
d="M301 727q29 47 42.5 83.5t25.5 102.5l4 17h-277l2 14l389 569h156l-510 -555h244l45 238h133l-43 -238h76l-10 -28h-72l-2 -17q-12 -66 -12 -104t12 -82v-2h-205z" />
    <glyph glyph-name="six.num" horiz-adv-x="587" 
d="M340 709q-93 0 -145 65.5t-52 177.5q0 77 26 157.5t80 162t150 150.5t222 108l4 -14q-199 -89 -297 -347q58 80 143 80q75 0 121.5 -52t46.5 -144q0 -139 -91.5 -241.5t-207.5 -102.5zM346 735q43 0 81 53t58.5 129.5t20.5 149.5q0 71 -20.5 101t-59.5 30q-33 0 -65 -21
t-50 -57q-41 -116 -41 -241q0 -144 76 -144z" />
    <glyph glyph-name="seven.num" horiz-adv-x="481" 
d="M129 725q144 336 428 668h-369l45 120h418v-10q-265 -408 -379 -778h-143z" />
    <glyph glyph-name="eight.num" horiz-adv-x="577" 
d="M350 709q-93 0 -152 49t-59 135q0 75 49.5 133t149.5 86q-47 41 -71.5 82.5t-24.5 103.5q0 100 68.5 164t166.5 64q83 0 130.5 -44.5t47.5 -117.5q0 -66 -42 -121t-130 -78q32 -28 49 -45t39 -45t31.5 -59.5t9.5 -69.5q0 -107 -76.5 -172t-185.5 -65zM358 735
q63 0 104.5 42.5t41.5 105.5q0 41 -22.5 81t-46 62.5t-66.5 58.5l-19 17q-123 -75 -123 -211q0 -72 35 -114t96 -42zM469 1178q98 72 98 196q0 60 -26.5 93.5t-75.5 33.5q-55 0 -88 -34t-33 -93q0 -57 31.5 -100.5t91.5 -93.5z" />
    <glyph glyph-name="nine.num" horiz-adv-x="587" 
d="M190 723q200 90 297 346q-58 -80 -143 -80q-75 0 -121.5 52.5t-46.5 144.5q0 139 91.5 241.5t207.5 102.5q93 0 145 -66t52 -178q0 -77 -26 -157t-79.5 -161t-149.5 -150t-222 -109zM389 1040q31 0 62 19.5t53 56.5q41 137 41 244q0 143 -76 143q-43 0 -81 -53
t-58.5 -129.5t-20.5 -149.5q0 -71 20.5 -101t59.5 -30z" />
    <glyph glyph-name="five.den" horiz-adv-x="512" 
d="M125 -16q-90 0 -143 32l-17 189l10 2q38 -100 75.5 -148.5t88.5 -48.5q71 0 115.5 86.5t44.5 200.5q0 174 -123 174q-55 0 -119 -41l-6 4l113 354h334l-39 -116h-305l-66 -201q54 31 129 31q94 0 154.5 -54t60.5 -161q0 -131 -88 -217t-219 -86z" />
    <glyph glyph-name="zero.den" horiz-adv-x="671" 
d="M610 502q0 -138 -54.5 -259t-140.5 -190t-177 -69q-98 0 -158 83t-60 220q0 104 33 201t85.5 165.5t120 110t134.5 41.5q99 0 158 -83t59 -220zM242 10q52 0 98 60t76 151.5t47.5 195t17.5 195.5q0 166 -90 166q-52 0 -98 -60t-76 -151.5t-47.5 -195t-17.5 -195.5
q0 -166 90 -166z" />
    <glyph glyph-name="one.den" horiz-adv-x="352" 
d="M195 188q-14 -65 -13.5 -102.5t17.5 -83.5v-2h-211v2q33 49 48 85.5t27 100.5l82 437h-77l2 12q100 48 225 162h12z" />
    <glyph glyph-name="two.den" horiz-adv-x="542" 
d="M-63 0l4 14q238 226 326.5 367.5t88.5 273.5q0 123 -80 123q-41 0 -84.5 -47.5t-105.5 -144.5l-10 4l51 182q92 33 160 33q99 0 150.5 -45.5t51.5 -130.5q0 -121 -100.5 -237.5t-320.5 -274.5h182q55 0 91.5 23t82.5 73l6 -2l-80 -211h-413z" />
    <glyph glyph-name="three.den" horiz-adv-x="542" 
d="M143 -16q-96 0 -149 32l-14 189l10 2q38 -100 75.5 -148.5t88.5 -48.5q71 0 116 85.5t45 191.5q0 162 -108 162q-53 0 -115 -48l-8 13l283 256h-279l62 114h372l-2 -10l-334 -303q33 10 62 10q83 0 142 -54t59 -153q0 -121 -84.5 -205.5t-221.5 -84.5z" />
    <glyph glyph-name="four.den" horiz-adv-x="546" 
d="M172 2q29 47 42.5 83.5t25.5 102.5l4 17h-277l2 14l389 569h156l-510 -555h244l45 238h133l-43 -238h76l-10 -28h-72l-2 -17q-12 -66 -12 -104t12 -82v-2h-205z" />
    <glyph glyph-name="six.den" horiz-adv-x="587" 
d="M211 -16q-93 0 -145 65.5t-52 177.5q0 77 26 157.5t80 162t150 150.5t222 108l4 -14q-199 -89 -297 -347q58 80 143 80q75 0 121.5 -52t46.5 -144q0 -139 -91.5 -241.5t-207.5 -102.5zM217 10q43 0 81 53t58.5 129.5t20.5 149.5q0 71 -20.5 101t-59.5 30q-33 0 -65 -21
t-50 -57q-41 -116 -41 -241q0 -144 76 -144z" />
    <glyph glyph-name="seven.den" horiz-adv-x="481" 
d="M0 0q144 336 428 668h-369l45 120h418v-10q-265 -408 -379 -778h-143z" />
    <glyph glyph-name="eight.den" horiz-adv-x="577" 
d="M221 -16q-93 0 -152 49t-59 135q0 75 49.5 133t149.5 86q-47 41 -71.5 82.5t-24.5 103.5q0 100 68.5 164t166.5 64q83 0 130.5 -44.5t47.5 -117.5q0 -66 -42 -121t-130 -78q32 -28 49 -45t39 -45t31.5 -59.5t9.5 -69.5q0 -107 -76.5 -172t-185.5 -65zM229 10
q63 0 104.5 42.5t41.5 105.5q0 41 -22.5 81t-46 62.5t-66.5 58.5l-19 17q-123 -75 -123 -211q0 -72 35 -114t96 -42zM340 453q98 72 98 196q0 60 -26.5 93.5t-75.5 33.5q-55 0 -88 -34t-33 -93q0 -57 31.5 -100.5t91.5 -93.5z" />
    <glyph glyph-name="nine.den" horiz-adv-x="587" 
d="M61 -2q200 90 297 346q-58 -80 -143 -80q-75 0 -121.5 52.5t-46.5 144.5q0 139 91.5 241.5t207.5 102.5q93 0 145 -66t52 -178q0 -77 -26 -157t-79.5 -161t-149.5 -150t-222 -109zM260 315q31 0 62 19.5t53 56.5q41 137 41 244q0 143 -76 143q-43 0 -81 -53t-58.5 -129.5
t-20.5 -149.5q0 -71 20.5 -101t59.5 -30z" />
    <glyph glyph-name="five.sub" horiz-adv-x="512" 
d="M96 -180q-89 0 -143 33l-16 188l10 2q38 -100 75.5 -148.5t88.5 -48.5q47 0 84 42t56 106.5t19 138.5q0 174 -123 174q-54 0 -118 -41l-6 4l112 355h334l-39 -117h-305l-66 -201q54 31 129 31q94 0 154.5 -54t60.5 -161q0 -131 -88 -217t-219 -86z" />
    <glyph glyph-name="zero.sub" horiz-adv-x="671" 
d="M582 338q0 -138 -55 -259t-141 -190t-177 -69q-98 0 -157.5 83t-59.5 220q0 104 33 201t85.5 165.5t120 110t134.5 41.5q99 0 158 -83t59 -220zM213 -154q52 0 98.5 60t76.5 151.5t47.5 195.5t17.5 196q0 165 -91 165q-52 0 -98 -60t-76 -151.5t-47.5 -195t-17.5 -195.5
q0 -166 90 -166z" />
    <glyph glyph-name="one.sub" horiz-adv-x="352" 
d="M166 25q-14 -65 -13.5 -103t17.5 -84v-2h-211v2q34 49 49 86t27 101l82 436h-78l2 12q100 48 225 162h13z" />
    <glyph glyph-name="two.sub" horiz-adv-x="542" 
d="M-92 -164l4 14q239 226 327.5 368t88.5 274q0 122 -80 122q-41 0 -85.5 -48t-105.5 -144l-10 4l51 182q92 33 160 33q99 0 151 -45.5t52 -130.5q0 -121 -101 -237.5t-321 -274.5h182q55 0 91.5 23t82.5 73l6 -2l-79 -211h-414z" />
    <glyph glyph-name="three.sub" horiz-adv-x="542" 
d="M115 -180q-96 0 -150 33l-14 188l10 2q38 -100 75.5 -148.5t88.5 -48.5q71 0 116.5 86t45.5 191q0 162 -109 162q-54 0 -115 -47l-8 12l283 256h-279l62 115h373l-2 -11l-334 -303q33 10 61 10q83 0 142 -54t59 -152q0 -121 -84 -206t-221 -85z" />
    <glyph glyph-name="four.sub" horiz-adv-x="546" 
d="M143 -162q29 47 42.5 84t25.5 103l4 16h-276l2 14l389 570h155l-510 -555h244l45 237h133l-43 -237h76l-10 -29h-72l-2 -16q-12 -66 -12 -104.5t12 -82.5v-2h-205z" />
    <glyph glyph-name="six.sub" horiz-adv-x="587" 
d="M182 -180q-93 0 -144.5 65.5t-51.5 177.5q0 61 15.5 124t51.5 131.5t89.5 127.5t136 111.5t184.5 83.5l4 -14q-200 -90 -297 -346q57 79 143 79q75 0 121.5 -52t46.5 -144q0 -139 -91.5 -241.5t-207.5 -102.5zM188 -154q43 0 81 53t58.5 129.5t20.5 149.5q0 71 -20.5 101
t-59.5 30q-33 0 -64.5 -21t-49.5 -57q-41 -116 -41 -241q0 -144 75 -144z" />
    <glyph glyph-name="seven.sub" horiz-adv-x="481" 
d="M-29 -164q144 336 428 668h-368l45 121h418v-11q-265 -408 -379 -778h-144z" />
    <glyph glyph-name="eight.sub" horiz-adv-x="577" 
d="M193 -180q-93 0 -152 49t-59 135q0 76 49 133.5t149 85.5q-47 40 -71.5 82.5t-24.5 104.5q0 100 68.5 163.5t166.5 63.5q84 0 131.5 -44.5t47.5 -117.5q0 -66 -42 -121t-130 -78q32 -28 49 -45t39 -45t31.5 -59.5t9.5 -69.5q0 -107 -76.5 -172t-185.5 -65zM201 -154
q63 0 104 42.5t41 105.5q0 41 -22.5 81t-46 63t-66.5 59l-18 16q-123 -75 -123 -211q0 -72 35 -114t96 -42zM311 289q99 73 99 196q0 60 -27 93.5t-76 33.5q-55 0 -88 -34t-33 -93q0 -57 31.5 -100.5t91.5 -93.5z" />
    <glyph glyph-name="nine.sub" horiz-adv-x="587" 
d="M309 639q93 0 145 -65.5t52 -176.5q0 -77 -26 -157.5t-79.5 -161.5t-149.5 -150t-222 -108l-4 14q200 90 297 346q-58 -80 -144 -80q-75 0 -121.5 52.5t-46.5 144.5q0 140 91.5 241t207.5 101zM303 614q-43 0 -81 -53t-58.5 -129t-20.5 -149q0 -71 20.5 -101t59.5 -30
q33 0 65 20.5t50 56.5q41 116 41 242q0 143 -76 143z" />
    <glyph glyph-name="plus.sub" horiz-adv-x="645" 
d="M301 217v-252h-41v252h-250v37h250v252h41v-252h252v-37h-252z" />
    <glyph glyph-name="minus.sub" horiz-adv-x="645" 
d="M10 217v37h543v-37h-543z" />
    <glyph glyph-name="five.sup" horiz-adv-x="512" 
d="M274 872q-89 0 -143 33l-16 189l10 2q38 -100 75.5 -148.5t88.5 -48.5q71 0 115.5 86.5t44.5 200.5q0 174 -123 174q-55 0 -119 -41l-6 4l112 354h334l-39 -116h-305l-65 -201q54 31 129 31q94 0 154.5 -54t60.5 -161q0 -131 -88.5 -217.5t-219.5 -86.5z" />
    <glyph glyph-name="zero.sup" horiz-adv-x="671" 
d="M760 1391q0 -138 -55 -259.5t-141 -190.5t-177 -69q-98 0 -157.5 83.5t-59.5 220.5q0 104 33 201t85.5 165.5t120 110t134.5 41.5q99 0 158 -83t59 -220zM391 899q68 0 125.5 102t86 238.5t28.5 261.5q0 166 -90 166q-68 0 -125.5 -102t-86 -238.5t-28.5 -261.5
q0 -166 90 -166z" />
    <glyph glyph-name="one.sup" horiz-adv-x="352" 
d="M338 1077q-14 -65 -13.5 -102.5t17.5 -83.5v-2h-211v2q34 49 49 85.5t27 100.5l82 436h-78l2 13q100 48 225 162h13z" />
    <glyph glyph-name="two.sup" horiz-adv-x="542" 
d="M86 889l4 14q239 226 327.5 367.5t88.5 273.5q0 123 -80 123q-41 0 -84.5 -47.5t-105.5 -144.5l-11 4l51 182q92 33 160 33q99 0 151 -45.5t52 -130.5q0 -121 -101 -237.5t-321 -274.5h182q55 0 91.5 23t82.5 73l7 -2l-80 -211h-414z" />
    <glyph glyph-name="three.sup" horiz-adv-x="542" 
d="M293 872q-96 0 -150 33l-14 189l10 2q38 -100 75.5 -148.5t88.5 -48.5q71 0 116.5 86t45.5 191q0 161 -109 161q-53 0 -114 -47l-9 13l283 256h-278l61 114h373l-2 -10l-334 -303q33 10 61 10q83 0 142 -54t59 -153q0 -121 -84 -206t-221 -85z" />
    <glyph glyph-name="four.sup" horiz-adv-x="546" 
d="M322 891q29 47 42 83t25 103l4 17h-276l2 14l389 569h156l-510 -555h243l45 238h133l-43 -238h76l-10 -28h-72l-2 -17q-12 -66 -12 -104t12 -82v-2h-205z" />
    <glyph glyph-name="six.sup" horiz-adv-x="587" 
d="M360 872q-93 0 -144.5 66t-51.5 178q0 61 15.5 124t51.5 131.5t89.5 127.5t136 111.5t184.5 83.5l4 -15q-200 -90 -297 -346q58 80 144 80q75 0 121 -52t46 -144q0 -139 -91.5 -242t-207.5 -103zM367 899q43 0 80.5 53t58 129t20.5 150q0 71 -20.5 101t-59.5 30
q-33 0 -64.5 -21t-49.5 -57q-41 -116 -41 -242q0 -143 76 -143z" />
    <glyph glyph-name="seven.sup" horiz-adv-x="481" 
d="M150 889q143 334 428 667h-369l45 121h418v-10q-265 -408 -379 -778h-143z" />
    <glyph glyph-name="eight.sup" horiz-adv-x="577" 
d="M371 872q-93 0 -152 49.5t-59 135.5q0 76 49 133.5t149 85.5q-47 41 -71.5 82.5t-24.5 103.5q0 100 69 164t167 64q83 0 130.5 -44.5t47.5 -117.5q0 -66 -42 -121t-130 -78q32 -28 49 -45t39 -45t31.5 -59.5t9.5 -69.5q0 -107 -77 -172.5t-185 -65.5zM379 899
q63 0 104 42.5t41 105.5q0 41 -22.5 81t-46 62.5t-66.5 58.5l-18 17q-123 -75 -123 -211q0 -72 35 -114t96 -42zM489 1341q99 73 99 197q0 60 -27 93.5t-76 33.5q-55 0 -87.5 -34t-32.5 -93q0 -57 31.5 -101t90.5 -94z" />
    <glyph glyph-name="nine.sup" horiz-adv-x="587" 
d="M211 887q200 90 297 346q-58 -80 -143 -80q-75 0 -121.5 52.5t-46.5 144.5q0 139 91.5 241.5t207.5 102.5q93 0 144.5 -66t51.5 -178q0 -61 -15.5 -124t-51.5 -131t-89.5 -127.5t-136 -111.5t-184.5 -84zM410 1204q30 0 61 19.5t53 56.5q41 137 41 244q0 143 -76 143
q-43 0 -80.5 -53t-58 -129t-20.5 -150q0 -71 20.5 -101t59.5 -30z" />
    <glyph glyph-name="plus.sup" horiz-adv-x="645" 
d="M481 1262v-252h-41v252h-250v36h250v252h41v-252h252v-36h-252z" />
    <glyph glyph-name="minus.sup" horiz-adv-x="645" 
d="M190 1262v36h543v-36h-543z" />
    <glyph glyph-name="space_uni0326.alt" horiz-adv-x="614" 
d="M614 1571q-58 -39 -94.5 -85.5t-36.5 -82.5q0 -55 62 -117v-4l-121 -86q-66 52 -66 119q0 52 43 106.5t94.5 90.5t112.5 69z" />
    <glyph glyph-name="caron.alt" horiz-adv-x="759" 
d="M436 1587h156l-258 -416l-15 5z" />
    <glyph glyph-name="space.uc" horiz-adv-x="391" 
 />
    <glyph glyph-name="questiondown.uc" horiz-adv-x="808" 
d="M696 1075q-25 -88 -67.5 -165t-90 -132t-99.5 -106.5t-98.5 -99t-84.5 -97.5t-60 -113.5t-22 -136.5q0 -106 43.5 -162.5t128.5 -56.5q88 0 166.5 68.5t187.5 218.5l13 -6l-92 -258q-149 -60 -295 -60q-147 0 -233.5 69.5t-86.5 205.5q0 76 28 141t75 115.5t105.5 97
t124 95.5t125.5 101.5t114 125t86 155.5h32zM719 1507q47 0 79.5 -33.5t32.5 -80.5q0 -49 -32.5 -83t-79.5 -34q-48 0 -81.5 34t-33.5 83q0 47 34 80.5t81 33.5z" />
    <glyph glyph-name="exclamdown.uc" horiz-adv-x="440" 
d="M37 4l293 1071h30l-159 -1071l-2 -4h-164zM393 1507q47 0 81 -33.5t34 -80.5q0 -49 -33.5 -83t-81.5 -34q-47 0 -80.5 34t-33.5 83q0 47 33.5 80.5t80.5 33.5z" />
    <glyph glyph-name="hyphen.uc" horiz-adv-x="569" 
d="M104 729l19 90h438l-16 -90h-441z" />
    <glyph glyph-name="endash.uc" horiz-adv-x="983" 
d="M113 750l6 38h848l-6 -38h-848z" />
    <glyph glyph-name="emdash.uc" horiz-adv-x="1472" 
d="M113 750l6 38h1337l-8 -38h-1335z" />
    <glyph glyph-name="guilsinglleft.uc" horiz-adv-x="518" 
d="M356 229l-221 359l10 41l373 358l12 -12l-266 -377l109 -358z" />
    <glyph glyph-name="guilsinglright.uc" horiz-adv-x="518" 
d="M203 987l221 -358l-10 -41l-373 -359l-12 13l266 376l-109 359z" />
    <glyph glyph-name="guillemotleft.uc" horiz-adv-x="788" 
d="M639 229l-221 359l10 41l373 358l12 -12l-266 -377l108 -358zM344 229l-221 359l10 41l373 358l12 -12l-266 -377l108 -358z" />
    <glyph glyph-name="guillemotright.uc" horiz-adv-x="788" 
d="M494 987l221 -358l-10 -41l-373 -359l-13 13l267 376l-109 359zM199 987l221 -358l-10 -41l-373 -359l-12 13l266 376l-109 359z" />
    <glyph glyph-name="parenleft.uc" horiz-adv-x="630" 
d="M410 -184q-104 104 -174 285.5t-70 412.5q0 182 44 347t126.5 303t190.5 252.5t245 211.5l14 -20q-221 -208 -355 -513.5t-134 -666.5q0 -194 36.5 -349t94.5 -247z" />
    <glyph glyph-name="parenright.uc" horiz-adv-x="630" 
d="M301 1628q104 -104 174 -285.5t70 -412.5q0 -182 -44 -347t-126.5 -303t-190.5 -252.5t-245 -211.5l-15 20q221 208 355.5 514t134.5 666q0 194 -36.5 349t-94.5 247z" />
    <glyph glyph-name="bracketleft.uc" horiz-adv-x="671" 
d="M418 1628h432l-8 -39h-305l-353 -1734h308l-11 -39h-430z" />
    <glyph glyph-name="bracketright.uc" horiz-adv-x="671" 
d="M332 -184h-432l8 39h305l352 1734h-307l10 39h430z" />
    <glyph glyph-name="braceleft.uc" horiz-adv-x="630" 
d="M385 -184q-291 0 -291 204q0 66 34 140t74.5 130t74.5 129t34 138q0 78 -48.5 111.5t-141.5 33.5h-35l10 39h33q224 0 260 185q12 65 -1.5 151.5t-27 147t1.5 151.5q24 119 123.5 185.5t268.5 66.5h53l-6 -39h-53q-210 0 -252 -213q-14 -80 -6.5 -223t-6.5 -207
q-12 -60 -38.5 -102.5t-65 -67t-82 -37t-98.5 -16.5l-2 -6q92 -5 146 -48t54 -132q0 -60 -26.5 -134t-58.5 -133.5t-58.5 -133.5t-26.5 -134q0 -80 44 -113.5t124 -33.5h54l-9 -39h-55z" />
    <glyph glyph-name="braceright.uc" horiz-adv-x="630" 
d="M326 1628q290 0 290 -205q0 -55 -22.5 -112.5t-54 -107.5t-63.5 -99.5t-54.5 -106t-22.5 -110.5q0 -78 49 -112t142 -34h35l-11 -39h-32q-109 0 -175 -43t-85 -141q-10 -52 -3.5 -114.5t18 -110.5t17 -110.5t-5.5 -114.5q-24 -119 -123.5 -185.5t-267.5 -66.5h-53l6 39
h53q210 0 252 213q14 80 6 223t6 207q12 60 38.5 102.5t65.5 67t82.5 37t98.5 16.5l2 6q-92 5 -146.5 48t-54.5 132q0 60 26.5 134t58.5 133.5t58.5 133.5t26.5 134q0 80 -44 113.5t-124 33.5h-53l8 39h56z" />
    <glyph glyph-name="slash.uc" horiz-adv-x="737" 
d="M942 1681h55l-1130 -1865h-55z" />
    <glyph glyph-name="backslash.uc" horiz-adv-x="735" 
d="M139 1681l613 -1865h-52l-612 1865h51z" />
    <glyph glyph-name="bar.uc" horiz-adv-x="417" 
d="M236 -182v1865h49v-1865h-49z" />
    <glyph glyph-name="at.uc" horiz-adv-x="1722" 
d="M891 -84q-166 0 -309 51t-247.5 144t-164 233t-59.5 309q0 144 42.5 278.5t124 245.5t192 194.5t254 130t302.5 46.5q316 0 500 -169t184 -466q0 -122 -33.5 -232t-92.5 -192t-145 -130t-186 -48q-65 0 -113 22.5t-73 58.5t-36 83.5t-7.5 95.5t16.5 97l2 12
q-70 -167 -163.5 -275t-190.5 -108q-76 0 -120 60.5t-44 174.5t43 230t114.5 208t173.5 150t212 58q95 0 154 -33l65 33h12l-131 -494q-20 -75 -26.5 -131t1 -104t40.5 -73.5t92 -25.5q103 0 185 79t125.5 207t43.5 277q0 284 -164.5 439t-443.5 155q-146 0 -274.5 -45
t-224 -125t-165 -187t-104.5 -234.5t-35 -264.5q0 -213 87 -371.5t240.5 -240.5t354.5 -82q123 0 238 32t200 91l17 -33q-183 -131 -463 -131zM754 403q35 0 73 28t69 69t65.5 103t58 112.5t51.5 115.5l64 248q-31 60 -107 60q-74 0 -142.5 -57t-115.5 -144t-75.5 -189
t-28.5 -192q0 -154 88 -154z" />
    <glyph glyph-name="grave.uc" horiz-adv-x="759" 
d="M774 1602l-444 225l98 137l358 -346z" />
    <glyph glyph-name="dieresis.uc" horiz-adv-x="761" 
d="M897 1778q0 -41 -29.5 -71t-70.5 -30t-71 30t-30 71t30 71.5t71 30.5t70.5 -30.5t29.5 -71.5zM516 1778q0 -42 -30 -71.5t-72 -29.5q-41 0 -71 30t-30 71t30 71.5t71 30.5q42 0 72 -30t30 -72z" />
    <glyph glyph-name="macron.uc" horiz-adv-x="612" 
d="M264 1796h537l-19 -84h-536z" />
    <glyph glyph-name="acute.uc" horiz-adv-x="759" 
d="M799 1964l73 -137l-501 -225l-11 16z" />
    <glyph glyph-name="circumflex.uc" horiz-adv-x="761" 
d="M637 1774l-330 -172l-10 16l354 317h11l223 -317l-17 -16z" />
    <glyph glyph-name="caron.uc" horiz-adv-x="612" 
d="M514 1602l-223 317l16 16l232 -172l329 172l11 -16l-355 -317h-10z" />
    <glyph glyph-name="breve.uc" horiz-adv-x="761" 
d="M600 1751q191 0 252 162h16q-5 -35 -16.5 -69.5t-34 -72.5t-53 -67t-77.5 -47.5t-103 -18.5q-55 0 -98.5 19t-68.5 48t-41 66.5t-21 72.5t-3 69h17q37 -162 231 -162z" />
    <glyph glyph-name="dotaccent.uc" horiz-adv-x="761" 
d="M700 1778q0 -42 -30 -71.5t-72 -29.5q-41 0 -70.5 30t-29.5 71t29.5 71.5t70.5 30.5q42 0 72 -30t30 -72z" />
    <glyph glyph-name="ring.uc" horiz-adv-x="614" 
d="M330 1774q0 75 50 124.5t128 49.5t128 -48t50 -126q0 -77 -51 -124.5t-127 -47.5t-127 47.5t-51 124.5zM397 1774q0 -64 29 -100t82 -36t81.5 36t28.5 100q0 63 -28.5 101t-81.5 38t-82 -38t-29 -101z" />
    <glyph glyph-name="tilde.uc" horiz-adv-x="761" 
d="M483 1843q46 0 93 -23.5l94 -47t92 -23.5q51 0 84.5 28.5t66.5 96.5l17 -2q-9 -35 -17.5 -61t-26.5 -62t-40 -59.5t-57 -40.5t-78 -17q-57 0 -143 47t-140 47q-50 0 -87 -29t-67 -95l-16 2q7 40 21.5 77t39.5 76t67.5 62.5t96.5 23.5z" />
    <glyph glyph-name="hungarumlaut.uc" horiz-adv-x="759" 
d="M877 1944l96 -115l-338 -227l-10 14zM539 1944l96 -115l-336 -227l-12 14z" />
    <glyph glyph-name="Cacute.pl" horiz-adv-x="1243" 
d="M1071 102q-56 -44 -180 -88.5t-258 -44.5q-174 0 -295.5 82.5t-179.5 224t-58 330.5q0 183 59.5 352t161.5 295t249 201.5t313 75.5q104 0 197 -28.5t149 -59.5l22 -322l-18 -4q-85 201 -176.5 287t-214.5 86q-104 0 -196 -53.5t-158.5 -144.5t-115 -210.5t-72.5 -254
t-24 -271.5q0 -247 95 -396t266 -149q61 0 118.5 22.5t104.5 57t98 92t90 112t89 132.5l20 -4zM987 1968l121 -88l-285 -278l-16 10z" />
    <glyph glyph-name="Nacute.pl" horiz-adv-x="1218" 
d="M358 1303l-168 -941q-23 -114 -16.5 -189t53.5 -169v-4h-227v4q49 68 75.5 124.5t37 95.5t30.5 138l146 803l-2 -4q10 62 13.5 90.5t5 68t-5.5 63.5t-21.5 52.5t-40.5 59.5v4h213l522 -1225l153 863q22 114 17 189t-47 169v4h227v-4q-71 -98 -98.5 -166.5t-48.5 -191.5
l-205 -1137l-51 -6zM954 1968l121 -88l-284 -278l-17 10z" />
    <glyph glyph-name="Oacute.pl" horiz-adv-x="1368" 
d="M1360 905q0 -181 -62.5 -353.5t-165 -300t-242.5 -205t-288 -77.5t-262.5 79.5t-177 221.5t-62.5 324q0 181 62.5 353.5t165 300t242.5 205t288 77.5t262.5 -79.5t177 -221.5t62.5 -324zM276 528q0 -237 86 -377.5t252 -140.5q104 0 195.5 55.5t158.5 150t116 217
t73.5 260.5t24.5 278q0 238 -85 378t-251 140q-128 0 -237.5 -85t-181 -222.5t-111.5 -308t-40 -345.5zM1016 1968l121 -88l-285 -278l-16 10z" />
    <glyph glyph-name="Sacute.pl" 
d="M934 1133l-19 -5q-65 202 -138.5 281.5t-166.5 79.5q-107 0 -174 -75t-67 -189q0 -55 15.5 -104t51.5 -98.5t62.5 -78.5t80.5 -83l19 -19q53 -53 86 -92t70 -95.5t55 -121.5t18 -138q0 -201 -126.5 -313.5t-325.5 -112.5q-90 0 -178.5 22t-151.5 58l-14 365l18 4
q76 -220 163.5 -314t203.5 -94q84 0 147.5 45.5t95 118t31.5 158.5q0 62 -17.5 117t-55 106.5t-68.5 84.5t-86 85l-82 86q-143 150 -143 330q0 125 59 215t150.5 132t201.5 42q153 0 275 -66zM782 1968l121 -88l-285 -278l-16 10z" />
    <glyph glyph-name="Zacute.pl" horiz-adv-x="1009" 
d="M-45 0v23l979 1441l-266 -8q-63 -3 -115.5 -20t-91 -40t-83 -69.5t-75 -86.5t-82.5 -114l-18 9l133 364h788v-22l-974 -1444l307 12q65 3 120 21.5t98 46.5t89 78.5t82.5 101.5t87.5 131l18 -6l-155 -418h-842zM834 1968l120 -88l-284 -278l-17 10z" />
    <glyph glyph-name="acute.pl" horiz-adv-x="614" 
d="M449 1534l126 -66l-268 -356l-16 8z" />
    <glyph glyph-name="acute.ucpl" horiz-adv-x="614" 
d="M602 1968l121 -88l-285 -278l-16 10z" />
    <glyph glyph-name="cacute.pl" horiz-adv-x="782" 
d="M694 289q-45 -147 -136.5 -233.5t-221.5 -86.5q-143 0 -221 103.5t-78 275.5q0 124 42 244t113 211t171.5 147t209.5 56q60 0 110.5 -14t74.5 -29l8 -232l-18 -4q-29 60 -49.5 97t-48.5 74t-58.5 54t-65.5 17q-41 0 -86.5 -24.5t-89 -73t-78.5 -113.5t-56 -154t-21 -186
q0 -161 57 -244.5t166 -83.5q74 0 138 45.5t120 159.5zM608 1534l127 -66l-268 -356l-16 8z" />
    <glyph glyph-name="divide.osf" horiz-adv-x="1101" 
d="M98 477v41h906v-41h-906zM530 43q-47 0 -80.5 34t-33.5 81t33.5 80.5t80.5 33.5t81 -33.5t34 -80.5t-34 -81t-81 -34zM530 717q-47 0 -80.5 33.5t-33.5 80.5t33.5 81t80.5 34t81 -34t34 -81t-34 -80.5t-81 -33.5z" />
    <glyph glyph-name="eight.osf" horiz-adv-x="864" 
d="M391 -20q-71 0 -134.5 21.5t-114 63t-80 108t-29.5 149.5q0 145 92 262.5t278 185.5q-46 46 -75.5 81t-61.5 84t-47.5 104.5t-15.5 117.5q0 166 107 269.5t257 103.5q128 0 216.5 -80.5t88.5 -216.5q0 -54 -15 -107.5t-47.5 -109.5t-93.5 -106t-145 -85q50 -48 85 -89.5
t70 -97t53 -120.5t18 -137q0 -126 -59 -219t-150 -137.5t-197 -44.5zM324 1227q0 -58 16.5 -109.5t52 -99.5t64.5 -79t80 -80q13 -13 20 -19q205 147 205 385q0 124 -55.5 194t-153.5 70q-103 0 -166 -73t-63 -189zM403 20q125 0 194 78t69 211q0 57 -15.5 112t-35 94.5
t-58.5 88.5t-63.5 75t-73.5 75q-277 -163 -277 -439q0 -144 68.5 -219.5t191.5 -75.5z" />
    <glyph glyph-name="equal.osf" horiz-adv-x="1089" 
d="M92 641v43h905v-43h-905zM92 352v43h905v-43h-905z" />
    <glyph glyph-name="f.short" horiz-adv-x="542" 
d="M272 936h-120l8 39h121l28 133q53 247 135 367t185 120q57 0 100 -24l14 -213l-12 -4q-11 21 -23.5 45.5t-19.5 39t-16 32t-14.5 27t-12.5 20t-11.5 16t-10.5 10.5t-11.5 6.5t-11.5 1.5q-19 0 -34.5 -22.5t-39 -100.5t-55.5 -227l-47 -227h190l-8 -39h-190l-271 -1274
h-143z" />
    <glyph glyph-name="f_f.short" horiz-adv-x="1009" 
d="M272 936h-120l8 39h121l28 131q46 221 144.5 334.5t230.5 113.5q47 0 107 -24l14 -193l-12 -2q-28 47 -43.5 71.5t-37 52.5t-40.5 40t-39 12q-94 0 -170 -350l-39 -186h326l28 133q53 247 135 367t185 120q57 0 100 -24l14 -213l-12 -4q-11 21 -23.5 45.5t-19.5 39
t-16 32t-14.5 27t-12.5 20t-11.5 16t-10.5 10.5t-11.5 6.5t-11.5 1.5q-19 0 -34.5 -22.5t-39 -100.5t-55.5 -227l-47 -227h190l-8 -39h-190l-271 -1274h-143l270 1274h-325l-271 -1274h-143z" />
    <glyph glyph-name="five.osf" horiz-adv-x="759" 
d="M125 -502q-83 0 -162 25t-121 63l-20 275l14 2q64 -165 137 -244.5t174 -79.5q132 0 213.5 119.5t81.5 294.5q0 184 -93 310.5t-265 187.5l229 567h498l-59 -141h-451l-125 -308q177 -57 285 -198t108 -351q0 -149 -51.5 -266t-153.5 -186.5t-239 -69.5z" />
    <glyph glyph-name="four.osf" horiz-adv-x="841" 
d="M418 0h-488v18l799 1020h16l-170 -929h195l-39 -109h-174l-74 -399h-137zM553 745l-502 -636h387z" />
    <glyph glyph-name="four.osfalt" horiz-adv-x="831" 
d="M418 0h-498l4 18l721 959h186l-856 -930h451l57 322h140l-58 -322h180l-16 -47h-174l-72 -399h-137z" />
    <glyph glyph-name="greater.osf" horiz-adv-x="1085" 
d="M106 41v51l838 402l-838 401v51l881 -426v-53z" />
    <glyph glyph-name="less.osf" horiz-adv-x="1085" 
d="M70 467v53l880 426v-51l-837 -401l837 -402v-51z" />
    <glyph glyph-name="minus.osf" horiz-adv-x="1089" 
d="M92 477v41h905v-41h-905z" />
    <glyph glyph-name="multiply.osf" horiz-adv-x="966" 
d="M485 465l-348 -348l-33 30l349 349l-349 348l33 30l348 -346l346 346l33 -30l-348 -348l348 -349l-33 -30z" />
    <glyph glyph-name="nacute.pl" horiz-adv-x="987" 
d="M752 705q20 75 0.5 129.5t-76.5 54.5q-175 0 -414 -555l-12 -60q-21 -95 -24 -147.5t12 -122.5v-4h-226v4q39 66 60.5 139t50.5 213l63 301q42 190 -39 271v4l256 84l-116 -537q63 152 135.5 267t160 187.5t173.5 72.5q90 0 129.5 -78.5t9.5 -220.5l-98 -447
q-34 -124 -21.5 -178.5t92.5 -65.5v-4l-276 -30zM702 1534l127 -66l-268 -356l-16 8z" />
    <glyph glyph-name="nine.osf" horiz-adv-x="950" 
d="M555 1047q159 0 250.5 -119t91.5 -322q0 -119 -33 -243t-105.5 -252.5t-176.5 -242.5t-257 -214.5t-337 -167.5l-6 18q210 94 370 261t256 370q-102 -117 -246 -117q-150 0 -233.5 107.5t-83.5 282.5q0 161 68.5 308.5t187 239t254.5 91.5zM551 1006q-85 0 -156 -66
t-113.5 -168t-65.5 -215t-23 -217q0 -146 47.5 -214.5t142.5 -68.5q159 0 268 174q97 253 97 463q0 146 -50.5 229t-146.5 83z" />
    <glyph glyph-name="oacute.pl" horiz-adv-x="870" 
d="M834 643q0 -165 -72.5 -322t-190 -254.5t-241.5 -97.5q-136 0 -214.5 96.5t-78.5 266.5q0 165 72.5 322t190 254.5t241.5 97.5q136 0 214.5 -96.5t78.5 -266.5zM190 279q0 -273 146 -273q65 0 127.5 53.5t110.5 144.5t77 220t29 270q0 275 -145 275q-89 0 -168.5 -90.5
t-128 -251t-48.5 -348.5zM643 1534l127 -66l-268 -356l-17 8z" />
    <glyph glyph-name="one.osf" horiz-adv-x="495" 
d="M291 289q-19 -117 -13 -171t44 -114v-4h-310v4q64 56 92 113.5t48 171.5l104 590h-150l5 22l311 137h4z" />
    <glyph glyph-name="plus.osf" horiz-adv-x="1089" 
d="M567 477v-430h-45v430h-430v41h430v430h45v-430h430v-41h-430z" />
    <glyph glyph-name="sacute.pl" horiz-adv-x="657" 
d="M616 743l-14 -4q-59 126 -110.5 178t-112.5 52t-97 -43.5t-36 -106.5q0 -42 17.5 -80.5t45.5 -69.5t62.5 -63t68.5 -67t62 -73t45.5 -89.5t17.5 -110.5q0 -138 -86.5 -217.5t-218.5 -79.5q-72 0 -136.5 19t-100.5 49l-9 260l15 4q119 -295 266 -295q68 0 113 48.5
t45 131.5q0 63 -32.5 118t-78.5 98.5t-92 89t-78.5 109t-32.5 138.5q0 128 82.5 197.5t204.5 69.5q108 0 188 -37zM528 1534l127 -66l-268 -356l-16 8z" />
    <glyph glyph-name="seven.osf" horiz-adv-x="788" 
d="M-84 -502q173 391 387 756t416 623h-615l54 141h684v-21q-191 -263 -386.5 -656.5t-365.5 -842.5h-174z" />
    <glyph glyph-name="six.osf" horiz-adv-x="950" 
d="M393 -20q-159 0 -250.5 118.5t-91.5 321.5q0 119 33 243t105.5 252.5t177 242.5t257.5 214.5t337 167.5l6 -18q-210 -94 -370.5 -261t-256.5 -370q102 117 246 117q150 0 233.5 -107.5t83.5 -282.5q0 -161 -68.5 -308.5t-187 -238.5t-254.5 -91zM397 20q69 0 129 43.5
t101.5 114t71 159t43.5 178t14 171.5q0 146 -48 214.5t-143 68.5q-159 0 -268 -174q-96 -250 -96 -463q0 -146 50 -229t146 -83z" />
    <glyph glyph-name="three.osf" horiz-adv-x="774" 
d="M166 -502q-97 0 -179.5 27.5t-129.5 66.5l-21 275l14 2q65 -169 147.5 -249.5t203.5 -80.5q77 0 135.5 31.5t92.5 84t50.5 113.5t16.5 128q0 161 -91 268t-229 151v11q223 82 319.5 196t96.5 260q0 104 -41 160.5t-115 56.5q-43 0 -83 -19.5t-80.5 -61.5t-73 -85
t-80.5 -114l-10 4l84 250q41 22 110.5 43.5t142.5 21.5q132 0 206.5 -75t74.5 -187q0 -127 -97 -233t-263 -160q111 -57 185.5 -163t74.5 -259q0 -199 -127 -331t-334 -132z" />
    <glyph glyph-name="three.osfalt" horiz-adv-x="774" 
d="M166 -502q-97 0 -179.5 27.5t-129.5 66.5l-21 275l14 2q65 -169 147.5 -249.5t203.5 -80.5q77 0 135.5 31t92.5 83t50.5 113t16.5 128q0 163 -91 270t-229 151v11q115 42 198.5 94t130 108t68 110t21.5 110q0 92 -52.5 142t-150.5 50q-122 0 -227 -80l-10 10
q141 168 311 168q119 0 190.5 -67.5t71.5 -182.5q0 -128 -98.5 -239.5t-261.5 -165.5q111 -57 185.5 -163t74.5 -259q0 -199 -127 -331t-334 -132z" />
    <glyph glyph-name="two.osf" horiz-adv-x="770" 
d="M-55 0v16q317 206 460.5 405t143.5 376q0 99 -38 150.5t-101 51.5q-71 0 -141 -69.5t-163 -216.5l-12 4l84 254q110 67 244 67q128 0 202 -74t74 -190q0 -160 -147.5 -328t-405.5 -313h322q67 0 105.5 25.5t84.5 93.5l13 -6l-86 -246h-639z" />
    <glyph glyph-name="two.osfalt" horiz-adv-x="780" 
d="M-45 0l2 16q158 97 277 198t189 193.5t104 175.5t34 158q0 101 -51 151t-141 50q-117 0 -224 -82l-8 10q72 81 147.5 124.5t166.5 43.5q113 0 185.5 -68.5t72.5 -191.5q0 -169 -144.5 -336t-400.5 -309h315q50 0 87 16.5t58 38t54 64.5l12 -8l-117 -244h-618z" />
    <glyph glyph-name="zacute.pl" horiz-adv-x="780" 
d="M-43 0v14l676 926l-195 -8q-72 -4 -143 -49.5t-168 -134.5l-8 4l100 223h592v-19l-674 -923l246 6q88 4 159.5 52t174.5 151l8 -4l-121 -238h-647zM614 1534l127 -66l-268 -356l-16 8z" />
    <glyph glyph-name="zero.osf" horiz-adv-x="935" 
d="M358 -20q-139 0 -228 111.5t-89 285.5q0 120 46.5 241t121 213t173 149.5t196.5 57.5q139 0 228 -111.5t89 -285.5q0 -120 -46.5 -241t-121 -213t-173 -149.5t-196.5 -57.5zM373 18q84 0 157 67t118.5 170t71 220.5t25.5 224.5q0 137 -44 218t-138 81q-84 0 -157 -67
t-118.5 -170t-71.5 -220t-26 -223q0 -137 44.5 -219t138.5 -82z" />
    </font>
</defs>
</svg>
