<?xml version="1.0" standalone="no"?>
<!DOCTYPE svg PUBLIC "-//W3C//DTD SVG 1.1//EN" "http://www.w3.org/Graphics/SVG/1.1/DTD/svg11.dtd" >
<svg xmlns="http://www.w3.org/2000/svg" xmlns:xlink="http://www.w3.org/1999/xlink" version="1.1">
<metadata>
Created by FontForge 20170731 at Sun Sep 27 23:45:43 2020
 By Aleksey,,,
Copyright (c) 2016 Miguel Reyes under exclusive license to Schwartzco Inc. / Commercial Type. All rights reserved.
</metadata>
<defs>
<font id="Canela-MediumItalic" horiz-adv-x="706" >
  <font-face 
    font-family="Canela"
    font-weight="500"
    font-style="italic"
    font-stretch="normal"
    units-per-em="2048"
    panose-1="0 0 0 0 0 0 0 0 0 0"
    ascent="1587"
    descent="-461"
    x-height="985"
    cap-height="1499"
    bbox="-248 -532 2148 2345"
    underline-thickness="40"
    underline-position="-204"
    slope="-10"
    unicode-range="U+0020-FB04"
  />
<missing-glyph horiz-adv-x="329" 
 />
    <glyph glyph-name="f_b" unicode="fb" horiz-adv-x="1607" 
d="M-8 -338l268 1280h-123l10 45h121l21 94q49 230 187.5 371t309.5 141q106 0 215 -51l183 51l-221 -1003q33 96 68.5 167.5t83 133.5t109 94.5t134.5 32.5q106 0 163.5 -80t57.5 -246q0 -139 -42 -269.5t-116 -231t-183 -161.5t-234 -61q-61 0 -115 15t-102 47.5t-76.5 84
t-38.5 125.5t12 171l160 743q23 113 17.5 201.5t-33.5 143t-68 54.5q-55 0 -109.5 -94.5t-89.5 -253.5l-47 -219h178l-10 -45h-176l-270 -1280h-244zM1012 6q65 0 125.5 66.5t102 168t66.5 223t25 232.5q0 98 -22.5 137t-67.5 39q-76 0 -147 -113.5t-166 -373.5l-6 -33
q-28 -122 -21 -199t35.5 -112t75.5 -35z" />
    <glyph glyph-name="f_f_b" unicode="ffb" horiz-adv-x="2127" 
d="M516 987h275l20 94q20 97 57 179l-6 -3q-19 60 -33.5 98.5t-34 78.5t-40.5 59.5t-45 19.5q-82 0 -156 -348zM262 942h-121l11 45h120l11 53q49 229 181.5 370.5t291.5 141.5q86 0 137 -22l-12 -248q72 147 185 229t243 82q106 0 215 -51l182 51l-219 -997q34 94 68.5 164
t81.5 131.5t108.5 94t134.5 32.5q219 0 219 -326q0 -139 -42 -269.5t-115 -231t-182 -161.5t-234 -61q-61 0 -115 15t-102 47.5t-76.5 84t-38.5 125.5t12 171l160 743q23 113 17 201.5t-34.5 143t-68.5 54.5q-52 0 -108.5 -95.5t-90.5 -252.5l-45 -219h176l-8 -45h-178
l-268 -1280h-246l270 1280h-276l-270 -1280h-244zM1534 6q65 0 125.5 66.5t102 168t66.5 223t25 232.5q0 98 -22.5 137t-69.5 39q-73 0 -144.5 -114.5t-166.5 -372.5l-6 -33q-28 -122 -21 -199t35.5 -112t75.5 -35z" />
    <glyph glyph-name="f_f_h" unicode="ffh" horiz-adv-x="2162" 
d="M782 942h-276l-270 -1280h-244l270 1280h-121l11 45h120l11 53q44 230 166.5 371t279.5 141q54 0 115 -16l10 -229l-18 -4q-86 150 -109 179q-25 30 -43 31q-26 0 -60 -87.5t-71 -260.5l-37 -178h275l20 94q49 230 187.5 371t310.5 141q106 0 215 -51l182 51l-242 -1081
q189 506 441 506q104 0 155.5 -84t20.5 -240l-84 -405q-11 -48 -16.5 -79t-8.5 -62.5t0.5 -50.5t13 -36.5t27 -27.5t43.5 -17v-4l-379 -30l156 704q32 158 -59 158q-33 0 -66 -24t-63.5 -64.5t-66.5 -108.5t-68.5 -139.5t-75.5 -175.5l-4 -23q-23 -107 -27.5 -175.5
t6.5 -129.5v-4h-332v4q8 15 15.5 31.5t13.5 29.5t12.5 33t11 31.5t11 35.5t9.5 35t10.5 41t10 42t11.5 49t12 51l172 772q23 113 17.5 201.5t-34 143t-69.5 54.5q-52 0 -108.5 -95.5t-90.5 -252.5l-45 -219h176l-8 -45h-178l-268 -1280h-246z" />
    <glyph glyph-name="f_f_j" unicode="ffj" horiz-adv-x="1548" 
d="M1352 72q-56 -240 -183 -365t-299 -147l-2 14q162 85 215 332l152 700q26 139 16.5 217t-43.5 119h-186l-268 -1280h-246l270 1280h-274l-271 -1280h-243l270 1280h-123l10 45h123l11 53q44 230 166.5 371t279.5 141q54 0 115 -16l10 -229l-18 -4q-86 150 -109 179
q-25 30 -43 31q-26 0 -60 -87.5t-71 -260.5l-37 -178h272l21 94q50 236 184.5 374t321.5 138q85 0 178 -41l12 -305l-18 -4q-99 197 -136 248q-47 62 -92 63q-57 0 -99.5 -88t-80.5 -260l-45 -219h170q242 0 367 41z" />
    <glyph glyph-name="f_f_k" unicode="ffk" horiz-adv-x="2086" 
d="M262 942h-121l11 45h120l11 53q44 230 166.5 371t279.5 141q54 0 115 -16l10 -229l-18 -4q-86 150 -109 179q-25 30 -43 31q-26 0 -60 -87.5t-71 -260.5l-37 -178h275l20 94q49 230 187.5 371t310.5 141q106 0 215 -51l182 51l-233 -1079l303 277q67 61 81.5 105
t-20.5 87v4h307v-4q-93 -35 -164 -83.5t-168 -137.5l-129 -117l185 -455q31 -72 61 -115t72 -71v-4h-324l-207 510l-38 -182q-27 -123 -32.5 -184.5t9.5 -139.5v-4h-332v4q8 15 15.5 31.5t13.5 29.5t12.5 33t11 31.5t11 35.5t9.5 35t10.5 41t10 42t11.5 49t12 51l172 772
q23 113 17.5 201.5t-34 143t-69.5 54.5q-52 0 -108.5 -95.5t-90.5 -252.5l-45 -219h176l-8 -45h-178l-268 -1280h-246l270 1280h-276l-270 -1280h-244z" />
    <glyph glyph-name="f_h" unicode="fh" horiz-adv-x="1642" 
d="M506 942l-270 -1280h-244l268 1280h-123l10 45h121l21 94q49 230 187.5 371t309.5 141q106 0 215 -51l183 51l-244 -1085q31 83 64.5 154t76.5 138t88.5 114t100.5 75.5t112 28.5q104 0 158 -85t19 -239l-84 -405q-11 -48 -16.5 -79t-8.5 -62.5t0.5 -50.5t13 -36.5
t27 -27.5t43.5 -17v-4l-379 -30l156 704q18 68 3 113t-61 45q-28 0 -55.5 -15.5t-55.5 -48.5t-54 -73.5t-56.5 -103t-57.5 -124.5t-63 -149l-6 -27q-39 -175 -18 -299v-4h-332v4q8 15 15.5 31.5t13.5 29.5t12.5 33t11 31.5t11 35.5t9.5 35t10.5 41t10 42t11.5 49t12 51
l172 772q23 113 17.5 201.5t-33.5 143t-68 54.5q-55 0 -109.5 -94.5t-89.5 -253.5l-47 -219h178l-10 -45h-176z" />
    <glyph glyph-name="f_j" unicode="fj" horiz-adv-x="1026" 
d="M836 72q-56 -240 -183.5 -365t-298.5 -147l-4 14q81 43 135 122t82 210l150 700q26 139 16.5 217t-43.5 119h-184l-270 -1280h-244l268 1280h-123l10 45h121l21 94q50 236 185 374t323 138q83 0 176 -41l12 -305l-16 -4q-88 176 -134.5 243.5t-93.5 67.5q-58 0 -100 -87
t-80 -261l-47 -219h170q244 0 369 41z" />
    <glyph glyph-name="f_k" unicode="fk" horiz-adv-x="1564" 
d="M-8 -338l268 1280h-123l10 45h121l21 94q49 230 187.5 371t309.5 141q106 0 215 -51l183 51l-234 -1079l303 277q67 61 81.5 104.5t-19.5 87.5v4h307v-4q-91 -34 -160 -82t-170 -139l-131 -117l185 -455q30 -70 61 -114t72 -72v-4h-324l-207 510l-39 -182
q-24 -118 -29 -184.5t7 -139.5v-4h-332v4q8 15 15.5 31.5t13.5 29.5t12.5 33t11 31.5t11 35.5t9.5 35t10.5 41t10 42t11.5 49t12 51l172 772q23 113 17.5 201.5t-33.5 143t-68 54.5q-55 0 -109.5 -94.5t-89.5 -253.5l-47 -219h178l-10 -45h-176l-270 -1280h-244z" />
    <glyph glyph-name="f_t" unicode="ft" horiz-adv-x="1228" 
d="M260 942h-121l13 45h116l21 94q49 232 183 372t306 140q58 0 119 -16l12 -274l-18 -5q-90 173 -116 209q-33 47 -60 47q-82 0 -156 -348l-45 -219h209l344 223h18l-47 -223h236l-8 -45h-238l-143 -670q-32 -143 41 -143q74 0 194 145l21 -14q-70 -136 -161.5 -213.5
t-188.5 -77.5q-42 0 -76 15.5t-60.5 52t-30 96t14.5 148.5l143 661h-278l-268 -1280h-244z" />
    <glyph glyph-name="f_f_t" unicode="fft" horiz-adv-x="1744" 
d="M262 942h-123l11 45h122l11 53q44 230 166.5 371t279.5 141q54 0 115 -16l10 -229l-18 -4q-86 150 -109 179q-25 30 -43 31q-26 0 -60 -87.5t-71 -260.5l-37 -178h272l21 94q49 232 183 372t306 140q58 0 119 -16l10 -274l-16 -5q-91 175 -121 215q-31 41 -57 41
q-38 0 -78 -87t-76 -261l-47 -219h207l344 223h21l-50 -223h236l-8 -45h-236l-145 -670q-32 -143 43 -143q46 0 98.5 44.5t93.5 100.5l21 -14q-69 -136 -160.5 -213.5t-189.5 -77.5q-94 0 -140 74t-12 238l143 661h-274l-270 -1280h-244l270 1280h-274l-270 -1280h-244z" />
    <glyph glyph-name="f_f" unicode="ff" horiz-adv-x="1128" 
d="M262 942h-121l11 45h120l11 53q44 230 166.5 371t279.5 141q54 0 115 -16l10 -229l-18 -4q-86 150 -109 179q-25 30 -43 31q-26 0 -60 -87.5t-71 -260.5l-37 -178h275l20 94q49 232 183 372t306 140q58 0 119 -16l11 -274l-17 -5q-90 173 -116 209q-33 47 -60 47
q-82 0 -156 -348l-47 -219h178l-10 -45h-176l-270 -1280h-244l270 1280h-276l-270 -1280h-244z" />
    <glyph glyph-name="f_i" unicode="fi" horiz-adv-x="1040" 
d="M-8 -338l268 1280h-123l10 45h121l21 94q50 236 185 374t323 138q83 0 176 -41l12 -305l-16 -4q-88 176 -134.5 243.5t-93.5 67.5q-58 0 -100 -87t-80 -261l-47 -219h170q244 0 369 41l-135 -641q-32 -157 -39.5 -237t4.5 -146v-4h-332v4q11 18 21 39t17.5 36.5t16 43.5
t13 41.5t13 50t11.5 48.5t13.5 59t13.5 61l47 223q26 139 16.5 217t-43.5 119h-184l-270 -1280h-244z" />
    <glyph glyph-name="f_l" unicode="fl" horiz-adv-x="1054" 
d="M-8 -338l268 1280h-123l10 45h121l21 94q49 230 187.5 371t309.5 141q95 0 209 -49l183 49l-260 -1206q-32 -152 -38 -237t7 -146v-4h-332v4q35 64 60.5 148.5t56.5 230.5l168 772q23 113 18.5 201.5t-31.5 143t-67 54.5q-55 0 -109.5 -94.5t-89.5 -253.5l-47 -219h178
l-10 -45h-176l-270 -1280h-244z" />
    <glyph glyph-name="f_f_i" unicode="ffi" horiz-adv-x="1552" 
d="M-10 -338l270 1280h-123l10 45h123l11 53q44 230 166.5 371t279.5 141q54 0 115 -16l10 -229l-18 -4q-86 150 -109 179q-25 30 -43 31q-26 0 -60 -87.5t-71 -260.5l-37 -178h272l21 94q50 236 184.5 374t321.5 138q85 0 178 -41l12 -305l-18 -4q-99 197 -136 248
q-47 62 -92 63q-57 0 -99.5 -88t-80.5 -260l-45 -219h170q242 0 367 41l-135 -641q-32 -157 -39.5 -237t4.5 -146v-4h-332v4q16 24 29.5 52t22 49t19.5 62t15.5 60t17 76.5t17.5 79.5l47 223q26 139 16.5 217t-43.5 119h-186l-268 -1280h-246l270 1280h-274l-271 -1280h-243
z" />
    <glyph glyph-name="f_f_l" unicode="ffl" horiz-adv-x="1574" 
d="M262 942h-121l11 45h120l11 53q44 230 166.5 371t279.5 141q54 0 115 -16l10 -229l-18 -4q-86 150 -109 179q-25 30 -43 31q-26 0 -60 -87.5t-71 -260.5l-37 -178h275l20 94q49 230 187.5 371t310.5 141q95 0 209 -49l180 49l-256 -1212q-35 -156 -41 -243.5t8 -133.5v-4
h-332v4q34 63 58.5 144.5t58.5 234.5l168 772q23 113 18.5 201.5t-32 143t-68.5 54.5q-52 0 -108.5 -95.5t-90.5 -252.5l-45 -219h176l-8 -45h-178l-268 -1280h-246l270 1280h-276l-270 -1280h-244z" />
    <glyph glyph-name="f_b.alt" unicode="&#xe4c5;b" horiz-adv-x="1585" 
d="M981 -31q-62 0 -115.5 15t-101 47.5t-75 84t-37 125.5t11.5 171l161 772q18 99 13.5 181.5t-32 135.5t-67.5 53q-53 0 -109.5 -95.5t-90.5 -252.5l-47 -219h178l-11 -45h-176l-131 -614q-25 -114 -30 -184.5t8 -139.5v-4h-322v4q32 68 56.5 149.5t58.5 229.5l117 559
h-125l12 45h121l20 94q49 229 188 370.5t308 141.5q34 0 70 -6.5t55 -13t50.5 -18.5t33.5 -13l184 51l-217 -1007q34 96 69 168t82.5 135t109 96t134.5 33q106 0 163.5 -80t57.5 -246q0 -139 -42 -269.5t-116 -231t-183 -161.5t-234 -61zM989 6q86 0 161.5 111.5t117 270
t41.5 308.5q0 98 -22.5 137t-67.5 39q-76 0 -147.5 -113.5t-166.5 -373.5l-6 -33q-28 -122 -21 -199t35.5 -112t75.5 -35z" />
    <glyph glyph-name="f_f.alt" unicode="&#xe4c5;&#xe4c5;" horiz-adv-x="1105" 
d="M8 4q32 68 56.5 149.5t58.5 229.5l119 559h-127l12 45h123l14 66q46 225 167 362t278 137q51 0 112 -16l10 -229l-18 -4q-86 149 -106 176q-26 34 -45 34q-26 0 -60.5 -87.5t-71.5 -260.5l-38 -178h276l20 94q49 232 183.5 372t306.5 140q58 0 119 -16l10 -274l-16 -5
q-90 174 -118 212q-33 44 -59 44q-81 0 -155 -348l-47 -219h178l-10 -45h-176l-132 -614q-25 -114 -30 -184.5t8 -139.5v-4h-324v4q36 68 61.5 152t53.5 227l119 559h-277l-131 -614q-25 -114 -30 -184.5t8 -139.5v-4h-322v4z" />
    <glyph glyph-name="f_f_b.alt" unicode="&#xe4c5;&#xe4c5;b" horiz-adv-x="2105" 
d="M1501 -31q-62 0 -115.5 15t-101 47.5t-75 84t-37 125.5t11.5 171l162 772q18 99 13 181.5t-33 135.5t-69 53q-51 0 -107.5 -95.5t-90.5 -252.5l-47 -219h178l-10 -45h-176l-132 -614q-25 -114 -30 -184.5t8 -139.5v-4h-324v4q36 68 61.5 152t53.5 227l119 559h-277
l-131 -614q-25 -114 -30 -184.5t8 -139.5v-4h-322v4q32 68 56.5 149.5t58.5 229.5l119 559h-127l12 45h123l14 66q46 225 167 362t278 137q51 0 112 -16l10 -229l-18 -4q-86 149 -106 176q-26 34 -45 34q-26 0 -60.5 -87.5t-71.5 -260.5l-38 -178h276l20 94
q49 229 188 370.5t308 141.5q34 0 69.5 -6.5t54.5 -13t49 -18.5t34 -13l186 51l-217 -1001q26 75 53 134.5t63.5 115.5t76.5 93.5t91.5 60t110.5 22.5q106 0 164 -80t58 -246q0 -139 -42.5 -269.5t-116 -231t-183 -161.5t-234.5 -61zM1509 6q86 0 161.5 111.5t117 270
t41.5 308.5q0 98 -22.5 137t-69.5 39q-74 0 -146 -114.5t-166 -372.5l-6 -33q-28 -122 -21 -199t35.5 -112t75.5 -35z" />
    <glyph glyph-name="f_f_h.alt" unicode="&#xe4c5;&#xe4c5;h" horiz-adv-x="2140" 
d="M1808 686q19 68 4 113t-61 45q-41 0 -81 -34t-83.5 -106t-83.5 -158t-94 -216l-6 -27q-24 -103 -28 -172t9 -127v-4h-329v4q39 79 63.5 158.5t55.5 220.5l172 801q18 99 13 181.5t-33 135.5t-69 53q-51 0 -107.5 -95.5t-90.5 -252.5l-47 -219h178l-10 -45h-176l-132 -614
q-25 -114 -30 -184.5t8 -139.5v-4h-324v4q36 68 61.5 152t53.5 227l119 559h-277l-131 -614q-25 -114 -30 -184.5t8 -139.5v-4h-322v4q32 68 56.5 149.5t58.5 229.5l119 559h-127l12 45h123l14 66q46 225 167 362t278 137q51 0 112 -16l10 -229l-18 -4q-86 149 -106 176
q-26 34 -45 34q-26 0 -60.5 -87.5t-71.5 -260.5l-38 -178h276l20 94q49 229 188 370.5t308 141.5q34 0 69.5 -6.5t54.5 -13t49 -18.5t34 -13l186 51l-241 -1097q191 522 444 522q104 0 157.5 -85t18.5 -239l-84 -405q-33 -129 -23 -191.5t83 -81.5v-4l-379 -30z" />
    <glyph glyph-name="f_f_i.alt" unicode="&#xe4c5;&#xe4c5;i" horiz-adv-x="1556" 
d="M29 0v4q32 67 56 147.5t58 231.5l119 559h-127l12 45h123l15 66q46 225 166.5 362t277.5 137q52 0 113 -16l10 -229l-18 -4q-86 150 -109 179q-25 30 -43 31q-26 0 -60 -87.5t-71 -260.5l-39 -178h276l21 94q50 235 184.5 373.5t321.5 138.5q85 0 178 -41l12 -305l-16 -4
q-91 180 -135 245.5t-94 65.5q-57 0 -100.5 -88.5t-80.5 -259.5l-47 -219h172q251 0 369 41l-135 -641q-32 -157 -39.5 -237t4.5 -146v-4h-332v4q11 18 21 39t17.5 36.5t16 43.5t13 41.5t13 50t11.5 48.5t13.5 59t13.5 61l47 223q35 145 16 231t-108 105h-121l-131 -614
q-25 -115 -30.5 -184.5t7.5 -139.5v-4h-323v4q36 68 61.5 152t53.5 227l118 559h-276l-131 -614q-25 -115 -30.5 -184.5t7.5 -139.5v-4h-321z" />
    <glyph glyph-name="f_f_j.alt" unicode="&#xe4c5;&#xe4c5;j" horiz-adv-x="1550" 
d="M1356 72q-56 -239 -184.5 -364.5t-299.5 -147.5l-2 14q81 43 135 122t82 210l150 700q35 145 16 231t-108 105h-121l-131 -614q-25 -115 -30.5 -184.5t7.5 -139.5v-4h-323v4q36 68 61.5 152t53.5 227l118 559h-276l-131 -614q-25 -115 -30.5 -184.5t7.5 -139.5v-4h-321v4
q32 67 56 147.5t58 231.5l119 559h-127l12 45h123l15 66q46 225 166.5 362t277.5 137q52 0 113 -16l10 -229l-18 -4q-86 150 -109 179q-25 30 -43 31q-26 0 -60 -87.5t-71 -260.5l-39 -178h276l21 94q50 235 184.5 373.5t321.5 138.5q85 0 178 -41l12 -305l-16 -4
q-91 180 -135 245.5t-94 65.5q-57 0 -100.5 -88.5t-80.5 -259.5l-47 -219h172q251 0 369 41z" />
    <glyph glyph-name="f_f_k.alt" unicode="&#xe4c5;&#xe4c5;k" horiz-adv-x="2064" 
d="M1448 512l305 279q67 61 81.5 104.5t-19.5 87.5v4h307v-4q-92 -35 -163 -84t-167 -137l-129 -117l182 -455q30 -70 61 -114t72 -72v-4h-323zM8 4q32 68 56.5 149.5t58.5 229.5l119 559h-127l12 45h123l14 66q46 225 167 362t278 137q51 0 112 -16l10 -229l-18 -4
q-86 149 -106 176q-26 34 -45 34q-26 0 -60.5 -87.5t-71.5 -260.5l-38 -178h276l20 94q49 229 188 370.5t308 141.5q28 0 55 -3.5t53 -10.5t42 -12.5t38.5 -14.5t26.5 -10l184 51l-270 -1231q-31 -132 -36.5 -215t7.5 -143v-4h-329v4q24 46 43 99t29.5 93.5t31.5 127.5
l184 831q23 113 17.5 201.5t-34 143t-69.5 54.5q-51 0 -107.5 -95.5t-90.5 -252.5l-47 -219h178l-10 -45h-176l-132 -614q-25 -114 -30 -184.5t8 -139.5v-4h-324v4q36 68 61.5 152t53.5 227l119 559h-277l-131 -614q-25 -114 -30 -184.5t8 -139.5v-4h-322v4z" />
    <glyph glyph-name="f_f_l.alt" unicode="&#xe4c5;&#xe4c5;l" horiz-adv-x="1554" 
d="M8 4q32 68 56.5 149.5t58.5 229.5l119 559h-127l12 45h123l14 66q46 225 167 362t278 137q51 0 112 -16l10 -229l-18 -4q-86 149 -106 176q-26 34 -45 34q-26 0 -60.5 -87.5t-71.5 -260.5l-38 -178h276l20 94q49 229 188 370.5t308 141.5q34 0 69.5 -6.5t54.5 -13
t49 -18.5t34 -13l186 51l-264 -1231q-29 -138 -35 -215t6 -143v-4h-329v4q36 67 57 135t47 185l187 860q18 99 13 181.5t-33 135.5t-69 53q-51 0 -107.5 -95.5t-90.5 -252.5l-47 -219h178l-10 -45h-176l-132 -614q-25 -114 -30 -184.5t8 -139.5v-4h-324v4q36 68 61.5 152
t53.5 227l119 559h-277l-131 -614q-25 -114 -30 -184.5t8 -139.5v-4h-322v4z" />
    <glyph glyph-name="f_f_t.alt" unicode="&#xe4c5;&#xe4c5;t" horiz-adv-x="1726" 
d="M1636 260q-69 -136 -160.5 -213.5t-189.5 -77.5q-93 0 -139 74t-12 238l143 661h-274l-132 -614q-25 -114 -30 -184.5t8 -139.5v-4h-324v4q36 68 61.5 152t53.5 227l119 559h-277l-131 -614q-25 -114 -30 -184.5t8 -139.5v-4h-322v4q32 68 56.5 149.5t58.5 229.5l119 559
h-127l12 45h123l14 66q46 225 167 362t278 137q51 0 112 -16l10 -229l-18 -4q-86 149 -106 176q-26 34 -45 34q-26 0 -60.5 -87.5t-71.5 -260.5l-38 -178h276l20 94q49 232 183.5 372t306.5 140q58 0 119 -16l10 -274l-16 -5q-90 174 -118 212q-33 44 -59 44
q-81 0 -155 -348l-47 -219h209l342 223h20l-47 -223h236l-9 -45h-237l-144 -670q-32 -143 41 -143q46 0 99.5 45t93.5 100z" />
    <glyph glyph-name="f_h.alt" unicode="&#xe4c5;h" horiz-adv-x="1619" 
d="M1288 686q19 68 5 113t-62 45q-76 0 -153.5 -124t-186.5 -386l-6 -21q-24 -112 -28 -180.5t9 -128.5v-4h-331v4q39 78 62.5 156.5t55.5 222.5l172 801q18 99 13.5 181.5t-32 135.5t-67.5 53q-53 0 -109.5 -95.5t-90.5 -252.5l-47 -219h178l-11 -45h-176l-131 -614
q-25 -114 -30 -184.5t8 -139.5v-4h-322v4q32 68 56.5 149.5t58.5 229.5l117 559h-125l12 45h121l20 94q49 229 188 370.5t308 141.5q34 0 70 -6.5t55 -13t50.5 -18.5t33.5 -13l184 51l-237 -1085q31 83 64.5 154t76.5 138t88.5 114t100.5 75.5t112 28.5q101 0 155 -85
t19 -239l-84 -405q-16 -72 -21.5 -113.5t-1.5 -77t24 -54t58 -28.5v-4l-378 -30z" />
    <glyph glyph-name="f_i.alt" unicode="&#xe4c5;i" horiz-adv-x="1040" 
d="M29 0v4q32 67 56 147.5t58 231.5l117 559h-123l10 45h121l21 94q50 235 185 373.5t323 138.5q83 0 176 -41l12 -305l-16 -4q-88 176 -134.5 243.5t-93.5 67.5q-59 0 -101.5 -88t-80.5 -260l-47 -219h172q257 0 369 41l-135 -641q-32 -157 -39.5 -237t4.5 -146v-4h-332v4
q11 18 21 39t17.5 36.5t16 43.5t13 41.5t13 50t11.5 48.5t13.5 59t13.5 61l47 223q36 145 17 231t-109 105h-121l-131 -614q-25 -115 -30.5 -184.5t7.5 -139.5v-4h-321z" />
    <glyph glyph-name="f_j.alt" unicode="&#xe4c5;j" horiz-adv-x="1026" 
d="M836 72q-56 -240 -183.5 -365t-298.5 -147l-4 14q81 43 135 122t82 210l150 700q36 145 17 231t-109 105h-121l-131 -614q-25 -115 -30.5 -184.5t7.5 -139.5v-4h-321v4q32 67 56 147.5t58 231.5l117 559h-123l10 45h121l21 94q50 235 185 373.5t323 138.5q83 0 176 -41
l12 -305l-16 -4q-88 176 -134.5 243.5t-93.5 67.5q-59 0 -101.5 -88t-80.5 -260l-47 -219h172q257 0 369 41z" />
    <glyph glyph-name="f_k.alt" unicode="&#xe4c5;k" horiz-adv-x="1544" 
d="M8 0v4q32 68 56.5 149.5t58.5 229.5l117 559h-125l12 45h121l20 94q49 229 188 370.5t308 141.5q28 0 55 -3.5t53 -10.5t42 -12.5t38.5 -14.5t26.5 -10l184 51l-270 -1231q-31 -132 -36.5 -215t7.5 -143l2 -4h-331v4q24 43 44 99.5t28.5 90.5t31.5 130l184 831
q23 113 17.5 201.5t-33.5 143t-68 54.5q-53 0 -109.5 -95.5t-90.5 -252.5l-47 -219h178l-11 -45h-176l-131 -614q-25 -114 -30 -184.5t8 -139.5v-4h-322zM928 512l307 279q66 60 80 104.5t-21 87.5v4h308v-4q-92 -35 -163 -84t-167 -137l-129 -117l184 -455
q51 -131 131 -186v-4h-323z" />
    <glyph glyph-name="f_l.alt" unicode="&#xe4c5;l" horiz-adv-x="1034" 
d="M8 0v4q32 68 56.5 149.5t58.5 229.5l117 559h-125l12 45h121l20 94q49 229 188 370.5t308 141.5q34 0 70 -6.5t55 -13t50.5 -18.5t33.5 -13l184 51l-264 -1231q-29 -138 -35 -215t6 -143l2 -4h-331v4q35 63 56 131t48 189l186 860q18 99 13.5 181.5t-32 135.5t-67.5 53
q-53 0 -109.5 -95.5t-90.5 -252.5l-47 -219h178l-11 -45h-176l-131 -614q-25 -114 -30 -184.5t8 -139.5v-4h-322z" />
    <glyph glyph-name="f_t.alt" unicode="&#xe4c5;t" horiz-adv-x="1206" 
d="M1116 260q-69 -136 -160 -213.5t-188 -77.5q-43 0 -77 15.5t-59.5 52t-29.5 96t12 148.5l146 661h-277l-131 -614q-25 -114 -30 -184.5t8 -139.5v-4h-322v4q32 68 56.5 149.5t58.5 229.5l117 559h-123l10 45h121l20 94q49 232 183.5 372t306.5 140q58 0 119 -16l12 -274
l-19 -5q-90 173 -116 209q-33 47 -60 47q-81 0 -155 -348l-47 -219h208l344 223h19l-47 -223h235l-8 -45h-237l-144 -670q-32 -143 41 -143q46 0 99.5 45t93.5 100z" />
    <glyph glyph-name="f_f_k.altfk" unicode="&#xe4c5;&#xe4c5;&#xe4ca;" horiz-adv-x="2072" 
d="M1778 -25q-63 0 -118.5 47.5t-107.5 167.5q-56 126 -98 322l291 264q32 29 52 53.5t33 51t11 52t-20 50.5v4h305v-4q-92 -35 -162.5 -83.5t-167.5 -137.5l-133 -123q42 -188 102 -328q45 -100 81 -133t73 -33q49 0 72 37l6 -4q-38 -102 -88 -152.5t-131 -50.5zM8 4
q32 68 56.5 149.5t58.5 229.5l119 559h-127l12 45h123l14 66q46 225 167 362t278 137q51 0 112 -16l10 -229l-18 -4q-86 149 -106 176q-26 34 -45 34q-26 0 -60.5 -87.5t-71.5 -260.5l-38 -178h276l20 94q49 229 188 370.5t308 141.5q28 0 55 -3.5t53 -10.5t42 -12.5
t38.5 -14.5t26.5 -10l184 51l-270 -1231q-31 -132 -36.5 -215t7.5 -143v-4h-329v4q24 46 43 99t29.5 93.5t31.5 127.5l184 831q23 113 17.5 201.5t-34 143t-69.5 54.5q-51 0 -107.5 -95.5t-90.5 -252.5l-47 -219h178l-10 -45h-176l-132 -614q-25 -114 -30 -184.5t8 -139.5
v-4h-324v4q36 68 61.5 152t53.5 227l119 559h-277l-131 -614q-25 -114 -30 -184.5t8 -139.5v-4h-322v4z" />
    <glyph glyph-name="f_k.altfk" unicode="&#xe4c5;&#xe4ca;" horiz-adv-x="1552" 
d="M8 0v4q32 68 56.5 149.5t58.5 229.5l117 559h-125l12 45h121l20 94q49 229 188 370.5t308 141.5q28 0 55 -3.5t53 -10.5t42 -12.5t38.5 -14.5t26.5 -10l184 51l-270 -1231q-31 -132 -36.5 -215t7.5 -143l2 -4h-331v4q24 43 44 99.5t28.5 90.5t31.5 130l184 831
q23 113 17.5 201.5t-33.5 143t-68 54.5q-53 0 -109.5 -95.5t-90.5 -252.5l-47 -219h178l-11 -45h-176l-131 -614q-25 -114 -30 -184.5t8 -139.5v-4h-322zM1257 -25q-63 0 -118.5 47t-108.5 168q-54 129 -98 322l291 264q32 30 52 54t34 51t11.5 52.5t-22.5 49.5v4h308v-4
q-92 -35 -163 -84t-167 -137l-135 -125q53 -218 104 -326q45 -100 81 -133t73 -33q45 0 71 37l7 -4q-38 -102 -88.5 -152.5t-131.5 -50.5z" />
    <glyph glyph-name="f_f_k.altk" unicode="ff&#xe4ca;" horiz-adv-x="2095" 
d="M1800 -25q-63 0 -118 47.5t-107 167.5q-56 126 -98 322l290 264q32 29 52 53.5t33 51t11 52t-20 50.5v4h305v-4q-92 -35 -161.5 -83t-167.5 -138l-133 -123q42 -188 102 -328q45 -100 81 -133t73 -33q48 0 71 37l6 -4q-38 -102 -88 -152.5t-131 -50.5zM262 942h-121
l11 45h120l11 53q44 230 166.5 371t279.5 141q54 0 115 -16l10 -229l-18 -4q-86 150 -109 179q-25 30 -43 31q-26 0 -60 -87.5t-71 -260.5l-37 -178h275l20 94q49 230 187.5 371t310.5 141q106 0 215 -51l182 51l-274 -1265q-27 -123 -32.5 -184.5t9.5 -139.5v-4h-332v4
q8 15 15.5 31.5t13.5 29.5t12.5 33t11 31.5t11 35.5t9.5 35t10.5 41t10 42t11.5 49t12 51l172 772q23 113 17.5 201.5t-34 143t-69.5 54.5q-52 0 -108.5 -95.5t-90.5 -252.5l-45 -219h176l-8 -45h-178l-268 -1280h-246l270 1280h-276l-270 -1280h-244z" />
    <glyph glyph-name="f_k.altk" unicode="f&#xe4ca;" horiz-adv-x="1572" 
d="M-8 -338l268 1280h-123l10 45h121l21 94q49 230 187.5 371t309.5 141q106 0 215 -51l183 51l-275 -1265q-24 -118 -29 -184.5t7 -139.5v-4h-332v4q8 15 15.5 31.5t13.5 29.5t12.5 33t11 31.5t11 35.5t9.5 35t10.5 41t10 42t11.5 49t12 51l172 772q23 113 17.5 201.5
t-33.5 143t-68 54.5q-55 0 -109.5 -94.5t-89.5 -253.5l-47 -219h178l-10 -45h-176l-270 -1280h-244zM1278 -25q-63 0 -118.5 47t-108.5 168q-56 134 -99 322l291 264q32 30 52 54t34.5 51t12 52.5t-22.5 49.5v4h307v-4q-92 -35 -163 -84t-167 -137l-135 -125
q52 -214 105 -326q45 -100 80.5 -133t72.5 -33q46 0 72 37l6 -4q-38 -102 -88 -152.5t-131 -50.5z" />
    <glyph glyph-name=".notdef" horiz-adv-x="329" 
 />
    <glyph glyph-name=".null" horiz-adv-x="0" 
 />
    <glyph glyph-name="nonmarkingreturn" horiz-adv-x="682" 
 />
    <glyph glyph-name="space" unicode=" " horiz-adv-x="305" 
 />
    <glyph glyph-name="exclam" unicode="!" horiz-adv-x="501" 
d="M606 1495l-338 -1003h-35l89 1003l2 4h284zM213 -10q-65 0 -110.5 45.5t-45.5 109.5q0 66 45 112t111 46t111 -46t45 -112q0 -64 -45.5 -109.5t-110.5 -45.5z" />
    <glyph glyph-name="quotedbl" unicode="&#x22;" horiz-adv-x="671" 
d="M272 1022l-34 477h284l-229 -477h-21zM584 1022l-35 477h285l-230 -477h-20z" />
    <glyph glyph-name="numbersign" unicode="#" horiz-adv-x="1171" 
d="M854 983h-381l-108 -467h383zM735 471h-381l-108 -471h-56l109 471h-281v45h293l107 467h-283l4 45h291l109 471h53l-109 -471h383l109 471h53l-108 -471h286l-6 -45h-291l-108 -467h282v-45h-292l-109 -471h-55z" />
    <glyph glyph-name="dollar" unicode="$" horiz-adv-x="974" 
d="M977 1096l-21 -4q-68 168 -118 253.5t-105 116.5h-2l-117 -536l64 -60q50 -47 84.5 -87.5t68 -95.5t51 -120.5t17.5 -140.5q0 -112 -40 -200.5t-109 -142.5t-157.5 -82t-191.5 -28h-18l-43 -202h-51l43 204q-64 6 -123 21q-93 21 -143 47l-11 422l21 2q78 -219 168 -340
q50 -63 102 -88l125 588l-27 28q-48 48 -70 71.5t-58.5 70.5t-53.5 84t-31 92.5t-14 115.5q3 140 69 242.5t171.5 152.5t234.5 50l35 153h51l-33 -155q26 -2 105 -15q65 -13 127 -38v-379zM440 14q104 0 163 79t59 194q0 83 -36 150.5t-102 133.5l-10 9l-121 -562
q28 -4 47 -4zM651 1483q-92 0 -151.5 -67t-59.5 -173q0 -105 74 -207l57 -65l111 510q-10 2 -31 2z" />
    <glyph glyph-name="percent" unicode="%" horiz-adv-x="1482" 
d="M821 1223q0 -110 -37 -210.5t-97 -170t-136 -111t-152 -41.5q-105 0 -171 86t-66 221q0 110 37 210.5t97 170t136 111t152 41.5q104 0 170.5 -86t66.5 -221zM408 723q58 0 111 123.5t80.5 275.5t27.5 264q0 58 -12 84.5t-42 26.5q-56 0 -109 -124t-81.5 -277t-28.5 -262
q0 -111 54 -111zM205 33l1114 1489l41 -27l-1116 -1493zM1415 516q0 -110 -37 -210.5t-97 -170t-136 -110.5t-152 -41q-105 0 -171 86t-66 221q0 110 37 210.5t97 170t136 110.5t152 41q104 0 170.5 -86t66.5 -221zM1001 16q58 0 111 123.5t81 276t28 264.5q0 58 -12 84.5
t-42 26.5q-56 0 -109 -124.5t-81.5 -277.5t-28.5 -262q0 -111 53 -111z" />
    <glyph glyph-name="ampersand" unicode="&#x26;" horiz-adv-x="1648" 
d="M1546 592q0 -119 -51 -230.5t-144 -199t-237.5 -140.5t-318.5 -53q-159 0 -293.5 45.5t-227.5 124.5t-145.5 189.5t-52.5 238.5q0 190 104 299.5t269 122.5q-132 72 -132 238q0 132 91 217.5t247 85.5q80 0 151.5 -21t106.5 -47l17 -237l-21 -6q-75 128 -135 177.5
t-145 49.5q-107 0 -169.5 -63t-62.5 -179q0 -92 39.5 -142t112.5 -50q53 0 92 39l-4 -156q-27 16 -43 24t-49 16.5t-70 8.5q-132 0 -221.5 -82.5t-89.5 -222.5q0 -107 55.5 -188.5t152.5 -129.5t218.5 -72t263.5 -24q298 0 461.5 103t163.5 297q0 129 -92 196.5t-295 67.5
q-120 0 -193.5 -26t-73.5 -79q0 -63 93 -63q80 0 153 31l-27 -209q-60 -7 -106.5 5.5t-74.5 36.5t-46.5 58.5t-25.5 69.5t-7 73q0 118 76 196.5t240 100.5q126 18 252 33q38 5 66 9.5t63 13t59 20t46 27t33 38t11 50.5q0 76 -96 76q-70 0 -150 -33l27 211q59 5 105.5 -7.5
t75 -36.5t47 -59.5t25.5 -73t7 -81.5q0 -149 -86 -248.5t-272 -118.5q111 -23 172 -103.5t61 -207.5z" />
    <glyph glyph-name="quotesingle" unicode="'" horiz-adv-x="360" 
d="M272 1022l-34 477h284l-229 -477h-21z" />
    <glyph glyph-name="parenleft" unicode="(" horiz-adv-x="716" 
d="M467 -266q-309 253 -309 708q0 358 182.5 637.5t507.5 466.5l20 -14q-218 -205 -351.5 -545t-133.5 -717q0 -313 109 -526z" />
    <glyph glyph-name="parenright" unicode=")" horiz-adv-x="716" 
d="M303 1546q309 -253 309 -708q0 -358 -182.5 -637.5t-507.5 -466.5l-20 14q218 205 351.5 545t133.5 717q0 315 -108 526z" />
    <glyph glyph-name="asterisk" unicode="*" horiz-adv-x="755" 
d="M537 866l-37 287l-166 -238l-125 144l264 127l-276 86l98 162l201 -211l-7 288l187 -45l-141 -254l278 93l14 -189l-286 51l174 -231z" />
    <glyph glyph-name="plus" unicode="+" horiz-adv-x="1089" 
d="M606 606v-426h-51v426h-426v49h426v426h51v-426h428v-49h-428z" />
    <glyph glyph-name="comma" unicode="," horiz-adv-x="514" 
d="M-61 -266q89 57 142.5 126t53.5 120q0 67 -92 172v6l225 153q42 -30 68 -75.5t26 -94.5q0 -62 -38 -127.5t-99.5 -120t-133 -99.5t-144.5 -75z" />
    <glyph glyph-name="hyphen" unicode="-" horiz-adv-x="536" 
d="M70 508l26 119h412l-25 -119h-413z" />
    <glyph glyph-name="period" unicode="." horiz-adv-x="512" 
d="M205 -10q-63 0 -108.5 45t-45.5 108t45.5 108.5t108.5 45.5q62 0 107.5 -45.5t45.5 -108.5t-45.5 -108t-107.5 -45z" />
    <glyph glyph-name="slash" unicode="/" horiz-adv-x="765" 
d="M932 1599h61l-1169 -1865h-62z" />
    <glyph glyph-name="zero" unicode="0" horiz-adv-x="1198" 
d="M1212 954q0 -197 -62.5 -381t-162 -315t-228.5 -210t-259 -79q-188 0 -302 158.5t-114 417.5q0 197 62.5 381.5t163.5 315.5t230 209.5t259 78.5q188 0 300.5 -158.5t112.5 -417.5zM504 12q75 0 145 78t122.5 204t92 281t60 314t20.5 297q0 153 -35 227t-118 74
q-93 0 -177.5 -118.5t-140 -297.5t-88.5 -381.5t-33 -376.5q0 -149 35 -225t117 -76z" />
    <glyph glyph-name="one" unicode="1" horiz-adv-x="618" 
d="M428 377q-24 -130 -22 -205.5t32 -167.5v-4h-430v4q65 93 95 167.5t55 205.5l151 805h-143l4 20q224 109 451 320h24z" />
    <glyph glyph-name="two" unicode="2" horiz-adv-x="999" 
d="M-59 0l6 31q311 299 481 512t235.5 374t65.5 336q0 117 -37 175.5t-98 58.5q-77 0 -169 -99.5t-204 -283.5l-20 6l106 363q155 57 307 57q190 0 290 -86t100 -240q0 -98 -35 -192.5t-96.5 -182.5t-164.5 -187t-220.5 -192t-282.5 -210h370q107 0 183 46t155 140l15 -6
l-158 -420h-829z" />
    <glyph glyph-name="three" unicode="3" horiz-adv-x="985" 
d="M334 -31q-96 0 -170.5 22t-108.5 50l-24 377l20 4q33 -83 57.5 -139t55.5 -111.5t59.5 -87.5t63.5 -52t73 -20q85 0 155 82t106 204t36 251q0 156 -54 228.5t-144 72.5q-96 0 -209 -88l-17 24l529 474h-529l125 239h721l-4 -20l-659 -592q62 24 137 24t142 -24
t120.5 -70.5t85 -122t31.5 -170.5q0 -112 -39 -211.5t-112 -176.5t-188.5 -122t-258.5 -45z" />
    <glyph glyph-name="four" unicode="4" horiz-adv-x="1030" 
d="M393 4q55 84 80 151.5t45 186.5l8 47h-516l4 27l731 1083h326l-997 -1059h463l79 437h281l-80 -437h141l-20 -51h-131l-8 -47q-21 -112 -20.5 -187.5t24.5 -150.5v-4h-410v4z" />
    <glyph glyph-name="five" unicode="5" horiz-adv-x="950" 
d="M311 -31q-90 0 -160 21.5t-104 50.5l-24 377l20 4q29 -74 47.5 -118t44 -97.5t46.5 -83.5t47.5 -58.5t55.5 -40.5t62 -12q83 0 147.5 75.5t98 199.5t33.5 272q0 174 -57 253t-165 79q-106 0 -219 -74l-10 8l240 674h665l-86 -237h-616l-137 -375q102 59 252 59
q84 0 155.5 -22.5t130 -68.5t92 -125.5t33.5 -184.5q0 -166 -83 -299.5t-217.5 -205t-291.5 -71.5z" />
    <glyph glyph-name="six" unicode="6" horiz-adv-x="1064" 
d="M453 -31q-181 0 -280 126.5t-99 338.5q0 116 29 236t98 249.5t171.5 241.5t263 210.5t359.5 158.5l6 -23q-371 -168 -559 -671q104 159 271 159q141 0 228 -97.5t87 -272.5q0 -132 -48 -254.5t-127 -210t-184.5 -139.5t-215.5 -52zM461 12q75 0 144.5 105t109 256
t39.5 291q0 127 -34.5 181t-98.5 54q-63 0 -118.5 -38t-90.5 -113q-78 -244 -78 -472q0 -264 127 -264z" />
    <glyph glyph-name="seven" unicode="7" horiz-adv-x="888" 
d="M57 0q263 599 822 1247h-672l92 252h770l-2 -20q-494 -736 -723 -1479h-287z" />
    <glyph glyph-name="eight" unicode="8" horiz-adv-x="1019" 
d="M436 -31q-182 0 -294.5 91t-112.5 253q0 146 92.5 256t281.5 162q-83 77 -129.5 159t-46.5 195q0 130 65 231.5t170 154.5t228 53q158 0 248 -88.5t90 -227.5q0 -124 -77.5 -223t-239.5 -141q103 -94 139 -138q108 -130 108 -286q0 -137 -74.5 -242t-192 -157t-255.5 -52
zM463 12q122 0 199 79.5t77 199.5q0 47 -15.5 92t-37 78.5t-65.5 78t-77.5 73t-97.5 79.5l-18 17q-219 -146 -219 -398q0 -139 66.5 -219t187.5 -80zM436 1235q0 -56 18 -106t55.5 -97t77 -84.5t99.5 -85.5q94 79 134 180t40 201q0 238 -184 238q-105 0 -172.5 -68.5
t-67.5 -177.5z" />
    <glyph glyph-name="nine" unicode="9" horiz-adv-x="1064" 
d="M154 -8q101 44 189 115.5t156 161.5t119.5 185t92.5 203q-103 -153 -267 -153q-143 0 -229 97t-86 273q0 175 80 327t212.5 240.5t280.5 88.5q181 0 281 -127t100 -338q0 -95 -21 -194t-64.5 -205.5t-117.5 -208t-172.5 -193t-239 -168.5t-306.5 -127zM535 600
q58 0 112 35t94 106q80 259 80 484q0 262 -125 262q-76 0 -146 -105t-109.5 -256t-39.5 -292q0 -234 134 -234z" />
    <glyph glyph-name="colon" unicode=":" horiz-adv-x="540" 
d="M332 645q-63 0 -108.5 45.5t-45.5 108.5t45.5 108t108.5 45q62 0 107.5 -45t45.5 -108t-45.5 -108.5t-107.5 -45.5zM213 -10q-63 0 -108.5 45t-45.5 108t45.5 108.5t108.5 45.5q62 0 108 -45.5t46 -108.5t-46 -108t-108 -45z" />
    <glyph glyph-name="semicolon" unicode=";" horiz-adv-x="526" 
d="M-57 -266q89 57 142.5 126t53.5 120q0 67 -92 172v6l225 153q42 -30 68.5 -76t26.5 -94q0 -62 -38 -127.5t-100 -120t-133.5 -99.5t-144.5 -75zM332 645q-63 0 -108.5 45.5t-45.5 108.5t45.5 108t108.5 45q62 0 107.5 -45t45.5 -108t-45.5 -108.5t-107.5 -45.5z" />
    <glyph glyph-name="less" unicode="&#x3c;" horiz-adv-x="1085" 
d="M117 600v53l880 426v-55l-829 -397l829 -398v-55z" />
    <glyph glyph-name="equal" unicode="=" horiz-adv-x="1089" 
d="M129 772v47h905v-47h-905zM129 483v47h905v-47h-905z" />
    <glyph glyph-name="greater" unicode="&#x3e;" horiz-adv-x="1085" 
d="M131 174v55l830 398l-830 397v55l881 -426v-53z" />
    <glyph glyph-name="question" unicode="?" horiz-adv-x="894" 
d="M264 492q21 87 55.5 162.5t72 127.5t77.5 99.5t76 90t64.5 88t45.5 104.5t17 128q0 96 -29.5 147.5t-83.5 51.5q-55 0 -113.5 -56.5t-185.5 -215.5q-7 -8 -11 -13.5t-9 -11.5l-13 4l95 281q146 51 280 51q163 0 256.5 -74.5t93.5 -218.5q0 -72 -28 -132.5t-75 -105.5
t-105.5 -86t-123.5 -84t-124.5 -88.5t-113.5 -110t-85 -138.5h-33zM260 -10q-65 0 -110.5 45.5t-45.5 109.5q0 66 45 112t111 46t111 -46t45 -112q0 -64 -45.5 -109.5t-110.5 -45.5z" />
    <glyph glyph-name="at" unicode="@" horiz-adv-x="1808" 
d="M895 -354q-176 0 -327.5 51.5t-263.5 146t-176.5 239t-64.5 320.5q0 186 73.5 355.5t200.5 295t308 199.5t385 74q334 0 532.5 -177t198.5 -482q0 -170 -63.5 -310.5t-177.5 -222.5t-256 -82q-124 0 -189 62t-78 159q-6 62 2 111q-30 -72 -61 -127
q-50 -100 -117.5 -158.5t-146.5 -58.5q-86 0 -135.5 69t-49.5 195q0 87 24 177.5t73.5 174.5t117 150t162.5 105.5t203 39.5q96 0 178 -28l103 28h12l-135 -520q-19 -73 -26 -129.5t0.5 -103t37 -71t80.5 -24.5q92 0 169.5 80.5t121 212.5t43.5 281q0 289 -170.5 448.5
t-458.5 159.5q-151 0 -283 -48t-229.5 -132t-167.5 -195.5t-105.5 -242.5t-35.5 -269q0 -221 88.5 -383t246 -245.5t365.5 -83.5q274 0 457 127l18 -33q-194 -135 -483 -135zM788 209q34 0 68 30.5t65.5 86.5t57 114.5t53.5 134.5l2 -2l78 295q-19 45 -72 45
q-85 0 -159.5 -95t-114 -224.5t-39.5 -247.5q0 -137 61 -137z" />
    <glyph glyph-name="A" unicode="A" horiz-adv-x="1128" 
d="M575 1161l-258 -551h320zM199 0h-285v4q73 65 125 147.5t113 217.5l534 1138h125l133 -1151q13 -131 33 -209t63 -143v-4h-440v4q89 121 62 381l-21 180h-346l-53 -114q-50 -107 -70 -197t-12 -151t39 -99v-4z" />
    <glyph glyph-name="B" unicode="B" horiz-adv-x="1122" 
d="M-6 0v4q58 103 87.5 187t53.5 223l127 671q26 147 28 224.5t-22 183.5v4q74 1 225 4.5t226 3.5q100 0 175.5 -17t121.5 -44.5t74 -68t38.5 -83t10.5 -94.5q0 -167 -98 -277t-275 -135q151 -23 229 -106t78 -219q0 -98 -34.5 -180.5t-101 -145.5t-174 -99t-245.5 -36h-524
zM485 801h103q65 0 117 25.5t85 67t55 98t31 114t9 119.5q0 119 -42.5 178t-154.5 59q-46 0 -82 -8zM455 41q86 0 152 34.5t106 96t60 141t20 174.5q0 138 -49 204.5t-171 66.5h-96l-129 -699q41 -18 107 -18z" />
    <glyph glyph-name="C" unicode="C" horiz-adv-x="1277" 
d="M1083 94q-56 -39 -185 -82t-259 -43q-135 0 -242 48t-174.5 133t-103 198t-35.5 246q0 188 66 360t179 299t273.5 202t339.5 75q92 0 183.5 -16.5t140.5 -36.5l16 -381l-22 -4q-108 222 -187.5 308.5t-183.5 86.5q-114 0 -214 -94t-165.5 -241.5t-103 -325t-37.5 -349.5
q0 -229 71 -347t203 -118q61 0 116.5 24.5t122.5 93t104 113t124 158.5q30 38 45 58l23 -8z" />
    <glyph glyph-name="D" unicode="D" horiz-adv-x="1300" 
d="M-8 4q61 107 87.5 176t45.5 187l143 763q24 128 22.5 200.5t-26.5 164.5v4q92 0 222 4t227 4q297 0 448.5 -152.5t151.5 -451.5q0 -190 -62 -356t-172.5 -287t-271 -190.5t-348.5 -69.5h-467v4zM709 1462h-37q-43 0 -66 -2l-264 -1417q24 0 53 0.5t48 1t20 0.5
q117 2 213.5 60t160 150t106.5 213.5t62 247.5t19 255q0 250 -76 370.5t-239 120.5z" />
    <glyph glyph-name="E" unicode="E" horiz-adv-x="1105" 
d="M905 0h-911v4q41 86 59.5 127.5t40 110t37.5 151.5l133 717q24 123 24 205t-18 180v4h805l17 -371l-21 -4q-164 321 -262 328l-199 12l-127 -678h92q32 0 69 19.5t76.5 55.5t64.5 62.5t59 65.5h20l-84 -454h-22q-2 4 -18.5 35.5t-23 42t-22.5 37t-27.5 38t-29 27.5
t-35.5 22t-37 6h-90l-131 -708l262 12q44 2 98 35.5t113 95t105 116t106 132.5l21 -8z" />
    <glyph glyph-name="F" unicode="F" horiz-adv-x="1036" 
d="M406 0h-414v4q60 114 89 193t52 209l127 688q28 133 28.5 220t-18.5 181v4h830l18 -371l-22 -4q-47 93 -86.5 157.5t-87 116t-86.5 54.5l-228 12l-125 -667h107q32 0 70 19.5t77 56.5t63.5 63t57.5 65h23l-86 -454h-21q-4 8 -16.5 31.5t-19 35t-19.5 33.5t-22.5 34
t-24 28t-27.5 24.5t-29.5 14.5t-33.5 6h-107l-65 -348q-24 -135 -24 -217.5t22 -184.5z" />
    <glyph glyph-name="G" unicode="G" horiz-adv-x="1323" 
d="M1315 684q-60 -102 -90 -183.5t-47 -199.5l-17 -123q-1 0 -42 -30t-57.5 -40t-61.5 -37.5t-79 -40t-83 -30t-101.5 -24.5t-107.5 -7q-173 0 -297.5 79.5t-186 218.5t-61.5 323q0 185 66 356.5t180 300.5t277 206t347 77q96 0 188.5 -16.5t143.5 -36.5l17 -381l-23 -4
q-116 223 -194.5 309t-184.5 86q-115 0 -216.5 -94t-169 -242.5t-106 -329.5t-38.5 -358q0 -451 264 -451q144 0 228.5 131.5t84.5 333.5q0 102 -43 207v4h410v-4z" />
    <glyph glyph-name="H" unicode="H" horiz-adv-x="1323" 
d="M-6 4q59 104 88 185.5t53 216.5l123 688q24 141 25.5 220.5t-19.5 180.5l-2 4h426v-4q-63 -99 -91.5 -176.5t-59.5 -224.5l-56 -303h469l54 303q29 137 29 219t-25 182v4h424v-4q-62 -97 -90.5 -176t-59.5 -225l-123 -688q-24 -135 -24 -217.5t22 -184.5v-4h-418v4
q61 110 91 190t53 212l59 342h-469l-61 -342q-24 -135 -24 -217.5t22 -184.5v-4h-416v4z" />
    <glyph glyph-name="I" unicode="I" horiz-adv-x="575" 
d="M-8 0v4q60 114 89 193t52 209l127 688q28 134 28 212.5t-22 188.5v4h424v-4q-65 -97 -92 -172.5t-59 -228.5l-129 -688q-24 -135 -24 -217.5t22 -184.5v-4h-416z" />
    <glyph glyph-name="J" unicode="J" horiz-adv-x="808" 
d="M659 403q-40 -217 -156 -325.5t-286 -108.5q-126 0 -215 47l29 357l22 4q56 -199 93 -282t81 -83q37 0 71 62.5t54 173.5l152 846q25 142 26.5 219t-22.5 182v4h424v-4q-66 -103 -95.5 -182t-54.5 -219z" />
    <glyph glyph-name="K" unicode="K" horiz-adv-x="1204" 
d="M-8 4q60 114 89 193t52 209l127 688q28 134 28 212.5t-22 188.5v4h426l-2 -4q-65 -97 -92 -172.5t-59 -228.5l-129 -688q-24 -135 -24 -217.5t22 -184.5v-4h-416v4zM776 0l-303 739l377 412q98 104 133 193.5t4 150.5v4h340v-4q-112 -63 -190 -130t-195 -187l-233 -256
l256 -623q49 -121 81 -182t84 -113l3 -4h-357z" />
    <glyph glyph-name="L" unicode="L" horiz-adv-x="1036" 
d="M-8 0v4q58 102 85 178.5t56 223.5l127 688q24 141 25.5 220.5t-19.5 180.5v4h424v-4q-65 -97 -92 -172.5t-59 -228.5l-197 -1053l190 12q155 11 426 383l23 -10l-150 -426h-839z" />
    <glyph glyph-name="M" unicode="M" horiz-adv-x="1495" 
d="M-49 0v4q89 114 126.5 195.5t61.5 224.5l135 741l-10 -28q22 130 8.5 208t-73.5 150l2 4h364l174 -1034l531 1034h391v-4q-91 -76 -132.5 -151.5t-66.5 -208.5l-131 -729q-25 -140 -25.5 -220t23.5 -182l-2 -4h-418l2 4q59 105 88.5 186.5t53.5 215.5l153 849l-626 -1212
h-37l-203 1214l-145 -833q-26 -139 -15.5 -229t66.5 -191l-2 -4h-293z" />
    <glyph glyph-name="N" unicode="N" horiz-adv-x="1204" 
d="M340 1243l-147 -819q-24 -145 -13.5 -230t64.5 -190v-4h-283v4q59 72 92 135.5t47 115.5t37 169l135 717l-2 -6q23 131 13.5 210.5t-68.5 149.5v4h311l480 -1040l112 616q24 148 14.5 229.5t-59.5 190.5v4h289v-4q-88 -113 -123.5 -192t-64.5 -228l-203 -1075l-53 -6z
" />
    <glyph glyph-name="O" unicode="O" horiz-adv-x="1396" 
d="M1409 911q0 -179 -67.5 -352.5t-178 -302.5t-259.5 -208t-304 -79q-156 0 -274.5 82.5t-180 223t-61.5 315.5q0 178 67.5 351t177.5 301.5t259.5 208t304.5 79.5t273.5 -82.5t180.5 -222.5t62 -314zM367 418q0 -194 59.5 -300t181.5 -106q91 0 175 70t145 184
t106.5 254.5t68.5 286t23 274.5q0 194 -60.5 300t-182.5 106q-91 0 -174 -70t-144 -184t-106.5 -254.5t-68.5 -286t-23 -274.5z" />
    <glyph glyph-name="P" unicode="P" horiz-adv-x="1067" 
d="M-8 4q60 114 89 193t52 209l127 688q28 134 28 213t-22 188v4h473q219 0 319.5 -90t100.5 -248q0 -107 -41 -205t-116 -174.5t-192.5 -122t-260.5 -45.5h-100l-39 -208q-19 -90 -23.5 -160t1 -119t20.5 -123v-4h-416v4zM688 1454q-10 0 -80 -4l-149 -786h88
q86 0 153 48.5t105.5 126.5t58 165.5t19.5 177.5q0 144 -50 208t-145 64z" />
    <glyph glyph-name="Q" unicode="Q" horiz-adv-x="1396" 
d="M1409 911q0 -201 -81 -389t-218 -323t-305 -195q-54 -19 -123 -29q73 -55 166 -84q111 -30 223 -30q172 0 287 47l-92 -227q-66 -37 -179 -37q-90 0 -167.5 27.5t-126 63.5t-89 87t-57.5 82.5t-31 64.5h-16q-156 0 -274.5 82.5t-180 223t-61.5 315.5q0 178 67.5 351
t177.5 301.5t259.5 208t304.5 79.5t273.5 -82.5t180.5 -222.5t62 -314zM367 418q0 -194 59.5 -300t181.5 -106q91 0 175 70t145 184t106.5 254.5t68.5 286t23 274.5q0 194 -60.5 300t-182.5 106q-91 0 -174 -70t-144 -184t-106.5 -254.5t-68.5 -286t-23 -274.5z" />
    <glyph glyph-name="R" unicode="R" horiz-adv-x="1204" 
d="M-6 4q55 107 83.5 189t57.5 221l125 671q28 140 29.5 225t-19.5 185v4h516q390 0 390 -313q0 -140 -82 -257.5t-236 -172.5l113 -475q26 -103 60 -163.5t89 -105.5v-12h-370l-166 711h-117l-55 -297q-19 -93 -24 -162.5t0 -120.5t20 -127v-4h-414v4zM725 1458h-49
q-41 0 -68 -2l-131 -700h123q74 0 132.5 40.5t93.5 107.5t53 146t18 162q0 246 -172 246z" />
    <glyph glyph-name="S" unicode="S" horiz-adv-x="972" 
d="M977 1096l-21 -4q-89 221 -153 306t-152 85q-92 0 -151.5 -67t-59.5 -173q0 -24 4 -47.5t8.5 -42.5t17 -42t19.5 -37.5t26 -37.5t27.5 -34t32.5 -35t32 -32.5t36 -35t35 -33.5q50 -47 84.5 -87.5t68 -95.5t51 -120.5t17.5 -140.5q0 -112 -40 -200.5t-109 -142.5
t-157.5 -82t-191.5 -28q-94 0 -187 21t-148 49l-11 422l21 2q87 -235 171.5 -342t192.5 -107q104 0 163 79t59 194q0 83 -36 150.5t-102 133.5l-80 80q-48 48 -70 71.5t-58.5 70.5t-53.5 84t-31 92.5t-14 115.5q3 140 69 242.5t172 152.5t236 50q155 0 283 -55v-379z" />
    <glyph glyph-name="T" unicode="T" horiz-adv-x="1247" 
d="M324 0v4q60 106 89.5 187.5t53.5 214.5l201 1054l-117 -6q-26 -2 -57 -20t-75 -62t-72 -75t-89.5 -103.5t-87.5 -101.5l-23 8l136 399h1058l-10 -405l-22 -4q-37 90 -61 144t-54.5 109.5t-60 82t-60.5 28.5l-125 6l-196 -1054q-24 -138 -26.5 -219.5t15.5 -182.5v-4h-417
z" />
    <glyph glyph-name="U" unicode="U" horiz-adv-x="1204" 
d="M551 -31q-110 0 -195.5 34t-143.5 104t-75 177t10 253l105 557q29 138 29 219.5t-25 181.5v4h424v-4q-59 -93 -92.5 -180t-57.5 -221l-106 -568q-26 -138 -24.5 -231t33 -150t78 -81.5t110.5 -24.5q81 0 146.5 38.5t111 108.5t76 156t49.5 193l102 540q27 148 15.5 230
t-70.5 190v4h315v-4q-97 -115 -136.5 -194.5t-68.5 -225.5l-100 -530q-22 -108 -45.5 -185.5t-63.5 -156t-92 -126.5t-130.5 -78t-178.5 -30z" />
    <glyph glyph-name="V" unicode="V" horiz-adv-x="1103" 
d="M403 -8l-131 1141q-19 142 -37 219.5t-53 142.5v4h436v-4q-84 -134 -61 -385l84 -764l332 705q130 286 47 444v4h278v-4q-64 -60 -115.5 -144t-121.5 -231l-535 -1128h-123z" />
    <glyph glyph-name="W" unicode="W" horiz-adv-x="1734" 
d="M373 -8l-103 1141q-12 134 -31 214t-55 148v4h441v-4q-87 -129 -66 -385l66 -741l323 712l-4 52q-12 133 -32.5 213.5t-59.5 148.5v4h444v-4q-45 -60 -59 -151t-6 -234l53 -743l324 690q132 294 49 438v4h278v-4q-69 -63 -122.5 -147t-114.5 -215l-539 -1141h-127
l-76 993l-456 -993h-127z" />
    <glyph glyph-name="X" unicode="X" horiz-adv-x="1175" 
d="M252 0h-344v4q95 64 171.5 145.5t158.5 202.5l272 383l-135 439q-38 127 -76 201t-92 120v4h491v-4q-39 -39 -45.5 -124.5t23.5 -188.5l84 -273l151 205q63 87 91 158.5t26.5 122.5t-24.5 100v4h344v-4q-99 -64 -178 -142.5t-164 -193.5l-228 -307l160 -524
q37 -129 75 -203t91 -121v-4h-488v4q39 42 46 125.5t-23 187.5l-111 359l-196 -279q-179 -254 -80 -393v-4z" />
    <glyph glyph-name="Y" unicode="Y" horiz-adv-x="1058" 
d="M231 4q58 102 85 173t51 192l63 342l-117 456q-30 113 -62.5 190t-78.5 138v4h475v-4q-45 -45 -57.5 -125.5t10.5 -179.5l100 -406l191 306q60 91 82.5 175.5t14.5 137t-32 92.5v4h310v-4q-83 -70 -147 -150t-146 -210l-268 -430l-60 -338q-24 -127 -22 -198.5t28 -164.5
l-2 -4h-418v4z" />
    <glyph glyph-name="Z" unicode="Z" horiz-adv-x="1107" 
d="M-49 0v20l958 1444l-178 -8q-242 -11 -508 -364l-20 6l147 401h879v-20l-955 -1444l228 8q62 3 126 32t116.5 70t108.5 102t95 111.5t84 114.5l19 -6l-164 -467h-936z" />
    <glyph glyph-name="bracketleft" unicode="[" horiz-adv-x="761" 
d="M412 1546h528l-8 -45h-295l-367 -1722h295l-10 -45h-528z" />
    <glyph glyph-name="backslash" unicode="\" horiz-adv-x="763" 
d="M190 1599l590 -1865h-57l-588 1865h55z" />
    <glyph glyph-name="bracketright" unicode="]" horiz-adv-x="761" 
d="M397 -266h-528l8 45h295l367 1722h-295l10 45h528z" />
    <glyph glyph-name="asciicircum" unicode="^" horiz-adv-x="843" 
d="M573 1292l-407 -325l-16 18l450 561h12l258 -565l-22 -14z" />
    <glyph glyph-name="underscore" unicode="_" horiz-adv-x="1021" 
d="M-18 -205l10 45h880l-10 -45h-880z" />
    <glyph glyph-name="grave" unicode="`" 
d="M684 1102l-383 291l154 141l250 -414z" />
    <glyph glyph-name="a" unicode="a" horiz-adv-x="999" 
d="M365 150q38 0 77 36.5t75.5 103.5t66.5 137t63 161l2 -2l88 336q-20 51 -88 51q-74 0 -144.5 -67.5t-118.5 -168t-77.5 -214.5t-29.5 -208q0 -165 86 -165zM614 395q-166 -426 -376 -426q-98 0 -153.5 80t-55.5 225q0 101 27.5 205t83.5 200.5t133.5 172t185.5 121
t231 45.5q118 0 197 -33l100 33h17l-191 -729q-33 -109 -21 -170t85 -92v-7l-369 -38z" />
    <glyph glyph-name="b" unicode="b" horiz-adv-x="1011" 
d="M408 -31q-61 0 -115 15t-102 47.5t-76.5 84t-38.5 125.5t12 171l160 743q21 101 14 185t-49 147v4l377 104l-223 -1005q35 94 73.5 166.5t86.5 134t108 94.5t127 33q106 0 163.5 -80t57.5 -246q0 -139 -42 -269.5t-116 -231t-183 -161.5t-234 -61zM416 6q65 0 125.5 66.5
t102 168t66.5 223t25 232.5q0 98 -22.5 137t-69.5 39q-141 0 -309 -487l-8 -33q-28 -122 -21 -199t35.5 -112t75.5 -35z" />
    <glyph glyph-name="c" unicode="c" horiz-adv-x="831" 
d="M743 324q-49 -165 -150 -260t-245 -95q-151 0 -234 103t-83 282q0 128 44.5 248.5t120.5 212.5t185.5 147.5t232.5 55.5q115 0 193 -27v-299l-19 -4q-89 177 -122 223q-51 69 -107 70q-44 0 -93 -40.5t-90.5 -108t-69 -166t-27.5 -203.5q0 -152 57 -229.5t158 -77.5
q151 0 235 172z" />
    <glyph glyph-name="d" unicode="d" horiz-adv-x="1036" 
d="M666 471q-31 -81 -64.5 -149.5t-76 -135.5t-86.5 -113.5t-97.5 -75t-108.5 -28.5q-95 0 -149.5 73.5t-54.5 217.5q0 105 27.5 211.5t84.5 205t137 174.5t193 121.5t244 45.5h28q19 0 29 -2l29 137q17 78 22 131t-8 107t-49 94v4l373 104l-275 -1304q-13 -64 -17 -103.5
t2.5 -71.5t26.5 -50.5t56 -30.5v-4l-375 -52l111 494h-2zM358 147q153 0 332 490l66 301q-27 35 -82 35q-80 0 -157 -65.5t-130.5 -165t-86 -215t-32.5 -216.5q0 -164 90 -164z" />
    <glyph glyph-name="e" unicode="e" horiz-adv-x="833" 
d="M342 -31q-144 0 -227.5 99t-83.5 276q0 172 79.5 328t214.5 251t287 95q38 0 74 -7t72 -22.5t58 -46.5t22 -74q0 -36 -17 -68.5t-56.5 -63t-100 -53t-152 -37t-207.5 -17.5q-20 -81 -20 -180q0 -150 53 -216.5t141 -66.5q156 0 240 153l12 -8q-54 -170 -155.5 -256
t-233.5 -86zM584 981q-77 0 -156 -94t-115 -234q85 16 149 41.5t99 52t56.5 58t27.5 55t6 47.5q0 74 -67 74z" />
    <glyph glyph-name="f" unicode="f" horiz-adv-x="608" 
d="M260 942h-123l10 45h121l21 94q49 232 183 372t306 140q58 0 119 -16l12 -274l-18 -5q-90 173 -116 209q-33 47 -60 47q-82 0 -156 -348l-45 -219h176l-10 -45h-176l-268 -1280h-244z" />
    <glyph glyph-name="g" unicode="g" horiz-adv-x="937" 
d="M334 479q0 -137 69 -137q50 0 100.5 80t81.5 198t31 226q0 69 -15.5 102t-51.5 33q-51 0 -102 -79t-82 -196.5t-31 -226.5zM803 -125q0 -154 -156 -249t-407 -95q-183 0 -287.5 48t-104.5 140q0 59 44.5 107.5t110.5 77.5t147 43q-136 59 -136 170q0 91 66 150.5
t160 88.5q-59 40 -91 106t-32 140q0 105 63 202t163.5 155.5t205.5 58.5q91 0 156 -45l319 100l2 -2l-47 -190h-6l-230 61q93 -87 93 -221q0 -103 -64 -199.5t-165 -155.5t-206 -59q-78 0 -137 35q-37 -20 -56.5 -41t-19.5 -51q0 -45 59.5 -70t196.5 -47q83 -11 144.5 -28.5
t112 -47t76.5 -75.5t26 -107zM309 -412q152 0 243 47t91 123q0 61 -70.5 90t-228.5 50q-98 12 -166 39q-69 -27 -109 -75t-40 -110q0 -79 70.5 -121.5t209.5 -42.5z" />
    <glyph glyph-name="h" unicode="h" horiz-adv-x="1069" 
d="M737 686q19 68 5 113t-62 45q-33 0 -66 -24t-63.5 -64.5t-66.5 -108t-68.5 -140.5t-75.5 -177l-6 -27q-43 -171 -17 -299v-4h-329v4q35 66 58.5 146.5t57.5 232.5l168 772q18 80 23 131.5t-8 105.5t-51 93v4l374 104l-241 -1083q39 105 83.5 190.5t99.5 160t121.5 116
t137.5 41.5q104 0 155.5 -84t20.5 -240l-86 -405q-33 -129 -23 -191.5t83 -81.5v-4l-377 -30z" />
    <glyph glyph-name="i" unicode="i" horiz-adv-x="493" 
d="M545 1346q0 -61 -44 -104.5t-106 -43.5q-61 0 -104 43t-43 105q0 60 43 103.5t104 43.5t105.5 -43.5t44.5 -103.5zM-8 4q16 24 29.5 52t22 49t19.5 62t15.5 60t17 76.5t17.5 79.5l47 223q49 230 -45 314v4l379 104l-134 -641q-32 -156 -39 -237t5 -146v-4h-334v4z" />
    <glyph glyph-name="j" unicode="j" horiz-adv-x="475" 
d="M539 1346q0 -61 -44 -104.5t-106 -43.5q-61 0 -103 43t-42 105q0 61 42 104t103 43t105.5 -43.5t44.5 -103.5zM-211 -426q162 85 215 332l150 696q52 229 -43 318v4l378 104l-217 -956q-56 -240 -182.5 -365t-298.5 -147z" />
    <glyph glyph-name="k" unicode="k" horiz-adv-x="997" 
d="M-12 0v4q9 17 17 33t15.5 36.5t12.5 33t13 39t11 38t11.5 45t11.5 44.5t13 54t13 56l164 772q27 100 21.5 186.5t-58.5 143.5v4l377 104l-229 -1081l305 279q63 60 77 104.5t-15 87.5v4h307v-4q-92 -35 -163 -84t-167 -137l-129 -117l182 -455q30 -70 61 -114t72 -72v-4
h-323l-207 512l-39 -184q-25 -115 -30.5 -184.5t7.5 -139.5v-4h-331z" />
    <glyph glyph-name="l" unicode="l" horiz-adv-x="487" 
d="M-12 0v4q34 63 59 146t59 233l166 772q18 80 23 131.5t-8 105.5t-51 93v4l374 104l-260 -1206q-31 -150 -37.5 -236t6.5 -147v-4h-331z" />
    <glyph glyph-name="m" unicode="m" horiz-adv-x="1599" 
d="M1270 686q35 158 -45 158q-20 0 -38.5 -8t-38.5 -28.5t-37 -41.5t-39.5 -61t-39.5 -72t-43 -90t-44 -99t-50 -114q-25 -124 -29 -192t11 -134v-4h-336v4q36 68 60.5 147.5t49.5 208.5l70 326q36 158 -45 158q-19 0 -38 -8t-38.5 -28.5t-36.5 -41.5t-39 -61t-39 -72
t-43 -90t-44 -99t-50 -114l-6 -27q-21 -97 -25 -162.5t9 -136.5v-4h-332v4q39 79 63.5 158.5t55.5 220.5l47 223q49 230 -45 314v4l370 104l-114 -543q40 109 83.5 198.5t98 168t120.5 122.5t136 44q96 0 137 -85t10 -247l-43 -209q40 110 84 200.5t99.5 170.5t122 125
t137.5 45q102 0 149 -85t13 -239l-88 -407q-13 -60 -18 -94t-5.5 -67t9 -50.5t27.5 -31t50 -21.5v-5l-377 -36z" />
    <glyph glyph-name="n" unicode="n" horiz-adv-x="1079" 
d="M750 686q16 68 1.5 113t-61.5 45q-41 0 -80.5 -34t-83 -107t-82.5 -157.5t-94 -215.5l-6 -27q-21 -99 -25.5 -162.5t7.5 -136.5v-4h-328v4q71 145 115 379l47 223q49 230 -45 314v4l372 104l-110 -526q192 516 444 516q104 0 155.5 -84t20.5 -240l-86 -405
q-33 -129 -23 -191.5t83 -81.5v-4l-377 -30z" />
    <glyph glyph-name="o" unicode="o" horiz-adv-x="962" 
d="M934 627q0 -121 -50.5 -242.5t-129.5 -212t-181.5 -147t-201.5 -56.5q-158 0 -250 107t-92 284q0 120 50.5 241.5t129.5 212t182 147.5t203 57q159 0 249.5 -107t90.5 -284zM270 209q0 -203 105 -203q79 0 153.5 121.5t119 301t44.5 349.5q0 203 -102 203
q-83 0 -158.5 -122t-118.5 -300t-43 -350z" />
    <glyph glyph-name="p" unicode="p" horiz-adv-x="1034" 
d="M440 6q86 0 161.5 112t116 270.5t40.5 307.5q0 98 -22.5 136t-69.5 38q-65 0 -144.5 -119.5t-169.5 -361.5l-28 -147q-16 -119 17.5 -177.5t98.5 -58.5zM-106 -461v4q39 79 62.5 157.5t55.5 223.5l144 682q49 228 -43 314v4l370 104l-94 -436q157 426 397 426
q104 0 162 -80.5t58 -251.5q0 -135 -42.5 -264t-116 -229.5t-182 -162t-231.5 -61.5q-86 0 -160 31l-26 -133q-25 -122 -31 -184.5t6 -139.5v-4h-329z" />
    <glyph glyph-name="q" unicode="q" horiz-adv-x="1011" 
d="M412 -457q43 75 70 162t61 240l96 463q-37 -91 -78 -166t-92 -138.5t-111.5 -99t-124.5 -35.5q-95 0 -149.5 73.5t-54.5 217.5q0 105 27.5 211t84.5 204.5t136.5 174.5t192.5 122t243 46q137 0 225 -43l61 43h15l-230 -1094q-31 -146 -38.5 -220.5t2.5 -160.5v-4h-336v4z
M360 147q153 0 326 484l41 196q16 75 -5 110.5t-67 35.5q-74 0 -146.5 -66t-124.5 -165t-84 -214.5t-32 -214.5q0 -166 92 -166z" />
    <glyph glyph-name="r" unicode="r" horiz-adv-x="761" 
d="M-6 4q39 79 63.5 158.5t55.5 220.5l47 223q49 228 -43 314v4l368 104l-125 -577q214 567 463 567l-100 -307h-8q-28 16 -70 16q-79 0 -144 -91.5t-151 -305.5l-6 -27q-43 -174 -18 -299v-4h-332v4z" />
    <glyph glyph-name="s" unicode="s" horiz-adv-x="708" 
d="M662 721l-15 -4q-68 146 -116.5 205t-108.5 59q-54 0 -84.5 -37.5t-30.5 -93.5q0 -40 17.5 -75.5t45.5 -64.5t61.5 -57.5t67 -62t61.5 -71.5t45.5 -92t17.5 -118q0 -162 -101.5 -251t-261.5 -89q-71 0 -135.5 16.5t-99.5 34.5l-11 304l15 4q74 -167 140.5 -244.5
t137.5 -77.5q57 0 94 41t37 111q0 52 -23.5 98.5t-58.5 80.5t-76.5 74.5t-76.5 79t-58.5 96t-23.5 124.5q0 148 98 227.5t256 79.5q116 0 189 -27z" />
    <glyph glyph-name="t" unicode="t" horiz-adv-x="696" 
d="M256 -31q-94 0 -140 74t-12 238l146 661h-105l2 19l388 256h18l-49 -230h237l-8 -45h-239l-144 -670q-32 -143 43 -143q46 0 99.5 45t93.5 100l20 -14q-69 -136 -160.5 -213.5t-189.5 -77.5z" />
    <glyph glyph-name="u" unicode="u" horiz-adv-x="1021" 
d="M621 391q-33 -73 -66 -132.5t-73.5 -114.5t-81.5 -92.5t-90.5 -60t-100.5 -22.5q-102 0 -149.5 82.5t-4.5 231.5l111 413q16 63 22 103.5t1.5 77.5t-24 61.5t-56.5 42.5v4h372l-176 -688q-20 -67 -6.5 -112.5t59.5 -45.5q69 0 147.5 127.5t182.5 388.5l29 115
q10 43 12.5 80.5t-20 72.5t-70.5 58v4h381l-182 -696q-16 -60 -21 -99.5t1.5 -71t26.5 -52.5t56 -39v-7l-383 -38z" />
    <glyph glyph-name="v" unicode="v" horiz-adv-x="806" 
d="M154 698q-2 115 -18 176t-62 107v4h323l19 -645l143 223q108 167 124 268t-58 150v4h264v-4l-649 -999h-64z" />
    <glyph glyph-name="w" unicode="w" horiz-adv-x="1236" 
d="M156 698q-5 110 -23 173t-59 110v4h325l15 -627l225 371q-4 93 -25.5 149.5t-64.5 102.5v4h334l8 -620l115 198q67 114 91.5 197t12 134.5t-56.5 86.5v4h260v-4l-594 -999h-66l-12 659l-399 -659h-64z" />
    <glyph glyph-name="x" unicode="x" horiz-adv-x="935" 
d="M209 0h-275v4q80 56 142.5 117.5t150.5 171.5l142 178l-88 256q-33 103 -64.5 159.5t-71.5 96.5v4h387v-4q-28 -25 -31 -90t27 -164l50 -141l65 86q175 227 84 309v4h274v-4q-82 -61 -141.5 -120.5t-142.5 -170.5l-123 -155l96 -279q34 -101 66 -156t75 -98v-4h-387v4
q63 70 -2 252l-55 162l-86 -107q-162 -204 -92 -307v-4z" />
    <glyph glyph-name="y" unicode="y" horiz-adv-x="788" 
d="M-145 -215q272 -32 391 186l6 11l-90 731q-12 109 -33.5 164.5t-71.5 105.5v4h322l72 -643l118 215q98 175 107 273t-72 151v4h266v-4l-641 -1122q-50 -88 -104 -149.5t-109 -96.5t-105.5 -52t-109.5 -24z" />
    <glyph glyph-name="z" unicode="z" horiz-adv-x="854" 
d="M-53 0v14l657 932l-162 -8q-32 -2 -67 -18.5t-82.5 -55.5t-73 -62.5t-83.5 -79.5q-6 -6 -9 -8.5t-7.5 -7l-8.5 -8.5l-11 4l119 285h678v-16l-659 -934l186 6q41 2 84.5 23t95.5 67t87.5 82t99.5 104l10 -4l-135 -315h-719z" />
    <glyph glyph-name="braceleft" unicode="{" horiz-adv-x="741" 
d="M496 -266q-390 0 -390 235q0 60 25 119t60.5 106t71 92.5t60.5 96t25 98.5q0 135 -194 135h-48l11 48h47q223 0 260 170q11 50 1.5 108.5t-27 105t-27 108t1.5 116.5q26 135 156 204.5t352 69.5h37l-9 -45h-35q-227 0 -260 -207q-11 -75 -2.5 -209t-9.5 -190
q-31 -132 -122.5 -189.5t-246.5 -62.5l-2 -6q267 -3 267 -209q0 -62 -25.5 -134t-56.5 -127t-56.5 -123t-25.5 -124q0 -79 45 -110t131 -31h33l-11 -45h-36z" />
    <glyph glyph-name="bar" unicode="|" horiz-adv-x="419" 
d="M236 -266v1865h55v-1865h-55z" />
    <glyph glyph-name="braceright" unicode="}" horiz-adv-x="741" 
d="M301 1546q389 0 389 -235q0 -60 -25 -119t-60 -106t-70.5 -92.5t-60.5 -96t-25 -98.5q0 -135 194 -135h47l-10 -48h-47q-223 0 -260 -170q-11 -50 -1.5 -108.5t27 -105t27 -108t-1.5 -116.5q-26 -135 -156 -204.5t-352 -69.5h-37l8 45h35q227 0 260 207q11 75 3 209
t10 190q31 132 122 189.5t246 62.5l2 6q-266 3 -266 209q0 62 25.5 134t56.5 127t56.5 123t25.5 124q0 79 -45 110t-131 31h-33l10 45h37z" />
    <glyph glyph-name="asciitilde" unicode="~" horiz-adv-x="925" 
d="M319 694q44 0 188 -47t220 -47q60 0 91.5 27t49.5 86l23 -2q-2 -34 -7.5 -66.5t-20.5 -72t-36.5 -68.5t-59 -48.5t-85.5 -19.5q-60 0 -207 47t-201 47q-59 0 -92 -29t-47 -87l-22 2q2 33 8.5 67t21.5 73t37 68.5t58 49.5t81 20z" />
    <glyph glyph-name="uni00A0" unicode="&#xa0;" horiz-adv-x="305" 
 />
    <glyph glyph-name="exclamdown" unicode="&#xa1;" horiz-adv-x="501" 
d="M-94 -498l338 1004h35l-89 -1004l-2 -4h-284zM299 1008q65 0 110.5 -46t45.5 -110q0 -66 -45 -112t-111 -46t-111 46t-45 112q0 64 45.5 110t110.5 46z" />
    <glyph glyph-name="cent" unicode="&#xa2;" horiz-adv-x="831" 
d="M743 324q-47 -161 -147 -258q-86 -80 -203 -95l-43 -204h-53l43 202q-145 3 -227 105q-82 104 -82 280q0 194 96 360.5t254 248.5q83 44 178 53l31 137h53l-29 -135q115 0 193 -27v-299l-19 -4q-48 95 -68.5 133.5t-49.5 81t-54 60.5l-12 6l-170 -807q27 -6 60 -6
q151 0 235 172zM465 940q-76 -60 -131 -190.5t-55 -286.5q0 -157 57 -232q23 -30 49 -47l168 797q-41 -3 -88 -41z" />
    <glyph glyph-name="sterling" unicode="&#xa3;" horiz-adv-x="1126" 
d="M911 0h-960v16q34 19 54.5 33t52.5 42.5t54 61t51.5 88t53.5 124t50.5 167t51.5 220.5h-157l16 45h150l6 26l28 144q28 146 83 258t124.5 176.5t144 96.5t152.5 32q103 0 234 -53l22 -387l-22 -5q-108 216 -171 310t-98 94q-34 0 -70 -98t-112 -387l-16 -66
q-16 -57 -43 -141h237l-14 -45h-238q-69 -198 -153.5 -318.5t-198.5 -208.5h500q119 0 193 41t147 137l16 -8z" />
    <glyph glyph-name="yen" unicode="&#xa5;" horiz-adv-x="1044" 
d="M221 4q58 103 86 173.5t51 191.5l4 26h-290l8 43h291l41 226h-285l10 45h283v4l-103 454q-41 195 -141 328v4h475v-4q-42 -50 -53 -138.5t10 -191.5l82 -381l174 306q138 241 76 405v4h309v-4q-95 -75 -165.5 -157t-137.5 -203l-246 -426h279l-10 -45h-281l-41 -226h277
l-11 -43h-274l-4 -28q-24 -127 -22 -198.5t28 -164.5l-2 -4h-418v4z" />
    <glyph glyph-name="brokenbar" unicode="&#xa6;" horiz-adv-x="419" 
d="M236 748v851h55v-851h-55zM236 -266v850h55v-850h-55z" />
    <glyph glyph-name="section" unicode="&#xa7;" horiz-adv-x="1069" 
d="M516 399q117 -80 166 -135q58 28 88.5 81t30.5 118q0 51 -17.5 95t-54.5 82.5t-73 67t-93 66.5q-114 78 -162 139q-60 -29 -92.5 -83t-32.5 -121q0 -90 59 -158t181 -152zM371 -336q-168 0 -299 64l-19 297l15 4q71 -172 151.5 -249t175.5 -77q89 0 141 58.5t52 148.5
q0 23 -4 44.5t-9 38.5t-17.5 36t-20 31.5t-26.5 30.5t-28 27t-33.5 27t-33 24t-36.5 25.5t-36 24.5q-117 74 -180.5 160.5t-63.5 210.5q0 128 70.5 223t206.5 131q-64 94 -64 209q0 76 27.5 143t79.5 120t137 83.5t191 30.5q86 0 154 -16t104 -39l16 -254l-14 -7
q-72 156 -146.5 216.5t-154.5 60.5q-96 0 -150.5 -64t-54.5 -161q0 -50 16.5 -93t50.5 -81t70.5 -67.5t93.5 -66.5q118 -80 181 -165t63 -207q0 -126 -69 -221t-201 -132q69 -91 69 -215q0 -73 -24.5 -136t-73 -112t-127.5 -77.5t-180 -28.5z" />
    <glyph glyph-name="dieresis" unicode="&#xa8;" 
d="M463 1341q0 -60 -44 -101.5t-104 -41.5t-101.5 41.5t-41.5 101.5t41.5 103t101.5 43q59 0 103.5 -44.5t44.5 -101.5zM854 1341q0 -60 -42.5 -101.5t-102.5 -41.5t-102 41.5t-42 101.5t42 103t102 43t102.5 -43t42.5 -103z" />
    <glyph glyph-name="copyright" unicode="&#xa9;" horiz-adv-x="1703" 
d="M90 750q0 160 61.5 304t166 248t249 165t303.5 61t304 -61t250 -164.5t167 -248t62 -304.5q0 -161 -62 -305.5t-167 -249t-250 -165.5t-304 -61t-303.5 61t-249 165.5t-166 249t-61.5 305.5zM145 750q0 -150 57 -285.5t154 -234t231.5 -156.5t282.5 -58t282 58
t230.5 156.5t153.5 234t57 285.5q0 198 -96.5 366.5t-263 266.5t-363.5 98q-148 0 -282.5 -58t-231.5 -156t-154 -233t-57 -284zM1198 403q-24 -14 -57 -29t-106.5 -33.5t-145.5 -18.5q-203 0 -333 119.5t-130 303.5t136 309.5t343 125.5q144 0 287 -50l22 -217l-12 -4
q-87 130 -154.5 183t-154.5 53q-268 0 -268 -400q0 -183 66.5 -287t197.5 -104q102 0 172.5 71.5t144.5 219.5l13 -6z" />
    <glyph glyph-name="ordfeminine" unicode="&#xaa;" horiz-adv-x="806" 
d="M401 885q27 0 53.5 23.5t52.5 69.5t47 93t46 113l72 276q-14 33 -60 33q-55 0 -106.5 -52.5t-86 -129.5t-55 -162t-20.5 -152q0 -112 57 -112zM584 1051q-24 -56 -42.5 -96t-48 -89t-57.5 -79t-66 -51t-79 -21q-74 0 -118 62.5t-44 180.5q0 76 19 154t61 153.5t100.5 134
t145 94.5t188.5 36q93 0 160 -25l90 25h12l-145 -569q-22 -81 -12.5 -128t61.5 -75v-2l-309 -31z" />
    <glyph glyph-name="guillemotleft" unicode="&#xab;" horiz-adv-x="866" 
d="M672 106l-248 359l10 41l400 358l12 -12l-250 -383l90 -354zM352 106l-248 359l11 41l399 358l12 -12l-250 -383l91 -354z" />
    <glyph glyph-name="registered" unicode="&#xae;" horiz-adv-x="976" 
d="M102 1108q0 177 127.5 299.5t307.5 122.5q179 0 302.5 -122t123.5 -300q0 -176 -127.5 -298t-305.5 -122q-180 0 -304 121t-124 299zM154 1108q0 -158 109 -266.5t269 -108.5q159 0 268 108t109 267t-109 268t-268 109q-161 0 -269.5 -108.5t-108.5 -268.5zM350 887
q16 37 21.5 60t5.5 61v209q0 38 -6 60.5t-21 55.5v4h203q162 0 162 -112q0 -84 -84 -117l67 -137q20 -38 33.5 -54.5t38.5 -29.5v-2h-143l-103 209h-45v-86q0 -66 23 -121v-2h-152v2zM479 1311v-191h53q43 0 61.5 29.5t18.5 71.5q0 45 -17.5 67.5t-62.5 22.5h-53z" />
    <glyph glyph-name="macron" unicode="&#xaf;" 
d="M252 1325h532l-22 -119h-533z" />
    <glyph glyph-name="degree" unicode="&#xb0;" horiz-adv-x="663" 
d="M135 1260q0 111 81 190.5t196 79.5q114 0 190 -79t76 -191q0 -113 -81 -193t-194 -80q-116 0 -192 79t-76 194zM190 1260q0 -98 61 -162t157 -64q93 0 154 64.5t61 161.5q0 95 -61 159t-154 64q-96 0 -157 -64t-61 -159z" />
    <glyph glyph-name="acute" unicode="&#xb4;" 
d="M621 1534l124 -162l-456 -256l-15 19z" />
    <glyph glyph-name="paragraph" unicode="&#xb6;" horiz-adv-x="1021" 
d="M385 -76l2 2q36 85 55.5 149t44.5 179l101 473h-47q-188 0 -298 86.5t-110 257.5q0 194 141.5 311t389.5 117h192v-2q-38 -89 -58 -152.5t-44 -175.5l-195 -915q-26 -115 -33.5 -180t-3.5 -148l-2 -2h-135zM608 -76v2q39 91 59 154t44 174l194 915q26 113 33.5 179
t3.5 149v2h135v-2q-37 -85 -57 -150t-45 -178l-195 -915q-26 -113 -33.5 -179t-3.5 -149v-2h-135z" />
    <glyph glyph-name="periodcentered" unicode="&#xb7;" horiz-adv-x="499" 
d="M264 420q-63 0 -108 45t-45 108t45 108.5t108 45.5q62 0 108 -45.5t46 -108.5t-46 -108t-108 -45z" />
    <glyph glyph-name="cedilla" unicode="&#xb8;" 
d="M18 -502q193 71 201 174q2 27 -9 44.5t-32 25t-38 10t-36 2.5l-4 4l191 246h51l-90 -117q147 -39 139 -153q-6 -92 -101.5 -157.5t-264.5 -98.5z" />
    <glyph glyph-name="ordmasculine" unicode="&#xba;" horiz-adv-x="790" 
d="M870 1202q0 -93 -39.5 -183.5t-102.5 -156.5t-145.5 -106.5t-164.5 -40.5q-135 0 -212 88t-77 241q0 93 39.5 183.5t103 156t146 106t164.5 40.5q135 0 211.5 -87.5t76.5 -240.5zM350 879q0 -134 70 -134q59 0 113.5 106.5t85 249.5t30.5 265q0 133 -69 133
q-62 0 -117 -106.5t-84 -248.5t-29 -265z" />
    <glyph glyph-name="guillemotright" unicode="&#xbb;" horiz-adv-x="866" 
d="M522 864l248 -358l-10 -41l-400 -359l-12 13l250 383l-90 354zM203 864l248 -358l-11 -41l-399 -359l-12 13l250 383l-91 354z" />
    <glyph glyph-name="onequarter" unicode="&#xbc;" horiz-adv-x="1310" 
d="M453 963q-16 -82 -16.5 -141.5t12.5 -112.5v-2h-291v2q35 61 51.5 110t38.5 144l78 378h-78l4 13q141 54 305 174h12zM121 33l1114 1489l41 -27l-1116 -1493zM770 2q10 15 18 32t12.5 27.5t11.5 34t9 30.5t10.5 39t10.5 40h-264l2 12l411 590h258l-620 -567h219l41 192
h219l-37 -192h80l-12 -35h-74q-12 -78 -11 -114t13 -89v-2h-297v2z" />
    <glyph glyph-name="onehalf" unicode="&#xbd;" horiz-adv-x="1359" 
d="M121 33l1114 1489l41 -27l-1116 -1493zM682 0l2 18q239 239 327.5 390t88.5 280q0 103 -51 103q-35 0 -80.5 -53t-124.5 -169l-13 4l54 213q95 37 182 37q115 0 176.5 -50t61.5 -134q0 -115 -114 -229t-337 -246h193q60 0 101.5 27t92.5 83l8 -2l-102 -272h-465zM467 963
q-16 -82 -16.5 -141.5t12.5 -112.5v-2h-291v2q35 61 51.5 110t38.5 144l78 378h-78l4 13q141 54 305 174h13z" />
    <glyph glyph-name="threequarters" unicode="&#xbe;" horiz-adv-x="1382" 
d="M317 692q-107 0 -167 31l-15 223l10 2q56 -123 93.5 -174t83.5 -51q59 0 96 79t37 187q0 84 -23 119t-67 35t-101 -47l-12 14l283 233h-299l83 162h443v-14l-381 -313q24 8 63 8q97 0 158.5 -53t61.5 -152q0 -123 -95.5 -206t-251.5 -83zM195 33l1114 1489l41 -27
l-1117 -1493zM844 2q10 15 17.5 31.5t13 29t11.5 32.5t9 31t10 38.5t10 40.5h-264l2 12l412 590h258l-621 -567h220l41 192h219l-37 -192h80l-13 -35h-73q-12 -78 -11 -114t13 -89v-2h-297v2z" />
    <glyph glyph-name="questiondown" unicode="&#xbf;" horiz-adv-x="894" 
d="M666 506q-21 -87 -55.5 -162.5t-72 -127.5t-77.5 -100t-76 -90.5t-64.5 -88t-45.5 -104.5t-17 -128q0 -96 29.5 -147.5t83.5 -51.5q55 0 113.5 56.5t185.5 215.5q7 8 11 13.5t9 11.5l12 -4l-94 -280q-146 -51 -280 -51q-163 0 -257 74t-94 218q0 72 28 132.5t75 106
t105.5 86.5t124 84t125 88.5t113.5 110t85 138.5h33zM670 1008q65 0 110 -46t45 -110q0 -66 -44.5 -112t-110.5 -46t-111 46t-45 112q0 64 45.5 110t110.5 46z" />
    <glyph glyph-name="Agrave" unicode="&#xc0;" horiz-adv-x="1128" 
d="M575 1161l-258 -551h320zM199 0h-285v4q73 65 125 147.5t113 217.5l534 1138h125l133 -1151q13 -131 33 -209t63 -143v-4h-440v4q89 121 62 381l-21 180h-346l-53 -114q-50 -107 -70 -197t-12 -151t39 -99v-4zM924 1602l-467 172l108 196l373 -344z" />
    <glyph glyph-name="Aacute" unicode="&#xc1;" horiz-adv-x="1128" 
d="M575 1161l-258 -551h320zM199 0h-285v4q73 65 125 147.5t113 217.5l534 1138h125l133 -1151q13 -131 33 -209t63 -143v-4h-440v4q89 121 62 381l-21 180h-346l-53 -114q-50 -107 -70 -197t-12 -151t39 -99v-4zM1001 1970l89 -194l-535 -174l-12 24z" />
    <glyph glyph-name="Acircumflex" unicode="&#xc2;" horiz-adv-x="1128" 
d="M575 1161l-258 -551h320zM199 0h-285v4q73 65 125 147.5t113 217.5l534 1138h125l133 -1151q13 -131 33 -209t63 -143v-4h-440v4q89 121 62 381l-21 180h-346l-53 -114q-50 -107 -70 -197t-12 -151t39 -99v-4zM780 1739l-325 -137l-13 20l361 324h14l234 -324l-21 -20z
" />
    <glyph glyph-name="Atilde" unicode="&#xc3;" horiz-adv-x="1128" 
d="M575 1161l-258 -551h320zM199 0h-285v4q73 65 125 147.5t113 217.5l534 1138h125l133 -1151q13 -131 33 -209t63 -143v-4h-440v4q89 121 62 381l-21 180h-346l-53 -114q-50 -107 -70 -197t-12 -151t39 -99v-4zM645 1864q60 0 151.5 -40t153.5 -40q55 0 91 23.5t65 82.5
l22 -4q-7 -51 -21.5 -95t-40.5 -85.5t-70 -65.5t-101 -24q-59 0 -151.5 40t-153.5 40q-56 0 -93.5 -24.5t-62.5 -84.5l-22 4q7 52 21 95.5t39.5 86t70 67t102.5 24.5z" />
    <glyph glyph-name="Adieresis" unicode="&#xc4;" horiz-adv-x="1128" 
d="M575 1161l-258 -551h320zM199 0h-285v4q73 65 125 147.5t113 217.5l534 1138h125l133 -1151q13 -131 33 -209t63 -143v-4h-440v4q89 121 62 381l-21 180h-346l-53 -114q-50 -107 -70 -197t-12 -151t39 -99v-4zM1106 1778q0 -60 -43.5 -103t-104.5 -43q-60 0 -101.5 43
t-41.5 103t41.5 102.5t101.5 42.5q61 0 104.5 -42.5t43.5 -102.5zM694 1778q0 -60 -42.5 -103t-102.5 -43t-101.5 43t-41.5 103t41.5 102.5t101.5 42.5t102.5 -42.5t42.5 -102.5z" />
    <glyph glyph-name="Aring" unicode="&#xc5;" horiz-adv-x="1128" 
d="M575 1161l-258 -551h320zM199 0h-285v4q73 65 125 147.5t113 217.5l534 1138h125l133 -1151q13 -131 33 -209t63 -143v-4h-440v4q89 121 62 381l-21 180h-346l-53 -114q-50 -107 -70 -197t-12 -151t39 -99v-4zM582 1776q0 78 53 129t133 51t134 -50.5t54 -129.5
q0 -77 -54.5 -127t-133.5 -50t-132.5 50t-53.5 127zM668 1776q0 -66 26.5 -102t73.5 -36q48 0 75 36t27 102t-27.5 103.5t-74.5 37.5t-73.5 -37.5t-26.5 -103.5z" />
    <glyph glyph-name="AE" unicode="&#xc6;" horiz-adv-x="1759" 
d="M922 1110q24 136 26 201l-473 -701h352zM215 0h-285v4q87 63 158.5 147.5t161.5 217.5l690 1011q-12 63 -61 115v4h845l23 -371l-21 -4q-164 321 -262 328l-196 12l-127 -678h90q26 0 57 14.5t56.5 34t58 51.5t51 52t45.5 51h23l-86 -454h-21q-56 105 -83 139
q-54 69 -109 69h-90l-134 -708l263 12q36 2 81.5 28t84.5 60.5t90.5 93t85 100t82.5 105.5l20 -6l-145 -428h-912v4q41 86 59.5 127.5t40 110t37.5 151.5l33 172h-375l-88 -129q-76 -112 -113.5 -193t-41.5 -137t14 -102v-4z" />
    <glyph glyph-name="Ccedilla" unicode="&#xc7;" horiz-adv-x="1277" 
d="M338 -502q193 71 201 174q2 27 -9 44.5t-32 25t-38 10t-36 2.5l-4 4l164 213q-111 10 -189 45q-152 73 -231.5 223.5t-79.5 354.5q0 188 66 360t179 299t273.5 202t339.5 75q92 0 183.5 -16.5t140.5 -36.5l16 -381l-22 -4q-108 222 -187.5 308.5t-183.5 86.5
q-114 0 -214 -94t-165.5 -241.5t-103 -325t-37.5 -349.5q0 -229 71 -347t203 -118q61 0 116.5 24.5t122.5 93t104 113t124 158.5q30 38 45 58l23 -8l-95 -357q-56 -39 -185 -82t-259 -43h-4l-64 -82q148 -39 140 -153q-6 -92 -102 -157.5t-265 -98.5z" />
    <glyph glyph-name="Egrave" unicode="&#xc8;" horiz-adv-x="1105" 
d="M905 0h-911v4q41 86 59.5 127.5t40 110t37.5 151.5l133 717q24 123 24 205t-18 180v4h805l17 -371l-21 -4q-164 321 -262 328l-199 12l-127 -678h92q32 0 69 19.5t76.5 55.5t64.5 62.5t59 65.5h20l-84 -454h-22q-2 4 -18.5 35.5t-23 42t-22.5 37t-27.5 38t-29 27.5
t-35.5 22t-37 6h-90l-131 -708l262 12q44 2 98 35.5t113 95t105 116t106 132.5l21 -8zM872 1602l-466 172l108 196l373 -344z" />
    <glyph glyph-name="Eacute" unicode="&#xc9;" horiz-adv-x="1105" 
d="M905 0h-911v4q41 86 59.5 127.5t40 110t37.5 151.5l133 717q24 123 24 205t-18 180v4h805l17 -371l-21 -4q-164 321 -262 328l-199 12l-127 -678h92q32 0 69 19.5t76.5 55.5t64.5 62.5t59 65.5h20l-84 -454h-22q-2 4 -18.5 35.5t-23 42t-22.5 37t-27.5 38t-29 27.5
t-35.5 22t-37 6h-90l-131 -708l262 12q44 2 98 35.5t113 95t105 116t106 132.5l21 -8zM948 1970l88 -194l-534 -174l-13 24z" />
    <glyph glyph-name="Ecircumflex" unicode="&#xca;" horiz-adv-x="1105" 
d="M905 0h-911v4q41 86 59.5 127.5t40 110t37.5 151.5l133 717q24 123 24 205t-18 180v4h805l17 -371l-21 -4q-164 321 -262 328l-199 12l-127 -678h92q32 0 69 19.5t76.5 55.5t64.5 62.5t59 65.5h20l-84 -454h-22q-2 4 -18.5 35.5t-23 42t-22.5 37t-27.5 38t-29 27.5
t-35.5 22t-37 6h-90l-131 -708l262 12q44 2 98 35.5t113 95t105 116t106 132.5l21 -8zM741 1739l-325 -137l-13 20l361 324h14l234 -324l-21 -20z" />
    <glyph glyph-name="Edieresis" unicode="&#xcb;" horiz-adv-x="1105" 
d="M905 0h-911v4q41 86 59.5 127.5t40 110t37.5 151.5l133 717q24 123 24 205t-18 180v4h805l17 -371l-21 -4q-164 321 -262 328l-199 12l-127 -678h92q32 0 69 19.5t76.5 55.5t64.5 62.5t59 65.5h20l-84 -454h-22q-2 4 -18.5 35.5t-23 42t-22.5 37t-27.5 38t-29 27.5
t-35.5 22t-37 6h-90l-131 -708l262 12q44 2 98 35.5t113 95t105 116t106 132.5l21 -8zM1061 1778q0 -60 -43.5 -103t-104.5 -43q-60 0 -101.5 43t-41.5 103t41.5 102.5t101.5 42.5q61 0 104.5 -42.5t43.5 -102.5zM649 1778q0 -60 -42.5 -103t-102.5 -43t-102 43t-42 103
t42 102.5t102 42.5t102.5 -42.5t42.5 -102.5z" />
    <glyph glyph-name="Igrave" unicode="&#xcc;" horiz-adv-x="575" 
d="M-8 0v4q60 114 89 193t52 209l127 688q28 134 28 212.5t-22 188.5v4h424v-4q-65 -97 -92 -172.5t-59 -228.5l-129 -688q-24 -135 -24 -217.5t22 -184.5v-4h-416zM674 1602l-467 172l108 196l373 -344z" />
    <glyph glyph-name="Iacute" unicode="&#xcd;" horiz-adv-x="575" 
d="M-8 0v4q60 114 89 193t52 209l127 688q28 134 28 212.5t-22 188.5v4h424v-4q-65 -97 -92 -172.5t-59 -228.5l-129 -688q-24 -135 -24 -217.5t22 -184.5v-4h-416zM739 1970l88 -194l-534 -174l-12 24z" />
    <glyph glyph-name="Icircumflex" unicode="&#xce;" horiz-adv-x="575" 
d="M-8 0v4q60 114 89 193t52 209l127 688q28 134 28 212.5t-22 188.5v4h424v-4q-65 -97 -92 -172.5t-59 -228.5l-129 -688q-24 -135 -24 -217.5t22 -184.5v-4h-416zM528 1739l-325 -137l-13 20l361 324h14l234 -324l-21 -20z" />
    <glyph glyph-name="Idieresis" unicode="&#xcf;" horiz-adv-x="575" 
d="M844 1778q0 -60 -42.5 -103t-103.5 -43q-60 0 -101.5 43t-41.5 103t41.5 102.5t101.5 42.5q61 0 103.5 -42.5t42.5 -102.5zM475 1778q0 -60 -43 -103t-104 -43q-60 0 -102 43t-42 103t42 102.5t102 42.5q61 0 104 -42.5t43 -102.5zM-8 0v4q60 114 89 193t52 209l127 688
q28 134 28 212.5t-22 188.5v4h424v-4q-65 -97 -92 -172.5t-59 -228.5l-129 -688q-24 -135 -24 -217.5t22 -184.5v-4h-416z" />
    <glyph glyph-name="Eth" unicode="&#xd0;" horiz-adv-x="1323" 
d="M51 762h170l70 368q24 128 22.5 200.5t-26.5 164.5v4q92 0 221.5 4t226.5 4q297 0 448.5 -152.5t151.5 -451.5q0 -190 -62 -356t-172.5 -287t-271 -190.5t-348.5 -69.5h-467v4q61 107 87.5 176t45.5 187l66 350h-170zM731 1462h-37q-42 0 -65 -2l-131 -698h286l-8 -45
h-287l-124 -674q24 0 52.5 0.5t47.5 1t20 0.5q117 2 213.5 60t160 150t107 213.5t62.5 247.5t19 255q0 249 -76.5 370t-239.5 121z" />
    <glyph glyph-name="Ntilde" unicode="&#xd1;" horiz-adv-x="1204" 
d="M340 1243l-147 -819q-24 -145 -13.5 -230t64.5 -190v-4h-283v4q59 72 92 135.5t47 115.5t37 169l135 717l-2 -6q23 131 13.5 210.5t-68.5 149.5v4h311l480 -1040l112 616q24 148 14.5 229.5t-59.5 190.5v4h289v-4q-88 -113 -123.5 -192t-64.5 -228l-203 -1075l-53 -6z
M717 1864q60 0 151.5 -40t153.5 -40q55 0 91 23.5t65 82.5l22 -4q-7 -51 -21.5 -95t-40.5 -85.5t-70 -65.5t-101 -24q-59 0 -151.5 40t-153.5 40q-56 0 -93.5 -24.5t-62.5 -84.5l-23 4q7 52 21 95.5t40 86t70.5 67t102.5 24.5z" />
    <glyph glyph-name="Ograve" unicode="&#xd2;" horiz-adv-x="1396" 
d="M1409 911q0 -179 -67.5 -352.5t-178 -302.5t-259.5 -208t-304 -79q-156 0 -274.5 82.5t-180 223t-61.5 315.5q0 178 67.5 351t177.5 301.5t259.5 208t304.5 79.5t273.5 -82.5t180.5 -222.5t62 -314zM367 418q0 -194 59.5 -300t181.5 -106q91 0 175 70t145 184
t106.5 254.5t68.5 286t23 274.5q0 194 -60.5 300t-182.5 106q-91 0 -174 -70t-144 -184t-106.5 -254.5t-68.5 -286t-23 -274.5zM1092 1602l-467 172l108 196l373 -344z" />
    <glyph glyph-name="Oacute" unicode="&#xd3;" horiz-adv-x="1396" 
d="M1409 911q0 -179 -67.5 -352.5t-178 -302.5t-259.5 -208t-304 -79q-156 0 -274.5 82.5t-180 223t-61.5 315.5q0 178 67.5 351t177.5 301.5t259.5 208t304.5 79.5t273.5 -82.5t180.5 -222.5t62 -314zM367 418q0 -194 59.5 -300t181.5 -106q91 0 175 70t145 184
t106.5 254.5t68.5 286t23 274.5q0 194 -60.5 300t-182.5 106q-91 0 -174 -70t-144 -184t-106.5 -254.5t-68.5 -286t-23 -274.5zM1157 1970l88 -194l-534 -174l-13 24z" />
    <glyph glyph-name="Ocircumflex" unicode="&#xd4;" horiz-adv-x="1396" 
d="M1409 911q0 -179 -67.5 -352.5t-178 -302.5t-259.5 -208t-304 -79q-156 0 -274.5 82.5t-180 223t-61.5 315.5q0 178 67.5 351t177.5 301.5t259.5 208t304.5 79.5t273.5 -82.5t180.5 -222.5t62 -314zM367 418q0 -194 59.5 -300t181.5 -106q91 0 175 70t145 184
t106.5 254.5t68.5 286t23 274.5q0 194 -60.5 300t-182.5 106q-91 0 -174 -70t-144 -184t-106.5 -254.5t-68.5 -286t-23 -274.5zM934 1739l-326 -137l-12 20l360 324h15l233 -324l-20 -20z" />
    <glyph glyph-name="Otilde" unicode="&#xd5;" horiz-adv-x="1396" 
d="M1409 911q0 -179 -67.5 -352.5t-178 -302.5t-259.5 -208t-304 -79q-156 0 -274.5 82.5t-180 223t-61.5 315.5q0 178 67.5 351t177.5 301.5t259.5 208t304.5 79.5t273.5 -82.5t180.5 -222.5t62 -314zM367 418q0 -194 59.5 -300t181.5 -106q91 0 175 70t145 184
t106.5 254.5t68.5 286t23 274.5q0 194 -60.5 300t-182.5 106q-91 0 -174 -70t-144 -184t-106.5 -254.5t-68.5 -286t-23 -274.5zM795 1864q60 0 151.5 -40t153.5 -40q55 0 90.5 23.5t64.5 82.5l23 -4q-7 -51 -21.5 -95t-41 -85.5t-70.5 -65.5t-101 -24q-59 0 -151.5 40
t-153.5 40q-56 0 -93 -24.5t-62 -84.5l-23 4q7 52 21 95.5t40 86t70.5 67t102.5 24.5z" />
    <glyph glyph-name="Odieresis" unicode="&#xd6;" horiz-adv-x="1396" 
d="M1409 911q0 -179 -67.5 -352.5t-178 -302.5t-259.5 -208t-304 -79q-156 0 -274.5 82.5t-180 223t-61.5 315.5q0 178 67.5 351t177.5 301.5t259.5 208t304.5 79.5t273.5 -82.5t180.5 -222.5t62 -314zM367 418q0 -194 59.5 -300t181.5 -106q91 0 175 70t145 184
t106.5 254.5t68.5 286t23 274.5q0 194 -60.5 300t-182.5 106q-91 0 -174 -70t-144 -184t-106.5 -254.5t-68.5 -286t-23 -274.5zM1268 1778q0 -60 -43.5 -103t-104.5 -43q-60 0 -101.5 43t-41.5 103t41.5 102.5t101.5 42.5q61 0 104.5 -42.5t43.5 -102.5zM856 1778
q0 -60 -42.5 -103t-102.5 -43t-102 43t-42 103t42 102.5t102 42.5t102.5 -42.5t42.5 -102.5z" />
    <glyph glyph-name="multiply" unicode="&#xd7;" horiz-adv-x="966" 
d="M514 594l-346 -346l-37 35l346 346l-346 346l37 35l346 -344l344 344l37 -35l-346 -346l346 -346l-37 -35z" />
    <glyph glyph-name="Oslash" unicode="&#xd8;" horiz-adv-x="1396" 
d="M365 418q0 -74 10 -146l725 1020q-55 195 -219 195q-91 0 -174.5 -70t-144.5 -184t-106.5 -254.5t-68 -286t-22.5 -274.5zM606 12q91 0 175 70t145 184t106.5 254.5t68.5 286t23 274.5q0 70 -10 148l-725 -1022q55 -195 217 -195zM598 -31q-176 0 -303 105l-113 -158h-59
l135 190q-176 176 -176 484q0 178 67.5 351t177.5 301.5t259.5 208t304.5 79.5q173 0 303 -105l113 160h59l-135 -192q86 -84 131 -208.5t45 -273.5q0 -179 -67.5 -352.5t-178 -302.5t-259.5 -208t-304 -79z" />
    <glyph glyph-name="Ugrave" unicode="&#xd9;" horiz-adv-x="1204" 
d="M551 -31q-110 0 -195.5 34t-143.5 104t-75 177t10 253l105 557q29 138 29 219.5t-25 181.5v4h424v-4q-59 -93 -92.5 -180t-57.5 -221l-106 -568q-26 -138 -24.5 -231t33 -150t78 -81.5t110.5 -24.5q81 0 146.5 38.5t111 108.5t76 156t49.5 193l102 540q27 148 15.5 230
t-70.5 190v4h315v-4q-97 -115 -136.5 -194.5t-68.5 -225.5l-100 -530q-22 -108 -45.5 -185.5t-63.5 -156t-92 -126.5t-130.5 -78t-178.5 -30zM1049 1602l-467 172l108 196l373 -344z" />
    <glyph glyph-name="Uacute" unicode="&#xda;" horiz-adv-x="1204" 
d="M551 -31q-110 0 -195.5 34t-143.5 104t-75 177t10 253l105 557q29 138 29 219.5t-25 181.5v4h424v-4q-59 -93 -92.5 -180t-57.5 -221l-106 -568q-26 -138 -24.5 -231t33 -150t78 -81.5t110.5 -24.5q81 0 146.5 38.5t111 108.5t76 156t49.5 193l102 540q27 148 15.5 230
t-70.5 190v4h315v-4q-97 -115 -136.5 -194.5t-68.5 -225.5l-100 -530q-22 -108 -45.5 -185.5t-63.5 -156t-92 -126.5t-130.5 -78t-178.5 -30zM1098 1970l88 -194l-535 -174l-12 24z" />
    <glyph glyph-name="Ucircumflex" unicode="&#xdb;" horiz-adv-x="1204" 
d="M551 -31q-110 0 -195.5 34t-143.5 104t-75 177t10 253l105 557q29 138 29 219.5t-25 181.5v4h424v-4q-59 -93 -92.5 -180t-57.5 -221l-106 -568q-26 -138 -24.5 -231t33 -150t78 -81.5t110.5 -24.5q81 0 146.5 38.5t111 108.5t76 156t49.5 193l102 540q27 148 15.5 230
t-70.5 190v4h315v-4q-97 -115 -136.5 -194.5t-68.5 -225.5l-100 -530q-22 -108 -45.5 -185.5t-63.5 -156t-92 -126.5t-130.5 -78t-178.5 -30zM879 1739l-326 -137l-12 20l360 324h14l234 -324l-21 -20z" />
    <glyph glyph-name="Udieresis" unicode="&#xdc;" horiz-adv-x="1204" 
d="M551 -31q-110 0 -195.5 34t-143.5 104t-75 177t10 253l105 557q29 138 29 219.5t-25 181.5v4h424v-4q-59 -93 -92.5 -180t-57.5 -221l-106 -568q-26 -138 -24.5 -231t33 -150t78 -81.5t110.5 -24.5q81 0 146.5 38.5t111 108.5t76 156t49.5 193l102 540q27 148 15.5 230
t-70.5 190v4h315v-4q-97 -115 -136.5 -194.5t-68.5 -225.5l-100 -530q-22 -108 -45.5 -185.5t-63.5 -156t-92 -126.5t-130.5 -78t-178.5 -30zM1212 1778q0 -60 -43 -103t-104 -43q-60 0 -101.5 43t-41.5 103t41.5 102.5t101.5 42.5q61 0 104 -42.5t43 -102.5zM801 1778
q0 -60 -43 -103t-103 -43t-101.5 43t-41.5 103t41.5 102.5t101.5 42.5t103 -42.5t43 -102.5z" />
    <glyph glyph-name="Yacute" unicode="&#xdd;" horiz-adv-x="1058" 
d="M231 4q58 102 85 173t51 192l63 342l-117 456q-30 113 -62.5 190t-78.5 138v4h475v-4q-45 -45 -57.5 -125.5t10.5 -179.5l100 -406l191 306q60 91 82.5 175.5t14.5 137t-32 92.5v4h310v-4q-83 -70 -147 -150t-146 -210l-268 -430l-60 -338q-24 -127 -22 -198.5t28 -164.5
l-2 -4h-418v4zM1073 1970l88 -194l-534 -174l-13 24z" />
    <glyph glyph-name="Thorn" unicode="&#xde;" horiz-adv-x="1067" 
d="M-8 4q60 114 89 193t52 209l127 688q28 134 28 212.5t-22 188.5v4h424v-4q-52 -80 -78.5 -140.5t-46.5 -142.5h115q218 0 318 -89.5t100 -248.5q0 -107 -41 -205t-116.5 -174t-193 -121.5t-260.5 -45.5h-90q-16 -103 -13 -169t24 -155v-4h-416v4zM403 377h82
q70 0 127.5 32t95.5 84.5t64 121t37.5 139t11.5 141.5q0 144 -50 208t-146 64h-33q-25 0 -39 -2l-14 -71l-129 -688z" />
    <glyph glyph-name="germandbls" unicode="&#xdf;" horiz-adv-x="1101" 
d="M-41 -338l274 1278h-124l10 43h123l10 45q55 262 201.5 413.5t357.5 151.5q147 0 235.5 -68.5t88.5 -199.5q0 -64 -22.5 -119t-58 -93.5t-79 -72.5t-87 -63t-79 -56.5t-58 -60.5t-22.5 -69q0 -44 33 -85t79.5 -77.5t93 -79.5t79.5 -108.5t33 -145.5q0 -147 -97.5 -236.5
t-253.5 -89.5q-68 0 -140 17t-105 34l-11 304l15 4q78 -172 141 -247t139 -75q58 0 92.5 37t34.5 102q0 58 -33.5 110t-81 93t-94.5 83.5t-80.5 100.5t-33.5 125q0 55 22 99.5t57 78t77.5 66t84.5 72.5t77 88.5t57 123t22 167.5t-30.5 147.5t-108.5 54.5q-104 0 -168.5 -101
t-104.5 -300l-319 -1491h-246z" />
    <glyph glyph-name="agrave" unicode="&#xe0;" horiz-adv-x="999" 
d="M365 150q38 0 77 36.5t75.5 103.5t66.5 137t63 161l2 -2l88 336q-20 51 -88 51q-74 0 -144.5 -67.5t-118.5 -168t-77.5 -214.5t-29.5 -208q0 -165 86 -165zM614 395q-166 -426 -376 -426q-98 0 -153.5 80t-55.5 225q0 101 27.5 205t83.5 200.5t133.5 172t185.5 121
t231 45.5q118 0 197 -33l100 33h17l-191 -729q-33 -109 -21 -170t85 -92v-7l-369 -38zM780 1102l-383 291l154 141l250 -414z" />
    <glyph glyph-name="aacute" unicode="&#xe1;" horiz-adv-x="999" 
d="M365 150q38 0 77 36.5t75.5 103.5t66.5 137t63 161l2 -2l88 336q-20 51 -88 51q-74 0 -144.5 -67.5t-118.5 -168t-77.5 -214.5t-29.5 -208q0 -165 86 -165zM614 395q-166 -426 -376 -426q-98 0 -153.5 80t-55.5 225q0 101 27.5 205t83.5 200.5t133.5 172t185.5 121
t231 45.5q118 0 197 -33l100 33h17l-191 -729q-33 -109 -21 -170t85 -92v-7l-369 -38zM829 1534l125 -162l-456 -256l-15 19z" />
    <glyph glyph-name="acircumflex" unicode="&#xe2;" horiz-adv-x="999" 
d="M365 150q38 0 77 36.5t75.5 103.5t66.5 137t63 161l2 -2l88 336q-20 51 -88 51q-74 0 -144.5 -67.5t-118.5 -168t-77.5 -214.5t-29.5 -208q0 -165 86 -165zM614 395q-166 -426 -376 -426q-98 0 -153.5 80t-55.5 225q0 101 27.5 205t83.5 200.5t133.5 172t185.5 121
t231 45.5q118 0 197 -33l100 33h17l-191 -729q-33 -109 -21 -170t85 -92v-7l-369 -38zM680 1272l-299 -166l-12 20l333 359h15l201 -359l-21 -20z" />
    <glyph glyph-name="atilde" unicode="&#xe3;" horiz-adv-x="999" 
d="M365 150q38 0 77 36.5t75.5 103.5t66.5 137t63 161l2 -2l88 336q-20 51 -88 51q-74 0 -144.5 -67.5t-118.5 -168t-77.5 -214.5t-29.5 -208q0 -165 86 -165zM614 395q-166 -426 -376 -426q-98 0 -153.5 80t-55.5 225q0 101 27.5 205t83.5 200.5t133.5 172t185.5 121
t231 45.5q118 0 197 -33l100 33h17l-191 -729q-33 -109 -21 -170t85 -92v-7l-369 -38zM575 1401q50 0 136.5 -34t136.5 -34q99 0 127 97l22 -3q-6 -56 -26.5 -109.5t-67.5 -97.5t-110 -44q-49 0 -136 33.5t-139 33.5q-108 0 -135 -96l-23 2q6 55 28.5 109.5t72 98.5
t114.5 44z" />
    <glyph glyph-name="adieresis" unicode="&#xe4;" horiz-adv-x="999" 
d="M365 150q38 0 77 36.5t75.5 103.5t66.5 137t63 161l2 -2l88 336q-20 51 -88 51q-74 0 -144.5 -67.5t-118.5 -168t-77.5 -214.5t-29.5 -208q0 -165 86 -165zM614 395q-166 -426 -376 -426q-98 0 -153.5 80t-55.5 225q0 101 27.5 205t83.5 200.5t133.5 172t185.5 121
t231 45.5q118 0 197 -33l100 33h17l-191 -729q-33 -109 -21 -170t85 -92v-7l-369 -38zM621 1341q0 -60 -44 -101.5t-104 -41.5t-101.5 41.5t-41.5 101.5t41.5 103t101.5 43q59 0 103.5 -44.5t44.5 -101.5zM1012 1341q0 -60 -43 -101.5t-103 -41.5t-101.5 41.5t-41.5 101.5
t41.5 103t101.5 43t103 -43t43 -103z" />
    <glyph glyph-name="aring" unicode="&#xe5;" horiz-adv-x="999" 
d="M365 150q38 0 77 36.5t75.5 103.5t66.5 137t63 161l2 -2l88 336q-20 51 -88 51q-74 0 -144.5 -67.5t-118.5 -168t-77.5 -214.5t-29.5 -208q0 -165 86 -165zM614 395q-166 -426 -376 -426q-98 0 -153.5 80t-55.5 225q0 101 27.5 205t83.5 200.5t133.5 172t185.5 121
t231 45.5q118 0 197 -33l100 33h17l-191 -729q-33 -109 -21 -170t85 -92v-7l-369 -38zM492 1337q0 78 53 128.5t133 50.5t134 -50t54 -129q0 -77 -54.5 -126.5t-133.5 -49.5t-132.5 49.5t-53.5 126.5zM578 1337q0 -137 100 -137q48 0 75 36t27 101q0 66 -27.5 103t-74.5 37
t-73.5 -37t-26.5 -103z" />
    <glyph glyph-name="ae" unicode="&#xe6;" horiz-adv-x="1411" 
d="M608 356q-162 -387 -370 -387q-97 0 -153 80.5t-56 222.5q0 100 28.5 205.5t84.5 201.5t131.5 172t177 121.5t213.5 45.5q158 0 243 -92q136 92 281 92q38 0 74 -7t72.5 -22.5t58.5 -46.5t22 -74q0 -36 -17 -68.5t-56.5 -63.5t-99.5 -53.5t-152 -37t-207 -16.5
q-23 -97 -23 -180q0 -148 54.5 -213.5t142.5 -65.5q143 0 233 156l10 -11q-53 -169 -154.5 -255.5t-232.5 -86.5q-142 0 -223.5 97.5t-81.5 273.5v12zM365 150q32 0 65 25.5t60 64t57 98t52 113.5t48 124q38 101 82 166q19 131 1 181.5t-75 50.5q-76 0 -148 -67.5
t-120.5 -167.5t-78 -213.5t-29.5 -207.5t26 -130.5t60 -36.5zM1161 981q-77 0 -156.5 -94t-115.5 -234q84 16 148 41.5t99 52t56.5 58t28 55t6.5 47.5q0 74 -66 74z" />
    <glyph glyph-name="ccedilla" unicode="&#xe7;" horiz-adv-x="831" 
d="M33 -502q192 71 200 174q2 27 -9 44.5t-32 25t-37.5 10t-35.5 2.5l-4 4l168 217q-104 18 -170 99q-82 104 -82 280q0 128 44.5 248.5t120.5 212.5t185.5 147.5t232.5 55.5q115 0 193 -27v-299l-19 -4q-89 177 -122 223q-51 69 -107 70q-44 0 -93 -40.5t-90.5 -108
t-69 -166t-27.5 -203.5q0 -152 57 -229.5t158 -77.5q151 0 235 172l14 -4q-49 -165 -150 -260t-245 -95h-18l-64 -82q148 -39 140 -153q-6 -92 -102 -157.5t-265 -98.5z" />
    <glyph glyph-name="egrave" unicode="&#xe8;" horiz-adv-x="833" 
d="M342 -31q-144 0 -227.5 99t-83.5 276q0 172 79.5 328t214.5 251t287 95q38 0 74 -7t72 -22.5t58 -46.5t22 -74q0 -36 -17 -68.5t-56.5 -63t-100 -53t-152 -37t-207.5 -17.5q-20 -81 -20 -180q0 -150 53 -216.5t141 -66.5q156 0 240 153l12 -8q-54 -170 -155.5 -256
t-233.5 -86zM584 981q-77 0 -156 -94t-115 -234q85 16 149 41.5t99 52t56.5 58t27.5 55t6 47.5q0 74 -67 74zM700 1102l-383 291l154 141l250 -414z" />
    <glyph glyph-name="eacute" unicode="&#xe9;" horiz-adv-x="833" 
d="M342 -31q-144 0 -227.5 99t-83.5 276q0 172 79.5 328t214.5 251t287 95q38 0 74 -7t72 -22.5t58 -46.5t22 -74q0 -36 -17 -68.5t-56.5 -63t-100 -53t-152 -37t-207.5 -17.5q-20 -81 -20 -180q0 -150 53 -216.5t141 -66.5q156 0 240 153l12 -8q-54 -170 -155.5 -256
t-233.5 -86zM584 981q-77 0 -156 -94t-115 -234q85 16 149 41.5t99 52t56.5 58t27.5 55t6 47.5q0 74 -67 74zM731 1534l125 -162l-457 -256l-14 19z" />
    <glyph glyph-name="ecircumflex" unicode="&#xea;" horiz-adv-x="833" 
d="M342 -31q-144 0 -227.5 99t-83.5 276q0 172 79.5 328t214.5 251t287 95q38 0 74 -7t72 -22.5t58 -46.5t22 -74q0 -36 -17 -68.5t-56.5 -63t-100 -53t-152 -37t-207.5 -17.5q-20 -81 -20 -180q0 -150 53 -216.5t141 -66.5q156 0 240 153l12 -8q-54 -170 -155.5 -256
t-233.5 -86zM584 981q-77 0 -156 -94t-115 -234q85 16 149 41.5t99 52t56.5 58t27.5 55t6 47.5q0 74 -67 74zM592 1272l-299 -166l-12 20l333 359h15l200 -359l-20 -20z" />
    <glyph glyph-name="edieresis" unicode="&#xeb;" horiz-adv-x="833" 
d="M342 -31q-144 0 -227.5 99t-83.5 276q0 172 79.5 328t214.5 251t287 95q38 0 74 -7t72 -22.5t58 -46.5t22 -74q0 -36 -17 -68.5t-56.5 -63t-100 -53t-152 -37t-207.5 -17.5q-20 -81 -20 -180q0 -150 53 -216.5t141 -66.5q156 0 240 153l12 -8q-54 -170 -155.5 -256
t-233.5 -86zM584 981q-77 0 -156 -94t-115 -234q85 16 149 41.5t99 52t56.5 58t27.5 55t6 47.5q0 74 -67 74zM506 1341q0 -60 -44 -101.5t-104 -41.5t-101.5 41.5t-41.5 101.5t41.5 103t101.5 43t104 -44.5t44 -101.5zM897 1341q0 -60 -42.5 -101.5t-102.5 -41.5t-102 41.5
t-42 101.5t42 103t102 43t102.5 -43t42.5 -103z" />
    <glyph glyph-name="igrave" unicode="&#xec;" horiz-adv-x="493" 
d="M-2 4q38 77 59.5 151.5t55.5 227.5l47 223q23 109 6.5 189t-68.5 125v4l396 104l-134 -641q-32 -156 -39 -237t5 -146v-4h-328v4zM508 1102l-383 291l154 141l249 -414z" />
    <glyph glyph-name="iacute" unicode="&#xed;" horiz-adv-x="493" 
d="M-2 4q38 77 59.5 151.5t55.5 227.5l47 223q23 109 6.5 189t-68.5 125v4l396 104l-134 -641q-32 -156 -39 -237t5 -146v-4h-328v4zM571 1534l125 -162l-456 -256l-15 19z" />
    <glyph glyph-name="icircumflex" unicode="&#xee;" horiz-adv-x="493" 
d="M-2 4q38 77 59.5 151.5t55.5 227.5l47 223q23 109 6.5 189t-68.5 125v4l396 104l-134 -641q-32 -156 -39 -237t5 -146v-4h-328v4zM408 1272l-299 -166l-13 20l334 359h14l201 -359l-20 -20z" />
    <glyph glyph-name="idieresis" unicode="&#xef;" horiz-adv-x="493" 
d="M367 1341q0 -60 -43 -101.5t-103 -41.5t-101.5 41.5t-41.5 101.5t41.5 103t101.5 43t103 -43t43 -103zM719 1341q0 -60 -43 -101.5t-103 -41.5t-101.5 41.5t-41.5 101.5t41.5 103t101.5 43t103 -43t43 -103zM-2 4q38 77 59.5 151.5t55.5 227.5l47 223q23 109 6.5 189
t-68.5 125v4l396 104l-134 -641q-32 -156 -39 -237t5 -146v-4h-328v4z" />
    <glyph glyph-name="eth" unicode="&#xf0;" horiz-adv-x="976" 
d="M371 -31q-153 0 -243.5 107.5t-90.5 283.5q0 120 50.5 241.5t129.5 212t181.5 147.5t201.5 57q62 0 109 -12q-35 170 -105 299l-289 -156l-20 33l289 157q-99 154 -248 234l10 20q209 -83 338 -200l246 133l18 -35l-235 -127q248 -248 248 -612q0 -161 -49.5 -307.5
t-131 -250t-189 -164.5t-220.5 -61zM279 209q0 -203 106 -203q78 0 152.5 121.5t118.5 301t44 349.5q0 203 -104 203q-82 0 -157 -122t-117.5 -300t-42.5 -350z" />
    <glyph glyph-name="ntilde" unicode="&#xf1;" horiz-adv-x="1079" 
d="M750 686q16 68 1.5 113t-61.5 45q-41 0 -80.5 -34t-83 -107t-82.5 -157.5t-94 -215.5l-6 -27q-21 -99 -25.5 -162.5t7.5 -136.5v-4h-328v4q71 145 115 379l47 223q49 230 -45 314v4l372 104l-110 -526q192 516 444 516q104 0 155.5 -84t20.5 -240l-86 -405
q-33 -129 -23 -191.5t83 -81.5v-4l-377 -30zM559 1401q50 0 136 -34t136 -34q99 0 127 97l23 -3q-4 -40 -17.5 -81t-37.5 -80.5t-63 -64.5t-87 -25t-135 33.5t-139 33.5q-108 0 -135 -96l-23 2q6 55 28.5 109.5t72 98.5t114.5 44z" />
    <glyph glyph-name="ograve" unicode="&#xf2;" horiz-adv-x="962" 
d="M934 627q0 -121 -50.5 -242.5t-129.5 -212t-181.5 -147t-201.5 -56.5q-158 0 -250 107t-92 284q0 120 50.5 241.5t129.5 212t182 147.5t203 57q159 0 249.5 -107t90.5 -284zM270 209q0 -203 105 -203q79 0 153.5 121.5t119 301t44.5 349.5q0 203 -102 203
q-83 0 -158.5 -122t-118.5 -300t-43 -350zM750 1102l-383 291l153 141l250 -414z" />
    <glyph glyph-name="oacute" unicode="&#xf3;" horiz-adv-x="962" 
d="M934 627q0 -121 -50.5 -242.5t-129.5 -212t-181.5 -147t-201.5 -56.5q-158 0 -250 107t-92 284q0 120 50.5 241.5t129.5 212t182 147.5t203 57q159 0 249.5 -107t90.5 -284zM270 209q0 -203 105 -203q79 0 153.5 121.5t119 301t44.5 349.5q0 203 -102 203
q-83 0 -158.5 -122t-118.5 -300t-43 -350zM791 1534l124 -162l-456 -256l-15 19z" />
    <glyph glyph-name="ocircumflex" unicode="&#xf4;" horiz-adv-x="962" 
d="M934 627q0 -121 -50.5 -242.5t-129.5 -212t-181.5 -147t-201.5 -56.5q-158 0 -250 107t-92 284q0 120 50.5 241.5t129.5 212t182 147.5t203 57q159 0 249.5 -107t90.5 -284zM270 209q0 -203 105 -203q79 0 153.5 121.5t119 301t44.5 349.5q0 203 -102 203
q-83 0 -158.5 -122t-118.5 -300t-43 -350zM627 1272l-299 -166l-13 20l334 359h15l200 -359l-20 -20z" />
    <glyph glyph-name="otilde" unicode="&#xf5;" horiz-adv-x="962" 
d="M934 627q0 -121 -50.5 -242.5t-129.5 -212t-181.5 -147t-201.5 -56.5q-158 0 -250 107t-92 284q0 120 50.5 241.5t129.5 212t182 147.5t203 57q159 0 249.5 -107t90.5 -284zM270 209q0 -203 105 -203q79 0 153.5 121.5t119 301t44.5 349.5q0 203 -102 203
q-83 0 -158.5 -122t-118.5 -300t-43 -350zM508 1401q50 0 136 -34t136 -34q99 0 127 97l23 -3q-4 -40 -17.5 -81t-37.5 -80.5t-63 -64.5t-87 -25q-49 0 -135.5 33.5t-138.5 33.5q-109 0 -136 -96l-22 2q6 55 28.5 109.5t72 98.5t114.5 44z" />
    <glyph glyph-name="odieresis" unicode="&#xf6;" horiz-adv-x="962" 
d="M934 627q0 -121 -50.5 -242.5t-129.5 -212t-181.5 -147t-201.5 -56.5q-158 0 -250 107t-92 284q0 120 50.5 241.5t129.5 212t182 147.5t203 57q159 0 249.5 -107t90.5 -284zM270 209q0 -203 105 -203q79 0 153.5 121.5t119 301t44.5 349.5q0 203 -102 203
q-83 0 -158.5 -122t-118.5 -300t-43 -350zM567 1341q0 -60 -43.5 -101.5t-103.5 -41.5t-102 41.5t-42 101.5t42 103t102 43q59 0 103 -44t44 -102zM958 1341q0 -60 -42.5 -101.5t-102.5 -41.5t-101.5 41.5t-41.5 101.5t41.5 103t101.5 43t102.5 -43t42.5 -103z" />
    <glyph glyph-name="divide" unicode="&#xf7;" horiz-adv-x="1110" 
d="M139 606v49h905v-49h-905zM555 139q-63 0 -108.5 45.5t-45.5 108.5t45.5 108t108.5 45q62 0 108 -45t46 -108t-46 -108.5t-108 -45.5zM555 805q-63 0 -108.5 45t-45.5 108t45.5 108.5t108.5 45.5q62 0 108 -45.5t46 -108.5t-46 -108t-108 -45z" />
    <glyph glyph-name="oslash" unicode="&#xf8;" horiz-adv-x="962" 
d="M934 627q0 -121 -50.5 -242.5t-129.5 -212t-181.5 -147t-201.5 -56.5q-120 0 -205 64l-127 -170h-57l149 200q-102 105 -102 297q0 120 50.5 241.5t129.5 212t182 147.5t203 57q116 0 205 -66l123 162h59l-145 -194q98 -104 98 -293zM590 981q-81 0 -155 -114t-117 -282
t-48 -337l420 559q-10 174 -100 174zM375 6q76 0 148.5 110.5t117 278t49.5 334.5l-420 -557q10 -166 105 -166z" />
    <glyph glyph-name="ugrave" unicode="&#xf9;" horiz-adv-x="1021" 
d="M621 391q-33 -73 -66 -132.5t-73.5 -114.5t-81.5 -92.5t-90.5 -60t-100.5 -22.5q-102 0 -149.5 82.5t-4.5 231.5l111 413q16 63 22 103.5t1.5 77.5t-24 61.5t-56.5 42.5v4h372l-176 -688q-20 -67 -6.5 -112.5t59.5 -45.5q69 0 147.5 127.5t182.5 388.5l29 115
q10 43 12.5 80.5t-20 72.5t-70.5 58v4h381l-182 -696q-16 -60 -21 -99.5t1.5 -71t26.5 -52.5t56 -39v-7l-383 -38zM760 1102l-383 291l153 141l250 -414z" />
    <glyph glyph-name="uacute" unicode="&#xfa;" horiz-adv-x="1021" 
d="M621 391q-33 -73 -66 -132.5t-73.5 -114.5t-81.5 -92.5t-90.5 -60t-100.5 -22.5q-102 0 -149.5 82.5t-4.5 231.5l111 413q16 63 22 103.5t1.5 77.5t-24 61.5t-56.5 42.5v4h372l-176 -688q-20 -67 -6.5 -112.5t59.5 -45.5q69 0 147.5 127.5t182.5 388.5l29 115
q10 43 12.5 80.5t-20 72.5t-70.5 58v4h381l-182 -696q-16 -60 -21 -99.5t1.5 -71t26.5 -52.5t56 -39v-7l-383 -38zM846 1534l125 -162l-457 -256l-14 19z" />
    <glyph glyph-name="ucircumflex" unicode="&#xfb;" horiz-adv-x="1021" 
d="M621 391q-33 -73 -66 -132.5t-73.5 -114.5t-81.5 -92.5t-90.5 -60t-100.5 -22.5q-102 0 -149.5 82.5t-4.5 231.5l111 413q16 63 22 103.5t1.5 77.5t-24 61.5t-56.5 42.5v4h372l-176 -688q-20 -67 -6.5 -112.5t59.5 -45.5q69 0 147.5 127.5t182.5 388.5l29 115
q10 43 12.5 80.5t-20 72.5t-70.5 58v4h381l-182 -696q-16 -60 -21 -99.5t1.5 -71t26.5 -52.5t56 -39v-7l-383 -38zM645 1272l-299 -166l-12 20l334 359h14l201 -359l-21 -20z" />
    <glyph glyph-name="udieresis" unicode="&#xfc;" horiz-adv-x="1021" 
d="M621 391q-33 -73 -66 -132.5t-73.5 -114.5t-81.5 -92.5t-90.5 -60t-100.5 -22.5q-102 0 -149.5 82.5t-4.5 231.5l111 413q16 63 22 103.5t1.5 77.5t-24 61.5t-56.5 42.5v4h372l-176 -688q-20 -67 -6.5 -112.5t59.5 -45.5q69 0 147.5 127.5t182.5 388.5l29 115
q10 43 12.5 80.5t-20 72.5t-70.5 58v4h381l-182 -696q-16 -60 -21 -99.5t1.5 -71t26.5 -52.5t56 -39v-7l-383 -38zM592 1341q0 -60 -44 -101.5t-104 -41.5t-101.5 41.5t-41.5 101.5t41.5 103t101.5 43t104 -44.5t44 -101.5zM983 1341q0 -60 -42.5 -101.5t-102.5 -41.5
t-102 41.5t-42 101.5t42 103t102 43t102.5 -43t42.5 -103z" />
    <glyph glyph-name="yacute" unicode="&#xfd;" horiz-adv-x="788" 
d="M-145 -215q272 -32 391 186l6 11l-90 731q-12 109 -33.5 164.5t-71.5 105.5v4h322l72 -643l118 215q98 175 107 273t-72 151v4h266v-4l-641 -1122q-50 -88 -104 -149.5t-109 -96.5t-105.5 -52t-109.5 -24zM711 1534l125 -162l-457 -256l-14 19z" />
    <glyph glyph-name="thorn" unicode="&#xfe;" horiz-adv-x="1032" 
d="M438 6q86 0 161.5 112t116 270.5t40.5 307.5q0 98 -22.5 136t-69.5 38q-129 0 -306 -458l-39 -195q-10 -107 24 -159t95 -52zM221 -461h-330v4q39 80 62 157.5t55 223.5l260 1231q16 81 20.5 131t-8 105t-49.5 94v4l375 104l-198 -950q153 375 376 375q104 0 162 -80.5
t58 -251.5q0 -135 -42.5 -264t-116 -229.5t-182 -162t-231.5 -61.5q-87 0 -158 31l-28 -133q-26 -118 -31.5 -184.5t6.5 -139.5v-4z" />
    <glyph glyph-name="ydieresis" unicode="&#xff;" horiz-adv-x="788" 
d="M-145 -215q272 -32 391 186l6 11l-90 731q-12 109 -33.5 164.5t-71.5 105.5v4h322l72 -643l118 215q98 175 107 273t-72 151v4h266v-4l-641 -1122q-50 -88 -104 -149.5t-109 -96.5t-105.5 -52t-109.5 -24zM485 1341q0 -60 -43.5 -101.5t-103.5 -41.5t-101.5 41.5
t-41.5 101.5t41.5 103t101.5 43q59 0 103 -44t44 -102zM877 1341q0 -60 -43 -101.5t-103 -41.5t-101.5 41.5t-41.5 101.5t41.5 103t101.5 43t103 -43t43 -103z" />
    <glyph glyph-name="Amacron" unicode="&#x100;" horiz-adv-x="1128" 
d="M575 1161l-258 -551h320zM199 0h-285v4q73 65 125 147.5t113 217.5l534 1138h125l133 -1151q13 -131 33 -209t63 -143v-4h-440v4q89 121 62 381l-21 180h-346l-53 -114q-50 -107 -70 -197t-12 -151t39 -99v-4zM463 1819h616l-24 -117h-617z" />
    <glyph glyph-name="amacron" unicode="&#x101;" horiz-adv-x="999" 
d="M365 150q38 0 77 36.5t75.5 103.5t66.5 137t63 161l2 -2l88 336q-20 51 -88 51q-74 0 -144.5 -67.5t-118.5 -168t-77.5 -214.5t-29.5 -208q0 -165 86 -165zM614 395q-166 -426 -376 -426q-98 0 -153.5 80t-55.5 225q0 101 27.5 205t83.5 200.5t133.5 172t185.5 121
t231 45.5q118 0 197 -33l100 33h17l-191 -729q-33 -109 -21 -170t85 -92v-7l-369 -38zM406 1325h532l-23 -119h-532z" />
    <glyph glyph-name="Abreve" unicode="&#x102;" horiz-adv-x="1128" 
d="M575 1161l-258 -551h320zM199 0h-285v4q73 65 125 147.5t113 217.5l534 1138h125l133 -1151q13 -131 33 -209t63 -143v-4h-440v4q89 121 62 381l-21 180h-346l-53 -114q-50 -107 -70 -197t-12 -151t39 -99v-4zM778 1792q198 0 262 145h21q-5 -35 -17 -71.5t-36 -78.5
t-56.5 -73.5t-83.5 -52.5t-112 -21q-72 0 -125 31t-78 79t-35 96t-6 91h20q49 -145 246 -145z" />
    <glyph glyph-name="abreve" unicode="&#x103;" horiz-adv-x="999" 
d="M365 150q38 0 77 36.5t75.5 103.5t66.5 137t63 161l2 -2l88 336q-20 51 -88 51q-74 0 -144.5 -67.5t-118.5 -168t-77.5 -214.5t-29.5 -208q0 -165 86 -165zM614 395q-166 -426 -376 -426q-98 0 -153.5 80t-55.5 225q0 101 27.5 205t83.5 200.5t133.5 172t185.5 121
t231 45.5q118 0 197 -33l100 33h17l-191 -729q-33 -109 -21 -170t85 -92v-7l-369 -38zM690 1311q83 0 134 34t81 103h19q-3 -34 -12.5 -69.5t-29.5 -75t-47 -69.5t-69.5 -49.5t-93.5 -19.5q-63 0 -109 29t-67.5 74t-30 91t-4.5 89h20q36 -137 209 -137z" />
    <glyph glyph-name="Aogonek" unicode="&#x104;" horiz-adv-x="1128" 
d="M438 -508q-73 0 -114 39.5t-41 110.5q0 50 19.5 96t57.5 87.5t80.5 75.5t100.5 72q73 46 100 116.5t27 172.5q0 58 -6 123l-19 180h-348l-53 -114q-50 -107 -70 -197t-12 -151t39 -99v-4h-285v4q73 65 125 147.5t113 217.5l534 1138h125l133 -1151q13 -131 33 -209
t63 -143v-4h-383q-52 -31 -89.5 -68.5t-55.5 -73.5t-25.5 -65.5t-7.5 -56.5q0 -98 88 -98q74 0 138 77l16 -14q-46 -86 -117 -147.5t-166 -61.5zM578 1167l-261 -557h320z" />
    <glyph glyph-name="aogonek" unicode="&#x105;" horiz-adv-x="999" 
d="M371 -508q-73 0 -114.5 39.5t-41.5 110.5q0 97 78.5 186t218.5 164l102 405q-167 -428 -376 -428q-98 0 -153.5 80t-55.5 225q0 101 27.5 205t83.5 200.5t133.5 172t185.5 121t231 45.5q118 0 197 -33l100 33h17l-191 -729q-33 -109 -21 -170t85 -92v-7
q-147 -11 -189 -20q-67 -12 -119 -37t-81 -52.5t-47.5 -61.5t-24.5 -60.5t-6 -52.5q0 -98 90 -98q73 0 137 77l16 -14q-46 -85 -117 -147t-165 -62zM365 150q38 0 77 36.5t75.5 103.5t66.5 137t63 161l2 -2l88 336q-20 51 -88 51q-74 0 -144.5 -67.5t-118.5 -168
t-77.5 -214.5t-29.5 -208q0 -165 86 -165z" />
    <glyph glyph-name="Cacute" unicode="&#x106;" horiz-adv-x="1277" 
d="M1083 94q-56 -39 -185 -82t-259 -43q-135 0 -242 48t-174.5 133t-103 198t-35.5 246q0 188 66 360t179 299t273.5 202t339.5 75q92 0 183.5 -16.5t140.5 -36.5l16 -381l-22 -4q-108 222 -187.5 308.5t-183.5 86.5q-114 0 -214 -94t-165.5 -241.5t-103 -325t-37.5 -349.5
q0 -229 71 -347t203 -118q61 0 116.5 24.5t122.5 93t104 113t124 158.5q30 38 45 58l23 -8zM1135 1970l88 -194l-535 -174l-12 24z" />
    <glyph glyph-name="cacute" unicode="&#x107;" horiz-adv-x="831" 
d="M743 324q-49 -165 -150 -260t-245 -95q-151 0 -234 103t-83 282q0 128 44.5 248.5t120.5 212.5t185.5 147.5t232.5 55.5q115 0 193 -27v-299l-19 -4q-89 177 -122 223q-51 69 -107 70q-44 0 -93 -40.5t-90.5 -108t-69 -166t-27.5 -203.5q0 -152 57 -229.5t158 -77.5
q151 0 235 172zM758 1534l125 -162l-457 -256l-14 19z" />
    <glyph glyph-name="Ccircumflex" unicode="&#x108;" horiz-adv-x="1277" 
d="M1083 94q-56 -39 -185 -82t-259 -43q-135 0 -242 48t-174.5 133t-103 198t-35.5 246q0 188 66 360t179 299t273.5 202t339.5 75q92 0 183.5 -16.5t140.5 -36.5l16 -381l-22 -4q-108 222 -187.5 308.5t-183.5 86.5q-114 0 -214 -94t-165.5 -241.5t-103 -325t-37.5 -349.5
q0 -229 71 -347t203 -118q61 0 116.5 24.5t122.5 93t104 113t124 158.5q30 38 45 58l23 -8zM924 1739l-326 -137l-12 20l360 324h15l233 -324l-20 -20z" />
    <glyph glyph-name="ccircumflex" unicode="&#x109;" horiz-adv-x="831" 
d="M743 324q-49 -165 -150 -260t-245 -95q-151 0 -234 103t-83 282q0 128 44.5 248.5t120.5 212.5t185.5 147.5t232.5 55.5q115 0 193 -27v-299l-19 -4q-89 177 -122 223q-51 69 -107 70q-44 0 -93 -40.5t-90.5 -108t-69 -166t-27.5 -203.5q0 -152 57 -229.5t158 -77.5
q151 0 235 172zM594 1272l-299 -166l-12 20l333 359h15l200 -359l-20 -20z" />
    <glyph glyph-name="Cdotaccent" unicode="&#x10a;" horiz-adv-x="1277" 
d="M1083 94q-56 -39 -185 -82t-259 -43q-135 0 -242 48t-174.5 133t-103 198t-35.5 246q0 188 66 360t179 299t273.5 202t339.5 75q92 0 183.5 -16.5t140.5 -36.5l16 -381l-22 -4q-108 222 -187.5 308.5t-183.5 86.5q-114 0 -214 -94t-165.5 -241.5t-103 -325t-37.5 -349.5
q0 -229 71 -347t203 -118q61 0 116.5 24.5t122.5 93t104 113t124 158.5q30 38 45 58l23 -8zM1067 1782q0 -61 -43.5 -104.5t-105.5 -43.5q-60 0 -103 43.5t-43 104.5q0 60 43 104.5t103 44.5q61 0 105 -44.5t44 -104.5z" />
    <glyph glyph-name="cdotaccent" unicode="&#x10b;" horiz-adv-x="831" 
d="M743 324q-49 -165 -150 -260t-245 -95q-151 0 -234 103t-83 282q0 128 44.5 248.5t120.5 212.5t185.5 147.5t232.5 55.5q115 0 193 -27v-299l-19 -4q-89 177 -122 223q-51 69 -107 70q-44 0 -93 -40.5t-90.5 -108t-69 -166t-27.5 -203.5q0 -152 57 -229.5t158 -77.5
q151 0 235 172zM727 1346q0 -62 -43 -105t-104 -43q-62 0 -105 43t-43 105q0 60 43.5 103.5t104.5 43.5t104 -43.5t43 -103.5z" />
    <glyph glyph-name="Ccaron" unicode="&#x10c;" horiz-adv-x="1277" 
d="M1083 94q-56 -39 -185 -82t-259 -43q-135 0 -242 48t-174.5 133t-103 198t-35.5 246q0 188 66 360t179 299t273.5 202t339.5 75q92 0 183.5 -16.5t140.5 -36.5l16 -381l-22 -4q-108 222 -187.5 308.5t-183.5 86.5q-114 0 -214 -94t-165.5 -241.5t-103 -325t-37.5 -349.5
q0 -229 71 -347t203 -118q61 0 116.5 24.5t122.5 93t104 113t124 158.5q30 38 45 58l23 -8zM895 1602l-233 323l20 21l250 -138l325 138l13 -21l-361 -323h-14z" />
    <glyph glyph-name="ccaron" unicode="&#x10d;" horiz-adv-x="831" 
d="M743 324q-49 -165 -150 -260t-245 -95q-151 0 -234 103t-83 282q0 128 44.5 248.5t120.5 212.5t185.5 147.5t232.5 55.5q115 0 193 -27v-299l-19 -4q-89 177 -122 223q-51 69 -107 70q-44 0 -93 -40.5t-90.5 -108t-69 -166t-27.5 -203.5q0 -152 57 -229.5t158 -77.5
q151 0 235 172zM563 1106l-201 358l21 21l217 -166l299 166l12 -21l-333 -358h-15z" />
    <glyph glyph-name="Dcaron" unicode="&#x10e;" horiz-adv-x="1300" 
d="M-8 4q61 107 87.5 176t45.5 187l143 763q24 128 22.5 200.5t-26.5 164.5v4q92 0 222 4t227 4q297 0 448.5 -152.5t151.5 -451.5q0 -190 -62 -356t-172.5 -287t-271 -190.5t-348.5 -69.5h-467v4zM709 1462h-37q-43 0 -66 -2l-264 -1417q24 0 53 0.5t48 1t20 0.5
q117 2 213.5 60t160 150t106.5 213.5t62 247.5t19 255q0 250 -76 370.5t-239 120.5zM764 1602l-234 323l21 21l250 -138l325 138l13 -21l-361 -323h-14z" />
    <glyph glyph-name="dcaron" unicode="&#x10f;" horiz-adv-x="1036" 
d="M666 471q-31 -81 -64.5 -149.5t-76 -135.5t-86.5 -113.5t-97.5 -75t-108.5 -28.5q-95 0 -149.5 73.5t-54.5 217.5q0 105 27.5 211.5t84.5 205t137 174.5t193 121.5t244 45.5h28q19 0 29 -2l29 137q17 78 22 131t-8 107t-49 94v4l373 104l-275 -1304q-13 -64 -17 -103.5
t2.5 -71.5t26.5 -50.5t56 -30.5v-4l-375 -52l111 494h-2zM358 147q153 0 332 490l66 301q-27 35 -82 35q-80 0 -157 -65.5t-130.5 -165t-86 -215t-32.5 -216.5q0 -164 90 -164zM1231 1587h213l-283 -416l-22 5z" />
    <glyph glyph-name="Dcroat" unicode="&#x110;" horiz-adv-x="1323" 
d="M51 762h170l70 368q24 128 22.5 200.5t-26.5 164.5v4q92 0 221.5 4t226.5 4q297 0 448.5 -152.5t151.5 -451.5q0 -190 -62 -356t-172.5 -287t-271 -190.5t-348.5 -69.5h-467v4q61 107 87.5 176t45.5 187l66 350h-170zM731 1462h-37q-42 0 -65 -2l-131 -698h286l-8 -45
h-287l-124 -674q24 0 52.5 0.5t47.5 1t20 0.5q117 2 213.5 60t160 150t107 213.5t62.5 247.5t19 255q0 249 -76.5 370t-239.5 121z" />
    <glyph glyph-name="dcroat" unicode="&#x111;" horiz-adv-x="1036" 
d="M666 471q-31 -81 -64.5 -149.5t-76 -135.5t-86.5 -113.5t-97.5 -75t-108.5 -28.5q-95 0 -149.5 73.5t-54.5 217.5q0 105 27.5 211.5t84.5 205t137 174.5t193 121.5t244 45.5h28q19 0 29 -2l29 137l6 33h-346l8 43h344q10 65 10 110q0 83 -57 146v4l373 104l-78 -364h137
l-8 -43h-137l-189 -897q-13 -64 -17 -103.5t2.5 -71.5t26.5 -50.5t56 -30.5v-4l-375 -52l111 494h-2zM358 147q153 0 332 490l66 301q-27 35 -82 35q-80 0 -157 -65.5t-130.5 -165t-86 -215t-32.5 -216.5q0 -164 90 -164z" />
    <glyph glyph-name="Emacron" unicode="&#x112;" horiz-adv-x="1105" 
d="M905 0h-911v4q41 86 59.5 127.5t40 110t37.5 151.5l133 717q24 123 24 205t-18 180v4h805l17 -371l-21 -4q-164 321 -262 328l-199 12l-127 -678h92q32 0 69 19.5t76.5 55.5t64.5 62.5t59 65.5h20l-84 -454h-22q-2 4 -18.5 35.5t-23 42t-22.5 37t-27.5 38t-29 27.5
t-35.5 22t-37 6h-90l-131 -708l262 12q44 2 98 35.5t113 95t105 116t106 132.5l21 -8zM418 1819h616l-24 -117h-617z" />
    <glyph glyph-name="emacron" unicode="&#x113;" horiz-adv-x="833" 
d="M342 -31q-144 0 -227.5 99t-83.5 276q0 172 79.5 328t214.5 251t287 95q38 0 74 -7t72 -22.5t58 -46.5t22 -74q0 -36 -17 -68.5t-56.5 -63t-100 -53t-152 -37t-207.5 -17.5q-20 -81 -20 -180q0 -150 53 -216.5t141 -66.5q156 0 240 153l12 -8q-54 -170 -155.5 -256
t-233.5 -86zM584 981q-77 0 -156 -94t-115 -234q85 16 149 41.5t99 52t56.5 58t27.5 55t6 47.5q0 74 -67 74zM344 1325h533l-23 -119h-532z" />
    <glyph glyph-name="Ebreve" unicode="&#x114;" horiz-adv-x="1105" 
d="M905 0h-911v4q41 86 59.5 127.5t40 110t37.5 151.5l133 717q24 123 24 205t-18 180v4h805l17 -371l-21 -4q-164 321 -262 328l-199 12l-127 -678h92q32 0 69 19.5t76.5 55.5t64.5 62.5t59 65.5h20l-84 -454h-22q-2 4 -18.5 35.5t-23 42t-22.5 37t-27.5 38t-29 27.5
t-35.5 22t-37 6h-90l-131 -708l262 12q44 2 98 35.5t113 95t105 116t106 132.5l21 -8zM729 1792q198 0 262 145h21q-5 -35 -17 -71.5t-36 -78.5t-56.5 -73.5t-83.5 -52.5t-112 -21q-72 0 -125 31t-78 79t-35 96t-6 91h20q49 -145 246 -145z" />
    <glyph glyph-name="ebreve" unicode="&#x115;" horiz-adv-x="833" 
d="M342 -31q-144 0 -227.5 99t-83.5 276q0 172 79.5 328t214.5 251t287 95q38 0 74 -7t72 -22.5t58 -46.5t22 -74q0 -36 -17 -68.5t-56.5 -63t-100 -53t-152 -37t-207.5 -17.5q-20 -81 -20 -180q0 -150 53 -216.5t141 -66.5q156 0 240 153l12 -8q-54 -170 -155.5 -256
t-233.5 -86zM584 981q-77 0 -156 -94t-115 -234q85 16 149 41.5t99 52t56.5 58t27.5 55t6 47.5q0 74 -67 74zM573 1311q83 0 134 34t81 103h19q-3 -34 -12.5 -69.5t-29.5 -75t-47 -69.5t-69.5 -49.5t-93.5 -19.5q-63 0 -109 29t-67.5 74t-30 91t-4.5 89h21q36 -137 208 -137
z" />
    <glyph glyph-name="Edotaccent" unicode="&#x116;" horiz-adv-x="1105" 
d="M905 0h-911v4q41 86 59.5 127.5t40 110t37.5 151.5l133 717q24 123 24 205t-18 180v4h805l17 -371l-21 -4q-164 321 -262 328l-199 12l-127 -678h92q32 0 69 19.5t76.5 55.5t64.5 62.5t59 65.5h20l-84 -454h-22q-2 4 -18.5 35.5t-23 42t-22.5 37t-27.5 38t-29 27.5
t-35.5 22t-37 6h-90l-131 -708l262 12q44 2 98 35.5t113 95t105 116t106 132.5l21 -8zM858 1776q0 -61 -43.5 -104.5t-105.5 -43.5q-60 0 -103 43.5t-43 104.5q0 60 43 104.5t103 44.5q61 0 105 -44.5t44 -104.5z" />
    <glyph glyph-name="edotaccent" unicode="&#x117;" horiz-adv-x="833" 
d="M342 -31q-144 0 -227.5 99t-83.5 276q0 172 79.5 328t214.5 251t287 95q38 0 74 -7t72 -22.5t58 -46.5t22 -74q0 -36 -17 -68.5t-56.5 -63t-100 -53t-152 -37t-207.5 -17.5q-20 -81 -20 -180q0 -150 53 -216.5t141 -66.5q156 0 240 153l12 -8q-54 -170 -155.5 -256
t-233.5 -86zM584 981q-77 0 -156 -94t-115 -234q85 16 149 41.5t99 52t56.5 58t27.5 55t6 47.5q0 74 -67 74zM713 1346q0 -62 -43.5 -105t-104.5 -43t-104 43t-43 105q0 60 43 103.5t104 43.5t104.5 -43.5t43.5 -103.5z" />
    <glyph glyph-name="Eogonek" unicode="&#x118;" horiz-adv-x="1105" 
d="M905 0h-209q-56 -29 -92 -68q-88 -93 -88 -196q0 -98 88 -98q73 0 137 77l17 -14q-46 -86 -117 -147.5t-166 -61.5q-73 0 -114.5 39.5t-41.5 110.5q0 103 89 198q88 91 223 160h-637v4q41 86 59.5 127.5t40 110t37.5 151.5l133 717q24 123 24 205t-18 180v4h805l17 -371
l-21 -4q-164 321 -262 328l-199 12l-127 -678h92q32 0 69 19.5t76.5 55.5t64.5 62.5t59 65.5h20l-84 -454h-22q-2 4 -18.5 35.5t-23 42t-22.5 37t-27.5 38t-29 27.5t-35.5 22t-37 6h-90l-131 -708l262 12q44 2 98 35.5t113 95t105 116t106 132.5l21 -8z" />
    <glyph glyph-name="eogonek" unicode="&#x119;" horiz-adv-x="833" 
d="M258 -508q-73 0 -114.5 39.5t-41.5 110.5q0 178 271 329l-13 -1q-13 -1 -18 -1q-144 0 -227.5 99t-83.5 276q0 172 79.5 328t214.5 251t287 95q38 0 74 -7t72 -22.5t58 -46.5t22 -74q0 -36 -17 -68.5t-56.5 -63t-100 -53t-152 -37t-207.5 -17.5q-20 -81 -20 -180
q0 -150 53 -216.5t141 -66.5q156 0 240 153l12 -8q-37 -126 -113 -215q-52 -57 -161 -121q-78 -45 -119 -109.5t-41 -129.5q0 -98 90 -98q73 0 137 77l17 -14q-24 -41 -48.5 -72.5t-59.5 -65.5t-80 -52.5t-95 -18.5zM584 981q-77 0 -156 -94t-115 -234q85 16 149 41.5t99 52
t56.5 58t27.5 55t6 47.5q0 74 -67 74z" />
    <glyph glyph-name="Ecaron" unicode="&#x11a;" horiz-adv-x="1105" 
d="M905 0h-911v4q41 86 59.5 127.5t40 110t37.5 151.5l133 717q24 123 24 205t-18 180v4h805l17 -371l-21 -4q-164 321 -262 328l-199 12l-127 -678h92q32 0 69 19.5t76.5 55.5t64.5 62.5t59 65.5h20l-84 -454h-22q-2 4 -18.5 35.5t-23 42t-22.5 37t-27.5 38t-29 27.5
t-35.5 22t-37 6h-90l-131 -708l262 12q44 2 98 35.5t113 95t105 116t106 132.5l21 -8zM707 1602l-234 323l21 21l249 -138l326 138l12 -21l-360 -323h-14z" />
    <glyph glyph-name="ecaron" unicode="&#x11b;" horiz-adv-x="833" 
d="M342 -31q-144 0 -227.5 99t-83.5 276q0 172 79.5 328t214.5 251t287 95q38 0 74 -7t72 -22.5t58 -46.5t22 -74q0 -36 -17 -68.5t-56.5 -63t-100 -53t-152 -37t-207.5 -17.5q-20 -81 -20 -180q0 -150 53 -216.5t141 -66.5q156 0 240 153l12 -8q-54 -170 -155.5 -256
t-233.5 -86zM584 981q-77 0 -156 -94t-115 -234q85 16 149 41.5t99 52t56.5 58t27.5 55t6 47.5q0 74 -67 74zM563 1106l-201 358l21 21l217 -166l299 166l12 -21l-333 -358h-15z" />
    <glyph glyph-name="Gcircumflex" unicode="&#x11c;" horiz-adv-x="1323" 
d="M1315 684q-60 -102 -90 -183.5t-47 -199.5l-17 -123q-1 0 -42 -30t-57.5 -40t-61.5 -37.5t-79 -40t-83 -30t-101.5 -24.5t-107.5 -7q-173 0 -297.5 79.5t-186 218.5t-61.5 323q0 185 66 356.5t180 300.5t277 206t347 77q96 0 188.5 -16.5t143.5 -36.5l17 -381l-23 -4
q-116 223 -194.5 309t-184.5 86q-115 0 -216.5 -94t-169 -242.5t-106 -329.5t-38.5 -358q0 -451 264 -451q144 0 228.5 131.5t84.5 333.5q0 102 -43 207v4h410v-4zM924 1739l-326 -137l-12 20l360 324h15l233 -324l-20 -20z" />
    <glyph glyph-name="gcircumflex" unicode="&#x11d;" horiz-adv-x="937" 
d="M334 479q0 -137 69 -137q50 0 100.5 80t81.5 198t31 226q0 69 -15.5 102t-51.5 33q-51 0 -102 -79t-82 -196.5t-31 -226.5zM803 -125q0 -154 -156 -249t-407 -95q-183 0 -287.5 48t-104.5 140q0 59 44.5 107.5t110.5 77.5t147 43q-136 59 -136 170q0 91 66 150.5
t160 88.5q-59 40 -91 106t-32 140q0 105 63 202t163.5 155.5t205.5 58.5q91 0 156 -45l319 100l2 -2l-47 -190h-6l-230 61q93 -87 93 -221q0 -103 -64 -199.5t-165 -155.5t-206 -59q-78 0 -137 35q-37 -20 -56.5 -41t-19.5 -51q0 -45 59.5 -70t196.5 -47q83 -11 144.5 -28.5
t112 -47t76.5 -75.5t26 -107zM309 -412q152 0 243 47t91 123q0 61 -70.5 90t-228.5 50q-98 12 -166 39q-69 -27 -109 -75t-40 -110q0 -79 70.5 -121.5t209.5 -42.5zM586 1272l-299 -166l-13 20l334 359h15l200 -359l-20 -20z" />
    <glyph glyph-name="Gbreve" unicode="&#x11e;" horiz-adv-x="1323" 
d="M1315 684q-60 -102 -90 -183.5t-47 -199.5l-17 -123q-1 0 -42 -30t-57.5 -40t-61.5 -37.5t-79 -40t-83 -30t-101.5 -24.5t-107.5 -7q-173 0 -297.5 79.5t-186 218.5t-61.5 323q0 185 66 356.5t180 300.5t277 206t347 77q96 0 188.5 -16.5t143.5 -36.5l17 -381l-23 -4
q-116 223 -194.5 309t-184.5 86q-115 0 -216.5 -94t-169 -242.5t-106 -329.5t-38.5 -358q0 -451 264 -451q144 0 228.5 131.5t84.5 333.5q0 102 -43 207v4h410v-4zM926 1792q198 0 262 145h20q-5 -35 -17 -71.5t-36 -78.5t-56.5 -73.5t-83.5 -52.5t-112 -21q-72 0 -125 31
t-78 79t-35 96t-6 91h21q49 -145 246 -145z" />
    <glyph glyph-name="gbreve" unicode="&#x11f;" horiz-adv-x="937" 
d="M334 479q0 -137 69 -137q50 0 100.5 80t81.5 198t31 226q0 69 -15.5 102t-51.5 33q-51 0 -102 -79t-82 -196.5t-31 -226.5zM803 -125q0 -154 -156 -249t-407 -95q-183 0 -287.5 48t-104.5 140q0 59 44.5 107.5t110.5 77.5t147 43q-136 59 -136 170q0 91 66 150.5
t160 88.5q-59 40 -91 106t-32 140q0 105 63 202t163.5 155.5t205.5 58.5q91 0 156 -45l319 100l2 -2l-47 -190h-6l-230 61q93 -87 93 -221q0 -103 -64 -199.5t-165 -155.5t-206 -59q-78 0 -137 35q-37 -20 -56.5 -41t-19.5 -51q0 -45 59.5 -70t196.5 -47q83 -11 144.5 -28.5
t112 -47t76.5 -75.5t26 -107zM309 -412q152 0 243 47t91 123q0 61 -70.5 90t-228.5 50q-98 12 -166 39q-69 -27 -109 -75t-40 -110q0 -79 70.5 -121.5t209.5 -42.5zM614 1311q83 0 134 34t81 103h19q-3 -34 -12.5 -69.5t-29.5 -75t-47 -69.5t-69.5 -49.5t-93.5 -19.5
q-63 0 -109 29t-67.5 74t-30 91t-4.5 89h21q36 -137 208 -137z" />
    <glyph glyph-name="Gdotaccent" unicode="&#x120;" horiz-adv-x="1323" 
d="M1315 684q-60 -102 -90 -183.5t-47 -199.5l-17 -123q-1 0 -42 -30t-57.5 -40t-61.5 -37.5t-79 -40t-83 -30t-101.5 -24.5t-107.5 -7q-173 0 -297.5 79.5t-186 218.5t-61.5 323q0 185 66 356.5t180 300.5t277 206t347 77q96 0 188.5 -16.5t143.5 -36.5l17 -381l-23 -4
q-116 223 -194.5 309t-184.5 86q-115 0 -216.5 -94t-169 -242.5t-106 -329.5t-38.5 -358q0 -451 264 -451q144 0 228.5 131.5t84.5 333.5q0 102 -43 207v4h410v-4zM1085 1776q0 -61 -43.5 -104.5t-105.5 -43.5q-60 0 -102.5 43.5t-42.5 104.5q0 60 42.5 104.5t102.5 44.5
q61 0 105 -44.5t44 -104.5z" />
    <glyph glyph-name="gdotaccent" unicode="&#x121;" horiz-adv-x="937" 
d="M334 479q0 -137 69 -137q50 0 100.5 80t81.5 198t31 226q0 69 -15.5 102t-51.5 33q-51 0 -102 -79t-82 -196.5t-31 -226.5zM803 -125q0 -154 -156 -249t-407 -95q-183 0 -287.5 48t-104.5 140q0 59 44.5 107.5t110.5 77.5t147 43q-136 59 -136 170q0 91 66 150.5
t160 88.5q-59 40 -91 106t-32 140q0 105 63 202t163.5 155.5t205.5 58.5q91 0 156 -45l319 100l2 -2l-47 -190h-6l-230 61q93 -87 93 -221q0 -103 -64 -199.5t-165 -155.5t-206 -59q-78 0 -137 35q-37 -20 -56.5 -41t-19.5 -51q0 -45 59.5 -70t196.5 -47q83 -11 144.5 -28.5
t112 -47t76.5 -75.5t26 -107zM309 -412q152 0 243 47t91 123q0 61 -70.5 90t-228.5 50q-98 12 -166 39q-69 -27 -109 -75t-40 -110q0 -79 70.5 -121.5t209.5 -42.5zM733 1346q0 -62 -43 -105t-104 -43q-62 0 -105 43t-43 105q0 60 43.5 103.5t104.5 43.5t104 -43.5
t43 -103.5z" />
    <glyph glyph-name="uni0122" unicode="&#x122;" horiz-adv-x="1323" 
d="M1315 684q-60 -102 -90 -183.5t-47 -199.5l-17 -123q-1 0 -42 -30t-57.5 -40t-61.5 -37.5t-79 -40t-83 -30t-101.5 -24.5t-107.5 -7q-173 0 -297.5 79.5t-186 218.5t-61.5 323q0 185 66 356.5t180 300.5t277 206t347 77q96 0 188.5 -16.5t143.5 -36.5l17 -381l-23 -4
q-116 223 -194.5 309t-184.5 86q-115 0 -216.5 -94t-169 -242.5t-106 -329.5t-38.5 -358q0 -451 264 -451q144 0 228.5 131.5t84.5 333.5q0 102 -43 207v4h410v-4zM358 -492q61 40 97.5 90.5t36.5 88.5q0 54 -60 118v5l174 112q66 -52 66 -121q0 -59 -51.5 -121.5t-119 -107
t-139.5 -74.5z" />
    <glyph glyph-name="uni0123" unicode="&#x123;" horiz-adv-x="937" 
d="M334 479q0 -137 69 -137q50 0 100.5 80t81.5 198t31 226q0 69 -15.5 102t-51.5 33q-51 0 -102 -79t-82 -196.5t-31 -226.5zM803 -125q0 -154 -156 -249t-407 -95q-183 0 -287.5 48t-104.5 140q0 59 44.5 107.5t110.5 77.5t147 43q-136 59 -136 170q0 91 66 150.5
t160 88.5q-59 40 -91 106t-32 140q0 105 63 202t163.5 155.5t205.5 58.5q91 0 156 -45l319 100l2 -2l-47 -190h-6l-230 61q93 -87 93 -221q0 -103 -64 -199.5t-165 -155.5t-206 -59q-78 0 -137 35q-37 -20 -56.5 -41t-19.5 -51q0 -45 59.5 -70t196.5 -47q83 -11 144.5 -28.5
t112 -47t76.5 -75.5t26 -107zM309 -412q152 0 243 47t91 123q0 61 -70.5 90t-228.5 50q-98 12 -166 39q-69 -27 -109 -75t-40 -110q0 -79 70.5 -121.5t209.5 -42.5zM803 1595q-61 -40 -97 -90t-36 -88q0 -56 59 -119v-4l-174 -112q-66 52 -66 121q0 59 51.5 121.5t119 107
t139.5 74.5z" />
    <glyph glyph-name="Hcircumflex" unicode="&#x124;" horiz-adv-x="1323" 
d="M-6 4q59 104 88 185.5t53 216.5l123 688q24 141 25.5 220.5t-19.5 180.5l-2 4h426v-4q-63 -99 -91.5 -176.5t-59.5 -224.5l-56 -303h469l54 303q29 137 29 219t-25 182v4h424v-4q-62 -97 -90.5 -176t-59.5 -225l-123 -688q-24 -135 -24 -217.5t22 -184.5v-4h-418v4
q61 110 91 190t53 212l59 342h-469l-61 -342q-24 -135 -24 -217.5t22 -184.5v-4h-416v4zM901 1739l-326 -137l-12 20l361 324h14l233 -324l-20 -20z" />
    <glyph glyph-name="hcircumflex" unicode="&#x125;" horiz-adv-x="1069" 
d="M737 686q19 68 5 113t-62 45q-33 0 -66 -24t-63.5 -64.5t-66.5 -108t-68.5 -140.5t-75.5 -177l-6 -27q-43 -171 -17 -299v-4h-329v4q35 66 58.5 146.5t57.5 232.5l168 772q18 80 23 131.5t-8 105.5t-51 93v4l374 104l-241 -1083q39 105 83.5 190.5t99.5 160t121.5 116
t137.5 41.5q104 0 155.5 -84t20.5 -240l-86 -405q-33 -129 -23 -191.5t83 -81.5v-4l-377 -30zM766 1780l-326 -138l-12 21l360 324h15l233 -324l-20 -21z" />
    <glyph glyph-name="Hbar" unicode="&#x126;" horiz-adv-x="1363" 
d="M14 4q59 105 88.5 186.5t53.5 215.5l123 688v2h-175l9 45h174l10 76q11 87 7.5 140.5t-19.5 137.5l-2 4h426v-4q-49 -75 -76 -136.5t-49 -144.5l-19 -73h467q9 42 12 73q11 85 7.5 143t-23.5 138v4h424v-4q-50 -79 -77.5 -140.5t-45.5 -140.5l-18 -73h178l-8 -45h-178v-2
l-123 -688q-24 -135 -24 -217.5t22 -184.5v-4h-418v4q61 109 90 189t53 213l60 342h-469l-62 -342q-24 -135 -24 -217.5t22 -184.5v-4h-416v4zM502 791h469l53 303v2h-467v-2z" />
    <glyph glyph-name="hbar" unicode="&#x127;" horiz-adv-x="1069" 
d="M737 686q19 68 5 113t-62 45q-33 0 -66 -24t-63.5 -64.5t-66.5 -108t-68.5 -140.5t-75.5 -177l-6 -27q-43 -171 -17 -299v-4h-329v4q35 66 58.5 146.5t57.5 232.5l168 772l7 31h-138l9 43h135q10 65 10 112q0 82 -59 144v4l374 104l-82 -364h338l-8 -43h-340l-149 -676
q39 105 83.5 190.5t99.5 160t121.5 116t137.5 41.5q104 0 155.5 -84t20.5 -240l-86 -405q-33 -129 -23 -191.5t83 -81.5v-4l-377 -30z" />
    <glyph glyph-name="Itilde" unicode="&#x128;" horiz-adv-x="575" 
d="M-8 0v4q60 114 89 193t52 209l127 688q28 134 28 212.5t-22 188.5v4h424v-4q-65 -97 -92 -172.5t-59 -228.5l-129 -688q-24 -135 -24 -217.5t22 -184.5v-4h-416zM379 1864q60 0 151.5 -40t153.5 -40q55 0 91 23.5t65 82.5l22 -4q-7 -51 -21.5 -95t-40.5 -85.5t-70 -65.5
t-101 -24q-59 0 -151.5 40t-153.5 40q-56 0 -93.5 -24.5t-62.5 -84.5l-23 4q7 52 21 95.5t40 86t70.5 67t102.5 24.5z" />
    <glyph glyph-name="itilde" unicode="&#x129;" horiz-adv-x="493" 
d="M-2 4q38 77 59.5 151.5t55.5 227.5l47 223q23 109 6.5 189t-68.5 125v4l396 104l-134 -641q-32 -156 -39 -237t5 -146v-4h-328v4zM289 1401q50 0 136 -34t136 -34q99 0 127 97l23 -3q-4 -40 -17.5 -81t-37.5 -80.5t-63 -64.5t-87 -25t-136 33.5t-139 33.5
q-108 0 -135 -96l-22 2q6 55 28.5 109.5t72 98.5t114.5 44z" />
    <glyph glyph-name="Imacron" unicode="&#x12a;" horiz-adv-x="575" 
d="M-8 0v4q60 114 89 193t52 209l127 688q28 134 28 212.5t-22 188.5v4h424v-4q-65 -97 -92 -172.5t-59 -228.5l-129 -688q-24 -135 -24 -217.5t22 -184.5v-4h-416zM209 1819h616l-24 -117h-617z" />
    <glyph glyph-name="imacron" unicode="&#x12b;" horiz-adv-x="493" 
d="M168 1325h430l-23 -119h-430zM-2 4q38 77 59.5 151.5t55.5 227.5l47 223q23 109 6.5 189t-68.5 125v4l396 104l-134 -641q-32 -156 -39 -237t5 -146v-4h-328v4z" />
    <glyph glyph-name="Ibreve" unicode="&#x12c;" horiz-adv-x="575" 
d="M-8 0v4q60 114 89 193t52 209l127 688q28 134 28 212.5t-22 188.5v4h424v-4q-65 -97 -92 -172.5t-59 -228.5l-129 -688q-24 -135 -24 -217.5t22 -184.5v-4h-416zM522 1792q198 0 262 145h21q-5 -35 -17 -71.5t-36 -78.5t-56.5 -73.5t-83.5 -52.5t-112 -21q-72 0 -125 31
t-78 79t-35 96t-6 91h20q49 -145 246 -145z" />
    <glyph glyph-name="ibreve" unicode="&#x12d;" horiz-adv-x="493" 
d="M-2 4q38 77 59.5 151.5t55.5 227.5l47 223q23 109 6.5 189t-68.5 125v4l396 104l-134 -641q-32 -156 -39 -237t5 -146v-4h-328v4zM406 1311q83 0 134 34t81 103h18q-3 -34 -12.5 -69.5t-29.5 -75t-47 -69.5t-69.5 -49.5t-93.5 -19.5q-63 0 -109 29t-67.5 74t-30 91
t-4.5 89h21q36 -137 209 -137z" />
    <glyph glyph-name="Iogonek" unicode="&#x12e;" horiz-adv-x="575" 
d="M-8 0v4q60 114 89 193t52 209l127 688q28 134 28 212.5t-22 188.5v4h424v-4q-65 -97 -92 -172.5t-59 -228.5l-129 -688q-24 -135 -24 -217.5t22 -184.5v-4h-93q-56 -29 -92 -68q-88 -93 -88 -196q0 -98 88 -98q73 0 137 77l17 -14q-46 -86 -117 -147.5t-166 -61.5
q-73 0 -114 39.5t-41 110.5q0 104 88 198q88 91 223 160h-258z" />
    <glyph glyph-name="iogonek" unicode="&#x12f;" horiz-adv-x="493" 
d="M-8 4q16 24 29.5 52t22 49t19.5 62t15.5 60t17 76.5t17.5 79.5l47 223q49 230 -45 314v4l379 104l-134 -641q-32 -156 -39 -237t5 -146v-4h-47q-58 -30 -93 -68q-88 -93 -88 -196q0 -98 88 -98q74 0 138 77l16 -14q-46 -86 -117 -147.5t-166 -61.5q-73 0 -114 39.5
t-41 110.5q0 104 88 198q88 91 223 160h-221v4zM545 1346q0 -61 -44 -104.5t-106 -43.5q-61 0 -104 43t-43 105q0 60 43 103.5t104 43.5t105.5 -43.5t44.5 -103.5z" />
    <glyph glyph-name="Idotaccent" unicode="&#x130;" horiz-adv-x="575" 
d="M-8 0v4q60 114 89 193t52 209l127 688q28 134 28 212.5t-22 188.5v4h424v-4q-65 -97 -92 -172.5t-59 -228.5l-129 -688q-24 -135 -24 -217.5t22 -184.5v-4h-416zM659 1776q0 -61 -43.5 -104.5t-105.5 -43.5q-60 0 -102.5 43.5t-42.5 104.5q0 60 42.5 104.5t102.5 44.5
q61 0 105 -44.5t44 -104.5z" />
    <glyph glyph-name="dotlessi" unicode="&#x131;" horiz-adv-x="493" 
d="M-2 4q38 77 59.5 151.5t55.5 227.5l47 223q23 109 6.5 189t-68.5 125v4l396 104l-134 -641q-32 -156 -39 -237t5 -146v-4h-328v4z" />
    <glyph glyph-name="IJ" unicode="&#x132;" horiz-adv-x="1355" 
d="M-10 0v4q60 114 89 193t52 209l127 688q28 134 28 212.5t-22 188.5v4h424v-4q-65 -97 -92 -172.5t-59 -228.5l-129 -688q-24 -135 -24 -217.5t22 -184.5v-4h-416zM1204 403q-40 -217 -156 -325.5t-286 -108.5q-126 0 -215 47l28 357l23 4q56 -199 93 -282t81 -83
q37 0 71 62.5t54 173.5l152 846q25 142 26.5 219t-22.5 182v4h424v-4q-66 -103 -95.5 -182t-54.5 -219z" />
    <glyph glyph-name="ij" unicode="&#x133;" horiz-adv-x="954" 
d="M545 1346q0 -61 -44 -104.5t-106 -43.5q-61 0 -104 43t-43 105q0 60 43 103.5t104 43.5t105.5 -43.5t44.5 -103.5zM-8 4q16 24 29.5 52t22 49t19.5 62t15.5 60t17 76.5t17.5 79.5l47 223q49 230 -45 314v4l379 104l-134 -641q-32 -156 -39 -237t5 -146v-4h-334v4z
M1018 1346q0 -61 -44 -104.5t-106 -43.5q-61 0 -103 43t-42 105q0 61 42 104t103 43t105.5 -43.5t44.5 -103.5zM268 -426q162 85 215 332l150 696q52 229 -43 318v4l379 104l-217 -956q-56 -240 -183 -365t-299 -147z" />
    <glyph glyph-name="Jcircumflex" unicode="&#x134;" horiz-adv-x="808" 
d="M659 403q-40 -217 -156 -325.5t-286 -108.5q-126 0 -215 47l29 357l22 4q56 -199 93 -282t81 -83q37 0 71 62.5t54 173.5l152 846q25 142 26.5 219t-22.5 182v4h424v-4q-66 -103 -95.5 -182t-54.5 -219zM766 1739l-326 -137l-12 20l360 324h15l233 -324l-20 -20z" />
    <glyph glyph-name="jcircumflex" unicode="&#x135;" horiz-adv-x="475" 
d="M-217 -428q163 86 217 334l150 696q53 235 -48 318v4l383 104l-217 -956q-56 -239 -183 -364t-300 -148zM391 1272l-299 -166l-12 20l334 359h14l201 -359l-21 -20z" />
    <glyph glyph-name="uni0136" unicode="&#x136;" horiz-adv-x="1204" 
d="M-8 4q60 114 89 193t52 209l127 688q28 134 28 212.5t-22 188.5v4h426l-2 -4q-65 -97 -92 -172.5t-59 -228.5l-129 -688q-24 -135 -24 -217.5t22 -184.5v-4h-416v4zM776 0l-303 739l377 412q98 104 133 193.5t4 150.5v4h340v-4q-112 -63 -190 -130t-195 -187l-233 -256
l256 -623q49 -121 81 -182t84 -113l3 -4h-357zM346 -492q61 40 97 90.5t36 88.5q0 55 -59 118v5l174 112q65 -52 65 -121q0 -59 -51 -121.5t-118.5 -107t-139.5 -74.5z" />
    <glyph glyph-name="uni0137" unicode="&#x137;" horiz-adv-x="997" 
d="M-12 0v4q9 17 17 33t15.5 36.5t12.5 33t13 39t11 38t11.5 45t11.5 44.5t13 54t13 56l164 772q27 100 21.5 186.5t-58.5 143.5v4l377 104l-229 -1081l305 279q63 60 77 104.5t-15 87.5v4h307v-4q-92 -35 -163 -84t-167 -137l-129 -117l182 -455q30 -70 61 -114t72 -72v-4
h-323l-207 512l-39 -184q-25 -115 -30.5 -184.5t7.5 -139.5v-4h-331zM197 -492q61 40 97 90.5t36 88.5q0 54 -60 118v5l174 112q66 -52 66 -121q0 -59 -51 -121.5t-118.5 -107t-139.5 -74.5z" />
    <glyph glyph-name="Lacute" unicode="&#x139;" horiz-adv-x="1036" 
d="M-8 0v4q58 102 85 178.5t56 223.5l127 688q24 141 25.5 220.5t-19.5 180.5v4h424v-4q-65 -97 -92 -172.5t-59 -228.5l-197 -1053l190 12q155 11 426 383l23 -10l-150 -426h-839zM739 1970l88 -194l-534 -174l-12 24z" />
    <glyph glyph-name="lacute" unicode="&#x13a;" horiz-adv-x="487" 
d="M-12 0v4q34 63 59 146t59 233l166 772q18 80 23 131.5t-8 105.5t-51 93v4l374 104l-260 -1206q-31 -150 -37.5 -236t6.5 -147v-4h-331zM743 1970l88 -194l-534 -174l-12 24z" />
    <glyph glyph-name="uni013B" unicode="&#x13b;" horiz-adv-x="1036" 
d="M-8 0v4q58 102 85 178.5t56 223.5l127 688q24 141 25.5 220.5t-19.5 180.5v4h424v-4q-65 -97 -92 -172.5t-59 -228.5l-197 -1053l190 12q155 11 426 383l23 -10l-150 -426h-839zM229 -492q61 40 97 90.5t36 88.5q0 55 -59 118v5l174 112q66 -52 66 -121
q0 -59 -51.5 -121.5t-119 -107t-139.5 -74.5z" />
    <glyph glyph-name="uni013C" unicode="&#x13c;" horiz-adv-x="487" 
d="M-12 0v4q34 63 59 146t59 233l166 772q18 80 23 131.5t-8 105.5t-51 93v4l374 104l-260 -1206q-31 -150 -37.5 -236t6.5 -147v-4h-331zM-72 -492q61 40 97 90.5t36 88.5q0 55 -59 118v5l174 112q66 -52 66 -121q0 -59 -51.5 -121.5t-119 -107t-139.5 -74.5z" />
    <glyph glyph-name="Lcaron" unicode="&#x13d;" horiz-adv-x="1036" 
d="M-8 0v4q58 102 85 178.5t56 223.5l127 688q24 141 25.5 220.5t-19.5 180.5v4h424v-4q-65 -97 -92 -172.5t-59 -228.5l-197 -1053l190 12q155 11 426 383l23 -10l-150 -426h-839zM766 1499h213l-283 -416l-22 4z" />
    <glyph glyph-name="lcaron" unicode="&#x13e;" horiz-adv-x="487" 
d="M-12 0v4q34 63 59 146t59 233l166 772q18 80 23 131.5t-8 105.5t-51 93v4l374 104l-260 -1206q-31 -150 -37.5 -236t6.5 -147v-4h-331zM700 1587h213l-282 -416l-23 5z" />
    <glyph glyph-name="Ldot" unicode="&#x13f;" horiz-adv-x="1036" 
d="M-10 0v4q58 102 85 178.5t56 223.5l127 688q24 141 25.5 220.5t-19.5 180.5v4h424v-4q-65 -97 -92 -172.5t-59 -228.5l-197 -1053l190 12q155 11 426 383l23 -10l-150 -426h-839zM879 627q-63 0 -108.5 45t-45.5 108t45.5 108.5t108.5 45.5q62 0 107.5 -45.5t45.5 -108.5
t-45.5 -108t-107.5 -45z" />
    <glyph glyph-name="ldot" unicode="&#x140;" horiz-adv-x="747" 
d="M-12 0v4q34 63 59 146t59 233l166 772q18 80 23 131.5t-8 105.5t-51 93v4l374 104l-260 -1206q-31 -150 -37.5 -236t6.5 -147v-4h-331zM684 625q-63 0 -108.5 45t-45.5 108t45.5 108.5t108.5 45.5q62 0 108 -45.5t46 -108.5t-46 -108t-108 -45z" />
    <glyph glyph-name="Lslash" unicode="&#x141;" horiz-adv-x="1046" 
d="M6 0v4q58 102 85 178.5t56 223.5l21 114l-137 -71l4 55l145 76l94 514q25 142 26 220.5t-19 180.5v4h424v-4q-65 -97 -92.5 -173.5t-59.5 -227.5l-68 -355l387 201l-4 -57l-393 -205l-119 -637l191 12q155 11 426 383l22 -10l-149 -426h-840z" />
    <glyph glyph-name="lslash" unicode="&#x142;" horiz-adv-x="526" 
d="M6 0v4q35 64 60.5 147.5t58.5 231.5l49 235l-123 -94l2 54l135 100l103 477q18 79 23 131t-8.5 106t-51.5 93v4l375 104l-150 -696l119 90l-4 -53l-129 -96l-96 -451q-31 -150 -37.5 -236t6.5 -147v-4h-332z" />
    <glyph glyph-name="Nacute" unicode="&#x143;" horiz-adv-x="1204" 
d="M340 1243l-147 -819q-24 -145 -13.5 -230t64.5 -190v-4h-283v4q59 72 92 135.5t47 115.5t37 169l135 717l-2 -6q23 131 13.5 210.5t-68.5 149.5v4h311l480 -1040l112 616q24 148 14.5 229.5t-59.5 190.5v4h289v-4q-88 -113 -123.5 -192t-64.5 -228l-203 -1075l-53 -6z
M1087 1970l89 -194l-535 -174l-12 24z" />
    <glyph glyph-name="nacute" unicode="&#x144;" horiz-adv-x="1079" 
d="M750 686q16 68 1.5 113t-61.5 45q-41 0 -80.5 -34t-83 -107t-82.5 -157.5t-94 -215.5l-6 -27q-21 -99 -25.5 -162.5t7.5 -136.5v-4h-328v4q71 145 115 379l47 223q49 230 -45 314v4l372 104l-110 -526q192 516 444 516q104 0 155.5 -84t20.5 -240l-86 -405
q-33 -129 -23 -191.5t83 -81.5v-4l-377 -30zM848 1534l125 -162l-457 -256l-14 19z" />
    <glyph glyph-name="uni0145" unicode="&#x145;" horiz-adv-x="1245" 
d="M340 1243l-147 -819q-24 -145 -13.5 -230t64.5 -190v-4h-283v4q59 72 92 135.5t47 115.5t37 169l135 717l-2 -6q23 131 13.5 210.5t-68.5 149.5v4h311l480 -1040l112 616q24 148 14.5 229.5t-59.5 190.5v4h289v-4q-88 -113 -123.5 -192t-64.5 -228l-203 -1075l-53 -6z
M303 -492q61 40 97 90.5t36 88.5q0 55 -59 118v5l174 112q65 -52 65 -121q0 -59 -51 -121.5t-118.5 -107t-139.5 -74.5z" />
    <glyph glyph-name="uni0146" unicode="&#x146;" horiz-adv-x="1079" 
d="M750 686q16 68 1.5 113t-61.5 45q-41 0 -80.5 -34t-83 -107t-82.5 -157.5t-94 -215.5l-6 -27q-21 -99 -25.5 -162.5t7.5 -136.5v-4h-328v4q71 145 115 379l47 223q49 230 -45 314v4l372 104l-110 -526q192 516 444 516q104 0 155.5 -84t20.5 -240l-86 -405
q-33 -129 -23 -191.5t83 -81.5v-4l-377 -30zM236 -492q61 40 97 90.5t36 88.5q0 54 -60 118v5l174 112q66 -52 66 -121q0 -59 -51 -121.5t-118.5 -107t-139.5 -74.5z" />
    <glyph glyph-name="Ncaron" unicode="&#x147;" horiz-adv-x="1204" 
d="M340 1243l-147 -819q-24 -145 -13.5 -230t64.5 -190v-4h-283v4q59 72 92 135.5t47 115.5t37 169l135 717l-2 -6q23 131 13.5 210.5t-68.5 149.5v4h311l480 -1040l112 616q24 148 14.5 229.5t-59.5 190.5v4h289v-4q-88 -113 -123.5 -192t-64.5 -228l-203 -1075l-53 -6z
M817 1602l-233 323l20 21l250 -138l326 138l12 -21l-361 -323h-14z" />
    <glyph glyph-name="ncaron" unicode="&#x148;" horiz-adv-x="1079" 
d="M750 686q16 68 1.5 113t-61.5 45q-41 0 -80.5 -34t-83 -107t-82.5 -157.5t-94 -215.5l-6 -27q-21 -99 -25.5 -162.5t7.5 -136.5v-4h-328v4q71 145 115 379l47 223q49 230 -45 314v4l372 104l-110 -526q192 516 444 516q104 0 155.5 -84t20.5 -240l-86 -405
q-33 -129 -23 -191.5t83 -81.5v-4l-377 -30zM631 1106l-201 358l21 21l217 -166l299 166l12 -21l-334 -358h-14z" />
    <glyph glyph-name="napostrophe" unicode="&#x149;" horiz-adv-x="1079" 
d="M750 686q16 68 1.5 113t-61.5 45q-41 0 -80.5 -34t-83 -107t-82.5 -157.5t-94 -215.5l-6 -27q-21 -99 -25.5 -162.5t7.5 -136.5v-4h-328v4q71 145 115 379l47 223q49 230 -45 314v4l372 104l-110 -526q192 516 444 516q104 0 155.5 -84t20.5 -240l-86 -405
q-33 -129 -23 -191.5t83 -81.5v-4l-377 -30zM-51 1038q73 51 117.5 110.5t44.5 106.5q0 62 -76 146v4l205 141q37 -25 60.5 -66t23.5 -85q0 -55 -33 -112.5t-87.5 -105.5t-117 -87.5t-127.5 -67.5z" />
    <glyph glyph-name="Eng" unicode="&#x14a;" horiz-adv-x="1247" 
d="M653 -461q-124 0 -221 60l47 350l23 4q67 -209 82 -247q42 -101 93 -119q16 -5 32 -5q28 0 57.5 15t60 47.5t56.5 94t41 144.5l20 113l-4 -2l-578 1249l-149 -819q-24 -146 -13 -230t66 -190v-4h-303v4q91 110 128.5 191t66.5 229l135 713v-2q21 135 4.5 209.5
t-80.5 150.5v4h332l479 -1042l113 618q24 145 15.5 229.5t-58.5 190.5v4h293v-4q-91 -117 -129 -196t-66 -224l-213 -1147q-39 -203 -111 -296t-219 -93z" />
    <glyph glyph-name="eng" unicode="&#x14b;" horiz-adv-x="1056" 
d="M369 -426q162 85 215 332l166 780q16 68 1.5 113t-61.5 45q-41 0 -80.5 -34t-83 -107t-82.5 -157.5t-94 -215.5l-6 -27q-21 -99 -25.5 -162.5t7.5 -136.5v-4h-328v4q71 145 115 379l47 223q49 230 -45 314v4l372 104l-110 -526q192 516 444 516q104 0 157.5 -85.5
t18.5 -238.5l-141 -622q-28 -121 -77 -215.5t-113.5 -155.5t-137.5 -96t-155 -45z" />
    <glyph glyph-name="Omacron" unicode="&#x14c;" horiz-adv-x="1396" 
d="M1409 911q0 -179 -67.5 -352.5t-178 -302.5t-259.5 -208t-304 -79q-156 0 -274.5 82.5t-180 223t-61.5 315.5q0 178 67.5 351t177.5 301.5t259.5 208t304.5 79.5t273.5 -82.5t180.5 -222.5t62 -314zM367 418q0 -194 59.5 -300t181.5 -106q91 0 175 70t145 184
t106.5 254.5t68.5 286t23 274.5q0 194 -60.5 300t-182.5 106q-91 0 -174 -70t-144 -184t-106.5 -254.5t-68.5 -286t-23 -274.5zM625 1819h616l-24 -117h-617z" />
    <glyph glyph-name="omacron" unicode="&#x14d;" horiz-adv-x="962" 
d="M934 627q0 -121 -50.5 -242.5t-129.5 -212t-181.5 -147t-201.5 -56.5q-158 0 -250 107t-92 284q0 120 50.5 241.5t129.5 212t182 147.5t203 57q159 0 249.5 -107t90.5 -284zM270 209q0 -203 105 -203q79 0 153.5 121.5t119 301t44.5 349.5q0 203 -102 203
q-83 0 -158.5 -122t-118.5 -300t-43 -350zM354 1325h533l-23 -119h-532z" />
    <glyph glyph-name="Obreve" unicode="&#x14e;" horiz-adv-x="1396" 
d="M1409 911q0 -179 -67.5 -352.5t-178 -302.5t-259.5 -208t-304 -79q-156 0 -274.5 82.5t-180 223t-61.5 315.5q0 178 67.5 351t177.5 301.5t259.5 208t304.5 79.5t273.5 -82.5t180.5 -222.5t62 -314zM367 418q0 -194 59.5 -300t181.5 -106q91 0 175 70t145 184
t106.5 254.5t68.5 286t23 274.5q0 194 -60.5 300t-182.5 106q-91 0 -174 -70t-144 -184t-106.5 -254.5t-68.5 -286t-23 -274.5zM936 1792q198 0 262 145h21q-5 -35 -17 -71.5t-36.5 -78.5t-57 -73.5t-83.5 -52.5t-112 -21q-59 0 -105 21t-72.5 53.5t-43 73.5t-21 78t-1.5 71
h20q49 -145 246 -145z" />
    <glyph glyph-name="obreve" unicode="&#x14f;" horiz-adv-x="962" 
d="M934 627q0 -121 -50.5 -242.5t-129.5 -212t-181.5 -147t-201.5 -56.5q-158 0 -250 107t-92 284q0 120 50.5 241.5t129.5 212t182 147.5t203 57q159 0 249.5 -107t90.5 -284zM270 209q0 -203 105 -203q79 0 153.5 121.5t119 301t44.5 349.5q0 203 -102 203
q-83 0 -158.5 -122t-118.5 -300t-43 -350zM621 1311q83 0 134 34t81 103h18q-3 -34 -12.5 -69.5t-29.5 -75t-47 -69.5t-69.5 -49.5t-93.5 -19.5q-63 0 -109 29t-67.5 74t-30 91t-4.5 89h21q36 -137 209 -137z" />
    <glyph glyph-name="Ohungarumlaut" unicode="&#x150;" horiz-adv-x="1396" 
d="M1409 911q0 -179 -67.5 -352.5t-178 -302.5t-259.5 -208t-304 -79q-156 0 -274.5 82.5t-180 223t-61.5 315.5q0 178 67.5 351t177.5 301.5t259.5 208t304.5 79.5t273.5 -82.5t180.5 -222.5t62 -314zM367 418q0 -194 59.5 -300t181.5 -106q91 0 175 70t145 184
t106.5 254.5t68.5 286t23 274.5q0 194 -60.5 300t-182.5 106q-91 0 -174 -70t-144 -184t-106.5 -254.5t-68.5 -286t-23 -274.5zM1253 1956l113 -156l-371 -198l-14 20zM895 1956l111 -156l-369 -198l-16 20z" />
    <glyph glyph-name="ohungarumlaut" unicode="&#x151;" horiz-adv-x="962" 
d="M934 627q0 -121 -50.5 -242.5t-129.5 -212t-181.5 -147t-201.5 -56.5q-158 0 -250 107t-92 284q0 120 50.5 241.5t129.5 212t182 147.5t203 57q159 0 249.5 -107t90.5 -284zM270 209q0 -203 105 -203q79 0 153.5 121.5t119 301t44.5 349.5q0 203 -102 203
q-83 0 -158.5 -122t-118.5 -300t-43 -350zM897 1493l129 -135l-313 -232l-19 19zM582 1493l129 -135l-314 -232l-18 19z" />
    <glyph glyph-name="OE" unicode="&#x152;" horiz-adv-x="1800" 
d="M969 1145q19 111 18.5 167.5t-14.5 149.5h-51q-115 -3 -209.5 -59.5t-156.5 -147t-104 -210t-60.5 -244t-18.5 -252.5q0 -251 76 -377.5t237 -126.5h25q46 96 71 167.5t45 180.5zM1604 0h-945q-280 0 -427.5 161.5t-147.5 454.5q0 189 62 352t174 280t275 184t357 67h813
l25 -371l-23 -4q-66 136 -136 230t-124 98l-196 8l-127 -674h88q32 0 69.5 19.5t76.5 55t65 63t59 65.5h21l-84 -454h-23q-3 6 -18.5 35.5t-22.5 41.5t-22.5 37.5t-27.5 38t-29 27.5t-35 21.5t-37 6.5h-88l-136 -708l265 12q44 2 97.5 36.5t114 98.5t106 118t106.5 134
l20 -6z" />
    <glyph glyph-name="oe" unicode="&#x153;" horiz-adv-x="1462" 
d="M1212 981q-77 0 -156.5 -94t-115.5 -234q85 16 149 41.5t99 52t56.5 58t27.5 55t6 47.5q0 74 -66 74zM270 209q0 -203 105 -203q79 0 153.5 121.5t119 301t44.5 349.5q0 203 -102 203q-83 0 -158.5 -122t-118.5 -300t-43 -350zM965 -27q-181 0 -254 181
q-73 -88 -161 -136.5t-179 -48.5q-158 0 -250 107t-92 284q0 120 50.5 241.5t129.5 212t182 147.5t203 57q192 0 266 -191q170 191 381 191q38 0 74 -7t71.5 -22.5t57.5 -46.5t22 -74q0 -36 -17 -68.5t-56.5 -63.5t-99.5 -53.5t-152 -37t-207 -16.5q-23 -97 -23 -180
q0 -148 54.5 -213.5t142.5 -65.5q143 0 233 156l13 -11q-54 -169 -156 -255.5t-233 -86.5z" />
    <glyph glyph-name="Racute" unicode="&#x154;" horiz-adv-x="1204" 
d="M-6 4q55 107 83.5 189t57.5 221l125 671q28 140 29.5 225t-19.5 185v4h516q390 0 390 -313q0 -140 -82 -257.5t-236 -172.5l113 -475q26 -103 60 -163.5t89 -105.5v-12h-370l-166 711h-117l-55 -297q-19 -93 -24 -162.5t0 -120.5t20 -127v-4h-414v4zM725 1458h-49
q-41 0 -68 -2l-131 -700h123q74 0 132.5 40.5t93.5 107.5t53 146t18 162q0 246 -172 246zM1004 1970l88 -194l-535 -174l-12 24z" />
    <glyph glyph-name="racute" unicode="&#x155;" horiz-adv-x="761" 
d="M-6 4q39 79 63.5 158.5t55.5 220.5l47 223q49 228 -43 314v4l368 104l-125 -577q214 567 463 567l-100 -307h-8q-28 16 -70 16q-79 0 -144 -91.5t-151 -305.5l-6 -27q-43 -174 -18 -299v-4h-332v4zM737 1534l125 -162l-456 -256l-15 19z" />
    <glyph glyph-name="uni0156" unicode="&#x156;" horiz-adv-x="1204" 
d="M-6 4q55 107 83.5 189t57.5 221l125 671q28 140 29.5 225t-19.5 185v4h516q390 0 390 -313q0 -140 -82 -257.5t-236 -172.5l113 -475q26 -103 60 -163.5t89 -105.5v-12h-370l-166 711h-117l-55 -297q-19 -93 -24 -162.5t0 -120.5t20 -127v-4h-414v4zM725 1458h-49
q-41 0 -68 -2l-131 -700h123q74 0 132.5 40.5t93.5 107.5t53 146t18 162q0 246 -172 246zM358 -492q61 40 97.5 90.5t36.5 88.5q0 54 -60 118v5l174 112q66 -52 66 -121q0 -59 -51.5 -121.5t-119 -107t-139.5 -74.5z" />
    <glyph glyph-name="uni0157" unicode="&#x157;" horiz-adv-x="761" 
d="M-6 4q39 79 63.5 158.5t55.5 220.5l47 223q49 228 -43 314v4l368 104l-125 -577q214 567 463 567l-100 -307h-8q-28 16 -70 16q-79 0 -144 -91.5t-151 -305.5l-6 -27q-43 -174 -18 -299v-4h-332v4zM-72 -492q61 40 97 90.5t36 88.5q0 55 -59 118v5l174 112
q66 -52 66 -121q0 -59 -51.5 -121.5t-119 -107t-139.5 -74.5z" />
    <glyph glyph-name="Rcaron" unicode="&#x158;" horiz-adv-x="1204" 
d="M-6 4q55 107 83.5 189t57.5 221l125 671q28 140 29.5 225t-19.5 185v4h516q390 0 390 -313q0 -140 -82 -257.5t-236 -172.5l113 -475q26 -103 60 -163.5t89 -105.5v-12h-370l-166 711h-117l-55 -297q-19 -93 -24 -162.5t0 -120.5t20 -127v-4h-414v4zM725 1458h-49
q-41 0 -68 -2l-131 -700h123q74 0 132.5 40.5t93.5 107.5t53 146t18 162q0 246 -172 246zM735 1602l-233 323l20 21l250 -138l326 138l12 -21l-360 -323h-15z" />
    <glyph glyph-name="rcaron" unicode="&#x159;" horiz-adv-x="761" 
d="M-6 4q39 79 63.5 158.5t55.5 220.5l47 223q49 228 -43 314v4l368 104l-125 -577q214 567 463 567l-100 -307h-8q-28 16 -70 16q-79 0 -144 -91.5t-151 -305.5l-6 -27q-43 -174 -18 -299v-4h-332v4zM559 1106l-201 358l21 21l217 -166l299 166l12 -21l-334 -358h-14z" />
    <glyph glyph-name="Sacute" unicode="&#x15a;" horiz-adv-x="972" 
d="M977 1096l-21 -4q-89 221 -153 306t-152 85q-92 0 -151.5 -67t-59.5 -173q0 -24 4 -47.5t8.5 -42.5t17 -42t19.5 -37.5t26 -37.5t27.5 -34t32.5 -35t32 -32.5t36 -35t35 -33.5q50 -47 84.5 -87.5t68 -95.5t51 -120.5t17.5 -140.5q0 -112 -40 -200.5t-109 -142.5
t-157.5 -82t-191.5 -28q-94 0 -187 21t-148 49l-11 422l21 2q87 -235 171.5 -342t192.5 -107q104 0 163 79t59 194q0 83 -36 150.5t-102 133.5l-80 80q-48 48 -70 71.5t-58.5 70.5t-53.5 84t-31 92.5t-14 115.5q3 140 69 242.5t172 152.5t236 50q155 0 283 -55v-379z
M920 1970l88 -194l-535 -174l-12 24z" />
    <glyph glyph-name="sacute" unicode="&#x15b;" horiz-adv-x="708" 
d="M662 721l-15 -4q-68 146 -116.5 205t-108.5 59q-54 0 -84.5 -37.5t-30.5 -93.5q0 -40 17.5 -75.5t45.5 -64.5t61.5 -57.5t67 -62t61.5 -71.5t45.5 -92t17.5 -118q0 -162 -101.5 -251t-261.5 -89q-71 0 -135.5 16.5t-99.5 34.5l-11 304l15 4q74 -167 140.5 -244.5
t137.5 -77.5q57 0 94 41t37 111q0 52 -23.5 98.5t-58.5 80.5t-76.5 74.5t-76.5 79t-58.5 96t-23.5 124.5q0 148 98 227.5t256 79.5q116 0 189 -27zM633 1534l125 -162l-457 -256l-14 19z" />
    <glyph glyph-name="Scircumflex" unicode="&#x15c;" horiz-adv-x="972" 
d="M977 1096l-21 -4q-89 221 -153 306t-152 85q-92 0 -151.5 -67t-59.5 -173q0 -24 4 -47.5t8.5 -42.5t17 -42t19.5 -37.5t26 -37.5t27.5 -34t32.5 -35t32 -32.5t36 -35t35 -33.5q50 -47 84.5 -87.5t68 -95.5t51 -120.5t17.5 -140.5q0 -112 -40 -200.5t-109 -142.5
t-157.5 -82t-191.5 -28q-94 0 -187 21t-148 49l-11 422l21 2q87 -235 171.5 -342t192.5 -107q104 0 163 79t59 194q0 83 -36 150.5t-102 133.5l-80 80q-48 48 -70 71.5t-58.5 70.5t-53.5 84t-31 92.5t-14 115.5q3 140 69 242.5t172 152.5t236 50q155 0 283 -55v-379z
M731 1739l-325 -137l-13 20l361 324h14l233 -324l-20 -20z" />
    <glyph glyph-name="scircumflex" unicode="&#x15d;" horiz-adv-x="708" 
d="M662 721l-15 -4q-68 146 -116.5 205t-108.5 59q-54 0 -84.5 -37.5t-30.5 -93.5q0 -40 17.5 -75.5t45.5 -64.5t61.5 -57.5t67 -62t61.5 -71.5t45.5 -92t17.5 -118q0 -162 -101.5 -251t-261.5 -89q-71 0 -135.5 16.5t-99.5 34.5l-11 304l15 4q74 -167 140.5 -244.5
t137.5 -77.5q57 0 94 41t37 111q0 52 -23.5 98.5t-58.5 80.5t-76.5 74.5t-76.5 79t-58.5 96t-23.5 124.5q0 148 98 227.5t256 79.5q116 0 189 -27zM467 1272l-299 -166l-12 20l333 359h15l201 -359l-21 -20z" />
    <glyph glyph-name="uni015E" unicode="&#x15e;" horiz-adv-x="972" 
d="M145 -502q193 71 201 174q2 27 -9 44.5t-32 25t-38 10t-36 2.5l-4 4l164 211q-101 3 -182 23q-93 21 -143 47l-11 422l21 2q87 -235 171.5 -342t192.5 -107q104 0 163 79t59 194q0 83 -36 150.5t-102 133.5l-80 80q-48 48 -70 71.5t-58.5 70.5t-53.5 84t-31 92.5
t-14 115.5q3 140 69 242.5t172 152.5t236 50q155 0 283 -55v-379l-21 -4q-89 221 -153 306t-152 85q-92 0 -151.5 -67t-59.5 -173q0 -24 4 -47.5t8.5 -42.5t17 -42t19.5 -37.5t26 -37.5t27.5 -34t32.5 -35t32 -32.5t36 -35t35 -33.5q50 -47 84.5 -87.5t68 -95.5t51 -120.5
t17.5 -140.5q0 -168 -83 -275t-224 -149q-82 -24 -150 -27l-63 -84q147 -39 139 -153q-6 -92 -101.5 -157.5t-264.5 -98.5z" />
    <glyph glyph-name="uni015F" unicode="&#x15f;" horiz-adv-x="708" 
d="M-12 -502q192 71 200 174q2 27 -9 44.5t-32 25t-37.5 10t-35.5 2.5l-4 4l163 211q-62 3 -118 19q-65 18 -90 32l-11 304l15 4q74 -167 140.5 -244.5t137.5 -77.5q57 0 94 41t37 111q0 52 -23.5 98.5t-58.5 80.5t-76.5 74.5t-76.5 79t-58.5 96t-23.5 124.5q0 148 98 227.5
t256 79.5q116 0 189 -27l-2 -270l-15 -4q-68 146 -116.5 205t-108.5 59q-54 0 -84.5 -37.5t-30.5 -93.5q0 -40 17.5 -75.5t45.5 -64.5t61.5 -57.5t67 -62t61.5 -71.5t45.5 -92t17.5 -118q0 -121 -59.5 -203t-162.5 -114q-63 -20 -116 -23l-64 -82q147 -39 139 -153
q-6 -92 -101.5 -157.5t-264.5 -98.5z" />
    <glyph glyph-name="Scaron" unicode="&#x160;" horiz-adv-x="972" 
d="M977 1096l-21 -4q-89 221 -153 306t-152 85q-92 0 -151.5 -67t-59.5 -173q0 -24 4 -47.5t8.5 -42.5t17 -42t19.5 -37.5t26 -37.5t27.5 -34t32.5 -35t32 -32.5t36 -35t35 -33.5q50 -47 84.5 -87.5t68 -95.5t51 -120.5t17.5 -140.5q0 -112 -40 -200.5t-109 -142.5
t-157.5 -82t-191.5 -28q-94 0 -187 21t-148 49l-11 422l21 2q87 -235 171.5 -342t192.5 -107q104 0 163 79t59 194q0 83 -36 150.5t-102 133.5l-80 80q-48 48 -70 71.5t-58.5 70.5t-53.5 84t-31 92.5t-14 115.5q3 140 69 242.5t172 152.5t236 50q155 0 283 -55v-379z
M698 1602l-233 323l20 21l250 -138l326 138l12 -21l-360 -323h-15z" />
    <glyph glyph-name="scaron" unicode="&#x161;" horiz-adv-x="708" 
d="M662 721l-15 -4q-68 146 -116.5 205t-108.5 59q-54 0 -84.5 -37.5t-30.5 -93.5q0 -40 17.5 -75.5t45.5 -64.5t61.5 -57.5t67 -62t61.5 -71.5t45.5 -92t17.5 -118q0 -162 -101.5 -251t-261.5 -89q-71 0 -135.5 16.5t-99.5 34.5l-11 304l15 4q74 -167 140.5 -244.5
t137.5 -77.5q57 0 94 41t37 111q0 52 -23.5 98.5t-58.5 80.5t-76.5 74.5t-76.5 79t-58.5 96t-23.5 124.5q0 148 98 227.5t256 79.5q116 0 189 -27zM428 1106l-201 358l21 21l217 -166l299 166l12 -21l-334 -358h-14z" />
    <glyph glyph-name="Tcommaaccent" unicode="&#x162;" horiz-adv-x="1247" 
d="M324 0v4q60 106 89.5 187.5t53.5 214.5l201 1054l-117 -6q-26 -2 -57 -20t-75 -62t-72 -75t-89.5 -103.5t-87.5 -101.5l-23 8l136 399h1058l-10 -405l-22 -4q-37 90 -61 144t-54.5 109.5t-60 82t-60.5 28.5l-125 6l-196 -1054q-24 -138 -26.5 -219.5t15.5 -182.5v-4h-417
zM301 -492q61 40 97 90.5t36 88.5q0 55 -59 118v5l174 112q65 -52 65 -121q0 -59 -51 -121.5t-118.5 -107t-139.5 -74.5z" />
    <glyph glyph-name="tcommaaccent" unicode="&#x163;" horiz-adv-x="696" 
d="M256 -31q-94 0 -140 74t-12 238l146 661h-105l2 19l388 256h18l-49 -230h237l-8 -45h-239l-144 -670q-32 -143 43 -143q46 0 99.5 45t93.5 100l20 -14q-69 -136 -160.5 -213.5t-189.5 -77.5zM47 -492q61 40 97 90.5t36 88.5q0 55 -59 118v5l174 112q65 -52 65 -121
q0 -59 -51 -121.5t-118.5 -107t-139.5 -74.5z" />
    <glyph glyph-name="Tcaron" unicode="&#x164;" horiz-adv-x="1247" 
d="M324 0v4q60 106 89.5 187.5t53.5 214.5l201 1054l-117 -6q-26 -2 -57 -20t-75 -62t-72 -75t-89.5 -103.5t-87.5 -101.5l-23 8l136 399h1058l-10 -405l-22 -4q-37 90 -61 144t-54.5 109.5t-60 82t-60.5 28.5l-125 6l-196 -1054q-24 -138 -26.5 -219.5t15.5 -182.5v-4h-417
zM819 1602l-233 323l20 21l250 -138l326 138l12 -21l-360 -323h-15z" />
    <glyph glyph-name="tcaron" unicode="&#x165;" horiz-adv-x="696" 
d="M256 -31q-94 0 -140 74t-12 238l146 661h-105l2 19l388 256h18l-49 -230h237l-8 -45h-239l-144 -670q-32 -143 43 -143q46 0 99.5 45t93.5 100l20 -14q-69 -136 -160.5 -213.5t-189.5 -77.5zM731 1587h213l-282 -416l-23 5z" />
    <glyph glyph-name="Tbar" unicode="&#x166;" horiz-adv-x="1247" 
d="M322 0v4q60 106 89.5 187.5t53.5 214.5l61 325h-286l10 45h285l131 684l-117 -6q-26 -2 -57 -20t-75 -62t-72 -75t-89.5 -103.5t-87.5 -101.5l-23 8l136 399h1058l-10 -405l-22 -4q-37 90 -61 144t-54.5 109.5t-60 82t-60.5 28.5l-125 6l-129 -684h291l-8 -45h-291
l-59 -325q-24 -138 -26.5 -219.5t15.5 -182.5v-4h-417z" />
    <glyph glyph-name="tbar" unicode="&#x167;" horiz-adv-x="696" 
d="M256 -31q-94 0 -140 74t-12 238l76 350h-98l10 41h98l60 270h-105l2 19l388 256h18l-49 -230h237l-8 -45h-239l-58 -270h242l-8 -41h-244l-76 -359q-32 -143 43 -143q46 0 99.5 45t93.5 100l20 -14q-69 -136 -160.5 -213.5t-189.5 -77.5z" />
    <glyph glyph-name="Utilde" unicode="&#x168;" horiz-adv-x="1204" 
d="M551 -31q-110 0 -195.5 34t-143.5 104t-75 177t10 253l105 557q29 138 29 219.5t-25 181.5v4h424v-4q-59 -93 -92.5 -180t-57.5 -221l-106 -568q-26 -138 -24.5 -231t33 -150t78 -81.5t110.5 -24.5q81 0 146.5 38.5t111 108.5t76 156t49.5 193l102 540q27 148 15.5 230
t-70.5 190v4h315v-4q-97 -115 -136.5 -194.5t-68.5 -225.5l-100 -530q-22 -108 -45.5 -185.5t-63.5 -156t-92 -126.5t-130.5 -78t-178.5 -30zM733 1864q60 0 151.5 -40t153.5 -40q55 0 91 23.5t65 82.5l23 -4q-7 -51 -21.5 -95t-41 -85.5t-70.5 -65.5t-101 -24
q-59 0 -151.5 40t-153.5 40q-56 0 -93.5 -24.5t-62.5 -84.5l-22 4q7 52 21 95.5t39.5 86t70 67t102.5 24.5z" />
    <glyph glyph-name="utilde" unicode="&#x169;" horiz-adv-x="1021" 
d="M621 391q-33 -73 -66 -132.5t-73.5 -114.5t-81.5 -92.5t-90.5 -60t-100.5 -22.5q-102 0 -149.5 82.5t-4.5 231.5l111 413q16 63 22 103.5t1.5 77.5t-24 61.5t-56.5 42.5v4h372l-176 -688q-20 -67 -6.5 -112.5t59.5 -45.5q69 0 147.5 127.5t182.5 388.5l29 115
q10 43 12.5 80.5t-20 72.5t-70.5 58v4h381l-182 -696q-16 -60 -21 -99.5t1.5 -71t26.5 -52.5t56 -39v-7l-383 -38zM516 1401q50 0 136 -34t136 -34q99 0 127 97l23 -3q-4 -40 -17.5 -81t-37.5 -80.5t-63 -64.5t-87 -25q-49 0 -136 33.5t-138 33.5q-108 0 -135 -96l-23 2
q6 55 28.5 109.5t72 98.5t114.5 44z" />
    <glyph glyph-name="Umacron" unicode="&#x16a;" horiz-adv-x="1204" 
d="M551 -31q-110 0 -195.5 34t-143.5 104t-75 177t10 253l105 557q29 138 29 219.5t-25 181.5v4h424v-4q-59 -93 -92.5 -180t-57.5 -221l-106 -568q-26 -138 -24.5 -231t33 -150t78 -81.5t110.5 -24.5q81 0 146.5 38.5t111 108.5t76 156t49.5 193l102 540q27 148 15.5 230
t-70.5 190v4h315v-4q-97 -115 -136.5 -194.5t-68.5 -225.5l-100 -530q-22 -108 -45.5 -185.5t-63.5 -156t-92 -126.5t-130.5 -78t-178.5 -30zM555 1819h616l-24 -117h-617z" />
    <glyph glyph-name="umacron" unicode="&#x16b;" horiz-adv-x="1021" 
d="M621 391q-33 -73 -66 -132.5t-73.5 -114.5t-81.5 -92.5t-90.5 -60t-100.5 -22.5q-102 0 -149.5 82.5t-4.5 231.5l111 413q16 63 22 103.5t1.5 77.5t-24 61.5t-56.5 42.5v4h372l-176 -688q-20 -67 -6.5 -112.5t59.5 -45.5q69 0 147.5 127.5t182.5 388.5l29 115
q10 43 12.5 80.5t-20 72.5t-70.5 58v4h381l-182 -696q-16 -60 -21 -99.5t1.5 -71t26.5 -52.5t56 -39v-7l-383 -38zM365 1325h532l-23 -119h-532z" />
    <glyph glyph-name="Ubreve" unicode="&#x16c;" horiz-adv-x="1204" 
d="M551 -31q-110 0 -195.5 34t-143.5 104t-75 177t10 253l105 557q29 138 29 219.5t-25 181.5v4h424v-4q-59 -93 -92.5 -180t-57.5 -221l-106 -568q-26 -138 -24.5 -231t33 -150t78 -81.5t110.5 -24.5q81 0 146.5 38.5t111 108.5t76 156t49.5 193l102 540q27 148 15.5 230
t-70.5 190v4h315v-4q-97 -115 -136.5 -194.5t-68.5 -225.5l-100 -530q-22 -108 -45.5 -185.5t-63.5 -156t-92 -126.5t-130.5 -78t-178.5 -30zM887 1792q198 0 262 145h20q-5 -35 -17 -71.5t-36 -78.5t-56.5 -73.5t-83.5 -52.5t-112 -21q-59 0 -105 21t-72.5 53.5t-43 73.5
t-21 78t-1.5 71h20q49 -145 246 -145z" />
    <glyph glyph-name="ubreve" unicode="&#x16d;" horiz-adv-x="1021" 
d="M621 391q-33 -73 -66 -132.5t-73.5 -114.5t-81.5 -92.5t-90.5 -60t-100.5 -22.5q-102 0 -149.5 82.5t-4.5 231.5l111 413q16 63 22 103.5t1.5 77.5t-24 61.5t-56.5 42.5v4h372l-176 -688q-20 -67 -6.5 -112.5t59.5 -45.5q69 0 147.5 127.5t182.5 388.5l29 115
q10 43 12.5 80.5t-20 72.5t-70.5 58v4h381l-182 -696q-16 -60 -21 -99.5t1.5 -71t26.5 -52.5t56 -39v-7l-383 -38zM633 1311q83 0 134 34t81 103h18q-3 -34 -12.5 -69.5t-29.5 -75t-47 -69.5t-69.5 -49.5t-93.5 -19.5q-63 0 -109 29t-67.5 74t-30 91t-4.5 89h21
q36 -137 209 -137z" />
    <glyph glyph-name="Uring" unicode="&#x16e;" horiz-adv-x="1204" 
d="M551 -31q-110 0 -195.5 34t-143.5 104t-75 177t10 253l105 557q29 138 29 219.5t-25 181.5v4h424v-4q-59 -93 -92.5 -180t-57.5 -221l-106 -568q-26 -138 -24.5 -231t33 -150t78 -81.5t110.5 -24.5q81 0 146.5 38.5t111 108.5t76 156t49.5 193l102 540q27 148 15.5 230
t-70.5 190v4h315v-4q-97 -115 -136.5 -194.5t-68.5 -225.5l-100 -530q-22 -108 -45.5 -185.5t-63.5 -156t-92 -126.5t-130.5 -78t-178.5 -30zM696 1761q0 78 53.5 129.5t133.5 51.5t134 -51t54 -130q0 -77 -54.5 -126.5t-133.5 -49.5t-133 49.5t-54 126.5zM782 1761
q0 -66 26.5 -101.5t74.5 -35.5t75 36t27 101q0 66 -27.5 104t-74.5 38t-74 -38t-27 -104z" />
    <glyph glyph-name="uring" unicode="&#x16f;" horiz-adv-x="1021" 
d="M621 391q-33 -73 -66 -132.5t-73.5 -114.5t-81.5 -92.5t-90.5 -60t-100.5 -22.5q-102 0 -149.5 82.5t-4.5 231.5l111 413q16 63 22 103.5t1.5 77.5t-24 61.5t-56.5 42.5v4h372l-176 -688q-20 -67 -6.5 -112.5t59.5 -45.5q69 0 147.5 127.5t182.5 388.5l29 115
q10 43 12.5 80.5t-20 72.5t-70.5 58v4h381l-182 -696q-16 -60 -21 -99.5t1.5 -71t26.5 -52.5t56 -39v-7l-383 -38zM442 1337q0 78 53.5 128.5t133.5 50.5t134 -50t54 -129q0 -77 -54.5 -126.5t-133.5 -49.5t-133 49.5t-54 126.5zM528 1337q0 -137 101 -137q48 0 75 36
t27 101q0 66 -27.5 103t-74.5 37t-74 -37t-27 -103z" />
    <glyph glyph-name="Uhungarumlaut" unicode="&#x170;" horiz-adv-x="1204" 
d="M551 -31q-110 0 -195.5 34t-143.5 104t-75 177t10 253l105 557q29 138 29 219.5t-25 181.5v4h424v-4q-59 -93 -92.5 -180t-57.5 -221l-106 -568q-26 -138 -24.5 -231t33 -150t78 -81.5t110.5 -24.5q81 0 146.5 38.5t111 108.5t76 156t49.5 193l102 540q27 148 15.5 230
t-70.5 190v4h315v-4q-97 -115 -136.5 -194.5t-68.5 -225.5l-100 -530q-22 -108 -45.5 -185.5t-63.5 -156t-92 -126.5t-130.5 -78t-178.5 -30zM1206 1956l113 -156l-371 -198l-14 20zM848 1956l110 -156l-368 -198l-17 20z" />
    <glyph glyph-name="uhungarumlaut" unicode="&#x171;" horiz-adv-x="1021" 
d="M621 391q-33 -73 -66 -132.5t-73.5 -114.5t-81.5 -92.5t-90.5 -60t-100.5 -22.5q-102 0 -149.5 82.5t-4.5 231.5l111 413q16 63 22 103.5t1.5 77.5t-24 61.5t-56.5 42.5v4h372l-176 -688q-20 -67 -6.5 -112.5t59.5 -45.5q69 0 147.5 127.5t182.5 388.5l29 115
q10 43 12.5 80.5t-20 72.5t-70.5 58v4h381l-182 -696q-16 -60 -21 -99.5t1.5 -71t26.5 -52.5t56 -39v-7l-383 -38zM907 1493l129 -135l-313 -232l-18 19zM592 1493l129 -135l-313 -232l-19 19z" />
    <glyph glyph-name="Uogonek" unicode="&#x172;" horiz-adv-x="1204" 
d="M463 -508q-72 0 -114 40t-42 112q0 99 74 181t197 144h-27q-110 0 -195.5 34t-143.5 104t-75 177t10 253l105 557q29 138 29 219.5t-25 181.5v4h424v-4q-59 -93 -92.5 -180t-57.5 -221l-106 -568q-26 -138 -24.5 -231t33 -150t78 -81.5t110.5 -24.5q81 0 146.5 38.5
t111 108.5t76 156t49.5 193l102 540q27 148 15.5 230t-70.5 190v4h315v-4q-97 -115 -136.5 -194.5t-68.5 -225.5l-100 -530q-36 -183 -91 -306.5t-151 -191.5q-21 -16 -46.5 -29.5t-58.5 -28t-48 -22.5q-61 -31 -99.5 -73.5t-51.5 -80t-13 -77.5q0 -98 90 -98q73 0 137 77
l16 -14q-25 -41 -49 -72.5t-59 -65.5t-79.5 -52.5t-94.5 -18.5z" />
    <glyph glyph-name="uogonek" unicode="&#x173;" horiz-adv-x="1021" 
d="M397 -508q-72 0 -113.5 39.5t-41.5 108.5q0 95 73 184t203 158l103 409q-33 -73 -66 -132.5t-73.5 -114.5t-81.5 -92.5t-90.5 -60t-100.5 -22.5q-102 0 -149.5 82.5t-4.5 231.5l111 413q16 63 22 103.5t1.5 77.5t-24 61.5t-56.5 42.5v4h372l-176 -688
q-20 -67 -6.5 -112.5t59.5 -45.5q69 0 147.5 127.5t182.5 388.5l29 115q10 43 12.5 80.5t-20 72.5t-70.5 58v4h381l-182 -696q-16 -60 -21 -99.5t1.5 -71t26.5 -52.5t56 -39v-7q-145 -11 -188 -20q-82 -15 -141 -48t-87.5 -74t-40.5 -76.5t-12 -69.5q0 -97 92 -97
q72 0 138 80l16 -14q-20 -38 -45.5 -72t-60.5 -66.5t-80 -51.5t-95 -19z" />
    <glyph glyph-name="Wcircumflex" unicode="&#x174;" horiz-adv-x="1734" 
d="M373 -8l-103 1141q-12 134 -31 214t-55 148v4h441v-4q-87 -129 -66 -385l66 -741l323 712l-4 52q-12 133 -32.5 213.5t-59.5 148.5v4h444v-4q-45 -60 -59 -151t-6 -234l53 -743l324 690q132 294 49 438v4h278v-4q-69 -63 -122.5 -147t-114.5 -215l-539 -1141h-127
l-76 993l-456 -993h-127zM1143 1739l-326 -137l-12 20l360 324h15l233 -324l-20 -20z" />
    <glyph glyph-name="wcircumflex" unicode="&#x175;" horiz-adv-x="1236" 
d="M156 698q-5 110 -23 173t-59 110v4h325l15 -627l225 371q-4 93 -25.5 149.5t-64.5 102.5v4h334l8 -620l115 198q67 114 91.5 197t12 134.5t-56.5 86.5v4h260v-4l-594 -999h-66l-12 659l-399 -659h-64zM766 1272l-299 -166l-12 20l333 359h15l201 -359l-21 -20z" />
    <glyph glyph-name="Ycircumflex" unicode="&#x176;" horiz-adv-x="1058" 
d="M231 4q58 102 85 173t51 192l63 342l-117 456q-30 113 -62.5 190t-78.5 138v4h475v-4q-45 -45 -57.5 -125.5t10.5 -179.5l100 -406l191 306q60 91 82.5 175.5t14.5 137t-32 92.5v4h310v-4q-83 -70 -147 -150t-146 -210l-268 -430l-60 -338q-24 -127 -22 -198.5t28 -164.5
l-2 -4h-418v4zM823 1739l-325 -137l-13 20l361 324h14l234 -324l-21 -20z" />
    <glyph glyph-name="ycircumflex" unicode="&#x177;" horiz-adv-x="788" 
d="M-145 -215q272 -32 391 186l6 11l-90 731q-12 109 -33.5 164.5t-71.5 105.5v4h322l72 -643l118 215q98 175 107 273t-72 151v4h266v-4l-641 -1122q-50 -88 -104 -149.5t-109 -96.5t-105.5 -52t-109.5 -24zM557 1272l-299 -166l-12 20l334 359h14l201 -359l-21 -20z" />
    <glyph glyph-name="Ydieresis" unicode="&#x178;" horiz-adv-x="1058" 
d="M231 4q58 102 85 173t51 192l63 342l-117 456q-30 113 -62.5 190t-78.5 138v4h475v-4q-45 -45 -57.5 -125.5t10.5 -179.5l100 -406l191 306q60 91 82.5 175.5t14.5 137t-32 92.5v4h310v-4q-83 -70 -147 -150t-146 -210l-268 -430l-60 -338q-24 -127 -22 -198.5t28 -164.5
l-2 -4h-418v4zM1157 1778q0 -60 -43 -103t-104 -43q-60 0 -102 43t-42 103t42 102.5t102 42.5q61 0 104 -42.5t43 -102.5zM745 1778q0 -60 -42.5 -103t-102.5 -43t-101.5 43t-41.5 103t41.5 102.5t101.5 42.5t102.5 -42.5t42.5 -102.5z" />
    <glyph glyph-name="Zacute" unicode="&#x179;" horiz-adv-x="1107" 
d="M-49 0v20l958 1444l-178 -8q-242 -11 -508 -364l-20 6l147 401h879v-20l-955 -1444l228 8q62 3 126 32t116.5 70t108.5 102t95 111.5t84 114.5l19 -6l-164 -467h-936zM1042 1970l88 -194l-534 -174l-12 24z" />
    <glyph glyph-name="zacute" unicode="&#x17a;" horiz-adv-x="854" 
d="M-53 0v14l657 932l-162 -8q-32 -2 -67 -18.5t-82.5 -55.5t-73 -62.5t-83.5 -79.5q-6 -6 -9 -8.5t-7.5 -7l-8.5 -8.5l-11 4l119 285h678v-16l-659 -934l186 6q41 2 84.5 23t95.5 67t87.5 82t99.5 104l10 -4l-135 -315h-719zM737 1534l125 -162l-456 -256l-15 19z" />
    <glyph glyph-name="Zdotaccent" unicode="&#x17b;" horiz-adv-x="1107" 
d="M-49 0v20l958 1444l-178 -8q-242 -11 -508 -364l-20 6l147 401h879v-20l-955 -1444l228 8q62 3 126 32t116.5 70t108.5 102t95 111.5t84 114.5l19 -6l-164 -467h-936zM924 1776q0 -61 -44 -104.5t-106 -43.5q-60 0 -102.5 43.5t-42.5 104.5q0 60 42.5 104.5t102.5 44.5
q61 0 105.5 -44.5t44.5 -104.5z" />
    <glyph glyph-name="zdotaccent" unicode="&#x17c;" horiz-adv-x="854" 
d="M-53 0v14l657 932l-162 -8q-32 -2 -67 -18.5t-82.5 -55.5t-73 -62.5t-83.5 -79.5q-6 -6 -9 -8.5t-7.5 -7l-8.5 -8.5l-11 4l119 285h678v-16l-659 -934l186 6q41 2 84.5 23t95.5 67t87.5 82t99.5 104l10 -4l-135 -315h-719zM715 1346q0 -62 -43.5 -105t-104.5 -43t-104 43
t-43 105q0 60 43 103.5t104 43.5t104.5 -43.5t43.5 -103.5z" />
    <glyph glyph-name="Zcaron" unicode="&#x17d;" horiz-adv-x="1107" 
d="M-49 0v20l958 1444l-178 -8q-242 -11 -508 -364l-20 6l147 401h879v-20l-955 -1444l228 8q62 3 126 32t116.5 70t108.5 102t95 111.5t84 114.5l19 -6l-164 -467h-936zM745 1602l-233 323l20 21l250 -138l326 138l12 -21l-360 -323h-15z" />
    <glyph glyph-name="zcaron" unicode="&#x17e;" horiz-adv-x="854" 
d="M-53 0v14l657 932l-162 -8q-32 -2 -67 -18.5t-82.5 -55.5t-73 -62.5t-83.5 -79.5q-6 -6 -9 -8.5t-7.5 -7l-8.5 -8.5l-11 4l119 285h678v-16l-659 -934l186 6q41 2 84.5 23t95.5 67t87.5 82t99.5 104l10 -4l-135 -315h-719zM528 1106l-200 358l20 21l217 -166l299 166
l13 -21l-334 -358h-15z" />
    <glyph glyph-name="uni0192" unicode="&#x192;" horiz-adv-x="1011" 
d="M-35 -401q-92 0 -135 16l-14 330l20 4q17 -34 38.5 -79.5t33.5 -70.5t27.5 -56t25 -46.5t20.5 -31t19.5 -21.5t17.5 -6q35 0 80.5 101t116.5 349l191 662h-173l15 45h170l41 143q86 299 227 455.5t324 156.5q92 0 135 -16l16 -330l-20 -4q-22 45 -52 107t-44 90t-32 59
t-30 42t-25 11q-34 0 -80.5 -102.5t-117.5 -345.5l-78 -266h217l-14 -45h-215l-156 -537q-87 -299 -226.5 -456.5t-322.5 -157.5z" />
    <glyph glyph-name="Aringacute" unicode="&#x1fa;" horiz-adv-x="1128" 
d="M575 1161l-258 -551h320zM199 0h-285v4q73 65 125 147.5t113 217.5l534 1138h125l133 -1151q13 -131 33 -209t63 -143v-4h-440v4q89 121 62 381l-21 180h-346l-53 -114q-50 -107 -70 -197t-12 -151t39 -99v-4zM582 1776q0 78 53 129t133 51t134 -50.5t54 -129.5
q0 -77 -54.5 -127t-133.5 -50t-132.5 50t-53.5 127zM668 1776q0 -66 26.5 -102t73.5 -36q48 0 75 36t27 102t-27.5 103.5t-74.5 37.5t-73.5 -37.5t-26.5 -103.5zM1014 2345l88 -195l-535 -174l-12 25z" />
    <glyph glyph-name="aringacute" unicode="&#x1fb;" horiz-adv-x="999" 
d="M365 150q38 0 77 36.5t75.5 103.5t66.5 137t63 161l2 -2l88 336q-20 51 -88 51q-74 0 -144.5 -67.5t-118.5 -168t-77.5 -214.5t-29.5 -208q0 -165 86 -165zM614 395q-166 -426 -376 -426q-98 0 -153.5 80t-55.5 225q0 101 27.5 205t83.5 200.5t133.5 172t185.5 121
t231 45.5q118 0 197 -33l100 33h17l-191 -729q-33 -109 -21 -170t85 -92v-7l-369 -38zM492 1337q0 78 53 128.5t133 50.5t134 -50t54 -129q0 -77 -54.5 -126.5t-133.5 -49.5t-132.5 49.5t-53.5 126.5zM578 1337q0 -137 100 -137q48 0 75 36t27 101q0 66 -27.5 103t-74.5 37
t-73.5 -37t-26.5 -103zM969 1929l88 -194l-535 -174l-12 24z" />
    <glyph glyph-name="AEacute" unicode="&#x1fc;" horiz-adv-x="1759" 
d="M922 1110q24 136 26 201l-473 -701h352zM215 0h-285v4q87 63 158.5 147.5t161.5 217.5l690 1011q-12 63 -61 115v4h845l23 -371l-21 -4q-164 321 -262 328l-196 12l-127 -678h90q26 0 57 14.5t56.5 34t58 51.5t51 52t45.5 51h23l-86 -454h-21q-56 105 -83 139
q-54 69 -109 69h-90l-134 -708l263 12q36 2 81.5 28t84.5 60.5t90.5 93t85 100t82.5 105.5l20 -6l-145 -428h-912v4q41 86 59.5 127.5t40 110t37.5 151.5l33 172h-375l-88 -129q-76 -112 -113.5 -193t-41.5 -137t14 -102v-4zM1567 1970l88 -194l-535 -174l-12 24z" />
    <glyph glyph-name="aeacute" unicode="&#x1fd;" horiz-adv-x="1411" 
d="M608 356q-162 -387 -370 -387q-97 0 -153 80.5t-56 222.5q0 100 28.5 205.5t84.5 201.5t131.5 172t177 121.5t213.5 45.5q158 0 243 -92q136 92 281 92q38 0 74 -7t72.5 -22.5t58.5 -46.5t22 -74q0 -36 -17 -68.5t-56.5 -63.5t-99.5 -53.5t-152 -37t-207 -16.5
q-23 -97 -23 -180q0 -148 54.5 -213.5t142.5 -65.5q143 0 233 156l10 -11q-53 -169 -154.5 -255.5t-232.5 -86.5q-142 0 -223.5 97.5t-81.5 273.5v12zM365 150q32 0 65 25.5t60 64t57 98t52 113.5t48 124q38 101 82 166q19 131 1 181.5t-75 50.5q-76 0 -148 -67.5
t-120.5 -167.5t-78 -213.5t-29.5 -207.5t26 -130.5t60 -36.5zM1161 981q-77 0 -156.5 -94t-115.5 -234q84 16 148 41.5t99 52t56.5 58t28 55t6.5 47.5q0 74 -66 74zM1100 1534l125 -162l-457 -256l-14 19z" />
    <glyph glyph-name="Oslashacute" unicode="&#x1fe;" horiz-adv-x="1396" 
d="M365 418q0 -74 10 -146l725 1020q-55 195 -219 195q-91 0 -174.5 -70t-144.5 -184t-106.5 -254.5t-68 -286t-22.5 -274.5zM606 12q91 0 175 70t145 184t106.5 254.5t68.5 286t23 274.5q0 70 -10 148l-725 -1022q55 -195 217 -195zM598 -31q-176 0 -303 105l-113 -158h-59
l135 190q-176 176 -176 484q0 178 67.5 351t177.5 301.5t259.5 208t304.5 79.5q173 0 303 -105l113 160h59l-135 -192q86 -84 131 -208.5t45 -273.5q0 -179 -67.5 -352.5t-178 -302.5t-259.5 -208t-304 -79zM1182 1970l88 -194l-535 -174l-12 24z" />
    <glyph glyph-name="oslashacute" unicode="&#x1ff;" horiz-adv-x="962" 
d="M934 627q0 -121 -50.5 -242.5t-129.5 -212t-181.5 -147t-201.5 -56.5q-120 0 -205 64l-127 -170h-57l149 200q-102 105 -102 297q0 120 50.5 241.5t129.5 212t182 147.5t203 57q116 0 205 -66l123 162h59l-145 -194q98 -104 98 -293zM590 981q-81 0 -155 -114t-117 -282
t-48 -337l420 559q-10 174 -100 174zM375 6q76 0 148.5 110.5t117 278t49.5 334.5l-420 -557q10 -166 105 -166zM793 1534l125 -162l-457 -256l-15 19z" />
    <glyph glyph-name="uni0218" unicode="&#x218;" horiz-adv-x="972" 
d="M977 1096l-21 -4q-89 221 -153 306t-152 85q-92 0 -151.5 -67t-59.5 -173q0 -24 4 -47.5t8.5 -42.5t17 -42t19.5 -37.5t26 -37.5t27.5 -34t32.5 -35t32 -32.5t36 -35t35 -33.5q50 -47 84.5 -87.5t68 -95.5t51 -120.5t17.5 -140.5q0 -112 -40 -200.5t-109 -142.5
t-157.5 -82t-191.5 -28q-94 0 -187 21t-148 49l-11 422l21 2q87 -235 171.5 -342t192.5 -107q104 0 163 79t59 194q0 83 -36 150.5t-102 133.5l-80 80q-48 48 -70 71.5t-58.5 70.5t-53.5 84t-31 92.5t-14 115.5q3 140 69 242.5t172 152.5t236 50q155 0 283 -55v-379z
M211 -492q61 40 97 90.5t36 88.5q0 55 -59 118v5l174 112q65 -52 65 -121q0 -59 -51 -121.5t-118.5 -107t-139.5 -74.5z" />
    <glyph glyph-name="uni0219" unicode="&#x219;" horiz-adv-x="708" 
d="M662 721l-15 -4q-68 146 -116.5 205t-108.5 59q-54 0 -84.5 -37.5t-30.5 -93.5q0 -40 17.5 -75.5t45.5 -64.5t61.5 -57.5t67 -62t61.5 -71.5t45.5 -92t17.5 -118q0 -162 -101.5 -251t-261.5 -89q-71 0 -135.5 16.5t-99.5 34.5l-11 304l15 4q74 -167 140.5 -244.5
t137.5 -77.5q57 0 94 41t37 111q0 52 -23.5 98.5t-58.5 80.5t-76.5 74.5t-76.5 79t-58.5 96t-23.5 124.5q0 148 98 227.5t256 79.5q116 0 189 -27zM53 -492q61 40 97 90.5t36 88.5q0 55 -59 118v5l174 112q66 -52 66 -121q0 -59 -51.5 -121.5t-119 -107t-139.5 -74.5z" />
    <glyph glyph-name="uni021A" unicode="&#x21a;" horiz-adv-x="1247" 
d="M324 0v4q60 106 89.5 187.5t53.5 214.5l201 1054l-117 -6q-26 -2 -57 -20t-75 -62t-72 -75t-89.5 -103.5t-87.5 -101.5l-23 8l136 399h1058l-10 -405l-22 -4q-37 90 -61 144t-54.5 109.5t-60 82t-60.5 28.5l-125 6l-196 -1054q-24 -138 -26.5 -219.5t15.5 -182.5v-4h-417
zM301 -492q61 40 97 90.5t36 88.5q0 55 -59 118v5l174 112q65 -52 65 -121q0 -59 -51 -121.5t-118.5 -107t-139.5 -74.5z" />
    <glyph glyph-name="uni021B" unicode="&#x21b;" horiz-adv-x="696" 
d="M256 -31q-94 0 -140 74t-12 238l146 661h-105l2 19l388 256h18l-49 -230h237l-8 -45h-239l-144 -670q-32 -143 43 -143q46 0 99.5 45t93.5 100l20 -14q-69 -136 -160.5 -213.5t-189.5 -77.5zM47 -492q61 40 97 90.5t36 88.5q0 55 -59 118v5l174 112q65 -52 65 -121
q0 -59 -51 -121.5t-118.5 -107t-139.5 -74.5z" />
    <glyph glyph-name="uni0237" unicode="&#x237;" horiz-adv-x="471" 
d="M-217 -428q163 86 217 334l150 696q53 235 -48 318v4l383 104l-217 -956q-56 -239 -183 -364t-300 -148z" />
    <glyph glyph-name="circumflex" unicode="&#x2c6;" 
d="M514 1272l-299 -166l-12 20l334 359h14l201 -359l-21 -20z" />
    <glyph glyph-name="caron" unicode="&#x2c7;" 
d="M455 1106l-201 358l20 21l218 -166l299 166l12 -21l-334 -358h-14z" />
    <glyph glyph-name="breve" unicode="&#x2d8;" 
d="M526 1311q83 0 134 34t81 103h19q-3 -34 -12.5 -69.5t-29.5 -75t-47 -69.5t-69.5 -49.5t-93.5 -19.5q-63 0 -109 29t-67.5 74t-30 91t-4.5 89h20q36 -137 209 -137z" />
    <glyph glyph-name="dotaccent" unicode="&#x2d9;" 
d="M664 1346q0 -62 -43 -105t-105 -43q-61 0 -104 43t-43 105q0 60 43 103.5t104 43.5t104.5 -43.5t43.5 -103.5z" />
    <glyph glyph-name="ring" unicode="&#x2da;" horiz-adv-x="614" 
d="M291 1337q0 78 53 128.5t133 50.5q81 0 135 -50t54 -129q0 -77 -55 -126.5t-134 -49.5t-132.5 49.5t-53.5 126.5zM377 1337q0 -137 100 -137q48 0 75.5 36t27.5 101q0 66 -27.5 103t-75.5 37q-47 0 -73.5 -37t-26.5 -103z" />
    <glyph glyph-name="ogonek" unicode="&#x2db;" horiz-adv-x="614" 
d="M346 2q-56 -30 -95 -68t-57 -75t-25 -66t-7 -57q0 -98 88 -98q73 0 137 77l16 -14q-46 -86 -116.5 -147.5t-165.5 -61.5q-73 0 -114.5 39.5t-41.5 110.5q0 101 86 194.5t232 165.5h63z" />
    <glyph glyph-name="tilde" unicode="&#x2dc;" 
d="M408 1401q50 0 136 -34t136 -34q99 0 127 97l22 -3q-6 -56 -26.5 -109.5t-67.5 -97.5t-110 -44q-49 0 -136 33.5t-139 33.5q-108 0 -135 -96l-22 2q6 55 28.5 109.5t72 98.5t114.5 44z" />
    <glyph glyph-name="hungarumlaut" unicode="&#x2dd;" 
d="M696 1493l129 -135l-313 -232l-18 19zM381 1493l129 -135l-313 -232l-19 19z" />
    <glyph glyph-name="Wgrave" unicode="&#x1e80;" horiz-adv-x="1734" 
d="M373 -8l-103 1141q-12 134 -31 214t-55 148v4h441v-4q-87 -129 -66 -385l66 -741l323 712l-4 52q-12 133 -32.5 213.5t-59.5 148.5v4h444v-4q-45 -60 -59 -151t-6 -234l53 -743l324 690q132 294 49 438v4h278v-4q-69 -63 -122.5 -147t-114.5 -215l-539 -1141h-127
l-76 993l-456 -993h-127zM1294 1602l-467 172l109 196l373 -344z" />
    <glyph glyph-name="wgrave" unicode="&#x1e81;" horiz-adv-x="1236" 
d="M156 698q-5 110 -23 173t-59 110v4h325l15 -627l225 371q-4 93 -25.5 149.5t-64.5 102.5v4h334l8 -620l115 198q67 114 91.5 197t12 134.5t-56.5 86.5v4h260v-4l-594 -999h-66l-12 659l-399 -659h-64zM889 1102l-383 291l153 141l250 -414z" />
    <glyph glyph-name="Wacute" unicode="&#x1e82;" horiz-adv-x="1734" 
d="M373 -8l-103 1141q-12 134 -31 214t-55 148v4h441v-4q-87 -129 -66 -385l66 -741l323 712l-4 52q-12 133 -32.5 213.5t-59.5 148.5v4h444v-4q-45 -60 -59 -151t-6 -234l53 -743l324 690q132 294 49 438v4h278v-4q-69 -63 -122.5 -147t-114.5 -215l-539 -1141h-127
l-76 993l-456 -993h-127zM1298 1970l88 -194l-534 -174l-12 24z" />
    <glyph glyph-name="wacute" unicode="&#x1e83;" horiz-adv-x="1236" 
d="M156 698q-5 110 -23 173t-59 110v4h325l15 -627l225 371q-4 93 -25.5 149.5t-64.5 102.5v4h334l8 -620l115 198q67 114 91.5 197t12 134.5t-56.5 86.5v4h260v-4l-594 -999h-66l-12 659l-399 -659h-64zM930 1534l125 -162l-457 -256l-14 19z" />
    <glyph glyph-name="Wdieresis" unicode="&#x1e84;" horiz-adv-x="1734" 
d="M373 -8l-103 1141q-12 134 -31 214t-55 148v4h441v-4q-87 -129 -66 -385l66 -741l323 712l-4 52q-12 133 -32.5 213.5t-59.5 148.5v4h444v-4q-45 -60 -59 -151t-6 -234l53 -743l324 690q132 294 49 438v4h278v-4q-69 -63 -122.5 -147t-114.5 -215l-539 -1141h-127
l-76 993l-456 -993h-127zM1466 1778q0 -60 -43 -103t-104 -43q-60 0 -101.5 43t-41.5 103t41.5 102.5t101.5 42.5q61 0 104 -42.5t43 -102.5zM1055 1778q0 -60 -43 -103t-103 -43t-101.5 43t-41.5 103t41.5 102.5t101.5 42.5t103 -42.5t43 -102.5z" />
    <glyph glyph-name="wdieresis" unicode="&#x1e85;" horiz-adv-x="1236" 
d="M156 698q-5 110 -23 173t-59 110v4h325l15 -627l225 371q-4 93 -25.5 149.5t-64.5 102.5v4h334l8 -620l115 198q67 114 91.5 197t12 134.5t-56.5 86.5v4h260v-4l-594 -999h-66l-12 659l-399 -659h-64zM707 1341q0 -60 -44 -101.5t-104 -41.5t-101.5 41.5t-41.5 101.5
t41.5 103t101.5 43q59 0 103.5 -44.5t44.5 -101.5zM1098 1341q0 -60 -43 -101.5t-103 -41.5t-101.5 41.5t-41.5 101.5t41.5 103t101.5 43t103 -43t43 -103z" />
    <glyph glyph-name="Ygrave" unicode="&#x1ef2;" horiz-adv-x="1058" 
d="M231 4q58 102 85 173t51 192l63 342l-117 456q-30 113 -62.5 190t-78.5 138v4h475v-4q-45 -45 -57.5 -125.5t10.5 -179.5l100 -406l191 306q60 91 82.5 175.5t14.5 137t-32 92.5v4h310v-4q-83 -70 -147 -150t-146 -210l-268 -430l-60 -338q-24 -127 -22 -198.5t28 -164.5
l-2 -4h-418v4zM969 1602l-467 172l108 196l373 -344z" />
    <glyph glyph-name="ygrave" unicode="&#x1ef3;" horiz-adv-x="788" 
d="M-145 -215q272 -32 391 186l6 11l-90 731q-12 109 -33.5 164.5t-71.5 105.5v4h322l72 -643l118 215q98 175 107 273t-72 151v4h266v-4l-641 -1122q-50 -88 -104 -149.5t-109 -96.5t-105.5 -52t-109.5 -24zM666 1102l-383 291l153 141l250 -414z" />
    <glyph glyph-name="uni2009" unicode="&#x2009;" horiz-adv-x="157" 
 />
    <glyph glyph-name="endash" unicode="&#x2013;" horiz-adv-x="1024" 
d="M70 543l10 43h909l-10 -43h-909z" />
    <glyph glyph-name="emdash" unicode="&#x2014;" horiz-adv-x="1566" 
d="M70 543l10 43h1452l-10 -43h-1452z" />
    <glyph glyph-name="quoteleft" unicode="&#x2018;" horiz-adv-x="499" 
d="M596 1530q-73 -51 -117.5 -110.5t-44.5 -106.5q0 -62 76 -146v-4l-205 -141q-37 25 -60.5 66.5t-23.5 85.5q0 73 58.5 148.5t137.5 130t169 93.5z" />
    <glyph glyph-name="quoteright" unicode="&#x2019;" horiz-adv-x="499" 
d="M186 1038q73 51 117.5 110.5t44.5 106.5q0 62 -76 146v4l205 141q37 -25 60.5 -66t23.5 -85q0 -73 -58 -148.5t-137.5 -130.5t-168.5 -94z" />
    <glyph glyph-name="quotesinglbase" unicode="&#x201a;" horiz-adv-x="499" 
d="M-27 -184q73 51 117.5 110.5t44.5 106.5q0 61 -76 145v4l205 142q37 -25 60.5 -66.5t23.5 -85.5q0 -73 -58 -148.5t-137.5 -130.5t-168.5 -94z" />
    <glyph glyph-name="quotedblleft" unicode="&#x201c;" horiz-adv-x="845" 
d="M938 1530q-73 -51 -117.5 -110.5t-44.5 -106.5q0 -62 76 -146v-4l-205 -141q-37 25 -60.5 66.5t-23.5 85.5q0 73 58.5 148.5t137.5 130t169 93.5zM594 1530q-73 -51 -117.5 -110.5t-44.5 -106.5q0 -62 76 -146v-4l-205 -141q-37 25 -60.5 66.5t-23.5 85.5
q0 73 58.5 148.5t137.5 130t169 93.5z" />
    <glyph glyph-name="quotedblright" unicode="&#x201d;" horiz-adv-x="845" 
d="M186 1038q73 51 117.5 110.5t44.5 106.5q0 62 -76 146v4l205 141q37 -25 60.5 -66t23.5 -85q0 -73 -58 -148.5t-137.5 -130.5t-168.5 -94zM532 1038q73 51 117.5 110.5t44.5 106.5q0 62 -76 146v4l205 141q37 -25 60.5 -66t23.5 -85q0 -73 -58 -148.5t-137.5 -130.5
t-168.5 -94z" />
    <glyph glyph-name="quotedblbase" unicode="&#x201e;" horiz-adv-x="845" 
d="M-27 -184q73 51 117.5 110.5t44.5 106.5q0 61 -76 145v4l205 142q37 -25 60.5 -66.5t23.5 -85.5q0 -73 -58 -148.5t-137.5 -130.5t-168.5 -94zM319 -184q73 51 117.5 110.5t44.5 106.5q0 62 -75 145v4l204 142q37 -25 60.5 -66.5t23.5 -85.5q0 -73 -58 -148.5
t-137.5 -130.5t-168.5 -94z" />
    <glyph glyph-name="dagger" unicode="&#x2020;" horiz-adv-x="841" 
d="M291 0h-39l4 559l215 481l-375 -104l60 272l325 -114l-32 405h299l-213 -405l368 114l-57 -272l-326 106l2 -514z" />
    <glyph glyph-name="daggerdbl" unicode="&#x2021;" horiz-adv-x="841" 
d="M389 406l33 -406h-297l213 406l-371 -115l60 272l321 -104l-35 313l154 268l-371 -104l60 272l325 -114l-32 405h299l-213 -405l368 114l-57 -272l-322 104l35 -305l-156 -276l373 104l-59 -272z" />
    <glyph glyph-name="bullet" unicode="&#x2022;" horiz-adv-x="679" 
d="M360 385q-83 0 -140.5 59.5t-57.5 139.5q0 86 56.5 144t141.5 58q81 0 140 -58.5t59 -143.5q0 -78 -60 -138.5t-139 -60.5z" />
    <glyph glyph-name="ellipsis" unicode="&#x2026;" horiz-adv-x="1576" 
d="M205 -10q-63 0 -108.5 45t-45.5 108t45.5 108.5t108.5 45.5q62 0 107.5 -45.5t45.5 -108.5t-45.5 -108t-107.5 -45zM735 -10q-63 0 -108 45t-45 108t45 108.5t108 45.5q62 0 108 -45.5t46 -108.5t-46 -108t-108 -45zM1266 -10q-63 0 -108.5 45t-45.5 108t45.5 108.5
t108.5 45.5q62 0 107.5 -45.5t45.5 -108.5t-45.5 -108t-107.5 -45z" />
    <glyph glyph-name="perthousand" unicode="&#x2030;" horiz-adv-x="2146" 
d="M807 1223q0 -110 -37 -210.5t-97 -170t-136 -111t-152 -41.5q-105 0 -171.5 86t-66.5 221q0 110 37 210.5t97 170t136 111t152 41.5q104 0 171 -86t67 -221zM393 723q58 0 111 123.5t80.5 275.5t27.5 264q0 58 -11.5 84.5t-41.5 26.5q-56 0 -109 -124t-81.5 -277
t-28.5 -262q0 -111 53 -111zM190 33l1115 1489l41 -27l-1117 -1493zM1401 516q0 -110 -37 -210.5t-97 -170t-136 -110.5t-152 -41q-105 0 -171.5 86t-66.5 221q0 110 37 210.5t97 170t136 110.5t152 41q104 0 171 -86t67 -221zM987 16q58 0 111 123.5t80.5 276t27.5 264.5
q0 58 -11.5 84.5t-41.5 26.5q-56 0 -109 -124.5t-81.5 -277.5t-28.5 -262q0 -111 53 -111zM2118 516q0 -110 -37 -210.5t-97 -170t-136 -110.5t-152 -41q-105 0 -171.5 86t-66.5 221q0 110 37 210.5t97 170t136 110.5t152 41q104 0 171 -86t67 -221zM1704 16q58 0 111 123.5
t80.5 276t27.5 264.5q0 58 -11.5 84.5t-41.5 26.5q-56 0 -109 -124.5t-81.5 -277.5t-28.5 -262q0 -111 53 -111z" />
    <glyph glyph-name="guilsinglleft" unicode="&#x2039;" horiz-adv-x="546" 
d="M352 106l-248 359l11 41l399 358l12 -12l-250 -383l91 -354z" />
    <glyph glyph-name="guilsinglright" unicode="&#x203a;" horiz-adv-x="546" 
d="M203 864l248 -358l-11 -41l-399 -359l-12 13l250 383l-91 354z" />
    <glyph glyph-name="fraction" unicode="&#x2044;" horiz-adv-x="577" 
d="M-248 33l1114 1489l41 -27l-1116 -1493z" />
    <glyph glyph-name="Euro" unicode="&#x20ac;" horiz-adv-x="1353" 
d="M1159 94q-56 -40 -182 -82.5t-252 -42.5q-171 0 -295.5 82.5t-186 222.5t-61.5 320h-176l8 43h168q5 99 35 225h-156l11 45h159q89 275 303.5 449t491.5 174q89 0 176 -16.5t139 -36.5l21 -387l-21 -5q-115 228 -191.5 315t-180.5 87q-81 0 -154 -46.5t-129.5 -127.5
t-99.5 -183.5t-72 -222.5h385l-10 -45h-385q-22 -102 -35 -225h375l-10 -43h-367q-4 -78 -4 -109q0 -233 70 -353t196 -120q36 0 72 12t67.5 30t68.5 50.5t66 63t68.5 79t68.5 86t73 96.5q16 21 24 32l23 -6z" />
    <glyph glyph-name="trademark" unicode="&#x2122;" horiz-adv-x="1376" 
d="M172 825v4q26 48 39.5 84t24.5 95l86 460l-43 -2q-13 -2 -30 -13.5t-38 -34t-37 -41.5t-41 -49.5t-37 -45.5l-14 6l70 211h512l-7 -213l-14 -4q-27 73 -58.5 126.5t-56.5 57.5l-39 2l-86 -460q-11 -58 -11.5 -98t7.5 -81v-4h-227zM764 825h-148v4q42 56 58.5 89.5
t27.5 97.5l60 317q12 62 5 96.5t-36 65.5v4h207l59 -383l205 383h221v-4q-43 -36 -61.5 -68t-30.5 -92l-61 -327q-12 -63 -12.5 -99t10.5 -80v-4h-230v4q28 48 41.5 83.5t24.5 95.5l61 344l-268 -508h-16l-78 510l-64 -340q-11 -65 -6 -100.5t31 -84.5v-4z" />
    <glyph glyph-name="onethird" unicode="&#x2153;" horiz-adv-x="1363" 
d="M453 963q-16 -82 -16.5 -141.5t12.5 -112.5v-2h-291v2q35 61 51.5 110t38.5 144l78 378h-78l4 13q141 54 305 174h12zM121 33l1114 1489l41 -27l-1116 -1493zM915 -14q-109 0 -167 30l-15 224l10 2q56 -124 93.5 -175t83.5 -51q59 0 96 79.5t37 187.5q0 84 -23 118.5
t-67 34.5t-101 -47l-12 14l283 234h-299l84 162h442v-15l-381 -313q24 8 63 8q97 0 158.5 -53t61.5 -152q0 -123 -95.5 -205.5t-251.5 -82.5z" />
    <glyph glyph-name="twothirds" unicode="&#x2154;" horiz-adv-x="1458" 
d="M84 707l2 18q239 239 327.5 390t88.5 280q0 102 -51 102q-35 0 -80.5 -53t-124.5 -168l-13 4l54 213q95 37 182 37q115 0 176.5 -50t61.5 -134q0 -115 -114.5 -229.5t-336.5 -246.5h193q60 0 101 27t93 84l8 -2l-102 -272h-465zM215 33l1114 1489l41 -27l-1116 -1493z
M1010 -14q-110 0 -168 30l-15 224l11 2q56 -124 93 -175t83 -51q59 0 96 79.5t37 187.5q0 84 -23 118.5t-67 34.5t-101 -47l-12 14l283 234h-299l84 162h442v-15l-381 -313q24 8 64 8q97 0 158 -53t61 -152q0 -123 -95 -205.5t-251 -82.5z" />
    <glyph glyph-name="oneeighth" unicode="&#x215b;" horiz-adv-x="1361" 
d="M467 963q-16 -82 -16.5 -141.5t12.5 -112.5v-2h-291v2q35 61 51.5 110t38.5 144l78 378h-78l4 13q141 54 305 174h13zM121 33l1114 1489l41 -27l-1116 -1493zM940 -14q-116 0 -182 51.5t-66 138.5q0 74 49.5 129.5t153.5 73.5q-44 42 -68 85.5t-24 106.5q0 114 80 183
t200 69q105 0 162.5 -49t57.5 -127q0 -71 -47 -115.5t-134 -62.5q62 -50 94.5 -99.5t32.5 -123.5q0 -121 -88 -190.5t-221 -69.5zM946 16q61 0 97 37.5t36 98.5q0 56 -33.5 97.5t-95.5 86.5l-37 29q-96 -68 -96 -191q0 -70 33 -114t96 -44zM963 678q0 -57 35.5 -101.5
t103.5 -93.5q80 66 80 176q0 58 -28.5 95t-80.5 37q-49 0 -79.5 -30t-30.5 -83z" />
    <glyph glyph-name="threeeighths" unicode="&#x215c;" horiz-adv-x="1435" 
d="M317 692q-107 0 -167 31l-15 223l10 2q56 -123 93.5 -174t83.5 -51q59 0 96 79t37 187q0 84 -23 119t-67 35t-101 -47l-12 14l283 233h-299l83 162h443v-14l-381 -313q24 8 63 8q97 0 158.5 -53t61.5 -152q0 -123 -95.5 -206t-251.5 -83zM195 33l1114 1489l41 -27
l-1117 -1493zM1014 -14q-116 0 -182 51.5t-66 138.5q0 74 49.5 129.5t153.5 73.5q-44 42 -68 85.5t-24 106.5q0 114 80 183t200 69q105 0 162 -49t57 -127q0 -141 -180 -178q62 -50 94.5 -99.5t32.5 -123.5q0 -121 -88 -190.5t-221 -69.5zM1020 16q61 0 97 37.5t36 98.5
q0 56 -33.5 97.5t-95.5 86.5l-37 29q-96 -68 -96 -191q0 -70 33 -114t96 -44zM1036 678q0 -57 35.5 -101.5t104.5 -93.5q79 65 79 176q0 58 -28 95t-80 37q-49 0 -80 -30t-31 -83z" />
    <glyph glyph-name="fiveeighths" unicode="&#x215d;" horiz-adv-x="1402" 
d="M291 692q-101 0 -156 31l-14 223l10 2q56 -124 91.5 -174.5t76.5 -50.5q40 0 71 42t46.5 104.5t15.5 131.5q0 88 -27 126t-83 38q-50 0 -105 -32l-8 6l131 374h389l-57 -167h-359l-55 -162q55 24 133 24q50 0 92.5 -11.5t79 -35.5t57.5 -67.5t21 -102.5q0 -93 -53.5 -163
t-131.5 -103t-165 -33zM162 33l1114 1489l41 -27l-1116 -1493zM981 -14q-116 0 -182 51.5t-66 138.5q0 74 49.5 129.5t153.5 73.5q-44 42 -68 85.5t-24 106.5q0 114 80 183t200 69q105 0 162 -49t57 -127q0 -141 -180 -178q62 -50 94.5 -99.5t32.5 -123.5q0 -121 -88 -190.5
t-221 -69.5zM987 16q61 0 97 37.5t36 98.5q0 56 -33.5 97.5t-95.5 86.5l-37 29q-96 -68 -96 -191q0 -70 33 -114t96 -44zM1004 678q0 -57 35.5 -101.5t103.5 -93.5q80 66 80 176q0 58 -28.5 95t-80.5 37q-49 0 -79.5 -30t-30.5 -83z" />
    <glyph glyph-name="seveneighths" unicode="&#x215e;" horiz-adv-x="1376" 
d="M184 707q85 167 214.5 329.5t265.5 288.5h-402l70 184h473v-10q-270 -403 -397 -792h-224zM135 33l1114 1489l41 -27l-1116 -1493zM954 -14q-116 0 -181.5 51.5t-65.5 138.5q0 74 49 129.5t153 73.5q-44 42 -68 85.5t-24 106.5q0 114 80.5 183t200.5 69q105 0 162 -49
t57 -127q0 -141 -180 -178q62 -50 94.5 -99.5t32.5 -123.5q0 -120 -88.5 -190t-221.5 -70zM961 16q61 0 97 37.5t36 98.5q0 56 -33.5 97.5t-95.5 86.5l-37 29q-97 -69 -97 -191q0 -70 33.5 -114t96.5 -44zM977 678q0 -57 35.5 -101.5t103.5 -93.5q80 66 80 176
q0 58 -28.5 95t-80.5 37q-49 0 -79.5 -30t-30.5 -83z" />
    <glyph glyph-name="minus" unicode="&#x2212;" horiz-adv-x="1089" 
d="M129 606v49h905v-49h-905z" />
    <glyph glyph-name="uni24C5" unicode="&#x24c5;" horiz-adv-x="1703" 
d="M90 750q0 160 61.5 304t166 248t249 165t303.5 61t304 -61t250 -164.5t167 -248t62 -304.5q0 -161 -62 -305.5t-167 -249t-250 -165.5t-304 -61t-303.5 61t-249 165.5t-166 249t-61.5 305.5zM145 750q0 -150 57 -285.5t154 -234t231.5 -156.5t282.5 -58t282 58
t230.5 156.5t153.5 234t57 285.5q0 198 -96.5 366.5t-263 266.5t-363.5 98q-148 0 -282.5 -58t-231.5 -156t-154 -233t-57 -284zM596 319q27 57 36 99t9 117v387q0 71 -9 110t-36 103v4h311q326 0 326 -226q0 -118 -86 -190t-256 -72h-70v-116q0 -76 9 -120.5t36 -95.5v-6
h-270v6zM874 1104h-20q-19 0 -33 -2v-414h51q91 0 137 66.5t46 156.5q0 193 -181 193z" />
    <glyph glyph-name="f.alt" unicode="&#xe4c5;" horiz-adv-x="587" 
d="M8 4q32 68 56.5 149.5t58.5 229.5l119 559h-125l10 45h123l20 94q49 231 184 371.5t304 140.5q60 0 121 -16l10 -274l-19 -5q-90 173 -116 209q-33 47 -60 47q-81 0 -155 -348l-47 -219h178l-8 -45h-179l-131 -614q-24 -115 -28.5 -184.5t8.5 -139.5v-4h-324v4z" />
    <glyph glyph-name="k.alt" unicode="&#xe4ca;" horiz-adv-x="1005" 
d="M-8 0v4q23 49 43 111t31.5 105.5t39.5 162.5l164 772q27 100 21.5 186.5t-58.5 143.5v4l377 104l-268 -1265q-27 -123 -32.5 -184.5t9.5 -139.5v-4h-327zM711 -25q-63 0 -118.5 47.5t-107.5 167.5q-55 122 -100 322l293 264q31 30 51 54t33.5 50.5t10.5 52t-21 50.5v4
h307v-4q-92 -35 -163 -84t-167 -137l-135 -125q53 -218 104 -326q45 -100 81 -133t73 -33q49 0 72 37l6 -4q-36 -96 -91.5 -149.5t-127.5 -53.5z" />
    <glyph glyph-name="v.alt" unicode="&#xe4d5;" horiz-adv-x="868" 
d="M322 287q-20 -103 -8 -138.5t53 -35.5q85 0 188 151q75 115 129.5 271t54.5 266q0 70 -20 113t-66 69v4h250v-4q-35 -174 -119 -391.5t-198 -376.5q-176 -246 -369 -246q-48 0 -80.5 14.5t-55 51t-22 98t18.5 156.5l92 413q32 122 22.5 186t-75.5 95v4h364z" />
    <glyph glyph-name="w.alt" unicode="&#xe4d6;" horiz-adv-x="1357" 
d="M731 -31q-201 0 -131 320l2 12q-2 -6 -49 -84q-155 -248 -346 -248q-199 0 -129 320l92 413q32 122 22.5 186t-75.5 95v4h360l-162 -700q-40 -170 41 -170q70 0 148 112q122 169 190 476q30 120 21 184t-74 94v4h352l-162 -700q-17 -67 -12.5 -105.5t19 -52.5t41.5 -14
q88 0 180 145q80 119 126 271.5t46 269.5q0 71 -19 113.5t-65 68.5v4h250v-4q-30 -165 -105 -374t-180 -365q-181 -275 -381 -275z" />
    <glyph glyph-name="x.alt" unicode="&#xe4d7;" horiz-adv-x="929" 
d="M367 360q-83 -192 -186.5 -288.5t-246.5 -96.5l52 201q250 0 350 225l16 39l-69 310q-24 102 -55 153.5t-91 79.5v4h350l82 -366l13 30q86 194 181.5 276.5t233.5 82.5l-49 -201q-33 0 -55.5 -1t-53 -5.5t-53 -12t-49 -22.5t-47.5 -35.5t-42 -51.5t-38 -71l-26 -61
l69 -311q24 -101 56.5 -153t91.5 -81v-4h-348l-84 367z" />
    <glyph glyph-name="y.alt" unicode="&#xe4d8;" horiz-adv-x="831" 
d="M-150 -236q64 -15 190 11.5t228 97.5q-11 470 -100 850q-31 124 -58.5 178t-80.5 82l-2 4h344q39 -134 57 -250q43 -243 53 -583q215 385 215 647q0 70 -22.5 113t-75.5 69v4h250v-4q-74 -434 -350 -897q-46 -74 -87.5 -132.5t-108.5 -132t-137 -126t-166.5 -96
t-201.5 -60.5z" />
    <glyph glyph-name="z.alt" unicode="&#xe4d9;" horiz-adv-x="808" 
d="M-53 0v14l657 756l-332 -6q-81 -3 -170 -66l-10 4l152 285h610v-16l-653 -754l352 6q58 1 102 24t93 72l10 -4l-133 -315h-678z" />
    <glyph glyph-name="idotaccent" horiz-adv-x="493" 
d="M545 1346q0 -61 -44 -104.5t-106 -43.5q-61 0 -104 43t-43 105q0 60 43 103.5t104 43.5t105.5 -43.5t44.5 -103.5zM-8 4q16 24 29.5 52t22 49t19.5 62t15.5 60t17 76.5t17.5 79.5l47 223q49 230 -45 314v4l379 104l-134 -641q-32 -156 -39 -237t5 -146v-4h-334v4z" />
    <glyph glyph-name="space_uni0326" horiz-adv-x="614" 
d="M4 -492q61 40 97 90.5t36 88.5q0 55 -59 118v5l174 112q65 -52 65 -121q0 -59 -51 -121.5t-118.5 -107t-139.5 -74.5z" />
    <glyph glyph-name="five.num" horiz-adv-x="581" 
d="M272 692q-100 0 -155 31l-15 223l11 2q56 -124 91.5 -174.5t76.5 -50.5q40 0 71 42t46.5 104.5t15.5 131.5q0 88 -27.5 126t-83.5 38q-49 0 -104 -32l-9 6l132 374h389l-58 -167h-358l-55 -162q55 24 133 24q50 0 92.5 -11.5t79 -35.5t57.5 -67.5t21 -102.5
q0 -93 -53.5 -163t-132 -103t-165.5 -33z" />
    <glyph glyph-name="zero.num" horiz-adv-x="729" 
d="M803 1223q0 -110 -37 -210.5t-97 -170t-136 -111t-152 -41.5q-105 0 -171.5 86t-66.5 221q0 110 37 210.5t97 170t136 111t152 41.5q104 0 171 -86t67 -221zM389 723q58 0 111 123.5t80.5 275.5t27.5 264q0 58 -11.5 84.5t-41.5 26.5q-56 0 -109 -124t-81.5 -277
t-28.5 -262q0 -111 53 -111z" />
    <glyph glyph-name="one.num" horiz-adv-x="438" 
d="M403 963q-16 -82 -16.5 -141.5t12.5 -112.5v-2h-290v2q35 61 51.5 110t38.5 144l77 378h-77l4 13q141 54 305 174h12z" />
    <glyph glyph-name="two.num" horiz-adv-x="604" 
d="M66 707l2 18q164 164 257.5 290t125.5 210.5t32 169.5q0 102 -51 102q-35 0 -80.5 -53t-124.5 -168l-12 4l53 213q95 37 183 37q115 0 176 -50t61 -134q0 -115 -114 -229.5t-336 -246.5h192q60 0 102 27t93 84l8 -2l-103 -272h-464z" />
    <glyph glyph-name="three.num" horiz-adv-x="612" 
d="M299 692q-108 0 -168 31l-14 223l10 2q56 -124 93 -174.5t83 -50.5q59 0 96 79t37 187q0 84 -23 119t-67 35q-43 0 -100 -47l-13 14l283 233h-299l84 162h442v-14l-381 -313q24 8 64 8q97 0 158 -53t61 -152q0 -123 -95 -206t-251 -83z" />
    <glyph glyph-name="four.num" horiz-adv-x="641" 
d="M283 709q10 15 17.5 31.5t12.5 28.5t11.5 32.5t9.5 31t10 38.5l10 40h-264l2 13l412 589h258l-621 -567h219l41 193h220l-37 -193h80l-13 -35h-73q-12 -78 -11 -113.5t13 -88.5v-2h-297v2z" />
    <glyph glyph-name="six.num" horiz-adv-x="671" 
d="M373 690q-109 0 -170.5 71.5t-61.5 190.5q0 60 15 121.5t56 133t104 131t167.5 112t237.5 80.5l6 -21q-115 -34 -196 -127.5t-125 -214.5q57 76 143 76q81 0 130.5 -51t49.5 -145q0 -93 -51 -176t-133.5 -132t-171.5 -49zM385 723q39 0 73.5 66t52 146.5t17.5 141.5
q0 51 -15 70.5t-44 19.5q-26 0 -50 -16.5t-36 -44.5q-49 -144 -49 -285q0 -98 51 -98z" />
    <glyph glyph-name="seven.num" horiz-adv-x="563" 
d="M125 707q86 167 215 330t264 288h-401l69 184h473v-10q-270 -403 -397 -792h-223z" />
    <glyph glyph-name="eight.num" horiz-adv-x="647" 
d="M371 692q-116 0 -182 52t-66 139q0 74 49.5 129t153.5 73q-44 42 -68.5 86t-24.5 107q0 114 80.5 183t200.5 69q105 0 162 -49t57 -127q0 -141 -180 -178q40 -32 64.5 -59t43.5 -70.5t19 -94.5q0 -121 -88 -190.5t-221 -69.5zM377 723q61 0 97 37t36 98q0 56 -33.5 97.5
t-95.5 86.5l-37 29q-96 -68 -96 -190q0 -70 33 -114t96 -44zM393 1384q0 -57 35 -101t104 -93q80 66 80 176q0 58 -28 94.5t-80 36.5q-49 0 -80 -30t-31 -83z" />
    <glyph glyph-name="nine.num" horiz-adv-x="671" 
d="M166 711q207 62 319 338q-57 -72 -141 -72q-81 0 -130.5 51.5t-49.5 145.5q0 92 51 175t133.5 132t171.5 49q109 0 170.5 -71.5t61.5 -190.5q0 -60 -15 -121.5t-56 -133t-104 -131t-167.5 -112t-237.5 -80.5zM424 1053q50 0 84 57q51 153 51 289q0 98 -51 98
q-39 0 -73.5 -66t-52 -146.5t-17.5 -141.5q0 -51 15 -70.5t44 -19.5z" />
    <glyph glyph-name="five.den" horiz-adv-x="581" 
d="M145 -14q-101 0 -155 30l-15 224l11 2q57 -125 92 -175.5t76 -50.5q40 0 71 42t46.5 105t15.5 132q0 88 -27.5 126t-83.5 38q-47 0 -104 -33l-9 6l132 375h389l-58 -168h-358l-55 -162q57 25 133 25q50 0 92.5 -11.5t79 -35.5t57.5 -67.5t21 -102.5q0 -93 -53.5 -163
t-132 -103t-165.5 -33z" />
    <glyph glyph-name="zero.den" horiz-adv-x="729" 
d="M676 516q0 -110 -37 -210.5t-97 -170t-136 -110.5t-152 -41q-105 0 -171.5 86t-66.5 221q0 110 37 210.5t97 170t136 110.5t152 41q104 0 171 -86t67 -221zM262 16q58 0 111 123.5t80.5 276t27.5 264.5q0 58 -11.5 84.5t-41.5 26.5q-56 0 -109 -124.5t-81.5 -277.5
t-28.5 -262q0 -111 53 -111z" />
    <glyph glyph-name="one.den" horiz-adv-x="438" 
d="M276 256q-16 -82 -16.5 -141.5t12.5 -112.5v-2h-290v2q35 61 51.5 110t38.5 144l78 379h-78l4 12q141 54 305 174h12z" />
    <glyph glyph-name="two.den" horiz-adv-x="604" 
d="M-61 0l2 18q164 164 257.5 290t125.5 210.5t32 169.5q0 103 -51 103q-35 0 -80.5 -53t-124.5 -169l-12 4l53 213q95 37 183 37q115 0 176 -50t61 -134q0 -115 -114 -229t-336 -246h192q60 0 102 27t93 83l8 -2l-103 -272h-464z" />
    <glyph glyph-name="three.den" horiz-adv-x="612" 
d="M172 -14q-110 0 -168 30l-14 224l10 2q56 -124 93 -175t83 -51q59 0 96 79.5t37 187.5q0 84 -23 118.5t-67 34.5q-43 0 -100 -47l-13 14l283 234h-299l84 162h442v-15l-380 -313q24 8 63 8q97 0 158 -53t61 -152q0 -123 -95 -205.5t-251 -82.5z" />
    <glyph glyph-name="four.den" horiz-adv-x="641" 
d="M156 2q10 15 17.5 31.5t13 29t11.5 32.5t9 31t10 38.5t10 40.5h-264l2 12l412 590h258l-621 -567h219l41 192h220l-37 -192h80l-13 -35h-73q-12 -78 -11 -114t13 -89v-2h-297v2z" />
    <glyph glyph-name="six.den" horiz-adv-x="671" 
d="M246 -16q-109 0 -170.5 71.5t-61.5 190.5q0 60 15 121.5t56 132.5t104 131t167.5 112t237.5 80l6 -20q-115 -34 -196 -127.5t-125 -214.5q57 76 143 76q81 0 130.5 -51.5t49.5 -145.5q0 -92 -51 -175t-133.5 -132t-171.5 -49zM258 16q39 0 73.5 66t52 147t17.5 142
q0 51 -15 70.5t-44 19.5q-26 0 -50 -17t-36 -45q-49 -144 -49 -284q0 -99 51 -99z" />
    <glyph glyph-name="seven.den" horiz-adv-x="563" 
d="M-2 0q86 167 215 330t264 288h-401l69 185h473v-10q-270 -402 -397 -793h-223z" />
    <glyph glyph-name="eight.den" horiz-adv-x="647" 
d="M244 -14q-116 0 -182 51.5t-66 138.5q0 74 49.5 129.5t153.5 73.5q-44 43 -68.5 86t-24.5 106q0 114 80.5 183t200.5 69q105 0 162 -49t57 -127q0 -141 -180 -178q62 -50 94.5 -99.5t32.5 -123.5q0 -121 -88 -190.5t-221 -69.5zM250 16q61 0 97 37.5t36 98.5
q0 56 -33.5 97.5t-95.5 86.5l-37 29q-96 -68 -96 -191q0 -70 33 -114t96 -44zM266 678q0 -57 35.5 -101.5t104.5 -93.5q79 65 79 176q0 58 -28 95t-80 37q-49 0 -80 -30t-31 -83z" />
    <glyph glyph-name="nine.den" horiz-adv-x="671" 
d="M39 4q207 62 319 338q-57 -72 -141 -72q-81 0 -130.5 51.5t-49.5 145.5q0 92 51 175t133.5 132t171.5 49q109 0 170.5 -71.5t61.5 -190.5q0 -60 -15 -121.5t-56 -132.5t-104 -131t-167.5 -112t-237.5 -80zM297 346q50 0 84 57q51 153 51 289q0 99 -51 99q-39 0 -73.5 -66
t-52 -147t-17.5 -142q0 -51 15 -70.5t44 -19.5z" />
    <glyph glyph-name="five.sub" horiz-adv-x="581" 
d="M111 -178q-101 0 -156 31l-14 223l10 2q56 -124 91.5 -174.5t76.5 -50.5q40 0 71 42t46.5 104.5t15.5 131.5q0 88 -27.5 126t-83.5 38q-47 0 -104 -33l-8 6l131 375h389l-57 -168h-359l-55 -162q57 25 133 25q50 0 92.5 -11.5t79 -35.5t57.5 -67.5t21 -102.5
q0 -93 -53.5 -163t-131.5 -103t-165 -33z" />
    <glyph glyph-name="zero.sub" horiz-adv-x="729" 
d="M641 352q0 -110 -37 -210.5t-97 -170t-136 -110.5t-152 -41q-105 0 -171 86t-66 221q0 110 37 210.5t96.5 170t135.5 110.5t152 41q104 0 171 -86t67 -221zM227 -147q58 0 111 123.5t80.5 275.5t27.5 264q0 58 -11.5 84.5t-41.5 26.5q-56 0 -109 -124.5t-81.5 -277.5
t-28.5 -262q0 -110 53 -110z" />
    <glyph glyph-name="one.sub" horiz-adv-x="438" 
d="M242 92q-16 -82 -16.5 -141.5t12.5 -112.5v-2h-291v2q35 61 51.5 110t38.5 144l78 379h-78l4 12q141 54 305 174h12z" />
    <glyph glyph-name="two.sub" horiz-adv-x="604" 
d="M-96 -164l2 19q239 239 327.5 389.5t88.5 279.5q0 103 -52 103q-35 0 -79.5 -52t-124.5 -169l-13 4l53 213q92 36 183 36q115 0 176 -50t61 -134q0 -115 -114 -229t-336 -246h192q60 0 102 27t93 84l8 -2l-102 -273h-465z" />
    <glyph glyph-name="three.sub" horiz-adv-x="612" 
d="M137 -178q-108 0 -168 31l-14 223l10 2q56 -124 93 -174.5t83 -50.5q59 0 96 79t37 187q0 84 -23 118.5t-67 34.5q-43 0 -100 -47l-12 15l282 233h-299l84 162h443v-14l-381 -314q24 8 63 8q97 0 158 -52.5t61 -151.5q0 -123 -95 -206t-251 -83z" />
    <glyph glyph-name="four.sub" horiz-adv-x="641" 
d="M121 -162q10 15 18 32t12.5 27.5t11.5 34t9 30.5t10.5 39t10.5 40h-265l2 12l412 590h258l-620 -567h219l41 192h219l-37 -192h80l-13 -35h-73q-12 -78 -11 -114t13 -89v-2h-297v2z" />
    <glyph glyph-name="six.sub" horiz-adv-x="671" 
d="M211 -180q-109 0 -170 71.5t-61 190.5q0 60 15 121.5t56 132.5t103.5 131t167 112t237.5 80l6 -20q-115 -34 -196 -127.5t-125 -214.5q57 76 143 76q81 0 130.5 -51.5t49.5 -145.5q0 -92 -51 -175t-133.5 -132t-171.5 -49zM223 -147q30 0 58 39t46 95.5t29 116t11 103.5
q0 51 -15.5 70.5t-44.5 19.5q-26 0 -50 -16.5t-36 -44.5q-49 -144 -49 -285q0 -98 51 -98z" />
    <glyph glyph-name="seven.sub" horiz-adv-x="563" 
d="M-37 -164q86 167 215 330.5t264 288.5h-401l70 184h473v-10q-272 -405 -398 -793h-223z" />
    <glyph glyph-name="eight.sub" horiz-adv-x="647" 
d="M209 -178q-116 0 -182 51.5t-66 138.5q0 74 49.5 129.5t153.5 73.5q-44 42 -68 86t-24 107q0 114 80 182.5t200 68.5q105 0 162 -49t57 -127q0 -141 -180 -178q62 -50 94.5 -99.5t32.5 -123.5q0 -121 -88 -190.5t-221 -69.5zM215 -147q61 0 97 37t36 98q0 56 -33.5 97.5
t-95.5 86.5l-37 29q-96 -68 -96 -191q0 -70 33 -113.5t96 -43.5zM231 514q0 -57 35.5 -101.5t104.5 -93.5q40 33 60 81t20 96q0 58 -28.5 94.5t-80.5 36.5q-49 0 -80 -30t-31 -83z" />
    <glyph glyph-name="nine.sub" horiz-adv-x="671" 
d="M358 639q109 0 170.5 -70.5t61.5 -189.5q0 -60 -15 -121.5t-56 -133t-104 -131t-167.5 -112t-237.5 -80.5l-6 21q115 34 196.5 127.5t125.5 214.5q-57 -76 -144 -76q-81 0 -130.5 51.5t-49.5 145.5q0 142 109.5 248t246.5 106zM346 608q-39 0 -73.5 -66t-52 -146.5
t-17.5 -141.5q0 -51 15 -70.5t44 -19.5q26 0 50 16.5t36 44.5q49 144 49 285q0 98 -51 98z" />
    <glyph glyph-name="plus.sub" horiz-adv-x="645" 
d="M303 217v-252h-41v252h-250v37h250v252h41v-252h252v-37h-252z" />
    <glyph glyph-name="minus.sub" horiz-adv-x="645" 
d="M12 217v37h543v-37h-543z" />
    <glyph glyph-name="five.sup" horiz-adv-x="581" 
d="M303 874q-101 0 -156 31l-14 223l10 2q56 -124 91.5 -174.5t76.5 -50.5q40 0 71 42t46.5 105t15.5 132q0 88 -27 126t-83 38q-48 0 -105 -33l-8 6l131 375h389l-57 -168h-358l-56 -162q57 25 133 25q50 0 92.5 -11.5t79 -35.5t57.5 -67.5t21 -102.5q0 -70 -31 -128.5
t-81.5 -95t-112 -56.5t-125.5 -20z" />
    <glyph glyph-name="zero.sup" horiz-adv-x="729" 
d="M834 1405q0 -110 -37 -210.5t-97 -170t-136 -111t-152 -41.5q-105 0 -171.5 86.5t-66.5 221.5q0 110 37 210.5t97 170t136 110.5t152 41q104 0 171 -86t67 -221zM420 905q58 0 111 123.5t80.5 276t27.5 264.5q0 58 -11.5 84t-41.5 26q-56 0 -109 -124t-81.5 -277
t-28.5 -262q0 -111 53 -111z" />
    <glyph glyph-name="one.sup" horiz-adv-x="438" 
d="M434 1145q-16 -82 -16.5 -141.5t12.5 -112.5v-2h-291v2q35 61 51.5 110t38.5 144l78 379h-78l4 12q143 55 306 174h12z" />
    <glyph glyph-name="two.sup" horiz-adv-x="604" 
d="M96 889l2 18q239 239 327.5 390t88.5 280q0 102 -51 102q-35 0 -80.5 -53t-124.5 -168l-12 4l53 213q95 37 182 37q115 0 176.5 -50t61.5 -134q0 -115 -114 -229t-337 -246h193q60 0 101.5 27t92.5 83l9 -2l-103 -272h-465z" />
    <glyph glyph-name="three.sup" horiz-adv-x="612" 
d="M330 874q-108 0 -168 31l-15 223l11 2q56 -124 93 -174.5t83 -50.5q59 0 96 79t37 187q0 84 -23 119t-67 35t-101 -47l-12 14l283 234h-299l84 162h442v-15l-381 -313q24 8 64 8q97 0 158 -53t61 -152q0 -123 -95 -206t-251 -83z" />
    <glyph glyph-name="four.sup" horiz-adv-x="641" 
d="M313 891q10 15 18 32t12.5 27.5t11.5 34t9 30.5t10.5 39t10.5 40h-264l2 12l412 590h258l-621 -568h219l41 193h219l-37 -193h80l-12 -34h-74q-12 -78 -11 -114t13 -89v-2h-297v2z" />
    <glyph glyph-name="six.sup" horiz-adv-x="671" 
d="M403 872q-108 0 -169.5 72t-61.5 191q0 60 15 121.5t56 132.5t104 131t167.5 112t237.5 80l6 -20q-115 -34 -196.5 -127.5t-125.5 -214.5q57 75 144 75q81 0 130.5 -51t49.5 -145q0 -92 -51.5 -175.5t-134 -132.5t-171.5 -49zM416 905q39 0 73.5 66t52 147t17.5 142
q0 51 -15 70.5t-44 19.5q-26 0 -50 -17t-36 -45q-49 -144 -49 -284q0 -99 51 -99z" />
    <glyph glyph-name="seven.sup" horiz-adv-x="563" 
d="M156 889q86 167 215 330t264 288h-402l70 185h473v-11q-270 -403 -397 -792h-223z" />
    <glyph glyph-name="eight.sup" horiz-adv-x="647" 
d="M401 874q-116 0 -181.5 52t-65.5 139q0 74 49 129.5t153 73.5q-44 42 -68 85.5t-24 106.5q0 114 80.5 183t200.5 69q105 0 162 -49t57 -127q0 -141 -180 -178q62 -50 94.5 -99.5t32.5 -123.5q0 -121 -89 -191t-221 -70zM408 905q61 0 97 37t36 98q0 56 -33.5 98.5
t-95.5 86.5l-37 28q-96 -68 -96 -190q0 -70 33 -114t96 -44zM424 1567q0 -57 35.5 -101.5t103.5 -93.5q80 66 80 176q0 58 -28 94.5t-80 36.5q-49 0 -80 -29.5t-31 -82.5z" />
    <glyph glyph-name="nine.sup" horiz-adv-x="671" 
d="M197 893q207 62 319 338q-57 -72 -141 -72q-81 0 -130.5 51.5t-49.5 145.5q0 92 51 175t133.5 132t171.5 49q109 0 170 -71.5t61 -190.5q0 -60 -15 -121.5t-56 -133t-103.5 -131t-167 -112t-237.5 -80.5zM455 1235q50 0 84 57q51 153 51 289q0 98 -51 98q-30 0 -58 -39
t-46 -95.5t-29 -116t-11 -103.5q0 -51 15.5 -70.5t44.5 -19.5z" />
    <glyph glyph-name="plus.sup" horiz-adv-x="645" 
d="M494 1262v-252h-41v252h-250v36h250v252h41v-252h251v-36h-251z" />
    <glyph glyph-name="minus.sup" horiz-adv-x="645" 
d="M203 1262v36h542v-36h-542z" />
    <glyph glyph-name="space_uni0326.alt" horiz-adv-x="614" 
d="M657 1595q-61 -40 -97 -90t-36 -88q0 -55 60 -119v-4l-174 -112q-66 52 -66 121q0 59 51 121.5t118.5 107t139.5 74.5z" />
    <glyph glyph-name="caron.alt" 
d="M449 1587h213l-283 -416l-23 5z" />
    <glyph glyph-name="space.uc" horiz-adv-x="391" 
 />
    <glyph glyph-name="questiondown.uc" horiz-adv-x="894" 
d="M729 1008q-21 -87 -55.5 -162.5t-71.5 -127.5t-77.5 -100t-76 -90.5t-64 -88t-45.5 -104.5t-17 -128q0 -97 29 -148t83 -51q30 0 59.5 15.5t68.5 55.5t76 83.5t101 123.5q10 13 15 19l12 -4l-94 -281q-146 -51 -281 -51q-163 0 -256.5 74.5t-93.5 218.5q0 72 28 132.5
t75 106t105.5 86.5t123.5 84t124.5 88.5t113.5 110t85 138.5h33zM733 1509q65 0 110.5 -45.5t45.5 -109.5q0 -66 -45 -112t-111 -46t-110.5 46t-44.5 112q0 64 45 109.5t110 45.5z" />
    <glyph glyph-name="exclamdown.uc" horiz-adv-x="501" 
d="M16 4l338 1004h35l-88 -1004l-2 -4h-285zM410 1509q65 0 110 -45.5t45 -109.5q0 -66 -44.5 -112t-110.5 -46t-111 46t-45 112q0 64 45.5 109.5t110.5 45.5z" />
    <glyph glyph-name="hyphen.uc" horiz-adv-x="542" 
d="M102 698l27 119h412l-25 -119h-414z" />
    <glyph glyph-name="endash.uc" horiz-adv-x="1024" 
d="M96 733l10 43h910l-10 -43h-910z" />
    <glyph glyph-name="emdash.uc" horiz-adv-x="1566" 
d="M96 733l10 43h1453l-11 -43h-1452z" />
    <glyph glyph-name="guilsinglleft.uc" horiz-adv-x="557" 
d="M383 229l-248 359l10 41l400 358l12 -12l-250 -383l90 -354z" />
    <glyph glyph-name="guilsinglright.uc" horiz-adv-x="557" 
d="M219 987l248 -358l-10 -41l-400 -359l-12 13l250 383l-90 354z" />
    <glyph glyph-name="guillemotleft.uc" horiz-adv-x="876" 
d="M702 229l-247 359l10 41l399 358l13 -12l-250 -383l90 -354zM383 229l-248 359l10 41l400 358l12 -12l-250 -383l90 -354z" />
    <glyph glyph-name="guillemotright.uc" horiz-adv-x="876" 
d="M539 987l247 -358l-10 -41l-399 -359l-12 13l249 383l-90 354zM219 987l248 -358l-10 -41l-400 -359l-12 13l250 383l-90 354z" />
    <glyph glyph-name="parenleft.uc" horiz-adv-x="716" 
d="M479 -184q-309 253 -309 708q0 358 182.5 637.5t507.5 466.5l21 -14q-218 -205 -352 -545t-134 -717q0 -313 109 -526z" />
    <glyph glyph-name="parenright.uc" horiz-adv-x="716" 
d="M324 1626q309 -253 309 -706q0 -358 -182.5 -637.5t-507.5 -466.5l-21 14q218 205 352 545t134 717q0 311 -109 524z" />
    <glyph glyph-name="bracketleft.uc" horiz-adv-x="761" 
d="M426 1628h528l-8 -45h-295l-366 -1722h295l-11 -45h-528z" />
    <glyph glyph-name="bracketright.uc" horiz-adv-x="761" 
d="M418 -184h-529l9 45h295l366 1720h-295l10 45h529z" />
    <glyph glyph-name="braceleft.uc" horiz-adv-x="741" 
d="M506 -184q-389 0 -389 235q0 60 25 119t60.5 106t70.5 92.5t60 96t25 98.5q0 135 -194 135h-47l10 47h47q223 0 260 170q11 50 1.5 109t-27 105.5t-27 108t1.5 116.5q26 135 156 204.5t352 69.5h37l-8 -45h-35q-227 0 -260 -207q-11 -75 -3 -209t-10 -190
q-31 -132 -122 -189.5t-246 -62.5l-2 -6q266 -3 266 -209q0 -62 -25.5 -134t-56.5 -127t-56.5 -123t-25.5 -124q0 -79 45 -110t131 -31h33l-10 -45h-37z" />
    <glyph glyph-name="braceright.uc" horiz-adv-x="741" 
d="M319 1626q390 0 390 -235q0 -59 -25 -117t-60.5 -105.5t-71 -93t-60.5 -96t-25 -98.5q0 -136 195 -136h47l-11 -47h-47q-223 0 -260 -170q-11 -50 -1.5 -108.5t27 -105t27 -108t-1.5 -116.5q-26 -135 -156 -204.5t-352 -69.5h-36l8 45h35q227 0 260 207q11 75 2.5 209
t9.5 190q31 132 122.5 189.5t246.5 62.5l2 6q-267 3 -267 209q0 62 25.5 134t56.5 126.5t56.5 122.5t25.5 123q0 79 -45 110t-131 31h-33l11 45h36z" />
    <glyph glyph-name="slash.uc" horiz-adv-x="765" 
d="M983 1681h61l-1169 -1865h-61z" />
    <glyph glyph-name="backslash.uc" horiz-adv-x="763" 
d="M164 1681l590 -1865h-58l-587 1865h55z" />
    <glyph glyph-name="bar.uc" horiz-adv-x="419" 
d="M236 -182v1865h55v-1865h-55z" />
    <glyph glyph-name="at.uc" horiz-adv-x="1808" 
d="M936 -115q-175 0 -327 51.5t-264 146.5t-176.5 239.5t-64.5 320.5q0 186 73.5 355.5t200.5 295t308 199.5t385 74q220 0 385 -79t255.5 -228.5t90.5 -352.5q0 -170 -63.5 -310t-177.5 -222t-256 -82q-124 0 -189 62t-78 159q-6 62 2 111q-30 -72 -61 -127
q-50 -100 -117.5 -158.5t-146.5 -58.5q-86 0 -135.5 69t-49.5 195q0 87 24 177.5t73.5 174.5t117 150t162.5 105.5t203 39.5q93 0 178 -29l103 29h12l-135 -520q-19 -73 -26 -129.5t0.5 -103t37 -71t80.5 -24.5q92 0 169.5 80.5t121 212.5t43.5 281q0 289 -170.5 448.5
t-458.5 159.5q-151 0 -283 -48t-229.5 -132t-167.5 -195.5t-105.5 -242.5t-35.5 -269q0 -221 88.5 -383t246 -246t365.5 -84q274 0 457 127l18 -33q-193 -135 -483 -135zM829 449q34 0 68 30.5t65.5 86.5t57 114.5t53.5 134.5l2 -2l78 295q-19 45 -72 45q-85 0 -159.5 -95
t-114 -224.5t-39.5 -247.5q0 -137 61 -137z" />
    <glyph glyph-name="grave.uc" 
d="M780 1602l-467 172l109 196l373 -344z" />
    <glyph glyph-name="dieresis.uc" 
d="M940 1778q0 -60 -43 -103t-104 -43q-60 0 -102 43t-42 103t42 102.5t102 42.5q61 0 104 -42.5t43 -102.5zM528 1778q0 -60 -42.5 -103t-102.5 -43t-101.5 43t-41.5 103t41.5 102.5t101.5 42.5t102.5 -42.5t42.5 -102.5z" />
    <glyph glyph-name="macron.uc" 
d="M281 1819h616l-25 -117h-616z" />
    <glyph glyph-name="acute.uc" 
d="M807 1970l88 -194l-535 -174l-12 24z" />
    <glyph glyph-name="circumflex.uc" 
d="M602 1739l-326 -137l-12 20l361 324h14l233 -324l-20 -20z" />
    <glyph glyph-name="caron.uc" 
d="M557 1602l-233 323l20 21l250 -138l326 138l12 -21l-361 -323h-14z" />
    <glyph glyph-name="breve.uc" 
d="M580 1792q198 0 262 145h20q-5 -35 -17 -71.5t-36 -78.5t-56.5 -73.5t-83.5 -52.5t-112 -21q-72 0 -125 31t-78 79t-35 96t-6 91h21q49 -145 246 -145z" />
    <glyph glyph-name="dotaccent.uc" 
d="M725 1776q0 -61 -44 -104.5t-106 -43.5q-60 0 -102.5 43.5t-42.5 104.5q0 60 42.5 104.5t102.5 44.5q61 0 105.5 -44.5t44.5 -104.5z" />
    <glyph glyph-name="ring.uc" horiz-adv-x="614" 
d="M334 1776q0 78 53 129t133 51t134.5 -50.5t54.5 -129.5q0 -77 -55 -127t-134 -50t-132.5 50t-53.5 127zM420 1776q0 -66 26.5 -102t73.5 -36q48 0 75.5 36.5t27.5 101.5q0 66 -28 103.5t-75 37.5t-73.5 -37.5t-26.5 -103.5z" />
    <glyph glyph-name="tilde.uc" 
d="M449 1864q60 0 151.5 -40t153.5 -40q55 0 90.5 23.5t64.5 82.5l23 -4q-7 -51 -21.5 -95t-41 -85.5t-70.5 -65.5t-101 -24q-59 0 -151.5 40t-153.5 40q-56 0 -93 -24.5t-62 -84.5l-23 4q7 52 21 95.5t40 86t70.5 67t102.5 24.5z" />
    <glyph glyph-name="hungarumlaut.uc" 
d="M866 1956l113 -156l-371 -198l-14 20zM508 1956l110 -156l-368 -198l-17 20z" />
    <glyph glyph-name="Cacute.pl" horiz-adv-x="1277" 
d="M1083 94q-56 -39 -185 -82t-259 -43q-135 0 -242 48t-174.5 133t-103 198t-35.5 246q0 188 66 360t179 299t273.5 202t339.5 75q92 0 183.5 -16.5t140.5 -36.5l16 -381l-22 -4q-108 222 -187.5 308.5t-183.5 86.5q-114 0 -214 -94t-165.5 -241.5t-103 -325t-37.5 -349.5
q0 -229 71 -347t203 -118q61 0 116.5 24.5t122.5 93t104 113t124 158.5q30 38 45 58l23 -8zM1010 1972l153 -121l-317 -249l-17 14z" />
    <glyph glyph-name="Nacute.pl" horiz-adv-x="1245" 
d="M340 1243l-147 -819q-24 -145 -13.5 -230t64.5 -190v-4h-283v4q59 72 92 135.5t47 115.5t37 169l135 717l-2 -6q23 131 13.5 210.5t-68.5 149.5v4h311l480 -1040l112 616q24 148 14.5 229.5t-59.5 190.5v4h289v-4q-88 -113 -123.5 -192t-64.5 -228l-203 -1075l-53 -6z
M967 1972l153 -121l-317 -249l-17 14z" />
    <glyph glyph-name="Oacute.pl" horiz-adv-x="1396" 
d="M1409 911q0 -179 -67.5 -352.5t-178 -302.5t-259.5 -208t-304 -79q-156 0 -274.5 82.5t-180 223t-61.5 315.5q0 178 67.5 351t177.5 301.5t259.5 208t304.5 79.5t273.5 -82.5t180.5 -222.5t62 -314zM367 418q0 -194 59.5 -300t181.5 -106q91 0 175 70t145 184
t106.5 254.5t68.5 286t23 274.5q0 194 -60.5 300t-182.5 106q-91 0 -174 -70t-144 -184t-106.5 -254.5t-68.5 -286t-23 -274.5zM1018 1972l153 -121l-317 -249l-16 14z" />
    <glyph glyph-name="Sacute.pl" horiz-adv-x="972" 
d="M977 1096l-21 -4q-89 221 -153 306t-152 85q-92 0 -151.5 -67t-59.5 -173q0 -24 4 -47.5t8.5 -42.5t17 -42t19.5 -37.5t26 -37.5t27.5 -34t32.5 -35t32 -32.5t36 -35t35 -33.5q50 -47 84.5 -87.5t68 -95.5t51 -120.5t17.5 -140.5q0 -112 -40 -200.5t-109 -142.5
t-157.5 -82t-191.5 -28q-94 0 -187 21t-148 49l-11 422l21 2q87 -235 171.5 -342t192.5 -107q104 0 163 79t59 194q0 83 -36 150.5t-102 133.5l-80 80q-48 48 -70 71.5t-58.5 70.5t-53.5 84t-31 92.5t-14 115.5q3 140 69 242.5t172 152.5t236 50q155 0 283 -55v-379z
M770 1972l154 -121l-318 -249l-16 14z" />
    <glyph glyph-name="Zacute.pl" horiz-adv-x="1107" 
d="M-49 0v20l958 1444l-178 -8q-242 -11 -508 -364l-20 6l147 401h879v-20l-955 -1444l228 8q62 3 126 32t116.5 70t108.5 102t95 111.5t84 114.5l19 -6l-164 -467h-936zM879 1972l153 -121l-317 -249l-17 14z" />
    <glyph glyph-name="acute.pl" horiz-adv-x="614" 
d="M444 1534l174 -92l-288 -332l-19 10z" />
    <glyph glyph-name="acute.ucpl" horiz-adv-x="614" 
d="M596 1972l154 -121l-318 -249l-16 14z" />
    <glyph glyph-name="cacute.pl" horiz-adv-x="831" 
d="M743 324q-49 -165 -150 -260t-245 -95q-151 0 -234 103t-83 282q0 128 44.5 248.5t120.5 212.5t185.5 147.5t232.5 55.5q115 0 193 -27v-299l-19 -4q-89 177 -122 223q-51 69 -107 70q-44 0 -93 -40.5t-90.5 -108t-69 -166t-27.5 -203.5q0 -152 57 -229.5t158 -77.5
q151 0 235 172zM606 1534l174 -92l-288 -332l-19 10z" />
    <glyph glyph-name="divide.osf" horiz-adv-x="1110" 
d="M102 473v49h906v-49h-906zM555 6q-63 0 -108.5 45.5t-45.5 108.5t45.5 108t108.5 45q62 0 108 -45t46 -108t-46 -108.5t-108 -45.5zM555 672q-63 0 -108.5 45t-45.5 108t45.5 108.5t108.5 45.5q62 0 108 -45.5t46 -108.5t-46 -108t-108 -45z" />
    <glyph glyph-name="eight.osf" horiz-adv-x="899" 
d="M397 -20q-161 0 -267.5 91t-106.5 251q0 143 92.5 251t265.5 168q-88 93 -136 181.5t-48 203.5q0 122 59.5 215.5t154 141t205.5 47.5q143 0 234.5 -78.5t91.5 -212.5q0 -116 -75 -217.5t-240 -163.5q51 -51 83.5 -89t69 -94.5t54.5 -121.5t18 -139q0 -81 -25.5 -152
t-69 -122t-101.5 -87.5t-124 -54.5t-135 -18zM401 1241q0 -58 16 -110t50 -99t64.5 -80t80.5 -80q96 76 138.5 176t42.5 203q0 116 -48.5 176t-136.5 60q-97 0 -152 -67.5t-55 -178.5zM408 23q108 0 169.5 73t61.5 197q0 37 -6.5 72t-15 62.5t-26 58.5t-31 52t-38.5 50.5
t-40 46t-44 47t-43 45.5q-111 -75 -166 -186t-55 -236q0 -134 62 -208t172 -74z" />
    <glyph glyph-name="equal.osf" horiz-adv-x="1089" 
d="M92 639v47h905v-47h-905zM92 350v47h905v-47h-905z" />
    <glyph glyph-name="f.short" horiz-adv-x="606" 
d="M262 942h-125l10 45h123l9 37q58 272 162.5 420.5t244.5 148.5q51 0 105 -16l6 -260l-19 -4q-60 142 -85 190.5t-42 48.5q-19 0 -30 -34.5t-36 -157.5q-7 -34 -11 -54.5t-12 -57t-15 -70.5l-39 -191h182l-10 -45h-182l-262 -1280h-244z" />
    <glyph glyph-name="f_f.short" horiz-adv-x="1138" 
d="M260 942h-121l11 45h120l11 53q44 230 166.5 371t279.5 141q54 0 115 -16l4 -223l-19 -4q-10 17 -23 40.5t-21 37.5t-18.5 32t-17 28.5t-15 22.5t-14 19t-12.5 13t-12.5 8.5t-11.5 2.5q-26 0 -60 -87.5t-71 -260.5l-37 -178h277l8 37q58 272 162.5 420.5t244.5 148.5
q51 0 105 -16l6 -260l-19 -4q-60 142 -85 190.5t-42 48.5q-19 0 -30 -34.5t-36 -157.5q-22 -108 -38 -182l-39 -191h182l-10 -45h-182l-264 -1280h-244l272 1280h-278l-271 -1280h-243z" />
    <glyph glyph-name="five.osf" horiz-adv-x="831" 
d="M135 -502q-74 0 -151.5 17.5t-128.5 50.5l-21 305l19 2q87 -175 154.5 -253.5t152.5 -78.5q105 0 181.5 110t76.5 273q0 181 -97 305.5t-255 176.5l247 612h553l-92 -223h-506l-73 -185q91 -30 166.5 -80t134.5 -120t92 -165.5t33 -207.5q0 -235 -134.5 -387t-351.5 -152
z" />
    <glyph glyph-name="four.osf" horiz-adv-x="907" 
d="M373 0h-449l2 20l877 1018h14l-172 -888h195l-54 -150h-170l-77 -399h-244zM492 612l-400 -462h309z" />
    <glyph glyph-name="four.osfalt" horiz-adv-x="884" 
d="M379 0h-473v6l2 2l2 12l711 957h288l-940 -928h418l59 301h246l-59 -301h172l-23 -49h-159l-78 -399h-244z" />
    <glyph glyph-name="greater.osf" horiz-adv-x="1085" 
d="M88 41v55l830 398l-830 397v55l881 -426v-53z" />
    <glyph glyph-name="less.osf" horiz-adv-x="1085" 
d="M78 467v53l880 426v-55l-829 -397l829 -398v-55z" />
    <glyph glyph-name="minus.osf" horiz-adv-x="1089" 
d="M92 473v49h905v-49h-905z" />
    <glyph glyph-name="multiply.osf" horiz-adv-x="966" 
d="M479 461l-346 -346l-37 35l346 346l-346 346l37 35l346 -345l344 345l37 -35l-346 -346l346 -346l-37 -35z" />
    <glyph glyph-name="nacute.pl" horiz-adv-x="1079" 
d="M750 686q16 68 1.5 113t-61.5 45q-41 0 -80.5 -34t-83 -107t-82.5 -157.5t-94 -215.5l-6 -27q-21 -99 -25.5 -162.5t7.5 -136.5v-4h-328v4q71 145 115 379l47 223q49 230 -45 314v4l372 104l-110 -526q192 516 444 516q104 0 155.5 -84t20.5 -240l-86 -405
q-33 -129 -23 -191.5t83 -81.5v-4l-377 -30zM719 1534l174 -92l-289 -332l-18 10z" />
    <glyph glyph-name="nine.osf" horiz-adv-x="1011" 
d="M598 1049q176 0 275.5 -123t99.5 -328q0 -118 -34.5 -241t-110.5 -250t-185.5 -240t-271 -212.5t-355.5 -166.5l-6 20q189 92 333.5 250.5t242.5 358.5q-83 -97 -217 -97q-152 0 -241 109t-89 283q0 122 45.5 238.5t120.5 204t179 141t214 53.5zM596 1006
q-90 0 -165 -114.5t-113.5 -271.5t-38.5 -305q0 -245 143 -245q122 0 207 149q108 270 108 520q0 267 -141 267z" />
    <glyph glyph-name="oacute.pl" horiz-adv-x="962" 
d="M934 627q0 -121 -50.5 -242.5t-129.5 -212t-181.5 -147t-201.5 -56.5q-158 0 -250 107t-92 284q0 120 50.5 241.5t129.5 212t182 147.5t203 57q159 0 249.5 -107t90.5 -284zM270 209q0 -203 105 -203q79 0 153.5 121.5t119 301t44.5 349.5q0 203 -102 203
q-83 0 -158.5 -122t-118.5 -300t-43 -350zM662 1534l174 -92l-289 -332l-19 10z" />
    <glyph glyph-name="one.osf" horiz-adv-x="528" 
d="M358 332q-25 -131 -19.5 -194t50.5 -134v-4h-430v4q70 66 100.5 131t55.5 197l108 547h-145l4 22l412 137h4z" />
    <glyph glyph-name="plus.osf" horiz-adv-x="1089" 
d="M569 473v-426h-51v426h-426v49h426v426h51v-426h428v-49h-428z" />
    <glyph glyph-name="sacute.pl" horiz-adv-x="708" 
d="M662 721l-15 -4q-68 146 -116.5 205t-108.5 59q-54 0 -84.5 -37.5t-30.5 -93.5q0 -40 17.5 -75.5t45.5 -64.5t61.5 -57.5t67 -62t61.5 -71.5t45.5 -92t17.5 -118q0 -162 -101.5 -251t-261.5 -89q-71 0 -135.5 16.5t-99.5 34.5l-11 304l15 4q74 -167 140.5 -244.5
t137.5 -77.5q57 0 94 41t37 111q0 52 -23.5 98.5t-58.5 80.5t-76.5 74.5t-76.5 79t-58.5 96t-23.5 124.5q0 148 98 227.5t256 79.5q116 0 189 -27zM502 1534l174 -92l-289 -332l-18 10z" />
    <glyph glyph-name="seven.osf" horiz-adv-x="827" 
d="M-143 -502q445 815 870 1297h-631l86 223h715v-21q-57 -81 -116.5 -178.5t-105 -175.5t-113 -211.5t-102 -202.5t-113.5 -239.5t-106.5 -230.5t-119.5 -261h-264z" />
    <glyph glyph-name="six.osf" horiz-adv-x="1011" 
d="M420 -20q-176 0 -275.5 122.5t-99.5 327.5q0 118 34.5 241t110.5 250t185.5 240t270.5 212.5t355 166.5l7 -20q-189 -92 -333.5 -250.5t-242.5 -358.5q83 97 217 97q152 0 241 -109t89 -283q0 -122 -45.5 -238.5t-120.5 -203.5t-179 -140.5t-214 -53.5zM422 23
q90 0 165 114.5t113.5 271t38.5 304.5q0 245 -143 245q-122 0 -207 -149q-108 -270 -108 -520q0 -266 141 -266z" />
    <glyph glyph-name="three.osf" horiz-adv-x="817" 
d="M176 -502q-183 0 -309 78l-21 305l19 2q82 -179 159.5 -260.5t188.5 -81.5q71 0 123.5 29.5t81.5 80.5t43 109t14 123q0 156 -80 262t-221 158v10q98 40 172 86t120.5 91.5t75.5 96.5t40.5 98.5t11.5 100.5q0 107 -38.5 159t-106.5 52q-83 0 -156.5 -70.5t-173.5 -219.5
l-10 4l84 262q39 23 112 44t158 21q153 0 243.5 -77t90.5 -191t-93.5 -208t-254.5 -156q108 -65 172.5 -171.5t64.5 -252.5q0 -216 -141 -350t-369 -134z" />
    <glyph glyph-name="three.osfalt" horiz-adv-x="817" 
d="M176 -502q-183 0 -309 78l-21 305l19 2q82 -179 159.5 -260.5t188.5 -81.5q71 0 123.5 29.5t81.5 80.5t43 109t14 123q0 156 -80 262t-221 158v10q406 167 406 398q0 94 -52 144t-155 50q-124 0 -230 -86l-8 10q150 209 377 209q135 0 211 -70.5t76 -189.5
q0 -246 -350 -375q107 -61 172 -168t65 -253q0 -216 -141 -350t-369 -134z" />
    </font>
</defs>
</svg>
