<?xml version="1.0" standalone="no"?>
<!DOCTYPE svg PUBLIC "-//W3C//DTD SVG 1.1//EN" "http://www.w3.org/Graphics/SVG/1.1/DTD/svg11.dtd" >
<svg xmlns="http://www.w3.org/2000/svg" xmlns:xlink="http://www.w3.org/1999/xlink" version="1.1">
<metadata>
Created by FontForge 20170731 at Sun Sep 27 23:45:43 2020
 By Aleksey,,,
Copyright (c) 2016 Miguel Reyes under exclusive license to Schwartzco Inc. / Commercial Type. All rights reserved.
</metadata>
<defs>
<font id="Canela-Regular" horiz-adv-x="614" >
  <font-face 
    font-family="Canela"
    font-weight="400"
    font-stretch="normal"
    units-per-em="2048"
    panose-1="0 0 0 0 0 0 0 0 0 0"
    ascent="1587"
    descent="-461"
    x-height="977"
    cap-height="1499"
    bbox="-276 -532 2341 2333"
    underline-thickness="40"
    underline-position="-204"
    unicode-range="U+000D-FB04"
  />
<missing-glyph horiz-adv-x="329" 
 />
    <glyph glyph-name="f_b" unicode="fb" horiz-adv-x="1742" 
d="M1176 -31q-198 0 -328 103l-105 -92h-8v1265q0 133 -55.5 222t-128.5 89q-71 0 -117.5 -93.5t-46.5 -260.5v-225h242v-37h-242v-655q0 -198 47 -281v-4h-301v4q27 42 38 104t11 177v655h-129v37h129v135q0 219 120.5 350t293.5 131q60 0 119 -14.5t90 -34.5l135 49v-757
h4q151 172 344 172q181 0 287 -141.5t106 -366.5q0 -111 -32 -206.5t-93 -168.5t-159 -114.5t-221 -41.5zM1196 6q122 0 196 123t74 332q0 212 -80 312.5t-221 100.5q-130 0 -225 -83v-412q0 -82 16.5 -148t42 -107t60 -68.5t68.5 -38.5t69 -11z" />
    <glyph glyph-name="f_f_b" unicode="ffb" horiz-adv-x="2295" 
d="M1729 -31q-194 0 -328 103l-105 -92h-8v1265q0 133 -55.5 222t-128.5 89q-71 0 -117.5 -93.5t-46.5 -260.5v-225h242v-37h-242v-655q0 -198 47 -281v-4h-301v4q27 42 38 104t11 177v655h-348v-655q0 -198 47 -281v-4h-301v4q27 42 38 104t11 177v655h-129v37h129v94
q0 218 112 349.5t269 131.5q81 0 127 -28l23 -215l-13 -4q-130 211 -194 211q-47 0 -83 -96t-36 -259v-184h348v135q0 219 120.5 350t293.5 131q60 0 119 -14.5t90 -34.5l135 49v-757h4q151 172 344 172q181 0 287 -141.5t106 -366.5q0 -111 -32 -206.5t-93 -168.5
t-159 -114.5t-221 -41.5zM1749 6q122 0 196 123t74 332q0 212 -80 312.5t-221 100.5q-130 0 -225 -83v-412q0 -82 16.5 -148t42 -107t60 -68.5t68.5 -38.5t69 -11z" />
    <glyph glyph-name="f_f_h" unicode="ffh" horiz-adv-x="2254" 
d="M133 4q27 42 38 104t11 177v655h-129v37h129v94q0 218 112 349.5t269 131.5q81 0 127 -28l23 -215l-13 -4q-130 211 -194 211q-47 0 -83 -96t-36 -259v-184h348v135q0 219 120.5 350t293.5 131q60 0 119 -14.5t90 -34.5l135 49v-774q75 91 152.5 140t177.5 49
q139 0 215 -79.5t76 -217.5v-314q0 -155 7.5 -235t37.5 -158v-4h-297v4q28 82 37.5 169t9.5 224v267q0 95 -47.5 157t-141.5 62q-127 0 -227 -105v-491q0 -200 47 -283v-4h-297v4q45 95 45 281v960q0 133 -55.5 222t-128.5 89q-71 0 -117.5 -93.5t-46.5 -260.5v-225h242v-37
h-242v-655q0 -198 47 -281v-4h-301v4q27 42 38 104t11 177v655h-348v-655q0 -198 47 -281v-4h-301v4z" />
    <glyph glyph-name="f_f_j" unicode="ffj" horiz-adv-x="1638" 
d="M1489 4q0 -200 -93 -312.5t-237 -131.5l-4 12q68 42 100.5 111t32.5 178v811q0 184 -71 268h-277v-655q0 -198 47 -281v-4h-301v4q27 42 38 104t11 177v655h-348v-655q0 -198 47 -281v-4h-301v4q27 42 38 104t11 177v655h-129v37h129v94q0 218 112 349.5t269 131.5
q81 0 127 -28l23 -215l-13 -4q-130 211 -194 211q-47 0 -83 -96t-36 -259v-184h348v135q0 111 33.5 202.5t91 152t132.5 93.5t159 33q61 0 125 -15t94 -34l23 -317l-13 -4q-25 50 -54.5 99.5t-70 106.5t-84.5 92t-81 35q-63 0 -106.5 -94t-43.5 -260v-225h264
q111 0 170.5 9.5t118.5 31.5z" />
    <glyph glyph-name="f_f_k" unicode="ffk" horiz-adv-x="2125" 
d="M1862 0l-353 508l236 256q50 54 66 112.5t-9 96.5v4h266v-4q-83 -37 -148.5 -92.5t-145.5 -141.5l-107 -116l301 -435q55 -78 92 -117.5t86 -66.5v-4h-284zM133 4q27 42 38 104t11 177v655h-129v37h129v94q0 218 112 349.5t269 131.5q81 0 127 -28l23 -215l-13 -4
q-130 211 -194 211q-47 0 -83 -96t-36 -259v-184h348v135q0 219 120.5 350t293.5 131q60 0 119 -14.5t90 -34.5l135 49v-1306q0 -200 47 -283v-4h-297v4q45 95 45 281v960q0 133 -55.5 222t-128.5 89q-71 0 -117.5 -93.5t-46.5 -260.5v-225h242v-37h-242v-655
q0 -198 47 -281v-4h-301v4q27 42 38 104t11 177v655h-348v-655q0 -198 47 -281v-4h-301v4z" />
    <glyph glyph-name="f_h" unicode="fh" horiz-adv-x="1701" 
d="M133 0v4q27 42 38 104t11 177v655h-129v37h129v135q0 219 120.5 350t293.5 131q60 0 119 -14.5t90 -34.5l135 49v-774q75 91 152.5 140t177.5 49q139 0 215 -79.5t76 -217.5v-314q0 -155 7.5 -235t37.5 -158v-4h-297v4q28 82 37.5 169t9.5 224v267q0 95 -47.5 157
t-141.5 62q-127 0 -227 -105v-491q0 -200 47 -283v-4h-297v4q45 95 45 281v960q0 133 -55.5 222t-128.5 89q-71 0 -117.5 -93.5t-46.5 -260.5v-225h242v-37h-242v-655q0 -198 47 -281v-4h-301z" />
    <glyph glyph-name="f_j" unicode="fj" horiz-adv-x="1077" 
d="M936 4q0 -200 -93 -312.5t-237 -131.5l-4 12q68 42 100.5 111t32.5 178v811q0 184 -71 268h-277v-655q0 -198 47 -281v-4h-301v4q27 42 38 104t11 177v655h-129v37h129v135q0 111 33.5 202.5t91 152t132.5 93.5t159 33q61 0 125 -15t94 -34l23 -317l-13 -4
q-25 50 -54.5 99.5t-70 106.5t-84.5 92t-81 35q-63 0 -106.5 -94t-43.5 -260v-225h264q111 0 170.5 9.5t118.5 31.5z" />
    <glyph glyph-name="f_k" unicode="fk" horiz-adv-x="1572" 
d="M133 0v4q27 42 38 104t11 177v655h-129v37h129v135q0 219 120.5 350t293.5 131q60 0 119 -14.5t90 -34.5l135 49v-1306q0 -200 47 -283v-4h-297v4q45 95 45 281v960q0 133 -55.5 222t-128.5 89q-71 0 -117.5 -93.5t-46.5 -260.5v-225h242v-37h-242v-655q0 -198 47 -281
v-4h-301zM1309 0l-353 508l236 256q50 54 66 112.5t-9 96.5v4h267v-4q-83 -37 -149.5 -93t-145.5 -141l-107 -116l301 -435q55 -78 92 -117.5t86 -66.5v-4h-284z" />
    <glyph glyph-name="f_t" unicode="ft" horiz-adv-x="1255" 
d="M1227 98q-92 -129 -258 -129q-234 0 -234 248v723h-348v-655q0 -198 47 -281v-4h-301v4q27 42 38 104t11 177v655h-129v37h129v135q0 110 33.5 202t90.5 152.5t131.5 93.5t156.5 33q96 0 158 -28l22 -215l-12 -4q-69 113 -115 157q-55 53 -106 53q-65 0 -109.5 -94
t-44.5 -260v-225h242l293 231h20v-231h264v-37h-264v-717q0 -151 148 -151q33 0 65.5 7.5t50 15t17.5 11.5z" />
    <glyph glyph-name="f_f_t" unicode="fft" horiz-adv-x="1808" 
d="M1780 98q-92 -129 -258 -129q-234 0 -234 248v723h-348v-655q0 -198 47 -281v-4h-301v4q27 42 38 104t11 177v655h-348v-655q0 -198 47 -281v-4h-301v4q27 42 38 104t11 177v655h-129v37h129v94q0 218 112 349.5t269 131.5q81 0 127 -28l23 -215l-13 -4
q-130 211 -194 211q-47 0 -83 -96t-36 -259v-184h348v135q0 110 33.5 202t90.5 152.5t131.5 93.5t156.5 33q96 0 158 -28l22 -215l-12 -4q-69 113 -115 157q-55 53 -106 53q-65 0 -109.5 -94t-44.5 -260v-225h242l293 231h20v-231h264v-37h-264v-717q0 -75 35.5 -113
t111.5 -38q33 0 66 7.5t50.5 15t17.5 11.5z" />
    <glyph glyph-name="f_f" unicode="ff" horiz-adv-x="1193" 
d="M133 4q27 42 38 104t11 177v655h-129v37h129v94q0 218 112 349.5t269 131.5q81 0 127 -28l23 -215l-13 -4q-130 211 -194 211q-47 0 -83 -96t-36 -259v-184h348v135q0 110 33.5 202t90.5 152.5t131.5 93.5t156.5 33q96 0 158 -28l22 -215l-12 -4q-69 113 -115 157
q-55 53 -106 53q-65 0 -109.5 -94t-44.5 -260v-225h242v-37h-242v-655q0 -198 47 -281v-4h-301v4q27 42 38 104t11 177v655h-348v-655q0 -198 47 -281v-4h-301v4z" />
    <glyph glyph-name="f_i" unicode="fi" horiz-adv-x="1079" 
d="M133 0v4q27 42 38 104t11 177v655h-129v37h129v135q0 111 33.5 202.5t91 152t132.5 93.5t159 33q61 0 125 -15t94 -34l23 -317l-13 -4q-25 50 -54.5 99.5t-70 106.5t-84.5 92t-81 35q-63 0 -106.5 -94t-43.5 -260v-225h264q111 0 170.5 9.5t118.5 31.5v-619
q0 -152 7.5 -234.5t37.5 -160.5v-4h-297v4q24 100 35.5 185.5t11.5 207.5v275q0 184 -71 268h-277v-655q0 -198 47 -281v-4h-301z" />
    <glyph glyph-name="f_l" unicode="fl" horiz-adv-x="1081" 
d="M434 0h-301v4q27 42 38 104t11 177v655h-129v37h129v135q0 219 120.5 350t293.5 131q60 0 119 -14.5t90 -34.5l135 49v-1306q0 -200 47 -283v-4h-297v4q45 95 45 281v960q0 133 -55.5 222t-128.5 89q-71 0 -117.5 -93.5t-46.5 -260.5v-225h242v-37h-242v-655
q0 -198 47 -281v-4z" />
    <glyph glyph-name="f_f_i" unicode="ffi" horiz-adv-x="1632" 
d="M133 0v4q27 42 38 104t11 177v655h-129v37h129v94q0 218 112 349.5t269 131.5q81 0 127 -28l23 -215l-13 -4q-130 211 -194 211q-47 0 -83 -96t-36 -259v-184h348v135q0 111 33.5 202.5t91 152t132.5 93.5t159 33q61 0 125 -15t94 -34l23 -317l-13 -4q-25 50 -54.5 99.5
t-70 106.5t-84.5 92t-81 35q-63 0 -106.5 -94t-43.5 -260v-225h264q111 0 170.5 9.5t118.5 31.5v-619q0 -152 7.5 -234.5t37.5 -160.5v-4h-297v4q24 100 35.5 185.5t11.5 207.5v275q0 184 -71 268h-277v-655q0 -198 47 -281v-4h-301v4q27 42 38 104t11 177v655h-348v-655
q0 -198 47 -281v-4h-301z" />
    <glyph glyph-name="f_f_l" unicode="ffl" horiz-adv-x="1634" 
d="M133 4q27 42 38 104t11 177v655h-129v37h129v94q0 218 112 349.5t269 131.5q81 0 127 -28l23 -215l-13 -4q-130 211 -194 211q-47 0 -83 -96t-36 -259v-184h348v135q0 219 120.5 350t293.5 131q60 0 119 -14.5t90 -34.5l135 49v-1306q0 -200 47 -283v-4h-297v4
q45 95 45 281v960q0 133 -55.5 222t-128.5 89q-71 0 -117.5 -93.5t-46.5 -260.5v-225h242v-37h-242v-655q0 -198 47 -281v-4h-301v4q27 42 38 104t11 177v655h-348v-655q0 -198 47 -281v-4h-301v4z" />
    <glyph glyph-name=".notdef" horiz-adv-x="329" 
 />
    <glyph glyph-name=".null" horiz-adv-x="0" 
 />
    <glyph glyph-name="nonmarkingreturn" horiz-adv-x="682" 
 />
    <glyph glyph-name="NULL" horiz-adv-x="0" 
 />
    <glyph glyph-name="NULL" horiz-adv-x="0" 
 />
    <glyph glyph-name="CR" unicode="&#xd;" horiz-adv-x="348" 
 />
    <glyph glyph-name="space" unicode=" " horiz-adv-x="348" 
 />
    <glyph glyph-name="exclam" unicode="!" horiz-adv-x="479" 
d="M350 1495l-94 -1036h-33l-92 1036v4h219v-4zM240 -10q-59 0 -98.5 40.5t-39.5 96.5q0 60 39 100.5t99 40.5q57 0 97 -40.5t40 -100.5q0 -56 -40 -96.5t-97 -40.5z" />
    <glyph glyph-name="quotedbl" unicode="&#x22;" horiz-adv-x="632" 
d="M72 1499h213l-97 -465h-20zM348 1499h213l-96 -465h-21z" />
    <glyph glyph-name="numbersign" unicode="#" horiz-adv-x="1218" 
d="M848 985h-385l-86 -471h385zM754 473h-385l-88 -473h-52l88 473h-280v41h289l86 471h-281v41h289l88 473h51l-88 -473h385l88 473h51l-88 -473h287v-41h-295l-86 -471h287v-41h-295l-88 -473h-51z" />
    <glyph glyph-name="dollar" unicode="$" horiz-adv-x="1132" 
d="M971 1100l-19 -6q-149 317 -317 374q-25 11 -39 13v-555l63 -31q48 -23 76.5 -38t72.5 -39.5t71 -45.5t61 -51t54.5 -61.5t40 -70t28 -85t8.5 -98.5q0 -165 -89.5 -269t-242.5 -143q-82 -18 -143 -23v-204h-51v202h-10q-207 0 -422 80l-41 379l16 6q121 -223 242 -323
q104 -84 215 -99v656q-22 12 -73.5 37t-78.5 40q-128 71 -199 163.5t-71 230.5q0 151 80.5 243t214.5 125q76 19 127 21v155h51v-153q169 0 334 -60zM713 33q76 33 115.5 102.5t39.5 155.5q0 190 -196 309l-76 43v-633q63 0 117 23zM528 1489q-104 0 -163.5 -62t-59.5 -167
q0 -101 57.5 -170.5t163.5 -126.5q14 -9 19 -11v537h-17z" />
    <glyph glyph-name="percent" unicode="%" horiz-adv-x="1579" 
d="M397 709q-142 0 -242 118.5t-100 292.5q0 176 99 293t243 117q143 0 247 -118t104 -292q0 -173 -104 -292t-247 -119zM397 739q158 0 158 381q0 379 -158 379q-44 0 -74 -27.5t-46 -81.5t-22.5 -118.5t-6.5 -151.5q0 -88 6.5 -153t22.5 -119t46 -81.5t74 -27.5zM1174 -16
q-142 0 -242.5 119t-100.5 292q0 175 99.5 292.5t243.5 117.5q143 0 246.5 -118t103.5 -292q0 -173 -103.5 -292t-246.5 -119zM1174 14q157 0 157 381q0 379 -157 379q-44 0 -74.5 -28t-46.5 -81.5t-22.5 -118t-6.5 -151.5q0 -88 6.5 -153t22.5 -118.5t46.5 -81.5t74.5 -28z
M254 31l1065 1491l37 -25l-1067 -1495z" />
    <glyph glyph-name="ampersand" unicode="&#x26;" horiz-adv-x="1601" 
d="M1255 -31q-168 0 -325 150q-160 -150 -385 -150q-112 0 -199 32.5t-139 88.5t-78.5 124.5t-26.5 145.5q0 144 84 254.5t234 171.5q-80 112 -117 195.5t-37 175.5q0 165 103.5 269t259.5 104q74 0 134 -26.5t96.5 -69.5t55.5 -95t19 -106q0 -122 -79 -216t-212 -159
q64 -77 164 -211q13 -17 57.5 -79t65 -89.5t56.5 -71t67 -75.5q66 102 103.5 215t37.5 201q0 61 -24.5 97t-90.5 58v12h428v-12q-112 -41 -155 -88q-44 -44 -99 -172q-8 -18 -35.5 -81.5t-42.5 -95t-41.5 -80t-52.5 -83.5q149 -139 301 -139q138 0 191 100l8 -6
q-30 -130 -111.5 -209.5t-214.5 -79.5zM659 74q133 0 240 76q-52 53 -99 114t-114.5 159.5t-81.5 117.5l-166 221q-131 -94 -131 -305q0 -172 91.5 -277.5t260.5 -105.5zM426 1257q0 -92 43 -166t160 -214q86 51 139 137t53 198q0 71 -21 132t-69 103t-115 42
q-79 0 -134.5 -60t-55.5 -172z" />
    <glyph glyph-name="quotesingle" unicode="'" horiz-adv-x="356" 
d="M72 1499h213l-97 -465h-20z" />
    <glyph glyph-name="parenleft" unicode="(" horiz-adv-x="716" 
d="M604 -266q-203 157 -316.5 388t-113.5 517q0 285 114 517.5t316 389.5l17 -18q-117 -160 -184.5 -388t-67.5 -501t67.5 -500t184.5 -387z" />
    <glyph glyph-name="parenright" unicode=")" horiz-adv-x="716" 
d="M96 -248q117 160 184.5 387t67.5 500t-67.5 501t-184.5 388l17 18q202 -157 316 -389.5t114 -517.5q0 -286 -113.5 -517t-316.5 -388z" />
    <glyph glyph-name="asterisk" unicode="*" horiz-adv-x="804" 
d="M401 1157l-118 -266l-127 90l217 197l-291 32l47 148l254 -146l-59 287h155l-59 -287l254 146l49 -148l-293 -32l217 -197l-125 -90z" />
    <glyph glyph-name="plus" unicode="+" horiz-adv-x="1089" 
d="M569 608v-428h-49v428h-428v45h428v428h49v-428h428v-45h-428z" />
    <glyph glyph-name="comma" unicode="," horiz-adv-x="524" 
d="M88 -270q60 54 94.5 117.5t34.5 123.5q0 61 -111 181v4l199 147q50 -33 81.5 -85t31.5 -107q0 -58 -30 -118.5t-79 -111.5t-102 -91.5t-109 -72.5z" />
    <glyph glyph-name="hyphen" unicode="-" horiz-adv-x="575" 
d="M61 528v103h453v-103h-453z" />
    <glyph glyph-name="period" unicode="." horiz-adv-x="524" 
d="M262 -10q-57 0 -97 40.5t-40 96.5q0 59 39.5 99t97.5 40q56 0 96.5 -40t40.5 -99q0 -55 -40.5 -96t-96.5 -41z" />
    <glyph glyph-name="slash" unicode="/" horiz-adv-x="802" 
d="M727 1599h57l-778 -1865h-57z" />
    <glyph glyph-name="zero" unicode="0" horiz-adv-x="1384" 
d="M690 -31q-170 0 -310 102t-221 281.5t-81 397.5t81 397.5t221 281t310 101.5q127 0 241 -60t196.5 -163t131 -248.5t48.5 -308.5q0 -218 -82 -397.5t-223.5 -281.5t-311.5 -102zM690 10q357 0 357 740q0 739 -357 739q-352 0 -352 -739q0 -740 352 -740z" />
    <glyph glyph-name="one" unicode="1" horiz-adv-x="718" 
d="M164 0v4q63 84 82.5 143.5t19.5 171.5v863h-180v20q208 113 391 318h25v-1201q0 -112 19.5 -171.5t82.5 -143.5v-4h-440z" />
    <glyph glyph-name="two" unicode="2" horiz-adv-x="1077" 
d="M10 0v31q282 247 444 436t228 341t66 314q0 170 -69.5 268.5t-197.5 98.5q-37 0 -70.5 -10t-61 -25.5t-56 -44.5t-50 -55.5t-48.5 -70.5t-46.5 -78t-48.5 -89l-20 8l53 340q158 66 352 66q251 0 375.5 -110t124.5 -292q0 -111 -46 -220t-142.5 -223t-227 -227.5
t-319.5 -252.5h391q127 0 206 44t163 134l16 -6l-115 -377h-901z" />
    <glyph glyph-name="three" unicode="3" horiz-adv-x="1144" 
d="M510 -31q-107 0 -216.5 26t-172.5 64l-49 320l20 4q44 -74 77.5 -124t76.5 -101t82.5 -81t89.5 -48.5t104 -18.5q80 0 142 36t99.5 100t56 145.5t18.5 177.5q0 210 -86.5 315t-249.5 105q-153 0 -273 -90l-18 24l559 471h-651l88 205h850v-20l-676 -570q70 31 176 31
q100 0 191.5 -29.5t164.5 -85.5t116.5 -147.5t43.5 -206.5q0 -223 -156 -362.5t-407 -139.5z" />
    <glyph glyph-name="four" unicode="4" horiz-adv-x="1161" 
d="M600 4q51 83 66.5 142.5t15.5 172.5v70h-672v29l672 1081h264l-885 -1061h621v484h233v-484h185l-17 -49h-168v-70q0 -113 15.5 -172.5t66.5 -142.5v-4h-397v4z" />
    <glyph glyph-name="five" unicode="5" horiz-adv-x="1093" 
d="M475 -31q-221 0 -362 90l-52 320l21 4q49 -90 88.5 -150.5t88.5 -115t103.5 -81t116.5 -26.5q144 0 232 121t88 338q0 218 -93.5 329t-269.5 111q-151 0 -278 -86l-17 8l111 668h749l-38 -205h-699l-69 -415q126 79 297 79q108 0 202 -29t168 -86t117 -150t43 -212
q0 -155 -73 -272.5t-196.5 -178.5t-277.5 -61z" />
    <glyph glyph-name="six" unicode="6" horiz-adv-x="1206" 
d="M618 -31q-161 0 -285 80.5t-189.5 216.5t-65.5 303q0 104 26 209t87.5 216.5t152.5 208.5t232 183.5t315 143.5l6 -21q-115 -51 -209.5 -129.5t-160 -173t-109.5 -194.5t-70 -209q42 84 122 138t202 54q133 0 239.5 -56.5t170 -168.5t63.5 -260q0 -158 -71 -282.5
t-191 -191.5t-265 -67zM618 10q137 0 213 120.5t76 346.5t-78.5 330t-218.5 104q-201 0 -272 -159q-23 -115 -23 -230q0 -104 17 -193t52 -162t95 -115t139 -42z" />
    <glyph glyph-name="seven" unicode="7" horiz-adv-x="1052" 
d="M188 0q53 188 130.5 372t171 348.5t183 299t195.5 274.5h-807l48 205h931v-20q-104 -159 -190.5 -312t-175 -341.5t-155 -399.5t-103.5 -426h-228z" />
    <glyph glyph-name="eight" unicode="8" horiz-adv-x="1146" 
d="M563 -31q-136 0 -249.5 46.5t-183 138t-69.5 211.5q0 127 82.5 224.5t253.5 151.5q-135 74 -198.5 175t-63.5 212q0 173 127.5 287.5t319.5 114.5q182 0 306 -98.5t124 -255.5q0 -49 -13.5 -94t-44 -90.5t-87.5 -84.5t-136 -65q354 -176 354 -449q0 -124 -70.5 -221.5
t-189.5 -150t-262 -52.5zM328 1231q0 -121 84 -201.5t276 -167.5q139 116 139 320q0 147 -63 227t-184 80q-118 0 -185 -72t-67 -186zM565 10q146 0 230 79t84 214q0 49 -11 89.5t-38 76.5t-59 65t-87.5 62t-109 60t-136.5 65q-202 -126 -202 -361q0 -162 86.5 -256
t242.5 -94z" />
    <glyph glyph-name="nine" unicode="9" horiz-adv-x="1206" 
d="M309 -10q217 104 353.5 290t193.5 410q-43 -82 -125.5 -134t-206.5 -52q-197 0 -330 131.5t-133 353.5q0 158 70.5 282.5t191 191.5t267.5 67q157 0 281 -80.5t190.5 -217t66.5 -302.5q0 -104 -26 -209t-87.5 -216.5t-152.5 -208.5t-232 -183.5t-315 -143.5zM598 588
q89 0 159.5 38t110.5 117q23 138 23 236q0 81 -10 154t-33 138.5t-57 113.5t-85.5 76t-115.5 28q-137 0 -214 -120t-77 -343q0 -438 299 -438z" />
    <glyph glyph-name="colon" unicode=":" horiz-adv-x="524" 
d="M262 649q-57 0 -97 40.5t-40 96.5q0 60 40 100t97 40q56 0 96.5 -40.5t40.5 -99.5q0 -56 -40.5 -96.5t-96.5 -40.5zM262 -10q-57 0 -97 40.5t-40 96.5q0 59 39.5 99t97.5 40q56 0 96.5 -40t40.5 -99q0 -55 -40.5 -96t-96.5 -41z" />
    <glyph glyph-name="semicolon" unicode=";" horiz-adv-x="524" 
d="M88 -270q60 54 94.5 117.5t34.5 123.5q0 61 -111 181v4l199 147q50 -33 81.5 -85t31.5 -107q0 -58 -30 -118.5t-79 -111.5t-102 -91.5t-109 -72.5zM262 649q-57 0 -97 40.5t-40 96.5q0 60 40 100t97 40q56 0 96.5 -40.5t40.5 -99.5q0 -56 -40.5 -96.5t-96.5 -40.5z" />
    <glyph glyph-name="less" unicode="&#x3c;" horiz-adv-x="1085" 
d="M92 600v53l881 426v-53l-834 -399l834 -400v-53z" />
    <glyph glyph-name="equal" unicode="=" horiz-adv-x="1089" 
d="M92 772v45h905v-45h-905zM92 485v45h905v-45h-905z" />
    <glyph glyph-name="greater" unicode="&#x3e;" horiz-adv-x="1085" 
d="M113 174v53l833 400l-833 399v53l880 -426v-53z" />
    <glyph glyph-name="question" unicode="?" horiz-adv-x="874" 
d="M258 459q10 64 34 119t54 96.5t64.5 82t67 84t58.5 93.5t42 120t16 154q0 133 -53 209t-154 76q-49 0 -90.5 -20t-78.5 -63t-65.5 -88t-66.5 -116l-14 4l41 269q131 51 284 51q426 0 426 -332q0 -77 -23.5 -143t-63.5 -114.5t-89 -91.5t-102.5 -85t-101.5 -84.5
t-89.5 -99.5t-62.5 -121h-33zM287 -10q-59 0 -98 40t-39 97q0 60 38.5 100.5t98.5 40.5q57 0 97 -40.5t40 -100.5q0 -56 -40 -96.5t-97 -40.5z" />
    <glyph glyph-name="at" unicode="@" horiz-adv-x="1755" 
d="M862 -330q-169 0 -315 50t-254 142.5t-170 233t-62 312.5q0 180 70.5 344t192 285.5t296.5 193.5t373 72q320 0 510.5 -172t190.5 -469q0 -163 -59.5 -299t-167 -216.5t-240.5 -80.5q-66 0 -116 21.5t-75.5 55.5t-41.5 77.5t-15 88t6 86.5q-153 -340 -328 -340
q-76 0 -122 69.5t-46 186.5q0 108 40 218.5t109 201.5t173.5 149t222.5 58q88 0 162 -29l78 29h14l-127 -483q-20 -78 -27.5 -136t-1.5 -109t36.5 -77.5t86.5 -26.5q98 0 177 82t121 210.5t42 273.5q0 281 -165 435.5t-445 154.5q-147 0 -276 -46.5t-224 -127.5
t-163.5 -189.5t-103 -235.5t-34.5 -262q0 -320 189.5 -505t496.5 -185q266 0 439 123l18 -33q-186 -131 -465 -131zM750 195q117 0 270 389l70 266q-18 49 -84 49q-68 0 -131 -56.5t-105 -142t-67 -183t-25 -181.5q0 -141 72 -141z" />
    <glyph glyph-name="A" unicode="A" horiz-adv-x="1302" 
d="M553 1198l-225 -592h448zM272 0h-276v4q68 72 106 144.5t88 207.5l441 1160h41l448 -1182q48 -130 89.5 -202t97.5 -128v-4h-408v4q28 40 23.5 134.5t-45.5 205.5l-84 221h-482l-43 -114q-33 -84 -44.5 -159.5t-4 -130.5t20.5 -91.5t32 -65.5v-4z" />
    <glyph glyph-name="B" unicode="B" horiz-adv-x="1275" 
d="M100 0v4q49 93 65.5 167.5t16.5 199.5v757q0 125 -16.5 199.5t-65.5 167.5v4q167 0 319 4t218 4q520 0 520 -350q0 -127 -68 -220.5t-210 -141.5q186 -32 271 -134t85 -243q0 -90 -34 -164t-103.5 -132t-186.5 -90t-272 -32h-539zM655 801q60 0 108 20.5t79 54t52 79
t29.5 93t8.5 97.5q0 155 -85 238t-245 83q-117 0 -184 -20v-645h237zM610 41q184 0 280.5 99t96.5 268q0 160 -79.5 256t-233.5 96h-256v-694q88 -25 192 -25z" />
    <glyph glyph-name="C" unicode="C" horiz-adv-x="1540" 
d="M1403 117q-44 -36 -213.5 -92t-349.5 -56q-231 0 -410 104.5t-274 281.5t-95 395q0 162 61.5 305.5t168.5 248t260 165.5t328 61q268 0 516 -98l41 -336l-17 -6q-108 152 -186.5 233t-170.5 123.5t-210 42.5q-111 0 -200 -36.5t-150.5 -101.5t-102 -158t-59 -203
t-18.5 -240t19 -241t60 -203.5t101 -158t146 -101.5t192 -36q85 0 159 23.5t132 64t112 104.5t96.5 133.5t87.5 162.5l17 -6z" />
    <glyph glyph-name="D" unicode="D" horiz-adv-x="1542" 
d="M100 4q49 82 65.5 143.5t16.5 167.5v869q0 106 -16.5 167.5t-65.5 143.5v4q126 0 275.5 4t286.5 4q386 0 602.5 -195t216.5 -556q0 -366 -212 -561t-607 -195h-562v4zM418 1466v-1431l227 6q308 7 442 175.5t134 510.5q0 379 -142 559t-436 180h-225z" />
    <glyph glyph-name="E" unicode="E" horiz-adv-x="1269" 
d="M1149 0h-1049v4q43 100 61.5 173.5t18.5 168.5v807q0 96 -18 167t-62 175v4h947l79 -364l-16 -7q-28 29 -85.5 96t-96 110t-86 80.5t-78.5 39.5l-346 14v-692h176q35 0 73 24.5t63 51.5t63.5 74.5t54.5 64.5h18v-463h-18q-13 14 -41.5 48t-49.5 57t-49.5 49t-57 39.5
t-56.5 13.5h-176v-704l364 14q48 2 100 26.5t94 58.5t91 87.5t81.5 95t74.5 99.5l16 -6z" />
    <glyph glyph-name="F" unicode="F" horiz-adv-x="1208" 
d="M500 0h-400v4q49 93 65.5 167.5t16.5 199.5v757q0 125 -16.5 199.5t-65.5 167.5v4h1008l80 -364l-19 -5q-31 31 -110 125.5t-137 147.5t-99 53l-405 14v-675h217q35 0 73 24.5t63 51.5t63.5 74.5t54.5 64.5h18v-463h-18q-13 14 -41.5 48t-49.5 57t-49.5 49t-57 39.5
t-56.5 13.5h-217v-383q0 -129 16 -201t66 -166v-4z" />
    <glyph glyph-name="G" unicode="G" horiz-adv-x="1603" 
d="M1460 186q-6 -4 -54.5 -37.5t-73.5 -49t-84.5 -45.5t-109.5 -45t-125.5 -27.5t-154.5 -12.5q-237 0 -420 104.5t-280 281.5t-97 395q0 163 58 305.5t163.5 248t263.5 166t347 60.5q107 0 219.5 -19t166.5 -35t138 -44l41 -334l-18 -6q-148 215 -276 306t-290 91
q-138 0 -245 -57t-173 -158t-100 -234t-34 -292q0 -127 19 -236t60.5 -202.5t103 -159.5t151.5 -103t202 -37q172 0 274.5 84.5t102.5 241.5q0 109 -19.5 178.5t-74.5 161.5v4h401v-4q-50 -94 -66 -166t-16 -201v-123z" />
    <glyph glyph-name="H" unicode="H" horiz-adv-x="1550" 
d="M100 4q49 93 65.5 167.5t16.5 199.5v757q0 125 -16.5 199.5t-65.5 167.5v4h400v-4q-50 -94 -66 -166t-16 -201v-335h715v335q0 129 -16 201t-66 166v4h399v-4q-50 -94 -66 -166t-16 -201v-757q0 -129 16 -201t66 -166v-4h-399v4q50 94 66 166t16 201v381h-715v-381
q0 -129 16 -201t66 -166v-4h-400v4z" />
    <glyph glyph-name="I" unicode="I" horiz-adv-x="600" 
d="M100 4q50 94 66 166t16 201v757q0 129 -16 201t-66 166v4h400v-4q-50 -94 -66 -166t-16 -201v-757q0 -129 16 -201t66 -166v-4h-400v4z" />
    <glyph glyph-name="J" unicode="J" horiz-adv-x="827" 
d="M664 283q0 -151 -92 -232.5t-255 -81.5q-123 0 -239 45l-37 338l16 6q131 -213 157 -250q65 -91 112 -97q5 -1 10 -1q42 0 68 42t26 116v960q0 125 -16.5 199.5t-65.5 167.5v4h397v-4q-50 -94 -65.5 -165.5t-15.5 -201.5v-845z" />
    <glyph glyph-name="K" unicode="K" horiz-adv-x="1341" 
d="M100 4q49 93 65.5 167.5t16.5 199.5v757q0 125 -16.5 199.5t-65.5 167.5v4h400v-4q-50 -94 -66 -166t-16 -201v-757q0 -129 16 -201t66 -166v-4h-400v4zM1008 0l-557 739l387 447q98 115 124.5 189.5t-10.5 119.5v4h324v-4q-122 -64 -200.5 -130.5t-172.5 -174.5
l-266 -303l475 -631q65 -86 120.5 -143.5t129.5 -108.5l2 -4h-356z" />
    <glyph glyph-name="L" unicode="L" horiz-adv-x="1206" 
d="M100 0v4q49 93 65.5 167.5t16.5 199.5v757q0 125 -16.5 199.5t-65.5 167.5v4h400v-4q-50 -94 -66 -166t-16 -201v-1099l309 12q203 7 442 371l17 -6l-90 -406h-996z" />
    <glyph glyph-name="M" unicode="M" horiz-adv-x="1841" 
d="M53 0v4q78 107 103.5 186.5t25.5 217.5v804q-7 98 -37 155.5t-108 127.5v4h373l526 -1165l506 1165h362v-4q-88 -79 -116.5 -145t-28.5 -197v-782q0 -129 16 -201t66 -166v-4h-400v4q49 93 65.5 167.5t16.5 199.5v968l-563 -1294h-43l-594 1303l6 -940
q0 -137 29.5 -218.5t118.5 -185.5v-4h-324z" />
    <glyph glyph-name="N" unicode="N" horiz-adv-x="1421" 
d="M223 1284l8 -876q0 -138 28 -217.5t114 -186.5v-4h-316v4q76 105 100.5 185.5t24.5 218.5v802q-7 101 -39.5 158.5t-119.5 126.5v4h327l858 -1165l-6 758q0 135 -25.5 215.5t-99.5 187.5v4h295v-4q-75 -109 -100 -188t-25 -215v-1092l-73 -6z" />
    <glyph glyph-name="O" unicode="O" horiz-adv-x="1667" 
d="M831 -31q-143 0 -282.5 61.5t-247 164.5t-174 249t-66.5 304t66.5 304.5t174 250t247 165.5t282.5 62q114 0 228 -39t211.5 -111.5t173 -168t119 -216t43.5 -247.5t-43.5 -247t-119 -215t-173 -167t-211.5 -111t-228 -39zM831 10q130 0 229.5 55t161.5 154.5t93 233
t31 295.5q0 128 -19.5 239t-60.5 204t-101 159t-145 102.5t-189 36.5q-129 0 -227.5 -56t-159.5 -157t-91.5 -234t-30.5 -294q0 -160 30.5 -293t91.5 -233t159.5 -156t227.5 -56z" />
    <glyph glyph-name="P" unicode="P" horiz-adv-x="1183" 
d="M100 4q49 93 65.5 167.5t16.5 199.5v757q0 125 -16.5 199.5t-65.5 167.5v4h484q131 0 232.5 -22.5t166 -60t106 -91.5t58 -112.5t16.5 -127.5q0 -211 -159 -341t-451 -130h-135v-243q0 -129 16 -201t66 -166v-4h-400v4zM549 1458h-53q-12 0 -78 -4v-799h127
q98 0 173 35.5t119.5 96t66.5 135t22 159.5q0 86 -19.5 152t-53 108t-82.5 69t-103 37.5t-119 10.5z" />
    <glyph glyph-name="Q" unicode="Q" horiz-adv-x="1667" 
d="M1036 -115q286 -78 666 4l-90 -190q-71 -47 -221 -47q-103 0 -197 26.5t-156.5 62t-118.5 84.5t-83 81.5t-48 64.5q-122 6 -241 58q-210 93 -348 287.5t-138 431.5q0 158 66.5 304.5t174 250t247 165.5t282.5 62q114 0 228 -39t211.5 -111.5t173 -168t119 -216
t43.5 -247.5q0 -237 -139.5 -430.5t-352.5 -288.5q-131 -57 -272 -60q92 -57 194 -84zM831 10q130 0 229.5 55t161.5 154.5t93 233t31 295.5q0 128 -19.5 239t-60.5 204t-101 159t-145 102.5t-189 36.5q-129 0 -227.5 -56t-159.5 -157t-91.5 -234t-30.5 -294
q0 -160 30.5 -293t91.5 -233t159.5 -156t227.5 -56z" />
    <glyph glyph-name="R" unicode="R" horiz-adv-x="1323" 
d="M100 4q49 93 65.5 167.5t16.5 199.5v757q0 125 -16.5 199.5t-65.5 167.5v4h523q268 0 393 -94.5t125 -263.5q0 -134 -74 -232.5t-223 -146.5l243 -477q63 -126 109.5 -178t128.5 -93v-14h-360l-369 723h-178v-352q0 -129 16 -201t66 -166v-4h-400v4zM578 1458h-62
q-59 0 -98 -2v-692h160q323 0 323 379q0 152 -72.5 233.5t-250.5 81.5z" />
    <glyph glyph-name="S" unicode="S" horiz-adv-x="1132" 
d="M971 1100l-19 -6q-102 216 -205 305.5t-219 89.5q-104 0 -163.5 -62t-59.5 -167q0 -41 11 -77.5t26 -64t46 -56.5t54 -47t68.5 -43.5t70.5 -38t78 -38.5q48 -23 76.5 -38t72.5 -39.5t71 -45.5t61 -51t54.5 -61.5t40 -70t28 -85t8.5 -98.5q0 -90 -28 -163t-77 -123.5
t-117.5 -85t-147 -50t-166.5 -15.5q-207 0 -422 80l-41 379l16 6q117 -219 240 -321.5t264 -102.5q133 0 204.5 80.5t71.5 200.5q0 57 -17.5 106.5t-44.5 86t-70.5 71.5t-85.5 59.5t-99 51.5q-173 84 -244 135q-161 117 -181 284q-3 26 -3 54q0 102 38.5 179.5t106 122.5
t150 67t178.5 22q169 0 334 -60z" />
    <glyph glyph-name="T" unicode="T" horiz-adv-x="1464" 
d="M932 0h-400v4q49 93 65.5 167.5t16.5 199.5v1093l-223 -8q-30 -2 -70.5 -35.5t-86 -89.5t-85 -110.5t-83.5 -118.5q-14 -21 -21 -31l-16 6l77 422h1252l78 -422l-17 -6q-20 27 -68 94.5t-77 106.5t-69.5 87t-73 71.5t-58.5 25.5l-223 8v-1093q0 -129 16 -201t66 -166v-4z
" />
    <glyph glyph-name="U" unicode="U" horiz-adv-x="1425" 
d="M733 -31q-93 0 -174.5 18t-153 58t-122.5 99.5t-80 147t-29 195.5v641q0 129 -16 201t-66 166v4h400v-4q-43 -82 -62.5 -163.5t-19.5 -203.5v-634q0 -474 381 -474q89 0 160 27t117.5 72.5t77.5 109t44.5 134t13.5 149.5v580q0 139 -28.5 218.5t-118.5 184.5v4h332l10 -4
q-90 -105 -119 -184.5t-29 -218.5v-578q0 -116 -26.5 -210t-84.5 -171.5t-161.5 -120.5t-245.5 -43z" />
    <glyph glyph-name="V" unicode="V" horiz-adv-x="1310" 
d="M633 -16l-453 1181q-48 128 -89 200.5t-95 129.5v4h426v-4q-32 -48 -33.5 -137t37.5 -203l324 -858l288 758q106 285 4 440v4h273v-4q-69 -77 -111 -152t-84 -196l-446 -1163h-41z" />
    <glyph glyph-name="W" unicode="W" horiz-adv-x="2037" 
d="M565 -16l-385 1181q-43 130 -80.5 199.5t-93.5 130.5v4h428v-4q-32 -51 -35 -136t31 -204l264 -829l318 796l-17 43q-50 138 -85.5 205.5t-88.5 124.5v4h428v-4q-18 -33 -28.5 -79.5t-6 -117.5t30.5 -143l287 -813l233 713q35 110 41 203.5t-7 146t-38 90.5v4h271v-4
q-71 -74 -115 -156.5t-86 -216.5l-371 -1138h-41l-387 1079l-426 -1079h-41z" />
    <glyph glyph-name="X" unicode="X" horiz-adv-x="1421" 
d="M365 0h-349v4q88 59 156 132.5t145 185.5l291 417l-286 478q-66 107 -120.5 171.5t-123.5 106.5v4h477v-4q-30 -31 -20.5 -109.5t55.5 -156.5l190 -316l152 217q57 81 80 146t17.5 114.5t-34.5 104.5v4h348v-4q-97 -62 -171.5 -136.5t-149.5 -180.5l-217 -306l356 -587
q65 -109 120 -174t124 -107v-4h-477v4q30 31 20.5 109.5t-55.5 156.5l-258 428l-227 -329q-29 -42 -47.5 -78.5t-25 -70.5t-9 -57.5t6 -57t13.5 -49t19 -52.5v-4z" />
    <glyph glyph-name="Y" unicode="Y" horiz-adv-x="1230" 
d="M414 4q49 77 65.5 139t16.5 166v373l-297 530q-62 108 -114 174t-112 109v4h465v-4q-40 -34 -35.5 -107.5t46.5 -150.5l268 -494l203 355q129 228 32 397v4h305v-4q-80 -75 -131.5 -145t-130.5 -207l-264 -459v-375q0 -107 16 -166.5t66 -138.5v-4h-399v4z" />
    <glyph glyph-name="Z" unicode="Z" horiz-adv-x="1275" 
d="M41 0v23l899 1443l-266 -8q-87 -3 -165 -26t-134.5 -56t-109.5 -83t-87.5 -93t-73.5 -100l-16 6l96 393h1033v-22l-898 -1446l328 10q88 3 166 27t136.5 59.5t112.5 88t91.5 103t75.5 113.5l16 -6l-100 -426h-1104z" />
    <glyph glyph-name="bracketleft" unicode="[" horiz-adv-x="755" 
d="M184 1546h500v-41h-315v-1730h315v-41h-500v1812z" />
    <glyph glyph-name="backslash" unicode="\" horiz-adv-x="802" 
d="M797 -266l-779 1865h58l778 -1865h-57z" />
    <glyph glyph-name="bracketright" unicode="]" horiz-adv-x="755" 
d="M571 -266h-499v41h315v1730h-315v41h499v-1812z" />
    <glyph glyph-name="asciicircum" unicode="^" horiz-adv-x="843" 
d="M422 1335l-342 -368l-19 20l355 559h12l354 -559l-18 -20z" />
    <glyph glyph-name="underscore" unicode="_" horiz-adv-x="1015" 
d="M68 -205v41h880v-41h-880z" />
    <glyph glyph-name="grave" unicode="`" 
d="M440 1090l-411 299l155 145l273 -428z" />
    <glyph glyph-name="a" unicode="a" horiz-adv-x="966" 
d="M399 80q105 0 168 59v312q-317 -72 -317 -240q0 -61 39 -96t110 -35zM741 -25q-74 0 -116.5 35.5t-53.5 93.5q-52 -60 -127.5 -97.5t-167.5 -37.5q-97 0 -158 45t-61 129q0 60 33 112t84.5 88.5t120.5 66t136 47t136 28.5v224q0 86 -42.5 131t-145.5 45q-161 0 -273 -92
l-10 12q65 94 171 148.5t237 54.5q142 0 205 -69t63 -175v-584q0 -90 80 -90q51 0 100 39l4 -4q-75 -150 -215 -150z" />
    <glyph glyph-name="b" unicode="b" horiz-adv-x="1130" 
d="M563 -31q-195 0 -330 103l-102 -92h-8v1237q0 163 -92 266v4l297 106v-757h4q151 172 344 172q181 0 287 -141.5t106 -366.5q0 -111 -32 -206.5t-93.5 -168.5t-159.5 -114.5t-221 -41.5zM584 6q122 0 196 123t74 332q0 212 -80 312.5t-221 100.5q-130 0 -225 -83v-412
q0 -82 16.5 -148t42 -107t60 -68.5t68.5 -38.5t69 -11z" />
    <glyph glyph-name="c" unicode="c" horiz-adv-x="952" 
d="M893 229q-43 -122 -139 -191t-244 -69q-209 0 -334 137t-125 365q0 151 73.5 275.5t192 193t252.5 68.5q161 0 271 -54l26 -227l-18 -4q-48 86 -139.5 167t-169.5 81q-131 0 -209 -112t-78 -302q0 -199 96 -306.5t260 -107.5q80 0 153 23.5t120 71.5z" />
    <glyph glyph-name="d" unicode="d" horiz-adv-x="1161" 
d="M561 106q149 0 242 111v526q-27 121 -90.5 174.5t-143.5 53.5q-134 0 -213.5 -127t-79.5 -330q0 -189 73 -298.5t212 -109.5zM805 176q-49 -88 -140.5 -147.5t-209.5 -59.5q-177 0 -285.5 134t-108.5 341q0 113 35 213.5t100 179.5t168.5 125t231.5 46q115 0 207 -37v243
q0 164 -92 267v4l297 108v-1157q0 -137 9.5 -212.5t28 -111t56.5 -67.5v-4l-291 -66v201h-6z" />
    <glyph glyph-name="e" unicode="e" horiz-adv-x="968" 
d="M918 272q-44 -135 -148.5 -219t-257.5 -84q-134 0 -239.5 65.5t-163.5 180t-58 256.5q0 95 27.5 181t74.5 150t107.5 111t128 71t135.5 24q114 0 208 -63t141 -154.5t42 -182.5h-657v-39q0 -211 95.5 -318.5t262.5 -107.5q176 0 289 138zM516 971q-112 0 -176.5 -91
t-77.5 -239l445 10v23q0 153 -47 225t-144 72z" />
    <glyph glyph-name="f" unicode="f" horiz-adv-x="641" 
d="M133 4q27 42 38 104t11 177v655h-129v37h129v135q0 110 33.5 202t90.5 152.5t131.5 93.5t156.5 33q96 0 158 -28l22 -215l-12 -4q-69 113 -115 157q-55 53 -106 53q-65 0 -109.5 -94t-44.5 -260v-225h242v-37h-242v-655q0 -198 47 -281v-4h-301v4z" />
    <glyph glyph-name="g" unicode="g" horiz-adv-x="1064" 
d="M483 346q95 0 140 84.5t45 226.5q0 94 -17.5 162t-60.5 110t-109 42q-182 0 -182 -314q0 -143 44.5 -227t139.5 -84zM1008 -135q-5 -138 -148 -232t-395 -94q-198 0 -323.5 63t-125.5 171q0 136 195 190q-117 44 -117 160q0 87 61.5 143.5t153.5 79.5q-98 44 -156.5 126
t-58.5 185q0 148 113 249.5t274 101.5q157 0 275 -103l260 152l4 -2v-183h-8l-228 5q88 -94 88 -220q0 -143 -114 -245.5t-275 -102.5q-68 0 -147 27q-90 -44 -90 -113q0 -53 50.5 -74t154.5 -26l204 -6q73 -2 136.5 -18.5t113.5 -46.5t77.5 -78t25.5 -109zM549 -389
q166 0 254 48t88 126q0 48 -35 78t-87 42t-128 15l-221 8q-103 3 -178 25q-52 -48 -52 -125q0 -104 93 -160.5t266 -56.5z" />
    <glyph glyph-name="h" unicode="h" horiz-adv-x="1110" 
d="M98 0v4q27 82 36 167t9 226v820q0 163 -92 266v4l297 106v-774q75 91 152.5 140t177.5 49q139 0 215 -79.5t76 -217.5v-314q0 -155 7.5 -235t37.5 -158v-4h-297v4q28 82 37.5 169t9.5 224v267q0 95 -47.5 157t-141.5 62q-127 0 -227 -105v-381q0 -148 8.5 -231t38.5 -162
v-4h-297z" />
    <glyph glyph-name="i" unicode="i" horiz-adv-x="495" 
d="M367 1348q0 -51 -36 -87t-87 -36t-87 36t-36 87t36 88t87 37t87 -37t36 -88zM104 4q24 102 36 187t12 206v234q0 160 -93 264v14l297 109v-619q0 -152 7.5 -234.5t37.5 -160.5v-4h-297v4z" />
    <glyph glyph-name="j" unicode="j" horiz-adv-x="501" 
d="M367 1348q0 -51 -36 -87t-87 -36t-87 36t-36 87t36 88t87 37t87 -37t36 -88zM18 -428q68 42 101 111t33 178v770q0 160 -93 264v14l297 109l-4 -1014q0 -200 -92.5 -312.5t-236.5 -131.5z" />
    <glyph glyph-name="k" unicode="k" horiz-adv-x="980" 
d="M98 4q45 95 45 281v932q0 161 -92 264v4l297 108v-1306q0 -196 49 -283v-4h-299v4zM717 0l-352 508l235 256q50 54 66 112.5t-9 96.5v4h267v-4q-83 -37 -149.5 -93t-145.5 -141l-107 -116l301 -435q55 -78 92 -117.5t86 -66.5v-4h-284z" />
    <glyph glyph-name="l" unicode="l" horiz-adv-x="487" 
d="M96 4q45 95 45 281v932q0 161 -92 264v4l297 108v-1306q0 -200 47 -283v-4h-297v4z" />
    <glyph glyph-name="m" unicode="m" horiz-adv-x="1619" 
d="M401 0h-297v4q28 84 38 168t10 225v242q0 162 -93 266v4l289 109v-197l8 -2q127 189 314 189q109 0 169 -49.5t72 -137.5l7 -2q129 189 315 189q126 0 187 -71t61 -202v-336q0 -157 7.5 -237t37.5 -158v-4h-295v4q45 145 45 393v291q0 195 -152 195q-57 0 -112.5 -27
t-93.5 -84v-373q0 -153 8.5 -233.5t38.5 -161.5v-4h-297v4q27 80 36 166t9 227v291q0 195 -152 195q-57 0 -111.5 -27t-93.5 -84v-373q0 -149 8 -232.5t37 -162.5v-4z" />
    <glyph glyph-name="n" unicode="n" horiz-adv-x="1116" 
d="M401 0h-297v4q28 84 38 168t10 225v242q0 162 -93 266v4l289 109v-197l8 -2q75 91 152.5 140t177.5 49q139 0 214 -79t75 -218v-312q0 -153 8.5 -233.5t38.5 -161.5v-4h-297v4q45 145 45 393v267q0 96 -45.5 157.5t-142.5 61.5q-130 0 -226 -103v-381q0 -149 8 -232.5
t37 -162.5v-4z" />
    <glyph glyph-name="o" unicode="o" horiz-adv-x="1153" 
d="M575 -31q-141 0 -262.5 71.5t-191.5 191t-70 255.5q0 134 71 254.5t192.5 193.5t260.5 73q105 0 203 -43.5t168.5 -115t113 -167t42.5 -195.5q0 -102 -42.5 -197t-113 -165.5t-168.5 -113t-203 -42.5zM575 10q76 0 135.5 39t95 107t53.5 151.5t18 179.5q0 129 -31 234.5
t-101 175.5t-170 70q-99 0 -168.5 -70t-100 -175.5t-30.5 -234.5q0 -96 17.5 -179.5t52.5 -151.5t94 -107t135 -39z" />
    <glyph glyph-name="p" unicode="p" horiz-adv-x="1159" 
d="M612 6q122 0 196.5 123t74.5 332q0 211 -79.5 312t-219.5 101q-133 0 -228 -83v-412q0 -82 16 -148t41.5 -107t60 -68.5t68.5 -38.5t70 -11zM104 -461v4q28 84 38 168.5t10 225.5v702q0 162 -93 266v4l289 109v-180l12 -2q151 172 349 172q175 0 282 -142t107 -366
q0 -111 -32 -206.5t-93.5 -168.5t-159.5 -114.5t-221 -41.5q-140 0 -236 47v-77q0 -150 8 -233.5t37 -162.5v-4h-297z" />
    <glyph glyph-name="q" unicode="q" horiz-adv-x="1146" 
d="M756 -457q28 83 37.5 167t9.5 227v235q-49 -86 -139.5 -144.5t-208.5 -58.5q-177 0 -285.5 134t-108.5 341q0 113 35 213.5t100 179.5t168.5 125t231.5 46q105 0 187.5 -29.5t125.5 -75.5l90 94h9v-1058q0 -150 8 -233.5t37 -162.5v-4h-297v4zM561 106q149 0 242 111v516
q-23 126 -87.5 182t-146.5 56q-132 0 -212.5 -127t-80.5 -330q0 -189 73 -298.5t212 -109.5z" />
    <glyph glyph-name="r" unicode="r" horiz-adv-x="729" 
d="M104 0v4q28 84 38 168t10 225v242q0 162 -93 266v4l289 109v-250h8q92 110 136 150q100 90 190 90l-4 -250h-8q-26 23 -86.5 42t-96.5 19q-27 0 -62.5 -23.5t-68.5 -68.5v-328q0 -149 8 -232.5t37 -162.5v-4h-297z" />
    <glyph glyph-name="s" unicode="s" horiz-adv-x="817" 
d="M709 743l-13 -4q-136 232 -317 232q-77 0 -122.5 -43.5t-45.5 -108.5q0 -34 16 -63.5t36.5 -49t62 -42t69 -34t80.5 -32.5q50 -21 85.5 -39t77 -48t67.5 -62.5t43.5 -80.5t17.5 -104q0 -98 -52 -166t-136.5 -98.5t-194.5 -30.5q-148 0 -301 54l-21 262l13 4
q78 -149 158 -216t178 -67q95 0 141.5 52t46.5 124q0 74 -51 120t-166 95q-125 55 -173 88q-130 90 -130 244q0 75 29.5 130.5t81.5 87t113 46.5t132 15q156 0 254 -41z" />
    <glyph glyph-name="t" unicode="t" horiz-adv-x="667" 
d="M377 -31q-230 0 -230 248v723h-110v12l297 256h20v-231h264v-37h-264v-717q0 -151 144 -151q78 0 135 34l6 -8q-92 -129 -262 -129z" />
    <glyph glyph-name="u" unicode="u" horiz-adv-x="1073" 
d="M715 229q-31 -57 -59.5 -98t-68.5 -81t-91 -60.5t-111 -20.5q-128 0 -196 92.5t-68 255.5v437q0 140 -86 219v4h291v-627q0 -108 46.5 -162.5t133.5 -54.5q131 0 199 129v492q0 144 -91 219v4h295v-629q0 -107 10.5 -165.5t27.5 -84t54 -53.5v-4l-286 -66v254z" />
    <glyph glyph-name="v" unicode="v" horiz-adv-x="915" 
d="M139 735q-41 99 -68.5 150t-60.5 88v4h350v-4q-20 -35 -23 -87.5t23 -135.5l181 -476l159 418q23 60 23.5 121t-10.5 97.5t-27 62.5v4h219v-4q-54 -58 -84 -108.5t-67 -143.5l-287 -741h-33z" />
    <glyph glyph-name="w" unicode="w" horiz-adv-x="1368" 
d="M133 735q-32 96 -59.5 149t-63.5 89v4h350v-4q-20 -34 -23 -89t19 -134l146 -445l151 418l-4 12q-33 96 -61.5 147t-67.5 91v4h348v-4q-50 -84 0 -223l148 -445l141 387q23 63 24 123.5t-9.5 96t-26.5 61.5v4h213v-4q-54 -59 -86.5 -112t-63.5 -140l-266 -741h-33
l-237 690l-248 -690h-33z" />
    <glyph glyph-name="x" unicode="x" horiz-adv-x="966" 
d="M242 0h-234v4q65 50 112 102t122 150l147 199l-176 280q-63 99 -103 150.5t-83 87.5v4h366v-4q-23 -19 -24.5 -47.5t12 -61.5t43.5 -80l137 -217l88 125q113 158 53 281v4h234v-4q-66 -55 -112.5 -107.5t-112.5 -144.5l-131 -184l186 -297q57 -90 97.5 -138t94.5 -98v-4
h-364v4q20 27 20 53.5t-11.5 51t-39.5 70.5q-4 5 -6 8.5t-4 7.5l-145 229l-105 -139q-115 -152 -61 -281v-4z" />
    <glyph glyph-name="y" unicode="y" horiz-adv-x="919" 
d="M80 -264q265 0 344 215l2 8l-291 774q-60 163 -125 240v4h344v-4q-13 -22 -19.5 -55.5t-1 -89.5t28.5 -117l173 -461l174 465q21 54 18 106.5t-16 88.5t-33 63v4h231v-4q-54 -57 -87 -111t-64 -141l-318 -821q-41 -103 -82 -172t-86 -108t-88.5 -57t-99.5 -24z" />
    <glyph glyph-name="z" unicode="z" horiz-adv-x="915" 
d="M31 0v14l577 928l-246 -8q-17 0 -34 -4t-35 -13.5t-33 -17.5t-35 -25t-32 -27t-33.5 -31t-30 -30t-30.5 -32t-27 -29l-11 4l68 248h723v-16l-573 -926l268 6q84 4 158 63.5t159 165.5l10 -4l-71 -266h-772z" />
    <glyph glyph-name="braceleft" unicode="{" horiz-adv-x="702" 
d="M600 -266q-414 0 -414 262q0 48 20.5 110t45 112t45 112t20.5 110q0 178 -231 178h-45v44h45q231 0 231 178q0 48 -20.5 110t-45 112t-45 112t-20.5 110q0 262 414 262h31v-41h-31q-60 0 -95.5 -6.5t-65.5 -27t-43 -61.5t-13 -107q0 -55 31.5 -193t31.5 -209
q0 -69 -20.5 -116.5t-63 -75.5t-92 -42t-123.5 -24v-6q63 -9 101.5 -18t80.5 -27t64.5 -44t37.5 -68.5t15 -100.5q0 -73 -31.5 -210t-31.5 -192q0 -66 12.5 -107t42.5 -61.5t66 -27t96 -6.5h31v-41h-31z" />
    <glyph glyph-name="bar" unicode="|" horiz-adv-x="419" 
d="M184 -266v1865h52v-1865h-52z" />
    <glyph glyph-name="braceright" unicode="}" horiz-adv-x="702" 
d="M72 -266v41h30q60 0 96 6.5t66 27t42.5 61.5t12.5 107q0 55 -31.5 192t-31.5 210q0 58 15 100.5t37.5 68.5t64.5 44t80.5 27t101.5 18v6q-74 10 -123.5 24t-92 42t-63 75.5t-20.5 116.5q0 71 31.5 209t31.5 193q0 66 -13 107t-43 61.5t-65.5 27t-95.5 6.5h-30v41h30
q414 0 414 -262q0 -48 -20.5 -110t-45 -112t-45 -112t-20.5 -110q0 -178 231 -178h46v-44h-46q-231 0 -231 -178q0 -48 20.5 -110t45 -112t45 -112t20.5 -110q0 -262 -414 -262h-30z" />
    <glyph glyph-name="asciitilde" unicode="~" horiz-adv-x="925" 
d="M274 676q35 0 189.5 -44t230.5 -44q60 0 91 25t49 81l20 -2q-3 -37 -12.5 -72.5t-30 -75.5t-60.5 -64.5t-94 -24.5q-50 0 -208 44t-213 44q-58 0 -91 -27.5t-47 -83.5l-22 2q2 28 8.5 57.5t21 63.5t35.5 60t55.5 43.5t77.5 17.5z" />
    <glyph glyph-name="uni00A0" unicode="&#xa0;" horiz-adv-x="348" 
 />
    <glyph glyph-name="exclamdown" unicode="&#xa1;" horiz-adv-x="479" 
d="M350 -502h-219v4l92 1037h33l94 -1037v-4zM240 1008q57 0 97 -41t40 -97q0 -60 -40 -100.5t-97 -40.5q-60 0 -99 40.5t-39 100.5q0 57 39.5 97.5t98.5 40.5z" />
    <glyph glyph-name="cent" unicode="&#xa2;" horiz-adv-x="952" 
d="M893 229q-41 -118 -135 -188q-82 -64 -215 -70v-204h-51v202q-91 3 -173 35q-126 56 -197 177t-71 290t91 302t233 194q62 26 117 34v140h51v-133h26q161 0 271 -54l26 -227l-18 -4q-33 59 -95 123.5t-126 99.5q-46 22 -84 25v-824q40 -4 65 -4q80 0 153 23.5t120 71.5z
M330 858q-78 -113 -78 -301q0 -199 96 -309q55 -61 144 -90v809q-95 -14 -162 -109z" />
    <glyph glyph-name="sterling" unicode="&#xa3;" horiz-adv-x="1165" 
d="M1024 0h-1024v16q44 30 68.5 47.5t57 46t50 54t39 65.5t33.5 86t26 111t22.5 144.5t16.5 181.5h-159l12 41h151q0 5 1 15t1 15l11 144q8 113 41.5 208.5t82 160t109 109t121.5 65t121 20.5q67 0 132.5 -22t94.5 -48l37 -360l-18 -6q-98 203 -134 261q-81 134 -147 134
q-130 0 -190 -485l-9 -66q-6 -51 -22 -145h287l-13 -41h-284q-45 -205 -122 -342.5t-165 -214.5h569q82 0 141.5 20t101.5 57t85 101l16 -6z" />
    <glyph glyph-name="yen" unicode="&#xa5;" horiz-adv-x="1128" 
d="M352 4q49 77 65.5 139t16.5 166v82h-344v41h344v225h-344v41h342l-254 514q-105 204 -205 283v4h424v-4q-27 -21 -33 -63t6 -92t38 -103l241 -492l176 353q117 235 21 397v4h309v-4q-94 -90 -148.5 -159.5t-113.5 -192.5l-223 -445h344v-41h-344v-225h344v-41h-344v-82
q0 -107 16 -166.5t66 -138.5v-4h-400v4z" />
    <glyph glyph-name="brokenbar" unicode="&#xa6;" horiz-adv-x="419" 
d="M184 748v851h52v-851h-52zM184 -266v850h52v-850h-52z" />
    <glyph glyph-name="section" unicode="&#xa7;" horiz-adv-x="1005" 
d="M504 -336q-138 0 -305 53l-21 263l12 4q77 -148 154 -215.5t164 -67.5q85 0 136.5 53.5t51.5 136.5q0 44 -17.5 84t-41 68t-68.5 60.5t-78.5 51.5t-91.5 50q-49 27 -80 45.5t-72.5 47.5t-67 56.5t-50 63t-36 78t-11.5 90.5q0 119 69 203.5t201 113.5q-184 127 -184 305
q0 138 98 230t279 92q66 0 135 -11.5t111 -29.5l20 -223l-12 -4q-74 126 -146.5 178.5t-150.5 52.5q-91 0 -144 -60t-53 -149q0 -39 10.5 -73.5t33.5 -64t46 -52t64 -48.5t69 -41.5t78 -41.5q49 -27 79.5 -45.5t72.5 -48t67.5 -57t50.5 -63t36.5 -77.5t11.5 -90
q0 -117 -68.5 -202.5t-198.5 -113.5q87 -60 133 -129t46 -168q0 -134 -86.5 -219.5t-245.5 -85.5zM616 293q82 10 128.5 68t46.5 139q0 33 -9.5 63t-21 52.5t-38 48t-44 40.5t-56 39t-58 34.5t-64.5 35.5l-107 61q-83 -7 -130.5 -65t-47.5 -141q0 -38 10 -71t33.5 -62.5
t44.5 -50.5t62.5 -47.5t65.5 -40.5t75 -42z" />
    <glyph glyph-name="dieresis" unicode="&#xa8;" 
d="M635 1348q0 -51 -36 -87t-87 -36t-87 36t-36 87t36 88t87 37t87 -37t36 -88zM225 1348q0 -51 -36 -87t-87 -36t-86.5 36t-35.5 87t35.5 88t86.5 37t87 -37t36 -88z" />
    <glyph glyph-name="copyright" unicode="&#xa9;" horiz-adv-x="1685" 
d="M61 750q0 160 61.5 304.5t166.5 248t249.5 164.5t303.5 61t304 -61t249.5 -164.5t166.5 -248t62 -304.5q0 -161 -62 -305.5t-166.5 -249t-249.5 -165.5t-304 -61t-303.5 61t-249.5 165.5t-166.5 249t-61.5 305.5zM117 750q0 -150 57 -286.5t154 -235t231.5 -156.5
t282.5 -58q147 0 281 58t231.5 156.5t155 235t57.5 286.5q0 200 -97.5 369t-264 266.5t-363.5 97.5q-149 0 -283 -57.5t-231 -155.5t-154 -234t-57 -286zM1165 401q-29 -20 -119.5 -49.5t-189.5 -29.5q-202 0 -326 121.5t-124 306.5q0 181 133.5 305.5t339.5 124.5
q129 0 282 -56l23 -206l-13 -5q-86 130 -150.5 181t-158.5 51q-148 0 -219.5 -107t-71.5 -288q0 -180 71 -288t214 -108q58 0 105 19.5t85 60t67 86t63 115.5l12 -6z" />
    <glyph glyph-name="ordfeminine" unicode="&#xaa;" horiz-adv-x="794" 
d="M340 817q75 0 117 39v244q-102 -22 -166 -67.5t-64 -112.5q0 -48 30 -75.5t83 -27.5zM600 725q-60 0 -95.5 30t-41.5 76q-40 -49 -100 -80.5t-130 -31.5q-75 0 -123.5 36.5t-48.5 102.5q0 59 36.5 107t99.5 79.5t125 51.5t135 34v156q0 70 -32 103.5t-114 33.5
q-117 0 -213 -65l-8 10q127 162 330 162q113 0 165 -55t52 -140v-436q0 -78 65 -78q39 0 68 29l2 -2q-53 -123 -172 -123z" />
    <glyph glyph-name="guillemotleft" unicode="&#xab;" horiz-adv-x="882" 
d="M743 106l-313 359v41l313 358l17 -12l-187 -367l187 -366zM436 106l-313 359v41l313 358l17 -12l-187 -367l187 -366z" />
    <glyph glyph-name="registered" unicode="&#xae;" horiz-adv-x="901" 
d="M20 1108q0 177 127.5 299.5t307.5 122.5q179 0 302.5 -122t123.5 -300q0 -176 -127 -298t-305 -122q-181 0 -305 121t-124 299zM72 1108q0 -160 109.5 -268.5t269.5 -108.5t269 108t109 269t-109 270t-269 109q-161 0 -270 -109t-109 -270zM276 887q15 32 20 52.5t5 59.5
v226q0 54 -25 108v4h201q154 0 154 -110q0 -87 -92 -121l75 -137q21 -39 34.5 -54.5t39.5 -27.5v-2h-135l-109 211h-51v-97q0 -43 4 -63.5t21 -48.5v-2h-142v2zM461 1311h-27q-25 0 -41 -2v-187h68q78 0 78 101q0 44 -18 66t-60 22z" />
    <glyph glyph-name="macron" unicode="&#xaf;" 
d="M16 1321h580v-102h-580v102z" />
    <glyph glyph-name="degree" unicode="&#xb0;" horiz-adv-x="610" 
d="M33 1260q0 111 80.5 190.5t195.5 79.5q114 0 190 -79t76 -191q0 -114 -80.5 -193.5t-193.5 -79.5q-116 0 -192 79t-76 194zM86 1260q0 -99 61 -163.5t158 -64.5q96 0 156.5 64.5t60.5 163.5q0 98 -60.5 161.5t-156.5 63.5q-97 0 -158 -63.5t-61 -161.5z" />
    <glyph glyph-name="acute" unicode="&#xb4;" 
d="M418 1534l149 -145l-405 -279l-17 16z" />
    <glyph glyph-name="paragraph" unicode="&#xb6;" horiz-adv-x="978" 
d="M731 0v2q18 72 24.5 126t6.5 144v955q0 96 -6 150t-25 120v2h125v-2q-19 -65 -25 -119t-6 -151v-955q0 -96 5.5 -149t25.5 -121v-2h-125zM506 0v2q18 72 24.5 126t6.5 144v478h-119q-155 0 -266 110.5t-111 265.5q0 154 111 263.5t266 109.5h213v-2q-19 -65 -25 -119
t-6 -151v-955q0 -96 5.5 -149t25.5 -121v-2h-125z" />
    <glyph glyph-name="periodcentered" unicode="&#xb7;" horiz-adv-x="540" 
d="M270 420q-57 0 -97 40.5t-40 96.5q0 59 39.5 99t97.5 40q56 0 97 -40t41 -99q0 -55 -41 -96t-97 -41z" />
    <glyph glyph-name="cedilla" unicode="&#xb8;" 
d="M152 -504q73 32 120 72t47 98q0 15 -3.5 27t-11 21.5t-14.5 16.5t-20 12.5t-21 8.5t-23.5 6t-21.5 4t-21 3t-17 2l-4 4l143 233h57l-81 -127q83 -18 131.5 -61t48.5 -109q0 -165 -303 -229z" />
    <glyph glyph-name="ordmasculine" unicode="&#xba;" horiz-adv-x="950" 
d="M475 719q-169 0 -291.5 120.5t-122.5 284.5q0 106 57 200t153 150t204 56q111 0 207 -56.5t151.5 -150t55.5 -199.5q0 -165 -122 -285t-292 -120zM475 748q112 0 169.5 107t57.5 269q0 102 -23 185t-75.5 137.5t-128.5 54.5q-75 0 -127 -54.5t-75 -137.5t-23 -185
q0 -104 23 -187t75 -136t127 -53z" />
    <glyph glyph-name="guillemotright" unicode="&#xbb;" horiz-adv-x="882" 
d="M430 119l186 366l-186 367l16 12l314 -358v-41l-314 -359zM123 119l186 366l-186 367l16 12l314 -358v-41l-314 -359z" />
    <glyph glyph-name="onequarter" unicode="&#xbc;" horiz-adv-x="1306" 
d="M88 725v2q34 42 44.5 74.5t10.5 91.5v453h-96v12q163 73 262 172h13v-637q0 -59 10 -92.5t43 -73.5v-2h-287zM98 31l1065 1491l37 -25l-1067 -1495zM930 2q26 42 34.5 75.5t8.5 90.5v37h-332v12l350 571h209l-512 -548h285v219h182v-219h102l-8 -35h-94v-37
q0 -57 8.5 -90.5t34.5 -75.5v-2h-268v2z" />
    <glyph glyph-name="onehalf" unicode="&#xbd;" horiz-adv-x="1402" 
d="M78 31l1065 1491l37 -25l-1067 -1495zM774 0v12q203 191 284 321.5t81 254.5q0 88 -29.5 137t-83.5 49q-105 0 -205 -205l-10 2l27 199q98 35 194 35q142 0 213.5 -58t71.5 -155q0 -107 -92 -210.5t-293 -242.5h198q68 0 113.5 27.5t87.5 77.5l8 -2l-55 -242h-510z
M88 725v2q34 42 44.5 74.5t10.5 91.5v453h-96v12q163 73 262 172h13v-637q0 -59 10 -92.5t43 -73.5v-2h-287z" />
    <glyph glyph-name="threequarters" unicode="&#xbe;" horiz-adv-x="1411" 
d="M291 709q-135 0 -217 47l-27 194l12 2q78 -120 106 -152q55 -61 118 -61q70 0 108.5 62t38.5 164q0 104 -40.5 157.5t-115.5 53.5q-71 0 -135 -46l-12 15l268 227h-313l41 139h477v-10l-354 -297q31 8 76 8q73 0 136.5 -25t107.5 -82.5t44 -139.5q0 -118 -87.5 -187
t-231.5 -69zM203 31l1065 1491l37 -25l-1067 -1495zM1034 2q26 42 34.5 75.5t8.5 90.5v37h-332v12l351 571h209l-512 -548h284v219h183v-219h102l-8 -35h-94v-37q0 -57 8.5 -90.5t34.5 -75.5v-2h-269v2z" />
    <glyph glyph-name="questiondown" unicode="&#xbf;" horiz-adv-x="874" 
d="M637 539q-10 -64 -34 -119.5t-54 -96.5t-64.5 -82t-67 -84.5t-58.5 -93.5t-42 -120t-16 -154q0 -133 53 -209t154 -76q49 0 90.5 20t78.5 63t65.5 88t66.5 116l14 -4l-41 -268q-131 -51 -284 -51q-426 0 -426 331q0 77 23.5 143t63.5 114.5t89 92t102.5 85.5t101.5 84.5
t89.5 99.5t62.5 121h33zM608 1008q59 0 98 -40.5t39 -97.5q0 -60 -38.5 -100.5t-98.5 -40.5q-57 0 -97 40.5t-40 100.5q0 56 40 97t97 41z" />
    <glyph glyph-name="Agrave" unicode="&#xc0;" horiz-adv-x="1302" 
d="M553 1198l-225 -592h448zM272 0h-276v4q68 72 106 144.5t88 207.5l441 1160h41l448 -1182q48 -130 89.5 -202t97.5 -128v-4h-408v4q28 40 23.5 134.5t-45.5 205.5l-84 221h-482l-43 -114q-33 -84 -44.5 -159.5t-4 -130.5t20.5 -91.5t32 -65.5v-4zM809 1602l-502 186
l105 176l409 -342z" />
    <glyph glyph-name="Aacute" unicode="&#xc1;" horiz-adv-x="1302" 
d="M553 1198l-225 -592h448zM272 0h-276v4q68 72 106 144.5t88 207.5l441 1160h41l448 -1182q48 -130 89.5 -202t97.5 -128v-4h-408v4q28 40 23.5 134.5t-45.5 205.5l-84 221h-482l-43 -114q-33 -84 -44.5 -159.5t-4 -130.5t20.5 -91.5t32 -65.5v-4zM850 1964l106 -176
l-493 -186l-12 20z" />
    <glyph glyph-name="Acircumflex" unicode="&#xc2;" horiz-adv-x="1302" 
d="M553 1198l-225 -592h448zM272 0h-276v4q68 72 106 144.5t88 207.5l441 1160h41l448 -1182q48 -130 89.5 -202t97.5 -128v-4h-408v4q28 40 23.5 134.5t-45.5 205.5l-84 221h-482l-43 -114q-33 -84 -44.5 -159.5t-4 -130.5t20.5 -91.5t32 -65.5v-4zM651 1757l-301 -155
l-18 20l313 313h12l314 -313l-19 -20z" />
    <glyph glyph-name="Atilde" unicode="&#xc3;" horiz-adv-x="1302" 
d="M553 1198l-225 -592h448zM272 0h-276v4q68 72 106 144.5t88 207.5l441 1160h41l448 -1182q48 -130 89.5 -202t97.5 -128v-4h-408v4q28 40 23.5 134.5t-45.5 205.5l-84 221h-482l-43 -114q-33 -84 -44.5 -159.5t-4 -130.5t20.5 -91.5t32 -65.5v-4zM492 1853
q63 0 175 -40.5t177 -40.5q55 0 83.5 22.5t51.5 87.5l20 -4q-2 -42 -5.5 -71t-15.5 -67.5t-31 -62t-53.5 -40.5t-82.5 -17q-63 0 -175 41t-177 41q-55 0 -83.5 -23t-51.5 -88l-21 4q2 42 6 71t15.5 67.5t30.5 62t54 40.5t83 17z" />
    <glyph glyph-name="Adieresis" unicode="&#xc4;" horiz-adv-x="1302" 
d="M553 1198l-225 -592h448zM272 0h-276v4q68 72 106 144.5t88 207.5l441 1160h41l448 -1182q48 -130 89.5 -202t97.5 -128v-4h-408v4q28 40 23.5 134.5t-45.5 205.5l-84 221h-482l-43 -114q-33 -84 -44.5 -159.5t-4 -130.5t20.5 -91.5t32 -65.5v-4zM1020 1778
q0 -51 -36 -87t-87 -36t-87 36t-36 87t36 88t87 37t87 -37t36 -88zM528 1778q0 -51 -35.5 -87t-86.5 -36t-87 36t-36 87t36 88t87 37t86.5 -37t35.5 -88z" />
    <glyph glyph-name="Aring" unicode="&#xc5;" horiz-adv-x="1302" 
d="M553 1198l-225 -592h448zM272 0h-276v4q68 72 106 144.5t88 207.5l441 1160h41l448 -1182q48 -130 89.5 -202t97.5 -128v-4h-408v4q28 40 23.5 134.5t-45.5 205.5l-84 221h-482l-43 -114q-33 -84 -44.5 -159.5t-4 -130.5t20.5 -91.5t32 -65.5v-4zM467 1776
q0 77 52.5 126.5t131.5 49.5t132 -49.5t53 -126.5t-53 -125.5t-132 -48.5t-131.5 48.5t-52.5 125.5zM547 1776q0 -63 27.5 -99.5t76.5 -36.5t77 36.5t28 99.5q0 64 -28 101.5t-77 37.5t-76.5 -37.5t-27.5 -101.5z" />
    <glyph glyph-name="AE" unicode="&#xc6;" horiz-adv-x="2068" 
d="M979 1153q0 126 -31 211l-434 -758h465v547zM342 0h-287v4q58 49 105.5 108.5t72.5 100.5t86 145l605 1057q-19 36 -66 80v4h987l80 -364l-16 -7q-28 29 -85.5 96t-96 110t-86 80.5t-78.5 39.5l-346 14v-692h176q35 0 73 24.5t63 51.5t63.5 74.5t54.5 64.5h18v-463h-18
q-13 14 -41.5 48t-49.5 57t-49.5 49t-57 39.5t-56.5 13.5h-176v-704l364 14q60 2 121 35t121 94t102 112t96 126l17 -6l-90 -406h-1049v4q43 100 61.5 173.5t18.5 168.5v219h-490l-88 -155q-41 -70 -61.5 -136t-21 -117.5t5.5 -87t18 -65.5v-4z" />
    <glyph glyph-name="Ccedilla" unicode="&#xc7;" horiz-adv-x="1540" 
d="M643 -504q73 32 120.5 72t47.5 98q0 15 -3.5 27t-11 21.5t-15 16.5t-20.5 12.5t-21 8.5t-23.5 6t-22 4t-21 3t-16.5 2l-4 4l123 200q-134 9 -258 58q-214 91 -335.5 282.5t-121.5 438.5q0 162 61.5 305.5t168.5 248t260 165.5t328 61q268 0 516 -98l41 -336l-17 -6
q-108 152 -186.5 233t-170.5 123.5t-210 42.5q-111 0 -200 -36.5t-150.5 -101.5t-102 -158t-59 -203t-18.5 -240t19 -241t60 -203.5t101 -158t146 -101.5t192 -36q85 0 159 23.5t132 64t112 104.5t96.5 133.5t87.5 162.5l17 -6l-41 -375q-44 -36 -213.5 -92t-349.5 -56h-9
l-59 -92q83 -18 131.5 -61t48.5 -109q0 -165 -303 -229z" />
    <glyph glyph-name="Egrave" unicode="&#xc8;" horiz-adv-x="1269" 
d="M1149 0h-1049v4q43 100 61.5 173.5t18.5 168.5v807q0 96 -18 167t-62 175v4h947l79 -364l-16 -7q-28 29 -85.5 96t-96 110t-86 80.5t-78.5 39.5l-346 14v-692h176q35 0 73 24.5t63 51.5t63.5 74.5t54.5 64.5h18v-463h-18q-13 14 -41.5 48t-49.5 57t-49.5 49t-57 39.5
t-56.5 13.5h-176v-704l364 14q48 2 100 26.5t94 58.5t91 87.5t81.5 95t74.5 99.5l16 -6zM852 1602l-502 186l105 176l409 -342z" />
    <glyph glyph-name="Eacute" unicode="&#xc9;" horiz-adv-x="1269" 
d="M1149 0h-1049v4q43 100 61.5 173.5t18.5 168.5v807q0 96 -18 167t-62 175v4h947l79 -364l-16 -7q-28 29 -85.5 96t-96 110t-86 80.5t-78.5 39.5l-346 14v-692h176q35 0 73 24.5t63 51.5t63.5 74.5t54.5 64.5h18v-463h-18q-13 14 -41.5 48t-49.5 57t-49.5 49t-57 39.5
t-56.5 13.5h-176v-704l364 14q48 2 100 26.5t94 58.5t91 87.5t81.5 95t74.5 99.5l16 -6zM852 1964l106 -176l-493 -186l-12 20z" />
    <glyph glyph-name="Ecircumflex" unicode="&#xca;" horiz-adv-x="1269" 
d="M1149 0h-1049v4q43 100 61.5 173.5t18.5 168.5v807q0 96 -18 167t-62 175v4h947l79 -364l-16 -7q-28 29 -85.5 96t-96 110t-86 80.5t-78.5 39.5l-346 14v-692h176q35 0 73 24.5t63 51.5t63.5 74.5t54.5 64.5h18v-463h-18q-13 14 -41.5 48t-49.5 57t-49.5 49t-57 39.5
t-56.5 13.5h-176v-704l364 14q48 2 100 26.5t94 58.5t91 87.5t81.5 95t74.5 99.5l16 -6zM633 1757l-301 -155l-19 20l314 313h12l313 -313l-18 -20z" />
    <glyph glyph-name="Edieresis" unicode="&#xcb;" horiz-adv-x="1269" 
d="M1149 0h-1049v4q43 100 61.5 173.5t18.5 168.5v807q0 96 -18 167t-62 175v4h947l79 -364l-16 -7q-28 29 -85.5 96t-96 110t-86 80.5t-78.5 39.5l-346 14v-692h176q35 0 73 24.5t63 51.5t63.5 74.5t54.5 64.5h18v-463h-18q-13 14 -41.5 48t-49.5 57t-49.5 49t-57 39.5
t-56.5 13.5h-176v-704l364 14q48 2 100 26.5t94 58.5t91 87.5t81.5 95t74.5 99.5l16 -6zM1001 1778q0 -51 -35.5 -87t-86.5 -36t-87 36t-36 87t36 88t87 37t86.5 -37t35.5 -88zM510 1778q0 -51 -36 -87t-87 -36t-87 36t-36 87t36 88t87 37t87 -37t36 -88z" />
    <glyph glyph-name="Igrave" unicode="&#xcc;" horiz-adv-x="600" 
d="M100 4q50 94 66 166t16 201v757q0 129 -16 201t-66 166v4h400v-4q-50 -94 -66 -166t-16 -201v-757q0 -129 16 -201t66 -166v-4h-400v4zM416 1602l-502 186l104 176l410 -342z" />
    <glyph glyph-name="Iacute" unicode="&#xcd;" horiz-adv-x="600" 
d="M100 4q50 94 66 166t16 201v757q0 129 -16 201t-66 166v4h400v-4q-50 -94 -66 -166t-16 -201v-757q0 -129 16 -201t66 -166v-4h-400v4zM518 1964l107 -176l-494 -186l-12 20z" />
    <glyph glyph-name="Icircumflex" unicode="&#xce;" horiz-adv-x="600" 
d="M100 4q50 94 66 166t16 201v757q0 129 -16 201t-66 166v4h400v-4q-50 -94 -66 -166t-16 -201v-757q0 -129 16 -201t66 -166v-4h-400v4zM299 1757l-301 -155l-18 20l313 313h12l313 -313l-18 -20z" />
    <glyph glyph-name="Idieresis" unicode="&#xcf;" horiz-adv-x="600" 
d="M606 1778q0 -51 -36 -87t-87 -36t-87 36t-36 87t36 88t87 37t87 -37t36 -88zM238 1778q0 -51 -36 -87t-87 -36t-87 36t-36 87t36 88t87 37t87 -37t36 -88zM100 4q50 94 66 166t16 201v757q0 129 -16 201t-66 166v4h400v-4q-50 -94 -66 -166t-16 -201v-757q0 -129 16 -201
t66 -166v-4h-400v4z" />
    <glyph glyph-name="Eth" unicode="&#xd0;" horiz-adv-x="1554" 
d="M10 772h185v412q0 106 -16.5 167.5t-65.5 143.5v4q126 0 275 4t286 4q386 0 602.5 -195t216.5 -556q0 -366 -212 -561t-607 -195h-561v4q49 82 65.5 143.5t16.5 167.5v416h-185v41zM430 1466v-694h340v-41h-340v-696l227 6q308 7 442 175.5t134 510.5q0 379 -142 559
t-436 180h-225z" />
    <glyph glyph-name="Ntilde" unicode="&#xd1;" horiz-adv-x="1421" 
d="M223 1284l8 -876q0 -138 28 -217.5t114 -186.5v-4h-316v4q76 105 100.5 185.5t24.5 218.5v802q-7 101 -39.5 158.5t-119.5 126.5v4h327l858 -1165l-6 758q0 135 -25.5 215.5t-99.5 187.5v4h295v-4q-75 -109 -100 -188t-25 -215v-1092l-73 -6zM608 1853q63 0 175.5 -40.5
t177.5 -40.5q55 0 83.5 22.5t51.5 87.5l20 -4q-2 -42 -5.5 -71t-15.5 -67.5t-31 -62t-53.5 -40.5t-82.5 -17q-63 0 -175.5 41t-177.5 41q-55 0 -83.5 -23t-51.5 -88l-20 4q2 42 5.5 71t15.5 67.5t31 62t53.5 40.5t82.5 17z" />
    <glyph glyph-name="Ograve" unicode="&#xd2;" horiz-adv-x="1667" 
d="M831 -31q-143 0 -282.5 61.5t-247 164.5t-174 249t-66.5 304t66.5 304.5t174 250t247 165.5t282.5 62q114 0 228 -39t211.5 -111.5t173 -168t119 -216t43.5 -247.5t-43.5 -247t-119 -215t-173 -167t-211.5 -111t-228 -39zM831 10q130 0 229.5 55t161.5 154.5t93 233
t31 295.5q0 128 -19.5 239t-60.5 204t-101 159t-145 102.5t-189 36.5q-129 0 -227.5 -56t-159.5 -157t-91.5 -234t-30.5 -294q0 -160 30.5 -293t91.5 -233t159.5 -156t227.5 -56zM991 1602l-502 186l105 176l410 -342z" />
    <glyph glyph-name="Oacute" unicode="&#xd3;" horiz-adv-x="1667" 
d="M831 -31q-143 0 -282.5 61.5t-247 164.5t-174 249t-66.5 304t66.5 304.5t174 250t247 165.5t282.5 62q114 0 228 -39t211.5 -111.5t173 -168t119 -216t43.5 -247.5t-43.5 -247t-119 -215t-173 -167t-211.5 -111t-228 -39zM831 10q130 0 229.5 55t161.5 154.5t93 233
t31 295.5q0 128 -19.5 239t-60.5 204t-101 159t-145 102.5t-189 36.5q-129 0 -227.5 -56t-159.5 -157t-91.5 -234t-30.5 -294q0 -160 30.5 -293t91.5 -233t159.5 -156t227.5 -56zM1053 1964l106 -176l-493 -186l-13 20z" />
    <glyph glyph-name="Ocircumflex" unicode="&#xd4;" horiz-adv-x="1667" 
d="M831 -31q-143 0 -282.5 61.5t-247 164.5t-174 249t-66.5 304t66.5 304.5t174 250t247 165.5t282.5 62q114 0 228 -39t211.5 -111.5t173 -168t119 -216t43.5 -247.5t-43.5 -247t-119 -215t-173 -167t-211.5 -111t-228 -39zM831 10q130 0 229.5 55t161.5 154.5t93 233
t31 295.5q0 128 -19.5 239t-60.5 204t-101 159t-145 102.5t-189 36.5q-129 0 -227.5 -56t-159.5 -157t-91.5 -234t-30.5 -294q0 -160 30.5 -293t91.5 -233t159.5 -156t227.5 -56zM834 1757l-302 -155l-18 20l313 313h13l313 -313l-18 -20z" />
    <glyph glyph-name="Otilde" unicode="&#xd5;" horiz-adv-x="1667" 
d="M831 -31q-143 0 -282.5 61.5t-247 164.5t-174 249t-66.5 304t66.5 304.5t174 250t247 165.5t282.5 62q114 0 228 -39t211.5 -111.5t173 -168t119 -216t43.5 -247.5t-43.5 -247t-119 -215t-173 -167t-211.5 -111t-228 -39zM831 10q130 0 229.5 55t161.5 154.5t93 233
t31 295.5q0 128 -19.5 239t-60.5 204t-101 159t-145 102.5t-189 36.5q-129 0 -227.5 -56t-159.5 -157t-91.5 -234t-30.5 -294q0 -160 30.5 -293t91.5 -233t159.5 -156t227.5 -56zM674 1853q63 0 175 -40.5t177 -40.5q55 0 83.5 22.5t51.5 87.5l21 -4q-2 -42 -6 -71
t-15.5 -67.5t-30.5 -62t-54 -40.5t-83 -17q-63 0 -175 41t-177 41q-55 0 -83.5 -23t-51.5 -88l-21 4q2 42 6 71t15.5 67.5t30.5 62t54 40.5t83 17z" />
    <glyph glyph-name="Odieresis" unicode="&#xd6;" horiz-adv-x="1667" 
d="M831 -31q-143 0 -282.5 61.5t-247 164.5t-174 249t-66.5 304t66.5 304.5t174 250t247 165.5t282.5 62q114 0 228 -39t211.5 -111.5t173 -168t119 -216t43.5 -247.5t-43.5 -247t-119 -215t-173 -167t-211.5 -111t-228 -39zM831 10q130 0 229.5 55t161.5 154.5t93 233
t31 295.5q0 128 -19.5 239t-60.5 204t-101 159t-145 102.5t-189 36.5q-129 0 -227.5 -56t-159.5 -157t-91.5 -234t-30.5 -294q0 -160 30.5 -293t91.5 -233t159.5 -156t227.5 -56zM1202 1778q0 -51 -36 -87t-87 -36t-87 36t-36 87t36 88t87 37t87 -37t36 -88zM711 1778
q0 -51 -36 -87t-87 -36t-87 36t-36 87t36 88t87 37t87 -37t36 -88z" />
    <glyph glyph-name="multiply" unicode="&#xd7;" horiz-adv-x="966" 
d="M483 594l-346 -346l-35 35l347 346l-347 346l35 35l346 -346l346 346l35 -35l-346 -346l346 -346l-35 -35z" />
    <glyph glyph-name="Oslash" unicode="&#xd8;" horiz-adv-x="1667" 
d="M322 748q0 -342 129 -537l733 1116q-128 162 -353 162q-129 0 -227.5 -56t-159.5 -157t-91.5 -234t-30.5 -294zM831 10q130 0 229.5 55t161.5 154.5t93 233t31 295.5q0 338 -132 538l-733 -1116q131 -160 350 -160zM831 -31q-209 0 -401 125l-100 -153h-58l119 180
q-148 110 -239 275.5t-91 351.5q0 158 66.5 304.5t174 250t247 165.5t282.5 62q212 0 404 -125l102 156h58l-121 -185q151 -112 241.5 -276t90.5 -352q0 -127 -43.5 -247t-119 -215t-173 -167t-211.5 -111t-228 -39z" />
    <glyph glyph-name="Ugrave" unicode="&#xd9;" horiz-adv-x="1425" 
d="M733 -31q-93 0 -174.5 18t-153 58t-122.5 99.5t-80 147t-29 195.5v641q0 129 -16 201t-66 166v4h400v-4q-43 -82 -62.5 -163.5t-19.5 -203.5v-634q0 -474 381 -474q89 0 160 27t117.5 72.5t77.5 109t44.5 134t13.5 149.5v580q0 139 -28.5 218.5t-118.5 184.5v4h332l10 -4
q-90 -105 -119 -184.5t-29 -218.5v-578q0 -116 -26.5 -210t-84.5 -171.5t-161.5 -120.5t-245.5 -43zM969 1602l-502 186l104 176l410 -342z" />
    <glyph glyph-name="Uacute" unicode="&#xda;" horiz-adv-x="1425" 
d="M733 -31q-93 0 -174.5 18t-153 58t-122.5 99.5t-80 147t-29 195.5v641q0 129 -16 201t-66 166v4h400v-4q-43 -82 -62.5 -163.5t-19.5 -203.5v-634q0 -474 381 -474q89 0 160 27t117.5 72.5t77.5 109t44.5 134t13.5 149.5v580q0 139 -28.5 218.5t-118.5 184.5v4h332l10 -4
q-90 -105 -119 -184.5t-29 -218.5v-578q0 -116 -26.5 -210t-84.5 -171.5t-161.5 -120.5t-245.5 -43zM1010 1964l106 -176l-493 -186l-13 20z" />
    <glyph glyph-name="Ucircumflex" unicode="&#xdb;" horiz-adv-x="1425" 
d="M733 -31q-93 0 -174.5 18t-153 58t-122.5 99.5t-80 147t-29 195.5v641q0 129 -16 201t-66 166v4h400v-4q-43 -82 -62.5 -163.5t-19.5 -203.5v-634q0 -474 381 -474q89 0 160 27t117.5 72.5t77.5 109t44.5 134t13.5 149.5v580q0 139 -28.5 218.5t-118.5 184.5v4h332l10 -4
q-90 -105 -119 -184.5t-29 -218.5v-578q0 -116 -26.5 -210t-84.5 -171.5t-161.5 -120.5t-245.5 -43zM791 1757l-302 -155l-18 20l313 313h13l313 -313l-18 -20z" />
    <glyph glyph-name="Udieresis" unicode="&#xdc;" horiz-adv-x="1425" 
d="M733 -31q-93 0 -174.5 18t-153 58t-122.5 99.5t-80 147t-29 195.5v641q0 129 -16 201t-66 166v4h400v-4q-43 -82 -62.5 -163.5t-19.5 -203.5v-634q0 -474 381 -474q89 0 160 27t117.5 72.5t77.5 109t44.5 134t13.5 149.5v580q0 139 -28.5 218.5t-118.5 184.5v4h332l10 -4
q-90 -105 -119 -184.5t-29 -218.5v-578q0 -116 -26.5 -210t-84.5 -171.5t-161.5 -120.5t-245.5 -43zM1159 1778q0 -51 -36 -87t-87 -36t-87 36t-36 87t36 88t87 37t87 -37t36 -88zM668 1778q0 -51 -36 -87t-87 -36t-87 36t-36 87t36 88t87 37t87 -37t36 -88z" />
    <glyph glyph-name="Yacute" unicode="&#xdd;" horiz-adv-x="1230" 
d="M414 4q49 77 65.5 139t16.5 166v373l-297 530q-62 108 -114 174t-112 109v4h465v-4q-40 -34 -35.5 -107.5t46.5 -150.5l268 -494l203 355q129 228 32 397v4h305v-4q-80 -75 -131.5 -145t-130.5 -207l-264 -459v-375q0 -107 16 -166.5t66 -138.5v-4h-399v4zM946 1964
l107 -176l-494 -186l-12 20z" />
    <glyph glyph-name="Thorn" unicode="&#xde;" horiz-adv-x="1163" 
d="M500 0h-400v4q50 94 66 166t16 201v757q0 129 -16 201t-66 166v4h400v-4q-49 -88 -65.5 -158.5t-16.5 -185.5h166q156 0 268.5 -29.5t174 -81.5t89 -114t27.5 -138q0 -192 -153.5 -305.5t-436.5 -113.5h-135q0 -127 16 -198t66 -167v-4zM549 1110h-53q-12 0 -78 -4v-696
h127q184 0 272 100.5t88 273.5q0 326 -356 326z" />
    <glyph glyph-name="germandbls" unicode="&#xdf;" horiz-adv-x="1210" 
d="M831 -31q-140 0 -272 54l-20 262l12 4q78 -154 142 -218.5t151 -64.5q81 0 122.5 47.5t41.5 118.5q0 47 -19.5 85t-51.5 62.5t-72.5 48t-83 42t-83 44t-72.5 53.5t-51.5 71t-19.5 96q0 47 16.5 87t43 71t58 61t63.5 64.5t58.5 74t43 97t16.5 126.5q0 80 -20.5 145.5
t-70.5 110.5t-124 45q-120 0 -186 -117.5t-66 -338.5v-1100h-254v4q27 42 38 104t11 177v655h-129v37h129v33q0 264 130 423.5t345 159.5q72 0 136.5 -19t117.5 -56t84 -98t31 -138q0 -66 -23.5 -122t-58.5 -92.5t-76.5 -73t-76.5 -64.5t-58.5 -65.5t-23.5 -78.5
q0 -42 26 -76t67.5 -58.5t91.5 -48.5t100.5 -53.5t92 -66t67.5 -94t26 -129.5q0 -77 -28 -135t-78 -91t-110.5 -49t-132.5 -16z" />
    <glyph glyph-name="agrave" unicode="&#xe0;" horiz-adv-x="966" 
d="M399 80q105 0 168 59v312q-317 -72 -317 -240q0 -61 39 -96t110 -35zM741 -25q-74 0 -116.5 35.5t-53.5 93.5q-52 -60 -127.5 -97.5t-167.5 -37.5q-97 0 -158 45t-61 129q0 60 33 112t84.5 88.5t120.5 66t136 47t136 28.5v224q0 86 -42.5 131t-145.5 45q-161 0 -273 -92
l-10 12q65 94 171 148.5t237 54.5q142 0 205 -69t63 -175v-584q0 -90 80 -90q51 0 100 39l4 -4q-75 -150 -215 -150zM563 1090l-411 299l155 145l273 -428z" />
    <glyph glyph-name="aacute" unicode="&#xe1;" horiz-adv-x="966" 
d="M399 80q105 0 168 59v312q-317 -72 -317 -240q0 -61 39 -96t110 -35zM741 -25q-74 0 -116.5 35.5t-53.5 93.5q-52 -60 -127.5 -97.5t-167.5 -37.5q-97 0 -158 45t-61 129q0 60 33 112t84.5 88.5t120.5 66t136 47t136 28.5v224q0 86 -42.5 131t-145.5 45q-161 0 -273 -92
l-10 12q65 94 171 148.5t237 54.5q142 0 205 -69t63 -175v-584q0 -90 80 -90q51 0 100 39l4 -4q-75 -150 -215 -150zM578 1534l149 -145l-405 -279l-17 16z" />
    <glyph glyph-name="acircumflex" unicode="&#xe2;" horiz-adv-x="966" 
d="M399 80q105 0 168 59v312q-317 -72 -317 -240q0 -61 39 -96t110 -35zM741 -25q-74 0 -116.5 35.5t-53.5 93.5q-52 -60 -127.5 -97.5t-167.5 -37.5q-97 0 -158 45t-61 129q0 60 33 112t84.5 88.5t120.5 66t136 47t136 28.5v224q0 86 -42.5 131t-145.5 45q-161 0 -273 -92
l-10 12q65 94 171 148.5t237 54.5q142 0 205 -69t63 -175v-584q0 -90 80 -90q51 0 100 39l4 -4q-75 -150 -215 -150zM442 1284l-268 -178l-18 20l280 347h13l280 -347l-18 -20z" />
    <glyph glyph-name="atilde" unicode="&#xe3;" horiz-adv-x="966" 
d="M399 80q105 0 168 59v312q-317 -72 -317 -240q0 -61 39 -96t110 -35zM741 -25q-74 0 -116.5 35.5t-53.5 93.5q-52 -60 -127.5 -97.5t-167.5 -37.5q-97 0 -158 45t-61 129q0 60 33 112t84.5 88.5t120.5 66t136 47t136 28.5v224q0 86 -42.5 131t-145.5 45q-161 0 -273 -92
l-10 12q65 94 171 148.5t237 54.5q142 0 205 -69t63 -175v-584q0 -90 80 -90q51 0 100 39l4 -4q-75 -150 -215 -150zM309 1393q41 0 145 -32t154 -32q47 0 75.5 20.5t45.5 67.5l21 -2q-3 -37 -11 -72.5t-26 -75.5t-52.5 -64.5t-82.5 -24.5q-43 0 -148.5 32.5t-155.5 32.5
q-48 0 -75.5 -20.5t-40.5 -67.5l-23 2q2 28 7 55.5t17.5 61.5t30.5 59t49 42.5t70 17.5z" />
    <glyph glyph-name="adieresis" unicode="&#xe4;" horiz-adv-x="966" 
d="M399 80q105 0 168 59v312q-317 -72 -317 -240q0 -61 39 -96t110 -35zM741 -25q-74 0 -116.5 35.5t-53.5 93.5q-52 -60 -127.5 -97.5t-167.5 -37.5q-97 0 -158 45t-61 129q0 60 33 112t84.5 88.5t120.5 66t136 47t136 28.5v224q0 86 -42.5 131t-145.5 45q-161 0 -273 -92
l-10 12q65 94 171 148.5t237 54.5q142 0 205 -69t63 -175v-584q0 -90 80 -90q51 0 100 39l4 -4q-75 -150 -215 -150zM770 1348q0 -51 -36 -87t-87 -36t-87 36t-36 87t36 88t87 37t87 -37t36 -88zM360 1348q0 -51 -35.5 -87t-86.5 -36t-87 36t-36 87t36 88t87 37t86.5 -37
t35.5 -88z" />
    <glyph glyph-name="aring" unicode="&#xe5;" horiz-adv-x="966" 
d="M399 80q105 0 168 59v312q-317 -72 -317 -240q0 -61 39 -96t110 -35zM741 -25q-74 0 -116.5 35.5t-53.5 93.5q-52 -60 -127.5 -97.5t-167.5 -37.5q-97 0 -158 45t-61 129q0 60 33 112t84.5 88.5t120.5 66t136 47t136 28.5v224q0 86 -42.5 131t-145.5 45q-161 0 -273 -92
l-10 12q65 94 171 148.5t237 54.5q142 0 205 -69t63 -175v-584q0 -90 80 -90q51 0 100 39l4 -4q-75 -150 -215 -150zM258 1337q0 77 52.5 126.5t131.5 49.5t132 -49.5t53 -126.5t-53 -125.5t-132 -48.5t-131.5 48.5t-52.5 125.5zM338 1337q0 -63 27.5 -99t76.5 -36t77 36
t28 99q0 64 -28 102t-77 38t-76.5 -38t-27.5 -102z" />
    <glyph glyph-name="ae" unicode="&#xe6;" horiz-adv-x="1462" 
d="M1024 -31q-132 0 -230.5 55t-156.5 156q-124 -211 -350 -211q-103 0 -166.5 44.5t-63.5 129.5q0 60 33 112t84.5 88.5t120.5 66t136 47t136 28.5v224q0 86 -42.5 131t-145.5 45q-161 0 -273 -92l-10 12q65 94 171 148.5t237 54.5q177 0 231 -125q128 125 291 125
q86 0 160 -37t120.5 -95.5t71.5 -129t21 -138.5h-629q-2 -10 -2 -30v-31q0 -194 97 -299t265 -105q77 0 150 22.5t119 72.5l12 -9q-40 -121 -138 -190.5t-249 -69.5zM1024 971q-97 0 -165 -90.5t-85 -239.5l416 10v23q0 153 -40.5 225t-125.5 72zM399 80q71 0 129.5 33
t94.5 90q-53 106 -56 248q-317 -72 -317 -240q0 -61 39 -96t110 -35z" />
    <glyph glyph-name="ccedilla" unicode="&#xe7;" horiz-adv-x="952" 
d="M332 -504q73 32 120.5 72t47.5 98q0 15 -3.5 27t-11 21.5t-15 16.5t-20.5 12.5t-21 8.5t-23.5 6t-22 4t-21 3t-16.5 2l-4 4l123 200q-79 6 -146 33q-126 56 -197 177t-71 290q0 151 73.5 275.5t192 193t252.5 68.5q161 0 271 -54l26 -227l-18 -4q-48 86 -139.5 167
t-169.5 81q-131 0 -209 -112t-78 -302q0 -199 96 -306.5t260 -107.5q80 0 153 23.5t120 71.5l12 -9q-41 -118 -135 -188q-89 -69 -238 -72l-59 -92q83 -18 131.5 -61t48.5 -109q0 -165 -303 -229z" />
    <glyph glyph-name="egrave" unicode="&#xe8;" horiz-adv-x="968" 
d="M918 272q-44 -135 -148.5 -219t-257.5 -84q-134 0 -239.5 65.5t-163.5 180t-58 256.5q0 95 27.5 181t74.5 150t107.5 111t128 71t135.5 24q114 0 208 -63t141 -154.5t42 -182.5h-657v-39q0 -211 95.5 -318.5t262.5 -107.5q176 0 289 138zM516 971q-112 0 -176.5 -91
t-77.5 -239l445 10v23q0 153 -47 225t-144 72zM616 1090l-411 299l155 145l273 -428z" />
    <glyph glyph-name="eacute" unicode="&#xe9;" horiz-adv-x="968" 
d="M918 272q-44 -135 -148.5 -219t-257.5 -84q-134 0 -239.5 65.5t-163.5 180t-58 256.5q0 95 27.5 181t74.5 150t107.5 111t128 71t135.5 24q114 0 208 -63t141 -154.5t42 -182.5h-657v-39q0 -211 95.5 -318.5t262.5 -107.5q176 0 289 138zM516 971q-112 0 -176.5 -91
t-77.5 -239l445 10v23q0 153 -47 225t-144 72zM631 1534l149 -145l-405 -279l-17 16z" />
    <glyph glyph-name="ecircumflex" unicode="&#xea;" horiz-adv-x="968" 
d="M918 272q-44 -135 -148.5 -219t-257.5 -84q-134 0 -239.5 65.5t-163.5 180t-58 256.5q0 95 27.5 181t74.5 150t107.5 111t128 71t135.5 24q114 0 208 -63t141 -154.5t42 -182.5h-657v-39q0 -211 95.5 -318.5t262.5 -107.5q176 0 289 138zM516 971q-112 0 -176.5 -91
t-77.5 -239l445 10v23q0 153 -47 225t-144 72zM496 1284l-269 -178l-18 20l280 347h13l280 -347l-18 -20z" />
    <glyph glyph-name="edieresis" unicode="&#xeb;" horiz-adv-x="968" 
d="M918 272q-44 -135 -148.5 -219t-257.5 -84q-134 0 -239.5 65.5t-163.5 180t-58 256.5q0 95 27.5 181t74.5 150t107.5 111t128 71t135.5 24q114 0 208 -63t141 -154.5t42 -182.5h-657v-39q0 -211 95.5 -318.5t262.5 -107.5q176 0 289 138zM516 971q-112 0 -176.5 -91
t-77.5 -239l445 10v23q0 153 -47 225t-144 72zM823 1348q0 -51 -36 -87t-87 -36t-86.5 36t-35.5 87t35.5 88t86.5 37t87 -37t36 -88zM414 1348q0 -51 -36 -87t-87 -36t-87 36t-36 87t36 88t87 37t87 -37t36 -88z" />
    <glyph glyph-name="igrave" unicode="&#xec;" horiz-adv-x="495" 
d="M104 4q24 102 36 187t12 206v234q0 160 -93 264v14l297 109v-619q0 -152 7.5 -234.5t37.5 -160.5v-4h-297v4zM373 1090l-412 299l156 145l272 -428z" />
    <glyph glyph-name="iacute" unicode="&#xed;" horiz-adv-x="495" 
d="M104 4q24 102 36 187t12 206v234q0 160 -93 264v14l297 109v-619q0 -152 7.5 -234.5t37.5 -160.5v-4h-297v4zM387 1534l150 -145l-406 -279l-16 16z" />
    <glyph glyph-name="icircumflex" unicode="&#xee;" horiz-adv-x="495" 
d="M104 4q24 102 36 187t12 206v234q0 160 -93 264v14l297 109v-619q0 -152 7.5 -234.5t37.5 -160.5v-4h-297v4zM252 1284l-268 -178l-19 20l281 347h12l281 -347l-19 -20z" />
    <glyph glyph-name="idieresis" unicode="&#xef;" horiz-adv-x="495" 
d="M551 1348q0 -51 -36 -87t-87 -36t-87 36t-36 87t36 88t87 37t87 -37t36 -88zM199 1348q0 -51 -36 -87t-87 -36t-87 36t-36 87t36 88t87 37t87 -37t36 -88zM104 4q24 102 36 187t12 206v234q0 160 -93 264v14l297 109v-619q0 -152 7.5 -234.5t37.5 -160.5v-4h-297v4z" />
    <glyph glyph-name="eth" unicode="&#xf0;" horiz-adv-x="1169" 
d="M571 -31q-223 0 -371.5 150.5t-148.5 386.5q0 109 40 201.5t106 152.5t151 93.5t176 33.5q227 0 330 -192q-65 302 -233 512l-254 -172l-25 32l252 170q-130 152 -313 236l8 20q234 -83 387 -200l229 153l25 -33l-219 -147q202 -163 299.5 -373t97.5 -413
q0 -172 -65.5 -310.5t-189 -219.5t-282.5 -81zM567 6q82 0 144.5 42t99 115t54.5 162.5t18 192.5q0 84 -11 160q-52 134 -135 199t-184 65q-130 0 -206.5 -114t-76.5 -355q0 -227 77.5 -347t219.5 -120z" />
    <glyph glyph-name="ntilde" unicode="&#xf1;" horiz-adv-x="1116" 
d="M401 0h-297v4q28 84 38 168t10 225v242q0 162 -93 266v4l289 109v-197l8 -2q75 91 152.5 140t177.5 49q139 0 214 -79t75 -218v-312q0 -153 8.5 -233.5t38.5 -161.5v-4h-297v4q45 145 45 393v267q0 96 -45.5 157.5t-142.5 61.5q-130 0 -226 -103v-381q0 -149 8 -232.5
t37 -162.5v-4zM426 1393q42 0 145 -32t154 -32q47 0 75.5 20.5t45.5 67.5l20 -2q-3 -37 -11 -72.5t-26 -75.5t-52.5 -64.5t-82.5 -24.5q-43 0 -148 32.5t-155 32.5q-48 0 -76 -20.5t-41 -67.5l-22 2q2 28 7 55.5t17.5 61.5t30.5 59t49 42.5t70 17.5z" />
    <glyph glyph-name="ograve" unicode="&#xf2;" horiz-adv-x="1153" 
d="M575 -31q-141 0 -262.5 71.5t-191.5 191t-70 255.5q0 134 71 254.5t192.5 193.5t260.5 73q105 0 203 -43.5t168.5 -115t113 -167t42.5 -195.5q0 -102 -42.5 -197t-113 -165.5t-168.5 -113t-203 -42.5zM575 10q76 0 135.5 39t95 107t53.5 151.5t18 179.5q0 129 -31 234.5
t-101 175.5t-170 70q-99 0 -168.5 -70t-100 -175.5t-30.5 -234.5q0 -96 17.5 -179.5t52.5 -151.5t94 -107t135 -39zM696 1090l-411 299l155 145l273 -428z" />
    <glyph glyph-name="oacute" unicode="&#xf3;" horiz-adv-x="1153" 
d="M575 -31q-141 0 -262.5 71.5t-191.5 191t-70 255.5q0 134 71 254.5t192.5 193.5t260.5 73q105 0 203 -43.5t168.5 -115t113 -167t42.5 -195.5q0 -102 -42.5 -197t-113 -165.5t-168.5 -113t-203 -42.5zM575 10q76 0 135.5 39t95 107t53.5 151.5t18 179.5q0 129 -31 234.5
t-101 175.5t-170 70q-99 0 -168.5 -70t-100 -175.5t-30.5 -234.5q0 -96 17.5 -179.5t52.5 -151.5t94 -107t135 -39zM711 1534l149 -145l-405 -279l-17 16z" />
    <glyph glyph-name="ocircumflex" unicode="&#xf4;" horiz-adv-x="1153" 
d="M575 -31q-141 0 -262.5 71.5t-191.5 191t-70 255.5q0 134 71 254.5t192.5 193.5t260.5 73q105 0 203 -43.5t168.5 -115t113 -167t42.5 -195.5q0 -102 -42.5 -197t-113 -165.5t-168.5 -113t-203 -42.5zM575 10q76 0 135.5 39t95 107t53.5 151.5t18 179.5q0 129 -31 234.5
t-101 175.5t-170 70q-99 0 -168.5 -70t-100 -175.5t-30.5 -234.5q0 -96 17.5 -179.5t52.5 -151.5t94 -107t135 -39zM575 1284l-268 -178l-18 20l280 347h13l280 -347l-18 -20z" />
    <glyph glyph-name="otilde" unicode="&#xf5;" horiz-adv-x="1153" 
d="M575 -31q-141 0 -262.5 71.5t-191.5 191t-70 255.5q0 134 71 254.5t192.5 193.5t260.5 73q105 0 203 -43.5t168.5 -115t113 -167t42.5 -195.5q0 -102 -42.5 -197t-113 -165.5t-168.5 -113t-203 -42.5zM575 10q76 0 135.5 39t95 107t53.5 151.5t18 179.5q0 129 -31 234.5
t-101 175.5t-170 70q-99 0 -168.5 -70t-100 -175.5t-30.5 -234.5q0 -96 17.5 -179.5t52.5 -151.5t94 -107t135 -39zM442 1393q41 0 144.5 -32t154.5 -32q47 0 75.5 20.5t45.5 67.5l21 -2q-3 -37 -11 -72.5t-26 -75.5t-52.5 -64.5t-82.5 -24.5q-43 0 -148 32.5t-155 32.5
q-48 0 -76 -20.5t-41 -67.5l-23 2q2 28 7 55.5t17.5 61.5t30.5 59t49 42.5t70 17.5z" />
    <glyph glyph-name="odieresis" unicode="&#xf6;" horiz-adv-x="1153" 
d="M575 -31q-141 0 -262.5 71.5t-191.5 191t-70 255.5q0 134 71 254.5t192.5 193.5t260.5 73q105 0 203 -43.5t168.5 -115t113 -167t42.5 -195.5q0 -102 -42.5 -197t-113 -165.5t-168.5 -113t-203 -42.5zM575 10q76 0 135.5 39t95 107t53.5 151.5t18 179.5q0 129 -31 234.5
t-101 175.5t-170 70q-99 0 -168.5 -70t-100 -175.5t-30.5 -234.5q0 -96 17.5 -179.5t52.5 -151.5t94 -107t135 -39zM903 1348q0 -51 -36 -87t-87 -36t-87 36t-36 87t36 88t87 37t87 -37t36 -88zM494 1348q0 -51 -36 -87t-87 -36t-87 36t-36 87t36 88t87 37t87 -37t36 -88z
" />
    <glyph glyph-name="divide" unicode="&#xf7;" horiz-adv-x="1118" 
d="M106 608v45h906v-45h-906zM559 154q-57 0 -97 40.5t-40 96.5q0 59 40 99t97 40q56 0 96.5 -40t40.5 -99q0 -55 -41 -96t-96 -41zM559 817q-57 0 -97 40.5t-40 96.5q0 60 40 100t97 40q56 0 96.5 -40.5t40.5 -99.5q0 -56 -41 -96.5t-96 -40.5z" />
    <glyph glyph-name="oslash" unicode="&#xf8;" horiz-adv-x="1153" 
d="M575 -31q-149 0 -276 78l-127 -184h-55l145 211q-100 73 -156 181.5t-55 231.5q0 134 71 254.5t192.5 193.5t260.5 73q143 0 275 -82l129 188h55l-147 -213q100 -75 157.5 -184t57.5 -230q0 -102 -42.5 -197t-113 -165.5t-168.5 -113t-203 -42.5zM575 10q76 0 135.5 39
t95 107t53.5 151.5t18 179.5q0 177 -62 310l-457 -662q77 -125 217 -125zM276 487q0 -178 58 -309l457 662q-78 127 -216 127q-99 0 -168.5 -70t-100 -175.5t-30.5 -234.5z" />
    <glyph glyph-name="ugrave" unicode="&#xf9;" horiz-adv-x="1073" 
d="M715 229q-31 -57 -59.5 -98t-68.5 -81t-91 -60.5t-111 -20.5q-128 0 -196 92.5t-68 255.5v437q0 140 -86 219v4h291v-627q0 -108 46.5 -162.5t133.5 -54.5q131 0 199 129v492q0 144 -91 219v4h295v-629q0 -107 10.5 -165.5t27.5 -84t54 -53.5v-4l-286 -66v254zM639 1090
l-412 299l156 145l272 -428z" />
    <glyph glyph-name="uacute" unicode="&#xfa;" horiz-adv-x="1073" 
d="M715 229q-31 -57 -59.5 -98t-68.5 -81t-91 -60.5t-111 -20.5q-128 0 -196 92.5t-68 255.5v437q0 140 -86 219v4h291v-627q0 -108 46.5 -162.5t133.5 -54.5q131 0 199 129v492q0 144 -91 219v4h295v-629q0 -107 10.5 -165.5t27.5 -84t54 -53.5v-4l-286 -66v254zM653 1534
l150 -145l-406 -279l-16 16z" />
    <glyph glyph-name="ucircumflex" unicode="&#xfb;" horiz-adv-x="1073" 
d="M715 229q-31 -57 -59.5 -98t-68.5 -81t-91 -60.5t-111 -20.5q-128 0 -196 92.5t-68 255.5v437q0 140 -86 219v4h291v-627q0 -108 46.5 -162.5t133.5 -54.5q131 0 199 129v492q0 144 -91 219v4h295v-629q0 -107 10.5 -165.5t27.5 -84t54 -53.5v-4l-286 -66v254zM518 1284
l-268 -178l-19 20l281 347h12l281 -347l-19 -20z" />
    <glyph glyph-name="udieresis" unicode="&#xfc;" horiz-adv-x="1073" 
d="M715 229q-31 -57 -59.5 -98t-68.5 -81t-91 -60.5t-111 -20.5q-128 0 -196 92.5t-68 255.5v437q0 140 -86 219v4h291v-627q0 -108 46.5 -162.5t133.5 -54.5q131 0 199 129v492q0 144 -91 219v4h295v-629q0 -107 10.5 -165.5t27.5 -84t54 -53.5v-4l-286 -66v254zM846 1348
q0 -51 -36 -87t-87 -36t-87 36t-36 87t36 88t87 37t87 -37t36 -88zM436 1348q0 -51 -36 -87t-87 -36t-87 36t-36 87t36 88t87 37t87 -37t36 -88z" />
    <glyph glyph-name="yacute" unicode="&#xfd;" horiz-adv-x="919" 
d="M80 -264q265 0 344 215l2 8l-291 774q-60 163 -125 240v4h344v-4q-13 -22 -19.5 -55.5t-1 -89.5t28.5 -117l173 -461l174 465q21 54 18 106.5t-16 88.5t-33 63v4h231v-4q-54 -57 -87 -111t-64 -141l-318 -821q-41 -103 -82 -172t-86 -108t-88.5 -57t-99.5 -24zM659 1534
l150 -145l-406 -279l-16 16z" />
    <glyph glyph-name="thorn" unicode="&#xfe;" horiz-adv-x="1148" 
d="M602 6q122 0 196 123t74 332q0 211 -79.5 312t-219.5 101q-132 0 -227 -83v-412q0 -82 16 -148t41.5 -107t60 -68.5t68.5 -38.5t70 -11zM391 -461h-297v4q28 83 37.5 167t9.5 227v1280q0 161 -92 264v4l297 108v-757h4q151 172 348 172q175 0 282 -142t107 -366
q0 -111 -32 -206.5t-93 -168.5t-159 -114.5t-221 -41.5q-140 0 -236 47v-77q0 -150 8 -233.5t37 -162.5v-4z" />
    <glyph glyph-name="ydieresis" unicode="&#xff;" horiz-adv-x="919" 
d="M80 -264q265 0 344 215l2 8l-291 774q-60 163 -125 240v4h344v-4q-13 -22 -19.5 -55.5t-1 -89.5t28.5 -117l173 -461l174 465q21 54 18 106.5t-16 88.5t-33 63v4h231v-4q-54 -57 -87 -111t-64 -141l-318 -821q-41 -103 -82 -172t-86 -108t-88.5 -57t-99.5 -24zM825 1348
q0 -51 -36 -87t-87 -36t-86.5 36t-35.5 87t35.5 88t86.5 37t87 -37t36 -88zM416 1348q0 -51 -36 -87t-87 -36t-87 36t-36 87t36 88t87 37t87 -37t36 -88z" />
    <glyph glyph-name="Amacron" unicode="&#x100;" horiz-adv-x="1302" 
d="M553 1198l-225 -592h448zM272 0h-276v4q68 72 106 144.5t88 207.5l441 1160h41l448 -1182q48 -130 89.5 -202t97.5 -128v-4h-408v4q28 40 23.5 134.5t-45.5 205.5l-84 221h-482l-43 -114q-33 -84 -44.5 -159.5t-4 -130.5t20.5 -91.5t32 -65.5v-4zM332 1808h641v-102h-641
v102z" />
    <glyph glyph-name="amacron" unicode="&#x101;" horiz-adv-x="966" 
d="M399 80q105 0 168 59v312q-317 -72 -317 -240q0 -61 39 -96t110 -35zM741 -25q-74 0 -116.5 35.5t-53.5 93.5q-52 -60 -127.5 -97.5t-167.5 -37.5q-97 0 -158 45t-61 129q0 60 33 112t84.5 88.5t120.5 66t136 47t136 28.5v224q0 86 -42.5 131t-145.5 45q-161 0 -273 -92
l-10 12q65 94 171 148.5t237 54.5q142 0 205 -69t63 -175v-584q0 -90 80 -90q51 0 100 39l4 -4q-75 -150 -215 -150zM154 1321h579v-102h-579v102z" />
    <glyph glyph-name="Abreve" unicode="&#x102;" horiz-adv-x="1302" 
d="M553 1198l-225 -592h448zM272 0h-276v4q68 72 106 144.5t88 207.5l441 1160h41l448 -1182q48 -130 89.5 -202t97.5 -128v-4h-408v4q28 40 23.5 134.5t-45.5 205.5l-84 221h-482l-43 -114q-33 -84 -44.5 -159.5t-4 -130.5t20.5 -91.5t32 -65.5v-4zM651 1759
q102 0 167.5 46t90.5 128h21q0 -48 -14.5 -98t-44.5 -98.5t-87.5 -79.5t-132.5 -31t-132 31t-86.5 79.5t-43.5 98.5t-14 98h20q26 -82 90.5 -128t165.5 -46z" />
    <glyph glyph-name="abreve" unicode="&#x103;" horiz-adv-x="966" 
d="M399 80q105 0 168 59v312q-317 -72 -317 -240q0 -61 39 -96t110 -35zM741 -25q-74 0 -116.5 35.5t-53.5 93.5q-52 -60 -127.5 -97.5t-167.5 -37.5q-97 0 -158 45t-61 129q0 60 33 112t84.5 88.5t120.5 66t136 47t136 28.5v224q0 86 -42.5 131t-145.5 45q-161 0 -273 -92
l-10 12q65 94 171 148.5t237 54.5q142 0 205 -69t63 -175v-584q0 -90 80 -90q51 0 100 39l4 -4q-75 -150 -215 -150zM442 1294q86 0 140 39t73 109h21q0 -43 -12 -87t-37.5 -87.5t-74.5 -71t-114 -27.5q-53 0 -94.5 18.5t-66 47t-40.5 66.5t-22 72.5t-6 68.5h20
q19 -70 73 -109t140 -39z" />
    <glyph glyph-name="Aogonek" unicode="&#x104;" horiz-adv-x="1302" 
d="M817 -508q-85 0 -136.5 48t-51.5 124q0 80 57 149t168 154q39 31 54.5 66.5t15.5 85.5q0 100 -47 225l-84 221h-482l-43 -114q-33 -84 -44.5 -159.5t-4 -130.5t20.5 -91.5t32 -65.5v-4h-276v4q68 72 106 144.5t88 207.5l441 1160h41l448 -1182q48 -130 89.5 -202
t97.5 -128v-4h-349q-97 -80 -132 -140t-35 -118q0 -57 28.5 -89t83.5 -32q91 0 168 92l19 -14q-22 -41 -44 -72.5t-55.5 -64.5t-77.5 -51.5t-96 -18.5zM553 1198l-225 -592h448z" />
    <glyph glyph-name="aogonek" unicode="&#x105;" horiz-adv-x="966" 
d="M682 -508q-85 0 -136.5 48t-51.5 124q0 79 57 147.5t178 163.5q-68 4 -107.5 39t-50.5 90q-52 -60 -127.5 -97.5t-167.5 -37.5q-97 0 -158 45t-61 129q0 60 33 112t84.5 88.5t120.5 66t136 47t136 28.5v224q0 86 -42.5 131t-145.5 45q-161 0 -273 -92l-10 12
q65 94 171 148.5t237 54.5q142 0 205 -69t63 -175v-584q0 -90 80 -90q51 0 100 39l4 -4q-28 -66 -90 -113q-18 -13 -61.5 -36t-65.5 -42q-84 -70 -84 -184q0 -129 113 -129q91 0 168 92l18 -14q-22 -41 -44 -72.5t-55 -64.5t-77 -51.5t-96 -18.5zM399 80q105 0 168 59v312
q-317 -72 -317 -240q0 -61 39 -96t110 -35z" />
    <glyph glyph-name="Cacute" unicode="&#x106;" horiz-adv-x="1540" 
d="M1403 117q-44 -36 -213.5 -92t-349.5 -56q-231 0 -410 104.5t-274 281.5t-95 395q0 162 61.5 305.5t168.5 248t260 165.5t328 61q268 0 516 -98l41 -336l-17 -6q-108 152 -186.5 233t-170.5 123.5t-210 42.5q-111 0 -200 -36.5t-150.5 -101.5t-102 -158t-59 -203
t-18.5 -240t19 -241t60 -203.5t101 -158t146 -101.5t192 -36q85 0 159 23.5t132 64t112 104.5t96.5 133.5t87.5 162.5l17 -6zM1067 1964l107 -176l-494 -186l-12 20z" />
    <glyph glyph-name="cacute" unicode="&#x107;" horiz-adv-x="952" 
d="M893 229q-43 -122 -139 -191t-244 -69q-209 0 -334 137t-125 365q0 151 73.5 275.5t192 193t252.5 68.5q161 0 271 -54l26 -227l-18 -4q-48 86 -139.5 167t-169.5 81q-131 0 -209 -112t-78 -302q0 -199 96 -306.5t260 -107.5q80 0 153 23.5t120 71.5zM641 1534l150 -145
l-406 -279l-16 16z" />
    <glyph glyph-name="Ccircumflex" unicode="&#x108;" horiz-adv-x="1540" 
d="M1403 117q-44 -36 -213.5 -92t-349.5 -56q-231 0 -410 104.5t-274 281.5t-95 395q0 162 61.5 305.5t168.5 248t260 165.5t328 61q268 0 516 -98l41 -336l-17 -6q-108 152 -186.5 233t-170.5 123.5t-210 42.5q-111 0 -200 -36.5t-150.5 -101.5t-102 -158t-59 -203
t-18.5 -240t19 -241t60 -203.5t101 -158t146 -101.5t192 -36q85 0 159 23.5t132 64t112 104.5t96.5 133.5t87.5 162.5l17 -6zM848 1757l-301 -155l-19 20l314 313h12l313 -313l-18 -20z" />
    <glyph glyph-name="ccircumflex" unicode="&#x109;" horiz-adv-x="952" 
d="M893 229q-43 -122 -139 -191t-244 -69q-209 0 -334 137t-125 365q0 151 73.5 275.5t192 193t252.5 68.5q161 0 271 -54l26 -227l-18 -4q-48 86 -139.5 167t-169.5 81q-131 0 -209 -112t-78 -302q0 -199 96 -306.5t260 -107.5q80 0 153 23.5t120 71.5zM506 1284l-268 -178
l-19 20l281 347h12l281 -347l-19 -20z" />
    <glyph glyph-name="Cdotaccent" unicode="&#x10a;" horiz-adv-x="1540" 
d="M1403 117q-44 -36 -213.5 -92t-349.5 -56q-231 0 -410 104.5t-274 281.5t-95 395q0 162 61.5 305.5t168.5 248t260 165.5t328 61q268 0 516 -98l41 -336l-17 -6q-108 152 -186.5 233t-170.5 123.5t-210 42.5q-111 0 -200 -36.5t-150.5 -101.5t-102 -158t-59 -203
t-18.5 -240t19 -241t60 -203.5t101 -158t146 -101.5t192 -36q85 0 159 23.5t132 64t112 104.5t96.5 133.5t87.5 162.5l17 -6zM971 1778q0 -51 -36 -87t-87 -36t-87 36t-36 87t36 88t87 37t87 -37t36 -88z" />
    <glyph glyph-name="cdotaccent" unicode="&#x10b;" horiz-adv-x="952" 
d="M893 229q-43 -122 -139 -191t-244 -69q-209 0 -334 137t-125 365q0 151 73.5 275.5t192 193t252.5 68.5q161 0 271 -54l26 -227l-18 -4q-48 86 -139.5 167t-169.5 81q-131 0 -209 -112t-78 -302q0 -199 96 -306.5t260 -107.5q80 0 153 23.5t120 71.5zM629 1348
q0 -51 -36 -87t-87 -36t-87 36t-36 87t36 88t87 37t87 -37t36 -88z" />
    <glyph glyph-name="Ccaron" unicode="&#x10c;" horiz-adv-x="1540" 
d="M1403 117q-44 -36 -213.5 -92t-349.5 -56q-231 0 -410 104.5t-274 281.5t-95 395q0 162 61.5 305.5t168.5 248t260 165.5t328 61q268 0 516 -98l41 -336l-17 -6q-108 152 -186.5 233t-170.5 123.5t-210 42.5q-111 0 -200 -36.5t-150.5 -101.5t-102 -158t-59 -203
t-18.5 -240t19 -241t60 -203.5t101 -158t146 -101.5t192 -36q85 0 159 23.5t132 64t112 104.5t96.5 133.5t87.5 162.5l17 -6zM842 1602l-314 313l19 20l301 -155l301 155l18 -20l-313 -313h-12z" />
    <glyph glyph-name="ccaron" unicode="&#x10d;" horiz-adv-x="952" 
d="M893 229q-43 -122 -139 -191t-244 -69q-209 0 -334 137t-125 365q0 151 73.5 275.5t192 193t252.5 68.5q161 0 271 -54l26 -227l-18 -4q-48 86 -139.5 167t-169.5 81q-131 0 -209 -112t-78 -302q0 -199 96 -306.5t260 -107.5q80 0 153 23.5t120 71.5zM219 1452l19 21
l268 -179l268 179l19 -21l-281 -346h-12z" />
    <glyph glyph-name="Dcaron" unicode="&#x10e;" horiz-adv-x="1542" 
d="M100 4q49 82 65.5 143.5t16.5 167.5v869q0 106 -16.5 167.5t-65.5 143.5v4q126 0 275.5 4t286.5 4q386 0 602.5 -195t216.5 -556q0 -366 -212 -561t-607 -195h-562v4zM418 1466v-1431l227 6q308 7 442 175.5t134 510.5q0 379 -142 559t-436 180h-225zM731 1602l-313 313
l18 20l301 -155l301 155l19 -20l-314 -313h-12z" />
    <glyph glyph-name="dcaron" unicode="&#x10f;" horiz-adv-x="1161" 
d="M561 106q149 0 242 111v526q-27 121 -90.5 174.5t-143.5 53.5q-134 0 -213.5 -127t-79.5 -330q0 -189 73 -298.5t212 -109.5zM805 176q-49 -88 -140.5 -147.5t-209.5 -59.5q-177 0 -285.5 134t-108.5 341q0 113 35 213.5t100 179.5t168.5 125t231.5 46q115 0 207 -37v243
q0 164 -92 267v4l297 108v-1157q0 -137 9.5 -212.5t28 -111t56.5 -67.5v-4l-291 -66v201h-6zM1145 1587h184l-211 -416l-20 5z" />
    <glyph glyph-name="Dcroat" unicode="&#x110;" horiz-adv-x="1554" 
d="M8 772h187v412q0 106 -16.5 167.5t-65.5 143.5v4q126 0 275 4t286 4q386 0 602.5 -195t216.5 -556q0 -366 -212 -561t-607 -195h-561v4q49 82 65.5 143.5t16.5 167.5v416h-187v41zM430 1466v-694h340v-41h-340v-696l227 6q308 7 442 175.5t134 510.5q0 379 -142 559
t-436 180h-225z" />
    <glyph glyph-name="dcroat" unicode="&#x111;" horiz-adv-x="1161" 
d="M805 176q-49 -88 -140.5 -147.5t-209.5 -59.5q-177 0 -285.5 134t-108.5 341q0 113 35 213.5t100 179.5t168.5 125t231.5 46q115 0 207 -37v215h-352v41h352q-3 95 -29 151q-29 66 -63 103v4l297 108v-366h122v-41h-122v-750q0 -137 9.5 -212.5t28 -111t56.5 -67.5v-4
l-291 -66v201h-6zM561 106q149 0 242 111v526q-27 121 -90.5 174.5t-143.5 53.5q-134 0 -213.5 -127t-79.5 -330q0 -189 73 -298.5t212 -109.5z" />
    <glyph glyph-name="Emacron" unicode="&#x112;" horiz-adv-x="1269" 
d="M1149 0h-1049v4q43 100 61.5 173.5t18.5 168.5v807q0 96 -18 167t-62 175v4h947l79 -364l-16 -7q-28 29 -85.5 96t-96 110t-86 80.5t-78.5 39.5l-346 14v-692h176q35 0 73 24.5t63 51.5t63.5 74.5t54.5 64.5h18v-463h-18q-13 14 -41.5 48t-49.5 57t-49.5 49t-57 39.5
t-56.5 13.5h-176v-704l364 14q48 2 100 26.5t94 58.5t91 87.5t81.5 95t74.5 99.5l16 -6zM313 1808h641v-102h-641v102z" />
    <glyph glyph-name="emacron" unicode="&#x113;" horiz-adv-x="968" 
d="M918 272q-44 -135 -148.5 -219t-257.5 -84q-134 0 -239.5 65.5t-163.5 180t-58 256.5q0 95 27.5 181t74.5 150t107.5 111t128 71t135.5 24q114 0 208 -63t141 -154.5t42 -182.5h-657v-39q0 -211 95.5 -318.5t262.5 -107.5q176 0 289 138zM516 971q-112 0 -176.5 -91
t-77.5 -239l445 10v23q0 153 -47 225t-144 72zM207 1321h579v-102h-579v102z" />
    <glyph glyph-name="Ebreve" unicode="&#x114;" horiz-adv-x="1269" 
d="M1149 0h-1049v4q43 100 61.5 173.5t18.5 168.5v807q0 96 -18 167t-62 175v4h947l79 -364l-16 -7q-28 29 -85.5 96t-96 110t-86 80.5t-78.5 39.5l-346 14v-692h176q35 0 73 24.5t63 51.5t63.5 74.5t54.5 64.5h18v-463h-18q-13 14 -41.5 48t-49.5 57t-49.5 49t-57 39.5
t-56.5 13.5h-176v-704l364 14q48 2 100 26.5t94 58.5t91 87.5t81.5 95t74.5 99.5l16 -6zM633 1759q102 0 167.5 46t90.5 128h20q0 -38 -8 -77t-28.5 -81t-51 -74.5t-80 -53.5t-110.5 -21q-75 0 -132 31t-87 79.5t-44 98.5t-14 98h21q26 -82 90.5 -128t165.5 -46z" />
    <glyph glyph-name="ebreve" unicode="&#x115;" horiz-adv-x="968" 
d="M918 272q-44 -135 -148.5 -219t-257.5 -84q-134 0 -239.5 65.5t-163.5 180t-58 256.5q0 95 27.5 181t74.5 150t107.5 111t128 71t135.5 24q114 0 208 -63t141 -154.5t42 -182.5h-657v-39q0 -211 95.5 -318.5t262.5 -107.5q176 0 289 138zM516 971q-112 0 -176.5 -91
t-77.5 -239l445 10v23q0 153 -47 225t-144 72zM496 1294q86 0 140 39t73 109h20q0 -43 -12 -87t-37 -87.5t-74 -71t-114 -27.5q-53 0 -94.5 18.5t-66.5 47t-41 66.5t-22 72.5t-6 68.5h21q19 -70 73 -109t140 -39z" />
    <glyph glyph-name="Edotaccent" unicode="&#x116;" horiz-adv-x="1269" 
d="M1149 0h-1049v4q43 100 61.5 173.5t18.5 168.5v807q0 96 -18 167t-62 175v4h947l79 -364l-16 -7q-28 29 -85.5 96t-96 110t-86 80.5t-78.5 39.5l-346 14v-692h176q35 0 73 24.5t63 51.5t63.5 74.5t54.5 64.5h18v-463h-18q-13 14 -41.5 48t-49.5 57t-49.5 49t-57 39.5
t-56.5 13.5h-176v-704l364 14q48 2 100 26.5t94 58.5t91 87.5t81.5 95t74.5 99.5l16 -6zM756 1778q0 -51 -36 -87t-87 -36t-87 36t-36 87t36 88t87 37t87 -37t36 -88z" />
    <glyph glyph-name="edotaccent" unicode="&#x117;" horiz-adv-x="968" 
d="M918 272q-44 -135 -148.5 -219t-257.5 -84q-134 0 -239.5 65.5t-163.5 180t-58 256.5q0 95 27.5 181t74.5 150t107.5 111t128 71t135.5 24q114 0 208 -63t141 -154.5t42 -182.5h-657v-39q0 -211 95.5 -318.5t262.5 -107.5q176 0 289 138zM516 971q-112 0 -176.5 -91
t-77.5 -239l445 10v23q0 153 -47 225t-144 72zM618 1348q0 -51 -35.5 -87t-86.5 -36t-87 36t-36 87t36 88t87 37t86.5 -37t35.5 -88z" />
    <glyph glyph-name="Eogonek" unicode="&#x118;" horiz-adv-x="1269" 
d="M1149 0h-193q-51 -39 -82 -78q-83 -93 -83 -180q0 -57 28.5 -89t83.5 -32q91 0 168 92l19 -14q-22 -41 -44 -72.5t-55.5 -64.5t-77.5 -51.5t-96 -18.5q-85 0 -136.5 48t-51.5 124q0 66 41 125t121 127q52 46 104 84h-795v4q43 100 61.5 173.5t18.5 168.5v807
q0 96 -18 167t-62 175v4h947l79 -364l-16 -7q-28 29 -85.5 96t-96 110t-86 80.5t-78.5 39.5l-346 14v-692h176q35 0 73 24.5t63 51.5t63.5 74.5t54.5 64.5h18v-463h-18q-13 14 -41.5 48t-49.5 57t-49.5 49t-57 39.5t-56.5 13.5h-176v-704l364 14q48 2 100 26.5t94 58.5
t91 87.5t81.5 95t74.5 99.5l16 -6z" />
    <glyph glyph-name="eogonek" unicode="&#x119;" horiz-adv-x="968" 
d="M795 -301q-22 -41 -44 -72.5t-55.5 -64.5t-77.5 -51.5t-96 -18.5q-86 0 -136 47t-50 127q0 90 63.5 162t180.5 143q-4 -2 -33 -2h-33q-214 0 -338.5 135t-124.5 363q0 121 39 224.5t103.5 172t147.5 106.5t173 38q71 0 134.5 -24t109 -65t78 -92.5t47.5 -108t12 -110.5
h-641q-2 -10 -2 -30v-31q0 -195 97.5 -299.5t266.5 -104.5q184 0 279 95l12 -9q-21 -59 -52.5 -103.5t-84.5 -84.5q-23 -17 -44 -30t-44.5 -25t-36.5 -19q-149 -83 -149 -221q0 -125 116 -125q87 0 164 92zM512 971q-101 0 -169 -89t-85 -239l428 8v23q0 297 -174 297z" />
    <glyph glyph-name="Ecaron" unicode="&#x11a;" horiz-adv-x="1269" 
d="M1149 0h-1049v4q43 100 61.5 173.5t18.5 168.5v807q0 96 -18 167t-62 175v4h947l79 -364l-16 -7q-28 29 -85.5 96t-96 110t-86 80.5t-78.5 39.5l-346 14v-692h176q35 0 73 24.5t63 51.5t63.5 74.5t54.5 64.5h18v-463h-18q-13 14 -41.5 48t-49.5 57t-49.5 49t-57 39.5
t-56.5 13.5h-176v-704l364 14q48 2 100 26.5t94 58.5t91 87.5t81.5 95t74.5 99.5l16 -6zM627 1602l-314 313l19 20l301 -155l301 155l18 -20l-313 -313h-12z" />
    <glyph glyph-name="ecaron" unicode="&#x11b;" horiz-adv-x="968" 
d="M918 272q-44 -135 -148.5 -219t-257.5 -84q-134 0 -239.5 65.5t-163.5 180t-58 256.5q0 95 27.5 181t74.5 150t107.5 111t128 71t135.5 24q114 0 208 -63t141 -154.5t42 -182.5h-657v-39q0 -211 95.5 -318.5t262.5 -107.5q176 0 289 138zM516 971q-112 0 -176.5 -91
t-77.5 -239l445 10v23q0 153 -47 225t-144 72zM209 1452l18 21l269 -179l268 179l18 -21l-280 -346h-13z" />
    <glyph glyph-name="Gcircumflex" unicode="&#x11c;" horiz-adv-x="1603" 
d="M1460 186q-6 -4 -54.5 -37.5t-73.5 -49t-84.5 -45.5t-109.5 -45t-125.5 -27.5t-154.5 -12.5q-237 0 -420 104.5t-280 281.5t-97 395q0 163 58 305.5t163.5 248t263.5 166t347 60.5q107 0 219.5 -19t166.5 -35t138 -44l41 -334l-18 -6q-148 215 -276 306t-290 91
q-138 0 -245 -57t-173 -158t-100 -234t-34 -292q0 -127 19 -236t60.5 -202.5t103 -159.5t151.5 -103t202 -37q172 0 274.5 84.5t102.5 241.5q0 109 -19.5 178.5t-74.5 161.5v4h401v-4q-50 -94 -66 -166t-16 -201v-123zM848 1757l-301 -155l-19 20l314 313h12l313 -313
l-18 -20z" />
    <glyph glyph-name="gcircumflex" unicode="&#x11d;" horiz-adv-x="1064" 
d="M483 346q95 0 140 84.5t45 226.5q0 94 -17.5 162t-60.5 110t-109 42q-182 0 -182 -314q0 -143 44.5 -227t139.5 -84zM1008 -135q-5 -138 -148 -232t-395 -94q-198 0 -323.5 63t-125.5 171q0 136 195 190q-117 44 -117 160q0 87 61.5 143.5t153.5 79.5q-98 44 -156.5 126
t-58.5 185q0 148 113 249.5t274 101.5q157 0 275 -103l260 152l4 -2v-183h-8l-228 5q88 -94 88 -220q0 -143 -114 -245.5t-275 -102.5q-68 0 -147 27q-90 -44 -90 -113q0 -53 50.5 -74t154.5 -26l204 -6q73 -2 136.5 -18.5t113.5 -46.5t77.5 -78t25.5 -109zM549 -389
q166 0 254 48t88 126q0 48 -35 78t-87 42t-128 15l-221 8q-103 3 -178 25q-52 -48 -52 -125q0 -104 93 -160.5t266 -56.5zM498 1284l-269 -178l-18 20l281 347h12l280 -347l-18 -20z" />
    <glyph glyph-name="Gbreve" unicode="&#x11e;" horiz-adv-x="1603" 
d="M1460 186q-6 -4 -54.5 -37.5t-73.5 -49t-84.5 -45.5t-109.5 -45t-125.5 -27.5t-154.5 -12.5q-237 0 -420 104.5t-280 281.5t-97 395q0 163 58 305.5t163.5 248t263.5 166t347 60.5q107 0 219.5 -19t166.5 -35t138 -44l41 -334l-18 -6q-148 215 -276 306t-290 91
q-138 0 -245 -57t-173 -158t-100 -234t-34 -292q0 -127 19 -236t60.5 -202.5t103 -159.5t151.5 -103t202 -37q172 0 274.5 84.5t102.5 241.5q0 109 -19.5 178.5t-74.5 161.5v4h401v-4q-50 -94 -66 -166t-16 -201v-123zM848 1759q102 0 167.5 46t90.5 128h20q0 -38 -8 -77
t-28.5 -81t-51 -74.5t-80 -53.5t-110.5 -21q-75 0 -132 31t-87 79.5t-44 98.5t-14 98h21q26 -82 90.5 -128t165.5 -46z" />
    <glyph glyph-name="gbreve" unicode="&#x11f;" horiz-adv-x="1064" 
d="M483 346q95 0 140 84.5t45 226.5q0 94 -17.5 162t-60.5 110t-109 42q-182 0 -182 -314q0 -143 44.5 -227t139.5 -84zM1008 -135q-5 -138 -148 -232t-395 -94q-198 0 -323.5 63t-125.5 171q0 136 195 190q-117 44 -117 160q0 87 61.5 143.5t153.5 79.5q-98 44 -156.5 126
t-58.5 185q0 148 113 249.5t274 101.5q157 0 275 -103l260 152l4 -2v-183h-8l-228 5q88 -94 88 -220q0 -143 -114 -245.5t-275 -102.5q-68 0 -147 27q-90 -44 -90 -113q0 -53 50.5 -74t154.5 -26l204 -6q73 -2 136.5 -18.5t113.5 -46.5t77.5 -78t25.5 -109zM549 -389
q166 0 254 48t88 126q0 48 -35 78t-87 42t-128 15l-221 8q-103 3 -178 25q-52 -48 -52 -125q0 -104 93 -160.5t266 -56.5zM500 1294q86 0 140 39t73 109h20q0 -43 -12 -87t-37 -87.5t-74 -71t-114 -27.5q-53 0 -94.5 18.5t-66.5 47t-41 66.5t-22 72.5t-6 68.5h21
q19 -70 73 -109t140 -39z" />
    <glyph glyph-name="Gdotaccent" unicode="&#x120;" horiz-adv-x="1603" 
d="M1460 186q-6 -4 -54.5 -37.5t-73.5 -49t-84.5 -45.5t-109.5 -45t-125.5 -27.5t-154.5 -12.5q-237 0 -420 104.5t-280 281.5t-97 395q0 163 58 305.5t163.5 248t263.5 166t347 60.5q107 0 219.5 -19t166.5 -35t138 -44l41 -334l-18 -6q-148 215 -276 306t-290 91
q-138 0 -245 -57t-173 -158t-100 -234t-34 -292q0 -127 19 -236t60.5 -202.5t103 -159.5t151.5 -103t202 -37q172 0 274.5 84.5t102.5 241.5q0 109 -19.5 178.5t-74.5 161.5v4h401v-4q-50 -94 -66 -166t-16 -201v-123zM971 1778q0 -51 -36 -87t-87 -36t-87 36t-36 87t36 88
t87 37t87 -37t36 -88z" />
    <glyph glyph-name="gdotaccent" unicode="&#x121;" horiz-adv-x="1064" 
d="M483 346q95 0 140 84.5t45 226.5q0 94 -17.5 162t-60.5 110t-109 42q-182 0 -182 -314q0 -143 44.5 -227t139.5 -84zM1008 -135q-5 -138 -148 -232t-395 -94q-198 0 -323.5 63t-125.5 171q0 136 195 190q-117 44 -117 160q0 87 61.5 143.5t153.5 79.5q-98 44 -156.5 126
t-58.5 185q0 148 113 249.5t274 101.5q157 0 275 -103l260 152l4 -2v-183h-8l-228 5q88 -94 88 -220q0 -143 -114 -245.5t-275 -102.5q-68 0 -147 27q-90 -44 -90 -113q0 -53 50.5 -74t154.5 -26l204 -6q73 -2 136.5 -18.5t113.5 -46.5t77.5 -78t25.5 -109zM549 -389
q166 0 254 48t88 126q0 48 -35 78t-87 42t-128 15l-221 8q-103 3 -178 25q-52 -48 -52 -125q0 -104 93 -160.5t266 -56.5zM623 1348q0 -51 -36 -87t-87 -36t-87 36t-36 87t36 88t87 37t87 -37t36 -88z" />
    <glyph glyph-name="uni0122" unicode="&#x122;" horiz-adv-x="1603" 
d="M1460 186q-6 -4 -54.5 -37.5t-73.5 -49t-84.5 -45.5t-109.5 -45t-125.5 -27.5t-154.5 -12.5q-237 0 -420 104.5t-280 281.5t-97 395q0 163 58 305.5t163.5 248t263.5 166t347 60.5q107 0 219.5 -19t166.5 -35t138 -44l41 -334l-18 -6q-148 215 -276 306t-290 91
q-138 0 -245 -57t-173 -158t-100 -234t-34 -292q0 -127 19 -236t60.5 -202.5t103 -159.5t151.5 -103t202 -37q172 0 274.5 84.5t102.5 241.5q0 109 -19.5 178.5t-74.5 161.5v4h401v-4q-50 -94 -66 -166t-16 -201v-123zM713 -489q53 36 83.5 83.5t30.5 90.5q0 23 -26.5 61.5
t-59.5 71.5v2l154 102q38 -26 62 -64.5t24 -78.5q0 -79 -82 -158t-180 -121z" />
    <glyph glyph-name="uni0123" unicode="&#x123;" horiz-adv-x="1064" 
d="M483 346q95 0 140 84.5t45 226.5q0 94 -17.5 162t-60.5 110t-109 42q-182 0 -182 -314q0 -143 44.5 -227t139.5 -84zM1008 -135q-5 -138 -148 -232t-395 -94q-198 0 -323.5 63t-125.5 171q0 136 195 190q-117 44 -117 160q0 87 61.5 143.5t153.5 79.5q-98 44 -156.5 126
t-58.5 185q0 148 113 249.5t274 101.5q157 0 275 -103l260 152l4 -2v-183h-8l-228 5q88 -94 88 -220q0 -143 -114 -245.5t-275 -102.5q-68 0 -147 27q-90 -44 -90 -113q0 -53 50.5 -74t154.5 -26l204 -6q73 -2 136.5 -18.5t113.5 -46.5t77.5 -78t25.5 -109zM549 -389
q166 0 254 48t88 126q0 48 -35 78t-87 42t-128 15l-221 8q-103 3 -178 25q-52 -48 -52 -125q0 -104 93 -160.5t266 -56.5zM676 1616q-53 -36 -84 -83.5t-31 -90.5q0 -23 26.5 -61.5t59.5 -71.5v-2l-153 -103q-38 25 -62 64.5t-24 79.5q0 79 82 157t180 121z" />
    <glyph glyph-name="Hcircumflex" unicode="&#x124;" horiz-adv-x="1550" 
d="M100 4q49 93 65.5 167.5t16.5 199.5v757q0 125 -16.5 199.5t-65.5 167.5v4h400v-4q-50 -94 -66 -166t-16 -201v-335h715v335q0 129 -16 201t-66 166v4h399v-4q-50 -94 -66 -166t-16 -201v-757q0 -129 16 -201t66 -166v-4h-399v4q50 94 66 166t16 201v381h-715v-381
q0 -129 16 -201t66 -166v-4h-400v4zM774 1757l-301 -155l-18 20l313 313h12l314 -313l-19 -20z" />
    <glyph glyph-name="hcircumflex" unicode="&#x125;" horiz-adv-x="1110" 
d="M98 0v4q27 82 36 167t9 226v820q0 163 -92 266v4l297 106v-774q75 91 152.5 140t177.5 49q139 0 215 -79.5t76 -217.5v-314q0 -155 7.5 -235t37.5 -158v-4h-297v4q28 82 37.5 169t9.5 224v267q0 95 -47.5 157t-141.5 62q-127 0 -227 -105v-381q0 -148 8.5 -231t38.5 -162
v-4h-297zM555 1798l-301 -156l-18 21l313 313h12l313 -313l-18 -21z" />
    <glyph glyph-name="Hbar" unicode="&#x126;" horiz-adv-x="1574" 
d="M113 4q49 93 65.5 167.5t16.5 199.5v749h-185v41h185l-5 78q-6 72 -23 128.5t-54 127.5v4h399v-4q-38 -73 -56 -129.5t-24 -126.5q-2 -23 -2 -78h715l-4 78q-3 69 -21 125t-57 131v4h399v-4q-38 -73 -56 -129.5t-24 -126.5q-2 -23 -2 -78h185v-41h-185v-749
q0 -129 16 -201t66 -166v-4h-399v4q50 94 66 166t16 201v381h-715v-381q0 -129 16 -201t66 -166v-4h-399v4zM1145 793v327h-715v-327h715z" />
    <glyph glyph-name="hbar" unicode="&#x127;" horiz-adv-x="1110" 
d="M98 0v4q27 82 36 167t9 226v789h-123v41h123q-3 97 -28 151q-27 65 -64 105v4l297 106v-366h352v-41h-352v-367q75 91 152.5 140t177.5 49q139 0 215 -79.5t76 -217.5v-314q0 -155 7.5 -235t37.5 -158v-4h-297v4q28 82 37.5 169t9.5 224v267q0 95 -47.5 157t-141.5 62
q-127 0 -227 -105v-381q0 -148 8.5 -231t38.5 -162v-4h-297z" />
    <glyph glyph-name="Itilde" unicode="&#x128;" horiz-adv-x="600" 
d="M100 4q50 94 66 166t16 201v757q0 129 -16 201t-66 166v4h400v-4q-50 -94 -66 -166t-16 -201v-757q0 -129 16 -201t66 -166v-4h-400v4zM139 1853q63 0 175.5 -40.5t177.5 -40.5q55 0 83.5 22.5t51.5 87.5l20 -4q-2 -42 -5.5 -71t-15.5 -67.5t-31 -62t-53.5 -40.5
t-82.5 -17q-63 0 -175.5 41t-177.5 41q-55 0 -83.5 -23t-51.5 -88l-20 4q2 42 5.5 71t15.5 67.5t31 62t53.5 40.5t82.5 17z" />
    <glyph glyph-name="itilde" unicode="&#x129;" horiz-adv-x="495" 
d="M104 4q24 102 36 187t12 206v234q0 160 -93 264v14l297 109v-619q0 -152 7.5 -234.5t37.5 -160.5v-4h-297v4zM98 1393q41 0 144.5 -32t154.5 -32q47 0 75.5 20.5t45.5 67.5l21 -2q-3 -37 -11 -72.5t-26 -75.5t-52.5 -64.5t-82.5 -24.5q-43 0 -148.5 32.5t-155.5 32.5
q-48 0 -75.5 -20.5t-40.5 -67.5l-23 2q2 28 7 55.5t17.5 61.5t30.5 59t49 42.5t70 17.5z" />
    <glyph glyph-name="Imacron" unicode="&#x12a;" horiz-adv-x="600" 
d="M100 4q50 94 66 166t16 201v757q0 129 -16 201t-66 166v4h400v-4q-50 -94 -66 -166t-16 -201v-757q0 -129 16 -201t66 -166v-4h-400v4zM-20 1808h641v-102h-641v102z" />
    <glyph glyph-name="imacron" unicode="&#x12b;" horiz-adv-x="495" 
d="M14 1321h437v-102h-437v102zM104 4q24 102 36 187t12 206v234q0 160 -93 264v14l297 109v-619q0 -152 7.5 -234.5t37.5 -160.5v-4h-297v4z" />
    <glyph glyph-name="Ibreve" unicode="&#x12c;" horiz-adv-x="600" 
d="M100 4q50 94 66 166t16 201v757q0 129 -16 201t-66 166v4h400v-4q-50 -94 -66 -166t-16 -201v-757q0 -129 16 -201t66 -166v-4h-400v4zM299 1759q102 0 167.5 46t90.5 128h21q0 -48 -14.5 -98t-44.5 -98.5t-87.5 -79.5t-132.5 -31t-132 31t-86.5 79.5t-43.5 98.5t-14 98
h20q26 -82 90.5 -128t165.5 -46z" />
    <glyph glyph-name="ibreve" unicode="&#x12d;" horiz-adv-x="495" 
d="M104 4q24 102 36 187t12 206v234q0 160 -93 264v14l297 109v-619q0 -152 7.5 -234.5t37.5 -160.5v-4h-297v4zM252 1294q86 0 140 39t73 109h20q0 -43 -12 -87t-37 -87.5t-74 -71t-114 -27.5q-53 0 -94.5 18.5t-66.5 47t-41 66.5t-22 72.5t-6 68.5h21q19 -70 73 -109
t140 -39z" />
    <glyph glyph-name="Iogonek" unicode="&#x12e;" horiz-adv-x="600" 
d="M100 4q50 94 66 166t16 201v757q0 129 -16 201t-66 166v4h400v-4q-50 -94 -66 -166t-16 -201v-757q0 -129 16 -201t66 -166v-4h-103q-51 -39 -82 -78q-84 -94 -84 -180q0 -56 29 -88.5t84 -32.5q91 0 168 92l18 -14q-22 -41 -44 -72.5t-55 -64.5t-77 -51.5t-96 -18.5
q-85 0 -136.5 48t-51.5 124q0 66 40.5 125t120.5 127q47 40 105 84h-236v4z" />
    <glyph glyph-name="iogonek" unicode="&#x12f;" horiz-adv-x="495" 
d="M104 4q24 102 36 187t12 206v234q0 160 -93 264v14l297 109v-619q0 -152 7.5 -234.5t37.5 -160.5v-4h-51q-51 -39 -82 -78q-84 -94 -84 -180q0 -56 29 -88.5t84 -32.5q91 0 168 92l18 -14q-22 -41 -44 -72.5t-55 -64.5t-77 -51.5t-96 -18.5q-85 0 -136.5 48t-51.5 124
q0 66 40.5 125t120.5 127q46 40 105 84h-185v4zM367 1348q0 -51 -36 -87t-87 -36t-87 36t-36 87t36 88t87 37t87 -37t36 -88z" />
    <glyph glyph-name="Idotaccent" unicode="&#x130;" horiz-adv-x="600" 
d="M100 4q50 94 66 166t16 201v757q0 129 -16 201t-66 166v4h400v-4q-50 -94 -66 -166t-16 -201v-757q0 -129 16 -201t66 -166v-4h-400v4zM422 1778q0 -51 -36 -87t-87 -36t-87 36t-36 87t36 88t87 37t87 -37t36 -88z" />
    <glyph glyph-name="dotlessi" unicode="&#x131;" horiz-adv-x="495" 
d="M104 4q24 102 36 187t12 206v234q0 160 -93 264v14l297 109v-619q0 -152 7.5 -234.5t37.5 -160.5v-4h-297v4z" />
    <glyph glyph-name="IJ" unicode="&#x132;" horiz-adv-x="1398" 
d="M100 4q50 94 66 166t16 201v757q0 129 -16 201t-66 166v4h400v-4q-50 -94 -66 -166t-16 -201v-757q0 -129 16 -201t66 -166v-4h-400v4zM1235 283q0 -151 -91.5 -232.5t-254.5 -81.5q-124 0 -240 45l-37 338l17 6q16 -26 46 -75q96 -158 141.5 -215.5t90.5 -57.5
q42 0 68 42t26 116v960q0 126 -16 200t-65 167v4h397v-4q-50 -94 -66 -166t-16 -201v-845z" />
    <glyph glyph-name="ij" unicode="&#x133;" horiz-adv-x="983" 
d="M367 1348q0 -51 -36 -87t-87 -36t-87 36t-36 87t36 88t87 37t87 -37t36 -88zM104 4q24 102 36 187t12 206v234q0 160 -93 264v14l297 109v-619q0 -152 7.5 -234.5t37.5 -160.5v-4h-297v4zM848 1348q0 -51 -36 -87t-87 -36t-87 36t-36 87t36 88t87 37t87 -37t36 -88z
M500 -428q68 42 100.5 111t32.5 178v770q0 161 -92 264v14l297 109l-4 -1014q0 -200 -93 -312.5t-237 -131.5z" />
    <glyph glyph-name="Jcircumflex" unicode="&#x134;" horiz-adv-x="827" 
d="M664 283q0 -151 -92 -232.5t-255 -81.5q-123 0 -239 45l-37 338l16 6q131 -213 157 -250q65 -91 112 -97q5 -1 10 -1q42 0 68 42t26 116v960q0 125 -16.5 199.5t-65.5 167.5v4h397v-4q-50 -94 -65.5 -165.5t-15.5 -201.5v-845zM547 1757l-301 -155l-19 20l314 313h12
l313 -313l-18 -20z" />
    <glyph glyph-name="jcircumflex" unicode="&#x135;" horiz-adv-x="501" 
d="M18 -485q69 42 101.5 110.5t32.5 177.5v828q0 160 -93 264v14l297 109l-4 -1071q0 -200 -93 -313t-236 -132zM250 1284l-268 -178l-19 20l281 347h12l281 -347l-19 -20z" />
    <glyph glyph-name="uni0136" unicode="&#x136;" horiz-adv-x="1341" 
d="M100 4q49 93 65.5 167.5t16.5 199.5v757q0 125 -16.5 199.5t-65.5 167.5v4h400v-4q-50 -94 -66 -166t-16 -201v-757q0 -129 16 -201t66 -166v-4h-400v4zM1008 0l-557 739l387 447q98 115 124.5 189.5t-10.5 119.5v4h324v-4q-122 -64 -200.5 -130.5t-172.5 -174.5
l-266 -303l475 -631q65 -86 120.5 -143.5t129.5 -108.5l2 -4h-356zM549 -489q53 36 84 83.5t31 90.5q0 23 -26.5 61.5t-59.5 71.5v2l153 102q38 -26 62 -64.5t24 -78.5q0 -79 -82 -158t-180 -121z" />
    <glyph glyph-name="uni0137" unicode="&#x137;" horiz-adv-x="980" 
d="M98 4q45 95 45 281v932q0 161 -92 264v4l297 108v-1306q0 -196 49 -283v-4h-299v4zM717 0l-352 508l235 256q50 54 66 112.5t-9 96.5v4h267v-4q-83 -37 -149.5 -93t-145.5 -141l-107 -116l301 -435q55 -78 92 -117.5t86 -66.5v-4h-284zM375 -489q53 36 83.5 83.5
t30.5 90.5q0 23 -26.5 61.5t-59.5 71.5v2l154 102q38 -26 62 -64.5t24 -78.5q0 -79 -82 -158t-180 -121z" />
    <glyph glyph-name="Lacute" unicode="&#x139;" horiz-adv-x="1206" 
d="M100 0v4q49 93 65.5 167.5t16.5 199.5v757q0 125 -16.5 199.5t-65.5 167.5v4h400v-4q-50 -94 -66 -166t-16 -201v-1099l309 12q203 7 442 371l17 -6l-90 -406h-996zM518 1964l107 -176l-494 -186l-12 20z" />
    <glyph glyph-name="lacute" unicode="&#x13a;" horiz-adv-x="487" 
d="M96 4q45 95 45 281v932q0 161 -92 264v4l297 108v-1306q0 -200 47 -283v-4h-297v4zM465 1964l106 -176l-493 -186l-12 20z" />
    <glyph glyph-name="uni013B" unicode="&#x13b;" horiz-adv-x="1206" 
d="M100 0v4q49 93 65.5 167.5t16.5 199.5v757q0 125 -16.5 199.5t-65.5 167.5v4h400v-4q-50 -94 -66 -166t-16 -201v-1099l309 12q203 7 442 371l17 -6l-90 -406h-996zM512 -489q53 36 84 83.5t31 90.5q0 23 -26.5 61.5t-59.5 71.5v2l153 102q38 -26 62 -64.5t24 -78.5
q0 -79 -82 -158t-180 -121z" />
    <glyph glyph-name="uni013C" unicode="&#x13c;" horiz-adv-x="487" 
d="M96 4q45 95 45 281v932q0 161 -92 264v4l297 108v-1306q0 -200 47 -283v-4h-297v4zM90 -489q53 36 84 83.5t31 90.5q0 23 -26.5 61.5t-59.5 71.5v2l153 102q38 -26 62 -64.5t24 -78.5q0 -79 -82 -158t-180 -121z" />
    <glyph glyph-name="Lcaron" unicode="&#x13d;" horiz-adv-x="1206" 
d="M100 0v4q49 93 65.5 167.5t16.5 199.5v757q0 125 -16.5 199.5t-65.5 167.5v4h400v-4q-50 -94 -66 -166t-16 -201v-1099l309 12q203 7 442 371l17 -6l-90 -406h-996zM635 1499h184l-211 -416l-20 4z" />
    <glyph glyph-name="lcaron" unicode="&#x13e;" horiz-adv-x="487" 
d="M96 4q45 95 45 281v932q0 161 -92 264v4l297 108v-1306q0 -200 47 -283v-4h-297v4zM483 1587h185l-211 -416l-21 5z" />
    <glyph glyph-name="Ldot" unicode="&#x13f;" horiz-adv-x="1206" 
d="M100 0v4q49 93 65.5 167.5t16.5 199.5v757q0 125 -16.5 199.5t-65.5 167.5v4h400v-4q-50 -94 -66 -166t-16 -201v-1099l309 12q203 7 442 371l17 -6l-90 -406h-996zM979 625q-57 0 -97 40.5t-40 96.5q0 60 40 99.5t97 39.5q56 0 96.5 -40t40.5 -99q0 -56 -41 -96.5
t-96 -40.5z" />
    <glyph glyph-name="ldot" unicode="&#x140;" horiz-adv-x="673" 
d="M96 4q45 95 45 281v932q0 161 -92 264v4l297 108v-1306q0 -200 47 -283v-4h-297v4zM582 625q-57 0 -97.5 40.5t-40.5 96.5q0 59 40 99t98 40q56 0 96.5 -40t40.5 -99q0 -56 -40.5 -96.5t-96.5 -40.5z" />
    <glyph glyph-name="Lslash" unicode="&#x141;" horiz-adv-x="1216" 
d="M111 0v4q49 93 65.5 167.5t16.5 199.5v149l-146 -71v53l146 71v555q0 125 -16.5 199.5t-65.5 167.5v4h399v-4q-50 -94 -66 -166t-16 -201v-440l500 248v-53l-500 -248v-606l309 12q204 7 443 371l16 -6l-90 -406h-995z" />
    <glyph glyph-name="lslash" unicode="&#x142;" horiz-adv-x="528" 
d="M117 4q45 95 45 281v358l-144 -113v58l144 112v517q0 161 -92 264v4l297 108v-731l143 115v-57l-143 -115v-518q0 -200 47 -283v-4h-297v4z" />
    <glyph glyph-name="Nacute" unicode="&#x143;" horiz-adv-x="1421" 
d="M223 1284l8 -876q0 -138 28 -217.5t114 -186.5v-4h-316v4q76 105 100.5 185.5t24.5 218.5v802q-7 101 -39.5 158.5t-119.5 126.5v4h327l858 -1165l-6 758q0 135 -25.5 215.5t-99.5 187.5v4h295v-4q-75 -109 -100 -188t-25 -215v-1092l-73 -6zM967 1964l106 -176
l-493 -186l-13 20z" />
    <glyph glyph-name="nacute" unicode="&#x144;" horiz-adv-x="1116" 
d="M401 0h-297v4q28 84 38 168t10 225v242q0 162 -93 266v4l289 109v-197l8 -2q75 91 152.5 140t177.5 49q139 0 214 -79t75 -218v-312q0 -153 8.5 -233.5t38.5 -161.5v-4h-297v4q45 145 45 393v267q0 96 -45.5 157.5t-142.5 61.5q-130 0 -226 -103v-381q0 -149 8 -232.5
t37 -162.5v-4zM694 1534l150 -145l-406 -279l-16 16z" />
    <glyph glyph-name="uni0145" unicode="&#x145;" horiz-adv-x="1421" 
d="M223 1284l8 -876q0 -138 28 -217.5t114 -186.5v-4h-316v4q76 105 100.5 185.5t24.5 218.5v802q-7 101 -39.5 158.5t-119.5 126.5v4h327l858 -1165l-6 758q0 135 -25.5 215.5t-99.5 187.5v4h295v-4q-75 -109 -100 -188t-25 -215v-1092l-73 -6zM592 -489q53 36 84 83.5
t31 90.5q0 23 -26.5 61.5t-59.5 71.5v2l153 102q38 -26 62 -64.5t24 -78.5q0 -79 -82 -158t-180 -121z" />
    <glyph glyph-name="uni0146" unicode="&#x146;" horiz-adv-x="1116" 
d="M401 0h-297v4q28 84 38 168t10 225v242q0 162 -93 266v4l289 109v-197l8 -2q75 91 152.5 140t177.5 49q139 0 214 -79t75 -218v-312q0 -153 8.5 -233.5t38.5 -161.5v-4h-297v4q45 145 45 393v267q0 96 -45.5 157.5t-142.5 61.5q-130 0 -226 -103v-381q0 -149 8 -232.5
t37 -162.5v-4zM424 -489q53 36 84 83.5t31 90.5q0 23 -26.5 61.5t-59.5 71.5v2l153 102q38 -26 62 -64.5t24 -78.5q0 -79 -82 -158t-180 -121z" />
    <glyph glyph-name="Ncaron" unicode="&#x147;" horiz-adv-x="1421" 
d="M223 1284l8 -876q0 -138 28 -217.5t114 -186.5v-4h-316v4q76 105 100.5 185.5t24.5 218.5v802q-7 101 -39.5 158.5t-119.5 126.5v4h327l858 -1165l-6 758q0 135 -25.5 215.5t-99.5 187.5v4h295v-4q-75 -109 -100 -188t-25 -215v-1092l-73 -6zM741 1602l-313 313l18 20
l302 -155l301 155l18 -20l-313 -313h-13z" />
    <glyph glyph-name="ncaron" unicode="&#x148;" horiz-adv-x="1116" 
d="M401 0h-297v4q28 84 38 168t10 225v242q0 162 -93 266v4l289 109v-197l8 -2q75 91 152.5 140t177.5 49q139 0 214 -79t75 -218v-312q0 -153 8.5 -233.5t38.5 -161.5v-4h-297v4q45 145 45 393v267q0 96 -45.5 157.5t-142.5 61.5q-130 0 -226 -103v-381q0 -149 8 -232.5
t37 -162.5v-4zM272 1452l19 21l268 -179l268 179l19 -21l-281 -346h-12z" />
    <glyph glyph-name="napostrophe" unicode="&#x149;" horiz-adv-x="1116" 
d="M401 0h-297v4q28 84 38 168t10 225v242q0 162 -93 266v4l289 109v-197l8 -2q75 91 152.5 140t177.5 49q139 0 214 -79t75 -218v-312q0 -153 8.5 -233.5t38.5 -161.5v-4h-297v4q45 145 45 393v267q0 96 -45.5 157.5t-142.5 61.5q-130 0 -226 -103v-381q0 -149 8 -232.5
t37 -162.5v-4zM-92 1047q106 101 106 208q0 53 -92 158v4l162 129q42 -30 67 -74.5t25 -93.5q0 -96 -79.5 -191t-178.5 -153z" />
    <glyph glyph-name="Eng" unicode="&#x14a;" horiz-adv-x="1413" 
d="M967 -461q-148 0 -287 45l-47 338l16 6q58 -82 91.5 -126t75.5 -94t71.5 -73t63.5 -39t69 -16q33 0 63 12.5t58 41t44.5 82t16.5 126.5v152h-33l-950 1290l8 -876q0 -138 28 -217.5t114 -186.5v-4h-316v4q76 105 100.5 185.5t24.5 218.5v802q-7 100 -40 157.5t-120 127.5
v4h328l854 -1161l-2 754q0 136 -25 215t-100 188v4h295v-4q-75 -109 -100 -188t-25 -215v-1239q0 -158 -64 -236t-212 -78z" />
    <glyph glyph-name="eng" unicode="&#x14b;" horiz-adv-x="1120" 
d="M637 -428q68 42 100.5 111t32.5 178v803q0 96 -45.5 157.5t-142.5 61.5q-130 0 -226 -103v-381q0 -149 8 -232.5t37 -162.5v-4h-297v4q28 84 38 168t10 225v242q0 162 -93 266v4l289 109v-197l8 -2q75 91 152.5 140t177.5 49q139 0 215 -79.5t74 -217.5l-4 -707
q0 -200 -93 -312.5t-237 -131.5z" />
    <glyph glyph-name="Omacron" unicode="&#x14c;" horiz-adv-x="1667" 
d="M831 -31q-143 0 -282.5 61.5t-247 164.5t-174 249t-66.5 304t66.5 304.5t174 250t247 165.5t282.5 62q114 0 228 -39t211.5 -111.5t173 -168t119 -216t43.5 -247.5t-43.5 -247t-119 -215t-173 -167t-211.5 -111t-228 -39zM831 10q130 0 229.5 55t161.5 154.5t93 233
t31 295.5q0 128 -19.5 239t-60.5 204t-101 159t-145 102.5t-189 36.5q-129 0 -227.5 -56t-159.5 -157t-91.5 -234t-30.5 -294q0 -160 30.5 -293t91.5 -233t159.5 -156t227.5 -56zM514 1808h641v-102h-641v102z" />
    <glyph glyph-name="omacron" unicode="&#x14d;" horiz-adv-x="1153" 
d="M575 -31q-141 0 -262.5 71.5t-191.5 191t-70 255.5q0 134 71 254.5t192.5 193.5t260.5 73q105 0 203 -43.5t168.5 -115t113 -167t42.5 -195.5q0 -102 -42.5 -197t-113 -165.5t-168.5 -113t-203 -42.5zM575 10q76 0 135.5 39t95 107t53.5 151.5t18 179.5q0 129 -31 234.5
t-101 175.5t-170 70q-99 0 -168.5 -70t-100 -175.5t-30.5 -234.5q0 -96 17.5 -179.5t52.5 -151.5t94 -107t135 -39zM287 1321h579v-102h-579v102z" />
    <glyph glyph-name="Obreve" unicode="&#x14e;" horiz-adv-x="1667" 
d="M831 -31q-143 0 -282.5 61.5t-247 164.5t-174 249t-66.5 304t66.5 304.5t174 250t247 165.5t282.5 62q114 0 228 -39t211.5 -111.5t173 -168t119 -216t43.5 -247.5t-43.5 -247t-119 -215t-173 -167t-211.5 -111t-228 -39zM831 10q130 0 229.5 55t161.5 154.5t93 233
t31 295.5q0 128 -19.5 239t-60.5 204t-101 159t-145 102.5t-189 36.5q-129 0 -227.5 -56t-159.5 -157t-91.5 -234t-30.5 -294q0 -160 30.5 -293t91.5 -233t159.5 -156t227.5 -56zM834 1759q102 0 167.5 46t90.5 128h20q0 -38 -8 -77t-28.5 -81t-51 -74.5t-80 -53.5
t-110.5 -21q-75 0 -132 31t-87 79.5t-44 98.5t-14 98h21q26 -82 90.5 -128t165.5 -46z" />
    <glyph glyph-name="obreve" unicode="&#x14f;" horiz-adv-x="1153" 
d="M575 -31q-141 0 -262.5 71.5t-191.5 191t-70 255.5q0 134 71 254.5t192.5 193.5t260.5 73q105 0 203 -43.5t168.5 -115t113 -167t42.5 -195.5q0 -102 -42.5 -197t-113 -165.5t-168.5 -113t-203 -42.5zM575 10q76 0 135.5 39t95 107t53.5 151.5t18 179.5q0 129 -31 234.5
t-101 175.5t-170 70q-99 0 -168.5 -70t-100 -175.5t-30.5 -234.5q0 -96 17.5 -179.5t52.5 -151.5t94 -107t135 -39zM575 1294q86 0 140 39t73 109h21q0 -43 -12 -87t-37.5 -87.5t-74.5 -71t-114 -27.5q-53 0 -94.5 18.5t-66 47t-40.5 66.5t-22 72.5t-6 68.5h20
q19 -70 73 -109t140 -39z" />
    <glyph glyph-name="Ohungarumlaut" unicode="&#x150;" horiz-adv-x="1667" 
d="M831 -31q-143 0 -282.5 61.5t-247 164.5t-174 249t-66.5 304t66.5 304.5t174 250t247 165.5t282.5 62q114 0 228 -39t211.5 -111.5t173 -168t119 -216t43.5 -247.5t-43.5 -247t-119 -215t-173 -167t-211.5 -111t-228 -39zM831 10q130 0 229.5 55t161.5 154.5t93 233
t31 295.5q0 128 -19.5 239t-60.5 204t-101 159t-145 102.5t-189 36.5q-129 0 -227.5 -56t-159.5 -157t-91.5 -234t-30.5 -294q0 -160 30.5 -293t91.5 -233t159.5 -156t227.5 -56zM1196 1944l119 -158l-369 -184l-18 20zM807 1944l119 -158l-369 -184l-18 20z" />
    <glyph glyph-name="ohungarumlaut" unicode="&#x151;" horiz-adv-x="1153" 
d="M575 -31q-141 0 -262.5 71.5t-191.5 191t-70 255.5q0 134 71 254.5t192.5 193.5t260.5 73q105 0 203 -43.5t168.5 -115t113 -167t42.5 -195.5q0 -102 -42.5 -197t-113 -165.5t-168.5 -113t-203 -42.5zM575 10q76 0 135.5 39t95 107t53.5 151.5t18 179.5q0 129 -31 234.5
t-101 175.5t-170 70q-99 0 -168.5 -70t-100 -175.5t-30.5 -234.5q0 -96 17.5 -179.5t52.5 -151.5t94 -107t135 -39zM903 1493l121 -131l-346 -252l-19 20zM575 1493l121 -131l-346 -252l-18 20z" />
    <glyph glyph-name="OE" unicode="&#x152;" horiz-adv-x="2172" 
d="M1018 37q35 86 50 153t15 156v807q0 91 -15 156.5t-52 156.5h-158q-261 0 -398.5 -183t-137.5 -556q0 -340 129 -509.5t405 -176.5zM2052 0h-1212q-362 0 -570.5 198.5t-208.5 557.5q0 235 98 404t272.5 254t408.5 85h1110l80 -364l-17 -7q-28 29 -85.5 96t-96 110
t-86 80.5t-78.5 39.5l-346 14v-692h176q35 0 73 24.5t63 51.5t63.5 74.5t54.5 64.5h18v-463h-18q-13 14 -41.5 48t-49.5 57t-49.5 49t-57 39.5t-56.5 13.5h-176v-704l365 14q60 2 121 35t121 94t102 112t96 126l16 -6z" />
    <glyph glyph-name="oe" unicode="&#x153;" horiz-adv-x="1794" 
d="M1743 229q-43 -121 -142.5 -190.5t-250.5 -69.5q-257 0 -377 197q-74 -93 -176.5 -145t-221.5 -52q-141 0 -262.5 70.5t-191.5 187.5t-70 250t71 250.5t192.5 188.5t260.5 71q120 0 225.5 -56t176.5 -151q65 109 163.5 168.5t209.5 59.5q71 0 134.5 -24t109 -65t78 -92.5
t47.5 -108t12 -110.5h-641q-3 -15 -3 -30v-31q0 -195 98 -299.5t267 -104.5q184 0 279 95zM575 6q103 0 175.5 69t104.5 173t32 229t-32.5 229.5t-105 174t-174.5 69.5q-77 0 -137.5 -39.5t-97 -107t-55.5 -150.5t-19 -176q0 -92 19 -175t55.5 -150t97 -106.5t137.5 -39.5z
M1348 971q-101 0 -168.5 -90t-85.5 -240l428 10v23q0 297 -174 297z" />
    <glyph glyph-name="Racute" unicode="&#x154;" horiz-adv-x="1323" 
d="M100 4q49 93 65.5 167.5t16.5 199.5v757q0 125 -16.5 199.5t-65.5 167.5v4h523q268 0 393 -94.5t125 -263.5q0 -134 -74 -232.5t-223 -146.5l243 -477q63 -126 109.5 -178t128.5 -93v-14h-360l-369 723h-178v-352q0 -129 16 -201t66 -166v-4h-400v4zM578 1458h-62
q-59 0 -98 -2v-692h160q323 0 323 379q0 152 -72.5 233.5t-250.5 81.5zM846 1964l106 -176l-493 -186l-13 20z" />
    <glyph glyph-name="racute" unicode="&#x155;" horiz-adv-x="729" 
d="M104 0v4q28 84 38 168t10 225v242q0 162 -93 266v4l289 109v-250h8q92 110 136 150q100 90 190 90l-4 -250h-8q-26 23 -86.5 42t-96.5 19q-27 0 -62.5 -23.5t-68.5 -68.5v-328q0 -149 8 -232.5t37 -162.5v-4h-297zM549 1534l149 -145l-405 -279l-17 16z" />
    <glyph glyph-name="uni0156" unicode="&#x156;" horiz-adv-x="1323" 
d="M100 4q49 93 65.5 167.5t16.5 199.5v757q0 125 -16.5 199.5t-65.5 167.5v4h523q268 0 393 -94.5t125 -263.5q0 -134 -74 -232.5t-223 -146.5l243 -477q63 -126 109.5 -178t128.5 -93v-14h-360l-369 723h-178v-352q0 -129 16 -201t66 -166v-4h-400v4zM578 1458h-62
q-59 0 -98 -2v-692h160q323 0 323 379q0 152 -72.5 233.5t-250.5 81.5zM553 -489q53 36 84 83.5t31 90.5q0 23 -26.5 61.5t-59.5 71.5v2l153 102q38 -26 62 -64.5t24 -78.5q0 -79 -82 -158t-180 -121z" />
    <glyph glyph-name="uni0157" unicode="&#x157;" horiz-adv-x="729" 
d="M104 0v4q28 84 38 168t10 225v242q0 162 -93 266v4l289 109v-250h8q92 110 136 150q100 90 190 90l-4 -250h-8q-26 23 -86.5 42t-96.5 19q-27 0 -62.5 -23.5t-68.5 -68.5v-328q0 -149 8 -232.5t37 -162.5v-4h-297zM90 -487q53 36 84 83.5t31 90.5q0 23 -26.5 61.5
t-59.5 71.5v2l153 102q38 -26 62 -64.5t24 -78.5q0 -79 -82 -158t-180 -121z" />
    <glyph glyph-name="Rcaron" unicode="&#x158;" horiz-adv-x="1323" 
d="M100 4q49 93 65.5 167.5t16.5 199.5v757q0 125 -16.5 199.5t-65.5 167.5v4h523q268 0 393 -94.5t125 -263.5q0 -134 -74 -232.5t-223 -146.5l243 -477q63 -126 109.5 -178t128.5 -93v-14h-360l-369 723h-178v-352q0 -129 16 -201t66 -166v-4h-400v4zM578 1458h-62
q-59 0 -98 -2v-692h160q323 0 323 379q0 152 -72.5 233.5t-250.5 81.5zM621 1602l-314 313l19 20l301 -155l301 155l18 -20l-313 -313h-12z" />
    <glyph glyph-name="rcaron" unicode="&#x159;" horiz-adv-x="729" 
d="M104 0v4q28 84 38 168t10 225v242q0 162 -93 266v4l289 109v-250h8q92 110 136 150q100 90 190 90l-4 -250h-8q-26 23 -86.5 42t-96.5 19q-27 0 -62.5 -23.5t-68.5 -68.5v-328q0 -149 8 -232.5t37 -162.5v-4h-297zM147 1452l19 21l268 -179l268 179l19 -21l-281 -346h-12
z" />
    <glyph glyph-name="Sacute" unicode="&#x15a;" horiz-adv-x="1132" 
d="M971 1100l-19 -6q-102 216 -205 305.5t-219 89.5q-104 0 -163.5 -62t-59.5 -167q0 -41 11 -77.5t26 -64t46 -56.5t54 -47t68.5 -43.5t70.5 -38t78 -38.5q48 -23 76.5 -38t72.5 -39.5t71 -45.5t61 -51t54.5 -61.5t40 -70t28 -85t8.5 -98.5q0 -90 -28 -163t-77 -123.5
t-117.5 -85t-147 -50t-166.5 -15.5q-207 0 -422 80l-41 379l16 6q117 -219 240 -321.5t264 -102.5q133 0 204.5 80.5t71.5 200.5q0 57 -17.5 106.5t-44.5 86t-70.5 71.5t-85.5 59.5t-99 51.5q-173 84 -244 135q-161 117 -181 284q-3 26 -3 54q0 102 38.5 179.5t106 122.5
t150 67t178.5 22q169 0 334 -60zM791 1964l106 -176l-494 -186l-12 20z" />
    <glyph glyph-name="sacute" unicode="&#x15b;" horiz-adv-x="817" 
d="M709 743l-13 -4q-136 232 -317 232q-77 0 -122.5 -43.5t-45.5 -108.5q0 -34 16 -63.5t36.5 -49t62 -42t69 -34t80.5 -32.5q50 -21 85.5 -39t77 -48t67.5 -62.5t43.5 -80.5t17.5 -104q0 -98 -52 -166t-136.5 -98.5t-194.5 -30.5q-148 0 -301 54l-21 262l13 4
q78 -149 158 -216t178 -67q95 0 141.5 52t46.5 124q0 74 -51 120t-166 95q-125 55 -173 88q-130 90 -130 244q0 75 29.5 130.5t81.5 87t113 46.5t132 15q156 0 254 -41zM541 1534l149 -145l-405 -279l-17 16z" />
    <glyph glyph-name="Scircumflex" unicode="&#x15c;" horiz-adv-x="1132" 
d="M971 1100l-19 -6q-102 216 -205 305.5t-219 89.5q-104 0 -163.5 -62t-59.5 -167q0 -41 11 -77.5t26 -64t46 -56.5t54 -47t68.5 -43.5t70.5 -38t78 -38.5q48 -23 76.5 -38t72.5 -39.5t71 -45.5t61 -51t54.5 -61.5t40 -70t28 -85t8.5 -98.5q0 -90 -28 -163t-77 -123.5
t-117.5 -85t-147 -50t-166.5 -15.5q-207 0 -422 80l-41 379l16 6q117 -219 240 -321.5t264 -102.5q133 0 204.5 80.5t71.5 200.5q0 57 -17.5 106.5t-44.5 86t-70.5 71.5t-85.5 59.5t-99 51.5q-173 84 -244 135q-161 117 -181 284q-3 26 -3 54q0 102 38.5 179.5t106 122.5
t150 67t178.5 22q169 0 334 -60zM571 1757l-301 -155l-18 20l313 313h13l313 -313l-19 -20z" />
    <glyph glyph-name="scircumflex" unicode="&#x15d;" horiz-adv-x="817" 
d="M709 743l-13 -4q-136 232 -317 232q-77 0 -122.5 -43.5t-45.5 -108.5q0 -34 16 -63.5t36.5 -49t62 -42t69 -34t80.5 -32.5q50 -21 85.5 -39t77 -48t67.5 -62.5t43.5 -80.5t17.5 -104q0 -98 -52 -166t-136.5 -98.5t-194.5 -30.5q-148 0 -301 54l-21 262l13 4
q78 -149 158 -216t178 -67q95 0 141.5 52t46.5 124q0 74 -51 120t-166 95q-125 55 -173 88q-130 90 -130 244q0 75 29.5 130.5t81.5 87t113 46.5t132 15q156 0 254 -41zM406 1284l-269 -178l-18 20l280 347h13l280 -347l-18 -20z" />
    <glyph glyph-name="uni015E" unicode="&#x15e;" horiz-adv-x="1132" 
d="M397 -504q73 32 120.5 72t47.5 98q0 15 -3.5 27t-11 21.5t-14.5 16.5t-20 12.5t-21 8.5t-23.5 6t-21.5 4t-21 3t-17 2l-4 4l120 198q-101 0 -206 21q-118 23 -209 59l-41 379l16 6q117 -219 240 -321.5t264 -102.5q133 0 204.5 80.5t71.5 200.5q0 57 -17.5 106.5
t-44.5 86t-70.5 71.5t-85.5 59.5t-99 51.5q-173 84 -244 135q-161 117 -181 284q-3 26 -3 54q0 102 38.5 179.5t106 122.5t150 67t178.5 22q169 0 334 -60l41 -370l-19 -6q-102 216 -205 305.5t-219 89.5q-104 0 -163.5 -62t-59.5 -167q0 -41 11 -77.5t26 -64t46 -56.5
t54 -47t68.5 -43.5t70.5 -38t78 -38.5q48 -23 76.5 -38t72.5 -39.5t71 -45.5t61 -51t54.5 -61.5t40 -70t28 -85t8.5 -98.5q0 -165 -89.5 -269t-242.5 -143q-83 -20 -153 -23l-60 -94q84 -18 132.5 -61t48.5 -109q0 -165 -304 -229z" />
    <glyph glyph-name="uni015F" unicode="&#x15f;" horiz-adv-x="817" 
d="M227 -504q73 32 120.5 72t47.5 98q0 15 -3.5 27t-11 21.5t-14.5 16.5t-20 12.5t-21 8.5t-23.5 6t-21.5 4t-21 3t-17 2l-4 4l120 198q-74 3 -133 17q-74 14 -143 37l-21 262l13 4q78 -149 158 -216t178 -67q95 0 141.5 52t46.5 124q0 74 -51 120t-166 95q-125 55 -173 88
q-130 90 -130 244q0 75 29.5 130.5t81.5 87t113 46.5t132 15q156 0 254 -41l21 -224l-13 -4q-136 232 -317 232q-77 0 -122.5 -43.5t-45.5 -108.5q0 -34 16 -63.5t36.5 -49t62 -42t69 -34t80.5 -32.5q50 -21 85.5 -39t77 -48t67.5 -62.5t43.5 -80.5t17.5 -104
q0 -109 -63 -179.5t-171 -96.5q-60 -16 -116 -19l-60 -92q84 -18 132.5 -61t48.5 -109q0 -165 -304 -229z" />
    <glyph glyph-name="Scaron" unicode="&#x160;" horiz-adv-x="1132" 
d="M971 1100l-19 -6q-102 216 -205 305.5t-219 89.5q-104 0 -163.5 -62t-59.5 -167q0 -41 11 -77.5t26 -64t46 -56.5t54 -47t68.5 -43.5t70.5 -38t78 -38.5q48 -23 76.5 -38t72.5 -39.5t71 -45.5t61 -51t54.5 -61.5t40 -70t28 -85t8.5 -98.5q0 -90 -28 -163t-77 -123.5
t-117.5 -85t-147 -50t-166.5 -15.5q-207 0 -422 80l-41 379l16 6q117 -219 240 -321.5t264 -102.5q133 0 204.5 80.5t71.5 200.5q0 57 -17.5 106.5t-44.5 86t-70.5 71.5t-85.5 59.5t-99 51.5q-173 84 -244 135q-161 117 -181 284q-3 26 -3 54q0 102 38.5 179.5t106 122.5
t150 67t178.5 22q169 0 334 -60zM565 1602l-313 313l18 20l301 -155l301 155l19 -20l-313 -313h-13z" />
    <glyph glyph-name="scaron" unicode="&#x161;" horiz-adv-x="817" 
d="M709 743l-13 -4q-136 232 -317 232q-77 0 -122.5 -43.5t-45.5 -108.5q0 -34 16 -63.5t36.5 -49t62 -42t69 -34t80.5 -32.5q50 -21 85.5 -39t77 -48t67.5 -62.5t43.5 -80.5t17.5 -104q0 -98 -52 -166t-136.5 -98.5t-194.5 -30.5q-148 0 -301 54l-21 262l13 4
q78 -149 158 -216t178 -67q95 0 141.5 52t46.5 124q0 74 -51 120t-166 95q-125 55 -173 88q-130 90 -130 244q0 75 29.5 130.5t81.5 87t113 46.5t132 15q156 0 254 -41zM119 1452l18 21l269 -179l268 179l18 -21l-280 -346h-13z" />
    <glyph glyph-name="Tcommaaccent" unicode="&#x162;" horiz-adv-x="1464" 
d="M932 0h-400v4q49 93 65.5 167.5t16.5 199.5v1093l-223 -8q-30 -2 -70.5 -35.5t-86 -89.5t-85 -110.5t-83.5 -118.5q-14 -21 -21 -31l-16 6l77 422h1252l78 -422l-17 -6q-20 27 -68 94.5t-77 106.5t-69.5 87t-73 71.5t-58.5 25.5l-223 8v-1093q0 -129 16 -201t66 -166v-4z
M575 -489q53 36 84 83.5t31 90.5q0 23 -26.5 61.5t-59.5 71.5v2l154 102q38 -26 62 -64.5t24 -78.5q0 -79 -82 -158t-180 -121z" />
    <glyph glyph-name="tcommaaccent" unicode="&#x163;" horiz-adv-x="667" 
d="M377 -31q-230 0 -230 248v723h-110v12l297 256h20v-231h264v-37h-264v-717q0 -151 144 -151q78 0 135 34l6 -8q-92 -129 -262 -129zM193 -489q53 36 83.5 83.5t30.5 90.5q0 23 -26.5 61.5t-59.5 71.5v2l154 102q38 -26 62 -64.5t24 -78.5q0 -79 -82 -158t-180 -121z" />
    <glyph glyph-name="Tcaron" unicode="&#x164;" horiz-adv-x="1464" 
d="M932 0h-400v4q49 93 65.5 167.5t16.5 199.5v1093l-223 -8q-30 -2 -70.5 -35.5t-86 -89.5t-85 -110.5t-83.5 -118.5q-14 -21 -21 -31l-16 6l77 422h1252l78 -422l-17 -6q-20 27 -68 94.5t-77 106.5t-69.5 87t-73 71.5t-58.5 25.5l-223 8v-1093q0 -129 16 -201t66 -166v-4z
M725 1602l-313 313l18 20l301 -155l301 155l19 -20l-314 -313h-12z" />
    <glyph glyph-name="tcaron" unicode="&#x165;" horiz-adv-x="667" 
d="M377 -31q-230 0 -230 248v723h-110v12l297 256h20v-231h264v-37h-264v-717q0 -151 144 -151q78 0 135 34l6 -8q-92 -129 -262 -129zM553 1587h184l-211 -416l-20 5z" />
    <glyph glyph-name="Tbar" unicode="&#x166;" horiz-adv-x="1464" 
d="M932 0h-400v4q49 93 65.5 167.5t16.5 199.5v360h-348v41h348v692l-223 -8q-30 -2 -70.5 -35.5t-86 -89.5t-85 -110.5t-83.5 -118.5q-14 -21 -21 -31l-16 6l77 422h1252l78 -422l-17 -6q-20 27 -68 94.5t-77 106.5t-69.5 87t-73 71.5t-58.5 25.5l-223 8v-692h348v-41h-348
v-360q0 -129 16 -201t66 -166v-4z" />
    <glyph glyph-name="tbar" unicode="&#x167;" horiz-adv-x="667" 
d="M377 -31q-230 0 -230 248v414h-110v37h110v272h-110v12l297 256h20v-231h264v-37h-264v-272h267v-37h-267v-408q0 -151 144 -151q78 0 135 34l6 -8q-92 -129 -262 -129z" />
    <glyph glyph-name="Utilde" unicode="&#x168;" horiz-adv-x="1425" 
d="M733 -31q-93 0 -174.5 18t-153 58t-122.5 99.5t-80 147t-29 195.5v641q0 129 -16 201t-66 166v4h400v-4q-43 -82 -62.5 -163.5t-19.5 -203.5v-634q0 -474 381 -474q89 0 160 27t117.5 72.5t77.5 109t44.5 134t13.5 149.5v580q0 139 -28.5 218.5t-118.5 184.5v4h332l10 -4
q-90 -105 -119 -184.5t-29 -218.5v-578q0 -116 -26.5 -210t-84.5 -171.5t-161.5 -120.5t-245.5 -43zM631 1853q63 0 175 -40.5t177 -40.5q55 0 83.5 22.5t51.5 87.5l21 -4q-2 -42 -6 -71t-15.5 -67.5t-30.5 -62t-54 -40.5t-83 -17q-63 0 -175 41t-177 41q-55 0 -83.5 -23
t-51.5 -88l-21 4q2 42 6 71t15.5 67.5t30.5 62t54 40.5t83 17z" />
    <glyph glyph-name="utilde" unicode="&#x169;" horiz-adv-x="1073" 
d="M715 229q-31 -57 -59.5 -98t-68.5 -81t-91 -60.5t-111 -20.5q-128 0 -196 92.5t-68 255.5v437q0 140 -86 219v4h291v-627q0 -108 46.5 -162.5t133.5 -54.5q131 0 199 129v492q0 144 -91 219v4h295v-629q0 -107 10.5 -165.5t27.5 -84t54 -53.5v-4l-286 -66v254zM385 1393
q41 0 145 -32t154 -32q47 0 75.5 20.5t45.5 67.5l20 -2q-3 -37 -11 -72.5t-26 -75.5t-52.5 -64.5t-82.5 -24.5q-43 0 -148 32.5t-155 32.5q-48 0 -76 -20.5t-41 -67.5l-22 2q2 28 7 55.5t17.5 61.5t30.5 59t49 42.5t70 17.5z" />
    <glyph glyph-name="Umacron" unicode="&#x16a;" horiz-adv-x="1425" 
d="M733 -31q-93 0 -174.5 18t-153 58t-122.5 99.5t-80 147t-29 195.5v641q0 129 -16 201t-66 166v4h400v-4q-43 -82 -62.5 -163.5t-19.5 -203.5v-634q0 -474 381 -474q89 0 160 27t117.5 72.5t77.5 109t44.5 134t13.5 149.5v580q0 139 -28.5 218.5t-118.5 184.5v4h332l10 -4
q-90 -105 -119 -184.5t-29 -218.5v-578q0 -116 -26.5 -210t-84.5 -171.5t-161.5 -120.5t-245.5 -43zM471 1808h641v-102h-641v102z" />
    <glyph glyph-name="umacron" unicode="&#x16b;" horiz-adv-x="1073" 
d="M715 229q-31 -57 -59.5 -98t-68.5 -81t-91 -60.5t-111 -20.5q-128 0 -196 92.5t-68 255.5v437q0 140 -86 219v4h291v-627q0 -108 46.5 -162.5t133.5 -54.5q131 0 199 129v492q0 144 -91 219v4h295v-629q0 -107 10.5 -165.5t27.5 -84t54 -53.5v-4l-286 -66v254zM229 1321
h580v-102h-580v102z" />
    <glyph glyph-name="Ubreve" unicode="&#x16c;" horiz-adv-x="1425" 
d="M733 -31q-93 0 -174.5 18t-153 58t-122.5 99.5t-80 147t-29 195.5v641q0 129 -16 201t-66 166v4h400v-4q-43 -82 -62.5 -163.5t-19.5 -203.5v-634q0 -474 381 -474q89 0 160 27t117.5 72.5t77.5 109t44.5 134t13.5 149.5v580q0 139 -28.5 218.5t-118.5 184.5v4h332l10 -4
q-90 -105 -119 -184.5t-29 -218.5v-578q0 -116 -26.5 -210t-84.5 -171.5t-161.5 -120.5t-245.5 -43zM811 1759q102 0 167.5 46t90.5 128h21q0 -48 -14.5 -98t-44.5 -98.5t-87.5 -79.5t-132.5 -31t-132 31t-86.5 79.5t-43.5 98.5t-14 98h20q26 -82 90.5 -128t165.5 -46z" />
    <glyph glyph-name="ubreve" unicode="&#x16d;" horiz-adv-x="1073" 
d="M715 229q-31 -57 -59.5 -98t-68.5 -81t-91 -60.5t-111 -20.5q-128 0 -196 92.5t-68 255.5v437q0 140 -86 219v4h291v-627q0 -108 46.5 -162.5t133.5 -54.5q131 0 199 129v492q0 144 -91 219v4h295v-629q0 -107 10.5 -165.5t27.5 -84t54 -53.5v-4l-286 -66v254zM518 1294
q86 0 140 39t73 109h21q0 -43 -12 -87t-37.5 -87.5t-74.5 -71t-114 -27.5q-53 0 -94.5 18.5t-66 47t-40.5 66.5t-22 72.5t-6 68.5h20q19 -70 73 -109t140 -39z" />
    <glyph glyph-name="Uring" unicode="&#x16e;" horiz-adv-x="1425" 
d="M733 -31q-93 0 -174.5 18t-153 58t-122.5 99.5t-80 147t-29 195.5v641q0 129 -16 201t-66 166v4h400v-4q-43 -82 -62.5 -163.5t-19.5 -203.5v-634q0 -474 381 -474q89 0 160 27t117.5 72.5t77.5 109t44.5 134t13.5 149.5v580q0 139 -28.5 218.5t-118.5 184.5v4h332l10 -4
q-90 -105 -119 -184.5t-29 -218.5v-578q0 -116 -26.5 -210t-84.5 -171.5t-161.5 -120.5t-245.5 -43zM606 1755q0 77 53 126.5t132 49.5t131.5 -49.5t52.5 -126.5t-52.5 -125.5t-131.5 -48.5t-132 48.5t-53 125.5zM686 1755q0 -63 28 -99t77 -36t76.5 36t27.5 99
q0 64 -27.5 101.5t-76.5 37.5t-77 -37.5t-28 -101.5z" />
    <glyph glyph-name="uring" unicode="&#x16f;" horiz-adv-x="1073" 
d="M715 229q-31 -57 -59.5 -98t-68.5 -81t-91 -60.5t-111 -20.5q-128 0 -196 92.5t-68 255.5v437q0 140 -86 219v4h291v-627q0 -108 46.5 -162.5t133.5 -54.5q131 0 199 129v492q0 144 -91 219v4h295v-629q0 -107 10.5 -165.5t27.5 -84t54 -53.5v-4l-286 -66v254zM334 1337
q0 77 52.5 126.5t131.5 49.5t131.5 -49.5t52.5 -126.5t-52.5 -125.5t-131.5 -48.5t-131.5 48.5t-52.5 125.5zM414 1337q0 -63 27.5 -99t76.5 -36t77 36t28 99q0 64 -28 102t-77 38t-76.5 -38t-27.5 -102z" />
    <glyph glyph-name="Uhungarumlaut" unicode="&#x170;" horiz-adv-x="1425" 
d="M733 -31q-93 0 -174.5 18t-153 58t-122.5 99.5t-80 147t-29 195.5v641q0 129 -16 201t-66 166v4h400v-4q-43 -82 -62.5 -163.5t-19.5 -203.5v-634q0 -474 381 -474q89 0 160 27t117.5 72.5t77.5 109t44.5 134t13.5 149.5v580q0 139 -28.5 218.5t-118.5 184.5v4h332l10 -4
q-90 -105 -119 -184.5t-29 -218.5v-578q0 -116 -26.5 -210t-84.5 -171.5t-161.5 -120.5t-245.5 -43zM1153 1944l119 -158l-369 -184l-18 20zM764 1944l119 -158l-369 -184l-18 20z" />
    <glyph glyph-name="uhungarumlaut" unicode="&#x171;" horiz-adv-x="1073" 
d="M715 229q-31 -57 -59.5 -98t-68.5 -81t-91 -60.5t-111 -20.5q-128 0 -196 92.5t-68 255.5v437q0 140 -86 219v4h291v-627q0 -108 46.5 -162.5t133.5 -54.5q131 0 199 129v492q0 144 -91 219v4h295v-629q0 -107 10.5 -165.5t27.5 -84t54 -53.5v-4l-286 -66v254zM846 1493
l121 -131l-346 -252l-19 20zM518 1493l121 -131l-346 -252l-19 20z" />
    <glyph glyph-name="Uogonek" unicode="&#x172;" horiz-adv-x="1425" 
d="M766 -508q-85 0 -136.5 48t-51.5 124q0 162 260 311q-46 -6 -105 -6q-93 0 -174.5 18t-153 58t-122.5 99.5t-80 147t-29 195.5v641q0 129 -16 201t-66 166v4h400v-4q-43 -82 -62.5 -163.5t-19.5 -203.5v-634q0 -474 381 -474q89 0 160 27t117.5 72.5t77.5 109t44.5 134
t13.5 149.5v580q0 139 -28.5 218.5t-118.5 184.5v4h332l10 -4q-90 -105 -119 -184.5t-29 -218.5v-578q0 -381 -272 -502q-109 -54 -152 -90q-88 -76 -88 -180q0 -121 113 -121q91 0 168 92l18 -14q-22 -41 -44 -72.5t-55 -64.5t-77 -51.5t-96 -18.5z" />
    <glyph glyph-name="uogonek" unicode="&#x173;" horiz-adv-x="1073" 
d="M635 -508q-86 0 -137.5 47t-51.5 125q0 91 67 168.5t202 167.5v229q-31 -57 -59.5 -98t-68.5 -81t-91 -60.5t-111 -20.5q-128 0 -196 92.5t-68 255.5v437q0 140 -86 219v4h291v-627q0 -108 46.5 -162.5t133.5 -54.5q131 0 199 129v492q0 144 -91 219v4h295v-629
q0 -107 10.5 -165.5t27.5 -84t54 -53.5v-4q-15 -3 -49.5 -10t-56.5 -12t-50.5 -13.5t-49.5 -17.5q-77 -36 -132 -102t-55 -146q0 -56 29.5 -87.5t87.5 -31.5q87 0 164 92l18 -14q-22 -41 -44 -72.5t-55 -64.5t-77 -51.5t-96 -18.5z" />
    <glyph glyph-name="Wcircumflex" unicode="&#x174;" horiz-adv-x="2037" 
d="M565 -16l-385 1181q-43 130 -80.5 199.5t-93.5 130.5v4h428v-4q-32 -51 -35 -136t31 -204l264 -829l318 796l-17 43q-50 138 -85.5 205.5t-88.5 124.5v4h428v-4q-18 -33 -28.5 -79.5t-6 -117.5t30.5 -143l287 -813l233 713q35 110 41 203.5t-7 146t-38 90.5v4h271v-4
q-71 -74 -115 -156.5t-86 -216.5l-371 -1138h-41l-387 1079l-426 -1079h-41zM1059 1757l-301 -155l-19 20l314 313h12l313 -313l-18 -20z" />
    <glyph glyph-name="wcircumflex" unicode="&#x175;" horiz-adv-x="1368" 
d="M133 735q-32 96 -59.5 149t-63.5 89v4h350v-4q-20 -34 -23 -89t19 -134l146 -445l151 418l-4 12q-33 96 -61.5 147t-67.5 91v4h348v-4q-50 -84 0 -223l148 -445l141 387q23 63 24 123.5t-9.5 96t-26.5 61.5v4h213v-4q-54 -59 -86.5 -112t-63.5 -140l-266 -741h-33
l-237 690l-248 -690h-33zM713 1284l-269 -178l-18 20l281 347h12l280 -347l-18 -20z" />
    <glyph glyph-name="Ycircumflex" unicode="&#x176;" horiz-adv-x="1230" 
d="M414 4q49 77 65.5 139t16.5 166v373l-297 530q-62 108 -114 174t-112 109v4h465v-4q-40 -34 -35.5 -107.5t46.5 -150.5l268 -494l203 355q129 228 32 397v4h305v-4q-80 -75 -131.5 -145t-130.5 -207l-264 -459v-375q0 -107 16 -166.5t66 -138.5v-4h-399v4zM707 1757
l-301 -155l-19 20l313 313h13l313 -313l-18 -20z" />
    <glyph glyph-name="ycircumflex" unicode="&#x177;" horiz-adv-x="919" 
d="M80 -264q265 0 344 215l2 8l-291 774q-60 163 -125 240v4h344v-4q-13 -22 -19.5 -55.5t-1 -89.5t28.5 -117l173 -461l174 465q21 54 18 106.5t-16 88.5t-33 63v4h231v-4q-54 -57 -87 -111t-64 -141l-318 -821q-41 -103 -82 -172t-86 -108t-88.5 -57t-99.5 -24zM510 1284
l-268 -178l-19 20l281 347h12l281 -347l-19 -20z" />
    <glyph glyph-name="Ydieresis" unicode="&#x178;" horiz-adv-x="1230" 
d="M414 4q49 77 65.5 139t16.5 166v373l-297 530q-62 108 -114 174t-112 109v4h465v-4q-40 -34 -35.5 -107.5t46.5 -150.5l268 -494l203 355q129 228 32 397v4h305v-4q-80 -75 -131.5 -145t-130.5 -207l-264 -459v-375q0 -107 16 -166.5t66 -138.5v-4h-399v4zM1075 1778
q0 -51 -36 -87t-87 -36t-87 36t-36 87t36 88t87 37t87 -37t36 -88zM584 1778q0 -51 -36 -87t-87 -36t-87 36t-36 87t36 88t87 37t87 -37t36 -88z" />
    <glyph glyph-name="Zacute" unicode="&#x179;" horiz-adv-x="1275" 
d="M41 0v23l899 1443l-266 -8q-87 -3 -165 -26t-134.5 -56t-109.5 -83t-87.5 -93t-73.5 -100l-16 6l96 393h1033v-22l-898 -1446l328 10q88 3 166 27t136.5 59.5t112.5 88t91.5 103t75.5 113.5l16 -6l-100 -426h-1104zM903 1964l107 -176l-494 -186l-12 20z" />
    <glyph glyph-name="zacute" unicode="&#x17a;" horiz-adv-x="915" 
d="M31 0v14l577 928l-246 -8q-17 0 -34 -4t-35 -13.5t-33 -17.5t-35 -25t-32 -27t-33.5 -31t-30 -30t-30.5 -32t-27 -29l-11 4l68 248h723v-16l-573 -926l268 6q84 4 158 63.5t159 165.5l10 -4l-71 -266h-772zM621 1534l149 -145l-405 -279l-17 16z" />
    <glyph glyph-name="Zdotaccent" unicode="&#x17b;" horiz-adv-x="1275" 
d="M41 0v23l899 1443l-266 -8q-87 -3 -165 -26t-134.5 -56t-109.5 -83t-87.5 -93t-73.5 -100l-16 6l96 393h1033v-22l-898 -1446l328 10q88 3 166 27t136.5 59.5t112.5 88t91.5 103t75.5 113.5l16 -6l-100 -426h-1104zM807 1778q0 -51 -36 -87t-87 -36t-87 36t-36 87t36 88
t87 37t87 -37t36 -88z" />
    <glyph glyph-name="zdotaccent" unicode="&#x17c;" horiz-adv-x="915" 
d="M31 0v14l577 928l-246 -8q-17 0 -34 -4t-35 -13.5t-33 -17.5t-35 -25t-32 -27t-33.5 -31t-30 -30t-30.5 -32t-27 -29l-11 4l68 248h723v-16l-573 -926l268 6q84 4 158 63.5t159 165.5l10 -4l-71 -266h-772zM608 1348q0 -51 -36 -87t-87 -36t-87 36t-36 87t36 88t87 37
t87 -37t36 -88z" />
    <glyph glyph-name="Zcaron" unicode="&#x17d;" horiz-adv-x="1275" 
d="M41 0v23l899 1443l-266 -8q-87 -3 -165 -26t-134.5 -56t-109.5 -83t-87.5 -93t-73.5 -100l-16 6l96 393h1033v-22l-898 -1446l328 10q88 3 166 27t136.5 59.5t112.5 88t91.5 103t75.5 113.5l16 -6l-100 -426h-1104zM678 1602l-313 313l18 20l301 -155l301 155l19 -20
l-314 -313h-12z" />
    <glyph glyph-name="zcaron" unicode="&#x17e;" horiz-adv-x="915" 
d="M31 0v14l577 928l-246 -8q-17 0 -34 -4t-35 -13.5t-33 -17.5t-35 -25t-32 -27t-33.5 -31t-30 -30t-30.5 -32t-27 -29l-11 4l68 248h723v-16l-573 -926l268 6q84 4 158 63.5t159 165.5l10 -4l-71 -266h-772zM199 1452l18 21l268 -179l269 179l18 -21l-280 -346h-13z" />
    <glyph glyph-name="uni0192" unicode="&#x192;" horiz-adv-x="1185" 
d="M92 -389q-43 0 -92 9t-68 20l-34 268l16 4q61 -122 112.5 -191t102.5 -69q38 0 68.5 51t66 175.5t88.5 369.5l111 504h-168l10 41h166l29 127q66 308 195 459t286 151q42 0 84.5 -9t62.5 -20l17 -289l-17 -4q-26 62 -46 104.5t-45.5 87t-51 67t-49.5 22.5
q-53 0 -95.5 -103t-103.5 -380l-49 -213h223l-8 -41h-223l-86 -375q-40 -173 -86.5 -305.5t-94.5 -218.5t-102 -141t-107 -78t-112 -23z" />
    <glyph glyph-name="Aringacute" unicode="&#x1fa;" horiz-adv-x="1302" 
d="M553 1198l-225 -592h448zM272 0h-276v4q68 72 106 144.5t88 207.5l441 1160h41l448 -1182q48 -130 89.5 -202t97.5 -128v-4h-408v4q28 40 23.5 134.5t-45.5 205.5l-84 221h-482l-43 -114q-33 -84 -44.5 -159.5t-4 -130.5t20.5 -91.5t32 -65.5v-4zM467 1776
q0 77 52.5 126.5t131.5 49.5t132 -49.5t53 -126.5t-53 -125.5t-132 -48.5t-131.5 48.5t-52.5 125.5zM547 1776q0 -63 27.5 -99.5t76.5 -36.5t77 36.5t28 99.5q0 64 -28 101.5t-77 37.5t-76.5 -37.5t-27.5 -101.5zM870 2333l107 -176l-494 -187l-12 21z" />
    <glyph glyph-name="aringacute" unicode="&#x1fb;" horiz-adv-x="966" 
d="M399 80q105 0 168 59v312q-317 -72 -317 -240q0 -61 39 -96t110 -35zM741 -25q-74 0 -116.5 35.5t-53.5 93.5q-52 -60 -127.5 -97.5t-167.5 -37.5q-97 0 -158 45t-61 129q0 60 33 112t84.5 88.5t120.5 66t136 47t136 28.5v224q0 86 -42.5 131t-145.5 45q-161 0 -273 -92
l-10 12q65 94 171 148.5t237 54.5q142 0 205 -69t63 -175v-584q0 -90 80 -90q51 0 100 39l4 -4q-75 -150 -215 -150zM258 1337q0 77 52.5 126.5t131.5 49.5t132 -49.5t53 -126.5t-53 -125.5t-132 -48.5t-131.5 48.5t-52.5 125.5zM338 1337q0 -63 27.5 -99t76.5 -36t77 36
t28 99q0 64 -28 102t-77 38t-76.5 -38t-27.5 -102zM662 1923l106 -176l-494 -186l-12 20z" />
    <glyph glyph-name="AEacute" unicode="&#x1fc;" horiz-adv-x="2068" 
d="M979 1153q0 126 -31 211l-434 -758h465v547zM342 0h-287v4q58 49 105.5 108.5t72.5 100.5t86 145l605 1057q-19 36 -66 80v4h987l80 -364l-16 -7q-28 29 -85.5 96t-96 110t-86 80.5t-78.5 39.5l-346 14v-692h176q35 0 73 24.5t63 51.5t63.5 74.5t54.5 64.5h18v-463h-18
q-13 14 -41.5 48t-49.5 57t-49.5 49t-57 39.5t-56.5 13.5h-176v-704l364 14q60 2 121 35t121 94t102 112t96 126l17 -6l-90 -406h-1049v4q43 100 61.5 173.5t18.5 168.5v219h-490l-88 -155q-41 -70 -61.5 -136t-21 -117.5t5.5 -87t18 -65.5v-4zM1487 1964l106 -176
l-493 -186l-13 20z" />
    <glyph glyph-name="aeacute" unicode="&#x1fd;" horiz-adv-x="1462" 
d="M1024 -31q-132 0 -230.5 55t-156.5 156q-124 -211 -350 -211q-103 0 -166.5 44.5t-63.5 129.5q0 60 33 112t84.5 88.5t120.5 66t136 47t136 28.5v224q0 86 -42.5 131t-145.5 45q-161 0 -273 -92l-10 12q65 94 171 148.5t237 54.5q177 0 231 -125q128 125 291 125
q86 0 160 -37t120.5 -95.5t71.5 -129t21 -138.5h-629q-2 -10 -2 -30v-31q0 -194 97 -299t265 -105q77 0 150 22.5t119 72.5l12 -9q-40 -121 -138 -190.5t-249 -69.5zM1024 971q-97 0 -165 -90.5t-85 -239.5l416 10v23q0 153 -40.5 225t-125.5 72zM399 80q71 0 129.5 33
t94.5 90q-53 106 -56 248q-317 -72 -317 -240q0 -61 39 -96t110 -35zM897 1534l150 -145l-406 -279l-16 16z" />
    <glyph glyph-name="Oslashacute" unicode="&#x1fe;" horiz-adv-x="1667" 
d="M322 748q0 -342 129 -537l733 1116q-128 162 -353 162q-129 0 -227.5 -56t-159.5 -157t-91.5 -234t-30.5 -294zM831 10q130 0 229.5 55t161.5 154.5t93 233t31 295.5q0 338 -132 538l-733 -1116q131 -160 350 -160zM831 -31q-209 0 -401 125l-100 -153h-58l119 180
q-148 110 -239 275.5t-91 351.5q0 158 66.5 304.5t174 250t247 165.5t282.5 62q212 0 404 -125l102 156h58l-121 -185q151 -112 241.5 -276t90.5 -352q0 -127 -43.5 -247t-119 -215t-173 -167t-211.5 -111t-228 -39zM1053 1964l106 -176l-493 -186l-13 20z" />
    <glyph glyph-name="oslashacute" unicode="&#x1ff;" horiz-adv-x="1153" 
d="M575 -31q-149 0 -276 78l-127 -184h-55l145 211q-100 73 -156 181.5t-55 231.5q0 134 71 254.5t192.5 193.5t260.5 73q143 0 275 -82l129 188h55l-147 -213q100 -75 157.5 -184t57.5 -230q0 -102 -42.5 -197t-113 -165.5t-168.5 -113t-203 -42.5zM575 10q76 0 135.5 39
t95 107t53.5 151.5t18 179.5q0 177 -62 310l-457 -662q77 -125 217 -125zM276 487q0 -178 58 -309l457 662q-78 127 -216 127q-99 0 -168.5 -70t-100 -175.5t-30.5 -234.5zM711 1534l149 -145l-405 -279l-17 16z" />
    <glyph glyph-name="uni0218" unicode="&#x218;" horiz-adv-x="1132" 
d="M971 1100l-19 -6q-102 216 -205 305.5t-219 89.5q-104 0 -163.5 -62t-59.5 -167q0 -41 11 -77.5t26 -64t46 -56.5t54 -47t68.5 -43.5t70.5 -38t78 -38.5q48 -23 76.5 -38t72.5 -39.5t71 -45.5t61 -51t54.5 -61.5t40 -70t28 -85t8.5 -98.5q0 -90 -28 -163t-77 -123.5
t-117.5 -85t-147 -50t-166.5 -15.5q-207 0 -422 80l-41 379l16 6q117 -219 240 -321.5t264 -102.5q133 0 204.5 80.5t71.5 200.5q0 57 -17.5 106.5t-44.5 86t-70.5 71.5t-85.5 59.5t-99 51.5q-173 84 -244 135q-161 117 -181 284q-3 26 -3 54q0 102 38.5 179.5t106 122.5
t150 67t178.5 22q169 0 334 -60zM436 -489q53 36 84 83.5t31 90.5q0 23 -26.5 61.5t-59.5 71.5v2l153 102q38 -26 62.5 -64.5t24.5 -78.5q0 -79 -82.5 -157.5t-180.5 -121.5z" />
    <glyph glyph-name="uni0219" unicode="&#x219;" horiz-adv-x="817" 
d="M709 743l-13 -4q-136 232 -317 232q-77 0 -122.5 -43.5t-45.5 -108.5q0 -34 16 -63.5t36.5 -49t62 -42t69 -34t80.5 -32.5q50 -21 85.5 -39t77 -48t67.5 -62.5t43.5 -80.5t17.5 -104q0 -98 -52 -166t-136.5 -98.5t-194.5 -30.5q-148 0 -301 54l-21 262l13 4
q78 -149 158 -216t178 -67q95 0 141.5 52t46.5 124q0 74 -51 120t-166 95q-125 55 -173 88q-130 90 -130 244q0 75 29.5 130.5t81.5 87t113 46.5t132 15q156 0 254 -41zM250 -489q53 36 84 83.5t31 90.5q0 23 -26.5 61.5t-59.5 71.5v2l153 102q38 -26 62 -64.5t24 -78.5
q0 -79 -82 -158t-180 -121z" />
    <glyph glyph-name="uni021A" unicode="&#x21a;" horiz-adv-x="1464" 
d="M932 0h-400v4q49 93 65.5 167.5t16.5 199.5v1093l-223 -8q-30 -2 -70.5 -35.5t-86 -89.5t-85 -110.5t-83.5 -118.5q-14 -21 -21 -31l-16 6l77 422h1252l78 -422l-17 -6q-20 27 -68 94.5t-77 106.5t-69.5 87t-73 71.5t-58.5 25.5l-223 8v-1093q0 -129 16 -201t66 -166v-4z
M575 -489q53 36 84 83.5t31 90.5q0 23 -26.5 61.5t-59.5 71.5v2l154 102q38 -26 62 -64.5t24 -78.5q0 -79 -82 -158t-180 -121z" />
    <glyph glyph-name="uni021B" unicode="&#x21b;" horiz-adv-x="667" 
d="M377 -31q-230 0 -230 248v723h-110v12l297 256h20v-231h264v-37h-264v-717q0 -151 144 -151q78 0 135 34l6 -8q-92 -129 -262 -129zM193 -489q53 36 83.5 83.5t30.5 90.5q0 23 -26.5 61.5t-59.5 71.5v2l154 102q38 -26 62 -64.5t24 -78.5q0 -79 -82 -158t-180 -121z" />
    <glyph glyph-name="uni0237" unicode="&#x237;" horiz-adv-x="501" 
d="M18 -485q69 42 101.5 110.5t32.5 177.5v828q0 160 -93 264v14l297 109l-4 -1071q0 -200 -93 -313t-236 -132z" />
    <glyph glyph-name="circumflex" unicode="&#x2c6;" 
d="M307 1284l-268 -178l-19 20l281 347h12l281 -347l-19 -20z" />
    <glyph glyph-name="caron" unicode="&#x2c7;" 
d="M-133 1452l18 21l269 -179l268 179l18 -21l-280 -346h-13z" />
    <glyph glyph-name="breve" unicode="&#x2d8;" 
d="M307 1294q86 0 140 39t73 109h21q0 -43 -12 -87t-37.5 -87.5t-74.5 -71t-114 -27.5q-53 0 -94.5 18.5t-66 47t-40.5 66.5t-22 72.5t-6 68.5h20q19 -70 73 -109t140 -39z" />
    <glyph glyph-name="dotaccent" unicode="&#x2d9;" 
d="M430 1348q0 -51 -36 -87t-87 -36t-87 36t-36 87t36 88t87 37t87 -37t36 -88z" />
    <glyph glyph-name="ring" unicode="&#x2da;" 
d="M123 1337q0 77 52.5 126.5t131.5 49.5t132 -49.5t53 -126.5t-53 -125.5t-132 -48.5t-131.5 48.5t-52.5 125.5zM203 1337q0 -63 27.5 -99t76.5 -36t77 36t28 99q0 64 -28 102t-77 38t-76.5 -38t-27.5 -102z" />
    <glyph glyph-name="ogonek" unicode="&#x2db;" 
d="M406 2q-170 -136 -170 -260q0 -57 28.5 -89t83.5 -32q91 0 168 92l19 -14q-22 -41 -44 -72.5t-55.5 -64.5t-77.5 -51.5t-96 -18.5q-85 0 -136.5 48t-51.5 124q0 45 18.5 87t59 85.5t82 78.5t110.5 87h62z" />
    <glyph glyph-name="tilde" unicode="&#x2dc;" 
d="M174 1393q42 0 145 -32t154 -32q47 0 75.5 20.5t45.5 67.5l20 -2q-3 -37 -11 -72.5t-26 -75.5t-52.5 -64.5t-82.5 -24.5q-43 0 -148 32.5t-155 32.5q-48 0 -75.5 -20.5t-40.5 -67.5l-23 2q2 28 7 55.5t17.5 61.5t30.5 59t49 42.5t70 17.5z" />
    <glyph glyph-name="hungarumlaut" unicode="&#x2dd;" 
d="M537 1493l120 -131l-346 -252l-18 20zM209 1493l121 -131l-346 -252l-19 20z" />
    <glyph glyph-name="Wgrave" unicode="&#x1e80;" horiz-adv-x="2037" 
d="M565 -16l-385 1181q-43 130 -80.5 199.5t-93.5 130.5v4h428v-4q-32 -51 -35 -136t31 -204l264 -829l318 796l-17 43q-50 138 -85.5 205.5t-88.5 124.5v4h428v-4q-18 -33 -28.5 -79.5t-6 -117.5t30.5 -143l287 -813l233 713q35 110 41 203.5t-7 146t-38 90.5v4h271v-4
q-71 -74 -115 -156.5t-86 -216.5l-371 -1138h-41l-387 1079l-426 -1079h-41zM1237 1602l-502 186l105 176l409 -342z" />
    <glyph glyph-name="wgrave" unicode="&#x1e81;" horiz-adv-x="1368" 
d="M133 735q-32 96 -59.5 149t-63.5 89v4h350v-4q-20 -34 -23 -89t19 -134l146 -445l151 418l-4 12q-33 96 -61.5 147t-67.5 91v4h348v-4q-50 -84 0 -223l148 -445l141 387q23 63 24 123.5t-9.5 96t-26.5 61.5v4h213v-4q-54 -59 -86.5 -112t-63.5 -140l-266 -741h-33
l-237 690l-248 -690h-33zM834 1090l-412 299l156 145l272 -428z" />
    <glyph glyph-name="Wacute" unicode="&#x1e82;" horiz-adv-x="2037" 
d="M565 -16l-385 1181q-43 130 -80.5 199.5t-93.5 130.5v4h428v-4q-32 -51 -35 -136t31 -204l264 -829l318 796l-17 43q-50 138 -85.5 205.5t-88.5 124.5v4h428v-4q-18 -33 -28.5 -79.5t-6 -117.5t30.5 -143l287 -813l233 713q35 110 41 203.5t-7 146t-38 90.5v4h271v-4
q-71 -74 -115 -156.5t-86 -216.5l-371 -1138h-41l-387 1079l-426 -1079h-41zM1217 1964l106 -176l-494 -186l-12 20z" />
    <glyph glyph-name="wacute" unicode="&#x1e83;" horiz-adv-x="1368" 
d="M133 735q-32 96 -59.5 149t-63.5 89v4h350v-4q-20 -34 -23 -89t19 -134l146 -445l151 418l-4 12q-33 96 -61.5 147t-67.5 91v4h348v-4q-50 -84 0 -223l148 -445l141 387q23 63 24 123.5t-9.5 96t-26.5 61.5v4h213v-4q-54 -59 -86.5 -112t-63.5 -140l-266 -741h-33
l-237 690l-248 -690h-33zM848 1534l149 -145l-405 -279l-17 16z" />
    <glyph glyph-name="Wdieresis" unicode="&#x1e84;" horiz-adv-x="2037" 
d="M565 -16l-385 1181q-43 130 -80.5 199.5t-93.5 130.5v4h428v-4q-32 -51 -35 -136t31 -204l264 -829l318 796l-17 43q-50 138 -85.5 205.5t-88.5 124.5v4h428v-4q-18 -33 -28.5 -79.5t-6 -117.5t30.5 -143l287 -813l233 713q35 110 41 203.5t-7 146t-38 90.5v4h271v-4
q-71 -74 -115 -156.5t-86 -216.5l-371 -1138h-41l-387 1079l-426 -1079h-41zM1427 1778q0 -51 -35.5 -87t-86.5 -36t-87 36t-36 87t36 88t87 37t86.5 -37t35.5 -88zM936 1778q0 -51 -36 -87t-87 -36t-87 36t-36 87t36 88t87 37t87 -37t36 -88z" />
    <glyph glyph-name="wdieresis" unicode="&#x1e85;" horiz-adv-x="1368" 
d="M133 735q-32 96 -59.5 149t-63.5 89v4h350v-4q-20 -34 -23 -89t19 -134l146 -445l151 418l-4 12q-33 96 -61.5 147t-67.5 91v4h348v-4q-50 -84 0 -223l148 -445l141 387q23 63 24 123.5t-9.5 96t-26.5 61.5v4h213v-4q-54 -59 -86.5 -112t-63.5 -140l-266 -741h-33
l-237 690l-248 -690h-33zM1040 1348q0 -51 -35.5 -87t-86.5 -36t-87 36t-36 87t36 88t87 37t86.5 -37t35.5 -88zM631 1348q0 -51 -36 -87t-87 -36t-87 36t-36 87t36 88t87 37t87 -37t36 -88z" />
    <glyph glyph-name="Ygrave" unicode="&#x1ef2;" horiz-adv-x="1230" 
d="M414 4q49 77 65.5 139t16.5 166v373l-297 530q-62 108 -114 174t-112 109v4h465v-4q-40 -34 -35.5 -107.5t46.5 -150.5l268 -494l203 355q129 228 32 397v4h305v-4q-80 -75 -131.5 -145t-130.5 -207l-264 -459v-375q0 -107 16 -166.5t66 -138.5v-4h-399v4zM864 1602
l-502 186l105 176l410 -342z" />
    <glyph glyph-name="ygrave" unicode="&#x1ef3;" horiz-adv-x="919" 
d="M80 -264q265 0 344 215l2 8l-291 774q-60 163 -125 240v4h344v-4q-13 -22 -19.5 -55.5t-1 -89.5t28.5 -117l173 -461l174 465q21 54 18 106.5t-16 88.5t-33 63v4h231v-4q-54 -57 -87 -111t-64 -141l-318 -821q-41 -103 -82 -172t-86 -108t-88.5 -57t-99.5 -24zM645 1090
l-412 299l156 145l273 -428z" />
    <glyph glyph-name="endash" unicode="&#x2013;" horiz-adv-x="1085" 
d="M61 555v41h963v-41h-963z" />
    <glyph glyph-name="emdash" unicode="&#x2014;" horiz-adv-x="1597" 
d="M61 555v41h1475v-41h-1475z" />
    <glyph glyph-name="quoteleft" unicode="&#x2018;" horiz-adv-x="503" 
d="M391 1534q-106 -101 -106 -209q0 -53 92 -158v-4l-162 -129q-42 30 -67 74.5t-25 93.5q0 96 79.5 191t178.5 153z" />
    <glyph glyph-name="quoteright" unicode="&#x2019;" horiz-adv-x="503" 
d="M113 1047q106 101 106 208q0 53 -92 158v4l162 129q42 -30 67 -74.5t25 -93.5q0 -96 -79.5 -191t-178.5 -153z" />
    <glyph glyph-name="quotesinglbase" unicode="&#x201a;" horiz-adv-x="503" 
d="M113 -182q106 101 106 209q0 52 -92 157v4l162 129q42 -30 67 -74t25 -93q0 -96 -79.5 -191.5t-178.5 -153.5z" />
    <glyph glyph-name="quotedblleft" unicode="&#x201c;" horiz-adv-x="851" 
d="M391 1534q-106 -101 -106 -209q0 -53 92 -158v-4l-162 -129q-42 30 -67 74.5t-25 93.5q0 96 79.5 191t178.5 153zM739 1534q-106 -101 -106 -209q0 -53 92 -158v-4l-162 -129q-42 30 -67 74.5t-25 93.5q0 96 79.5 191t178.5 153z" />
    <glyph glyph-name="quotedblright" unicode="&#x201d;" horiz-adv-x="851" 
d="M461 1047q106 101 106 208q0 53 -92 158v4l162 129q42 -30 67 -74.5t25 -93.5q0 -96 -79.5 -191t-178.5 -153zM113 1047q106 101 106 208q0 53 -92 158v4l162 129q42 -30 67 -74.5t25 -93.5q0 -96 -79.5 -191t-178.5 -153z" />
    <glyph glyph-name="quotedblbase" unicode="&#x201e;" horiz-adv-x="851" 
d="M113 -182q106 101 106 209q0 52 -92 157v4l162 129q42 -30 67 -74t25 -93q0 -96 -79.5 -191.5t-178.5 -153.5zM461 -182q106 101 106 209q0 52 -92 157v4l162 129q42 -30 67 -74t25 -93q0 -96 -79.5 -191.5t-178.5 -153.5z" />
    <glyph glyph-name="dagger" unicode="&#x2020;" horiz-adv-x="851" 
d="M444 0h-36l-99 537l97 514l-345 -95v234l342 -94l-104 403h254l-104 -403l342 94v-234l-345 95l97 -514z" />
    <glyph glyph-name="daggerdbl" unicode="&#x2021;" horiz-adv-x="851" 
d="M449 403l104 -403h-254l104 403l-342 -94v234l342 -94l-94 299l94 303l-342 -95v234l342 -94l-104 403h254l-104 -403l342 94v-234l-342 95l94 -303l-94 -299l342 94v-234z" />
    <glyph glyph-name="bullet" unicode="&#x2022;" horiz-adv-x="679" 
d="M340 397q-77 0 -131.5 56t-54.5 131q0 80 54 135t132 55q74 0 130 -56t56 -134q0 -74 -56.5 -130.5t-129.5 -56.5z" />
    <glyph glyph-name="ellipsis" unicode="&#x2026;" horiz-adv-x="1548" 
d="M262 -10q-57 0 -97 40.5t-40 96.5q0 59 39.5 99t97.5 40q56 0 96.5 -40t40.5 -99q0 -55 -40.5 -96t-96.5 -41zM774 -10q-57 0 -97 40.5t-40 96.5q0 59 39.5 99t97.5 40q56 0 96.5 -40t40.5 -99q0 -55 -40.5 -96t-96.5 -41zM1286 -10q-57 0 -97 40.5t-40 96.5
q0 59 39.5 99t97.5 40q56 0 96.5 -40t40.5 -99q0 -55 -40.5 -96t-96.5 -41z" />
    <glyph glyph-name="perthousand" unicode="&#x2030;" horiz-adv-x="2396" 
d="M397 709q-142 0 -242 118.5t-100 292.5q0 176 99 293t243 117q143 0 247 -118t104 -292q0 -173 -104 -292t-247 -119zM397 739q158 0 158 381q0 379 -158 379q-44 0 -74 -27.5t-46 -81.5t-22.5 -118.5t-6.5 -151.5q0 -88 6.5 -153t22.5 -119t46 -81.5t74 -27.5zM1174 -16
q-142 0 -242.5 119t-100.5 292q0 175 99.5 292.5t243.5 117.5q143 0 246.5 -118t103.5 -292q0 -173 -103.5 -292t-246.5 -119zM1991 -16q-142 0 -242 118.5t-100 292.5q0 176 99 293t243 117q143 0 246.5 -118t103.5 -292q0 -173 -103.5 -292t-246.5 -119zM1174 14
q157 0 157 381q0 379 -157 379q-44 0 -74.5 -28t-46.5 -81.5t-22.5 -118t-6.5 -151.5q0 -88 6.5 -153t22.5 -118.5t46.5 -81.5t74.5 -28zM1991 14q157 0 157 381q0 379 -157 379q-44 0 -74.5 -28t-46.5 -81.5t-22.5 -118t-6.5 -151.5q0 -88 6.5 -153t22.5 -118.5t46.5 -81.5
t74.5 -28zM254 31l1065 1491l37 -25l-1067 -1495z" />
    <glyph glyph-name="guilsinglleft" unicode="&#x2039;" horiz-adv-x="575" 
d="M436 106l-313 359v41l313 358l17 -12l-187 -367l187 -366z" />
    <glyph glyph-name="guilsinglright" unicode="&#x203a;" horiz-adv-x="575" 
d="M123 119l186 366l-186 367l16 12l314 -358v-41l-314 -359z" />
    <glyph glyph-name="fraction" unicode="&#x2044;" horiz-adv-x="557" 
d="M-276 31l1064 1491l37 -25l-1067 -1495z" />
    <glyph glyph-name="Euro" unicode="&#x20ac;" horiz-adv-x="1470" 
d="M1333 117q-36 -36 -174.5 -92t-286.5 -56q-265 0 -443 174.5t-220 452.5h-189v41h183q-6 56 -6 113q0 56 6 112h-183v41h189q45 274 238 450.5t464 176.5q213 0 414 -98l41 -336l-16 -6q-127 222 -227 310.5t-238 88.5q-98 0 -174.5 -42.5t-127 -122t-80.5 -184.5
t-40 -237h481v-41h-483q-4 -36 -4 -57v-55q0 -35 4 -113h483v-41h-481q21 -271 124 -428.5t285 -157.5q59 0 111 15.5t96 47.5t81.5 72.5t72.5 98.5t64 117.5t61 136.5l16 -6z" />
    <glyph glyph-name="trademark" unicode="&#x2122;" horiz-adv-x="1613" 
d="M498 825h-222v4q23 42 30 73.5t7 88.5v479l-80 -2q-29 0 -81.5 -63.5t-98.5 -138.5l-12 4l43 229h604l41 -229l-12 -4q-47 76 -97.5 139t-78.5 63l-80 2v-479q0 -58 7 -89t30 -73v-4zM934 825h-158v4q36 46 47 81.5t11 99.5v366q0 38 -16.5 62t-57.5 57v4h217l190 -455
l193 455h213v-4q-45 -36 -59.5 -64.5t-14.5 -87.5v-352q0 -58 7 -89t30 -73v-4h-221v4q23 42 30 73.5t7 88.5v406l-234 -551h-18l-236 549l4 -385q0 -63 13 -98t53 -83v-4z" />
    <glyph glyph-name="onethird" unicode="&#x2153;" horiz-adv-x="1411" 
d="M88 725v2q34 42 44.5 74.5t10.5 91.5v453h-96v12q163 73 262 172h13v-637q0 -59 10 -92.5t43 -73.5v-2h-287zM98 31l1065 1491l37 -25l-1067 -1495zM1044 -16q-135 0 -217 47l-26 194l12 2q77 -120 105 -151q55 -62 118 -62q70 0 109 62t39 164q0 104 -40.5 157.5
t-115.5 53.5q-72 0 -135 -45l-12 14l268 227h-313l41 139h477v-10l-355 -297q31 8 76 8q54 0 104 -15t92 -43.5t67.5 -77.5t25.5 -111q0 -117 -88 -186.5t-232 -69.5z" />
    <glyph glyph-name="twothirds" unicode="&#x2154;" horiz-adv-x="1536" 
d="M20 725v12q203 191 284 321.5t81 254.5q0 88 -29.5 137t-83.5 49q-104 0 -204 -205l-11 2l27 199q98 35 195 35q142 0 213 -58t71 -155q0 -107 -92 -210.5t-293 -242.5h199q69 0 114 27.5t87 77.5l8 -2l-56 -242h-510zM223 31l1065 1491l37 -25l-1067 -1495zM1169 -16
q-135 0 -217 47l-26 194l12 2q77 -120 105 -151q55 -62 118 -62q70 0 109 62t39 164q0 104 -40.5 157.5t-115.5 53.5q-72 0 -135 -45l-12 14l268 227h-313l40 139h478v-10l-355 -297q31 8 76 8q54 0 104 -15t92 -43.5t67.5 -77.5t25.5 -111q0 -117 -88 -186.5t-232 -69.5z
" />
    <glyph glyph-name="oneeighth" unicode="&#x215b;" horiz-adv-x="1353" 
d="M88 725v2q34 42 44.5 74.5t10.5 91.5v453h-96v12q163 73 262 172h13v-637q0 -59 10 -92.5t43 -73.5v-2h-287zM78 31l1065 1491l37 -25l-1067 -1495zM999 -16q-124 0 -205 56.5t-81 149.5q0 132 174 187q-137 81 -137 205q0 99 72.5 161t189.5 62q111 0 184.5 -51.5
t73.5 -130.5q0 -51 -36.5 -96.5t-119.5 -69.5q193 -98 193 -244q0 -103 -87.5 -166t-220.5 -63zM1001 14q71 0 114.5 38t43.5 98q0 66 -53.5 108.5t-181.5 97.5l-13 6q-75 -63 -75 -167q0 -83 43.5 -132t121.5 -49zM1087 471q60 52 60 147q0 74 -34 115t-97 41
q-59 0 -93 -33t-34 -84q0 -55 43.5 -95.5t144.5 -86.5z" />
    <glyph glyph-name="threeeighths" unicode="&#x215c;" horiz-adv-x="1478" 
d="M291 709q-135 0 -217 47l-27 194l12 2q78 -120 106 -152q55 -61 118 -61q70 0 108.5 62t38.5 164q0 104 -40.5 157.5t-115.5 53.5q-71 0 -135 -46l-12 15l268 227h-313l41 139h477v-10l-354 -297q31 8 76 8q73 0 136.5 -25t107.5 -82.5t44 -139.5q0 -118 -87.5 -187
t-231.5 -69zM203 31l1065 1491l37 -25l-1067 -1495zM1124 -16q-124 0 -205 56.5t-81 149.5q0 132 174 187q-138 82 -138 205q0 98 73 160.5t190 62.5q111 0 184.5 -51.5t73.5 -130.5q0 -51 -36.5 -96.5t-119.5 -69.5q193 -98 193 -244q0 -103 -87.5 -166t-220.5 -63z
M1126 14q71 0 114.5 38t43.5 98q0 66 -53.5 108.5t-181.5 97.5l-13 6q-75 -63 -75 -167q0 -83 43.5 -132t121.5 -49zM1212 471q60 52 60 147q0 74 -34 115t-97 41q-59 0 -93 -33t-34 -84q0 -55 43.5 -95.5t144.5 -86.5z" />
    <glyph glyph-name="fiveeighths" unicode="&#x215d;" horiz-adv-x="1472" 
d="M258 709q-114 0 -190 45l-27 198l10 2q47 -100 98 -157.5t113 -57.5q63 0 101 60.5t38 165.5q0 225 -172 225q-68 0 -127 -39l-8 6l58 356h411l-26 -139h-373l-33 -182q62 33 145 33q77 0 142.5 -26t111 -85.5t45.5 -144.5t-47 -145.5t-117 -87.5t-153 -27zM197 31
l1065 1491l36 -25l-1067 -1495zM1118 -16q-124 0 -205.5 56.5t-81.5 149.5q0 132 175 187q-138 82 -138 205q0 99 72.5 161t189.5 62q111 0 185 -51.5t74 -130.5q0 -51 -36.5 -96.5t-119.5 -69.5q192 -98 192 -244q0 -103 -87 -166t-220 -63zM1120 14q71 0 114.5 38t43.5 98
q0 66 -53.5 108.5t-182.5 97.5l-12 6q-76 -64 -76 -167q0 -83 44 -132t122 -49zM1206 471q60 52 60 147q0 74 -34 115t-97 41q-59 0 -93 -33t-34 -84q0 -55 43.5 -95.5t144.5 -86.5z" />
    <glyph glyph-name="seveneighths" unicode="&#x215e;" horiz-adv-x="1333" 
d="M102 725q98 315 375 639h-426l29 149h512v-10q-241 -401 -299 -778h-191zM57 31l1065 1491l37 -25l-1067 -1495zM979 -16q-124 0 -205.5 56.5t-81.5 149.5q0 132 174 187q-137 81 -137 205q0 99 72.5 161t189.5 62q111 0 184.5 -51.5t73.5 -130.5q0 -52 -36 -97t-119 -69
q192 -98 192 -244q0 -103 -87 -166t-220 -63zM981 14q71 0 114.5 38t43.5 98q0 66 -53.5 108.5t-182.5 97.5l-12 6q-76 -64 -76 -167q0 -83 44 -132t122 -49zM1067 471q59 51 59 147q0 74 -34 115t-97 41q-59 0 -93 -33t-34 -84q0 -55 43.5 -95.5t145.5 -86.5z" />
    <glyph glyph-name="minus" unicode="&#x2212;" horiz-adv-x="1089" 
d="M92 608v45h905v-45h-905z" />
    <glyph glyph-name="uni24C5" unicode="&#x24c5;" horiz-adv-x="1685" 
d="M61 750q0 160 61.5 304.5t166.5 248t249.5 164.5t303.5 61t304 -61t249.5 -164.5t166.5 -248t62 -304.5q0 -161 -62 -305.5t-166.5 -249t-249.5 -165.5t-304 -61t-303.5 61t-249.5 165.5t-166.5 249t-61.5 305.5zM117 750q0 -150 57 -286.5t154 -235t231.5 -156.5
t282.5 -58q147 0 281 58t231.5 156.5t155 235t57.5 286.5q0 200 -97.5 369t-264 266.5t-363.5 97.5q-149 0 -283 -57.5t-231 -155.5t-154 -234t-57 -286zM582 319q28 52 36.5 91t8.5 108v418q0 69 -8.5 108t-36.5 91v4h288q89 0 153.5 -18t99.5 -51t51 -72t16 -87
q0 -116 -87 -188t-247 -72h-76v-133q0 -70 9 -109.5t36 -89.5v-6h-243v6zM852 1104h-23q-26 0 -49 -2v-416h70q93 0 140.5 65t47.5 158q0 109 -49.5 152t-136.5 43z" />
    <glyph glyph-name="idotaccent" horiz-adv-x="495" 
d="M367 1348q0 -51 -36 -87t-87 -36t-87 36t-36 87t36 88t87 37t87 -37t36 -88zM104 4q24 102 36 187t12 206v234q0 160 -93 264v14l297 109v-619q0 -152 7.5 -234.5t37.5 -160.5v-4h-297v4z" />
    <glyph glyph-name="space_uni0326" 
d="M154 -489q53 36 83.5 83.5t30.5 90.5q0 23 -26.5 61.5t-59.5 71.5v2l154 102q38 -26 62 -64.5t24 -78.5q0 -79 -82 -158t-180 -121z" />
    <glyph glyph-name="five.num" horiz-adv-x="606" 
d="M248 709q-115 0 -191 45l-26 198l10 2q47 -100 98 -157.5t113 -57.5q63 0 101 60.5t38 165.5q0 225 -172 225q-68 0 -127 -39l-8 6l57 356h412l-27 -139h-372l-33 -182q62 33 145 33q77 0 142.5 -26t111 -85.5t45.5 -144.5t-47 -145.5t-117 -87.5t-153 -27z" />
    <glyph glyph-name="zero.num" horiz-adv-x="782" 
d="M387 709q-142 0 -242 118.5t-100 292.5q0 176 99 293t243 117q143 0 246.5 -118t103.5 -292q0 -173 -103.5 -292t-246.5 -119zM387 739q158 0 158 381q0 379 -158 379q-44 0 -74 -27.5t-46 -81.5t-22.5 -118.5t-6.5 -151.5q0 -88 6.5 -153t22.5 -119t46 -81.5t74 -27.5z
" />
    <glyph glyph-name="one.num" horiz-adv-x="425" 
d="M78 725v2q34 42 44.5 74.5t10.5 91.5v453h-96v12q163 73 262 172h12v-637q0 -59 10.5 -92.5t43.5 -73.5v-2h-287z" />
    <glyph glyph-name="two.num" horiz-adv-x="626" 
d="M10 725v12q203 191 284 321.5t81 254.5q0 88 -29.5 137t-83.5 49q-105 0 -205 -205l-10 2l27 199q97 35 194 35q142 0 213.5 -58t71.5 -155q0 -107 -92 -210.5t-293 -242.5h199q68 0 113 27t87 78l8 -2l-55 -242h-510z" />
    <glyph glyph-name="three.num" horiz-adv-x="636" 
d="M281 709q-136 0 -218 47l-26 194l12 2q77 -120 105 -151q55 -62 118 -62q70 0 109 62t39 164q0 104 -40.5 157.5t-115.5 53.5q-71 0 -135 -46l-12 15l268 227h-313l41 139h477v-10l-354 -297q31 8 75 8q54 0 104 -15t92 -43.5t67.5 -77.5t25.5 -111q0 -118 -87.5 -187
t-231.5 -69z" />
    <glyph glyph-name="four.num" horiz-adv-x="673" 
d="M309 727q26 42 34.5 75.5t8.5 90.5v37h-332v12l351 571h209l-512 -548h284v219h183v-219h102l-8 -35h-94v-37q0 -57 8.5 -90.5t34.5 -75.5v-2h-269v2z" />
    <glyph glyph-name="six.num" horiz-adv-x="692" 
d="M348 709q-135 0 -219 92t-84 229q0 56 13.5 111t48 114.5t86.5 109.5t136 94t191 71l6 -19q-224 -85 -284 -354q43 92 159 92q104 0 177 -70t73 -186q0 -125 -88 -204.5t-215 -79.5zM354 739q56 0 87.5 61t31.5 175q0 213 -123 213q-84 0 -117 -78q-8 -52 -8 -109
q0 -112 32 -187t97 -75z" />
    <glyph glyph-name="seven.num" horiz-adv-x="581" 
d="M92 725q98 315 375 639h-426l29 149h512v-10q-241 -401 -299 -778h-191z" />
    <glyph glyph-name="eight.num" horiz-adv-x="655" 
d="M317 709q-124 0 -205 56.5t-81 149.5q0 132 174 187q-137 81 -137 205q0 99 72.5 161t189.5 62q111 0 184.5 -51.5t73.5 -130.5q0 -51 -36.5 -96.5t-119.5 -69.5q193 -98 193 -244q0 -103 -87.5 -166t-220.5 -63zM319 739q72 0 115 37.5t43 97.5q0 66 -53.5 109
t-181.5 98l-13 6q-75 -63 -75 -167q0 -83 43.5 -132t121.5 -49zM406 1196q59 51 59 147q0 74 -34 115t-97 41q-59 0 -93 -33t-34 -84q0 -55 43.5 -95.5t144.5 -86.5z" />
    <glyph glyph-name="nine.num" horiz-adv-x="692" 
d="M166 727q227 89 285 354q-47 -92 -160 -92q-104 0 -177 70t-73 186q0 125 88 205t215 80q135 0 219 -92.5t84 -229.5q0 -56 -13.5 -110.5t-48 -114t-86.5 -109.5t-136 -94t-191 -71zM342 1051q85 0 117 77q8 52 8 109q0 112 -32 187t-97 75q-56 0 -87.5 -60.5
t-31.5 -174.5q0 -213 123 -213z" />
    <glyph glyph-name="five.den" horiz-adv-x="606" 
d="M248 -16q-115 0 -191 45l-26 198l10 2q47 -100 98 -157.5t113 -57.5q63 0 101 60.5t38 165.5q0 225 -172 225q-68 0 -127 -39l-8 6l57 356h412l-27 -139h-372l-33 -182q62 33 145 33q77 0 142.5 -26t111 -85.5t45.5 -144.5t-47 -145.5t-117 -87.5t-153 -27z" />
    <glyph glyph-name="zero.den" horiz-adv-x="782" 
d="M387 -16q-142 0 -242 118.5t-100 292.5q0 176 99 293t243 117q143 0 246.5 -118t103.5 -292q0 -173 -103.5 -292t-246.5 -119zM387 14q158 0 158 381q0 379 -158 379q-44 0 -74 -27.5t-46 -81.5t-22.5 -118.5t-6.5 -151.5q0 -88 6.5 -153t22.5 -119t46 -81.5t74 -27.5z
" />
    <glyph glyph-name="one.den" horiz-adv-x="425" 
d="M78 0v2q34 42 44.5 74.5t10.5 91.5v453h-96v12q163 73 262 172h12v-637q0 -59 10.5 -92.5t43.5 -73.5v-2h-287z" />
    <glyph glyph-name="two.den" horiz-adv-x="626" 
d="M10 0v12q203 191 284 321.5t81 254.5q0 88 -29.5 137t-83.5 49q-105 0 -205 -205l-10 2l27 199q97 35 194 35q142 0 213.5 -58t71.5 -155q0 -107 -92 -210.5t-293 -242.5h199q68 0 113 27t87 78l8 -2l-55 -242h-510z" />
    <glyph glyph-name="three.den" horiz-adv-x="636" 
d="M281 -16q-136 0 -218 47l-26 194l12 2q77 -120 105 -151q55 -62 118 -62q70 0 109 62t39 164q0 104 -40.5 157.5t-115.5 53.5q-72 0 -135 -45l-12 14l268 227h-313l41 139h477v-10l-354 -297q31 8 75 8q54 0 104 -15t92 -43.5t67.5 -77.5t25.5 -111q0 -118 -87.5 -187
t-231.5 -69z" />
    <glyph glyph-name="four.den" horiz-adv-x="673" 
d="M309 2q26 42 34.5 75.5t8.5 90.5v37h-332v12l351 571h209l-512 -548h284v219h183v-219h102l-8 -35h-94v-37q0 -57 8.5 -90.5t34.5 -75.5v-2h-269v2z" />
    <glyph glyph-name="six.den" horiz-adv-x="692" 
d="M348 -16q-135 0 -219 92t-84 229q0 56 13.5 111t48 114.5t86.5 109.5t136 94t191 71l6 -19q-224 -85 -284 -354q43 92 159 92q104 0 177 -70t73 -186q0 -125 -88 -204.5t-215 -79.5zM354 14q56 0 87.5 61t31.5 175q0 213 -123 213q-84 0 -117 -78q-8 -52 -8 -109
q0 -112 32 -187t97 -75z" />
    <glyph glyph-name="seven.den" horiz-adv-x="581" 
d="M92 0q98 315 375 639h-426l29 149h512v-10q-241 -401 -299 -778h-191z" />
    <glyph glyph-name="eight.den" horiz-adv-x="655" 
d="M317 -16q-124 0 -205 56.5t-81 149.5q0 132 174 187q-137 81 -137 205q0 99 72.5 161t189.5 62q111 0 184.5 -51.5t73.5 -130.5q0 -51 -36.5 -96.5t-119.5 -69.5q193 -98 193 -244q0 -103 -87.5 -166t-220.5 -63zM319 14q71 0 114.5 38t43.5 98q0 66 -53.5 108.5
t-181.5 97.5l-13 6q-75 -63 -75 -167q0 -83 43.5 -132t121.5 -49zM406 471q59 51 59 147q0 74 -34 115t-97 41q-59 0 -93 -33t-34 -84q0 -55 43.5 -95.5t144.5 -86.5z" />
    <glyph glyph-name="nine.den" horiz-adv-x="692" 
d="M166 2q227 89 285 354q-47 -92 -160 -92q-104 0 -177 70t-73 186q0 125 88 205t215 80q135 0 219 -92.5t84 -229.5q0 -56 -13.5 -110.5t-48 -114t-86.5 -109.5t-136 -94t-191 -71zM342 326q85 0 117 77q8 52 8 109q0 112 -32 187t-97 75q-56 0 -87.5 -60.5t-31.5 -174.5
q0 -213 123 -213z" />
    <glyph glyph-name="five.sub" horiz-adv-x="606" 
d="M248 -180q-115 0 -191 45l-26 198l10 3q47 -101 98 -158.5t113 -57.5q63 0 101 60.5t38 165.5q0 225 -172 225q-68 0 -127 -39l-8 6l57 357h412l-27 -140h-372l-33 -182q62 33 145 33q77 0 142.5 -26t111 -85.5t45.5 -144.5t-47 -145.5t-117 -87.5t-153 -27z" />
    <glyph glyph-name="zero.sub" horiz-adv-x="782" 
d="M387 -180q-142 0 -242 118.5t-100 292.5q0 176 99 293t243 117q143 0 246.5 -118t103.5 -292q0 -173 -103.5 -292t-246.5 -119zM387 -150q158 0 158 381q0 379 -158 379q-44 0 -74 -27.5t-46 -81.5t-22.5 -118.5t-6.5 -151.5q0 -88 6.5 -153t22.5 -119t46 -81.5t74 -27.5
z" />
    <glyph glyph-name="one.sub" horiz-adv-x="425" 
d="M78 -164v2q34 42 44.5 74.5t10.5 91.5v453h-96v12q163 73 262 172h12v-637q0 -59 10.5 -92.5t43.5 -73.5v-2h-287z" />
    <glyph glyph-name="two.sub" horiz-adv-x="626" 
d="M10 -164v12q203 191 284 321.5t81 254.5q0 88 -29.5 137t-83.5 49q-106 0 -205 -204l-10 2l27 198q97 35 194 35q142 0 213.5 -58t71.5 -155q0 -107 -92 -210.5t-293 -242.5h199q68 0 113 27t87 78l8 -2l-55 -242h-510z" />
    <glyph glyph-name="three.sub" horiz-adv-x="636" 
d="M281 -180q-136 0 -218 47l-26 194l12 2q77 -120 105 -151q55 -62 118 -62q70 0 109 62t39 164q0 104 -40.5 157.5t-115.5 53.5q-72 0 -135 -45l-12 14l268 227h-313l41 140h477v-11l-354 -297q34 9 75 9q73 0 136.5 -25t108 -83t44.5 -140q0 -118 -87.5 -187t-231.5 -69z
" />
    <glyph glyph-name="four.sub" horiz-adv-x="673" 
d="M309 -162q26 42 34.5 75.5t8.5 90.5v37h-332v12l351 572h209l-512 -549h284v219h183v-219h102l-8 -35h-94v-37q0 -57 8.5 -90.5t34.5 -75.5v-2h-269v2z" />
    <glyph glyph-name="six.sub" horiz-adv-x="692" 
d="M348 -180q-135 0 -219 92t-84 229q0 56 13.5 111t48 114.5t86.5 109.5t136 94t191 71l6 -18q-223 -85 -284 -355q43 92 159 92q104 0 177 -70t73 -186q0 -125 -88 -204.5t-215 -79.5zM354 -150q56 0 87.5 61t31.5 175q0 213 -123 213q-84 0 -117 -78q-8 -52 -8 -108
q0 -72 12.5 -129.5t42.5 -95.5t74 -38z" />
    <glyph glyph-name="seven.sub" horiz-adv-x="581" 
d="M92 -164q98 315 375 639h-426l29 150h512v-11q-241 -401 -299 -778h-191z" />
    <glyph glyph-name="eight.sub" horiz-adv-x="655" 
d="M317 -180q-124 0 -205 56.5t-81 150.5q0 131 174 186q-137 81 -137 205q0 99 72.5 161t189.5 62q111 0 184.5 -51.5t73.5 -130.5q0 -51 -36.5 -96.5t-119.5 -69.5q193 -98 193 -244q0 -103 -87.5 -166t-220.5 -63zM319 -150q71 0 114.5 38t43.5 98q0 66 -53.5 109
t-181.5 98l-13 6q-75 -63 -75 -168q0 -83 43.5 -132t121.5 -49zM406 307q59 51 59 148q0 74 -34 114.5t-97 40.5q-59 0 -93 -32.5t-34 -83.5q0 -56 43.5 -96.5t144.5 -86.5z" />
    <glyph glyph-name="nine.sub" horiz-adv-x="692" 
d="M344 639q136 0 219.5 -91t83.5 -229q0 -56 -13.5 -111t-48 -114t-86.5 -109.5t-136 -94t-191 -70.5l-6 18q224 85 285 355q-44 -93 -160 -93q-104 0 -177 70t-73 186q0 125 88 204t215 79zM338 610q-56 0 -87.5 -60.5t-31.5 -174.5q0 -213 123 -213q84 0 117 78
q8 52 8 108q0 112 -32 187t-97 75z" />
    <glyph glyph-name="plus.sub" horiz-adv-x="645" 
d="M342 217v-252h-41v252h-250v37h250v252h41v-252h252v-37h-252z" />
    <glyph glyph-name="minus.sub" horiz-adv-x="645" 
d="M51 217v37h543v-37h-543z" />
    <glyph glyph-name="five.sup" horiz-adv-x="606" 
d="M248 872q-113 0 -191 46l-26 198l10 2q47 -100 98 -157.5t113 -57.5q64 0 101.5 60t37.5 165q0 226 -172 226q-68 0 -127 -39l-8 6l57 356h412l-27 -139h-372l-33 -182q62 33 145 33q77 0 142.5 -26t111 -85.5t45.5 -144.5q0 -64 -27 -115.5t-72.5 -82.5t-101 -47
t-116.5 -16z" />
    <glyph glyph-name="zero.sup" horiz-adv-x="782" 
d="M387 872q-142 0 -242 119t-100 293q0 176 99 293t243 117q143 0 246.5 -118t103.5 -292q0 -173 -103.5 -292.5t-246.5 -119.5zM387 903q158 0 158 381q0 379 -158 379q-44 0 -74 -27.5t-46 -81.5t-22.5 -118.5t-6.5 -151.5q0 -88 6.5 -153t22.5 -119t46 -81.5t74 -27.5z
" />
    <glyph glyph-name="one.sup" horiz-adv-x="425" 
d="M78 889v2q34 42 44.5 74.5t10.5 91.5v452h-96v13q163 73 262 172h12v-637q0 -59 10.5 -92.5t43.5 -73.5v-2h-287z" />
    <glyph glyph-name="two.sup" horiz-adv-x="626" 
d="M10 889v12q203 191 284 321.5t81 254.5q0 88 -29.5 137t-83.5 49q-105 0 -205 -205l-10 2l27 199q97 35 194 35q142 0 213.5 -58t71.5 -155q0 -107 -92 -210.5t-293 -242.5h199q68 0 113 27t87 78l8 -3l-55 -241h-510z" />
    <glyph glyph-name="three.sup" horiz-adv-x="636" 
d="M281 872q-134 0 -218 48l-26 194l12 2q77 -120 105 -151q55 -62 118 -62q70 0 109 61.5t39 163.5q0 104 -40.5 157.5t-115.5 53.5q-72 0 -135 -45l-12 15l268 227h-313l41 139h477v-10l-354 -297q31 8 75 8q73 0 136.5 -25t108 -83t44.5 -140q0 -118 -87.5 -187
t-231.5 -69z" />
    <glyph glyph-name="four.sup" horiz-adv-x="673" 
d="M309 891q26 42 34.5 75.5t8.5 90.5v37h-332v12l351 571h209l-512 -549h284v220h183v-220h102l-8 -34h-94v-37q0 -57 8.5 -90.5t34.5 -75.5v-2h-269v2z" />
    <glyph glyph-name="six.sup" horiz-adv-x="692" 
d="M348 872q-135 0 -219 92.5t-84 229.5q0 56 13.5 111t48 114.5t86.5 109.5t136 94t191 71l6 -19q-224 -85 -284 -354q43 92 159 92q104 0 177 -70t73 -186q0 -125 -88 -205t-215 -80zM354 903q56 0 87.5 61t31.5 175q0 213 -123 213q-84 0 -117 -78q-8 -52 -8 -109
q0 -112 32 -187t97 -75z" />
    <glyph glyph-name="seven.sup" horiz-adv-x="581" 
d="M92 889q98 315 375 639h-426l29 149h512v-10q-241 -401 -299 -778h-191z" />
    <glyph glyph-name="eight.sup" horiz-adv-x="655" 
d="M317 872q-124 0 -205 56.5t-81 150.5q0 132 174 187q-137 81 -137 204q0 99 72.5 161.5t189.5 62.5q111 0 184.5 -52t73.5 -131q0 -51 -36.5 -96t-119.5 -69q193 -98 193 -244q0 -103 -87.5 -166.5t-220.5 -63.5zM319 903q72 0 115 37.5t43 97.5q0 66 -53.5 109
t-181.5 98l-13 6q-75 -63 -75 -168q0 -83 43.5 -131.5t121.5 -48.5zM406 1360q59 51 59 147q0 74 -34 115t-97 41q-59 0 -93 -33t-34 -84q0 -55 43.5 -95.5t144.5 -86.5z" />
    <glyph glyph-name="nine.sup" horiz-adv-x="692" 
d="M166 891q227 89 285 354q-47 -92 -160 -92q-104 0 -177 70t-73 186q0 125 88 205t215 80q135 0 219 -92.5t84 -229.5q0 -56 -13.5 -110.5t-48 -114t-86.5 -109.5t-136 -94.5t-191 -71.5zM342 1214q84 0 117 78q8 52 8 109q0 112 -32 187t-97 75q-56 0 -87.5 -61
t-31.5 -175q0 -213 123 -213z" />
    <glyph glyph-name="plus.sup" horiz-adv-x="645" 
d="M342 1262v-252h-41v252h-250v36h250v252h41v-252h252v-36h-252z" />
    <glyph glyph-name="minus.sup" horiz-adv-x="645" 
d="M51 1262v36h543v-36h-543z" />
    <glyph glyph-name="space_uni0326.alt" 
d="M483 1616q-53 -36 -83.5 -83.5t-30.5 -90.5q0 -23 26.5 -61.5t59.5 -71.5v-2l-154 -103q-38 25 -62 64.5t-24 79.5q0 79 82 157t180 121z" />
    <glyph glyph-name="caron.alt" 
d="M104 1587h185l-211 -416l-21 5z" />
    <glyph glyph-name="space.uc" horiz-adv-x="391" 
 />
    <glyph glyph-name="questiondown.uc" horiz-adv-x="874" 
d="M616 1040q-10 -64 -34 -119t-54 -96.5t-64.5 -82t-66.5 -84t-58 -93.5t-42 -120t-16 -154q0 -133 52.5 -209t153.5 -76q49 0 90.5 20t78.5 63t65.5 88t66.5 116l15 -4l-41 -269q-131 -51 -285 -51q-426 0 -426 332q0 77 23.5 143t63.5 114.5t89 91.5t103 85t102 84.5
t89.5 99.5t62.5 121h32zM588 1509q59 0 98 -40t39 -97q0 -60 -38.5 -100.5t-98.5 -40.5q-57 0 -97 40.5t-40 100.5q0 56 40 96.5t97 40.5z" />
    <glyph glyph-name="exclamdown.uc" horiz-adv-x="479" 
d="M350 0h-219v4l92 1036h33l94 -1036v-4zM240 1509q57 0 97 -40.5t40 -96.5q0 -60 -40 -100.5t-97 -40.5q-60 0 -99 40.5t-39 100.5q0 56 39.5 96.5t98.5 40.5z" />
    <glyph glyph-name="hyphen.uc" horiz-adv-x="575" 
d="M61 692v103h453v-103h-453z" />
    <glyph glyph-name="endash.uc" horiz-adv-x="1085" 
d="M61 719v41h963v-41h-963z" />
    <glyph glyph-name="emdash.uc" horiz-adv-x="1597" 
d="M61 719v41h1475v-41h-1475z" />
    <glyph glyph-name="guilsinglleft.uc" horiz-adv-x="575" 
d="M436 229l-313 359v41l313 358l17 -12l-187 -367l187 -366z" />
    <glyph glyph-name="guilsinglright.uc" horiz-adv-x="575" 
d="M123 242l186 366l-186 367l16 12l314 -358v-41l-314 -359z" />
    <glyph glyph-name="guillemotleft.uc" horiz-adv-x="882" 
d="M743 229l-313 359v41l313 358l17 -12l-187 -367l187 -366zM436 229l-313 359v41l313 358l17 -12l-187 -367l187 -366z" />
    <glyph glyph-name="guillemotright.uc" horiz-adv-x="882" 
d="M430 242l186 366l-186 367l16 12l314 -358v-41l-314 -359zM123 242l186 366l-186 367l16 12l314 -358v-41l-314 -359z" />
    <glyph glyph-name="parenleft.uc" horiz-adv-x="716" 
d="M604 -184q-203 157 -316.5 388t-113.5 517q0 285 114 517.5t316 389.5l17 -18q-117 -160 -184.5 -388t-67.5 -501t67.5 -500t184.5 -387z" />
    <glyph glyph-name="parenright.uc" horiz-adv-x="716" 
d="M96 -166q117 160 184.5 387t67.5 500t-67.5 501t-184.5 388l17 18q202 -157 316 -389.5t114 -517.5q0 -286 -113.5 -517t-316.5 -388z" />
    <glyph glyph-name="bracketleft.uc" horiz-adv-x="755" 
d="M184 1628h500v-41h-315v-1730h315v-41h-500v1812z" />
    <glyph glyph-name="bracketright.uc" horiz-adv-x="755" 
d="M571 -184h-499v41h315v1730h-315v41h499v-1812z" />
    <glyph glyph-name="braceleft.uc" horiz-adv-x="702" 
d="M600 -184q-414 0 -414 262q0 48 20.5 110t45 112t45 112t20.5 110q0 178 -231 178h-45v43h45q231 0 231 179q0 48 -20.5 110t-45 112t-45 112t-20.5 110q0 262 414 262h31v-41h-31q-59 0 -95 -6.5t-66 -27t-43 -62t-13 -107.5q0 -55 31.5 -192.5t31.5 -208.5
q0 -69 -20.5 -116.5t-63 -75.5t-92 -42t-123.5 -24v-6q63 -9 101.5 -18t80.5 -27t64.5 -44t37.5 -68.5t15 -100.5q0 -73 -31.5 -210.5t-31.5 -191.5q0 -66 12.5 -107t42.5 -61.5t66 -27t96 -6.5h31v-41h-31z" />
    <glyph glyph-name="braceright.uc" horiz-adv-x="702" 
d="M72 -184v41h30q60 0 96 6.5t66 27t42.5 61.5t12.5 107q0 54 -31.5 191.5t-31.5 210.5q0 58 15 100.5t37.5 68.5t64.5 44t80.5 27t101.5 18v6q-74 10 -123.5 24t-92 42t-63 75.5t-20.5 116.5q0 71 31.5 208.5t31.5 192.5q0 66 -13 107.5t-43 62t-66 27t-95 6.5h-30v41h30
q414 0 414 -262q0 -48 -20.5 -110t-45 -112t-45 -112t-20.5 -110q0 -179 231 -179h46v-43h-46q-231 0 -231 -178q0 -48 20.5 -110t45 -112t45 -112t20.5 -110q0 -262 -414 -262h-30z" />
    <glyph glyph-name="slash.uc" horiz-adv-x="802" 
d="M760 1681h57l-778 -1865h-57z" />
    <glyph glyph-name="backslash.uc" horiz-adv-x="802" 
d="M764 -184l-778 1865h57l778 -1865h-57z" />
    <glyph glyph-name="bar.uc" horiz-adv-x="419" 
d="M184 -182v1865h52v-1865h-52z" />
    <glyph glyph-name="at.uc" horiz-adv-x="1755" 
d="M862 -84q-169 0 -314.5 50t-254 142t-170.5 232.5t-62 312.5q0 180 70.5 344t192 285.5t296.5 193.5t373 72q320 0 510.5 -172t190.5 -469q0 -163 -59.5 -299t-167 -216.5t-240.5 -80.5q-56 0 -99.5 15t-71 41t-45.5 58.5t-25 70.5t-7 73.5t6 71.5q-153 -340 -328 -340
q-76 0 -122 69.5t-46 186.5q0 108 40 218.5t109 201.5t173.5 149t222.5 58q88 0 162 -29l78 29h14l-127 -484q-20 -78 -27.5 -135.5t-1.5 -108.5t36.5 -77.5t86.5 -26.5q98 0 177 82t121 210.5t42 273.5q0 281 -165 435t-445 154q-147 0 -276 -46t-224 -127.5t-163.5 -189.5
t-103 -235t-34.5 -262q0 -320 189.5 -505t496.5 -185q266 0 439 123l18 -33q-186 -131 -465 -131zM750 440q117 0 270 389l70 267q-18 49 -84 49q-68 0 -131 -56.5t-105 -142t-67 -183t-25 -181.5q0 -142 72 -142z" />
    <glyph glyph-name="grave.uc" 
d="M520 1602l-502 186l105 176l409 -342z" />
    <glyph glyph-name="dieresis.uc" 
d="M676 1778q0 -51 -36 -87t-87 -36t-87 36t-36 87t36 88t87 37t87 -37t36 -88zM184 1778q0 -51 -36 -87t-87 -36t-86.5 36t-35.5 87t35.5 88t86.5 37t87 -37t36 -88z" />
    <glyph glyph-name="macron.uc" 
d="M-14 1808h641v-102h-641v102z" />
    <glyph glyph-name="acute.uc" 
d="M453 1964l106 -176l-493 -186l-13 20z" />
    <glyph glyph-name="circumflex.uc" 
d="M307 1757l-301 -155l-18 20l313 313h12l314 -313l-19 -20z" />
    <glyph glyph-name="caron.uc" 
d="M147 1602l-313 313l19 20l301 -155l301 155l18 -20l-313 -313h-13z" />
    <glyph glyph-name="breve.uc" 
d="M307 1759q102 0 167.5 46t90.5 128h21q0 -48 -14.5 -98t-44.5 -98.5t-87.5 -79.5t-132.5 -31t-132 31t-86.5 79.5t-43.5 98.5t-14 98h20q26 -82 90.5 -128t165.5 -46z" />
    <glyph glyph-name="dotaccent.uc" 
d="M430 1778q0 -51 -36 -87t-87 -36t-87 36t-36 87t36 88t87 37t87 -37t36 -88z" />
    <glyph glyph-name="ring.uc" 
d="M123 1776q0 77 52.5 126.5t131.5 49.5t132 -49.5t53 -126.5t-53 -125.5t-132 -48.5t-131.5 48.5t-52.5 125.5zM203 1776q0 -63 27.5 -99.5t76.5 -36.5t77 36.5t28 99.5q0 64 -28 101.5t-77 37.5t-76.5 -37.5t-27.5 -101.5z" />
    <glyph glyph-name="tilde.uc" 
d="M147 1853q63 0 175.5 -40.5t177.5 -40.5q55 0 83.5 22.5t51.5 87.5l20 -4q-2 -42 -5.5 -71t-15.5 -67.5t-31 -62t-53.5 -40.5t-82.5 -17q-63 0 -175 41t-177 41q-55 0 -83.5 -23t-51.5 -88l-21 4q2 42 5.5 71t15.5 67.5t31 62t53.5 40.5t82.5 17z" />
    <glyph glyph-name="hungarumlaut.uc" 
d="M592 1944l119 -158l-369 -184l-18 20zM203 1944l119 -158l-369 -184l-19 20z" />
    <glyph glyph-name="Cacute.pl" horiz-adv-x="1540" 
d="M1403 117q-44 -36 -213.5 -92t-349.5 -56q-231 0 -410 104.5t-274 281.5t-95 395q0 162 61.5 305.5t168.5 248t260 165.5t328 61q268 0 516 -98l41 -336l-17 -6q-108 152 -186.5 233t-170.5 123.5t-210 42.5q-111 0 -200 -36.5t-150.5 -101.5t-102 -158t-59 -203
t-18.5 -240t19 -241t60 -203.5t101 -158t146 -101.5t192 -36q85 0 159 23.5t132 64t112 104.5t96.5 133.5t87.5 162.5l17 -6zM961 1968l137 -119l-355 -247l-16 14z" />
    <glyph glyph-name="Nacute.pl" horiz-adv-x="1421" 
d="M223 1284l8 -876q0 -138 28 -217.5t114 -186.5v-4h-316v4q76 105 100.5 185.5t24.5 218.5v802q-7 101 -39.5 158.5t-119.5 126.5v4h327l858 -1165l-6 758q0 135 -25.5 215.5t-99.5 187.5v4h295v-4q-75 -109 -100 -188t-25 -215v-1092l-73 -6zM840 1968l137 -119
l-354 -247l-17 14z" />
    <glyph glyph-name="Oacute.pl" horiz-adv-x="1667" 
d="M831 -31q-143 0 -282.5 61.5t-247 164.5t-174 249t-66.5 304t66.5 304.5t174 250t247 165.5t282.5 62q114 0 228 -39t211.5 -111.5t173 -168t119 -216t43.5 -247.5t-43.5 -247t-119 -215t-173 -167t-211.5 -111t-228 -39zM831 10q130 0 229.5 55t161.5 154.5t93 233
t31 295.5q0 128 -19.5 239t-60.5 204t-101 159t-145 102.5t-189 36.5q-129 0 -227.5 -56t-159.5 -157t-91.5 -234t-30.5 -294q0 -160 30.5 -293t91.5 -233t159.5 -156t227.5 -56zM946 1968l137 -119l-354 -247l-16 14z" />
    <glyph glyph-name="Sacute.pl" horiz-adv-x="1132" 
d="M971 1100l-19 -6q-102 216 -205 305.5t-219 89.5q-104 0 -163.5 -62t-59.5 -167q0 -41 11 -77.5t26 -64t46 -56.5t54 -47t68.5 -43.5t70.5 -38t78 -38.5q48 -23 76.5 -38t72.5 -39.5t71 -45.5t61 -51t54.5 -61.5t40 -70t28 -85t8.5 -98.5q0 -90 -28 -163t-77 -123.5
t-117.5 -85t-147 -50t-166.5 -15.5q-207 0 -422 80l-41 379l16 6q117 -219 240 -321.5t264 -102.5q133 0 204.5 80.5t71.5 200.5q0 57 -17.5 106.5t-44.5 86t-70.5 71.5t-85.5 59.5t-99 51.5q-173 84 -244 135q-161 117 -181 284q-3 26 -3 54q0 102 38.5 179.5t106 122.5
t150 67t178.5 22q169 0 334 -60zM684 1968l137 -119l-354 -247l-16 14z" />
    <glyph glyph-name="Zacute.pl" horiz-adv-x="1275" 
d="M41 0v23l899 1443l-266 -8q-87 -3 -165 -26t-134.5 -56t-109.5 -83t-87.5 -93t-73.5 -100l-16 6l96 393h1033v-22l-898 -1446l328 10q88 3 166 27t136.5 59.5t112.5 88t91.5 103t75.5 113.5l16 -6l-100 -426h-1104zM797 1968l137 -119l-354 -247l-17 14z" />
    <glyph glyph-name="acute.pl" 
d="M342 1534l168 -113l-315 -311l-19 12z" />
    <glyph glyph-name="acute.ucpl" 
d="M446 1968l138 -119l-355 -247l-16 14z" />
    <glyph glyph-name="cacute.pl" horiz-adv-x="952" 
d="M893 229q-43 -122 -139 -191t-244 -69q-209 0 -334 137t-125 365q0 151 73.5 275.5t192 193t252.5 68.5q161 0 271 -54l26 -227l-18 -4q-48 86 -139.5 167t-169.5 81q-131 0 -209 -112t-78 -302q0 -199 96 -306.5t260 -107.5q80 0 153 23.5t120 71.5zM600 1534l168 -113
l-315 -311l-19 12z" />
    <glyph glyph-name="divide.osf" horiz-adv-x="1118" 
d="M106 475v45h906v-45h-906zM559 20q-57 0 -97 41t-40 97q0 60 40 99.5t97 39.5q56 0 96.5 -40t40.5 -99q0 -56 -41 -97t-96 -41zM559 684q-57 0 -97 40.5t-40 96.5q0 60 40 100t97 40q56 0 96.5 -40.5t40.5 -99.5q0 -55 -41 -96t-96 -41z" />
    <glyph glyph-name="eight.osf" horiz-adv-x="958" 
d="M471 -20q-188 0 -304 101.5t-116 256.5q0 131 85.5 240t213.5 170q-48 33 -82 60t-71.5 66t-61 78t-38.5 91t-15 110q0 174 113.5 275.5t293.5 101.5q167 0 277.5 -95t110.5 -229q0 -220 -297 -336q57 -36 97.5 -65.5t87 -75t75 -92t48 -110.5t19.5 -136q0 -100 -35 -180
t-96 -129.5t-138.5 -75.5t-166.5 -26zM471 20q114 0 182 83.5t68 211.5q0 56 -19.5 107t-39.5 83t-73.5 76.5t-76 60t-93.5 60.5q-5 3 -7 5q-24 14 -31 20q-158 -145 -158 -373q0 -154 62.5 -244t185.5 -90zM551 887q172 108 172 311q0 135 -61 213t-179 78
q-108 0 -171.5 -70t-63.5 -178q0 -59 19 -106.5t66.5 -91.5t79.5 -66.5t105 -68.5q3 -2 5 -3t4.5 -3t4.5 -3z" />
    <glyph glyph-name="equal.osf" horiz-adv-x="1089" 
d="M92 639v45h905v-45h-905zM92 352v45h905v-45h-905z" />
    <glyph glyph-name="f.short" horiz-adv-x="641" 
d="M133 4q27 42 38 104t11 177v655h-129v37h129v135q0 225 83 353t220 128q78 0 144 -28l22 -215l-12 -4q-14 21 -40.5 62t-39.5 60.5t-30.5 43.5t-29.5 34t-22 10q-16 0 -32 -23.5t-29 -66.5t-21 -112t-8 -152v-225h201v-37h-201v-655q0 -198 47 -281v-4h-301v4z" />
    <glyph glyph-name="f_f.short" horiz-adv-x="1193" 
d="M133 4q27 42 38 104t11 177v655h-129v37h129v94q0 218 112 349.5t269 131.5q81 0 127 -28l23 -215l-13 -4q-130 211 -194 211q-47 0 -83 -96t-36 -259v-184h348v135q0 226 74 353.5t199 127.5q91 0 153 -28l23 -215l-13 -4q-114 210 -155 210q-20 0 -37 -39t-28 -121.5
t-11 -193.5v-225h201v-37h-201v-655q0 -198 47 -281v-4h-301v4q27 42 38 104t11 177v655h-348v-655q0 -198 47 -281v-4h-301v4z" />
    <glyph glyph-name="five.osf" horiz-adv-x="954" 
d="M338 -502q-110 0 -196.5 33.5t-129.5 69.5l-32 280l16 4q161 -346 385 -346q122 0 190 97.5t68 242.5q0 205 -135.5 357.5t-382.5 214.5l217 567h565l-74 -193h-520l-67 -178q122 -34 224.5 -91.5t183 -137.5t126 -189t45.5 -235q0 -116 -39 -211t-105.5 -156.5
t-153.5 -95t-185 -33.5z" />
    <glyph glyph-name="four.osf" horiz-adv-x="1007" 
d="M545 0h-555v20l555 740v4l88 115l121 159h16v-895h223l-32 -143h-191v-399h-225v399zM545 688l-406 -545h406v545z" />
    <glyph glyph-name="four.osfalt" horiz-adv-x="1007" 
d="M545 0h-576v20l635 957h281l-854 -928h514v320h225v-320h205l-17 -49h-188v-399h-225v399z" />
    <glyph glyph-name="greater.osf" horiz-adv-x="1085" 
d="M113 41v53l833 400l-833 399v53l880 -426v-53z" />
    <glyph glyph-name="less.osf" horiz-adv-x="1085" 
d="M92 467v53l881 426v-53l-834 -399l834 -400v-53z" />
    <glyph glyph-name="minus.osf" horiz-adv-x="1089" 
d="M92 475v45h905v-45h-905z" />
    <glyph glyph-name="multiply.osf" horiz-adv-x="966" 
d="M483 461l-346 -346l-35 35l347 346l-347 346l35 35l346 -347l346 347l35 -35l-346 -346l346 -346l-35 -35z" />
    <glyph glyph-name="nacute.pl" horiz-adv-x="1116" 
d="M401 0h-297v4q28 84 38 168t10 225v242q0 162 -93 266v4l289 109v-197l8 -2q75 91 152.5 140t177.5 49q139 0 214 -79t75 -218v-312q0 -153 8.5 -233.5t38.5 -161.5v-4h-297v4q45 145 45 393v267q0 96 -45.5 157.5t-142.5 61.5q-130 0 -226 -103v-381q0 -149 8 -232.5
t37 -162.5v-4zM653 1534l168 -113l-315 -311l-19 12z" />
    <glyph glyph-name="nine.osf" horiz-adv-x="1110" 
d="M543 1049q90 0 169 -30.5t138 -85t102 -127.5t64.5 -159.5t21.5 -179.5q0 -109 -28.5 -218t-94 -222t-162.5 -211t-244.5 -184.5t-330.5 -143.5l-6 20q215 89 358.5 251t214.5 364q-85 -103 -237 -103q-131 0 -234.5 69t-158 182.5t-54.5 248.5q0 143 63 264.5t174.5 193
t244.5 71.5zM545 1008q-131 0 -194.5 -128.5t-63.5 -369.5q0 -237 64 -343t190 -106q158 0 235 162q37 148 37 297q0 76 -8 144t-27.5 132t-49.5 110t-77 74t-106 28z" />
    <glyph glyph-name="oacute.pl" horiz-adv-x="1153" 
d="M575 -31q-141 0 -262.5 71.5t-191.5 191t-70 255.5q0 134 71 254.5t192.5 193.5t260.5 73q105 0 203 -43.5t168.5 -115t113 -167t42.5 -195.5q0 -102 -42.5 -197t-113 -165.5t-168.5 -113t-203 -42.5zM575 10q76 0 135.5 39t95 107t53.5 151.5t18 179.5q0 129 -31 234.5
t-101 175.5t-170 70q-99 0 -168.5 -70t-100 -175.5t-30.5 -234.5q0 -96 17.5 -179.5t52.5 -151.5t94 -107t135 -39zM670 1534l168 -113l-316 -311l-18 12z" />
    <glyph glyph-name="one.osf" horiz-adv-x="538" 
d="M59 0v4q65 69 86 133.5t21 194.5v547h-166v22l387 137h4v-706q0 -130 21 -194.5t86 -133.5v-4h-439z" />
    <glyph glyph-name="plus.osf" horiz-adv-x="1089" 
d="M569 475v-428h-49v428h-428v45h428v428h49v-428h428v-45h-428z" />
    <glyph glyph-name="sacute.pl" horiz-adv-x="817" 
d="M709 743l-13 -4q-136 232 -317 232q-77 0 -122.5 -43.5t-45.5 -108.5q0 -34 16 -63.5t36.5 -49t62 -42t69 -34t80.5 -32.5q50 -21 85.5 -39t77 -48t67.5 -62.5t43.5 -80.5t17.5 -104q0 -98 -52 -166t-136.5 -98.5t-194.5 -30.5q-148 0 -301 54l-21 262l13 4
q78 -149 158 -216t178 -67q95 0 141.5 52t46.5 124q0 74 -51 120t-166 95q-125 55 -173 88q-130 90 -130 244q0 75 29.5 130.5t81.5 87t113 46.5t132 15q156 0 254 -41zM500 1534l168 -113l-316 -311l-18 12z" />
    <glyph glyph-name="seven.osf" horiz-adv-x="921" 
d="M20 -502q154 367 338.5 683.5t407.5 643.5h-713l45 193h803v-21q-351 -624 -645 -1499h-236z" />
    <glyph glyph-name="six.osf" horiz-adv-x="1110" 
d="M567 -20q-149 0 -263.5 81t-173 212t-58.5 288q0 109 28.5 218t94 222t162.5 211t244.5 184.5t330.5 143.5l6 -20q-215 -89 -358.5 -251t-214.5 -364q85 103 237 103q131 0 234.5 -69t158 -182.5t54.5 -248.5q0 -143 -63 -264t-174.5 -192.5t-244.5 -71.5zM565 20
q131 0 194.5 128.5t63.5 369.5q0 237 -64 343t-190 106q-158 0 -235 -162q-37 -148 -37 -297q0 -76 8 -144t27.5 -132t49.5 -110t77 -74t106 -28z" />
    <glyph glyph-name="three.osf" horiz-adv-x="960" 
d="M395 -502q-108 0 -198 26.5t-136 57.5l-51 299l17 4q97 -177 186.5 -262.5t200.5 -85.5q119 0 189.5 93.5t70.5 230.5q0 91 -32 167t-89 130t-128 90t-155 55v10q179 43 277 154.5t98 275.5q0 117 -48 186.5t-130 69.5q-163 0 -328 -313l-14 4l41 283q43 23 130.5 44
t190.5 21q172 0 272.5 -76t100.5 -219q0 -238 -272 -352q138 -58 223.5 -170t85.5 -266q0 -198 -142.5 -327.5t-359.5 -129.5z" />
    <glyph glyph-name="three.osfalt" horiz-adv-x="960" 
d="M395 -502q-108 0 -198 26.5t-136 57.5l-51 299l17 4q97 -177 186.5 -262.5t200.5 -85.5q119 0 189.5 93.5t70.5 230.5q0 91 -32 167t-89 130t-128 90t-155 55v10q176 43 268.5 137t92.5 230q0 113 -61.5 178.5t-180.5 65.5q-66 0 -140.5 -20.5t-125.5 -59.5l-10 12
q140 182 385 182q163 0 260.5 -80.5t97.5 -218.5q0 -110 -66.5 -200t-201.5 -148q138 -58 223.5 -170t85.5 -266q0 -198 -142.5 -327.5t-359.5 -129.5z" />
    <glyph glyph-name="two.osf" horiz-adv-x="1003" 
d="M53 0v16q274 181 391 355.5t117 361.5q0 126 -47.5 195t-128.5 69t-149 -71t-138 -213l-14 4l41 254q119 67 291 67q180 0 280.5 -79t100.5 -230q0 -154 -112 -284t-351 -244h364q84 0 124 24.5t83 93.5l15 -6l-76 -313h-791z" />
    <glyph glyph-name="two.osfalt" horiz-adv-x="1003" 
d="M53 0v16q278 182 402.5 343.5t124.5 318.5q0 118 -61 182t-181 64q-135 0 -240 -80l-10 12q140 182 385 182q163 0 260.5 -83t97.5 -228q0 -159 -120 -282.5t-369 -243.5h356q84 0 124 24.5t83 93.5l15 -6l-76 -313h-791z" />
    <glyph glyph-name="zacute.pl" horiz-adv-x="915" 
d="M31 0v14l577 928l-246 -8q-17 0 -34 -4t-35 -13.5t-33 -17.5t-35 -25t-32 -27t-33.5 -31t-30 -30t-30.5 -32t-27 -29l-11 4l68 248h723v-16l-573 -926l268 6q84 4 158 63.5t159 165.5l10 -4l-71 -266h-772zM580 1534l168 -113l-316 -311l-18 12z" />
    <glyph glyph-name="zero.osf" horiz-adv-x="1120" 
d="M559 -20q-104 0 -198.5 43t-162 115t-107.5 169t-40 201q0 138 69 260.5t186.5 196t252.5 73.5q136 0 254.5 -73.5t187 -195.5t68.5 -261t-68 -260.5t-186.5 -194.5t-255.5 -73zM559 20q94 0 158 71t90.5 177.5t26.5 239.5q0 98 -16 183.5t-48 155t-86 110t-125 40.5
t-124.5 -40.5t-85 -110t-47 -155t-15.5 -183.5t15 -183t46.5 -155t85.5 -110t125 -40z" />
    </font>
</defs>
</svg>
