<svg xmlns="http://www.w3.org/2000/svg">
<defs>
<font id="Cambon-LightItalic" horiz-adv-x="504" >
  <font-face 
    font-family="Cambon Light"
    font-weight="300"
    font-style="italic"
    font-stretch="normal"
    units-per-em="1000"
    panose-1="2 14 4 3 7 0 0 0 0 7"
    ascent="780"
    descent="-220"
    x-height="496"
    cap-height="700"
    bbox="-157 -205 1053 1080"
    underline-thickness="33"
    underline-position="-170"
    slope="-12"
    unicode-range="U+0020-1F784"
  />
<missing-glyph horiz-adv-x="700" 
d="M369 -80q-113 0 -190 78.5t-77 187.5v18l-19 31q-15 25 -9 53q6 29 31 44l7 4q18 13 43 11q-7 24 0.5 46t28.5 35l7 4q20 12 41 11l-76 120q-12 21 -12 39q0 30 21.5 52.5t51.5 22.5q42 0 65 -35l139 -221v224q0 31 21.5 53t52.5 22t52.5 -22t21.5 -53v-286
q30 -15 48 -43t18 -63v-62q0 -65 -30 -126t-92.5 -103t-143.5 -42zM451 645v-274h66q17 0 22 -2v276q0 18 -13 31t-31 13t-31 -13t-13 -31zM182 579l127 -203l24 -37q6 14 20 23t30 9h33l-160 255q-12 20 -37 20q-18 0 -31 -13t-13 -31q0 -12 7 -23zM313 220l8 5
q14 9 17.5 25.5t-5.5 29.5l-72 114q-9 14 -24.5 17.5t-29.5 -4.5l-8 -5q-13 -9 -17 -24.5t5 -30.5l72 -114q9 -14 25 -17.5t29 4.5zM359 138q0 24 13 49.5t29 33.5q-16 1 -34 15q-7 -25 -29 -37l-7 -4q-18 -11 -43 -11q17 -49 -29 -81l-8 -5q-24 -15 -51.5 -8.5t-44.5 31.5
l-20 30q12 -85 79.5 -143t153.5 -58q99 0 168 72t69 169v62q0 36 -26 62t-62 26h-134q-10 0 -17 -7.5t-7 -19.5q0 -27 19 -47.5t48 -20.5h42q6 0 10.5 -4.5t4.5 -10.5t-4.5 -10.5t-10.5 -4.5q-34 0 -55.5 -23.5t-21.5 -54.5q0 -6 -5 -10.5t-11 -4.5t-11 4.5t-5 10.5z
M235 124l8 5q14 9 17.5 25.5t-5.5 29.5l-72 114q-9 14 -24.5 17.5t-29.5 -4.5l-8 -5q-13 -9 -17 -24.5t5 -30.5l72 -114q9 -14 25 -17.5t29 4.5z" />
    <glyph glyph-name="f_f" unicode="ff" horiz-adv-x="578" 
d="M-8 -200q-29 0 -45 11.5t-16 28.5q0 13 9 23.5t20 10.5l88 -32q22 23 48 231l49 396h-86l7 27h83q38 274 216 274q54 0 76 -22l-8 -55l-127 41q-26 -7 -49.5 -76t-38.5 -162h203q20 135 75 204.5t141 69.5q37 0 62.5 -13.5t25.5 -34.5q0 -22 -20 -36l-135 45
q-47 -11 -79 -235h134l-12 -27h-126l-54 -367q-22 -139 -60.5 -200.5t-101.5 -61.5q-28 0 -44 11.5t-16 27.5q0 13 8.5 23t20.5 11l86 -31q22 25 47 225l45 362h-204l-58 -401q-22 -140 -61.5 -204t-102.5 -64z" />
    <glyph glyph-name="fi" unicode="fi" horiz-adv-x="531" 
d="M-1 -200q-26 0 -41.5 11t-15.5 29q0 13 9 23.5t21 10.5l76 -32q25 28 48 231l50 396h-87l7 27h84q23 129 93 201.5t171 72.5q52 0 84.5 -17.5t32.5 -46.5q0 -27 -24 -39l-142 74q-57 -12 -90.5 -73.5t-51.5 -171.5h262l-97 -454h3l81 65l3 -4q-27 -53 -63 -85.5
t-66 -32.5q-17 0 -26.5 11.5t-5.5 29.5l94 443h-189l-60 -382q-23 -150 -61.5 -218.5t-98.5 -68.5z" />
    <glyph glyph-name="fl" unicode="fl" horiz-adv-x="547" 
d="M-8 -200q-29 0 -45 11.5t-16 28.5q0 13 9 23.5t20 10.5l88 -32q22 23 48 231l50 396h-87l7 27h83q19 134 74 204t140 70q62 0 108 -24l80 24h9l-155 -728h3l81 65l3 -4q-28 -53 -63 -85.5t-66 -32.5q-18 0 -27 12t-5 30l143 670l-174 40q-45 -11 -82 -241h132l-13 -27
h-123l-58 -401q-22 -140 -61.5 -204t-102.5 -64z" />
    <glyph glyph-name="f_f_i" unicode="ffi" horiz-adv-x="803" 
d="M-8 -200q-29 0 -45 11.5t-16 28.5q0 13 9 23.5t20 10.5l88 -32q22 23 48 231l49 396h-86l7 27h83q38 274 216 274q54 0 76 -22l-8 -55l-127 41q-26 -7 -49.5 -76t-38.5 -162h204q22 128 93 201q70 73 171 73q52 0 84.5 -17.5t32.5 -46.5q0 -27 -23 -39l-143 74
q-59 -14 -92.5 -75.5t-50.5 -169.5h264l-98 -454h3l81 65l3 -4q-27 -53 -62.5 -85.5t-65.5 -32.5q-17 0 -27 11.5t-6 29.5l94 443h-190l-57 -367q-22 -138 -60.5 -200t-101.5 -62q-28 0 -44 11.5t-16 27.5q0 13 8.5 23t20.5 11l86 -31q22 25 47 225l45 362h-204l-58 -401
q-22 -140 -61.5 -204t-102.5 -64z" />
    <glyph glyph-name="f_f_l" unicode="ffl" horiz-adv-x="819" 
d="M-8 -200q-29 0 -45 11.5t-16 28.5q0 13 9 23.5t20 10.5l88 -32q22 23 48 231l49 396h-86l7 27h83q38 274 216 274q54 0 76 -22l-8 -55l-127 41q-26 -7 -49.5 -76t-38.5 -162h203q20 135 74.5 204.5t139.5 69.5q62 0 108 -24l81 24h8l-156 -728h4l80 65l3 -4
q-28 -54 -62.5 -86t-65.5 -32q-18 0 -27 12t-6 30l144 670l-175 40q-23 -6 -44.5 -73.5t-35.5 -167.5h134l-12 -27h-126l-55 -367q-22 -139 -60 -200.5t-101 -61.5q-28 0 -44 11.5t-16 27.5q0 13 8.5 23t20.5 11l86 -31q22 25 47 225l45 362h-204l-58 -401
q-22 -140 -61.5 -204t-102.5 -64z" />
    <glyph glyph-name="T_h" unicode="Th" horiz-adv-x="1004" 
d="M331 4l-1 -4h-167l1 4l50 42l133 622h-115l-131 -75h-5l22 107h561l73 70h8l-99 -445h4q105 186 211 186q44 0 61.5 -30t6.5 -82l-75 -357h3l80 65l4 -4q-28 -53 -63 -85.5t-66 -32.5q-18 0 -26.5 11.5t-5.5 29.5l79 372q14 60 -33 60q-50 0 -116 -78t-84 -162l-47 -218
h-70l144 668h-243l-133 -622z" />
    <glyph glyph-name="f_b" unicode="fb" horiz-adv-x="791" 
d="M-8 -200q-29 0 -45 11.5t-16 28.5q0 13 9 23.5t20 10.5l88 -32q22 23 48 231l50 396h-87l7 27h83q19 134 74 204t140 70q62 0 108 -24l80 24h9l-115 -522h4q49 110 121 187t126 77q72 0 72 -120q0 -95 -45 -190t-117.5 -156t-146.5 -61q-31 0 -74.5 9t-62.5 21l12 29
l140 653l-174 40q-45 -11 -82 -241h135l-13 -27h-126l-58 -401q-22 -140 -61.5 -204t-102.5 -64zM417 108l-13 -65l106 -28q75 31 132 138t57 214q0 92 -42 92q-33 0 -84.5 -57t-96 -140.5t-59.5 -153.5z" />
    <glyph glyph-name="f_f_b" unicode="ffb" horiz-adv-x="1063" 
d="M-8 -200q-29 0 -45 11.5t-16 28.5q0 13 9 23.5t20 10.5l88 -32q22 23 48 231l49 396h-86l7 27h83q38 274 216 274q54 0 76 -22l-8 -55l-127 41q-26 -7 -49.5 -76t-38.5 -162h203q20 135 74.5 204.5t139.5 69.5q62 0 108 -24l81 24h8l-115 -522h4q48 110 120.5 187
t125.5 77q73 0 73 -120q0 -95 -45 -190t-118 -156t-147 -61q-30 0 -74 9t-63 21l12 27l141 655l-175 40q-23 -6 -44.5 -73.5t-35.5 -167.5h134l-12 -27h-126l-55 -367q-22 -139 -60 -200.5t-101 -61.5q-28 0 -44 11.5t-16 27.5q0 13 8.5 23t20.5 11l86 -31q22 25 47 225
l45 362h-204l-58 -401q-22 -140 -61.5 -204t-102.5 -64zM689 108l-13 -65l106 -28q75 31 132 138t57 214q0 92 -42 92q-33 0 -84.5 -57t-96 -140.5t-59.5 -153.5z" />
    <glyph glyph-name="f_h" unicode="fh" horiz-adv-x="804" 
d="M-8 -200q-29 0 -45 11.5t-16 28.5q0 13 9 23.5t20 10.5l88 -32q22 23 48 231l50 396h-87l7 27h83q19 134 74 204t140 70q62 0 108 -24l80 24h9l-99 -445h3q105 186 212 186q43 0 60.5 -30.5t6.5 -81.5l-75 -357h4l80 65l3 -4q-28 -54 -62.5 -86t-65.5 -32
q-18 0 -27.5 11.5t-5.5 29.5l79 372q12 60 -33 60q-50 0 -115.5 -78t-83.5 -162l-48 -218h-70l151 697l-174 40q-45 -11 -82 -241h135l-13 -27h-126l-58 -401q-22 -140 -61.5 -204t-102.5 -64z" />
    <glyph glyph-name="f_f_h" unicode="ffh" horiz-adv-x="1076" 
d="M-8 -200q-29 0 -45 11.5t-16 28.5q0 13 9 23.5t20 10.5l88 -32q22 23 48 231l49 396h-86l7 27h83q38 274 216 274q54 0 76 -22l-8 -55l-127 41q-26 -7 -49.5 -76t-38.5 -162h203q20 135 74.5 204.5t139.5 69.5q62 0 108 -24l81 24h8l-100 -445h4q105 186 212 186
q44 0 61.5 -30t6.5 -82l-75 -357h3l80 65l4 -4q-28 -53 -63 -85.5t-66 -32.5q-18 0 -27 12t-5 29l79 372q12 60 -33 60q-50 0 -116 -78t-84 -162l-47 -218h-71l151 697l-175 40q-23 -6 -44.5 -73.5t-35.5 -167.5h134l-12 -27h-126l-55 -367q-22 -139 -60 -200.5t-101 -61.5
q-28 0 -44 11.5t-16 27.5q0 13 8.5 23t20.5 11l86 -31q22 25 47 225l45 362h-204l-58 -401q-22 -140 -61.5 -204t-102.5 -64z" />
    <glyph glyph-name="f_j" unicode="fj" horiz-adv-x="531" 
d="M4 -160q-26 0 -41.5 11t-15.5 29q0 13 9 23.5t21 11.5l76 -33q11 13 25 78t23 146l45 363h-87l7 27h84q23 129 93 201.5t171 72.5q52 0 84.5 -17.5t32.5 -46.5q0 -27 -24 -39l-142 74q-57 -12 -90.5 -73.5t-51.5 -171.5h262l-76 -414q-28 -153 -66.5 -217.5t-100.5 -64.5
q-59 0 -59 40q0 13 7.5 24t18.5 13l93 -34l107 626h-191l-54 -348q-24 -149 -62 -215t-98 -66z" />
    <glyph glyph-name="f_f_j" unicode="ffj" horiz-adv-x="803" 
d="M-8 -200q-29 0 -45 11.5t-16 28.5q0 13 9 23.5t20 10.5l88 -32q22 23 48 231l49 396h-86l7 27h83q38 274 216 274q54 0 76 -22l-8 -55l-127 41q-26 -7 -49.5 -76t-38.5 -162h204q22 128 93 201q70 73 171 73q52 0 84.5 -17.5t32.5 -46.5q0 -27 -23 -39l-143 74
q-58 -12 -91 -73t-51 -172h263l-77 -414q-28 -153 -66.5 -217.5t-100.5 -64.5q-59 0 -59 40q0 12 8 23.5t18 13.5l93 -34l107 626h-191l-57 -367q-22 -138 -60.5 -200t-101.5 -62q-28 0 -44 11.5t-16 27.5q0 13 8.5 23t20.5 11l86 -31q22 25 47 225l45 362h-204l-58 -401
q-22 -140 -61.5 -204t-102.5 -64z" />
    <glyph glyph-name="f_k" unicode="fk" horiz-adv-x="783" 
d="M-8 -200q-29 0 -45 11.5t-16 28.5q0 13 9 23.5t20 10.5l88 -32q22 23 48 231l50 396h-87l7 27h83q19 134 74 204t140 70q62 0 108 -24l80 24h8l-97 -450h3q35 89 85.5 140.5t102.5 51.5q38 0 61.5 -25.5t23.5 -66.5q0 -24 -7.5 -50t-18.5 -39l-135 -80l89 -217h4l84 69
l3 -2q-19 -54 -49 -85t-65 -31q-39 0 -56 50l-74 195v4l82 51q75 48 75 119q0 64 -48 64q-58 0 -115 -102.5t-94 -278.5l-19 -87h-70l150 697l-174 40q-45 -11 -82 -241h135l-13 -27h-126l-58 -401q-22 -140 -61.5 -204t-102.5 -64z" />
    <glyph glyph-name="f_f_k" unicode="ffk" horiz-adv-x="1055" 
d="M-8 -200q-29 0 -45 11.5t-16 28.5q0 13 9 23.5t20 10.5l88 -32q22 23 48 231l49 396h-86l7 27h83q38 274 216 274q54 0 76 -22l-8 -55l-127 41q-26 -7 -49.5 -76t-38.5 -162h203q20 135 74.5 204.5t139.5 69.5q62 0 108 -24l81 24h8l-99 -450h3q36 89 86.5 140.5
t102.5 51.5q38 0 61 -25.5t23 -66.5q0 -61 -25 -89l-134 -80l87 -217h5l84 69l4 -2q-44 -116 -115 -116q-36 0 -56 50l-75 195v4l83 51q75 47 75 119q0 64 -49 64q-58 0 -113.5 -101.5t-94.5 -279.5l-18 -87h-71l150 697l-175 40q-23 -6 -44.5 -73.5t-35.5 -167.5h134
l-12 -27h-126l-55 -367q-22 -139 -60 -200.5t-101 -61.5q-28 0 -44 11.5t-16 27.5q0 13 8.5 23t20.5 11l86 -31q22 25 47 225l45 362h-204l-58 -401q-22 -140 -61.5 -204t-102.5 -64z" />
    <glyph glyph-name="f_t" unicode="ft" horiz-adv-x="606" 
d="M-8 -200q-29 0 -45 11.5t-16 28.5q0 13 9 23.5t20 10.5l88 -32q22 23 48 231l50 396h-87l7 27h83q19 135 74 204.5t141 69.5q38 0 63 -13.5t25 -34.5q0 -23 -19 -36l-136 45q-43 -11 -79 -235h212l31 123l71 21h4l-35 -144h129l-11 -27h-125l-98 -398q-11 -38 14 -38
q23 0 70.5 39t86.5 87l4 -2q-32 -76 -83.5 -124t-101.5 -48q-37 0 -53.5 26.5t-5.5 68.5l97 389h-210l-58 -401q-22 -140 -61.5 -204t-102.5 -64z" />
    <glyph glyph-name="f_f_t" unicode="fft" horiz-adv-x="878" 
d="M-8 -200q-29 0 -45 11.5t-16 28.5q0 13 9 23.5t20 10.5l88 -32q22 23 48 231l49 396h-86l7 27h83q38 274 216 274q54 0 76 -22l-8 -55l-127 41q-26 -7 -49.5 -76t-38.5 -162h203q20 135 75 204.5t141 69.5q37 0 62.5 -13.5t25.5 -34.5q0 -22 -20 -36l-135 45
q-47 -11 -79 -235h211l30 123l71 21h5l-36 -144h130l-12 -27h-124l-99 -398q-9 -38 14 -38q24 0 71.5 38.5t86.5 87.5l4 -2q-32 -76 -83.5 -124t-101.5 -48q-38 0 -54 26t-5 69l96 389h-208l-54 -367q-22 -139 -60.5 -200.5t-101.5 -61.5q-28 0 -44 11.5t-16 27.5
q0 13 8.5 23t20.5 11l86 -31q22 25 47 225l45 362h-204l-58 -401q-22 -140 -61.5 -204t-102.5 -64z" />
    <glyph glyph-name=".notdef" horiz-adv-x="700" 
d="M369 -80q-113 0 -190 78.5t-77 187.5v18l-19 31q-15 25 -9 53q6 29 31 44l7 4q18 13 43 11q-7 24 0.5 46t28.5 35l7 4q20 12 41 11l-76 120q-12 21 -12 39q0 30 21.5 52.5t51.5 22.5q42 0 65 -35l139 -221v224q0 31 21.5 53t52.5 22t52.5 -22t21.5 -53v-286
q30 -15 48 -43t18 -63v-62q0 -65 -30 -126t-92.5 -103t-143.5 -42zM451 645v-274h66q17 0 22 -2v276q0 18 -13 31t-31 13t-31 -13t-13 -31zM182 579l127 -203l24 -37q6 14 20 23t30 9h33l-160 255q-12 20 -37 20q-18 0 -31 -13t-13 -31q0 -12 7 -23zM313 220l8 5
q14 9 17.5 25.5t-5.5 29.5l-72 114q-9 14 -24.5 17.5t-29.5 -4.5l-8 -5q-13 -9 -17 -24.5t5 -30.5l72 -114q9 -14 25 -17.5t29 4.5zM359 138q0 24 13 49.5t29 33.5q-16 1 -34 15q-7 -25 -29 -37l-7 -4q-18 -11 -43 -11q17 -49 -29 -81l-8 -5q-24 -15 -51.5 -8.5t-44.5 31.5
l-20 30q12 -85 79.5 -143t153.5 -58q99 0 168 72t69 169v62q0 36 -26 62t-62 26h-134q-10 0 -17 -7.5t-7 -19.5q0 -27 19 -47.5t48 -20.5h42q6 0 10.5 -4.5t4.5 -10.5t-4.5 -10.5t-10.5 -4.5q-34 0 -55.5 -23.5t-21.5 -54.5q0 -6 -5 -10.5t-11 -4.5t-11 4.5t-5 10.5z
M235 124l8 5q14 9 17.5 25.5t-5.5 29.5l-72 114q-9 14 -24.5 17.5t-29.5 -4.5l-8 -5q-13 -9 -17 -24.5t5 -30.5l72 -114q9 -14 25 -17.5t29 4.5z" />
    <glyph glyph-name=".null" horiz-adv-x="0" 
 />
    <glyph glyph-name="nonmarkingreturn" horiz-adv-x="333" 
 />
    <glyph glyph-name="space" unicode=" " horiz-adv-x="227" 
 />
    <glyph glyph-name="exclam" unicode="!" horiz-adv-x="351" 
d="M174 206h-17l61 494h106zM124 -7q-20 0 -32.5 12.5t-12.5 34.5q0 29 17.5 43t42.5 14q45 0 45 -47q0 -28 -18 -42.5t-42 -14.5z" />
    <glyph glyph-name="quotedbl" unicode="&#x22;" horiz-adv-x="279" 
d="M267 485h-9l8 190q3 55 45 55q48 0 28 -55zM128 485h-9l8 190q3 55 45 55q48 0 28 -55z" />
    <glyph glyph-name="numbersign" unicode="#" 
d="M89 0h-23l80 217h-131l14 64h141l51 137h-132l15 64h140l81 218h23l-81 -218h129l81 218h23l-81 -218h132l-14 -64h-141l-51 -137h132l-15 -64h-141l-80 -217h-23l80 217h-129zM244 418l-51 -137h129l51 137h-129z" />
    <glyph glyph-name="dollar" unicode="$" 
d="M186 -8l-39 -107h-23l41 111q-79 19 -135 68l18 86h4l111 -119q5 -3 13 -5l106 285q-1 1 -20.5 20t-22 22t-18.5 20.5t-20 23.5t-16 21.5t-15.5 25t-9.5 24t-8 28t-2 28.5q0 82 58.5 136.5t147.5 54.5q39 0 73 -10l41 110h23l-43 -117q51 -20 86 -52l-19 -80h-4l-78 94
l-105 -284q52 -50 80 -93t28 -96q0 -87 -58.5 -143t-149.5 -56q-24 0 -44 4zM213 562q0 -30 16 -62t34 -53t51 -54l104 281q-26 12 -67 12q-63 0 -100.5 -33.5t-37.5 -90.5zM376 150q0 65 -78 145l-101 -275q18 -3 39 -3q63 0 101.5 36.5t38.5 96.5z" />
    <glyph glyph-name="percent" unicode="%" horiz-adv-x="670" 
d="M192 343q-49 0 -77.5 34.5t-28.5 95.5q0 96 56.5 169t130.5 73q49 0 77 -34.5t28 -95.5q0 -95 -56 -168.5t-130 -73.5zM134 0h-37l476 700h38zM194 363q44 0 82.5 79t38.5 169q0 84 -45 84q-44 0 -82.5 -79.5t-38.5 -169.5q0 -83 45 -83zM436 -15q-49 0 -77.5 34.5
t-28.5 95.5q0 96 56.5 169t130.5 73q49 0 77 -34.5t28 -95.5q0 -95 -56 -168.5t-130 -73.5zM438 5q44 0 82.5 79t38.5 169q0 84 -45 84q-44 0 -82.5 -79.5t-38.5 -169.5q0 -83 45 -83z" />
    <glyph glyph-name="ampersand" unicode="&#x26;" horiz-adv-x="757" 
d="M356 -15q-138 0 -221.5 74.5t-83.5 194.5q0 51 23 100t61 81q-44 48 -44 108q0 81 66.5 144t155.5 63q57 0 57 -41q0 -27 -20.5 -52t-52.5 -36l-3 1l26 71q-76 0 -133 -54t-57 -124q0 -48 23 -65q73 73 108 73q15 0 23.5 -9t8.5 -23q0 -16 -7 -26l-133 -43
q-25 -19 -40.5 -58.5t-15.5 -83.5q0 -95 73 -157.5t189 -62.5q133 0 227 82.5t94 201.5q0 86 -53 148l-216 -90l-32 -44h-5v98l408 170l32 44h5v-97l-169 -71q65 -73 65 -175q0 -151 -100 -246.5t-259 -95.5z" />
    <glyph glyph-name="quotesingle" unicode="'" horiz-adv-x="139" 
d="M128 485h-9l8 190q3 55 45 55q48 0 28 -55z" />
    <glyph glyph-name="parenleft" unicode="(" horiz-adv-x="303" 
d="M44 169q0 179 88 334.5t231 231.5l1 -3q-275 -251 -275 -569q0 -178 91 -299l-3 -3q-64 45 -98.5 124.5t-34.5 183.5z" />
    <glyph glyph-name="parenright" unicode=")" horiz-adv-x="303" 
d="M259 427q0 -179 -88 -334.5t-231 -231.5l-1 3q275 251 275 569q0 178 -91 299l3 3q133 -92 133 -308z" />
    <glyph glyph-name="asterisk" unicode="*" horiz-adv-x="342" 
d="M404 682l15 -38l-149 -63l121 -63l-29 -38l-104 85l-18 -148h-45l44 148l-139 -85l-15 38l149 63l-121 63l29 38l104 -85l19 148h44l-44 -148z" />
    <glyph glyph-name="plus" unicode="+" horiz-adv-x="426" 
d="M199 253h-170v37h170v170h37v-170h170v-37h-170v-171h-37v171z" />
    <glyph glyph-name="comma" unicode="," horiz-adv-x="231" 
d="M-39 -136l-2 4q63 20 102 58t39 79q0 20 -9 29l-56 16q-3 9 -3 18q0 23 14.5 38.5t37.5 15.5q28 0 45 -22t17 -59q0 -68 -51.5 -116.5t-133.5 -60.5z" />
    <glyph glyph-name="hyphen" unicode="-" horiz-adv-x="223" 
d="M208 252h-184l7 38h185z" />
    <glyph glyph-name="period" unicode="." horiz-adv-x="231" 
d="M72 -7q-20 0 -32.5 12.5t-12.5 34.5q0 29 17.5 43t42.5 14q45 0 45 -47q0 -28 -18 -42.5t-42 -14.5z" />
    <glyph glyph-name="slash" unicode="/" horiz-adv-x="435" 
d="M15 -40h-38l509 780h38z" />
    <glyph glyph-name="zero" unicode="0" horiz-adv-x="534" 
d="M210 -15q-75 0 -118.5 57.5t-43.5 155.5q0 135 43.5 254.5t117 191t156.5 71.5q75 0 118 -57.5t43 -155.5q0 -134 -43.5 -254t-117 -191.5t-155.5 -71.5zM210 13q58 0 114.5 75.5t91.5 197t35 246.5q0 75 -22.5 115t-64.5 40q-58 0 -114 -75.5t-91 -197t-35 -246.5
q0 -75 22.5 -115t63.5 -40z" />
    <glyph glyph-name="one" unicode="1" horiz-adv-x="323" 
d="M191 4l-1 -4h-160l1 4l49 41l122 575h-75l1 4l136 76h30l-140 -655z" />
    <glyph glyph-name="two" unicode="2" 
d="M419 103l-20 -103h-410l1 5l225 208q131 121 171.5 182.5t40.5 140.5q0 55 -36.5 90.5t-95.5 35.5q-58 0 -104.5 -39t-72.5 -110l-5 1q8 90 64.5 145.5t141.5 55.5q79 0 131 -49t52 -126q0 -81 -67 -166l-349 -315h279l49 44h5z" />
    <glyph glyph-name="three" unicode="3" 
d="M204 -15q-54 0 -103 16.5t-76 43.5l18 91h5l91 -102q28 -19 76 -19q74 0 123 48t49 120q0 81 -63 130t-167 51l1 5l68 36q25 0 52 -5q71 29 103.5 64t32.5 84q0 52 -33 83t-86 31q-107 0 -161 -136l-4 1q6 84 60 136t133 52q71 0 115 -40t44 -104q0 -83 -72 -134
l-105 -43q69 -19 108.5 -68.5t39.5 -118.5q0 -95 -71 -158.5t-178 -63.5z" />
    <glyph glyph-name="four" unicode="4" 
d="M388 4l-1 -4h-161l1 4l49 41l30 142h-305l1 5l434 508h55l-101 -478h40l49 44h5l-17 -79h-85l-30 -142zM396 608l-330 -386h248z" />
    <glyph glyph-name="five" unicode="5" 
d="M200 -15q-52 0 -101.5 16.5t-76.5 43.5l19 90h4l90 -102q28 -19 73 -19q74 0 122 52.5t48 133.5q0 80 -52.5 163.5t-167.5 190.5v4l52 133l211 18l49 44h5l-21 -104l-245 -20l-7 -15q243 -212 243 -396q0 -102 -69.5 -167.5t-175.5 -65.5z" />
    <glyph glyph-name="six" unicode="6" 
d="M246 -15q-93 0 -150.5 65t-57.5 170q0 169 138 306t360 189l2 -4q-202 -91 -315.5 -223.5t-113.5 -277.5q0 -87 40.5 -141.5t104.5 -54.5q57 0 93 43.5t36 112.5q0 78 -48 127t-131 57v3l69 20q82 -3 134 -55t52 -132q0 -87 -61.5 -146t-151.5 -59z" />
    <glyph glyph-name="seven" unicode="7" 
d="M556 695l-429 -695h-63v5l416 613v4h-289l-49 -44h-5l24 122h396z" />
    <glyph glyph-name="eight" unicode="8" 
d="M221 -15q-86 0 -142 50.5t-56 128.5q0 76 59 129l142 73q-44 39 -68 77t-24 87q0 77 58 131t139 54q73 0 120.5 -42.5t47.5 -107.5q0 -69 -50 -110l-131 -66q34 -27 51 -42t41 -41.5t34.5 -55t10.5 -61.5q0 -84 -68.5 -144t-163.5 -60zM200 557q0 -46 26 -81.5t77 -76.5
q79 43 108.5 77t29.5 82q0 57 -32 93t-83 36q-54 0 -90 -38t-36 -92zM82 172q0 -69 43 -114t108 -45t109 43.5t44 103.5q0 18 -4 34t-14 32t-17.5 27.5t-25.5 28t-26 23.5t-31 25.5t-29 23.5q-83 -38 -120 -81t-37 -101z" />
    <glyph glyph-name="nine" unicode="9" 
d="M302 715q93 0 150.5 -64.5t57.5 -170.5q0 -169 -138 -306t-360 -189l-2 4q203 92 316 224t113 277q0 87 -40.5 141.5t-104.5 54.5q-57 0 -93 -43.5t-36 -112.5q0 -78 48 -127t131 -57v-3l-69 -20q-83 5 -134.5 56t-51.5 131q0 87 61.5 146t151.5 59z" />
    <glyph glyph-name="colon" unicode=":" horiz-adv-x="237" 
d="M159 407q-20 0 -32.5 12.5t-12.5 34.5q0 29 17.5 43t42.5 14q45 0 45 -47q0 -28 -18 -42.5t-42 -14.5zM71 -7q-20 0 -32.5 12.5t-12.5 34.5q0 29 17.5 43t42.5 14q45 0 45 -47q0 -28 -18 -42.5t-42 -14.5z" />
    <glyph glyph-name="semicolon" unicode=";" horiz-adv-x="237" 
d="M160 408q-20 0 -32.5 12.5t-12.5 34.5q0 29 17.5 43t42.5 14q45 0 45 -47q0 -28 -18 -42.5t-42 -14.5zM-46 -136l-2 4q63 20 102 58t39 79q0 20 -9 29l-56 16q-3 9 -3 18q0 23 14.5 38.5t37.5 15.5q28 0 45 -22t17 -59q0 -68 -51.5 -116.5t-133.5 -60.5z" />
    <glyph glyph-name="less" unicode="&#x3c;" horiz-adv-x="426" 
d="M115 269l297 -109v-37l-389 144v8l389 143v-37l-297 -108v-4z" />
    <glyph glyph-name="equal" unicode="=" horiz-adv-x="426" 
d="M406 331h-377v37h377v-37zM406 174h-377v37h377v-37z" />
    <glyph glyph-name="greater" unicode="&#x3e;" horiz-adv-x="426" 
d="M297 273l-297 109v37l389 -144v-8l-389 -143v37l297 108v4z" />
    <glyph glyph-name="question" unicode="?" horiz-adv-x="385" 
d="M196 204l-2 -3q-47 15 -47 66q0 32 20 64t48.5 60.5t56.5 57.5t48 65t20 73q0 44 -25 70.5t-66 26.5q-18 0 -37 -8l-120 -101h-4l21 106q52 34 135 34q77 0 124 -38t47 -100q0 -43 -24 -83.5t-57.5 -72.5t-67.5 -61t-58 -60t-24 -59q0 -22 12 -37zM133 -7
q-20 0 -32.5 12.5t-12.5 34.5q0 29 17.5 43t42.5 14q45 0 45 -47q0 -28 -18 -42.5t-42 -14.5z" />
    <glyph glyph-name="at" unicode="@" horiz-adv-x="858" 
d="M449 -151q-169 0 -272.5 109t-103.5 286q0 197 123 332t302 135q148 0 243 -92.5t95 -236.5q0 -135 -83 -222.5t-221 -99.5q-15 -1 -27.5 12.5t-9.5 26.5l39 176h-4q-42 -94 -98.5 -154t-103.5 -60q-31 0 -48 25.5t-17 72.5q0 77 43 161t108 139.5t124 55.5q39 0 66 -21
l65 32l3 -2l-40 -104l-71 -328q112 15 178 92t66 193q0 135 -84.5 220t-220.5 85q-158 0 -266.5 -123t-108.5 -303q0 -165 94 -269.5t242 -104.5q80 0 152.5 30.5t113.5 81.5l5 -3q-36 -63 -114.5 -102.5t-168.5 -39.5zM327 195q0 -39 10.5 -61.5t29.5 -22.5
q42 0 105.5 97.5t87.5 199.5l11 52l-84 23q-62 -29 -111 -116t-49 -172z" />
    <glyph glyph-name="A" unicode="A" horiz-adv-x="601" 
d="M534 4l-1 -4h-149l1 4l54 42l-13 159h-275l-91 -141l65 -60l-1 -4h-159l1 4l40 41l382 582l-9 69l1 4h81l57 -654zM424 238l-28 345l-223 -345h251z" />
    <glyph glyph-name="B" unicode="B" horiz-adv-x="625" 
d="M553 207q0 -85 -79 -146t-201 -61h-246l1 4l50 42l130 608l-39 42l1 4h254q60 -10 96.5 -51t36.5 -98q0 -59 -41 -107.5t-106 -66.5q62 -14 102.5 -62t40.5 -108zM324 670h-34l-60 -282h111q65 0 106.5 40.5t41.5 102.5q0 63 -45 101t-120 38zM275 356h-52l-68 -324h107
q99 0 155.5 43.5t56.5 116.5q0 74 -55.5 119t-143.5 45z" />
    <glyph glyph-name="C" unicode="C" horiz-adv-x="608" 
d="M310 -15q-113 0 -180.5 79.5t-67.5 213.5q0 184 116.5 310.5t283.5 126.5q113 0 165 -44l-21 -97h-5l-113 100q-23 9 -58 9q-114 0 -200.5 -122.5t-86.5 -286.5q0 -117 49 -181.5t139 -64.5q151 0 242 178l4 -3q-24 -99 -96 -158.5t-171 -59.5z" />
    <glyph glyph-name="D" unicode="D" horiz-adv-x="693" 
d="M674 400q0 -177 -120 -288.5t-349 -111.5h-178l1 4l50 42l130 608l-39 42l1 4h255q108 -21 178.5 -106t70.5 -194zM290 673l-136 -641h50q184 0 286.5 95t102.5 259q0 124 -84 203t-219 84z" />
    <glyph glyph-name="E" unicode="E" horiz-adv-x="609" 
d="M518 116l-25 -116h-466l1 4l50 42l130 608l-39 42l1 4h433l-21 -101h-5l-101 69h-187l-60 -283h186l96 53h5l-29 -138h-5l-76 53h-185l-67 -321h221l139 84h4z" />
    <glyph glyph-name="F" unicode="F" horiz-adv-x="572" 
d="M195 4l-1 -4h-167l1 4l50 42l130 608l-39 42l1 4h436l-21 -101h-6l-98 69h-192l-62 -298h179l97 52h5l-30 -139h-5l-76 54h-177l-64 -291z" />
    <glyph glyph-name="G" unicode="G" horiz-adv-x="696" 
d="M369 -15q-133 0 -216 90.5t-83 230.5q0 176 122.5 292.5t304.5 116.5q56 0 112 -16t82 -36l-20 -98h-5l-123 111q-24 8 -65 8q-139 0 -233.5 -104t-94.5 -256q0 -131 74.5 -217t189.5 -86q36 0 63 9l70 328l-38 41l1 4h167l-1 -4l-51 -41l-80 -373h-4l-48 34h-3
q-58 -34 -121 -34z" />
    <glyph glyph-name="H" unicode="H" horiz-adv-x="746" 
d="M194 0h-167l1 4l50 42l130 608l-39 42l1 4h167l-1 -4l-50 -42l-60 -282h345l61 282l-39 42l1 4h168l-1 -4l-51 -42l-129 -608l38 -42l-1 -4h-167l1 4l50 42l62 292h-345l-63 -292l39 -42z" />
    <glyph glyph-name="I" unicode="I" horiz-adv-x="322" 
d="M194 4l-1 -4h-166l1 4l50 42l130 608l-39 42l1 4h167l-1 -4l-50 -42l-130 -608z" />
    <glyph glyph-name="J" unicode="J" horiz-adv-x="321" 
d="M-74 -200q-42 0 -83 12l18 89h4l93 -72q33 2 63 47.5t45 116.5l142 661l-39 42l1 4h167l-1 -4l-50 -42l-133 -622q-25 -112 -83 -172t-144 -60z" />
    <glyph glyph-name="K" unicode="K" horiz-adv-x="656" 
d="M195 4l-1 -4h-167l1 4l50 42l130 608l-39 42l1 4h167l-1 -4l-50 -42l-65 -305l355 287l-41 59l1 5h166l-1 -5l-339 -271l238 -420l-1 -4h-157l1 6l45 40l-188 328l-89 -71l-55 -257z" />
    <glyph glyph-name="L" unicode="L" horiz-adv-x="539" 
d="M481 118l-24 -118h-430l1 4l50 42l129 608l-39 42l1 4h167l-1 -4l-50 -42l-131 -622h185l137 86h5z" />
    <glyph glyph-name="M" unicode="M" horiz-adv-x="836" 
d="M711 620l-340 -532h-9l-98 472h-5l-173 -496l63 -60l-1 -4h-165l1 4l59 60l197 549l-39 83l1 4h110l100 -478l303 478h134l-1 -4l-49 -42l-109 -608l41 -42l-1 -4h-167l1 4l48 41l104 575h-5z" />
    <glyph glyph-name="N" unicode="N" horiz-adv-x="712" 
d="M684 636l-136 -636h-19l-297 579l-109 -515l53 -60l-1 -4h-149l1 4l55 60l120 567l-44 65l1 4h98l283 -550l103 486l-54 60l1 4h149l-1 -4z" />
    <glyph glyph-name="O" unicode="O" horiz-adv-x="686" 
d="M303 -15q-113 0 -177 76t-64 211q0 183 107 313t257 130q113 0 177 -76.5t64 -210.5q0 -183 -107 -313t-257 -130zM317 15q111 0 190 122.5t79 292.5q0 119 -46 187t-128 68q-111 0 -190.5 -122.5t-79.5 -292.5q0 -119 46.5 -187t128.5 -68z" />
    <glyph glyph-name="P" unicode="P" horiz-adv-x="566" 
d="M193 4l-1 -4h-165l1 4l50 42l129 608l-38 42l1 4h255q68 -13 109 -62.5t41 -120.5q0 -96 -71.5 -161.5t-175.5 -65.5q-26 0 -43 4l-21 16v4q109 2 174.5 55t65.5 140q0 74 -49 117.5t-134 43.5h-32l-133 -624z" />
    <glyph glyph-name="Q" unicode="Q" horiz-adv-x="686" 
d="M667 -149h-147l-275 131q-96 48 -139.5 118t-43.5 178q0 181 106.5 309t257.5 128q113 0 177 -76.5t64 -210.5q0 -181 -103.5 -308.5t-251.5 -131.5l-2 -4q46 -11 125 -40l233 -88zM318 15q111 0 190 122.5t79 292.5q0 119 -46.5 187t-128.5 68q-111 0 -190.5 -122.5
t-79.5 -292.5q0 -119 47 -187t129 -68z" />
    <glyph glyph-name="R" unicode="R" horiz-adv-x="602" 
d="M194 4l-1 -4h-166l1 4l50 42l129 608l-38 42l1 4h272q63 -11 100 -53t37 -101q0 -69 -50 -123t-134 -75q15 -99 67 -223.5t107 -187.5l-3 -2q-79 30 -153 150.5t-98 253.5h-97l-62 -293zM330 672h-41l-64 -303h96q82 0 134 44.5t52 117.5q0 66 -46.5 103.5t-130.5 37.5z
" />
    <glyph glyph-name="S" unicode="S" horiz-adv-x="512" 
d="M227 -15q-60 0 -120 23t-96 60l19 94h5l120 -131q30 -18 80 -18q65 0 106.5 39t41.5 101q0 39 -23.5 77t-56.5 69.5t-66 64.5t-56.5 75.5t-23.5 88.5q0 81 59 134t148 53q98 0 168 -52l-21 -91h-5l-102 101q-25 14 -53 14q-56 0 -93 -38t-37 -93q0 -39 23.5 -77t56.5 -70
t66.5 -65t57 -75.5t23.5 -88.5q0 -85 -62.5 -140t-158.5 -55z" />
    <glyph glyph-name="T" unicode="T" horiz-adv-x="597" 
d="M331 4l-1 -4h-167l1 4l50 42l133 622h-115l-131 -75h-5l22 107h549l-22 -107h-4l-102 75h-114l-133 -622z" />
    <glyph glyph-name="U" unicode="U" horiz-adv-x="692" 
d="M329 -15q-115 0 -175.5 79t-36.5 195l85 395l-39 42l1 4h167l-1 -4l-49 -42l-83 -383q-23 -109 19.5 -170.5t139.5 -61.5q78 0 131 42t69 117l92 438l-53 60l1 4h145l-1 -4l-55 -60l-91 -435q-22 -105 -90 -160.5t-176 -55.5z" />
    <glyph glyph-name="V" unicode="V" horiz-adv-x="601" 
d="M638 655l-430 -655h-24l-58 654l-17 42l1 4h150l-1 -4l-54 -42l43 -535l335 517l-65 60l1 4h160l-1 -4z" />
    <glyph glyph-name="W" unicode="W" horiz-adv-x="854" 
d="M467 519l-325 -519h-22l2 654l-15 42l1 4h150l-1 -4l-55 -42l-7 -510l276 443l4 67l-12 42l2 4h139l-2 -4l-48 -42l-39 -506l319 488l-49 60l2 4h161l-2 -4l-68 -60l-423 -636h-20z" />
    <glyph glyph-name="X" unicode="X" horiz-adv-x="645" 
d="M551 4l-1 -4h-158l1 4l47 43l-115 283l-229 -266l40 -60l-1 -4h-151l1 4l61 60l263 299l-119 291l-27 42l1 4h156l-1 -4l-44 -42l92 -238l191 220l-40 60l1 4h152l-1 -4l-61 -59l-226 -254l141 -337z" />
    <glyph glyph-name="Y" unicode="Y" horiz-adv-x="592" 
d="M330 4l-1 -4h-166l1 4l49 42l61 284l-130 325l-23 42l1 3h156l-1 -4l-50 -42l115 -292l218 274l-42 60l1 4h139l-1 -4l-52 -60l-253 -309l-60 -281z" />
    <glyph glyph-name="Z" unicode="Z" horiz-adv-x="616" 
d="M531 123l-27 -123h-494l1 4l510 664h-229l-131 -85h-6l25 117h455l-1 -4l-510 -664h262l140 91h5z" />
    <glyph glyph-name="bracketleft" unicode="[" horiz-adv-x="303" 
d="M172 -102l-5 -22h-149l179 844h149l-5 -22h-104l-170 -800h105z" />
    <glyph glyph-name="backslash" unicode="\" horiz-adv-x="435" 
d="M110 740h36l234 -780h-36z" />
    <glyph glyph-name="bracketright" unicode="]" horiz-adv-x="303" 
d="M134 698l5 22h149l-179 -844h-149l5 22h104l170 800h-105z" />
    <glyph glyph-name="asciicircum" unicode="^" horiz-adv-x="361" 
d="M207 541l-110 -302h-37l145 394h8l145 -394h-37l-110 302h-4z" />
    <glyph glyph-name="underscore" unicode="_" horiz-adv-x="460" 
d="M384 -123h-460l8 33h460z" />
    <glyph glyph-name="grave" unicode="`" horiz-adv-x="500" 
d="M257 745h69l35 -180h-4l-100 175v5z" />
    <glyph glyph-name="a" unicode="a" horiz-adv-x="498" 
d="M95 -15q-72 0 -72 122q0 99 46 193t119 152.5t149 58.5q53 0 85 -23l67 43l3 -2l-46 -128l-76 -359h3l81 65l3 -4q-28 -54 -62.5 -86t-65.5 -32q-18 0 -27 13.5t-5 32.5l49 217h-4q-50 -109 -121.5 -186t-125.5 -77zM92 128q0 -91 42 -91q33 0 84.5 57t96 140.5
t59.5 153.5l13 63l-102 30q-77 -31 -135 -138.5t-58 -214.5z" />
    <glyph glyph-name="b" unicode="b" horiz-adv-x="499" 
d="M166 -15q-30 0 -73 9t-63 21l12 29l140 655l-69 23l1 5l146 43h8l-115 -522h4q50 109 122 186t125 77q72 0 72 -118q0 -95 -45.5 -190.5t-118 -156.5t-146.5 -61zM125 108l-13 -65l106 -28q75 31 132 138t57 214q0 92 -42 92q-33 0 -84.5 -57t-96 -140.5t-59.5 -153.5z
" />
    <glyph glyph-name="c" unicode="c" horiz-adv-x="362" 
d="M141 -15q-56 0 -87 39.5t-31 112.5q0 86 39.5 173.5t102 144t124.5 56.5q38 0 60.5 -11.5t22.5 -31.5q0 -13 -8 -24t-21 -14l-98 49q-61 -24 -107.5 -121t-46.5 -198q0 -121 73 -121q76 0 158 132l4 -2q-60 -184 -185 -184z" />
    <glyph glyph-name="d" unicode="d" horiz-adv-x="513" 
d="M95 -15q-72 0 -72 122q0 99 46 193t119 152.5t149 58.5q31 0 61 -11l42 199l-69 23l1 5l146 43h8l-156 -729h3l81 66l3 -4q-28 -54 -62.5 -86t-65.5 -32q-18 0 -27 13.5t-5 32.5l49 217h-4q-50 -109 -121.5 -186t-125.5 -77zM92 128q0 -91 42 -91q33 0 84.5 57t96 140.5
t59.5 153.5l13 63l-102 30q-76 -32 -134.5 -139.5t-58.5 -213.5z" />
    <glyph glyph-name="e" unicode="e" horiz-adv-x="390" 
d="M141 -15q-57 0 -87.5 37.5t-30.5 109.5q0 89 40.5 177.5t104.5 145t128 56.5q39 0 62 -21t23 -56q0 -122 -281 -190q-9 -42 -9 -84q0 -121 76 -121q88 0 178 160l4 -2q-29 -102 -85 -157t-123 -55zM271 482q-47 0 -95 -64t-71 -152q112 30 163.5 67.5t51.5 88.5
q0 28 -13 44t-36 16z" />
    <glyph glyph-name="f" unicode="f" horiz-adv-x="305" 
d="M-8 -200q-29 0 -45 11.5t-16 28.5q0 13 9 23.5t20 10.5l88 -32q22 23 48 231l50 396h-87l7 27h83q19 135 74 204.5t141 69.5q38 0 63 -13.5t25 -34.5q0 -23 -19 -36l-136 45q-43 -11 -79 -235h135l-13 -27h-126l-58 -401q-22 -140 -61.5 -204t-102.5 -64z" />
    <glyph glyph-name="g" unicode="g" horiz-adv-x="460" 
d="M162 -200q-94 0 -156.5 40.5t-62.5 102.5q0 35 18 52l142 72q-81 28 -81 84v10l104 61q-29 29 -29 81q0 81 61.5 144.5t142.5 63.5q35 0 63 -13l129 9h4l-6 -54h-5l-110 30v-5q14 -9 23.5 -33t9.5 -53q1 -77 -61 -140.5t-137 -61.5q-41 0 -69 18l-57 -33q0 -27 34.5 -43
t84 -25t98.5 -21t83.5 -40.5t34.5 -74.5q0 -71 -75 -121t-183 -50zM216 215q46 0 85 61.5t39 133.5q0 76 -50 76q-46 0 -85.5 -61.5t-39.5 -133.5q0 -76 51 -76zM1 -45q0 -52 55.5 -87t135.5 -35q75 0 126 31.5t51 75.5q0 25 -14 42.5t-42.5 29t-53.5 18t-67 15t-63 14.5
l-37 -19q-55 -27 -73 -44t-18 -41z" />
    <glyph glyph-name="h" unicode="h" horiz-adv-x="525" 
d="M163 218l-49 -218h-70l151 699l-69 23l1 5l146 43h8l-99 -445h3q105 186 213 186q43 0 60.5 -30.5t6.5 -81.5l-75 -357h3l81 65l3 -4q-28 -53 -63 -85.5t-66 -32.5q-18 0 -27 12t-5 29l79 372q12 60 -33 60q-50 0 -115.5 -78t-83.5 -162z" />
    <glyph glyph-name="i" unicode="i" horiz-adv-x="274" 
d="M236 665q-43 0 -43 43q0 24 15.5 39.5t39.5 15.5q42 0 42 -42q0 -25 -15.5 -40.5t-38.5 -15.5zM92 -15q-18 0 -27 12t-5 29l87 413h-4l-81 -66l-2 5q33 61 65.5 89.5t72.5 28.5h31l-95 -454h3l80 65l4 -4q-28 -53 -63 -85.5t-66 -32.5z" />
    <glyph glyph-name="j" unicode="j" horiz-adv-x="268" 
d="M234 665q-43 0 -43 43q0 24 15.5 39.5t39.5 15.5q42 0 42 -42q0 -25 -15.5 -40.5t-38.5 -15.5zM-15 -200q-27 0 -43 10.5t-16 28.5q0 14 8 25t18 13l94 -34l101 597h-4l-81 -66l-3 4q33 61 65.5 89.5t73.5 28.5h31l-77 -414q-29 -153 -67 -217.5t-100 -64.5z" />
    <glyph glyph-name="k" unicode="k" horiz-adv-x="503" 
d="M134 87l-20 -87h-70l150 699l-68 23l1 5l145 43h8l-99 -450h4q35 89 85.5 140.5t102.5 51.5q38 0 61 -25.5t23 -66.5q0 -56 -25 -89l-135 -80l89 -217h4l84 69l4 -2q-44 -116 -115 -116q-36 0 -56 50l-75 195v4l83 51q75 48 75 119q0 64 -48 64q-59 0 -115 -102t-93 -279
z" />
    <glyph glyph-name="l" unicode="l" horiz-adv-x="270" 
d="M88 -15q-18 0 -27 12t-5 30l143 672l-68 23l1 5l145 43h8l-155 -728h3l81 65l3 -4q-28 -53 -63 -85.5t-66 -32.5z" />
    <glyph glyph-name="m" unicode="m" horiz-adv-x="802" 
d="M435 218l-45 -218h-71l84 398q12 60 -33 60q-54 0 -119.5 -81t-81.5 -160l-47 -217h-70l95 440h-4l-80 -66l-4 4q33 61 65.5 89.5t72.5 28.5h27l-36 -174h4q104 189 218 189q42 0 58 -29t5 -82l-14 -70h4q99 181 213 181q87 0 64 -112l-74 -357h3l81 65l3 -4
q-28 -54 -62.5 -86t-65.5 -32q-18 0 -27 11.5t-6 29.5l78 374q13 58 -32 58q-52 0 -118.5 -78t-84.5 -162z" />
    <glyph glyph-name="n" unicode="n" horiz-adv-x="533" 
d="M356 -15q-18 0 -26.5 11.5t-5.5 29.5l79 372q13 60 -33 60q-50 0 -116 -78t-84 -162l-48 -218h-70l95 440h-4l-81 -66l-4 4q33 61 66 89.5t73 28.5h28l-37 -174h3q104 189 214 189q44 0 61.5 -30t6.5 -82l-75 -357h3l80 65l4 -4q-28 -53 -63 -85.5t-66 -32.5z" />
    <glyph glyph-name="o" unicode="o" horiz-adv-x="438" 
d="M160 -15q-64 0 -100.5 47.5t-36.5 131.5q0 135 78 241t178 106q64 0 100 -47.5t36 -131.5q0 -135 -78 -241t-177 -106zM164 9q43 0 85 52t68 133.5t26 164.5q0 127 -69 127q-65 0 -122 -111.5t-57 -238.5t69 -127z" />
    <glyph glyph-name="p" unicode="p" horiz-adv-x="469" 
d="M159 -15q-26 0 -50 6l-31 -147l49 -39l-1 -5h-169l1 5l50 39l124 583q-71 -45 -132 -123l-3 3q46 100 144 160l33 156l71 24h5l-31 -145q33 9 65 9q73 0 117.5 -46.5t44.5 -124.5q0 -79 -44 -162.5t-111.5 -138t-131.5 -54.5zM253 465q-18 0 -43 -5l-90 -420l93 -21
q64 30 114 120.5t50 179.5q0 68 -33.5 107t-90.5 39z" />
    <glyph glyph-name="q" unicode="q" horiz-adv-x="503" 
d="M95 -15q-72 0 -72 122q0 99 46 193t119 152.5t149 58.5q53 0 85 -23l68 43l3 -2l-47 -128l-117 -557l36 -39l-1 -5h-172l1 5l67 42l86 401h-4q-50 -109 -122 -186t-125 -77zM92 128q0 -91 42 -91q33 0 84.5 57t96 140.5t59.5 153.5l13 63l-102 30q-76 -32 -134.5 -139.5
t-58.5 -213.5z" />
    <glyph glyph-name="r" unicode="r" horiz-adv-x="356" 
d="M169 218l-47 -218h-70l95 440h-4l-81 -66l-3 4q33 61 65.5 89.5t73.5 28.5h27l-31 -150h3q77 165 161 165q24 0 38 -11.5t14 -31.5q0 -17 -10.5 -30.5t-26.5 -18.5l-65 37q-35 -16 -79.5 -91t-59.5 -147z" />
    <glyph glyph-name="s" unicode="s" horiz-adv-x="346" 
d="M128 -15q-52 0 -91.5 22t-39.5 51q0 16 11 27.5t25 11.5l94 -88q47 1 75 27t28 69q0 28 -13.5 54t-32 47t-37.5 43t-32.5 50t-13.5 60q0 64 49.5 108t121.5 44q40 0 64.5 -13.5t24.5 -35.5q0 -13 -8 -23t-21 -12l-91 53q-37 -1 -59.5 -24.5t-22.5 -62.5q0 -29 13.5 -55.5
t32.5 -48t37.5 -43t32 -50.5t13.5 -62q0 -66 -45 -107.5t-115 -41.5z" />
    <glyph glyph-name="t" unicode="t" horiz-adv-x="335" 
d="M120 -15q-37 0 -53.5 26.5t-5.5 68.5l97 389h-85l6 27h86l32 129l71 22h4l-37 -151h129l-11 -27h-125l-98 -398q-11 -38 14 -38q24 0 71.5 38.5t86.5 87.5l4 -2q-31 -75 -83 -124q-51 -48 -103 -48z" />
    <glyph glyph-name="u" unicode="u" horiz-adv-x="533" 
d="M361 -15q-18 0 -27.5 11.5t-5.5 29.5l36 149h-4q-104 -190 -214 -190q-42 0 -60.5 30t-7.5 82l73 343h-5l-81 -66l-3 4q64 118 138 118h32l-83 -398q-6 -28 2.5 -44t30.5 -16q51 0 116.5 77.5t83.5 161.5l47 219h71l-99 -454h4l80 65l4 -4q-28 -54 -62.5 -86t-65.5 -32z
" />
    <glyph glyph-name="v" unicode="v" horiz-adv-x="435" 
d="M283 137l-103 -137h-23l-48 450h-4l-78 -24l-3 4q30 33 69 55t71 22h9l44 -421l33 46q77 107 103.5 159.5t26.5 97.5q0 86 -85 86h-8l-2 4q40 33 85 33q33 0 52.5 -21.5t19.5 -57.5q0 -47 -34 -110.5t-125 -185.5z" />
    <glyph glyph-name="w" unicode="w" horiz-adv-x="675" 
d="M371 256l-191 -256h-23l-48 450h-4l-78 -24l-3 4q30 33 69 55t71 22h9l44 -418l150 202l-17 159h-4l-78 -25l-3 4q31 34 69 56t71 22h9l43 -421l33 46q77 105 104 158.5t27 98.5q0 86 -86 86h-8l-2 4q40 33 85 33q33 0 52.5 -21.5t19.5 -57.5q0 -47 -34.5 -111.5
t-124.5 -184.5l-102 -137h-23z" />
    <glyph glyph-name="x" unicode="x" horiz-adv-x="482" 
d="M28 -15q-11 0 -21.5 6t-12.5 13l30 74h3l33 -14q29 4 83 71l84 102l-73 209l-4 -1l-71 -43l-4 4q17 36 54.5 67t72.5 39l77 -221l106 140q36 48 54.5 64.5t39.5 16.5q28 0 35 -19l-30 -74h-3l-34 14q-30 -4 -83 -70l-77 -96l76 -216h4l71 43l3 -2q-18 -37 -55 -68
t-71 -39l-80 230l-113 -149q-35 -47 -54 -64t-40 -17z" />
    <glyph glyph-name="y" unicode="y" horiz-adv-x="439" 
d="M-18 -200q-32 0 -52 14.5t-20 40.5t24 33l110 -45q23 8 60.5 44t62.5 76l-53 487h-4l-79 -24l-3 4q30 33 69.5 55t71.5 22h9l47 -462l87 155q72 126 72 199q0 37 -22.5 56.5t-63.5 19.5h-8l-2 4q39 33 86 33q34 0 53 -20.5t19 -55.5t-24.5 -89t-83.5 -152l-111 -189
q-125 -206 -245 -206z" />
    <glyph glyph-name="z" unicode="z" horiz-adv-x="412" 
d="M286 -29q-63 0 -199 121h-3l-76 -96h-5q-5 18 -5 33q0 48 31 85t73 37l247 289h-193l-48 -45h-5l19 101h313v-5l-309 -355q122 -103 190 -110l58 89l4 -2q-21 -142 -92 -142z" />
    <glyph glyph-name="braceleft" unicode="{" horiz-adv-x="303" 
d="M52 -4q0 45 31 124.5t31 116.5q0 23 -13 34.5t-43 15.5l4 22q56 12 74 41t22 115q8 133 52.5 192.5t153.5 77.5l1 -3q-84 -36 -119 -93t-41 -168q-7 -111 -45 -145l-67 -27l-1 -4l55 -27q9 -12 9 -37q0 -37 -28 -116.5t-28 -123.5q0 -83 80 -127l-2 -3q-126 27 -126 135z
" />
    <glyph glyph-name="bar" unicode="|" horiz-adv-x="230" 
d="M74 -40h-34l166 780h34z" />
    <glyph glyph-name="braceright" unicode="}" horiz-adv-x="303" 
d="M252 600q0 -45 -31 -124.5t-31 -116.5q0 -22 13 -33.5t43 -16.5l-4 -22q-55 -10 -73 -40t-23 -116q-6 -133 -51 -191.5t-155 -78.5l-1 3q84 36 119 93.5t41 167.5q7 108 45 145l67 27l1 4l-55 27q-9 12 -9 37q0 37 28 116.5t28 123.5q0 85 -80 127l2 3q126 -27 126 -135z
" />
    <glyph glyph-name="asciitilde" unicode="~" horiz-adv-x="426" 
d="M323 231q-34 0 -93 33.5t-84 33.5q-40 0 -83 -49l-26 25q55 61 109 61q34 0 93.5 -33.5t83.5 -33.5q41 0 83 49l26 -25q-55 -61 -109 -61z" />
    <glyph glyph-name="exclamdown" unicode="&#xa1;" horiz-adv-x="351" 
d="M229 519q45 0 45 -47q0 -29 -17.5 -43t-42.5 -14q-45 0 -45 47q0 28 18 42.5t42 14.5zM179 306h17l-61 -494h-106z" />
    <glyph glyph-name="cent" unicode="&#xa2;" horiz-adv-x="362" 
d="M86 -115h-23l39 106q-79 25 -79 146q0 86 39.5 173.5t102 144t124.5 56.5h7l41 109h23l-41 -111q53 -8 53 -41q0 -13 -8 -24t-21 -14l-45 23l-154 -411q9 -3 20 -3q76 0 158 132l4 -2q-60 -184 -185 -184q-12 0 -17 1zM91 160q0 -83 34 -108l153 410l-33 17
q-61 -24 -107.5 -121t-46.5 -198z" />
    <glyph glyph-name="sterling" unicode="&#xa3;" 
d="M476 99l-23 -119h-22q-174 0 -290 119h-4l-143 -94q-27 24 -27 57q0 29 22 48.5t64 19.5q36 0 79 -10q28 65 32 212h-131l7 21h124v28q0 163 63.5 248.5t178.5 85.5q76 0 150 -44l-19 -88h-5l-96 96q-15 7 -44 7q-70 0 -111 -79.5t-43 -225.5q0 -5 -0.5 -14t-0.5 -14h213
l-6 -21h-208q-13 -154 -79 -220q142 -75 254 -75l62 65z" />
    <glyph glyph-name="currency" unicode="&#xa4;" horiz-adv-x="451" 
d="M258 270q-26 0 -43 11l-127 -126l-26 26l126 126q-10 16 -10 43q0 25 10 44l-126 126l26 26l127 -126q19 10 43 10q26 0 43 -10l127 126l26 -26l-127 -126q11 -20 11 -44q0 -23 -11 -43l127 -126l-26 -26l-126 126q-20 -11 -44 -11zM258 301q21 0 34 14t13 35t-12.5 35.5
t-34.5 14.5q-21 0 -34.5 -14.5t-13.5 -35.5t13 -35t35 -14z" />
    <glyph glyph-name="yen" unicode="&#xa5;" horiz-adv-x="528" 
d="M258 276h-183l5 20h182l9 41l-21 54h-150l5 20h137l-100 251l-20 35l1 3h140l-1 -3l-41 -36l115 -297l222 283l-35 50l1 3h116v-3l-44 -50l-190 -236h141l-5 -20h-152l-46 -56l-8 -39h186l-5 -20h-185l-49 -237l30 -36l-1 -3h-146l1 3l41 36z" />
    <glyph glyph-name="brokenbar" unicode="&#xa6;" horiz-adv-x="230" 
d="M177 440h-34l63 300h34zM74 -40h-34l64 300h34z" />
    <glyph glyph-name="section" unicode="&#xa7;" horiz-adv-x="417" 
d="M309 75q0 -69 -48 -117t-120 -48q-62 0 -98 26l15 71h4l62 -66q13 -5 28 -5q47 0 76 30t29 78q0 37 -18.5 71t-45.5 61.5t-54 54.5t-45.5 60t-18.5 68q0 30 12 62.5t32 49.5l47 30v1q-7 26 -7 48q0 70 48.5 117.5t119.5 47.5q64 0 98 -26l-15 -71h-4l-62 66q-13 5 -28 5
q-46 0 -75.5 -30t-29.5 -78q0 -45 28.5 -88t62 -72.5t62 -71t28.5 -83.5q0 -30 -12 -62.5t-31 -48.5l-47 -30v-1q7 -26 7 -49zM128 395q0 -32 13.5 -60t35 -51t44 -44t44.5 -48.5t33 -55.5q42 42 42 95q0 31 -13.5 59t-35 51t-44 44.5t-44.5 48.5t-33 55q-42 -42 -42 -94z
" />
    <glyph glyph-name="dieresis" unicode="&#xa8;" horiz-adv-x="500" 
d="M229 616q-15 0 -24 9t-9 24q0 18 13 31.5t32 13.5q34 0 34 -33q0 -18 -13 -31.5t-33 -13.5zM389 616q-15 0 -24.5 9t-9.5 24q0 18 13.5 31.5t32.5 13.5q15 0 24.5 -9t9.5 -24q0 -18 -13 -31.5t-33 -13.5z" />
    <glyph glyph-name="copyright" unicode="&#xa9;" horiz-adv-x="834" 
d="M440 -15q-156 0 -254.5 101t-98.5 260q0 162 102 265.5t261 103.5q157 0 255.5 -101t98.5 -260q0 -162 -102 -265.5t-262 -103.5zM458 19q140 0 221 84t81 232q0 157 -89.5 251.5t-238.5 94.5q-140 0 -220.5 -83.5t-80.5 -232.5q0 -156 89.5 -251t237.5 -95zM458 155
q-76 0 -125.5 54.5t-49.5 136.5q0 90 57 147.5t147 57.5q50 0 91 -18v-76h-2l-89 70q-8 2 -18 2q-49 0 -81 -44t-32 -111q0 -76 39 -123.5t100 -47.5q67 0 98 54l2 -1q-8 -45 -46 -73t-91 -28z" />
    <glyph glyph-name="ordfeminine" unicode="&#xaa;" horiz-adv-x="369" 
d="M142 339q-55 0 -55 89q0 107 70.5 195t155.5 88q41 0 63 -18l55 31l2 -2l-34 -91l-52 -247h3l59 49l2 -3q-19 -41 -45.5 -66t-52.5 -25q-16 0 -24.5 11.5t-4.5 26.5l31 138h-3q-35 -75 -83 -125.5t-87 -50.5zM149 442q0 -61 28 -61q31 0 87.5 84t70.5 152l10 49l-71 22
q-49 -24 -87 -99t-38 -147z" />
    <glyph glyph-name="guillemotleft" unicode="&#xab;" horiz-adv-x="319" 
d="M153 106l-3 -14l-118 168l5 22l189 169l-3 -14l-134 -169v-2zM281 106l-3 -14l-118 168l5 22l189 169l-3 -14l-134 -169v-2z" />
    <glyph glyph-name="logicalnot" unicode="&#xac;" horiz-adv-x="426" 
d="M370 253h-341v37h377v-208h-36v171z" />
    <glyph glyph-name="registered" unicode="&#xae;" horiz-adv-x="834" 
d="M440 -15q-156 0 -254.5 101t-98.5 260q0 162 102 265.5t261 103.5q157 0 255.5 -101t98.5 -260q0 -162 -102 -265.5t-262 -103.5zM458 19q140 0 221 84t81 232q0 157 -89.5 251.5t-238.5 94.5q-140 0 -220.5 -83.5t-80.5 -232.5q0 -156 89.5 -251t237.5 -95zM413 166v-3
h-128v3l28 29v316l-28 29v3h212q42 -7 67.5 -33.5t25.5 -64.5q0 -34 -23 -58t-65 -32l98 -161l36 -28v-3h-101l-101 182h-49v-150zM401 527h-16v-162h43q44 0 68 19.5t24 53.5q0 42 -31.5 65.5t-87.5 23.5z" />
    <glyph glyph-name="overscore" unicode="&#xaf;" horiz-adv-x="500" 
d="M441 640h-254l7 30h254z" />
    <glyph glyph-name="degree" unicode="&#xb0;" horiz-adv-x="204" 
d="M305 613q0 -49 -33 -82.5t-83 -33.5t-82.5 33.5t-32.5 82.5q0 50 32.5 83.5t82.5 33.5t83 -33.5t33 -83.5zM274 613q0 39 -23.5 64.5t-61.5 25.5t-61.5 -25.5t-23.5 -64.5t23.5 -64t61.5 -25t61.5 25t23.5 64z" />
    <glyph glyph-name="plusminus" unicode="&#xb1;" horiz-adv-x="306" 
d="M139 314h-110v37h110v120h37v-120h110v-37h-110v-120h-37v120zM286 87h-257v37h257v-37z" />
    <glyph glyph-name="twosuperior" unicode="&#xb2;" horiz-adv-x="330" 
d="M354 427l-15 -77h-267l1 3l116 106q75 68 102 109t27 88q0 32 -20 51.5t-52 19.5q-68 0 -99 -85l-3 1q4 57 39.5 91.5t90.5 34.5q50 0 82 -30t32 -77q0 -51 -35 -93l-204 -168h173l29 26h3z" />
    <glyph glyph-name="threesuperior" unicode="&#xb3;" horiz-adv-x="330" 
d="M204 341q-72 0 -116 33l14 65h3l61 -68q16 -9 36 -9q43 0 70 25.5t27 64.5q0 45 -35.5 72t-95.5 28v3l61 37q19 0 34 -4q58 25 58 72q0 31 -19 49t-51 18q-61 0 -92 -75h-3q4 53 38 85t86 32q47 0 75.5 -23t28.5 -60q0 -40 -36 -70l-71 -31q42 -12 66 -41t24 -70
q0 -57 -46.5 -95t-116.5 -38z" />
    <glyph glyph-name="acute" unicode="&#xb4;" horiz-adv-x="500" 
d="M190 565h-4l106 180h79v-5z" />
    <glyph glyph-name="mu" unicode="&#xb5;" horiz-adv-x="533" 
d="M361 -15q-18 0 -27.5 11.5t-5.5 29.5l36 149h-4q-49 -91 -103.5 -140.5t-106.5 -49.5q-22 0 -36 10h-3l-24 -190l-1 -5h-71l136 640h-5l-81 -66l-3 4q64 118 138 118h32l-83 -398q-6 -28 2.5 -44t30.5 -16q51 0 116.5 77.5t83.5 161.5l47 219h71l-99 -454h4l80 65l4 -4
q-28 -54 -62.5 -86t-65.5 -32z" />
    <glyph glyph-name="paragraph" unicode="&#xb6;" horiz-adv-x="413" 
d="M123 -68l94 447l-83 10q-43 37 -43 100q0 67 49 109t127 42h41l-162 -760h-86l1 5zM293 -120h-85l161 760h85l-1 -5l-61 -48l-139 -655l41 -47z" />
    <glyph glyph-name="middot" unicode="&#xb7;" horiz-adv-x="231" 
d="M120 219q-20 0 -32.5 12.5t-12.5 34.5q0 29 17.5 43t42.5 14q45 0 45 -47q0 -28 -18 -42.5t-42 -14.5z" />
    <glyph glyph-name="cedilla" unicode="&#xb8;" horiz-adv-x="500" 
d="M212 -47l92 48h28l-65 -36q51 -51 51 -96q0 -31 -26.5 -50t-71.5 -19t-77 13l9 45h6l72 -40q16 0 26 12t10 29q0 43 -54 91v3z" />
    <glyph glyph-name="onesuperior" unicode="&#xb9;" horiz-adv-x="234" 
d="M222 352v-2h-120v2l29 27l69 323h-50l1 2l93 56h40l-82 -381z" />
    <glyph glyph-name="ordmasculine" unicode="&#xba;" horiz-adv-x="325" 
d="M192 339q-49 0 -77.5 34.5t-28.5 95.5q0 96 56.5 169t130.5 73q49 0 77 -34.5t28 -95.5q0 -95 -56 -168.5t-130 -73.5zM194 359q44 0 82.5 79t38.5 169q0 84 -45 84q-44 0 -82.5 -79.5t-38.5 -169.5q0 -83 45 -83z" />
    <glyph glyph-name="guillemotright" unicode="&#xbb;" horiz-adv-x="308" 
d="M55 436l3 14l118 -168l-5 -22l-189 -169l3 14l134 169v2zM187 436l3 14l118 -168l-5 -22l-189 -169l3 14l134 169v2z" />
    <glyph glyph-name="onequarter" unicode="&#xbc;" horiz-adv-x="741" 
d="M209 292v-2h-120v2l29 27l69 323h-50l1 2l93 56h40l-82 -381zM216 0h-37l476 700h38zM666 2l-1 -2h-120v2l29 27l17 81h-177l1 3l243 297h69l-58 -272h24l28 26h3l-12 -54h-49l-17 -81zM644 358l-180 -220h133z" />
    <glyph glyph-name="onehalf" unicode="&#xbd;" horiz-adv-x="788" 
d="M209 292v-2h-120v2l29 27l69 323h-50l1 2l93 56h40l-82 -381zM216 0h-37l476 700h38zM739 77l-15 -77h-267l1 3l116 106q74 66 101.5 107.5t27.5 89.5q0 32 -20 51.5t-52 19.5q-68 0 -99 -85l-3 1q4 57 39.5 91.5t90.5 34.5q50 0 82 -30t32 -77q0 -51 -35 -93l-204 -168
h173l29 26h3z" />
    <glyph glyph-name="threequarters" unicode="&#xbe;" horiz-adv-x="741" 
d="M191 281q-72 0 -116 33l14 65h3l61 -68q16 -9 36 -9q43 0 70 25.5t27 64.5q0 45 -35.5 72t-95.5 28v3l61 37q19 0 34 -4q58 25 58 72q0 31 -19 49t-51 18q-60 0 -92 -75h-3q4 53 38 85t87 32q47 0 75 -23t28 -60q0 -42 -36 -70l-71 -31q42 -12 66 -41t24 -70
q0 -57 -46.5 -95t-116.5 -38zM216 0h-37l476 700h38zM667 2l-1 -2h-120v2l29 27l17 81h-177l1 3l243 297h69l-58 -272h24l28 26h3l-12 -54h-49l-17 -81zM645 358l-180 -220h133z" />
    <glyph glyph-name="questiondown" unicode="&#xbf;" horiz-adv-x="385" 
d="M240 519q45 0 45 -47q0 -29 -17.5 -43t-42.5 -14q-45 0 -45 47q0 28 18 42.5t42 14.5zM177 308l2 3q47 -15 47 -66q0 -32 -20 -64t-48 -60.5t-56.5 -57.5t-48.5 -65t-20 -73q0 -44 25 -70.5t66 -26.5q18 0 37 8l120 101h4l-21 -106q-57 -34 -135 -34q-77 0 -124 38
t-47 100q0 43 24 83.5t58 72.5t67.5 61t57.5 60t24 59q0 22 -12 37z" />
    <glyph glyph-name="Agrave" unicode="&#xc0;" horiz-adv-x="601" 
d="M340 875h70l31 -130h-5l-96 125v5zM534 4l-1 -4h-149l1 4l54 42l-13 159h-275l-91 -141l65 -60l-1 -4h-159l1 4l40 41l382 582l-9 69l1 4h81l57 -654zM424 238l-28 345l-223 -345h251z" />
    <glyph glyph-name="Aacute" unicode="&#xc1;" horiz-adv-x="601" 
d="M440 745h-5l83 130h79v-5zM534 4l-1 -4h-149l1 4l54 42l-13 159h-275l-91 -141l65 -60l-1 -4h-159l1 4l40 41l382 582l-9 69l1 4h81l57 -654zM424 238l-28 345l-223 -345h251z" />
    <glyph glyph-name="Acircumflex" unicode="&#xc2;" horiz-adv-x="601" 
d="M456 875h20l82 -128l-4 -2l-93 80h-4l-135 -80l-2 2zM534 4l-1 -4h-149l1 4l54 42l-13 159h-275l-91 -141l65 -60l-1 -4h-159l1 4l40 41l382 582l-9 69l1 4h81l57 -654zM424 238l-28 345l-223 -345h251z" />
    <glyph glyph-name="Atilde" unicode="&#xc3;" horiz-adv-x="601" 
d="M513 762q-24 0 -69.5 26t-68.5 26q-19 0 -38 -11.5t-57 -47.5l-3 3q47 61 70 80.5t46 19.5q24 0 69 -26t69 -26q16 0 36 11q17 9 59 48l2 -3q-44 -60 -68.5 -80t-46.5 -20zM534 4l-1 -4h-149l1 4l54 42l-13 159h-275l-91 -141l65 -60l-1 -4h-159l1 4l40 41l382 582l-9 69
l1 4h81l57 -654zM424 238l-28 345l-223 -345h251z" />
    <glyph glyph-name="Adieresis" unicode="&#xc4;" horiz-adv-x="601" 
d="M366 771q-15 0 -24 9t-9 24q0 18 13 31.5t32 13.5q34 0 34 -33q0 -18 -13 -31.5t-33 -13.5zM526 771q-15 0 -24.5 9t-9.5 24q0 18 13.5 31.5t32.5 13.5q15 0 24.5 -9t9.5 -24q0 -18 -13 -31.5t-33 -13.5zM534 4l-1 -4h-149l1 4l54 42l-13 159h-275l-91 -141l65 -60l-1 -4
h-159l1 4l40 41l382 582l-9 69l1 4h81l57 -654zM424 238l-28 345l-223 -345h251z" />
    <glyph glyph-name="Aring" unicode="&#xc5;" horiz-adv-x="601" 
d="M439 745q-40 0 -64.5 20.5t-24.5 54.5q0 42 36 71q37 30 89 30q41 0 65 -20.5t24 -54.5q0 -42 -36 -71.5t-89 -29.5zM448 765q28 0 47 24t19 55q0 26 -13 41.5t-35 15.5q-27 0 -46.5 -24.5t-19.5 -55.5q0 -25 13 -40.5t35 -15.5zM534 4l-1 -4h-149l1 4l54 42l-13 159
h-275l-91 -141l65 -60l-1 -4h-159l1 4l40 41l382 582l-9 69l1 4h81l57 -654zM424 238l-28 345l-223 -345h251z" />
    <glyph glyph-name="AE" unicode="&#xc6;" horiz-adv-x="903" 
d="M811 116l-24 -116h-467l1 4l51 42l35 166h-235l-112 -148l65 -60l-1 -4h-154l1 4l471 627l-9 65l1 4h463l-21 -101h-5l-101 69h-187l-59 -283h184l97 53h5l-29 -138h-5l-76 53h-185l-67 -321h221l138 84h4zM498 638h-3l-297 -392h217z" />
    <glyph glyph-name="Ccedilla" unicode="&#xc7;" horiz-adv-x="608" 
d="M325 -15h-15q-113 0 -180.5 79.5t-67.5 213.5q0 184 116.5 310.5t283.5 126.5q113 0 165 -44l-21 -97h-5l-113 100q-23 9 -58 9q-114 0 -200.5 -122.5t-86.5 -286.5q0 -117 49 -181.5t139 -64.5q151 0 242 178l4 -3q-21 -85 -77.5 -141.5t-136.5 -71.5l-45 -25
q51 -51 51 -96q0 -31 -26.5 -50t-71.5 -19t-77 13l9 45h6l72 -40q16 0 26 12t10 29q0 43 -54 91v3z" />
    <glyph glyph-name="Egrave" unicode="&#xc8;" horiz-adv-x="609" 
d="M298 875h70l31 -130h-5l-96 125v5zM518 116l-25 -116h-466l1 4l50 42l130 608l-39 42l1 4h433l-21 -101h-5l-101 69h-187l-60 -283h186l96 53h5l-29 -138h-5l-76 53h-185l-67 -321h221l139 84h4z" />
    <glyph glyph-name="Eacute" unicode="&#xc9;" horiz-adv-x="609" 
d="M398 745h-5l83 130h79v-5zM518 116l-25 -116h-466l1 4l50 42l130 608l-39 42l1 4h433l-21 -101h-5l-101 69h-187l-60 -283h186l96 53h5l-29 -138h-5l-76 53h-185l-67 -321h221l139 84h4z" />
    <glyph glyph-name="Ecircumflex" unicode="&#xca;" horiz-adv-x="609" 
d="M414 875h20l82 -128l-4 -2l-93 80h-4l-135 -80l-2 2zM518 116l-25 -116h-466l1 4l50 42l130 608l-39 42l1 4h433l-21 -101h-5l-101 69h-187l-60 -283h186l96 53h5l-29 -138h-5l-76 53h-185l-67 -321h221l139 84h4z" />
    <glyph glyph-name="Edieresis" unicode="&#xcb;" horiz-adv-x="609" 
d="M325 771q-15 0 -24 9t-9 24q0 18 13 31.5t32 13.5q34 0 34 -33q0 -18 -13 -31.5t-33 -13.5zM485 771q-15 0 -24.5 9t-9.5 24q0 18 13.5 31.5t32.5 13.5q15 0 24.5 -9t9.5 -24q0 -18 -13 -31.5t-33 -13.5zM518 116l-25 -116h-466l1 4l50 42l130 608l-39 42l1 4h433
l-21 -101h-5l-101 69h-187l-60 -283h186l96 53h5l-29 -138h-5l-76 53h-185l-67 -321h221l139 84h4z" />
    <glyph glyph-name="Igrave" unicode="&#xcc;" horiz-adv-x="322" 
d="M168 875h70l31 -130h-5l-96 125v5zM194 4l-1 -4h-166l1 4l50 42l130 608l-39 42l1 4h167l-1 -4l-50 -42l-130 -608z" />
    <glyph glyph-name="Iacute" unicode="&#xcd;" horiz-adv-x="322" 
d="M268 745h-5l83 130h79v-5zM194 4l-1 -4h-166l1 4l50 42l130 608l-39 42l1 4h167l-1 -4l-50 -42l-130 -608z" />
    <glyph glyph-name="Icircumflex" unicode="&#xce;" horiz-adv-x="322" 
d="M284 875h20l82 -128l-4 -2l-93 80h-4l-135 -80l-2 2zM194 4l-1 -4h-166l1 4l50 42l130 608l-39 42l1 4h167l-1 -4l-50 -42l-130 -608z" />
    <glyph glyph-name="Idieresis" unicode="&#xcf;" horiz-adv-x="322" 
d="M195 771q-15 0 -24 9t-9 24q0 18 13 31.5t32 13.5q34 0 34 -33q0 -18 -13 -31.5t-33 -13.5zM355 771q-15 0 -24.5 9t-9.5 24q0 18 13.5 31.5t32.5 13.5q15 0 24.5 -9t9.5 -24q0 -18 -13 -31.5t-33 -13.5zM194 4l-1 -4h-166l1 4l50 42l130 608l-39 42l1 4h167l-1 -4
l-50 -42l-130 -608z" />
    <glyph glyph-name="Eth" unicode="&#xd0;" horiz-adv-x="693" 
d="M142 343h-43l7 31h42l60 280l-39 42l1 4h255q108 -21 178.5 -106t70.5 -194q0 -177 -120 -288.5t-349 -111.5h-178l1 4l50 42zM389 374l-7 -31h-162l-66 -311h50q184 0 286.5 95t102.5 259q0 124 -84 203t-219 84l-64 -299h163z" />
    <glyph glyph-name="Ntilde" unicode="&#xd1;" horiz-adv-x="713" 
d="M539 762q-23 0 -69 26t-69 26q-19 0 -38 -11.5t-57 -47.5l-3 3q47 61 70 80.5t46 19.5q24 0 69 -26t69 -26q16 0 36 11q17 9 59 48l2 -3q-44 -60 -68.5 -80t-46.5 -20zM684 636l-136 -636h-19l-297 579l-109 -515l53 -60l-1 -4h-149l1 4l55 60l120 567l-44 65l1 4h98
l283 -550l103 486l-54 60l1 4h149l-1 -4z" />
    <glyph glyph-name="Ograve" unicode="&#xd2;" horiz-adv-x="686" 
d="M350 875h70l31 -130h-5l-96 125v5zM303 -15q-113 0 -177 76t-64 211q0 183 107 313t257 130q113 0 177 -76.5t64 -210.5q0 -183 -107 -313t-257 -130zM317 15q111 0 190 122.5t79 292.5q0 119 -46 187t-128 68q-111 0 -190.5 -122.5t-79.5 -292.5q0 -119 46.5 -187
t128.5 -68z" />
    <glyph glyph-name="Oacute" unicode="&#xd3;" horiz-adv-x="686" 
d="M450 745h-5l83 130h79v-5zM303 -15q-113 0 -177 76t-64 211q0 183 107 313t257 130q113 0 177 -76.5t64 -210.5q0 -183 -107 -313t-257 -130zM317 15q111 0 190 122.5t79 292.5q0 119 -46 187t-128 68q-111 0 -190.5 -122.5t-79.5 -292.5q0 -119 46.5 -187t128.5 -68z
" />
    <glyph glyph-name="Ocircumflex" unicode="&#xd4;" horiz-adv-x="686" 
d="M466 875h20l82 -128l-4 -2l-93 80h-4l-135 -80l-2 2zM303 -15q-113 0 -177 76t-64 211q0 183 107 313t257 130q113 0 177 -76.5t64 -210.5q0 -183 -107 -313t-257 -130zM317 15q111 0 190 122.5t79 292.5q0 119 -46 187t-128 68q-111 0 -190.5 -122.5t-79.5 -292.5
q0 -119 46.5 -187t128.5 -68z" />
    <glyph glyph-name="Otilde" unicode="&#xd5;" horiz-adv-x="686" 
d="M523 762q-24 0 -69.5 26t-68.5 26q-19 0 -38 -11.5t-57 -47.5l-3 3q47 61 70 80.5t46 19.5q24 0 69 -26t69 -26q16 0 36 11q17 9 59 48l2 -3q-44 -60 -68.5 -80t-46.5 -20zM303 -15q-113 0 -177 76t-64 211q0 183 107 313t257 130q113 0 177 -76.5t64 -210.5
q0 -183 -107 -313t-257 -130zM317 15q111 0 190 122.5t79 292.5q0 119 -46 187t-128 68q-111 0 -190.5 -122.5t-79.5 -292.5q0 -119 46.5 -187t128.5 -68z" />
    <glyph glyph-name="Odieresis" unicode="&#xd6;" horiz-adv-x="686" 
d="M375 771q-15 0 -24 9t-9 24q0 18 13 31.5t32 13.5q34 0 34 -33q0 -18 -13 -31.5t-33 -13.5zM535 771q-15 0 -24.5 9t-9.5 24q0 18 13.5 31.5t32.5 13.5q15 0 24.5 -9t9.5 -24q0 -18 -13 -31.5t-33 -13.5zM303 -15q-113 0 -177 76t-64 211q0 183 107 313t257 130
q113 0 177 -76.5t64 -210.5q0 -183 -107 -313t-257 -130zM317 15q111 0 190 122.5t79 292.5q0 119 -46 187t-128 68q-111 0 -190.5 -122.5t-79.5 -292.5q0 -119 46.5 -187t128.5 -68z" />
    <glyph glyph-name="multiply" unicode="&#xd7;" horiz-adv-x="395" 
d="M202 246l-142 -142l-26 25l142 142l-142 142l26 25l142 -142l142 142l26 -25l-142 -142l142 -142l-26 -25z" />
    <glyph glyph-name="Oslash" unicode="&#xd8;" horiz-adv-x="686" 
d="M145 42l-71 -91l-22 19l73 93q-63 77 -63 209q0 183 107 313t257 130q98 0 159 -58l67 86l24 -19l-70 -90q61 -74 61 -206q0 -183 -107 -313t-257 -130q-97 0 -158 57zM142 270q0 -87 26 -150l378 487q-44 78 -134 78q-111 0 -190.5 -122.5t-79.5 -292.5zM317 15
q111 0 190 122.5t79 292.5q0 84 -25 147l-378 -486q46 -76 134 -76z" />
    <glyph glyph-name="Ugrave" unicode="&#xd9;" horiz-adv-x="692" 
d="M364 875h70l31 -130h-5l-96 125v5zM329 -15q-115 0 -175.5 79t-36.5 195l85 395l-39 42l1 4h167l-1 -4l-49 -42l-83 -383q-23 -109 19.5 -170.5t139.5 -61.5q78 0 131 42t69 117l92 438l-53 60l1 4h145l-1 -4l-55 -60l-91 -435q-22 -105 -90 -160.5t-176 -55.5z" />
    <glyph glyph-name="Uacute" unicode="&#xda;" horiz-adv-x="692" 
d="M464 745h-5l83 130h79v-5zM329 -15q-115 0 -175.5 79t-36.5 195l85 395l-39 42l1 4h167l-1 -4l-49 -42l-83 -383q-23 -109 19.5 -170.5t139.5 -61.5q78 0 131 42t69 117l92 438l-53 60l1 4h145l-1 -4l-55 -60l-91 -435q-22 -105 -90 -160.5t-176 -55.5z" />
    <glyph glyph-name="Ucircumflex" unicode="&#xdb;" horiz-adv-x="692" 
d="M480 875h20l82 -128l-4 -2l-93 80h-4l-135 -80l-2 2zM329 -15q-115 0 -175.5 79t-36.5 195l85 395l-39 42l1 4h167l-1 -4l-49 -42l-83 -383q-23 -109 19.5 -170.5t139.5 -61.5q78 0 131 42t69 117l92 438l-53 60l1 4h145l-1 -4l-55 -60l-91 -435q-22 -105 -90 -160.5
t-176 -55.5z" />
    <glyph glyph-name="Udieresis" unicode="&#xdc;" horiz-adv-x="692" 
d="M391 771q-15 0 -24 9t-9 24q0 18 13 31.5t32 13.5q34 0 34 -33q0 -18 -13 -31.5t-33 -13.5zM551 771q-15 0 -24.5 9t-9.5 24q0 18 13.5 31.5t32.5 13.5q15 0 24.5 -9t9.5 -24q0 -18 -13 -31.5t-33 -13.5zM329 -15q-115 0 -175.5 79t-36.5 195l85 395l-39 42l1 4h167
l-1 -4l-49 -42l-83 -383q-23 -109 19.5 -170.5t139.5 -61.5q78 0 131 42t69 117l92 438l-53 60l1 4h145l-1 -4l-55 -60l-91 -435q-22 -105 -90 -160.5t-176 -55.5z" />
    <glyph glyph-name="Yacute" unicode="&#xdd;" horiz-adv-x="592" 
d="M403 745h-5l83 130h79v-5zM330 4l-1 -4h-166l1 4l49 42l61 284l-130 325l-23 42l1 3h156l-1 -4l-50 -42l115 -292l218 274l-42 60l1 4h139l-1 -4l-52 -60l-253 -309l-60 -281z" />
    <glyph glyph-name="Thorn" unicode="&#xde;" horiz-adv-x="561" 
d="M194 4l-1 -4h-166l1 4l50 42l130 608l-39 42l1 4h167l-1 -4l-50 -42l-18 -84h129q69 -13 110 -62.5t41 -120.5q0 -96 -71.5 -161.5t-175.5 -65.5q-27 0 -43 4l-22 16v4q109 1 174.5 54.5t65.5 140.5q0 74 -48.5 117.5t-133.5 43.5h-32l-106 -494z" />
    <glyph glyph-name="germandbls" unicode="&#xdf;" horiz-adv-x="500" 
d="M310 -15q-63 0 -103 29l5 83h4l92 -88q45 1 72 27t27 69q0 31 -15.5 64.5t-34 59t-34 63t-15.5 75.5q0 69 44.5 126t156.5 145l2 7l-122 101q-135 -7 -172 -257l-61 -421q-22 -140 -61.5 -204t-102.5 -64q-29 0 -45 11.5t-16 28.5q0 13 9 23.5t20 10.5l88 -32
q22 23 48 231l50 396h-87l7 27h84q18 122 86 198t161 76q52 0 94.5 -26t55.5 -67l-9 -40q-61 -53 -84.5 -74t-49.5 -52t-33 -54.5t-7 -56.5t15.5 -68.5t34 -62t34 -63t15.5 -71.5q0 -65 -43 -107.5t-110 -42.5z" />
    <glyph glyph-name="agrave" unicode="&#xe0;" horiz-adv-x="498" 
d="M243 736h69l35 -180h-4l-100 175v5zM95 -15q-72 0 -72 122q0 99 46 193t119 152.5t149 58.5q53 0 85 -23l67 43l3 -2l-46 -128l-76 -359h3l81 65l3 -4q-28 -54 -62.5 -86t-65.5 -32q-18 0 -27 13.5t-5 32.5l49 217h-4q-50 -109 -121.5 -186t-125.5 -77zM92 128
q0 -91 42 -91q33 0 84.5 57t96 140.5t59.5 153.5l13 63l-102 30q-77 -31 -135 -138.5t-58 -214.5z" />
    <glyph glyph-name="aacute" unicode="&#xe1;" horiz-adv-x="498" 
d="M345 556h-4l106 180h79v-5zM95 -15q-72 0 -72 122q0 99 46 193t119 152.5t149 58.5q53 0 85 -23l67 43l3 -2l-46 -128l-76 -359h3l81 65l3 -4q-28 -54 -62.5 -86t-65.5 -32q-18 0 -27 13.5t-5 32.5l49 217h-4q-50 -109 -121.5 -186t-125.5 -77zM92 128q0 -91 42 -91
q33 0 84.5 57t96 140.5t59.5 153.5l13 63l-102 30q-77 -31 -135 -138.5t-58 -214.5z" />
    <glyph glyph-name="acircumflex" unicode="&#xe2;" horiz-adv-x="498" 
d="M374 745h19l71 -178l-3 -2l-86 112h-4l-142 -112l-3 2zM95 -15q-72 0 -72 122q0 99 46 193t119 152.5t149 58.5q53 0 85 -23l67 43l3 -2l-46 -128l-76 -359h3l81 65l3 -4q-28 -54 -62.5 -86t-65.5 -32q-18 0 -27 13.5t-5 32.5l49 217h-4q-50 -109 -121.5 -186t-125.5 -77
zM92 128q0 -91 42 -91q33 0 84.5 57t96 140.5t59.5 153.5l13 63l-102 30q-77 -31 -135 -138.5t-58 -214.5z" />
    <glyph glyph-name="atilde" unicode="&#xe3;" horiz-adv-x="498" 
d="M424 606q-23 0 -69 27t-69 27q-17 0 -37 -11q-16 -9 -59 -50l-3 3q45 64 69 82q26 20 48 20q23 0 69 -27t69 -27q16 0 35 11q16 9 59 50l3 -3q-42 -59 -67 -80.5t-48 -21.5zM95 -15q-72 0 -72 122q0 99 46 193t119 152.5t149 58.5q53 0 85 -23l67 43l3 -2l-46 -128
l-76 -359h3l81 65l3 -4q-28 -54 -62.5 -86t-65.5 -32q-18 0 -27 13.5t-5 32.5l49 217h-4q-50 -109 -121.5 -186t-125.5 -77zM92 128q0 -91 42 -91q33 0 84.5 57t96 140.5t59.5 153.5l13 63l-102 30q-77 -31 -135 -138.5t-58 -214.5z" />
    <glyph glyph-name="adieresis" unicode="&#xe4;" horiz-adv-x="498" 
d="M277 616q-15 0 -24 9t-9 24q0 18 13 31.5t32 13.5q34 0 34 -33q0 -18 -13 -31.5t-33 -13.5zM437 616q-15 0 -24.5 9t-9.5 24q0 18 13.5 31.5t32.5 13.5q15 0 24.5 -9t9.5 -24q0 -18 -13 -31.5t-33 -13.5zM95 -15q-72 0 -72 122q0 99 46 193t119 152.5t149 58.5
q53 0 85 -23l67 43l3 -2l-46 -128l-76 -359h3l81 65l3 -4q-28 -54 -62.5 -86t-65.5 -32q-18 0 -27 13.5t-5 32.5l49 217h-4q-50 -109 -121.5 -186t-125.5 -77zM92 128q0 -91 42 -91q33 0 84.5 57t96 140.5t59.5 153.5l13 63l-102 30q-77 -31 -135 -138.5t-58 -214.5z" />
    <glyph glyph-name="aring" unicode="&#xe5;" horiz-adv-x="498" 
d="M345 569q-40 0 -64.5 20.5t-24.5 54.5q0 42 36 71q38 30 89 30q41 0 65 -20.5t24 -54.5q0 -42 -36 -71.5t-89 -29.5zM354 589q28 0 47 24t19 55q0 26 -13 41.5t-35 15.5q-27 0 -46.5 -24.5t-19.5 -55.5q0 -25 13 -40.5t35 -15.5zM95 -15q-72 0 -72 122q0 99 46 193
t119 152.5t149 58.5q53 0 85 -23l67 43l3 -2l-46 -128l-76 -359h3l81 65l3 -4q-28 -54 -62.5 -86t-65.5 -32q-18 0 -27 13.5t-5 32.5l49 217h-4q-50 -109 -121.5 -186t-125.5 -77zM92 128q0 -91 42 -91q33 0 84.5 57t96 140.5t59.5 153.5l13 63l-102 30q-77 -31 -135 -138.5
t-58 -214.5z" />
    <glyph glyph-name="ae" unicode="&#xe6;" horiz-adv-x="691" 
d="M95 -15q-72 0 -72 123q0 100 46 194t121 151.5t155 57.5q44 0 78.5 -16t44.5 -42q64 58 129 58q39 0 62 -21t23 -56q0 -122 -281 -190q-9 -42 -9 -84q0 -121 76 -121q88 0 178 160l4 -2q-29 -102 -85 -157t-123 -55q-57 0 -87.5 37.5t-30.5 109.5q0 55 17 114
q-50 -109 -121 -185t-125 -76zM92 128q0 -91 42 -91q37 0 96.5 71t96.5 152q48 105 111 165v3l-142 55q-80 -32 -142 -139.5t-62 -215.5zM572 482q-47 0 -95 -64t-71 -152q112 30 163.5 67.5t51.5 88.5q0 28 -13 44t-36 16z" />
    <glyph glyph-name="ccedilla" unicode="&#xe7;" horiz-adv-x="371" 
d="M157 -15h-7q-56 0 -87 39.5t-31 112.5q0 86 39.5 173.5t102 144t124.5 56.5q38 0 60.5 -11.5t22.5 -31.5q0 -13 -8 -24t-21 -14l-98 49q-61 -24 -107.5 -121t-46.5 -198q0 -121 73 -121q75 0 158 132l4 -2q-47 -141 -131 -174l-54 -30q51 -51 51 -96q0 -31 -26.5 -50
t-71.5 -19t-77 13l9 45h6l72 -40q16 0 26 12t10 29q0 43 -54 91v3z" />
    <glyph glyph-name="egrave" unicode="&#xe8;" horiz-adv-x="390" 
d="M205 736h69l35 -180h-4l-100 175v5zM141 -15q-57 0 -87.5 37.5t-30.5 109.5q0 89 40.5 177.5t104.5 145t128 56.5q39 0 62 -21t23 -56q0 -122 -281 -190q-9 -42 -9 -84q0 -121 76 -121q88 0 178 160l4 -2q-29 -102 -85 -157t-123 -55zM271 482q-47 0 -95 -64t-71 -152
q112 30 163.5 67.5t51.5 88.5q0 28 -13 44t-36 16z" />
    <glyph glyph-name="eacute" unicode="&#xe9;" horiz-adv-x="390" 
d="M307 556h-4l106 180h79v-5zM141 -15q-57 0 -87.5 37.5t-30.5 109.5q0 89 40.5 177.5t104.5 145t128 56.5q39 0 62 -21t23 -56q0 -122 -281 -190q-9 -42 -9 -84q0 -121 76 -121q88 0 178 160l4 -2q-29 -102 -85 -157t-123 -55zM271 482q-47 0 -95 -64t-71 -152
q112 30 163.5 67.5t51.5 88.5q0 28 -13 44t-36 16z" />
    <glyph glyph-name="ecircumflex" unicode="&#xea;" horiz-adv-x="390" 
d="M335 745h19l71 -178l-3 -2l-86 112h-4l-142 -112l-3 2zM141 -15q-57 0 -87.5 37.5t-30.5 109.5q0 89 40.5 177.5t104.5 145t128 56.5q39 0 62 -21t23 -56q0 -122 -281 -190q-9 -42 -9 -84q0 -121 76 -121q88 0 178 160l4 -2q-29 -102 -85 -157t-123 -55zM271 482
q-47 0 -95 -64t-71 -152q112 30 163.5 67.5t51.5 88.5q0 28 -13 44t-36 16z" />
    <glyph glyph-name="edieresis" unicode="&#xeb;" horiz-adv-x="390" 
d="M238 616q-15 0 -24 9t-9 24q0 18 13 31.5t32 13.5q34 0 34 -33q0 -18 -13 -31.5t-33 -13.5zM398 616q-15 0 -24.5 9t-9.5 24q0 18 13.5 31.5t32.5 13.5q15 0 24.5 -9t9.5 -24q0 -18 -13 -31.5t-33 -13.5zM141 -15q-57 0 -87.5 37.5t-30.5 109.5q0 89 40.5 177.5
t104.5 145t128 56.5q39 0 62 -21t23 -56q0 -122 -281 -190q-9 -42 -9 -84q0 -121 76 -121q88 0 178 160l4 -2q-29 -102 -85 -157t-123 -55zM271 482q-47 0 -95 -64t-71 -152q112 30 163.5 67.5t51.5 88.5q0 28 -13 44t-36 16z" />
    <glyph glyph-name="igrave" unicode="&#xec;" horiz-adv-x="274" 
d="M109 736h69l35 -180h-4l-100 175v5zM92 -15q-18 0 -27 12t-5 29l87 413h-4l-81 -66l-2 5q33 61 65.5 89.5t72.5 28.5h31l-95 -454h3l80 65l4 -4q-28 -53 -63 -85.5t-66 -32.5z" />
    <glyph glyph-name="iacute" unicode="&#xed;" horiz-adv-x="274" 
d="M212 556h-4l106 180h79v-5zM92 -15q-18 0 -27 12t-5 29l87 413h-4l-81 -66l-2 5q33 61 65.5 89.5t72.5 28.5h31l-95 -454h3l80 65l4 -4q-28 -53 -63 -85.5t-66 -32.5z" />
    <glyph glyph-name="icircumflex" unicode="&#xee;" horiz-adv-x="274" 
d="M240 745h19l71 -178l-3 -2l-86 112h-4l-142 -112l-3 2zM92 -15q-18 0 -27 12t-5 29l87 413h-4l-81 -66l-2 5q33 61 65.5 89.5t72.5 28.5h31l-95 -454h3l80 65l4 -4q-28 -53 -63 -85.5t-66 -32.5z" />
    <glyph glyph-name="idieresis" unicode="&#xef;" horiz-adv-x="274" 
d="M143 616q-15 0 -24 9t-9 24q0 18 13 31.5t32 13.5q34 0 34 -33q0 -18 -13 -31.5t-33 -13.5zM303 616q-15 0 -24.5 9t-9.5 24q0 18 13.5 31.5t32.5 13.5q15 0 24.5 -9t9.5 -24q0 -18 -13 -31.5t-33 -13.5zM92 -15q-18 0 -27 12t-5 29l87 413h-4l-81 -66l-2 5
q33 61 65.5 89.5t72.5 28.5h31l-95 -454h3l80 65l4 -4q-28 -53 -63 -85.5t-66 -32.5z" />
    <glyph glyph-name="eth" unicode="&#xf0;" horiz-adv-x="436" 
d="M158 -15q-64 0 -99.5 47.5t-35.5 131.5q0 88 35.5 168.5t93.5 129.5t122 49q32 0 52 -17l2 3q-17 55 -59 113l-135 -50l-9 23l128 48q-52 65 -105 99l-57 15l1 5l111 19q70 -51 115 -114l84 32l10 -24l-79 -29q78 -118 78 -267q0 -156 -76.5 -269t-176.5 -113zM164 9
q43 0 85 52t68 133.5t26 164.5q0 127 -69 127q-65 0 -122 -111.5t-57 -238.5t69 -127z" />
    <glyph glyph-name="ntilde" unicode="&#xf1;" horiz-adv-x="533" 
d="M428 606q-23 0 -69 27t-69 27q-17 0 -37 -11q-16 -9 -59 -50l-3 3q45 64 69 82q26 20 48 20q23 0 69 -27t69 -27q16 0 35 11q16 9 59 50l3 -3q-42 -59 -67 -80.5t-48 -21.5zM356 -15q-18 0 -26.5 11.5t-5.5 29.5l79 372q13 60 -33 60q-50 0 -116 -78t-84 -162l-48 -218
h-70l95 440h-4l-81 -66l-4 4q33 61 66 89.5t73 28.5h28l-37 -174h3q104 189 214 189q44 0 61.5 -30t6.5 -82l-75 -357h3l80 65l4 -4q-28 -53 -63 -85.5t-66 -32.5z" />
    <glyph glyph-name="ograve" unicode="&#xf2;" horiz-adv-x="438" 
d="M190 736h69l35 -180h-4l-100 175v5zM160 -15q-64 0 -100.5 47.5t-36.5 131.5q0 135 78 241t178 106q64 0 100 -47.5t36 -131.5q0 -135 -78 -241t-177 -106zM164 9q43 0 85 52t68 133.5t26 164.5q0 127 -69 127q-65 0 -122 -111.5t-57 -238.5t69 -127z" />
    <glyph glyph-name="oacute" unicode="&#xf3;" horiz-adv-x="438" 
d="M292 556h-4l106 180h79v-5zM160 -15q-64 0 -100.5 47.5t-36.5 131.5q0 135 78 241t178 106q64 0 100 -47.5t36 -131.5q0 -135 -78 -241t-177 -106zM164 9q43 0 85 52t68 133.5t26 164.5q0 127 -69 127q-65 0 -122 -111.5t-57 -238.5t69 -127z" />
    <glyph glyph-name="ocircumflex" unicode="&#xf4;" horiz-adv-x="438" 
d="M321 745h19l71 -178l-3 -2l-86 112h-4l-142 -112l-3 2zM160 -15q-64 0 -100.5 47.5t-36.5 131.5q0 135 78 241t178 106q64 0 100 -47.5t36 -131.5q0 -135 -78 -241t-177 -106zM164 9q43 0 85 52t68 133.5t26 164.5q0 127 -69 127q-65 0 -122 -111.5t-57 -238.5t69 -127z
" />
    <glyph glyph-name="otilde" unicode="&#xf5;" horiz-adv-x="438" 
d="M371 606q-23 0 -69 27t-69 27q-17 0 -37 -11q-16 -9 -59 -50l-3 3q45 64 69 82q26 20 48 20q23 0 69 -27t69 -27q16 0 35 11q16 9 59 50l3 -3q-42 -59 -67 -80.5t-48 -21.5zM160 -15q-64 0 -100.5 47.5t-36.5 131.5q0 135 78 241t178 106q64 0 100 -47.5t36 -131.5
q0 -135 -78 -241t-177 -106zM164 9q43 0 85 52t68 133.5t26 164.5q0 127 -69 127q-65 0 -122 -111.5t-57 -238.5t69 -127z" />
    <glyph glyph-name="odieresis" unicode="&#xf6;" horiz-adv-x="438" 
d="M224 616q-15 0 -24 9t-9 24q0 18 13 31.5t32 13.5q34 0 34 -33q0 -18 -13 -31.5t-33 -13.5zM384 616q-15 0 -24.5 9t-9.5 24q0 18 13.5 31.5t32.5 13.5q15 0 24.5 -9t9.5 -24q0 -18 -13 -31.5t-33 -13.5zM160 -15q-64 0 -100.5 47.5t-36.5 131.5q0 135 78 241t178 106
q64 0 100 -47.5t36 -131.5q0 -135 -78 -241t-177 -106zM164 9q43 0 85 52t68 133.5t26 164.5q0 127 -69 127q-65 0 -122 -111.5t-57 -238.5t69 -127z" />
    <glyph glyph-name="divide" unicode="&#xf7;" horiz-adv-x="418" 
d="M239 374q-19 0 -31 12t-12 33q0 28 17 41.5t40 13.5q43 0 43 -45q0 -26 -17 -40.5t-40 -14.5zM402 253h-377v37h377v-37zM176 74q-19 0 -31 12t-12 33q0 28 17 41.5t40 13.5q43 0 43 -45q0 -26 -17 -40.5t-40 -14.5z" />
    <glyph glyph-name="oslash" unicode="&#xf8;" horiz-adv-x="438" 
d="M83 9l-38 -58l-22 15l40 62q-40 46 -40 136q0 135 78 241t178 106q47 0 82 -29l41 63l23 -15l-45 -68q35 -47 35 -130q0 -135 -78 -241t-177 -106q-45 0 -77 24zM95 136q0 -33 4 -53l233 355q-16 48 -58 48q-65 0 -122 -111.5t-57 -238.5zM164 9q43 0 85 52t68 133.5
t26 164.5q0 18 -2 42l-232 -352q18 -40 55 -40z" />
    <glyph glyph-name="ugrave" unicode="&#xf9;" horiz-adv-x="533" 
d="M249 736h69l35 -180h-4l-100 175v5zM361 -15q-18 0 -27.5 11.5t-5.5 29.5l36 149h-4q-104 -190 -214 -190q-42 0 -60.5 30t-7.5 82l73 343h-5l-81 -66l-3 4q64 118 138 118h32l-83 -398q-6 -28 2.5 -44t30.5 -16q51 0 116.5 77.5t83.5 161.5l47 219h71l-99 -454h4l80 65
l4 -4q-28 -54 -62.5 -86t-65.5 -32z" />
    <glyph glyph-name="uacute" unicode="&#xfa;" horiz-adv-x="533" 
d="M351 556h-4l106 180h79v-5zM361 -15q-18 0 -27.5 11.5t-5.5 29.5l36 149h-4q-104 -190 -214 -190q-42 0 -60.5 30t-7.5 82l73 343h-5l-81 -66l-3 4q64 118 138 118h32l-83 -398q-6 -28 2.5 -44t30.5 -16q51 0 116.5 77.5t83.5 161.5l47 219h71l-99 -454h4l80 65l4 -4
q-28 -54 -62.5 -86t-65.5 -32z" />
    <glyph glyph-name="ucircumflex" unicode="&#xfb;" horiz-adv-x="533" 
d="M379 745h19l71 -178l-3 -2l-86 112h-4l-142 -112l-3 2zM361 -15q-18 0 -27.5 11.5t-5.5 29.5l36 149h-4q-104 -190 -214 -190q-42 0 -60.5 30t-7.5 82l73 343h-5l-81 -66l-3 4q64 118 138 118h32l-83 -398q-6 -28 2.5 -44t30.5 -16q51 0 116.5 77.5t83.5 161.5l47 219h71
l-99 -454h4l80 65l4 -4q-28 -54 -62.5 -86t-65.5 -32z" />
    <glyph glyph-name="udieresis" unicode="&#xfc;" horiz-adv-x="533" 
d="M283 616q-15 0 -24 9t-9 24q0 18 13 31.5t32 13.5q34 0 34 -33q0 -18 -13 -31.5t-33 -13.5zM443 616q-15 0 -24.5 9t-9.5 24q0 18 13.5 31.5t32.5 13.5q15 0 24.5 -9t9.5 -24q0 -18 -13 -31.5t-33 -13.5zM361 -15q-18 0 -27.5 11.5t-5.5 29.5l36 149h-4
q-104 -190 -214 -190q-42 0 -60.5 30t-7.5 82l73 343h-5l-81 -66l-3 4q64 118 138 118h32l-83 -398q-6 -28 2.5 -44t30.5 -16q51 0 116.5 77.5t83.5 161.5l47 219h71l-99 -454h4l80 65l4 -4q-28 -54 -62.5 -86t-65.5 -32z" />
    <glyph glyph-name="yacute" unicode="&#xfd;" horiz-adv-x="439" 
d="M287 556h-4l106 180h79v-5zM-18 -200q-32 0 -52 14.5t-20 40.5t24 33l110 -45q23 8 60.5 44t62.5 76l-53 487h-4l-79 -24l-3 4q30 33 69.5 55t71.5 22h9l47 -462l87 155q72 126 72 199q0 37 -22.5 56.5t-63.5 19.5h-8l-2 4q39 33 86 33q34 0 53 -20.5t19 -55.5t-24.5 -89
t-83.5 -152l-111 -189q-125 -206 -245 -206z" />
    <glyph glyph-name="thorn" unicode="&#xfe;" horiz-adv-x="469" 
d="M159 -15q-27 0 -49 6l-31 -147l48 -39l-1 -5h-169l1 5l51 39l122 582q-66 -42 -131 -122l-3 3q46 99 142 159l49 233l-69 23l1 5l145 43h8l-56 -269q33 10 67 10q73 0 117.5 -46.5t44.5 -124.5q0 -79 -44 -162.5t-111.5 -138t-131.5 -54.5zM253 465q-23 0 -45 -6
l-88 -419l93 -21q64 30 114 120.5t50 179.5q0 68 -33.5 107t-90.5 39z" />
    <glyph glyph-name="ydieresis" unicode="&#xff;" horiz-adv-x="439" 
d="M219 616q-15 0 -24 9t-9 24q0 18 13 31.5t32 13.5q34 0 34 -33q0 -18 -13 -31.5t-33 -13.5zM379 616q-15 0 -24.5 9t-9.5 24q0 18 13.5 31.5t32.5 13.5q15 0 24.5 -9t9.5 -24q0 -18 -13 -31.5t-33 -13.5zM-18 -200q-32 0 -52 14.5t-20 40.5t24 33l110 -45q23 8 60.5 44
t62.5 76l-53 487h-4l-79 -24l-3 4q30 33 69.5 55t71.5 22h9l47 -462l87 155q72 126 72 199q0 37 -22.5 56.5t-63.5 19.5h-8l-2 4q39 33 86 33q34 0 53 -20.5t19 -55.5t-24.5 -89t-83.5 -152l-111 -189q-125 -206 -245 -206z" />
    <glyph glyph-name="Amacron" unicode="&#x100;" horiz-adv-x="601" 
d="M585 795h-254l7 30h254zM534 4l-1 -4h-149l1 4l54 42l-13 159h-275l-91 -141l65 -60l-1 -4h-159l1 4l40 41l382 582l-9 69l1 4h81l57 -654zM424 238l-28 345l-223 -345h251z" />
    <glyph glyph-name="amacron" unicode="&#x101;" horiz-adv-x="498" 
d="M488 640h-254l7 30h254zM95 -15q-72 0 -72 122q0 99 46 193t119 152.5t149 58.5q53 0 85 -23l67 43l3 -2l-46 -128l-76 -359h3l81 65l3 -4q-28 -54 -62.5 -86t-65.5 -32q-18 0 -27 13.5t-5 32.5l49 217h-4q-50 -109 -121.5 -186t-125.5 -77zM92 128q0 -91 42 -91
q33 0 84.5 57t96 140.5t59.5 153.5l13 63l-102 30q-77 -31 -135 -138.5t-58 -214.5z" />
    <glyph glyph-name="Abreve" unicode="&#x102;" horiz-adv-x="601" 
d="M431 745q-52 0 -81.5 25.5t-29.5 69.5q0 19 4 35h4q6 -90 107 -90t145 90h4q-13 -62 -53 -96t-100 -34zM534 4l-1 -4h-149l1 4l54 42l-13 159h-275l-91 -141l65 -60l-1 -4h-159l1 4l40 41l382 582l-9 69l1 4h81l57 -654zM424 238l-28 345l-223 -345h251z" />
    <glyph glyph-name="abreve" unicode="&#x103;" horiz-adv-x="498" 
d="M354 583q-51 0 -80.5 28t-29.5 74q0 21 6 46h4q3 -107 105 -107q99 0 147 107h4q-15 -72 -55.5 -110t-100.5 -38zM95 -15q-72 0 -72 122q0 99 46 193t119 152.5t149 58.5q53 0 85 -23l67 43l3 -2l-46 -128l-76 -359h3l81 65l3 -4q-28 -54 -62.5 -86t-65.5 -32
q-18 0 -27 13.5t-5 32.5l49 217h-4q-50 -109 -121.5 -186t-125.5 -77zM92 128q0 -91 42 -91q33 0 84.5 57t96 140.5t59.5 153.5l13 63l-102 30q-77 -31 -135 -138.5t-58 -214.5z" />
    <glyph glyph-name="Aogonek" unicode="&#x104;" horiz-adv-x="601" 
d="M480 -149l3 -3q-27 -48 -81 -48q-34 0 -57.5 18.5t-23.5 46.5q0 25 13 44l108 99l-16 197h-275l-91 -141l65 -60l-1 -4h-159l1 4l40 41l382 582l-9 69l1 4h81l57 -654l16 -42l-1 -4h-75q-47 -45 -63.5 -70t-16.5 -48q0 -24 13.5 -37.5t37.5 -13.5q25 0 51 20zM424 238
l-28 345l-223 -345h251z" />
    <glyph glyph-name="aogonek" unicode="&#x105;" horiz-adv-x="498" 
d="M95 -15q-72 0 -72 122q0 99 46 193t119 152.5t149 58.5q53 0 85 -23l67 43l3 -2l-46 -128l-76 -359h3l81 65l3 -4q-36 -68 -79 -99q-49 -49 -66.5 -73.5t-17.5 -48.5t13.5 -37.5t37.5 -13.5q25 0 51 20l3 -3q-27 -48 -81 -48q-34 0 -57.5 18.5t-23.5 46.5q0 25 13 44
l83 76h-4q-18 0 -27 13.5t-5 32.5l49 217h-4q-50 -109 -121.5 -186t-125.5 -77zM92 128q0 -91 42 -91q33 0 84.5 57t96 140.5t59.5 153.5l13 63l-102 30q-77 -31 -135 -138.5t-58 -214.5z" />
    <glyph glyph-name="Cacute" unicode="&#x106;" horiz-adv-x="608" 
d="M427 745h-5l83 130h79v-5zM310 -15q-113 0 -180.5 79.5t-67.5 213.5q0 184 116.5 310.5t283.5 126.5q113 0 165 -44l-21 -97h-5l-113 100q-23 9 -58 9q-114 0 -200.5 -122.5t-86.5 -286.5q0 -117 49 -181.5t139 -64.5q151 0 242 178l4 -3q-24 -99 -96 -158.5t-171 -59.5z
" />
    <glyph glyph-name="cacute" unicode="&#x107;" horiz-adv-x="362" 
d="M294 556h-4l106 180h79v-5zM141 -15q-56 0 -87 39.5t-31 112.5q0 86 39.5 173.5t102 144t124.5 56.5q38 0 60.5 -11.5t22.5 -31.5q0 -13 -8 -24t-21 -14l-98 49q-61 -24 -107.5 -121t-46.5 -198q0 -121 73 -121q76 0 158 132l4 -2q-60 -184 -185 -184z" />
    <glyph glyph-name="Ccircumflex" unicode="&#x108;" horiz-adv-x="608" 
d="M443 875h20l82 -128l-4 -2l-93 80h-4l-135 -80l-2 2zM310 -15q-113 0 -180.5 79.5t-67.5 213.5q0 184 116.5 310.5t283.5 126.5q113 0 165 -44l-21 -97h-5l-113 100q-23 9 -58 9q-114 0 -200.5 -122.5t-86.5 -286.5q0 -117 49 -181.5t139 -64.5q151 0 242 178l4 -3
q-24 -99 -96 -158.5t-171 -59.5z" />
    <glyph glyph-name="ccircumflex" unicode="&#x109;" horiz-adv-x="362" 
d="M323 745h19l71 -178l-3 -2l-86 112h-4l-142 -112l-3 2zM141 -15q-56 0 -87 39.5t-31 112.5q0 86 39.5 173.5t102 144t124.5 56.5q38 0 60.5 -11.5t22.5 -31.5q0 -13 -8 -24t-21 -14l-98 49q-61 -24 -107.5 -121t-46.5 -198q0 -121 73 -121q76 0 158 132l4 -2
q-60 -184 -185 -184z" />
    <glyph glyph-name="Cdotaccent" unicode="&#x10a;" horiz-adv-x="608" 
d="M432 761q-19 0 -30 11t-11 30q0 23 16.5 39t38.5 16q19 0 30.5 -11t11.5 -30q0 -22 -16.5 -38.5t-39.5 -16.5zM310 -15q-113 0 -180.5 79.5t-67.5 213.5q0 184 116.5 310.5t283.5 126.5q113 0 165 -44l-21 -97h-5l-113 100q-23 9 -58 9q-114 0 -200.5 -122.5
t-86.5 -286.5q0 -117 49 -181.5t139 -64.5q151 0 242 178l4 -3q-24 -99 -96 -158.5t-171 -59.5z" />
    <glyph glyph-name="cdotaccent" unicode="&#x10b;" horiz-adv-x="362" 
d="M305 607q-19 0 -30 11t-11 30q0 23 16.5 39t38.5 16q19 0 30.5 -11t11.5 -30q0 -22 -16.5 -38.5t-39.5 -16.5zM141 -15q-56 0 -87 39.5t-31 112.5q0 86 39.5 173.5t102 144t124.5 56.5q38 0 60.5 -11.5t22.5 -31.5q0 -13 -8 -24t-21 -14l-98 49q-61 -24 -107.5 -121
t-46.5 -198q0 -121 73 -121q76 0 158 132l4 -2q-60 -184 -185 -184z" />
    <glyph glyph-name="Ccaron" unicode="&#x10c;" horiz-adv-x="608" 
d="M436 745h-20l-82 128l3 2l93 -80h4l135 80l3 -2zM310 -15q-113 0 -180.5 79.5t-67.5 213.5q0 184 116.5 310.5t283.5 126.5q113 0 165 -44l-21 -97h-5l-113 100q-23 9 -58 9q-114 0 -200.5 -122.5t-86.5 -286.5q0 -117 49 -181.5t139 -64.5q151 0 242 178l4 -3
q-24 -99 -96 -158.5t-171 -59.5z" />
    <glyph glyph-name="ccaron" unicode="&#x10d;" horiz-adv-x="362" 
d="M304 565h-22l-70 178l3 2l86 -112h4l142 112l3 -2zM141 -15q-56 0 -87 39.5t-31 112.5q0 86 39.5 173.5t102 144t124.5 56.5q38 0 60.5 -11.5t22.5 -31.5q0 -13 -8 -24t-21 -14l-98 49q-61 -24 -107.5 -121t-46.5 -198q0 -121 73 -121q76 0 158 132l4 -2
q-60 -184 -185 -184z" />
    <glyph glyph-name="Dcaron" unicode="&#x10e;" horiz-adv-x="693" 
d="M407 745h-20l-82 128l3 2l93 -80h4l135 80l3 -2zM674 400q0 -177 -120 -288.5t-349 -111.5h-178l1 4l50 42l130 608l-39 42l1 4h255q108 -21 178.5 -106t70.5 -194zM290 673l-136 -641h50q184 0 286.5 95t102.5 259q0 124 -84 203t-219 84z" />
    <glyph glyph-name="dcaron" unicode="&#x10f;" horiz-adv-x="560" 
d="M95 -15q-72 0 -72 122q0 99 46 193t119 152.5t149 58.5q31 0 61 -11l42 199l-69 23l1 5l146 43h8l-156 -729h3l81 66l3 -4q-28 -54 -62.5 -86t-65.5 -32q-18 0 -27 13.5t-5 32.5l49 217h-4q-50 -109 -121.5 -186t-125.5 -77zM532 574h-4l82 196h72l-1 -5zM92 128
q0 -91 42 -91q33 0 84.5 57t96 140.5t59.5 153.5l13 63l-102 30q-76 -32 -134.5 -139.5t-58.5 -213.5z" />
    <glyph glyph-name="Dcroat" unicode="&#x110;" horiz-adv-x="693" 
d="M142 343h-43l7 31h42l60 280l-39 42l1 4h255q108 -21 178.5 -106t70.5 -194q0 -177 -120 -288.5t-349 -111.5h-178l1 4l50 42zM389 374l-7 -31h-162l-66 -311h50q184 0 286.5 95t102.5 259q0 124 -84 203t-219 84l-64 -299h163z" />
    <glyph glyph-name="dslash" unicode="&#x111;" horiz-adv-x="513" 
d="M95 -15q-72 0 -72 122q0 99 46 193t119 152.5t149 58.5q31 0 61 -11l17 83h-140l6 26h140l19 90l-69 23l1 5l146 43h8l-34 -161h58l-6 -26h-58l-116 -542h3l81 66l3 -4q-28 -54 -62.5 -86t-65.5 -32q-18 0 -27 13.5t-5 32.5l49 217h-4q-50 -109 -121.5 -186t-125.5 -77z
M92 128q0 -91 42 -91q33 0 84.5 57t96 140.5t59.5 153.5l13 63l-102 30q-76 -32 -134.5 -139.5t-58.5 -213.5z" />
    <glyph glyph-name="Emacron" unicode="&#x112;" horiz-adv-x="609" 
d="M544 795h-254l7 30h254zM518 116l-25 -116h-466l1 4l50 42l130 608l-39 42l1 4h433l-21 -101h-5l-101 69h-187l-60 -283h186l96 53h5l-29 -138h-5l-76 53h-185l-67 -321h221l139 84h4z" />
    <glyph glyph-name="emacron" unicode="&#x113;" horiz-adv-x="390" 
d="M450 640h-254l7 30h254zM141 -15q-57 0 -87.5 37.5t-30.5 109.5q0 89 40.5 177.5t104.5 145t128 56.5q39 0 62 -21t23 -56q0 -122 -281 -190q-9 -42 -9 -84q0 -121 76 -121q88 0 178 160l4 -2q-29 -102 -85 -157t-123 -55zM271 482q-47 0 -95 -64t-71 -152
q112 30 163.5 67.5t51.5 88.5q0 28 -13 44t-36 16z" />
    <glyph glyph-name="Ebreve" unicode="&#x114;" horiz-adv-x="609" 
d="M389 745q-52 0 -81.5 25.5t-29.5 69.5q0 19 4 35h4q6 -90 107 -90t145 90h4q-13 -62 -53 -96t-100 -34zM518 116l-25 -116h-466l1 4l50 42l130 608l-39 42l1 4h433l-21 -101h-5l-101 69h-187l-60 -283h186l96 53h5l-29 -138h-5l-76 53h-185l-67 -321h221l139 84h4z" />
    <glyph glyph-name="ebreve" unicode="&#x115;" horiz-adv-x="390" 
d="M315 583q-51 0 -80.5 28t-29.5 74q0 21 6 46h4q3 -107 105 -107q99 0 147 107h4q-15 -72 -55.5 -110t-100.5 -38zM141 -15q-57 0 -87.5 37.5t-30.5 109.5q0 89 40.5 177.5t104.5 145t128 56.5q39 0 62 -21t23 -56q0 -122 -281 -190q-9 -42 -9 -84q0 -121 76 -121
q88 0 178 160l4 -2q-29 -102 -85 -157t-123 -55zM271 482q-47 0 -95 -64t-71 -152q112 30 163.5 67.5t51.5 88.5q0 28 -13 44t-36 16z" />
    <glyph glyph-name="Edotaccent" unicode="&#x116;" horiz-adv-x="609" 
d="M403 761q-19 0 -30 11t-11 30q0 23 16.5 39t38.5 16q19 0 30.5 -11t11.5 -30q0 -22 -16.5 -38.5t-39.5 -16.5zM518 116l-25 -116h-466l1 4l50 42l130 608l-39 42l1 4h433l-21 -101h-5l-101 69h-187l-60 -283h186l96 53h5l-29 -138h-5l-76 53h-185l-67 -321h221l139 84h4z
" />
    <glyph glyph-name="edotaccent" unicode="&#x117;" horiz-adv-x="390" 
d="M317 607q-19 0 -30 11t-11 30q0 23 16.5 39t38.5 16q19 0 30.5 -11t11.5 -30q0 -22 -16.5 -38.5t-39.5 -16.5zM141 -15q-57 0 -87.5 37.5t-30.5 109.5q0 89 40.5 177.5t104.5 145t128 56.5q39 0 62 -21t23 -56q0 -122 -281 -190q-9 -42 -9 -84q0 -121 76 -121
q88 0 178 160l4 -2q-29 -102 -85 -157t-123 -55zM271 482q-47 0 -95 -64t-71 -152q112 30 163.5 67.5t51.5 88.5q0 28 -13 44t-36 16z" />
    <glyph glyph-name="Eogonek" unicode="&#x118;" horiz-adv-x="609" 
d="M458 -149l3 -3q-27 -48 -81 -48q-34 0 -57.5 18.5t-23.5 46.5q0 25 13 44l99 91h-384l1 4l50 42l130 608l-39 42l1 4h433l-21 -101h-5l-101 69h-187l-60 -283h186l96 53h5l-29 -138h-5l-76 53h-185l-67 -321h221l139 84h4l-25 -116h-57q-47 -45 -63.5 -70t-16.5 -48
q0 -24 13.5 -37.5t37.5 -13.5q25 0 51 20z" />
    <glyph glyph-name="eogonek" unicode="&#x119;" horiz-adv-x="390" 
d="M166 -200q-34 0 -57 18.5t-23 46.5q0 24 13 44l91 82l-2 3q-14 -9 -48 -9q-54 0 -84.5 39t-30.5 109q0 88 40.5 177t104.5 145t128 56q39 0 62 -21t23 -56q0 -122 -281 -190q-9 -42 -9 -84q0 -60 20 -90.5t56 -30.5q89 0 179 160l4 -2q-32 -110 -111 -180
q-59 -54 -78.5 -81t-19.5 -52t13.5 -39t37.5 -14q28 0 51 20l3 -3q-27 -48 -82 -48zM273 482q-47 0 -95 -64t-71 -152q112 30 164 67.5t52 88.5q0 28 -13.5 44t-36.5 16z" />
    <glyph glyph-name="Ecaron" unicode="&#x11a;" horiz-adv-x="609" 
d="M407 745h-20l-82 128l3 2l93 -80h4l135 80l3 -2zM518 116l-25 -116h-466l1 4l50 42l130 608l-39 42l1 4h433l-21 -101h-5l-101 69h-187l-60 -283h186l96 53h5l-29 -138h-5l-76 53h-185l-67 -321h221l139 84h4z" />
    <glyph glyph-name="ecaron" unicode="&#x11b;" horiz-adv-x="390" 
d="M317 565h-22l-70 178l3 2l86 -112h4l142 112l3 -2zM141 -15q-57 0 -87.5 37.5t-30.5 109.5q0 89 40.5 177.5t104.5 145t128 56.5q39 0 62 -21t23 -56q0 -122 -281 -190q-9 -42 -9 -84q0 -121 76 -121q88 0 178 160l4 -2q-29 -102 -85 -157t-123 -55zM271 482
q-47 0 -95 -64t-71 -152q112 30 163.5 67.5t51.5 88.5q0 28 -13 44t-36 16z" />
    <glyph glyph-name="Gcircumflex" unicode="&#x11c;" horiz-adv-x="696" 
d="M466 875h20l82 -128l-4 -2l-93 80h-4l-135 -80l-2 2zM369 -15q-133 0 -216 90.5t-83 230.5q0 176 122.5 292.5t304.5 116.5q56 0 112 -16t82 -36l-20 -98h-5l-123 111q-24 8 -65 8q-139 0 -233.5 -104t-94.5 -256q0 -131 74.5 -217t189.5 -86q36 0 63 9l70 328l-38 41
l1 4h167l-1 -4l-51 -41l-80 -373h-4l-48 34h-3q-58 -34 -121 -34z" />
    <glyph glyph-name="gcircumflex" unicode="&#x11d;" horiz-adv-x="460" 
d="M339 745h19l71 -178l-3 -2l-86 112h-4l-142 -112l-3 2zM162 -200q-94 0 -156.5 40.5t-62.5 102.5q0 35 18 52l142 72q-81 28 -81 84v10l104 61q-29 29 -29 81q0 81 61.5 144.5t142.5 63.5q35 0 63 -13l129 9h4l-6 -54h-5l-110 30v-5q14 -9 23.5 -33t9.5 -53
q1 -77 -61 -140.5t-137 -61.5q-41 0 -69 18l-57 -33q0 -27 34.5 -43t84 -25t98.5 -21t83.5 -40.5t34.5 -74.5q0 -71 -75 -121t-183 -50zM216 215q46 0 85 61.5t39 133.5q0 76 -50 76q-46 0 -85.5 -61.5t-39.5 -133.5q0 -76 51 -76zM1 -45q0 -52 55.5 -87t135.5 -35
q75 0 126 31.5t51 75.5q0 25 -14 42.5t-42.5 29t-53.5 18t-67 15t-63 14.5l-37 -19q-55 -27 -73 -44t-18 -41z" />
    <glyph glyph-name="Gbreve" unicode="&#x11e;" horiz-adv-x="696" 
d="M441 745q-52 0 -81.5 25.5t-29.5 69.5q0 19 4 35h4q6 -90 107 -90t145 90h4q-13 -62 -53 -96t-100 -34zM369 -15q-133 0 -216 90.5t-83 230.5q0 176 122.5 292.5t304.5 116.5q56 0 112 -16t82 -36l-20 -98h-5l-123 111q-24 8 -65 8q-139 0 -233.5 -104t-94.5 -256
q0 -131 74.5 -217t189.5 -86q36 0 63 9l70 328l-38 41l1 4h167l-1 -4l-51 -41l-80 -373h-4l-48 34h-3q-58 -34 -121 -34z" />
    <glyph glyph-name="gbreve" unicode="&#x11f;" horiz-adv-x="460" 
d="M319 583q-51 0 -80.5 28t-29.5 74q0 21 6 46h4q3 -107 105 -107q99 0 147 107h4q-15 -72 -55.5 -110t-100.5 -38zM162 -200q-94 0 -156.5 40.5t-62.5 102.5q0 35 18 52l142 72q-81 28 -81 84v10l104 61q-29 29 -29 81q0 81 61.5 144.5t142.5 63.5q35 0 63 -13l129 9h4
l-6 -54h-5l-110 30v-5q14 -9 23.5 -33t9.5 -53q1 -77 -61 -140.5t-137 -61.5q-41 0 -69 18l-57 -33q0 -27 34.5 -43t84 -25t98.5 -21t83.5 -40.5t34.5 -74.5q0 -71 -75 -121t-183 -50zM216 215q46 0 85 61.5t39 133.5q0 76 -50 76q-46 0 -85.5 -61.5t-39.5 -133.5
q0 -76 51 -76zM1 -45q0 -52 55.5 -87t135.5 -35q75 0 126 31.5t51 75.5q0 25 -14 42.5t-42.5 29t-53.5 18t-67 15t-63 14.5l-37 -19q-55 -27 -73 -44t-18 -41z" />
    <glyph glyph-name="Gdotaccent" unicode="&#x120;" horiz-adv-x="696" 
d="M454 761q-19 0 -30 11t-11 30q0 23 16.5 39t38.5 16q19 0 30.5 -11t11.5 -30q0 -22 -16.5 -38.5t-39.5 -16.5zM369 -15q-133 0 -216 90.5t-83 230.5q0 176 122.5 292.5t304.5 116.5q56 0 112 -16t82 -36l-20 -98h-5l-123 111q-24 8 -65 8q-139 0 -233.5 -104t-94.5 -256
q0 -131 74.5 -217t189.5 -86q36 0 63 9l70 328l-38 41l1 4h167l-1 -4l-51 -41l-80 -373h-4l-48 34h-3q-58 -34 -121 -34z" />
    <glyph glyph-name="gdotaccent" unicode="&#x121;" horiz-adv-x="460" 
d="M321 607q-19 0 -30 11t-11 30q0 23 16.5 39t38.5 16q19 0 30.5 -11t11.5 -30q0 -22 -16.5 -38.5t-39.5 -16.5zM162 -200q-94 0 -156.5 40.5t-62.5 102.5q0 35 18 52l142 72q-81 28 -81 84v10l104 61q-29 29 -29 81q0 81 61.5 144.5t142.5 63.5q35 0 63 -13l129 9h4
l-6 -54h-5l-110 30v-5q14 -9 23.5 -33t9.5 -53q1 -77 -61 -140.5t-137 -61.5q-41 0 -69 18l-57 -33q0 -27 34.5 -43t84 -25t98.5 -21t83.5 -40.5t34.5 -74.5q0 -71 -75 -121t-183 -50zM216 215q46 0 85 61.5t39 133.5q0 76 -50 76q-46 0 -85.5 -61.5t-39.5 -133.5
q0 -76 51 -76zM1 -45q0 -52 55.5 -87t135.5 -35q75 0 126 31.5t51 75.5q0 25 -14 42.5t-42.5 29t-53.5 18t-67 15t-63 14.5l-37 -19q-55 -27 -73 -44t-18 -41z" />
    <glyph glyph-name="Gcommaaccent" unicode="&#x122;" horiz-adv-x="696" 
d="M369 -15q-133 0 -216 90.5t-83 230.5q0 176 122.5 292.5t304.5 116.5q56 0 112 -16t82 -36l-20 -98h-5l-123 111q-24 8 -65 8q-139 0 -233.5 -104t-94.5 -256q0 -131 74.5 -217t189.5 -86q36 0 63 9l70 328l-38 41l1 4h167l-1 -4l-51 -41l-80 -373h-4l-48 34h-3
q-58 -34 -121 -34zM312 -200l-1 4q21 11 40 35q19 22 24 41v4l-55 13q-4 4 -4 14q0 17 14 28.5t34 11.5q24 0 40 -15t16 -38q0 -31 -30.5 -59t-77.5 -39z" />
    <glyph glyph-name="gcommaaccent" unicode="&#x123;" horiz-adv-x="460" 
d="M384 739l1 -4q-20 -12 -40 -35.5t-24 -40.5v-4l55 -13q4 -4 4 -14q0 -17 -14 -28.5t-34 -11.5q-23 0 -39.5 15.5t-16.5 37.5q0 32 31 60t77 38zM162 -200q-94 0 -156.5 40.5t-62.5 102.5q0 35 18 52l142 72q-81 28 -81 84v10l104 61q-29 29 -29 81q0 81 61.5 144.5
t142.5 63.5q35 0 63 -13l129 9h4l-6 -54h-5l-110 30v-5q14 -9 23.5 -33t9.5 -53q1 -77 -61 -140.5t-137 -61.5q-41 0 -69 18l-57 -33q0 -27 34.5 -43t84 -25t98.5 -21t83.5 -40.5t34.5 -74.5q0 -71 -75 -121t-183 -50zM216 215q46 0 85 61.5t39 133.5q0 76 -50 76
q-46 0 -85.5 -61.5t-39.5 -133.5q0 -76 51 -76zM1 -45q0 -52 55.5 -87t135.5 -35q75 0 126 31.5t51 75.5q0 25 -14 42.5t-42.5 29t-53.5 18t-67 15t-63 14.5l-37 -19q-55 -27 -73 -44t-18 -41z" />
    <glyph glyph-name="Hcircumflex" unicode="&#x124;" horiz-adv-x="746" 
d="M494 875h20l82 -128l-4 -2l-93 80h-4l-135 -80l-2 2zM194 0h-167l1 4l50 42l130 608l-39 42l1 4h167l-1 -4l-50 -42l-60 -282h345l61 282l-39 42l1 4h168l-1 -4l-51 -42l-129 -608l38 -42l-1 -4h-167l1 4l50 42l62 292h-345l-63 -292l39 -42z" />
    <glyph glyph-name="hcircumflex" unicode="&#x125;" horiz-adv-x="525" 
d="M232 1004h19l71 -178l-3 -2l-86 112h-4l-142 -112l-3 2zM163 218l-49 -218h-70l151 699l-69 23l1 5l146 43h8l-99 -445h3q105 186 213 186q43 0 60.5 -30.5t6.5 -81.5l-75 -357h3l81 65l3 -4q-28 -53 -63 -85.5t-66 -32.5q-18 0 -27 12t-5 29l79 372q12 60 -33 60
q-50 0 -115.5 -78t-83.5 -162z" />
    <glyph glyph-name="Hbar" unicode="&#x126;" horiz-adv-x="746" 
d="M194 0h-167l1 4l50 42l98 457h-45l7 31h44l26 120l-39 42l1 4h167l-1 -4l-50 -42l-26 -120h346l26 120l-39 42l1 4h168l-1 -4l-51 -42l-25 -120h41l-6 -31h-42l-97 -457l38 -42l-1 -4h-167l1 4l50 42l62 292h-345l-63 -292l39 -42zM254 503l-28 -131h345l28 131h-345z
" />
    <glyph glyph-name="hbar" unicode="&#x127;" horiz-adv-x="525" 
d="M163 218l-49 -218h-70l126 583h-59l6 26h59l19 90l-69 23l1 5l146 43h8l-36 -161h141l-6 -26h-141l-57 -258h3q105 186 213 186q43 0 60.5 -30.5t6.5 -81.5l-75 -357h3l81 65l3 -4q-28 -53 -63 -85.5t-66 -32.5q-18 0 -27 12t-5 29l79 372q12 60 -33 60q-50 0 -115.5 -78
t-83.5 -162z" />
    <glyph glyph-name="Itilde" unicode="&#x128;" horiz-adv-x="322" 
d="M341 762q-23 0 -69 26t-69 26q-19 0 -38 -11.5t-57 -47.5l-3 3q47 61 70 80.5t46 19.5q24 0 69 -26t69 -26q16 0 36 11q17 9 59 48l2 -3q-44 -60 -68.5 -80t-46.5 -20zM194 4l-1 -4h-166l1 4l50 42l130 608l-39 42l1 4h167l-1 -4l-50 -42l-130 -608z" />
    <glyph glyph-name="itilde" unicode="&#x129;" horiz-adv-x="274" 
d="M288 606q-23 0 -69 27t-69 27q-17 0 -37 -11q-16 -9 -59 -50l-3 3q45 64 69 82q26 20 48 20q23 0 69 -27t69 -27q16 0 35 11q16 9 59 50l3 -3q-42 -59 -67 -80.5t-48 -21.5zM90 -15q-18 0 -27 12t-5 29l87 413h-4l-81 -66l-2 5q33 61 65.5 89.5t72.5 28.5h31l-95 -454h3
l80 65l4 -4q-28 -53 -63 -85.5t-66 -32.5z" />
    <glyph glyph-name="Imacron" unicode="&#x12a;" horiz-adv-x="322" 
d="M413 795h-254l7 30h254zM194 4l-1 -4h-166l1 4l50 42l130 608l-39 42l1 4h167l-1 -4l-50 -42l-130 -608z" />
    <glyph glyph-name="imacron" unicode="&#x12b;" horiz-adv-x="274" 
d="M354 640h-254l7 30h254zM92 -15q-18 0 -27 12t-5 29l87 413h-4l-81 -66l-2 5q33 61 65.5 89.5t72.5 28.5h31l-95 -454h3l80 65l4 -4q-28 -53 -63 -85.5t-66 -32.5z" />
    <glyph glyph-name="Ibreve" unicode="&#x12c;" horiz-adv-x="322" 
d="M259 745q-52 0 -81.5 25.5t-29.5 69.5q0 19 4 35h4q6 -90 107 -90t145 90h4q-13 -62 -53 -96t-100 -34zM194 4l-1 -4h-166l1 4l50 42l130 608l-39 42l1 4h167l-1 -4l-50 -42l-130 -608z" />
    <glyph glyph-name="ibreve" unicode="&#x12d;" horiz-adv-x="274" 
d="M220 583q-51 0 -80.5 28t-29.5 74q0 21 6 46h4q3 -107 105 -107q99 0 147 107h4q-15 -72 -55.5 -110t-100.5 -38zM92 -15q-18 0 -27 12t-5 29l87 413h-4l-81 -66l-2 5q33 61 65.5 89.5t72.5 28.5h31l-95 -454h3l80 65l4 -4q-28 -53 -63 -85.5t-66 -32.5z" />
    <glyph glyph-name="Iogonek" unicode="&#x12e;" horiz-adv-x="322" 
d="M194 4l-1 -4h-74q-47 -45 -63.5 -70t-16.5 -48q0 -24 13.5 -37.5t37.5 -13.5q25 0 51 20l3 -3q-27 -48 -81 -48q-34 0 -57.5 18.5t-23.5 46.5q0 25 13 44l99 91h-67l1 4l50 42l130 608l-39 42l1 4h167l-1 -4l-50 -42l-130 -608z" />
    <glyph glyph-name="iogonek" unicode="&#x12f;" horiz-adv-x="274" 
d="M234 665q-43 0 -43 43q0 24 15.5 39.5t39.5 15.5q42 0 42 -42q0 -25 -15.5 -40.5t-38.5 -15.5zM95 -15h-5q-18 0 -27 12t-5 29l87 413h-4l-81 -66l-2 5q33 61 65.5 89.5t72.5 28.5h31l-95 -454h3l80 65l4 -4q-35 -66 -77 -97q-53 -52 -69 -74q-17 -26 -17 -50t13.5 -37.5
t37.5 -13.5q25 0 51 20l3 -3q-27 -48 -81 -48q-34 0 -57.5 18.5t-23.5 46.5q0 25 13 44z" />
    <glyph glyph-name="Idot" unicode="&#x130;" horiz-adv-x="322" 
d="M273 761q-19 0 -30 11t-11 30q0 23 16.5 39t38.5 16q19 0 30.5 -11t11.5 -30q0 -22 -16.5 -38.5t-39.5 -16.5zM194 4l-1 -4h-166l1 4l50 42l130 608l-39 42l1 4h167l-1 -4l-50 -42l-130 -608z" />
    <glyph glyph-name="dotlessi" unicode="&#x131;" horiz-adv-x="274" 
d="M92 -15q-18 0 -27 12t-5 29l87 413h-4l-81 -66l-2 5q33 61 65.5 89.5t72.5 28.5h31l-95 -454h3l80 65l4 -4q-28 -53 -63 -85.5t-66 -32.5z" />
    <glyph glyph-name="IJ" unicode="&#x132;" horiz-adv-x="643" 
d="M194 4l-1 -4h-166l1 4l50 42l130 608l-39 42l1 4h167l-1 -4l-50 -42l-130 -608zM248 -200q-42 0 -83 12l18 89h4l93 -72q33 2 63 47.5t45 116.5l142 661l-39 42l1 4h167l-1 -4l-50 -42l-133 -622q-25 -112 -83 -172t-144 -60z" />
    <glyph glyph-name="ij" unicode="&#x133;" horiz-adv-x="542" 
d="M236 665q-43 0 -43 43q0 24 15.5 39.5t39.5 15.5q42 0 42 -42q0 -25 -15.5 -40.5t-38.5 -15.5zM510 665q-43 0 -43 43q0 24 15.5 39.5t39.5 15.5q42 0 42 -42q0 -25 -15.5 -40.5t-38.5 -15.5zM92 -15q-18 0 -27 12t-5 29l87 413h-4l-81 -66l-2 5q33 61 65.5 89.5
t72.5 28.5h31l-95 -454h3l80 65l4 -4q-28 -53 -63 -85.5t-66 -32.5zM261 -200q-27 0 -43 10.5t-16 28.5q0 14 8 25t18 13l94 -34l101 597h-4l-81 -66l-3 4q33 61 65.5 89.5t73.5 28.5h31l-77 -414q-29 -153 -67 -217.5t-100 -64.5z" />
    <glyph glyph-name="Jcircumflex" unicode="&#x134;" horiz-adv-x="321" 
d="M284 875h20l82 -128l-4 -2l-93 80h-4l-135 -80l-2 2zM-74 -200q-42 0 -83 12l18 89h4l93 -72q33 2 63 47.5t45 116.5l142 661l-39 42l1 4h167l-1 -4l-50 -42l-133 -622q-25 -112 -83 -172t-144 -60z" />
    <glyph glyph-name="jcircumflex" unicode="&#x135;" horiz-adv-x="268" 
d="M238 745h19l71 -178l-3 -2l-86 112h-4l-142 -112l-3 2zM-15 -200q-27 0 -43 10.5t-16 28.5q0 14 8 25t18 13l94 -34l101 597h-4l-81 -66l-3 4q33 61 65.5 89.5t73.5 28.5h31l-77 -414q-29 -153 -67 -217.5t-100 -64.5z" />
    <glyph glyph-name="Kcommaaccent" unicode="&#x136;" horiz-adv-x="656" 
d="M195 4l-1 -4h-167l1 4l50 42l130 608l-39 42l1 4h167l-1 -4l-50 -42l-65 -305l355 287l-41 59l1 5h166l-1 -5l-339 -271l238 -420l-1 -4h-157l1 6l45 40l-188 328l-89 -71l-55 -257zM244 -200l-1 4q21 11 40 35q19 22 24 41v4l-55 13q-4 4 -4 14q0 17 14 28.5t34 11.5
q24 0 40 -15t16 -38q0 -31 -30.5 -59t-77.5 -39z" />
    <glyph glyph-name="kcommaaccent" unicode="&#x137;" horiz-adv-x="503" 
d="M134 87l-20 -87h-70l150 699l-68 23l1 5l145 43h8l-99 -450h4q35 89 85.5 140.5t102.5 51.5q38 0 61 -25.5t23 -66.5q0 -56 -25 -89l-135 -80l89 -217h4l84 69l4 -2q-44 -116 -115 -116q-36 0 -56 50l-75 195v4l83 51q75 48 75 119q0 64 -48 64q-59 0 -115 -102t-93 -279
zM140 -200l-1 4q21 11 40 35q19 22 24 41v4l-55 13q-4 4 -4 14q0 17 14 28.5t34 11.5q24 0 40 -15t16 -38q0 -31 -30.5 -59t-77.5 -39z" />
    <glyph glyph-name="Lacute" unicode="&#x139;" horiz-adv-x="539" 
d="M268 745h-5l83 130h79v-5zM481 118l-24 -118h-430l1 4l50 42l129 608l-39 42l1 4h167l-1 -4l-50 -42l-131 -622h185l137 86h5z" />
    <glyph glyph-name="lacute" unicode="&#x13a;" horiz-adv-x="270" 
d="M245 800h-5l83 130h79v-5zM88 -15q-18 0 -27 12t-5 30l143 672l-68 23l1 5l145 43h8l-155 -728h3l81 65l3 -4q-28 -53 -63 -85.5t-66 -32.5z" />
    <glyph glyph-name="Lcommaaccent" unicode="&#x13b;" horiz-adv-x="539" 
d="M481 118l-24 -118h-430l1 4l50 42l129 608l-39 42l1 4h167l-1 -4l-50 -42l-131 -622h185l137 86h5zM166 -200l-1 4q21 11 40 35q19 22 24 41v4l-55 13q-4 4 -4 14q0 17 14 28.5t34 11.5q24 0 40 -15t16 -38q0 -31 -30.5 -59t-77.5 -39z" />
    <glyph glyph-name="lcommaaccent" unicode="&#x13c;" horiz-adv-x="270" 
d="M88 -15q-18 0 -27 12t-5 30l143 672l-68 23l1 5l145 43h8l-155 -728h3l81 65l3 -4q-28 -53 -63 -85.5t-66 -32.5zM105 -200l-1 4q21 11 40 35q19 22 24 41v4l-55 13q-4 4 -4 14q0 17 14 28.5t34 11.5q24 0 40 -15t16 -38q0 -31 -30.5 -59t-77.5 -39z" />
    <glyph glyph-name="Lcaron" unicode="&#x13d;" horiz-adv-x="539" 
d="M481 118l-24 -118h-430l1 4l50 42l129 608l-39 42l1 4h167l-1 -4l-50 -42l-131 -622h185l137 86h5zM357 504h-4l82 196h72l-1 -5z" />
    <glyph glyph-name="lcaron" unicode="&#x13e;" horiz-adv-x="317" 
d="M88 -15q-18 0 -27 12t-5 30l143 672l-68 23l1 5l145 43h8l-155 -728h3l81 65l3 -4q-28 -53 -63 -85.5t-66 -32.5zM291 574h-4l82 196h72l-1 -5z" />
    <glyph glyph-name="Ldot" unicode="&#x13f;" horiz-adv-x="539" 
d="M481 118l-24 -118h-430l1 4l50 42l129 608l-39 42l1 4h167l-1 -4l-50 -42l-131 -622h185l137 86h5zM454 321q-19 0 -30 11t-11 30q0 23 16.5 39t38.5 16q19 0 30.5 -11t11.5 -30q0 -22 -16.5 -38.5t-39.5 -16.5z" />
    <glyph glyph-name="ldot" unicode="&#x140;" horiz-adv-x="398" 
d="M88 -15q-18 0 -27 12t-5 30l143 672l-68 23l1 5l145 43h8l-155 -728h3l81 65l3 -4q-28 -53 -63 -85.5t-66 -32.5zM332 215q-19 0 -30 11t-11 30q0 23 16.5 39t38.5 16q19 0 30.5 -11t11.5 -30q0 -22 -16.5 -38.5t-39.5 -16.5z" />
    <glyph glyph-name="Lslash" unicode="&#x141;" horiz-adv-x="539" 
d="M129 284l-36 -12l-11 29l54 19l71 334l-39 42l1 4h167l-1 -4l-50 -42l-64 -305l156 54l10 -30l-174 -60l-59 -281h185l137 86h5l-24 -118h-430l1 4l50 42z" />
    <glyph glyph-name="lslash" unicode="&#x142;" horiz-adv-x="270" 
d="M88 -15q-18 0 -27 12t-5 30l81 380l-59 -36l-13 21l79 47l55 260l-68 23l1 5l145 43h8l-60 -282l83 50l11 -21l-101 -61l-88 -414h3l81 65l3 -4q-28 -53 -63 -85.5t-66 -32.5z" />
    <glyph glyph-name="Nacute" unicode="&#x143;" horiz-adv-x="713" 
d="M466 745h-5l83 130h79v-5zM684 636l-136 -636h-19l-297 579l-109 -515l53 -60l-1 -4h-149l1 4l55 60l120 567l-44 65l1 4h98l283 -550l103 486l-54 60l1 4h149l-1 -4z" />
    <glyph glyph-name="nacute" unicode="&#x144;" horiz-adv-x="533" 
d="M349 556h-4l106 180h79v-5zM356 -15q-18 0 -26.5 11.5t-5.5 29.5l79 372q13 60 -33 60q-50 0 -116 -78t-84 -162l-48 -218h-70l95 440h-4l-81 -66l-4 4q33 61 66 89.5t73 28.5h28l-37 -174h3q104 189 214 189q44 0 61.5 -30t6.5 -82l-75 -357h3l80 65l4 -4
q-28 -53 -63 -85.5t-66 -32.5z" />
    <glyph glyph-name="Ncommaaccent" unicode="&#x145;" horiz-adv-x="713" 
d="M684 636l-136 -636h-19l-297 579l-109 -515l53 -60l-1 -4h-149l1 4l55 60l120 567l-44 65l1 4h98l283 -550l103 486l-54 60l1 4h149l-1 -4zM235 -200l-1 4q21 11 40 35q19 22 24 41v4l-55 13q-4 4 -4 14q0 17 14 28.5t34 11.5q24 0 40 -15t16 -38q0 -31 -30.5 -59
t-77.5 -39z" />
    <glyph glyph-name="ncommaaccent" unicode="&#x146;" horiz-adv-x="533" 
d="M356 -15q-18 0 -26.5 11.5t-5.5 29.5l79 372q13 60 -33 60q-50 0 -116 -78t-84 -162l-48 -218h-70l95 440h-4l-81 -66l-4 4q33 61 66 89.5t73 28.5h28l-37 -174h3q104 189 214 189q44 0 61.5 -30t6.5 -82l-75 -357h3l80 65l4 -4q-28 -53 -63 -85.5t-66 -32.5zM156 -200
l-1 4q21 11 40 35q19 22 24 41v4l-55 13q-4 4 -4 14q0 17 14 28.5t34 11.5q24 0 40 -15t16 -38q0 -31 -30.5 -59t-77.5 -39z" />
    <glyph glyph-name="Ncaron" unicode="&#x147;" horiz-adv-x="713" 
d="M475 745h-20l-82 128l3 2l93 -80h4l135 80l3 -2zM684 636l-136 -636h-19l-297 579l-109 -515l53 -60l-1 -4h-149l1 4l55 60l120 567l-44 65l1 4h98l283 -550l103 486l-54 60l1 4h149l-1 -4z" />
    <glyph glyph-name="ncaron" unicode="&#x148;" horiz-adv-x="533" 
d="M359 565h-22l-70 178l3 2l86 -112h4l142 112l3 -2zM356 -15q-18 0 -26.5 11.5t-5.5 29.5l79 372q13 60 -33 60q-50 0 -116 -78t-84 -162l-48 -218h-70l95 440h-4l-81 -66l-4 4q33 61 66 89.5t73 28.5h28l-37 -174h3q104 189 214 189q44 0 61.5 -30t6.5 -82l-75 -357h3
l80 65l4 -4q-28 -53 -63 -85.5t-66 -32.5z" />
    <glyph glyph-name="Eng" unicode="&#x14a;" horiz-adv-x="712" 
d="M335 -200q-36 0 -79 12l18 89h4l93 -72q43 1 83 56t58 138l2 8l-282 548l-109 -515l53 -60l-1 -4h-149l1 4l55 60l120 567l-44 65l1 4h98l283 -550l103 486l-54 60l1 4h149l-1 -4l-54 -60l-110 -515l-19 -89q-25 -112 -81 -172t-139 -60z" />
    <glyph glyph-name="eng" unicode="&#x14b;" horiz-adv-x="517" 
d="M205 -200q-31 0 -49 10.5t-18 28.5q0 15 11 25.5t24 10.5l112 -35l118 558q13 60 -33 60q-50 0 -116 -78t-84 -162l-48 -218h-70l95 440h-4l-81 -66l-4 4q33 61 66 89.5t73 28.5h28l-37 -174h3q104 189 214 189q44 0 61.5 -30t6.5 -82l-67 -317q-12 -53 -22 -89t-27 -76
t-36.5 -63.5t-49 -39t-66.5 -14.5z" />
    <glyph glyph-name="Omacron" unicode="&#x14c;" horiz-adv-x="686" 
d="M594 795h-254l7 30h254zM303 -15q-113 0 -177 76t-64 211q0 183 107 313t257 130q113 0 177 -76.5t64 -210.5q0 -183 -107 -313t-257 -130zM317 15q111 0 190 122.5t79 292.5q0 119 -46 187t-128 68q-111 0 -190.5 -122.5t-79.5 -292.5q0 -119 46.5 -187t128.5 -68z" />
    <glyph glyph-name="omacron" unicode="&#x14d;" horiz-adv-x="438" 
d="M435 640h-254l7 30h254zM160 -15q-64 0 -100.5 47.5t-36.5 131.5q0 135 78 241t178 106q64 0 100 -47.5t36 -131.5q0 -135 -78 -241t-177 -106zM164 9q43 0 85 52t68 133.5t26 164.5q0 127 -69 127q-65 0 -122 -111.5t-57 -238.5t69 -127z" />
    <glyph glyph-name="Obreve" unicode="&#x14e;" horiz-adv-x="686" 
d="M441 745q-52 0 -81.5 25.5t-29.5 69.5q0 19 4 35h4q6 -90 107 -90t145 90h4q-13 -62 -53 -96t-100 -34zM303 -15q-113 0 -177 76t-64 211q0 183 107 313t257 130q113 0 177 -76.5t64 -210.5q0 -183 -107 -313t-257 -130zM317 15q111 0 190 122.5t79 292.5q0 119 -46 187
t-128 68q-111 0 -190.5 -122.5t-79.5 -292.5q0 -119 46.5 -187t128.5 -68z" />
    <glyph glyph-name="obreve" unicode="&#x14f;" horiz-adv-x="438" 
d="M301 583q-51 0 -80.5 28t-29.5 74q0 21 6 46h4q3 -107 105 -107q99 0 147 107h4q-15 -72 -55.5 -110t-100.5 -38zM160 -15q-64 0 -100.5 47.5t-36.5 131.5q0 135 78 241t178 106q64 0 100 -47.5t36 -131.5q0 -135 -78 -241t-177 -106zM164 9q43 0 85 52t68 133.5
t26 164.5q0 127 -69 127q-65 0 -122 -111.5t-57 -238.5t69 -127z" />
    <glyph glyph-name="Ohungarumlaut" unicode="&#x150;" horiz-adv-x="686" 
d="M375 745h-5l83 130h79v-5zM303 -15q-113 0 -177 76t-64 211q0 183 107 313t257 130q113 0 177 -76.5t64 -210.5q0 -183 -107 -313t-257 -130zM317 15q111 0 190 122.5t79 292.5q0 119 -46 187t-128 68q-111 0 -190.5 -122.5t-79.5 -292.5q0 -119 46.5 -187t128.5 -68z
" />
    <glyph glyph-name="ohungarumlaut" unicode="&#x151;" horiz-adv-x="438" 
d="M227 565h-4l106 180h79v-5zM160 -15q-64 0 -100.5 47.5t-36.5 131.5q0 135 78 241t178 106q64 0 100 -47.5t36 -131.5q0 -135 -78 -241t-177 -106zM164 9q43 0 85 52t68 133.5t26 164.5q0 127 -69 127q-65 0 -122 -111.5t-57 -238.5t69 -127z" />
    <glyph glyph-name="OE" unicode="&#x152;" horiz-adv-x="981" 
d="M889 116l-24 -116h-554q-109 21 -179 104.5t-70 192.5q0 85 29 157.5t85.5 128t147.5 86.5t207 31h444l-21 -101h-5l-101 69h-186l-61 -283h185l97 53h5l-30 -138h-5l-75 53h-185l-68 -321h222l138 84h4zM445 27h1l136 641h-50q-184 0 -286.5 -95t-102.5 -259
q0 -123 84.5 -202.5t217.5 -84.5z" />
    <glyph glyph-name="oe" unicode="&#x153;" horiz-adv-x="695" 
d="M160 -15q-64 0 -100.5 47.5t-36.5 131.5q0 135 78 241t178 106q53 0 87.5 -33.5t44.5 -93.5q40 58 90 92.5t100 34.5q39 0 62 -21t23 -56q0 -122 -281 -190q0 -2 -0.5 -4t-0.5 -4q-8 -40 -8 -76q0 -121 76 -121q88 0 178 160l4 -2q-29 -102 -85 -157t-123 -55
q-94 0 -114 99q-34 -46 -79.5 -72.5t-92.5 -26.5zM164 9q43 0 85 52t68 133.5t26 164.5q0 127 -69 127q-65 0 -122 -111.5t-57 -238.5t69 -127zM576 482q-47 0 -95 -64t-71 -152q112 30 163.5 67.5t51.5 88.5q0 28 -13 44t-36 16z" />
    <glyph glyph-name="Racute" unicode="&#x154;" horiz-adv-x="602" 
d="M377 745h-5l83 130h79v-5zM194 4l-1 -4h-166l1 4l50 42l129 608l-38 42l1 4h272q63 -11 100 -53t37 -101q0 -69 -50 -123t-134 -75q15 -99 67 -223.5t107 -187.5l-3 -2q-79 30 -153 150.5t-98 253.5h-97l-62 -293zM330 672h-41l-64 -303h96q82 0 134 44.5t52 117.5
q0 66 -46.5 103.5t-130.5 37.5z" />
    <glyph glyph-name="racute" unicode="&#x155;" horiz-adv-x="356" 
d="M283 556h-4l106 180h79v-5zM169 218l-47 -218h-70l95 440h-4l-81 -66l-3 4q33 61 65.5 89.5t73.5 28.5h27l-31 -150h3q77 165 161 165q24 0 38 -11.5t14 -31.5q0 -17 -10.5 -30.5t-26.5 -18.5l-65 37q-35 -16 -79.5 -91t-59.5 -147z" />
    <glyph glyph-name="Rcommaaccent" unicode="&#x156;" horiz-adv-x="602" 
d="M194 4l-1 -4h-166l1 4l50 42l129 608l-38 42l1 4h272q63 -11 100 -53t37 -101q0 -69 -50 -123t-134 -75q15 -99 67 -223.5t107 -187.5l-3 -2q-79 30 -153 150.5t-98 253.5h-97l-62 -293zM330 672h-41l-64 -303h96q82 0 134 44.5t52 117.5q0 66 -46.5 103.5t-130.5 37.5z
M233 -200l-1 4q21 11 40 35q19 22 24 41v4l-55 13q-4 4 -4 14q0 17 14 28.5t34 11.5q24 0 40 -15t16 -38q0 -31 -30.5 -59t-77.5 -39z" />
    <glyph glyph-name="rcommaaccent" unicode="&#x157;" horiz-adv-x="356" 
d="M169 218l-47 -218h-70l95 440h-4l-81 -66l-3 4q33 61 65.5 89.5t73.5 28.5h27l-31 -150h3q77 165 161 165q24 0 38 -11.5t14 -31.5q0 -17 -10.5 -30.5t-26.5 -18.5l-65 37q-35 -16 -79.5 -91t-59.5 -147zM13 -200l-1 4q21 11 40 35q19 22 24 41v4l-55 13q-4 4 -4 14
q0 17 14 28.5t34 11.5q24 0 40 -15t16 -38q0 -31 -30.5 -59t-77.5 -39z" />
    <glyph glyph-name="Rcaron" unicode="&#x158;" horiz-adv-x="602" 
d="M386 745h-20l-82 128l3 2l93 -80h4l135 80l3 -2zM194 4l-1 -4h-166l1 4l50 42l129 608l-38 42l1 4h272q63 -11 100 -53t37 -101q0 -69 -50 -123t-134 -75q15 -99 67 -223.5t107 -187.5l-3 -2q-79 30 -153 150.5t-98 253.5h-97l-62 -293zM330 672h-41l-64 -303h96
q82 0 134 44.5t52 117.5q0 66 -46.5 103.5t-130.5 37.5z" />
    <glyph glyph-name="rcaron" unicode="&#x159;" horiz-adv-x="356" 
d="M293 565h-22l-70 178l3 2l86 -112h4l142 112l3 -2zM169 218l-47 -218h-70l95 440h-4l-81 -66l-3 4q33 61 65.5 89.5t73.5 28.5h27l-31 -150h3q77 165 161 165q24 0 38 -11.5t14 -31.5q0 -17 -10.5 -30.5t-26.5 -18.5l-65 37q-35 -16 -79.5 -91t-59.5 -147z" />
    <glyph glyph-name="Sacute" unicode="&#x15a;" horiz-adv-x="514" 
d="M353 745h-5l83 130h79v-5zM229 -15q-60 0 -120 23t-96 60l19 94h5l120 -131q30 -18 80 -18q65 0 106.5 39t41.5 101q0 39 -23.5 77t-56.5 69.5t-66 64.5t-56.5 75.5t-23.5 88.5q0 81 59 134t148 53q98 0 168 -52l-21 -91h-5l-102 101q-25 14 -53 14q-56 0 -93 -38
t-37 -93q0 -39 23.5 -77t56.5 -70t66.5 -65t57 -75.5t23.5 -88.5q0 -85 -62.5 -140t-158.5 -55z" />
    <glyph glyph-name="sacute" unicode="&#x15b;" horiz-adv-x="346" 
d="M278 556h-4l106 180h79v-5zM128 -15q-52 0 -91.5 22t-39.5 51q0 16 11 27.5t25 11.5l94 -88q47 1 75 27t28 69q0 28 -13.5 54t-32 47t-37.5 43t-32.5 50t-13.5 60q0 64 49.5 108t121.5 44q40 0 64.5 -13.5t24.5 -35.5q0 -13 -8 -23t-21 -12l-91 53q-37 -1 -59.5 -24.5
t-22.5 -62.5q0 -29 13.5 -55.5t32.5 -48t37.5 -43t32 -50.5t13.5 -62q0 -66 -45 -107.5t-115 -41.5z" />
    <glyph glyph-name="Scircumflex" unicode="&#x15c;" horiz-adv-x="514" 
d="M369 875h20l82 -128l-4 -2l-93 80h-4l-135 -80l-2 2zM229 -15q-60 0 -120 23t-96 60l19 94h5l120 -131q30 -18 80 -18q65 0 106.5 39t41.5 101q0 39 -23.5 77t-56.5 69.5t-66 64.5t-56.5 75.5t-23.5 88.5q0 81 59 134t148 53q98 0 168 -52l-21 -91h-5l-102 101
q-25 14 -53 14q-56 0 -93 -38t-37 -93q0 -39 23.5 -77t56.5 -70t66.5 -65t57 -75.5t23.5 -88.5q0 -85 -62.5 -140t-158.5 -55z" />
    <glyph glyph-name="scircumflex" unicode="&#x15d;" horiz-adv-x="346" 
d="M307 745h19l71 -178l-3 -2l-86 112h-4l-142 -112l-3 2zM128 -15q-52 0 -91.5 22t-39.5 51q0 16 11 27.5t25 11.5l94 -88q47 1 75 27t28 69q0 28 -13.5 54t-32 47t-37.5 43t-32.5 50t-13.5 60q0 64 49.5 108t121.5 44q40 0 64.5 -13.5t24.5 -35.5q0 -13 -8 -23t-21 -12
l-91 53q-37 -1 -59.5 -24.5t-22.5 -62.5q0 -29 13.5 -55.5t32.5 -48t37.5 -43t32 -50.5t13.5 -62q0 -66 -45 -107.5t-115 -41.5z" />
    <glyph glyph-name="Scedilla" unicode="&#x15e;" horiz-adv-x="514" 
d="M168 -47l61 32q-60 0 -120 23t-96 60l19 94h5l120 -131q30 -18 80 -18q65 0 106.5 39t41.5 101q0 39 -23.5 77t-56.5 69.5t-66 64.5t-56.5 75.5t-23.5 88.5q0 81 59 134t148 53q98 0 168 -52l-21 -91h-5l-102 101q-25 14 -53 14q-56 0 -93 -38t-37 -93q0 -39 23.5 -77
t56.5 -70t66.5 -65t57 -75.5t23.5 -88.5q0 -77 -52 -129.5t-135 -63.5l-40 -22q51 -51 51 -96q0 -31 -26.5 -50t-71.5 -19t-77 13l9 45h6l72 -40q16 0 26 12t10 29q0 43 -54 91v3z" />
    <glyph glyph-name="scedilla" unicode="&#x15f;" horiz-adv-x="346" 
d="M128 -15q-52 0 -91.5 22t-39.5 51q0 16 11 27.5t25 11.5l94 -88q47 1 75 27t28 69q0 28 -13.5 54t-32 47t-37.5 43t-32.5 50t-13.5 60q0 64 49.5 108t121.5 44q40 0 64.5 -13.5t24.5 -35.5q0 -13 -8 -23t-21 -12l-91 53q-37 -1 -59.5 -24.5t-22.5 -62.5q0 -29 13.5 -55.5
t32.5 -48t37.5 -43t32 -50.5t13.5 -62q0 -50 -26.5 -86.5t-71.5 -52.5l-54 -30q51 -51 51 -96q0 -31 -26.5 -50t-71.5 -19t-77 13l9 45h6l72 -40q16 0 26 12t10 29q0 43 -54 91v3l62 33q-5 -1 -15 -1z" />
    <glyph glyph-name="Scaron" unicode="&#x160;" horiz-adv-x="514" 
d="M362 745h-20l-82 128l3 2l93 -80h4l135 80l3 -2zM229 -15q-60 0 -120 23t-96 60l19 94h5l120 -131q30 -18 80 -18q65 0 106.5 39t41.5 101q0 39 -23.5 77t-56.5 69.5t-66 64.5t-56.5 75.5t-23.5 88.5q0 81 59 134t148 53q98 0 168 -52l-21 -91h-5l-102 101q-25 14 -53 14
q-56 0 -93 -38t-37 -93q0 -39 23.5 -77t56.5 -70t66.5 -65t57 -75.5t23.5 -88.5q0 -85 -62.5 -140t-158.5 -55z" />
    <glyph glyph-name="scaron" unicode="&#x161;" horiz-adv-x="346" 
d="M288 565h-22l-70 178l3 2l86 -112h4l142 112l3 -2zM128 -15q-52 0 -91.5 22t-39.5 51q0 16 11 27.5t25 11.5l94 -88q47 1 75 27t28 69q0 28 -13.5 54t-32 47t-37.5 43t-32.5 50t-13.5 60q0 64 49.5 108t121.5 44q40 0 64.5 -13.5t24.5 -35.5q0 -13 -8 -23t-21 -12l-91 53
q-37 -1 -59.5 -24.5t-22.5 -62.5q0 -29 13.5 -55.5t32.5 -48t37.5 -43t32 -50.5t13.5 -62q0 -66 -45 -107.5t-115 -41.5z" />
    <glyph glyph-name="Tcaron" unicode="&#x164;" horiz-adv-x="597" 
d="M414 745h-20l-82 128l3 2l93 -80h4l135 80l3 -2zM331 4l-1 -4h-167l1 4l50 42l133 622h-115l-131 -75h-5l22 107h549l-22 -107h-4l-102 75h-114l-133 -622z" />
    <glyph glyph-name="tcaron" unicode="&#x165;" horiz-adv-x="335" 
d="M297 536h-4l82 196h72l-1 -5zM120 -15q-37 0 -53.5 26.5t-5.5 68.5l97 389h-85l6 27h86l32 129l71 22h4l-37 -151h129l-11 -27h-125l-98 -398q-11 -38 14 -38q24 0 71.5 38.5t86.5 87.5l4 -2q-31 -75 -83 -124q-51 -48 -103 -48z" />
    <glyph glyph-name="Tbar" unicode="&#x166;" horiz-adv-x="597" 
d="M331 4l-1 -4h-167l1 4l50 42l63 295h-127l7 30h126l64 297h-115l-131 -75h-5l22 107h549l-22 -107h-4l-102 75h-114l-64 -297h130l-7 -30h-129l-63 -295z" />
    <glyph glyph-name="tbar" unicode="&#x167;" horiz-adv-x="335" 
d="M114 -15q-37 0 -53.5 26.5t-5.5 68.5l40 162h-63l6 26h64l50 201h-85l6 27h86l32 129l71 22h4l-37 -151h129l-11 -27h-125l-49 -201h124l-7 -26h-124l-42 -171q-11 -38 14 -38q24 0 71.5 38.5t86.5 87.5l4 -2q-31 -75 -83 -124q-51 -48 -103 -48z" />
    <glyph glyph-name="Utilde" unicode="&#x168;" horiz-adv-x="692" 
d="M537 762q-23 0 -69 26t-69 26q-19 0 -38 -11.5t-57 -47.5l-3 3q47 61 70 80.5t46 19.5q24 0 69 -26t69 -26q16 0 36 11q17 9 59 48l2 -3q-44 -60 -68.5 -80t-46.5 -20zM329 -15q-115 0 -175.5 79t-36.5 195l85 395l-39 42l1 4h167l-1 -4l-49 -42l-83 -383
q-23 -109 19.5 -170.5t139.5 -61.5q78 0 131 42t69 117l92 438l-53 60l1 4h145l-1 -4l-55 -60l-91 -435q-22 -105 -90 -160.5t-176 -55.5z" />
    <glyph glyph-name="utilde" unicode="&#x169;" horiz-adv-x="533" 
d="M430 606q-23 0 -69 27t-69 27q-17 0 -37 -11q-16 -9 -59 -50l-3 3q45 64 69 82q26 20 48 20q23 0 69 -27t69 -27q16 0 35 11q16 9 59 50l3 -3q-42 -59 -67 -80.5t-48 -21.5zM361 -15q-18 0 -27.5 11.5t-5.5 29.5l36 149h-4q-104 -190 -214 -190q-42 0 -60.5 30t-7.5 82
l73 343h-5l-81 -66l-3 4q64 118 138 118h32l-83 -398q-6 -28 2.5 -44t30.5 -16q51 0 116.5 77.5t83.5 161.5l47 219h71l-99 -454h4l80 65l4 -4q-28 -54 -62.5 -86t-65.5 -32z" />
    <glyph glyph-name="Umacron" unicode="&#x16a;" horiz-adv-x="692" 
d="M610 795h-254l7 30h254zM329 -15q-115 0 -175.5 79t-36.5 195l85 395l-39 42l1 4h167l-1 -4l-49 -42l-83 -383q-23 -109 19.5 -170.5t139.5 -61.5q78 0 131 42t69 117l92 438l-53 60l1 4h145l-1 -4l-55 -60l-91 -435q-22 -105 -90 -160.5t-176 -55.5z" />
    <glyph glyph-name="umacron" unicode="&#x16b;" horiz-adv-x="533" 
d="M494 640h-254l7 30h254zM361 -15q-18 0 -27.5 11.5t-5.5 29.5l36 149h-4q-104 -190 -214 -190q-42 0 -60.5 30t-7.5 82l73 343h-5l-81 -66l-3 4q64 118 138 118h32l-83 -398q-6 -28 2.5 -44t30.5 -16q51 0 116.5 77.5t83.5 161.5l47 219h71l-99 -454h4l80 65l4 -4
q-28 -54 -62.5 -86t-65.5 -32z" />
    <glyph glyph-name="Ubreve" unicode="&#x16c;" horiz-adv-x="692" 
d="M455 745q-52 0 -81.5 25.5t-29.5 69.5q0 19 4 35h4q6 -90 107 -90t145 90h4q-13 -62 -53 -96t-100 -34zM329 -15q-115 0 -175.5 79t-36.5 195l85 395l-39 42l1 4h167l-1 -4l-49 -42l-83 -383q-23 -109 19.5 -170.5t139.5 -61.5q78 0 131 42t69 117l92 438l-53 60l1 4h145
l-1 -4l-55 -60l-91 -435q-22 -105 -90 -160.5t-176 -55.5z" />
    <glyph glyph-name="ubreve" unicode="&#x16d;" horiz-adv-x="533" 
d="M359 583q-51 0 -80.5 28t-29.5 74q0 21 6 46h4q3 -107 105 -107q99 0 147 107h4q-15 -72 -55.5 -110t-100.5 -38zM361 -15q-18 0 -27.5 11.5t-5.5 29.5l36 149h-4q-104 -190 -214 -190q-42 0 -60.5 30t-7.5 82l73 343h-5l-81 -66l-3 4q64 118 138 118h32l-83 -398
q-6 -28 2.5 -44t30.5 -16q51 0 116.5 77.5t83.5 161.5l47 219h71l-99 -454h4l80 65l4 -4q-28 -54 -62.5 -86t-65.5 -32z" />
    <glyph glyph-name="Uring" unicode="&#x16e;" horiz-adv-x="692" 
d="M463 745q-40 0 -64.5 20.5t-24.5 54.5q0 42 36 71q38 30 89 30q41 0 65 -20.5t24 -54.5q0 -42 -36 -71.5t-89 -29.5zM472 765q28 0 47 24t19 55q0 26 -13 41.5t-35 15.5q-27 0 -46.5 -24.5t-19.5 -55.5q0 -25 13 -40.5t35 -15.5zM329 -15q-115 0 -175.5 79t-36.5 195
l85 395l-39 42l1 4h167l-1 -4l-49 -42l-83 -383q-23 -109 19.5 -170.5t139.5 -61.5q78 0 131 42t69 117l92 438l-53 60l1 4h145l-1 -4l-55 -60l-91 -435q-22 -105 -90 -160.5t-176 -55.5z" />
    <glyph glyph-name="uring" unicode="&#x16f;" horiz-adv-x="533" 
d="M351 569q-40 0 -64.5 20.5t-24.5 54.5q0 42 36 71q37 30 89 30q41 0 65 -20.5t24 -54.5q0 -42 -36 -71.5t-89 -29.5zM360 589q28 0 47 24t19 55q0 26 -13 41.5t-35 15.5q-27 0 -46.5 -24.5t-19.5 -55.5q0 -25 13 -40.5t35 -15.5zM361 -15q-18 0 -27.5 11.5t-5.5 29.5
l36 149h-4q-104 -190 -214 -190q-42 0 -60.5 30t-7.5 82l73 343h-5l-81 -66l-3 4q64 118 138 118h32l-83 -398q-6 -28 2.5 -44t30.5 -16q51 0 116.5 77.5t83.5 161.5l47 219h71l-99 -454h4l80 65l4 -4q-28 -54 -62.5 -86t-65.5 -32z" />
    <glyph glyph-name="Uhungarumlaut" unicode="&#x170;" horiz-adv-x="692" 
d="M390 745h-5l83 130h79v-5zM329 -15q-115 0 -175.5 79t-36.5 195l85 395l-39 42l1 4h167l-1 -4l-49 -42l-83 -383q-23 -109 19.5 -170.5t139.5 -61.5q78 0 131 42t69 117l92 438l-53 60l1 4h145l-1 -4l-55 -60l-91 -435q-22 -105 -90 -160.5t-176 -55.5z" />
    <glyph glyph-name="uhungarumlaut" unicode="&#x171;" horiz-adv-x="533" 
d="M286 565h-4l106 180h79v-5zM361 -15q-18 0 -27.5 11.5t-5.5 29.5l36 149h-4q-104 -190 -214 -190q-42 0 -60.5 30t-7.5 82l73 343h-5l-81 -66l-3 4q64 118 138 118h32l-83 -398q-6 -28 2.5 -44t30.5 -16q51 0 116.5 77.5t83.5 161.5l47 219h71l-99 -454h4l80 65l4 -4
q-28 -54 -62.5 -86t-65.5 -32z" />
    <glyph glyph-name="Uogonek" unicode="&#x172;" horiz-adv-x="692" 
d="M379 -149l3 -3q-27 -48 -81 -48q-34 0 -57.5 18.5t-23.5 46.5q0 25 13 44l83 76q-109 6 -165.5 83.5t-33.5 190.5l85 395l-39 42l1 4h167l-1 -4l-49 -42l-83 -383q-23 -109 19.5 -170.5t139.5 -61.5q78 0 131 42t69 117l92 438l-53 60l1 4h145l-1 -4l-55 -60l-91 -435
q-21 -101 -85.5 -156.5t-167.5 -59.5q-65 -62 -65 -103q0 -24 13.5 -37.5t37.5 -13.5q25 0 51 20z" />
    <glyph glyph-name="uogonek" unicode="&#x173;" horiz-adv-x="533" 
d="M365 -15h-4q-18 0 -27.5 11.5t-5.5 29.5l36 149h-4q-104 -190 -214 -190q-42 0 -60.5 30t-7.5 82l73 343h-5l-81 -66l-3 4q64 118 138 118h32l-83 -398q-6 -28 2.5 -44t30.5 -16q51 0 116.5 77.5t83.5 161.5l47 219h71l-99 -454h4l80 65l4 -4q-34 -66 -78 -98
q-50 -48 -67.5 -73.5t-17.5 -49.5t13.5 -37.5t37.5 -13.5q25 0 51 20l3 -3q-27 -48 -81 -48q-34 0 -57.5 18.5t-23.5 46.5q0 25 13 44z" />
    <glyph glyph-name="Wcircumflex" unicode="&#x174;" horiz-adv-x="854" 
d="M556 875h20l82 -128l-4 -2l-93 80h-4l-135 -80l-2 2zM467 519l-325 -519h-22l2 654l-15 42l1 4h150l-1 -4l-55 -42l-7 -510l276 443l4 67l-12 42l2 4h139l-2 -4l-48 -42l-39 -506l319 488l-49 60l2 4h161l-2 -4l-68 -60l-423 -636h-20z" />
    <glyph glyph-name="wcircumflex" unicode="&#x175;" horiz-adv-x="675" 
d="M464 745h19l71 -178l-3 -2l-86 112h-4l-142 -112l-3 2zM371 256l-191 -256h-23l-48 450h-4l-78 -24l-3 4q30 33 69 55t71 22h9l44 -418l150 202l-17 159h-4l-78 -25l-3 4q31 34 69 56t71 22h9l43 -421l33 46q77 105 104 158.5t27 98.5q0 86 -86 86h-8l-2 4q40 33 85 33
q33 0 52.5 -21.5t19.5 -57.5q0 -47 -34.5 -111.5t-124.5 -184.5l-102 -137h-23z" />
    <glyph glyph-name="Ycircumflex" unicode="&#x176;" horiz-adv-x="592" 
d="M419 875h20l82 -128l-4 -2l-93 80h-4l-135 -80l-2 2zM330 4l-1 -4h-166l1 4l49 42l61 284l-130 325l-23 42l1 3h156l-1 -4l-50 -42l115 -292l218 274l-42 60l1 4h139l-1 -4l-52 -60l-253 -309l-60 -281z" />
    <glyph glyph-name="ycircumflex" unicode="&#x177;" horiz-adv-x="439" 
d="M315 745h19l71 -178l-3 -2l-86 112h-4l-142 -112l-3 2zM-18 -200q-32 0 -52 14.5t-20 40.5t24 33l110 -45q23 8 60.5 44t62.5 76l-53 487h-4l-79 -24l-3 4q30 33 69.5 55t71.5 22h9l47 -462l87 155q72 126 72 199q0 37 -22.5 56.5t-63.5 19.5h-8l-2 4q39 33 86 33
q34 0 53 -20.5t19 -55.5t-24.5 -89t-83.5 -152l-111 -189q-125 -206 -245 -206z" />
    <glyph glyph-name="Ydieresis" unicode="&#x178;" horiz-adv-x="592" 
d="M329 771q-15 0 -24 9t-9 24q0 18 13 31.5t32 13.5q34 0 34 -33q0 -18 -13 -31.5t-33 -13.5zM489 771q-15 0 -24.5 9t-9.5 24q0 18 13.5 31.5t32.5 13.5q15 0 24.5 -9t9.5 -24q0 -18 -13 -31.5t-33 -13.5zM330 4l-1 -4h-166l1 4l49 42l61 284l-130 325l-23 42l1 3h156
l-1 -4l-50 -42l115 -292l218 274l-42 60l1 4h139l-1 -4l-52 -60l-253 -309l-60 -281z" />
    <glyph glyph-name="Zacute" unicode="&#x179;" horiz-adv-x="616" 
d="M418 745h-5l83 130h79v-5zM531 123l-27 -123h-494l1 4l510 664h-229l-131 -85h-6l25 117h455l-1 -4l-510 -664h262l140 91h5z" />
    <glyph glyph-name="zacute" unicode="&#x17a;" horiz-adv-x="412" 
d="M294 556h-4l106 180h79v-5zM286 -29q-63 0 -199 121h-3l-76 -96h-5q-5 18 -5 33q0 48 31 85t73 37l247 289h-193l-48 -45h-5l19 101h313v-5l-309 -355q122 -103 190 -110l58 89l4 -2q-21 -142 -92 -142z" />
    <glyph glyph-name="Zdotaccent" unicode="&#x17b;" horiz-adv-x="616" 
d="M423 761q-19 0 -30 11t-11 30q0 23 16.5 39t38.5 16q19 0 30.5 -11t11.5 -30q0 -22 -16.5 -38.5t-39.5 -16.5zM531 123l-27 -123h-494l1 4l510 664h-229l-131 -85h-6l25 117h455l-1 -4l-510 -664h262l140 91h5z" />
    <glyph glyph-name="zdotaccent" unicode="&#x17c;" horiz-adv-x="412" 
d="M304 607q-19 0 -30 11t-11 30q0 23 16.5 39t38.5 16q19 0 30.5 -11t11.5 -30q0 -22 -16.5 -38.5t-39.5 -16.5zM286 -29q-63 0 -199 121h-3l-76 -96h-5q-5 18 -5 33q0 48 31 85t73 37l247 289h-193l-48 -45h-5l19 101h313v-5l-309 -355q122 -103 190 -110l58 89l4 -2
q-21 -142 -92 -142z" />
    <glyph glyph-name="Zcaron" unicode="&#x17d;" horiz-adv-x="616" 
d="M427 745h-20l-82 128l3 2l93 -80h4l135 80l3 -2zM531 123l-27 -123h-494l1 4l510 664h-229l-131 -85h-6l25 117h455l-1 -4l-510 -664h262l140 91h5z" />
    <glyph glyph-name="zcaron" unicode="&#x17e;" horiz-adv-x="412" 
d="M304 565h-22l-70 178l3 2l86 -112h4l142 112l3 -2zM286 -29q-63 0 -199 121h-3l-76 -96h-5q-5 18 -5 33q0 48 31 85t73 37l247 289h-193l-48 -45h-5l19 101h313v-5l-309 -355q122 -103 190 -110l58 89l4 -2q-21 -142 -92 -142z" />
    <glyph glyph-name="florin" unicode="&#x192;" horiz-adv-x="528" 
d="M-23 -200q-68 0 -112 22l16 79h5l101 -66q5 -3 11 -3q67 0 117 185l86 315h-140l6 21h140l26 96q72 266 255 266q75 0 130 -35l-19 -84h-5l-100 87q-7 3 -16 3q-49 0 -91 -57.5t-72 -161.5l-32 -114h210l-6 -21h-210l-88 -309q-64 -223 -212 -223z" />
    <glyph glyph-name="Aringacute" unicode="&#x1fa;" horiz-adv-x="601" 
d="M440 950h-5l83 130h79v-5zM438 742q-40 0 -64.5 20.5t-24.5 54.5q0 43 36 71q37 30 89 30q41 0 65 -20.5t24 -54.5q0 -42 -36 -71.5t-89 -29.5zM447 762q28 0 47 24t19 55q0 26 -13 41.5t-35 15.5q-27 0 -46.5 -24.5t-19.5 -55.5q0 -25 13 -40.5t35 -15.5zM534 4l-1 -4
h-149l1 4l54 42l-13 159h-275l-91 -141l65 -60l-1 -4h-159l1 4l40 41l382 582l-9 69l1 4h81l57 -654zM424 238l-28 345l-223 -345h251z" />
    <glyph glyph-name="aringacute" unicode="&#x1fb;" horiz-adv-x="498" 
d="M384 743h-5l83 130h79v-5zM339 542q-40 0 -64.5 20.5t-24.5 54.5q0 43 36 71q38 30 89 30q41 0 65 -20.5t24 -54.5q0 -42 -36 -71.5t-89 -29.5zM348 562q28 0 47 24t19 55q0 26 -13 41.5t-35 15.5q-27 0 -46.5 -24.5t-19.5 -55.5q0 -25 13 -40.5t35 -15.5zM95 -15
q-72 0 -72 122q0 99 46 193t119 152.5t149 58.5q53 0 85 -23l67 43l3 -2l-46 -128l-76 -359h3l81 65l3 -4q-28 -54 -62.5 -86t-65.5 -32q-18 0 -27 13.5t-5 32.5l49 217h-4q-50 -109 -121.5 -186t-125.5 -77zM92 128q0 -91 42 -91q33 0 84.5 57t96 140.5t59.5 153.5l13 63
l-102 30q-77 -31 -135 -138.5t-58 -214.5z" />
    <glyph glyph-name="AEacute" unicode="&#x1fc;" horiz-adv-x="903" 
d="M562 745h-5l83 130h79v-5zM811 116l-24 -116h-467l1 4l51 42l35 166h-235l-112 -148l65 -60l-1 -4h-154l1 4l471 627l-9 65l1 4h463l-21 -101h-5l-101 69h-187l-59 -283h184l97 53h5l-29 -138h-5l-76 53h-185l-67 -321h221l138 84h4zM498 638h-3l-297 -392h217z" />
    <glyph glyph-name="aeacute" unicode="&#x1fd;" horiz-adv-x="691" 
d="M442 556h-4l106 180h79v-5zM95 -15q-72 0 -72 123q0 100 46 194t121 151.5t155 57.5q44 0 78.5 -16t44.5 -42q64 58 129 58q39 0 62 -21t23 -56q0 -122 -281 -190q-9 -42 -9 -84q0 -121 76 -121q88 0 178 160l4 -2q-29 -102 -85 -157t-123 -55q-57 0 -87.5 37.5
t-30.5 109.5q0 55 17 114q-50 -109 -121 -185t-125 -76zM92 128q0 -91 42 -91q37 0 96.5 71t96.5 152q48 105 111 165v3l-142 55q-80 -32 -142 -139.5t-62 -215.5zM572 482q-47 0 -95 -64t-71 -152q112 30 163.5 67.5t51.5 88.5q0 28 -13 44t-36 16z" />
    <glyph glyph-name="Oslashacute" unicode="&#x1fe;" horiz-adv-x="686" 
d="M450 745h-5l83 130h79v-5zM145 42l-71 -91l-22 19l73 93q-63 77 -63 209q0 183 107 313t257 130q98 0 159 -58l67 86l24 -19l-70 -90q61 -74 61 -206q0 -183 -107 -313t-257 -130q-97 0 -158 57zM142 270q0 -87 26 -150l378 487q-44 78 -134 78q-111 0 -190.5 -122.5
t-79.5 -292.5zM317 15q111 0 190 122.5t79 292.5q0 84 -25 147l-378 -486q46 -76 134 -76z" />
    <glyph glyph-name="oslashacute" unicode="&#x1ff;" horiz-adv-x="438" 
d="M292 556h-4l106 180h79v-5zM83 9l-38 -58l-22 15l40 62q-40 46 -40 136q0 135 78 241t178 106q47 0 82 -29l41 63l23 -15l-45 -68q35 -47 35 -130q0 -135 -78 -241t-177 -106q-45 0 -77 24zM95 136q0 -33 4 -53l233 355q-16 48 -58 48q-65 0 -122 -111.5t-57 -238.5z
M164 9q43 0 85 52t68 133.5t26 164.5q0 18 -2 42l-232 -352q18 -40 55 -40z" />
    <glyph glyph-name="Scommaaccent" unicode="&#x218;" horiz-adv-x="514" 
d="M229 -15q-60 0 -120 23t-96 60l19 94h5l120 -131q30 -18 80 -18q65 0 106.5 39t41.5 101q0 39 -23.5 77t-56.5 69.5t-66 64.5t-56.5 75.5t-23.5 88.5q0 81 59 134t148 53q98 0 168 -52l-21 -91h-5l-102 101q-25 14 -53 14q-56 0 -93 -38t-37 -93q0 -39 23.5 -77t56.5 -70
t66.5 -65t57 -75.5t23.5 -88.5q0 -85 -62.5 -140t-158.5 -55zM182 -200l-1 4q21 11 40 35q19 22 24 41v4l-55 13q-4 4 -4 14q0 17 14 28.5t34 11.5q24 0 40 -15t16 -38q0 -31 -30.5 -59t-77.5 -39z" />
    <glyph glyph-name="scommaaccent" unicode="&#x219;" horiz-adv-x="346" 
d="M128 -15q-52 0 -91.5 22t-39.5 51q0 16 11 27.5t25 11.5l94 -88q47 1 75 27t28 69q0 28 -13.5 54t-32 47t-37.5 43t-32.5 50t-13.5 60q0 64 49.5 108t121.5 44q40 0 64.5 -13.5t24.5 -35.5q0 -13 -8 -23t-21 -12l-91 53q-37 -1 -59.5 -24.5t-22.5 -62.5q0 -29 13.5 -55.5
t32.5 -48t37.5 -43t32 -50.5t13.5 -62q0 -66 -45 -107.5t-115 -41.5zM87 -200l-1 4q21 11 40 35q19 22 24 41v4l-55 13q-4 4 -4 14q0 17 14 28.5t34 11.5q24 0 40 -15t16 -38q0 -31 -30.5 -59t-77.5 -39z" />
    <glyph glyph-name="Tcommaaccent" unicode="&#x21a;" horiz-adv-x="597" 
d="M331 4l-1 -4h-167l1 4l50 42l133 622h-115l-131 -75h-5l22 107h549l-22 -107h-4l-102 75h-114l-133 -622zM169 -200l-1 4q21 11 40 35q19 22 24 41v4l-55 13q-4 4 -4 14q0 17 14 28.5t34 11.5q24 0 40 -15t16 -38q0 -31 -30.5 -59t-77.5 -39z" />
    <glyph glyph-name="tcommaaccent" unicode="&#x21b;" horiz-adv-x="335" 
d="M118 -15q-37 0 -53.5 26.5t-5.5 68.5l97 389h-85l6 27h86l32 129l71 22h4l-37 -151h129l-11 -27h-125l-98 -398q-11 -38 14 -38q24 0 71.5 38.5t86.5 87.5l4 -2q-31 -75 -83 -124q-51 -48 -103 -48zM53 -200l-1 4q21 11 40 35q19 22 24 41v4l-55 13q-4 4 -4 14
q0 17 14 28.5t34 11.5q24 0 40 -15t16 -38q0 -31 -30.5 -59t-77.5 -39z" />
    <glyph glyph-name="circumflex" unicode="&#x2c6;" horiz-adv-x="500" 
d="M320 745h19l71 -178l-3 -2l-86 112h-4l-142 -112l-3 2z" />
    <glyph glyph-name="caron" unicode="&#x2c7;" horiz-adv-x="500" 
d="M302 565h-22l-70 178l3 2l86 -112h4l142 112l3 -2z" />
    <glyph glyph-name="breve" unicode="&#x2d8;" horiz-adv-x="500" 
d="M302 583q-51 0 -80.5 28t-29.5 74q0 21 6 46h4q3 -107 105 -107q99 0 147 107h4q-15 -72 -55.5 -110t-100.5 -38z" />
    <glyph glyph-name="dotaccent" unicode="&#x2d9;" horiz-adv-x="500" 
d="M307 607q-19 0 -30 11t-11 30q0 23 16.5 39t38.5 16q19 0 30.5 -11t11.5 -30q0 -22 -16.5 -38.5t-39.5 -16.5z" />
    <glyph glyph-name="ring" unicode="&#x2da;" horiz-adv-x="500" 
d="M292 569q-40 0 -64.5 20.5t-24.5 54.5q0 42 36 71q38 30 89 30q41 0 65 -20.5t24 -54.5q0 -42 -36 -71.5t-89 -29.5zM301 589q28 0 47 24t19 55q0 26 -13 41.5t-35 15.5q-27 0 -46.5 -24.5t-19.5 -55.5q0 -25 13 -40.5t35 -15.5z" />
    <glyph glyph-name="ogonek" unicode="&#x2db;" horiz-adv-x="500" 
d="M302 -149l3 -3q-27 -48 -81 -48q-34 0 -57.5 18.5t-23.5 46.5q0 25 13 44l118 108h24q-57 -53 -77.5 -81.5t-20.5 -53.5q0 -24 13.5 -37.5t37.5 -13.5q25 0 51 20z" />
    <glyph glyph-name="tilde" unicode="&#x2dc;" horiz-adv-x="500" 
d="M374 606q-23 0 -69 27t-69 27q-17 0 -37 -11q-16 -9 -59 -50l-3 3q45 64 69 82q26 20 48 20q23 0 69 -27t69 -27q16 0 35 11q16 9 59 50l3 -3q-42 -59 -67 -80.5t-48 -21.5z" />
    <glyph glyph-name="hungarumlaut" unicode="&#x2dd;" horiz-adv-x="500" 
d="M155 565h-4l106 180h79v-5zM285 565h-4l106 180h79v-5z" />
    <glyph glyph-name="commaaccent" unicode="&#x326;" horiz-adv-x="500" 
d="M179 -200l-1 4q21 11 40 35q19 22 24 41v4l-55 13q-4 4 -4 14q0 17 14 28.5t34 11.5q24 0 40 -15t16 -38q0 -31 -30.5 -59t-77.5 -39z" />
    <glyph glyph-name="pi" unicode="&#x3c0;" horiz-adv-x="559" 
d="M87 0h-109l1 5l116 75l121 336l1 6h-133l30 74h482l-16 -74h-114q-85 -195 -85 -290q0 -39 18.5 -61.5t49.5 -22.5q37 0 71 42l3 -3q-43 -102 -107 -102q-35 0 -57 28t-22 76q0 58 32 155t70 178h-196q-85 -317 -156 -422z" />
    <glyph glyph-name="Wgrave" unicode="&#x1e80;" horiz-adv-x="854" 
d="M440 875h70l31 -130h-5l-96 125v5zM467 519l-325 -519h-22l2 654l-15 42l1 4h150l-1 -4l-55 -42l-7 -510l276 443l4 67l-12 42l2 4h139l-2 -4l-48 -42l-39 -506l319 488l-49 60l2 4h161l-2 -4l-68 -60l-423 -636h-20z" />
    <glyph glyph-name="wgrave" unicode="&#x1e81;" horiz-adv-x="675" 
d="M334 736h69l35 -180h-4l-100 175v5zM371 256l-191 -256h-23l-48 450h-4l-78 -24l-3 4q30 33 69 55t71 22h9l44 -418l150 202l-17 159h-4l-78 -25l-3 4q31 34 69 56t71 22h9l43 -421l33 46q77 105 104 158.5t27 98.5q0 86 -86 86h-8l-2 4q40 33 85 33q33 0 52.5 -21.5
t19.5 -57.5q0 -47 -34.5 -111.5t-124.5 -184.5l-102 -137h-23z" />
    <glyph glyph-name="Wacute" unicode="&#x1e82;" horiz-adv-x="854" 
d="M540 745h-5l83 130h79v-5zM467 519l-325 -519h-22l2 654l-15 42l1 4h150l-1 -4l-55 -42l-7 -510l276 443l4 67l-12 42l2 4h139l-2 -4l-48 -42l-39 -506l319 488l-49 60l2 4h161l-2 -4l-68 -60l-423 -636h-20z" />
    <glyph glyph-name="wacute" unicode="&#x1e83;" horiz-adv-x="675" 
d="M436 556h-4l106 180h79v-5zM371 256l-191 -256h-23l-48 450h-4l-78 -24l-3 4q30 33 69 55t71 22h9l44 -418l150 202l-17 159h-4l-78 -25l-3 4q31 34 69 56t71 22h9l43 -421l33 46q77 105 104 158.5t27 98.5q0 86 -86 86h-8l-2 4q40 33 85 33q33 0 52.5 -21.5t19.5 -57.5
q0 -47 -34.5 -111.5t-124.5 -184.5l-102 -137h-23z" />
    <glyph glyph-name="Wdieresis" unicode="&#x1e84;" horiz-adv-x="854" 
d="M466 771q-15 0 -24 9t-9 24q0 18 13 31.5t32 13.5q34 0 34 -33q0 -18 -13 -31.5t-33 -13.5zM626 771q-15 0 -24.5 9t-9.5 24q0 18 13.5 31.5t32.5 13.5q15 0 24.5 -9t9.5 -24q0 -18 -13 -31.5t-33 -13.5zM467 519l-325 -519h-22l2 654l-15 42l1 4h150l-1 -4l-55 -42
l-7 -510l276 443l4 67l-12 42l2 4h139l-2 -4l-48 -42l-39 -506l319 488l-49 60l2 4h161l-2 -4l-68 -60l-423 -636h-20z" />
    <glyph glyph-name="wdieresis" unicode="&#x1e85;" horiz-adv-x="675" 
d="M367 616q-15 0 -24 9t-9 24q0 18 13 31.5t32 13.5q34 0 34 -33q0 -18 -13 -31.5t-33 -13.5zM527 616q-15 0 -24.5 9t-9.5 24q0 18 13.5 31.5t32.5 13.5q15 0 24.5 -9t9.5 -24q0 -18 -13 -31.5t-33 -13.5zM371 256l-191 -256h-23l-48 450h-4l-78 -24l-3 4q30 33 69 55
t71 22h9l44 -418l150 202l-17 159h-4l-78 -25l-3 4q31 34 69 56t71 22h9l43 -421l33 46q77 105 104 158.5t27 98.5q0 86 -86 86h-8l-2 4q40 33 85 33q33 0 52.5 -21.5t19.5 -57.5q0 -47 -34.5 -111.5t-124.5 -184.5l-102 -137h-23z" />
    <glyph glyph-name="Ygrave" unicode="&#x1ef2;" horiz-adv-x="592" 
d="M303 875h70l31 -130h-5l-96 125v5zM330 4l-1 -4h-166l1 4l49 42l61 284l-130 325l-23 42l1 3h156l-1 -4l-50 -42l115 -292l218 274l-42 60l1 4h139l-1 -4l-52 -60l-253 -309l-60 -281z" />
    <glyph glyph-name="ygrave" unicode="&#x1ef3;" horiz-adv-x="439" 
d="M185 736h69l35 -180h-4l-100 175v5zM-18 -200q-32 0 -52 14.5t-20 40.5t24 33l110 -45q23 8 60.5 44t62.5 76l-53 487h-4l-79 -24l-3 4q30 33 69.5 55t71.5 22h9l47 -462l87 155q72 126 72 199q0 37 -22.5 56.5t-63.5 19.5h-8l-2 4q39 33 86 33q34 0 53 -20.5t19 -55.5
t-24.5 -89t-83.5 -152l-111 -189q-125 -206 -245 -206z" />
    <glyph glyph-name="endash" unicode="&#x2013;" horiz-adv-x="500" 
d="M485 255h-460l7 33h460z" />
    <glyph glyph-name="emdash" unicode="&#x2014;" horiz-adv-x="1000" 
d="M985 255h-960l7 33h960z" />
    <glyph glyph-name="quoteleft" unicode="&#x2018;" horiz-adv-x="231" 
d="M309 718l2 -4q-63 -20 -102 -58t-39 -79q0 -20 9 -29l56 -16q3 -9 3 -18q0 -23 -14.5 -38.5t-37.5 -15.5q-28 0 -45 22t-17 59q0 67 52 116.5t133 60.5z" />
    <glyph glyph-name="quoteright" unicode="&#x2019;" horiz-adv-x="231" 
d="M87 462l-2 4q63 20 102 58t39 79q0 20 -9 29l-56 16q-3 9 -3 18q0 23 14.5 38.5t37.5 15.5q28 0 45 -22t17 -59q0 -68 -51.5 -116.5t-133.5 -60.5z" />
    <glyph glyph-name="quotesinglbase" unicode="&#x201a;" horiz-adv-x="231" 
d="M-38 -136l-2 4q63 20 102 58t39 79q0 20 -9 29l-56 16q-3 9 -3 18q0 23 14.5 38.5t37.5 15.5q28 0 45 -22t17 -59q0 -68 -51.5 -116.5t-133.5 -60.5z" />
    <glyph glyph-name="quotedblleft" unicode="&#x201c;" horiz-adv-x="411" 
d="M309 718l2 -4q-63 -20 -102 -58t-39 -79q0 -20 9 -29l56 -16q3 -9 3 -18q0 -23 -14.5 -38.5t-37.5 -15.5q-28 0 -45 22t-17 59q0 67 52 116.5t133 60.5zM488 718l2 -4q-63 -20 -102 -58t-39 -79q0 -20 9 -29l56 -16q3 -9 3 -18q0 -23 -14.5 -38.5t-37.5 -15.5
q-28 0 -45 22t-17 59q0 67 52 116.5t133 60.5z" />
    <glyph glyph-name="quotedblright" unicode="&#x201d;" horiz-adv-x="411" 
d="M87 462l-2 4q63 20 102 58t39 79q0 20 -9 29l-56 16q-3 9 -3 18q0 23 14.5 38.5t37.5 15.5q28 0 45 -22t17 -59q0 -68 -51.5 -116.5t-133.5 -60.5zM266 462l-2 4q63 20 102 58t39 79q0 20 -9 29l-56 16q-3 9 -3 18q0 23 14.5 38.5t37.5 15.5q28 0 45 -22t17 -59
q0 -68 -51.5 -116.5t-133.5 -60.5z" />
    <glyph glyph-name="quotedblbase" unicode="&#x201e;" horiz-adv-x="411" 
d="M-39 -136l-2 4q63 20 102 58t39 79q0 20 -9 29l-56 16q-3 9 -3 18q0 23 14.5 38.5t37.5 15.5q28 0 45 -22t17 -59q0 -68 -51.5 -116.5t-133.5 -60.5zM139 -136l-2 4q63 20 102 58t39 79q0 20 -9 29l-56 16q-3 9 -3 18q0 23 14.5 38.5t37.5 15.5q28 0 45 -22t17 -59
q0 -68 -51.5 -116.5t-133.5 -60.5z" />
    <glyph glyph-name="dagger" unicode="&#x2020;" horiz-adv-x="315" 
d="M236 448l-103 -383h-17l59 383l46 117l-134 -12l12 54l129 -13l9 151h64l-56 -151l135 13l-12 -54l-129 12z" />
    <glyph glyph-name="daggerdbl" unicode="&#x2021;" horiz-adv-x="315" 
d="M165 216l-18 -151h-47l47 151l-134 -13l12 54l128 -12l11 151l3 18l54 151l-134 -12l12 54l128 -13l10 151h64l-56 -151l135 13l-12 -54l-129 12l-11 -151l-3 -18l-54 -151l134 12l-11 -54z" />
    <glyph glyph-name="bullet" unicode="&#x2022;" horiz-adv-x="462" 
d="M53 350q0 85 57 140.5t144 55.5t144 -55.5t57 -140.5q0 -84 -57 -139.5t-144 -55.5t-144 55.5t-57 139.5z" />
    <glyph glyph-name="ellipsis" unicode="&#x2026;" horiz-adv-x="694" 
d="M64 -7q-20 0 -32.5 12.5t-12.5 34.5q0 29 17.5 43t42.5 14q45 0 45 -47q0 -28 -18 -42.5t-42 -14.5zM296 -7q-20 0 -32.5 12.5t-12.5 34.5q0 29 17.5 43t42.5 14q45 0 45 -47q0 -28 -18 -42.5t-42 -14.5zM527 -7q-20 0 -32.5 12.5t-12.5 34.5q0 29 17.5 43t42.5 14
q45 0 45 -47q0 -28 -18 -42.5t-42 -14.5z" />
    <glyph glyph-name="perthousand" unicode="&#x2030;" horiz-adv-x="989" 
d="M192 343q-49 0 -77.5 34.5t-28.5 95.5q0 96 56.5 169t130.5 73q49 0 77 -34.5t28 -95.5q0 -95 -56 -168.5t-130 -73.5zM134 0h-37l476 700h38zM194 363q44 0 82.5 79t38.5 169q0 84 -45 84q-44 0 -82.5 -79.5t-38.5 -169.5q0 -83 45 -83zM436 -15q-49 0 -77.5 34.5
t-28.5 95.5q0 96 56.5 169t130.5 73q49 0 77 -34.5t28 -95.5q0 -95 -56 -168.5t-130 -73.5zM755 -15q-49 0 -77.5 34.5t-28.5 95.5q0 96 56.5 169t130.5 73q49 0 77 -34.5t28 -95.5q0 -95 -56 -168.5t-130 -73.5zM438 5q44 0 82.5 79t38.5 169q0 84 -45 84
q-44 0 -82.5 -79.5t-38.5 -169.5q0 -83 45 -83zM757 5q44 0 82.5 79t38.5 169q0 84 -45 84q-44 0 -82.5 -79.5t-38.5 -169.5q0 -83 45 -83z" />
    <glyph glyph-name="guilsinglleft" unicode="&#x2039;" horiz-adv-x="191" 
d="M153 106l-3 -14l-118 168l5 22l189 169l-3 -14l-134 -169v-2z" />
    <glyph glyph-name="guilsinglright" unicode="&#x203a;" horiz-adv-x="191" 
d="M55 436l3 14l118 -168l-5 -22l-189 -169l3 14l134 169v2z" />
    <glyph glyph-name="fraction" unicode="&#x2044;" horiz-adv-x="129" 
d="M-114 0h-37l476 700h38z" />
    <glyph glyph-name="zerosuperior" unicode="&#x2070;" horiz-adv-x="330" 
d="M207 341q-48 0 -75.5 35t-27.5 97q0 120 55 208t132 88q48 0 75.5 -35t27.5 -97q0 -120 -55 -208t-132 -88zM209 362q44 0 82 96t38 196q0 94 -40 94q-43 0 -81.5 -96.5t-38.5 -196.5q0 -93 40 -93z" />
    <glyph glyph-name="foursuperior" unicode="&#x2074;" horiz-adv-x="330" 
d="M329 352l-1 -2h-120v2l29 27l17 81h-177l1 3l243 297h69l-58 -272h24l28 26h3l-12 -54h-49l-17 -81zM307 708l-180 -220h133z" />
    <glyph glyph-name="fivesuperior" unicode="&#x2075;" horiz-adv-x="330" 
d="M200 341q-66 0 -108 33l14 65h2l61 -68q13 -9 35 -9q41 0 67.5 26.5t26.5 69.5q0 80 -133 178v3l41 116l143 12l29 25h3l-16 -77l-163 -14l-2 -7q159 -102 159 -211q0 -61 -45.5 -101.5t-113.5 -40.5z" />
    <glyph glyph-name="sixsuperior" unicode="&#x2076;" horiz-adv-x="330" 
d="M235 341q-60 0 -98 39.5t-38 103.5q0 99 85 178t224 107l1 -3q-117 -59 -180.5 -137.5t-63.5 -161.5q0 -47 20.5 -76t52.5 -29q30 0 48.5 24t18.5 61q0 43 -24.5 71t-67.5 35v3l57 19q47 0 76 -30t29 -76q0 -54 -40.5 -91t-99.5 -37z" />
    <glyph glyph-name="sevensuperior" unicode="&#x2077;" horiz-adv-x="330" 
d="M427 757l-253 -407h-49v3l242 338v2h-185l-28 -26h-3l19 93h258z" />
    <glyph glyph-name="eightsuperior" unicode="&#x2078;" horiz-adv-x="330" 
d="M216 341q-57 0 -93.5 30t-36.5 77q0 41 31 69l87 41q-53 44 -53 95q0 49 39 82.5t95 33.5q49 0 81 -25t32 -65q0 -34 -24 -55l-85 -39q27 -19 41.5 -31.5t28 -35.5t13.5 -49q0 -53 -46 -90.5t-110 -37.5zM219 680q0 -43 60 -88q68 36 68 86q0 32 -17.5 51t-44.5 19
q-29 0 -47.5 -20t-18.5 -48zM142 452q0 -39 23 -64.5t59 -25.5q35 0 57 22.5t22 55.5q0 12 -4 24t-9 20t-16 18.5t-17.5 15.5t-21.5 16.5t-20 15.5q-73 -36 -73 -98z" />
    <glyph glyph-name="ninesuperior" unicode="&#x2079;" horiz-adv-x="330" 
d="M261 769q60 0 98 -39t38 -104q0 -99 -85 -178t-224 -107l-1 3q117 59 180.5 137.5t63.5 161.5q0 47 -20.5 76t-52.5 29q-30 0 -48.5 -23.5t-18.5 -61.5q0 -43 24.5 -71t67.5 -35v-3l-57 -19q-45 0 -75 30.5t-30 75.5q0 54 41 91t99 37z" />
    <glyph glyph-name="plussuperior" unicode="&#x207a;" horiz-adv-x="275" 
d="M191 540h-97v30h97v97h31v-97h98v-30h-98v-99h-31v99z" />
    <glyph glyph-name="minussuperior" unicode="&#x207b;" horiz-adv-x="203" 
d="M248 540h-154v30h154v-30z" />
    <glyph glyph-name="equalsuperior" unicode="&#x207c;" horiz-adv-x="275" 
d="M320 588h-226v31h226v-31zM320 490h-226v30h226v-30z" />
    <glyph glyph-name="parenleftsuperior" unicode="&#x207d;" horiz-adv-x="182" 
d="M104 496q0 102 52 187t145 135v-2q-159 -154 -159 -342q0 -100 49 -179l-2 -2q-85 71 -85 203z" />
    <glyph glyph-name="parenrightsuperior" unicode="&#x207e;" horiz-adv-x="182" 
d="M240 614q0 -101 -52.5 -186.5t-144.5 -135.5v2q159 154 159 342q0 100 -49 179l2 2q85 -68 85 -203z" />
    <glyph glyph-name="zeroinferior" unicode="&#x2080;" horiz-adv-x="330" 
d="M114 -69q-48 0 -75.5 35t-27.5 97q0 120 55 208t132 88q48 0 75.5 -35t27.5 -97q0 -120 -55 -208t-132 -88zM116 -48q44 0 82 96t38 196q0 94 -40 94q-43 0 -81.5 -96.5t-38.5 -196.5q0 -93 40 -93z" />
    <glyph glyph-name="oneinferior" unicode="&#x2081;" horiz-adv-x="234" 
d="M134 -58v-2h-120v2l29 27l69 323h-49v2l93 56h40l-82 -381z" />
    <glyph glyph-name="twoinferior" unicode="&#x2082;" horiz-adv-x="330" 
d="M261 17l-15 -77h-268l1 3l117 106q75 68 102 109t27 88q0 32 -20 51.5t-52 19.5q-68 0 -99 -85l-3 1q4 57 39.5 91.5t90.5 34.5q50 0 82 -30t32 -77q0 -51 -35 -93l-204 -168h173l29 26h3z" />
    <glyph glyph-name="threeinferior" unicode="&#x2083;" horiz-adv-x="330" 
d="M111 -69q-72 0 -116 33l14 65h3l61 -68q16 -9 36 -9q43 0 70 25.5t27 64.5q0 45 -35.5 72t-95.5 28v3l61 37q19 0 34 -4q58 25 58 72q0 31 -19 49t-51 18q-60 0 -92 -75h-3q4 53 38 85t86 32q47 0 75.5 -23t28.5 -60q0 -40 -36 -70l-71 -31q42 -12 66 -41t24 -70
q0 -57 -46.5 -95t-116.5 -38z" />
    <glyph glyph-name="fourinferior" unicode="&#x2084;" horiz-adv-x="330" 
d="M236 -58l-1 -2h-120v2l29 27l17 81h-177l1 3l243 297h69l-58 -272h24l28 26h3l-12 -54h-49l-17 -81zM214 298l-180 -220h133z" />
    <glyph glyph-name="fiveinferior" unicode="&#x2085;" horiz-adv-x="330" 
d="M107 -69q-66 0 -108 33l14 65h2l61 -68q14 -9 35 -9q41 0 67.5 26.5t26.5 69.5q0 80 -133 178v3l41 116l143 12l29 25h3l-16 -77l-163 -14l-2 -7q159 -102 159 -211q0 -61 -45.5 -101.5t-113.5 -40.5z" />
    <glyph glyph-name="sixinferior" unicode="&#x2086;" horiz-adv-x="330" 
d="M142 -69q-60 0 -98 39.5t-38 103.5q0 99 85 178t224 107l1 -3q-117 -59 -180.5 -137.5t-63.5 -161.5q0 -47 20.5 -76t52.5 -29q30 0 48.5 24t18.5 61q0 43 -24.5 71t-67.5 35v3l57 19q47 0 76 -30t29 -76q0 -54 -40.5 -91t-99.5 -37z" />
    <glyph glyph-name="seveninferior" unicode="&#x2087;" horiz-adv-x="330" 
d="M334 347l-253 -407h-49v3l242 338v2h-185l-28 -26h-3l19 93h258z" />
    <glyph glyph-name="eightinferior" unicode="&#x2088;" horiz-adv-x="330" 
d="M128 -69q-57 0 -93 30t-36 77q0 39 30 69l88 42q-54 43 -54 94q0 49 39 82.5t95 33.5q49 0 81 -25t32 -65q0 -34 -24 -55l-85 -39q27 -19 41.5 -31.5t28 -35.5t13.5 -49q0 -53 -46 -90.5t-110 -37.5zM131 270q0 -43 60 -88q68 36 68 86q0 32 -17.5 51t-44.5 19
q-29 0 -47.5 -20t-18.5 -48zM54 42q0 -40 23 -65t59 -25q35 0 57.5 22.5t22.5 55.5q0 13 -4 24.5t-9 19.5t-16.5 19t-17.5 15.5t-21.5 16t-20.5 15.5q-73 -36 -73 -98z" />
    <glyph glyph-name="nineinferior" unicode="&#x2089;" horiz-adv-x="330" 
d="M173 359q60 0 98 -39t38 -104q0 -99 -85 -178t-224 -107l-1 3q117 59 180.5 137.5t63.5 161.5q0 47 -20.5 76t-52.5 29q-30 0 -48.5 -23.5t-18.5 -61.5q0 -43 24.5 -71t67.5 -35v-3l-57 -19q-45 0 -75 30.5t-30 75.5q0 54 41 91t99 37z" />
    <glyph glyph-name="plusinferior" unicode="&#x208a;" horiz-adv-x="275" 
d="M98 130h-97v30h97v97h31v-97h98v-30h-98v-99h-31v99z" />
    <glyph glyph-name="minusinferior" unicode="&#x208b;" horiz-adv-x="203" 
d="M155 130h-154v30h154v-30z" />
    <glyph glyph-name="equalinferior" unicode="&#x208c;" horiz-adv-x="275" 
d="M227 178h-226v31h226v-31zM227 80h-226v30h226v-30z" />
    <glyph glyph-name="parenleftinferior" unicode="&#x208d;" horiz-adv-x="182" 
d="M16 86q0 102 52 187t145 135v-2q-159 -154 -159 -342q0 -100 49 -179l-2 -2q-85 71 -85 203z" />
    <glyph glyph-name="parenrightinferior" unicode="&#x208e;" horiz-adv-x="182" 
d="M154 205q0 -101 -52.5 -186.5t-144.5 -135.5v2q159 155 159 342q0 100 -49 179l2 2q85 -68 85 -203z" />
    <glyph glyph-name="Euro" unicode="&#x20ac;" 
d="M75 276h-77l5 20h74q5 59 14 95h-68l4 20h69q39 136 133.5 220t213.5 84q79 0 131 -31l-18 -79h-5l-105 77q-9 3 -24 3q-79 0 -146.5 -76.5t-101.5 -197.5h259l-11 -20h-253q-10 -42 -15 -95h227l-10 -20h-219q-1 -13 -1 -39q0 -95 43.5 -158.5t108.5 -63.5q15 0 24 3
l123 91h4l-20 -92q-50 -32 -129 -32q-105 0 -167.5 73t-62.5 195v23z" />
    <glyph glyph-name="litre" unicode="&#x2113;" horiz-adv-x="424" 
d="M196 -15q-37 0 -58.5 27.5t-21.5 78.5q0 41 15 121l-85 -47l5 27l85 47l1 4l6 30q51 240 99.5 341t113.5 101q78 0 78 -107q0 -98 -67.5 -194t-167.5 -162l-2 -9q-24 -113 -24 -162q0 -68 44 -68q35 0 77 50l3 -3q-13 -33 -40 -54t-61 -21zM357 690q-34 0 -67.5 -90
t-84.5 -319q83 60 135 149t52 182q0 78 -35 78z" />
    <glyph glyph-name="numero" unicode="&#x2116;" horiz-adv-x="911" 
d="M778 339q-49 0 -77.5 34.5t-28.5 95.5q0 96 56.5 169t130.5 73q49 0 77 -34.5t28 -95.5q0 -95 -56 -168.5t-130 -73.5zM780 359q44 0 82.5 79t38.5 169q0 84 -45 84q-44 0 -82.5 -79.5t-38.5 -169.5q0 -83 45 -83zM564 521l-112 -521h-19l-245 464l-87 -411l44 -50l-1 -3
h-123l1 3l44 50l97 459l-39 59v4h89l233 -442l82 388l-44 51l1 3h123v-3z" />
    <glyph glyph-name="published" unicode="&#x2117;" horiz-adv-x="834" 
d="M440 -15q-156 0 -254.5 101t-98.5 260q0 162 102 265.5t261 103.5q157 0 255.5 -101t98.5 -260q0 -162 -102 -265.5t-262 -103.5zM458 19q140 0 221 84t81 232q0 157 -89.5 251.5t-238.5 94.5q-140 0 -220.5 -83.5t-80.5 -232.5q0 -156 89.5 -251t237.5 -95zM445 166v-3
h-128v3l27 29v316l-27 29v3h201q43 -7 70.5 -40t27.5 -76q0 -50 -40.5 -81.5t-105.5 -31.5h-54v-119zM426 527h-10v-192h33q46 0 72 23t26 63q0 47 -33.5 76.5t-87.5 29.5z" />
    <glyph glyph-name="trademark" unicode="&#x2122;" horiz-adv-x="796" 
d="M742 617l-126 -224h-2l-126 218v-222l41 -36v-3h-96v3l27 36v264l-27 45v2h74l130 -217l122 217h75v-2l-27 -28v-289l27 -28v-3h-119v3l27 28v236zM301 353v-3h-120v3l28 28v299h-40l-77 -49h-3v69h305v-69h-3l-75 49h-42v-299z" />
    <glyph glyph-name="Omega" unicode="&#x2126;" horiz-adv-x="686" 
d="M621 103l-22 -103h-260l1 5q107 49 182.5 169.5t75.5 252.5q0 121 -46.5 189.5t-128.5 68.5q-111 0 -190.5 -121.5t-79.5 -292.5q0 -89 32 -163.5t83 -102.5l-1 -5h-264l23 103h4l26 -44h133v4q-114 97 -114 247q0 105 48 198.5t130.5 150t176.5 56.5q112 0 180 -78.5
t68 -201.5q0 -121 -65 -222.5t-165 -149.5v-4h119l49 44h5z" />
    <glyph glyph-name="estimated" unicode="&#x212e;" horiz-adv-x="860" 
d="M453 -15q-163 0 -278.5 107.5t-115.5 258.5t115.5 257.5t279.5 106.5t279 -106.5t115 -257.5v-12h-648v-222q44 -45 113.5 -73t140.5 -28q101 0 187.5 49t129.5 127h38q-47 -93 -143.5 -150t-212.5 -57zM200 585v-213h500v219q-104 93 -246 93q-73 0 -141 -26.5
t-113 -72.5z" />
    <glyph glyph-name="partialdiff" unicode="&#x2202;" horiz-adv-x="495" 
d="M170 -15q-64 0 -104.5 48t-40.5 129q0 128 87.5 236.5t193.5 108.5q36 0 66 -15l68 -57h3q13 64 13 114q0 75 -34 134t-79 60l-111 -72h-4l19 93q32 6 65 6q99 0 155.5 -70t56.5 -185q0 -127 -51.5 -250.5t-134.5 -201.5t-168 -78zM163 16q79 0 161.5 118.5t113.5 278.5
q-39 42 -97 42q-60 0 -122.5 -49t-102 -124t-39.5 -148q0 -54 23.5 -86t62.5 -32z" />
    <glyph glyph-name="increment" unicode="&#x2206;" horiz-adv-x="601" 
d="M534 4l-1 -4h-568l1 4l40 41l382 582l-9 69l1 4h81l57 -654zM441 42l-45 541l-350 -541h395z" />
    <glyph glyph-name="product" unicode="&#x220f;" horiz-adv-x="737" 
d="M161 -150h-167l1 4l51 42l162 758l-39 42l1 4h576l-1 -4l-50 -42l-162 -758l38 -42l-1 -4h-167l1 4l51 42l165 771h-330l-166 -771l38 -42z" />
    <glyph glyph-name="summation" unicode="&#x2211;" horiz-adv-x="625" 
d="M508 -4l-31 -146h-493l2 9l335 463l-163 373l2 5h476l-23 -103h-5l-108 71h-240l134 -303l-1 -7l-317 -437h287l140 75h5z" />
    <glyph glyph-name="minus" unicode="&#x2212;" horiz-adv-x="306" 
d="M286 253h-257v37h257v-37z" />
    <glyph glyph-name="radical" unicode="&#x221a;" horiz-adv-x="421" 
d="M535 770l-358 -770h-19l-61 386l-55 -20l-7 29l121 41l46 -316l300 650h33z" />
    <glyph glyph-name="infinity" unicode="&#x221e;" horiz-adv-x="782" 
d="M599 102q-63 0 -106 35t-85 100q-42 -64 -85.5 -99.5t-105.5 -35.5q-75 0 -121 49.5t-46 119.5q0 71 45.5 120.5t120.5 49.5q63 0 107 -35.5t85 -100.5q42 65 85 100.5t106 35.5q74 0 120.5 -49.5t46.5 -120.5q0 -70 -46.5 -119.5t-120.5 -49.5zM600 136q53 0 90.5 39.5
t37.5 95.5t-37.5 95t-90.5 39q-29 0 -53 -10t-46 -32t-35.5 -40t-35.5 -52q23 -34 36 -52t35 -40.5t46 -32.5t53 -10zM87 271q0 -56 38 -95.5t91 -39.5q37 0 70.5 21.5t51.5 45t48 68.5q-29 45 -47.5 68t-51.5 44.5t-71 21.5q-53 0 -91 -39t-38 -95z" />
    <glyph glyph-name="integral" unicode="&#x222b;" horiz-adv-x="384" 
d="M-19 -205q-27 0 -55 13l12 57h5l82 -35q20 10 43.5 71.5t39.5 137.5l100 466q27 130 77 197.5t118 67.5q32 0 55 -13l-12 -57h-4l-83 36q-20 -10 -43.5 -72t-39.5 -138l-99 -466q-28 -129 -78 -197t-118 -68z" />
    <glyph glyph-name="approxequal" unicode="&#x2248;" horiz-adv-x="426" 
d="M323 295q-34 0 -93 33.5t-84 33.5q-40 0 -83 -49l-26 25q55 61 109 61q34 0 93.5 -33.5t83.5 -33.5q41 0 83 49l26 -25q-55 -61 -109 -61zM323 143q-34 0 -93 33.5t-84 33.5q-40 0 -83 -49l-26 25q55 61 109 61q34 0 93.5 -33.5t83.5 -33.5q41 0 83 49l26 -25
q-55 -61 -109 -61z" />
    <glyph glyph-name="notequal" unicode="&#x2260;" horiz-adv-x="426" 
d="M129 58h-39l56 116h-121v37h139l58 120h-197v37h215l56 115h40l-56 -115h122v-37h-140l-58 -120h198v-37h-217z" />
    <glyph glyph-name="lessequal" unicode="&#x2264;" horiz-adv-x="426" 
d="M108 309l297 -109v-37l-389 144v8l389 143v-37l-297 -108v-4zM406 88h-377v37h377v-37z" />
    <glyph glyph-name="greaterequal" unicode="&#x2265;" horiz-adv-x="426" 
d="M303 313l-297 109v37l389 -144v-8l-389 -143v37l297 108v4zM406 88h-377v37h377v-37z" />
    <glyph glyph-name="blacksquare" unicode="&#x25a0;" horiz-adv-x="462" 
d="M437 172h-356v356h356v-356z" />
    <glyph glyph-name="squaresmallblack" unicode="&#x25aa;" horiz-adv-x="262" 
d="M228 279h-142v143h142v-143z" />
    <glyph glyph-name="blackdiamond" unicode="&#x25c6;" horiz-adv-x="462" 
d="M259 121l-229 229l229 229l229 -229z" />
    <glyph glyph-name="lozenge" unicode="&#x25ca;" horiz-adv-x="430" 
d="M257 605l138 -322l-138 -322h-54l-139 322l138 322h55zM232 569h-6l-123 -286l124 -286h6l123 286z" />
    <glyph glyph-name="blackcircle" unicode="&#x25cf;" horiz-adv-x="462" 
d="M56 350q0 85 57 140.5t144 55.5t144 -55.5t57 -140.5q0 -84 -57 -139.5t-144 -55.5t-144 55.5t-57 139.5z" />
    <glyph glyph-name="blacksmalldiamond" unicode="&#x2b29;" horiz-adv-x="262" 
d="M158 259l-92 91l92 92l91 -92z" />
    <glyph glyph-name="s_t" unicode="&#xfb06;" horiz-adv-x="680" 
d="M128 -15q-52 0 -91.5 22t-39.5 51q0 16 11 27.5t25 11.5l94 -88q47 1 75 27t28 69q0 28 -13.5 54t-32 47t-37.5 43t-32.5 50t-13.5 60q0 56 36.5 96.5t94.5 51.5q-42 78 -42 138q0 125 143 125q106 0 235 -59l60 19h4l-58 -234h130l-11 -27h-126l-98 -398q-8 -38 15 -38
q22 0 71.5 39.5t85.5 86.5l4 -2q-32 -76 -83.5 -124t-101.5 -48q-38 0 -53.5 26t-5.5 69l97 389h-85l6 27h85l51 205q-126 32 -201 32q-131 0 -131 -114q0 -39 24 -110q16 2 25 2q40 0 64.5 -13.5t24.5 -35.5q0 -13 -8 -23t-21 -12l-91 53q-37 -1 -59.5 -24.5t-22.5 -62.5
q0 -29 13.5 -55.5t32.5 -48t37.5 -43t32 -50.5t13.5 -62q0 -66 -45 -107.5t-115 -41.5z" />
    <glyph glyph-name="blackslightlysmallcircle" unicode="&#x1f784;" horiz-adv-x="262" 
d="M77 350q0 34 23 56.5t57 22.5q35 0 58 -22.5t23 -56.5t-23 -56t-58 -22q-34 0 -57 22t-23 56z" />
    <glyph glyph-name="germandbls.cap" horiz-adv-x="1028" 
d="M229 -15q-60 0 -120 23t-96 60l19 94h5l120 -131q30 -18 80 -18q65 0 106.5 39t41.5 101q0 39 -23.5 77t-56.5 69.5t-66 64.5t-56.5 75.5t-23.5 88.5q0 81 59 134t148 53q98 0 168 -52l-21 -91h-5l-102 101q-25 14 -53 14q-56 0 -93 -38t-37 -93q0 -39 23.5 -77t56.5 -70
t66.5 -65t57 -75.5t23.5 -88.5q0 -85 -62.5 -140t-158.5 -55zM742 -15q-60 0 -120 23t-96 60l19 94h5l120 -131q30 -18 80 -18q65 0 106.5 39t41.5 101q0 39 -23.5 77t-56.5 69.5t-66 64.5t-56.5 75.5t-23.5 88.5q0 81 59 134t148 53q98 0 168 -52l-21 -91h-5l-102 101
q-25 14 -53 14q-56 0 -93 -38t-37 -93q0 -39 23.5 -77t57 -70t66.5 -65t56.5 -75.5t23.5 -88.5q0 -85 -62.5 -140t-158.5 -55z" />
    <glyph glyph-name="i.TRK" horiz-adv-x="274" 
d="M236 665q-43 0 -43 43q0 24 15.5 39.5t39.5 15.5q42 0 42 -42q0 -25 -15.5 -40.5t-38.5 -15.5zM92 -15q-18 0 -27 12t-5 29l87 413h-4l-81 -66l-2 5q33 61 65.5 89.5t72.5 28.5h31l-95 -454h3l80 65l4 -4q-28 -53 -63 -85.5t-66 -32.5z" />
    <glyph glyph-name="A.small" horiz-adv-x="502" 
d="M445 3l-1 -3h-133l1 3l45 36l-10 127h-223l-73 -113l53 -50l-1 -3h-131v3l34 36l311 475l-7 58l1 3h76l45 -536zM345 194l-22 282l-181 -282h203z" />
    <glyph glyph-name="Agrave.small" horiz-adv-x="502" 
d="M266 749h70l31 -130h-5l-96 125v5zM445 3l-1 -3h-133l1 3l45 36l-10 127h-223l-73 -113l53 -50l-1 -3h-131v3l34 36l311 475l-7 58l1 3h76l45 -536zM345 194l-22 282l-181 -282h203z" />
    <glyph glyph-name="Aacute.small" horiz-adv-x="502" 
d="M393 619h-5l83 130h79v-5zM445 3l-1 -3h-133l1 3l45 36l-10 127h-223l-73 -113l53 -50l-1 -3h-131v3l34 36l311 475l-7 58l1 3h76l45 -536zM345 194l-22 282l-181 -282h203z" />
    <glyph glyph-name="Acircumflex.small" horiz-adv-x="502" 
d="M382 749h20l82 -128l-4 -2l-93 80h-4l-135 -80l-2 2zM445 3l-1 -3h-133l1 3l45 36l-10 127h-223l-73 -113l53 -50l-1 -3h-131v3l34 36l311 475l-7 58l1 3h76l45 -536zM345 194l-22 282l-181 -282h203z" />
    <glyph glyph-name="Atilde.small" horiz-adv-x="502" 
d="M439 636q-23 0 -69 26t-69 26q-19 0 -38 -11.5t-57 -47.5l-3 3q47 61 70 80.5t46 19.5q24 0 69 -26t69 -26q16 0 36 11q17 9 59 48l2 -3q-44 -60 -68.5 -80t-46.5 -20zM445 3l-1 -3h-133l1 3l45 36l-10 127h-223l-73 -113l53 -50l-1 -3h-131v3l34 36l311 475l-7 58l1 3
h76l45 -536zM345 194l-22 282l-181 -282h203z" />
    <glyph glyph-name="Adieresis.small" horiz-adv-x="502" 
d="M292 646q-15 0 -24 9t-9 24q0 18 13 31.5t32 13.5q34 0 34 -33q0 -18 -13 -31.5t-33 -13.5zM452 646q-15 0 -24.5 9t-9.5 24q0 18 13.5 31.5t32.5 13.5q15 0 24.5 -9t9.5 -24q0 -18 -13 -31.5t-33 -13.5zM445 3l-1 -3h-133l1 3l45 36l-10 127h-223l-73 -113l53 -50l-1 -3
h-131v3l34 36l311 475l-7 58l1 3h76l45 -536zM345 194l-22 282l-181 -282h203z" />
    <glyph glyph-name="Amacron.small" horiz-adv-x="502" 
d="M511 670h-254l7 30h254zM445 3l-1 -3h-133l1 3l45 36l-10 127h-223l-73 -113l53 -50l-1 -3h-131v3l34 36l311 475l-7 58l1 3h76l45 -536zM345 194l-22 282l-181 -282h203z" />
    <glyph glyph-name="Abreve.small" horiz-adv-x="502" 
d="M357 619q-52 0 -81.5 25.5t-29.5 69.5q0 19 4 35h4q6 -90 107 -90t145 90h4q-13 -62 -53 -96t-100 -34zM445 3l-1 -3h-133l1 3l45 36l-10 127h-223l-73 -113l53 -50l-1 -3h-131v3l34 36l311 475l-7 58l1 3h76l45 -536zM345 194l-22 282l-181 -282h203z" />
    <glyph glyph-name="Aring.small" horiz-adv-x="502" 
d="M365 619q-40 0 -64.5 20.5t-24.5 54.5q0 42 36 71q38 30 89 30q41 0 65 -20.5t24 -54.5q0 -42 -36 -71.5t-89 -29.5zM374 639q28 0 47 24t19 55q0 26 -13 41.5t-35 15.5q-27 0 -46.5 -24.5t-19.5 -55.5q0 -25 13 -40.5t35 -15.5zM445 3l-1 -3h-133l1 3l45 36l-10 127
h-223l-73 -113l53 -50l-1 -3h-131v3l34 36l311 475l-7 58l1 3h76l45 -536zM345 194l-22 282l-181 -282h203z" />
    <glyph glyph-name="Aringacute.small" horiz-adv-x="502" 
d="M393 795h-5l83 130h79v-5zM360 599q-40 0 -64.5 20.5t-24.5 54.5q0 42 36 71q37 30 89 30q41 0 65 -20.5t24 -54.5q0 -42 -36 -71.5t-89 -29.5zM369 619q28 0 47 24t19 55q0 26 -13 41.5t-35 15.5q-27 0 -46.5 -24.5t-19.5 -55.5q0 -25 13 -40.5t35 -15.5zM445 3l-1 -3
h-133l1 3l45 36l-10 127h-223l-73 -113l53 -50l-1 -3h-131v3l34 36l311 475l-7 58l1 3h76l45 -536zM345 194l-22 282l-181 -282h203z" />
    <glyph glyph-name="Aogonek.small" horiz-adv-x="502" 
d="M393 -149l3 -3q-27 -48 -81 -48q-34 0 -57.5 18.5t-23.5 46.5q0 25 13 44l112 103l-12 154h-223l-73 -113l53 -50l-1 -3h-131v3l34 36l311 475l-7 58l1 3h76l45 -536l13 -36l-1 -3h-73q-47 -45 -63.5 -70t-16.5 -48q0 -24 13.5 -37.5t37.5 -13.5q25 0 51 20zM345 194
l-22 282l-181 -282h203z" />
    <glyph glyph-name="AE.small" horiz-adv-x="747" 
d="M672 103l-21 -103h-389l1 3l42 36l28 133h-192l-90 -119l53 -50l-1 -3h-128l1 3l382 511l-7 58l1 3h390l-18 -89h-4l-85 62h-147l-49 -232h146l82 47h4l-26 -121h-5l-63 47h-145l-55 -262h172l120 76h3zM408 523h-3l-243 -323h177z" />
    <glyph glyph-name="AEacute.small" horiz-adv-x="747" 
d="M495 619h-5l83 130h79v-5zM672 103l-21 -103h-389l1 3l42 36l28 133h-192l-90 -119l53 -50l-1 -3h-128l1 3l382 511l-7 58l1 3h390l-18 -89h-4l-85 62h-147l-49 -232h146l82 47h4l-26 -121h-5l-63 47h-145l-55 -262h172l120 76h3zM408 523h-3l-243 -323h177z" />
    <glyph glyph-name="B.small" horiz-adv-x="522" 
d="M464 170q0 -71 -65 -120.5t-166 -49.5h-212l1 3l42 36l105 497l-31 36l1 3h223q48 -8 78.5 -42.5t30.5 -80.5q0 -49 -35 -88t-91 -54q52 -10 85.5 -49.5t33.5 -90.5zM272 550h-25l-49 -232h86q53 0 86.5 33t33.5 84q0 52 -36 83.5t-96 31.5zM231 292h-39l-56 -265h82
q80 0 125.5 36t45.5 96q0 59 -44 96t-114 37z" />
    <glyph glyph-name="C.small" horiz-adv-x="505" 
d="M258 -12q-94 0 -150.5 65.5t-56.5 173.5q0 151 96.5 255.5t234.5 104.5q95 0 137 -36l-18 -84h-4l-96 85q-19 7 -45 7q-90 0 -159 -100.5t-69 -232.5q0 -95 39.5 -147t110.5 -52q121 0 195 143l4 -2q-17 -82 -76.5 -131t-142.5 -49z" />
    <glyph glyph-name="Cacute.small" horiz-adv-x="505" 
d="M381 619h-5l83 130h79v-5zM258 -12q-94 0 -150.5 65.5t-56.5 173.5q0 151 96.5 255.5t234.5 104.5q95 0 137 -36l-18 -84h-4l-96 85q-19 7 -45 7q-90 0 -159 -100.5t-69 -232.5q0 -95 39.5 -147t110.5 -52q121 0 195 143l4 -2q-17 -82 -76.5 -131t-142.5 -49z" />
    <glyph glyph-name="Ccircumflex.small" horiz-adv-x="505" 
d="M370 749h20l82 -128l-4 -2l-93 80h-4l-135 -80l-2 2zM258 -12q-94 0 -150.5 65.5t-56.5 173.5q0 151 96.5 255.5t234.5 104.5q95 0 137 -36l-18 -84h-4l-96 85q-19 7 -45 7q-90 0 -159 -100.5t-69 -232.5q0 -95 39.5 -147t110.5 -52q121 0 195 143l4 -2
q-17 -82 -76.5 -131t-142.5 -49z" />
    <glyph glyph-name="Ccaron.small" horiz-adv-x="505" 
d="M363 619h-20l-82 128l3 2l93 -80h4l135 80l3 -2zM258 -12q-94 0 -150.5 65.5t-56.5 173.5q0 151 96.5 255.5t234.5 104.5q95 0 137 -36l-18 -84h-4l-96 85q-19 7 -45 7q-90 0 -159 -100.5t-69 -232.5q0 -95 39.5 -147t110.5 -52q121 0 195 143l4 -2q-17 -82 -76.5 -131
t-142.5 -49z" />
    <glyph glyph-name="Cdotaccent.small" horiz-adv-x="505" 
d="M359 636q-19 0 -30 11t-11 30q0 23 16.5 39t38.5 16q19 0 30.5 -11t11.5 -30q0 -22 -16.5 -38.5t-39.5 -16.5zM258 -12q-94 0 -150.5 65.5t-56.5 173.5q0 151 96.5 255.5t234.5 104.5q95 0 137 -36l-18 -84h-4l-96 85q-19 7 -45 7q-90 0 -159 -100.5t-69 -232.5
q0 -95 39.5 -147t110.5 -52q121 0 195 143l4 -2q-17 -82 -76.5 -131t-142.5 -49z" />
    <glyph glyph-name="Ccedilla.small" horiz-adv-x="505" 
d="M279 -131q0 -31 -26.5 -50t-71.5 -19t-77 13l9 45h6l72 -40q16 0 26 12t10 29q0 43 -54 91v3l68 36q-87 6 -138.5 70.5t-51.5 167.5q0 151 96.5 255.5t234.5 104.5q95 0 137 -36l-18 -84h-4l-96 85q-19 7 -45 7q-90 0 -159 -100.5t-69 -232.5q0 -95 39.5 -147t110.5 -52
q121 0 195 143l4 -2q-16 -78 -72.5 -127t-134.5 -53l-42 -23q51 -51 51 -96z" />
    <glyph glyph-name="D.small" horiz-adv-x="579" 
d="M562 327q0 -146 -98 -236.5t-286 -90.5h-157l1 3l42 36l105 497l-31 36l1 3h221q88 -18 145 -88t57 -160zM246 552l-111 -525h39q146 0 229 78.5t83 211.5q0 100 -66.5 164.5t-173.5 70.5z" />
    <glyph glyph-name="Dcaron.small" horiz-adv-x="578" 
d="M340 619h-20l-82 128l3 2l93 -80h4l135 80l3 -2zM562 327q0 -146 -98 -236.5t-286 -90.5h-157l1 3l42 36l105 497l-31 36l1 3h221q88 -18 145 -88t57 -160zM246 552l-111 -525h39q146 0 229 78.5t83 211.5q0 100 -66.5 164.5t-173.5 70.5z" />
    <glyph glyph-name="Dcroat.small" horiz-adv-x="578" 
d="M115 281h-35l6 27h35l48 228l-31 36l1 3h221q88 -18 145 -88t57 -160q0 -146 -98 -236.5t-286 -90.5h-157l1 3l42 36zM324 308l-6 -27h-129l-54 -254h39q146 0 229 78.5t83 211.5q0 100 -66.5 164.5t-173.5 70.5l-52 -244h130z" />
    <glyph glyph-name="Eth.small" horiz-adv-x="578" 
d="M115 281h-35l6 27h35l48 228l-31 36l1 3h221q88 -18 145 -88t57 -160q0 -146 -98 -236.5t-286 -90.5h-157l1 3l42 36zM324 308l-6 -27h-129l-54 -254h39q146 0 229 78.5t83 211.5q0 100 -66.5 164.5t-173.5 70.5l-52 -244h130z" />
    <glyph glyph-name="E.small" horiz-adv-x="505" 
d="M431 103l-22 -103h-388l1 3l42 36l105 497l-31 36l1 3h362l-18 -89h-5l-85 62h-147l-49 -232h146l82 47h4l-26 -121h-4l-63 47h-146l-55 -262h173l120 76h3z" />
    <glyph glyph-name="Egrave.small" horiz-adv-x="505" 
d="M231 749h70l31 -130h-5l-96 125v5zM431 103l-22 -103h-388l1 3l42 36l105 497l-31 36l1 3h362l-18 -89h-5l-85 62h-147l-49 -232h146l82 47h4l-26 -121h-4l-63 47h-146l-55 -262h173l120 76h3z" />
    <glyph glyph-name="Eacute.small" horiz-adv-x="505" 
d="M358 619h-5l83 130h79v-5zM431 103l-22 -103h-388l1 3l42 36l105 497l-31 36l1 3h362l-18 -89h-5l-85 62h-147l-49 -232h146l82 47h4l-26 -121h-4l-63 47h-146l-55 -262h173l120 76h3z" />
    <glyph glyph-name="Ecircumflex.small" horiz-adv-x="505" 
d="M347 749h20l82 -128l-4 -2l-93 80h-4l-135 -80l-2 2zM431 103l-22 -103h-388l1 3l42 36l105 497l-31 36l1 3h362l-18 -89h-5l-85 62h-147l-49 -232h146l82 47h4l-26 -121h-4l-63 47h-146l-55 -262h173l120 76h3z" />
    <glyph glyph-name="Ecaron.small" horiz-adv-x="505" 
d="M340 619h-20l-82 128l3 2l93 -80h4l135 80l3 -2zM431 103l-22 -103h-388l1 3l42 36l105 497l-31 36l1 3h362l-18 -89h-5l-85 62h-147l-49 -232h146l82 47h4l-26 -121h-4l-63 47h-146l-55 -262h173l120 76h3z" />
    <glyph glyph-name="Edieresis.small" horiz-adv-x="505" 
d="M257 646q-15 0 -24 9t-9 24q0 18 13 31.5t32 13.5q34 0 34 -33q0 -18 -13 -31.5t-33 -13.5zM417 646q-15 0 -24.5 9t-9.5 24q0 18 13.5 31.5t32.5 13.5q15 0 24.5 -9t9.5 -24q0 -18 -13 -31.5t-33 -13.5zM431 103l-22 -103h-388l1 3l42 36l105 497l-31 36l1 3h362
l-18 -89h-5l-85 62h-147l-49 -232h146l82 47h4l-26 -121h-4l-63 47h-146l-55 -262h173l120 76h3z" />
    <glyph glyph-name="Emacron.small" horiz-adv-x="505" 
d="M476 670h-254l7 30h254zM431 103l-22 -103h-388l1 3l42 36l105 497l-31 36l1 3h362l-18 -89h-5l-85 62h-147l-49 -232h146l82 47h4l-26 -121h-4l-63 47h-146l-55 -262h173l120 76h3z" />
    <glyph glyph-name="Ebreve.small" horiz-adv-x="505" 
d="M322 619q-52 0 -81.5 25.5t-29.5 69.5q0 19 4 35h4q6 -90 107 -90q102 0 145 90h4q-13 -62 -53 -96t-100 -34zM431 103l-22 -103h-388l1 3l42 36l105 497l-31 36l1 3h362l-18 -89h-5l-85 62h-147l-49 -232h146l82 47h4l-26 -121h-4l-63 47h-146l-55 -262h173l120 76h3z
" />
    <glyph glyph-name="Edotaccent.small" horiz-adv-x="505" 
d="M335 636q-19 0 -30 11t-11 30q0 23 16.5 39t38.5 16q19 0 30.5 -11t11.5 -30q0 -22 -16.5 -38.5t-39.5 -16.5zM431 103l-22 -103h-388l1 3l42 36l105 497l-31 36l1 3h362l-18 -89h-5l-85 62h-147l-49 -232h146l82 47h4l-26 -121h-4l-63 47h-146l-55 -262h173l120 76h3z
" />
    <glyph glyph-name="Eogonek.small" horiz-adv-x="505" 
d="M431 103l-22 -103h-45q-47 -45 -63.5 -70t-16.5 -48q0 -24 13.5 -37.5t37.5 -13.5q25 0 51 20l3 -3q-27 -48 -81 -48q-34 0 -57.5 18.5t-23.5 46.5q0 25 13 44l99 91h-318l1 3l42 36l105 497l-31 36l1 3h362l-18 -89h-5l-85 62h-147l-49 -232h146l82 47h4l-26 -121h-4
l-63 47h-146l-55 -262h173l120 76h3z" />
    <glyph glyph-name="F.small" horiz-adv-x="476" 
d="M169 3l-1 -3h-147l1 3l42 36l105 497l-31 36l1 3h364l-19 -89h-4l-84 62h-150l-51 -244h141l83 47h4l-26 -121h-4l-63 47h-141l-51 -238z" />
    <glyph glyph-name="G.small" horiz-adv-x="581" 
d="M302 -12q-109 0 -176.5 73t-67.5 189q0 145 101 241t252 96q48 0 94.5 -13t68.5 -30l-18 -85h-4l-104 95q-21 7 -52 7q-110 0 -185.5 -86t-75.5 -211q0 -106 59.5 -175.5t149.5 -69.5q23 0 45 5l58 270l-31 35l1 3h147l-1 -3l-42 -35l-66 -306h-4l-45 28h-1
q-49 -28 -103 -28z" />
    <glyph glyph-name="Gcircumflex.small" horiz-adv-x="581" 
d="M392 749h20l82 -128l-4 -2l-93 80h-4l-135 -80l-2 2zM302 -12q-109 0 -176.5 73t-67.5 189q0 145 101 241t252 96q48 0 94.5 -13t68.5 -30l-18 -85h-4l-104 95q-21 7 -52 7q-110 0 -185.5 -86t-75.5 -211q0 -106 59.5 -175.5t149.5 -69.5q23 0 45 5l58 270l-31 35l1 3
h147l-1 -3l-42 -35l-66 -306h-4l-45 28h-1q-49 -28 -103 -28z" />
    <glyph glyph-name="Gbreve.small" horiz-adv-x="581" 
d="M367 619q-52 0 -81.5 25.5t-29.5 69.5q0 19 4 35h4q6 -90 107 -90q102 0 145 90h4q-13 -62 -53 -96t-100 -34zM302 -12q-109 0 -176.5 73t-67.5 189q0 145 101 241t252 96q48 0 94.5 -13t68.5 -30l-18 -85h-4l-104 95q-21 7 -52 7q-110 0 -185.5 -86t-75.5 -211
q0 -106 59.5 -175.5t149.5 -69.5q23 0 45 5l58 270l-31 35l1 3h147l-1 -3l-42 -35l-66 -306h-4l-45 28h-1q-49 -28 -103 -28z" />
    <glyph glyph-name="Gdotaccent.small" horiz-adv-x="581" 
d="M380 636q-19 0 -30 11t-11 30q0 23 16.5 39t38.5 16q19 0 30.5 -11t11.5 -30q0 -22 -16.5 -38.5t-39.5 -16.5zM302 -12q-109 0 -176.5 73t-67.5 189q0 145 101 241t252 96q48 0 94.5 -13t68.5 -30l-18 -85h-4l-104 95q-21 7 -52 7q-110 0 -185.5 -86t-75.5 -211
q0 -106 59.5 -175.5t149.5 -69.5q23 0 45 5l58 270l-31 35l1 3h147l-1 -3l-42 -35l-66 -306h-4l-45 28h-1q-49 -28 -103 -28z" />
    <glyph glyph-name="Gcommaaccent.small" horiz-adv-x="581" 
d="M302 -12q-109 0 -176.5 73t-67.5 189q0 145 101 241t252 96q48 0 94.5 -13t68.5 -30l-18 -85h-4l-104 95q-21 7 -52 7q-110 0 -185.5 -86t-75.5 -211q0 -106 59.5 -175.5t149.5 -69.5q23 0 45 5l58 270l-31 35l1 3h147l-1 -3l-42 -35l-66 -306h-4l-45 28h-1
q-49 -28 -103 -28zM244 -200l-1 4q21 11 40 35q19 22 24 41v4l-55 13q-4 4 -4 14q0 17 14 28.5t34 11.5q24 0 40 -15t16 -38q0 -31 -30.5 -59t-77.5 -39z" />
    <glyph glyph-name="H.small" horiz-adv-x="620" 
d="M168 0h-147l1 3l42 36l105 497l-31 36l1 3h146l-1 -3l-41 -36l-48 -230h273l49 230l-31 36v3h147v-3l-42 -36l-106 -497l32 -36l-1 -3h-147l1 3l41 36l50 238h-273l-50 -238l31 -36z" />
    <glyph glyph-name="Hcircumflex.small" horiz-adv-x="620" 
d="M414 749h20l82 -128l-4 -2l-93 80h-4l-135 -80l-2 2zM168 0h-147l1 3l42 36l105 497l-31 36l1 3h146l-1 -3l-41 -36l-48 -230h273l49 230l-31 36v3h147v-3l-42 -36l-106 -497l32 -36l-1 -3h-147l1 3l41 36l50 238h-273l-50 -238l31 -36z" />
    <glyph glyph-name="Hbar.small" horiz-adv-x="620" 
d="M168 0h-147l1 3l42 36l79 373h-37l7 27h36l20 97l-31 36l1 3h146l-1 -3l-41 -36l-20 -97h273l21 97l-31 36v3h147v-3l-42 -36l-21 -97h34l-5 -27h-34l-80 -373l32 -36l-1 -3h-147l1 3l41 36l50 238h-273l-50 -238l31 -36zM217 412l-22 -106h273l23 106h-274z" />
    <glyph glyph-name="I.small" horiz-adv-x="272" 
d="M168 3l-1 -3h-146l1 3l42 36l105 497l-31 36l1 3h147l-1 -3l-42 -36l-105 -497z" />
    <glyph glyph-name="Igrave.small" horiz-adv-x="272" 
d="M126 749h70l31 -130h-5l-96 125v5zM168 3l-1 -3h-146l1 3l42 36l105 497l-31 36l1 3h147l-1 -3l-42 -36l-105 -497z" />
    <glyph glyph-name="Iacute.small" horiz-adv-x="272" 
d="M253 619h-5l83 130h79v-5zM168 3l-1 -3h-146l1 3l42 36l105 497l-31 36l1 3h147l-1 -3l-42 -36l-105 -497z" />
    <glyph glyph-name="Icircumflex.small" horiz-adv-x="272" 
d="M242 749h20l82 -128l-4 -2l-93 80h-4l-135 -80l-2 2zM168 3l-1 -3h-146l1 3l42 36l105 497l-31 36l1 3h147l-1 -3l-42 -36l-105 -497z" />
    <glyph glyph-name="Itilde.small" horiz-adv-x="272" 
d="M299 636q-23 0 -69 26t-69 26q-19 0 -38 -11.5t-57 -47.5l-3 3q47 61 70 80.5t46 19.5q24 0 69 -26t69 -26q16 0 36 11q17 9 59 48l2 -3q-44 -60 -68.5 -80t-46.5 -20zM168 3l-1 -3h-146l1 3l42 36l105 497l-31 36l1 3h147l-1 -3l-42 -36l-105 -497z" />
    <glyph glyph-name="Idieresis.small" horiz-adv-x="272" 
d="M152 646q-15 0 -24 9t-9 24q0 18 13 31.5t32 13.5q34 0 34 -33q0 -18 -13 -31.5t-33 -13.5zM312 646q-15 0 -24.5 9t-9.5 24q0 18 13.5 31.5t32.5 13.5q15 0 24.5 -9t9.5 -24q0 -18 -13 -31.5t-33 -13.5zM168 3l-1 -3h-146l1 3l42 36l105 497l-31 36l1 3h147l-1 -3
l-42 -36l-105 -497z" />
    <glyph glyph-name="Imacron.small" horiz-adv-x="272" 
d="M371 670h-254l7 30h254zM168 3l-1 -3h-146l1 3l42 36l105 497l-31 36l1 3h147l-1 -3l-42 -36l-105 -497z" />
    <glyph glyph-name="Ibreve.small" horiz-adv-x="272" 
d="M217 619q-52 0 -81.5 25.5t-29.5 69.5q0 19 4 35h4q6 -90 107 -90t145 90h4q-13 -62 -53 -96t-100 -34zM168 3l-1 -3h-146l1 3l42 36l105 497l-31 36l1 3h147l-1 -3l-42 -36l-105 -497z" />
    <glyph glyph-name="Idotaccent.small" horiz-adv-x="272" 
d="M230 636q-19 0 -30 11t-11 30q0 23 16.5 39t38.5 16q19 0 30.5 -11t11.5 -30q0 -22 -16.5 -38.5t-39.5 -16.5zM168 3l-1 -3h-146l1 3l42 36l105 497l-31 36l1 3h147l-1 -3l-42 -36l-105 -497z" />
    <glyph glyph-name="Iogonek.small" horiz-adv-x="272" 
d="M168 3l-1 -3h-63q-47 -45 -63.5 -70t-16.5 -48q0 -24 13.5 -37.5t37.5 -13.5q25 0 51 20l3 -3q-27 -48 -81 -48q-34 0 -57.5 18.5t-23.5 46.5q0 25 13 44l99 91h-58l1 3l42 36l105 497l-31 36l1 3h147l-1 -3l-42 -36l-105 -497z" />
    <glyph glyph-name="IJ.small" horiz-adv-x="543" 
d="M168 3l-1 -3h-146l1 3l42 36l105 497l-31 36l1 3h147l-1 -3l-42 -36l-105 -497zM214 -164q-37 0 -71 11l15 76h4l79 -62q26 2 48.5 37.5t34.5 91.5l117 546l-31 36l1 3h146l-1 -3l-41 -36l-109 -509q-19 -94 -68 -142.5t-124 -48.5z" />
    <glyph glyph-name="J.small" horiz-adv-x="271" 
d="M-58 -164q-37 0 -71 11l15 76h4l79 -62q26 2 48.5 37.5t34.5 91.5l117 546l-31 36l1 3h146l-1 -3l-41 -36l-109 -509q-19 -94 -68 -142.5t-124 -48.5z" />
    <glyph glyph-name="Jcircumflex.small" horiz-adv-x="271" 
d="M242 749h20l82 -128l-4 -2l-93 80h-4l-135 -80l-2 2zM-58 -164q-37 0 -71 11l15 76h4l79 -62q26 2 48.5 37.5t34.5 91.5l117 546l-31 36l1 3h146l-1 -3l-41 -36l-109 -509q-19 -94 -68 -142.5t-124 -48.5z" />
    <glyph glyph-name="K.small" horiz-adv-x="548" 
d="M169 3l-1 -3h-147l1 3l42 36l105 497l-31 36l1 3h146l-1 -3l-41 -36l-53 -251l289 236l-34 50l1 4h139l-1 -4l-273 -220l190 -348l-1 -3h-139l1 5l37 34l-146 265l-72 -58l-43 -207z" />
    <glyph glyph-name="Kcommaaccent.small" horiz-adv-x="548" 
d="M169 3l-1 -3h-147l1 3l42 36l105 497l-31 36l1 3h146l-1 -3l-41 -36l-53 -251l289 236l-34 50l1 4h139l-1 -4l-273 -220l190 -348l-1 -3h-139l1 5l37 34l-146 265l-72 -58l-43 -207zM190 -200l-1 4q21 11 40 35q19 22 24 41v4l-55 13q-4 4 -4 14q0 17 14 28.5t34 11.5
q24 0 40 -15t16 -38q0 -31 -30.5 -59t-77.5 -39z" />
    <glyph glyph-name="L.small" horiz-adv-x="449" 
d="M401 105l-21 -105h-359l1 3l42 36l104 497l-31 36l1 3h146l-1 -3l-40 -36l-108 -509h145l118 78h3z" />
    <glyph glyph-name="Lacute.small" horiz-adv-x="449" 
d="M253 619h-5l83 130h79v-5zM401 105l-21 -105h-359l1 3l42 36l104 497l-31 36l1 3h146l-1 -3l-40 -36l-108 -509h145l118 78h3z" />
    <glyph glyph-name="Lcaron.small" horiz-adv-x="449" 
d="M401 105l-21 -105h-359l1 3l42 36l104 497l-31 36l1 3h146l-1 -3l-40 -36l-108 -509h145l118 78h3zM286 378h-4l82 196h72l-1 -5z" />
    <glyph glyph-name="Lcommaaccent.small" horiz-adv-x="449" 
d="M401 105l-21 -105h-359l1 3l42 36l104 497l-31 36l1 3h146l-1 -3l-40 -36l-108 -509h145l118 78h3zM125 -200l-1 4q21 11 40 35q19 22 24 41v4l-55 13q-4 4 -4 14q0 17 14 28.5t34 11.5q24 0 40 -15t16 -38q0 -31 -30.5 -59t-77.5 -39z" />
    <glyph glyph-name="Lslash.small" horiz-adv-x="449" 
d="M104 231l-29 -10l-9 26l45 15l57 274l-31 36l1 3h146l-1 -3l-40 -36l-52 -246l125 43l9 -26l-141 -48l-49 -232h145l118 78h3l-21 -105h-359l1 3l42 36z" />
    <glyph glyph-name="Ldot.small" horiz-adv-x="449" 
d="M401 105l-21 -105h-359l1 3l42 36l104 497l-31 36l1 3h146l-1 -3l-40 -36l-108 -509h145l118 78h3zM378 260q-19 0 -30 11t-11 30q0 23 16.5 39t38.5 16q19 0 30.5 -11t11.5 -30q0 -22 -16.5 -38.5t-39.5 -16.5z" />
    <glyph glyph-name="M.small" horiz-adv-x="696" 
d="M581 502l-277 -434h-8l-81 387h-4l-138 -402l51 -50l-1 -3h-136l1 3l48 50l159 449l-31 70v3h99l82 -384l243 384h118l-1 -3l-40 -36l-89 -497l33 -36l-1 -3h-146l1 3l39 35l84 464h-5z" />
    <glyph glyph-name="N.small" horiz-adv-x="586" 
d="M564 521l-112 -521h-19l-245 464l-87 -411l44 -50l-1 -3h-123l1 3l44 50l97 459l-39 59v4h89l233 -442l82 388l-44 51l1 3h123v-3z" />
    <glyph glyph-name="Nacute.small" horiz-adv-x="586" 
d="M410 619h-5l83 130h79v-5zM564 521l-112 -521h-19l-245 464l-87 -411l44 -50l-1 -3h-123l1 3l44 50l97 459l-39 59v4h89l233 -442l82 388l-44 51l1 3h123v-3z" />
    <glyph glyph-name="Ncaron.small" horiz-adv-x="586" 
d="M393 619h-20l-82 128l3 2l93 -80h4l135 80l3 -2zM564 521l-112 -521h-19l-245 464l-87 -411l44 -50l-1 -3h-123l1 3l44 50l97 459l-39 59v4h89l233 -442l82 388l-44 51l1 3h123v-3z" />
    <glyph glyph-name="Ntilde.small" horiz-adv-x="586" 
d="M457 636q-23 0 -69 26t-69 26q-19 0 -38 -11.5t-57 -47.5l-3 3q47 61 70 80.5t46 19.5q24 0 69 -26t69 -26q16 0 36 11q17 9 59 48l2 -3q-44 -60 -68.5 -80t-46.5 -20zM564 521l-112 -521h-19l-245 464l-87 -411l44 -50l-1 -3h-123l1 3l44 50l97 459l-39 59v4h89
l233 -442l82 388l-44 51l1 3h123v-3z" />
    <glyph glyph-name="Ncommaaccent.small" horiz-adv-x="586" 
d="M564 521l-112 -521h-19l-245 464l-87 -411l44 -50l-1 -3h-123l1 3l44 50l97 459l-39 59v4h89l233 -442l82 388l-44 51l1 3h123v-3zM179 -200l-1 4q21 11 40 35q19 22 24 41v4l-55 13q-4 4 -4 14q0 17 14 28.5t34 11.5q24 0 40 -15t16 -38q0 -31 -30.5 -59t-77.5 -39z" />
    <glyph glyph-name="Eng.small" horiz-adv-x="587" 
d="M275 -164q-31 0 -68 11l16 76h4l79 -62q36 2 67 46q34 46 47 113v2l-232 442l-87 -411l44 -50l-1 -3h-123l1 3l44 50l97 459l-39 59v4h89l233 -438l82 384l-44 51l1 3h123v-3l-44 -51l-100 -467v-1l-6 -26q-19 -93 -66 -142t-117 -49z" />
    <glyph glyph-name="O.small" horiz-adv-x="573" 
d="M253 -12q-94 0 -148 62.5t-54 171.5q0 151 89 258t215 107q94 0 147.5 -62t53.5 -172q0 -151 -88.5 -258t-214.5 -107zM264 14q89 0 152.5 103t63.5 243q0 95 -36 147.5t-100 52.5q-89 0 -153 -102t-64 -243q0 -94 36.5 -147.5t100.5 -53.5z" />
    <glyph glyph-name="Ograve.small" horiz-adv-x="573" 
d="M275 749h70l31 -130h-5l-96 125v5zM253 -12q-94 0 -148 62.5t-54 171.5q0 151 89 258t215 107q94 0 147.5 -62t53.5 -172q0 -151 -88.5 -258t-214.5 -107zM264 14q89 0 152.5 103t63.5 243q0 95 -36 147.5t-100 52.5q-89 0 -153 -102t-64 -243q0 -94 36.5 -147.5
t100.5 -53.5z" />
    <glyph glyph-name="Oacute.small" horiz-adv-x="573" 
d="M402 619h-5l83 130h79v-5zM253 -12q-94 0 -148 62.5t-54 171.5q0 151 89 258t215 107q94 0 147.5 -62t53.5 -172q0 -151 -88.5 -258t-214.5 -107zM264 14q89 0 152.5 103t63.5 243q0 95 -36 147.5t-100 52.5q-89 0 -153 -102t-64 -243q0 -94 36.5 -147.5t100.5 -53.5z
" />
    <glyph glyph-name="Ocircumflex.small" horiz-adv-x="573" 
d="M392 749h20l82 -128l-4 -2l-93 80h-4l-135 -80l-2 2zM253 -12q-94 0 -148 62.5t-54 171.5q0 151 89 258t215 107q94 0 147.5 -62t53.5 -172q0 -151 -88.5 -258t-214.5 -107zM264 14q89 0 152.5 103t63.5 243q0 95 -36 147.5t-100 52.5q-89 0 -153 -102t-64 -243
q0 -94 36.5 -147.5t100.5 -53.5z" />
    <glyph glyph-name="Otilde.small" horiz-adv-x="573" 
d="M449 636q-23 0 -69 26t-69 26q-19 0 -38 -11.5t-57 -47.5l-3 3q47 61 70 80.5t46 19.5q24 0 69 -26t69 -26q16 0 36 11q17 9 59 48l2 -3q-44 -60 -68.5 -80t-46.5 -20zM253 -12q-94 0 -148 62.5t-54 171.5q0 151 89 258t215 107q94 0 147.5 -62t53.5 -172
q0 -151 -88.5 -258t-214.5 -107zM264 14q89 0 152.5 103t63.5 243q0 95 -36 147.5t-100 52.5q-89 0 -153 -102t-64 -243q0 -94 36.5 -147.5t100.5 -53.5z" />
    <glyph glyph-name="Odieresis.small" horiz-adv-x="573" 
d="M302 646q-15 0 -24 9t-9 24q0 18 13 31.5t32 13.5q34 0 34 -33q0 -18 -13 -31.5t-33 -13.5zM462 646q-15 0 -24.5 9t-9.5 24q0 18 13.5 31.5t32.5 13.5q15 0 24.5 -9t9.5 -24q0 -18 -13 -31.5t-33 -13.5zM253 -12q-94 0 -148 62.5t-54 171.5q0 151 89 258t215 107
q94 0 147.5 -62t53.5 -172q0 -151 -88.5 -258t-214.5 -107zM264 14q89 0 152.5 103t63.5 243q0 95 -36 147.5t-100 52.5q-89 0 -153 -102t-64 -243q0 -94 36.5 -147.5t100.5 -53.5z" />
    <glyph glyph-name="Omacron.small" horiz-adv-x="573" 
d="M521 670h-254l7 30h254zM253 -12q-94 0 -148 62.5t-54 171.5q0 151 89 258t215 107q94 0 147.5 -62t53.5 -172q0 -151 -88.5 -258t-214.5 -107zM264 14q89 0 152.5 103t63.5 243q0 95 -36 147.5t-100 52.5q-89 0 -153 -102t-64 -243q0 -94 36.5 -147.5t100.5 -53.5z" />
    <glyph glyph-name="Obreve.small" horiz-adv-x="573" 
d="M366 619q-52 0 -81.5 25.5t-29.5 69.5q0 19 4 35h4q6 -90 107 -90q102 0 145 90h4q-13 -62 -53 -96t-100 -34zM253 -12q-94 0 -148 62.5t-54 171.5q0 151 89 258t215 107q94 0 147.5 -62t53.5 -172q0 -151 -88.5 -258t-214.5 -107zM264 14q89 0 152.5 103t63.5 243
q0 95 -36 147.5t-100 52.5q-89 0 -153 -102t-64 -243q0 -94 36.5 -147.5t100.5 -53.5z" />
    <glyph glyph-name="Ohungarumlaut.small" horiz-adv-x="573" 
d="M301 620h-5l83 130h79v-5zM253 -12q-94 0 -148 62.5t-54 171.5q0 151 89 258t215 107q94 0 147.5 -62t53.5 -172q0 -151 -88.5 -258t-214.5 -107zM264 14q89 0 152.5 103t63.5 243q0 95 -36 147.5t-100 52.5q-89 0 -153 -102t-64 -243q0 -94 36.5 -147.5t100.5 -53.5z
" />
    <glyph glyph-name="Oslash.small" horiz-adv-x="573" 
d="M122 33l-58 -73l-19 17l59 75q-53 62 -53 170q0 151 89 258t215 107q80 0 132 -46l54 69l22 -17l-57 -72q50 -64 50 -168q0 -151 -88.5 -258t-214.5 -107q-80 0 -131 45zM127 215q0 -66 18 -111l306 391q-36 65 -107 65q-89 0 -153 -102t-64 -243zM264 14q89 0 152.5 103
t63.5 243q0 65 -16 107l-307 -389q37 -64 107 -64z" />
    <glyph glyph-name="Oslashacute.small" horiz-adv-x="573" 
d="M402 619h-5l83 130h79v-5zM253 -12q-94 0 -148 62.5t-54 171.5q0 151 89 258t215 107q94 0 147.5 -62t53.5 -172q0 -151 -88.5 -258t-214.5 -107zM264 14q89 0 152.5 103t63.5 243q0 95 -36 147.5t-100 52.5q-89 0 -153 -102t-64 -243q0 -94 36.5 -147.5t100.5 -53.5z
" />
    <glyph glyph-name="OE.small" horiz-adv-x="813" 
d="M738 103l-21 -103h-464q-88 18 -145 86t-57 158q0 145 99.5 238t285.5 93h373l-20 -89h-4l-85 62h-146l-50 -232h146l82 47h4l-26 -121h-4l-62 47h-147l-55 -262h173l120 76h3zM128 258q0 -100 66 -164.5t173 -70.5l111 525h-39q-146 0 -228.5 -78.5t-82.5 -211.5z" />
    <glyph glyph-name="P.small" horiz-adv-x="477" 
d="M167 3l-1 -3h-145l1 3l41 36l105 497l-30 36l1 3h222q57 -12 89.5 -52.5t32.5 -99.5q0 -79 -58.5 -132.5t-144.5 -53.5q-22 0 -37 4l-19 13v4q86 1 138.5 45t52.5 114q0 60 -39.5 96.5t-105.5 36.5h-24l-109 -511z" />
    <glyph glyph-name="Q.small" horiz-adv-x="573" 
d="M556 -123h-133l-245 121q-127 64 -127 224q0 151 89 258t215 107q94 0 147.5 -62t53.5 -172q0 -146 -82.5 -251t-203.5 -113l-2 -4q48 -11 82 -24l206 -80v-4zM264 14q89 0 152.5 103t63.5 243q0 95 -36 147.5t-100 52.5q-89 0 -153 -102t-64 -243q0 -94 36.5 -147.5
t100.5 -53.5z" />
    <glyph glyph-name="R.small" horiz-adv-x="506" 
d="M168 3l-1 -3h-146l1 3l41 36l105 497l-30 36l1 3h237q51 -9 81 -44t30 -83q0 -56 -41 -100.5t-110 -61.5q12 -81 54 -182t86 -155l-2 -2q-69 24 -132 122.5t-81 208.5h-73l-51 -239zM277 551h-31l-53 -248h75q66 0 108 36.5t42 95.5q0 54 -37.5 85t-103.5 31z" />
    <glyph glyph-name="Racute.small" horiz-adv-x="506" 
d="M343 619h-5l83 130h79v-5zM168 3l-1 -3h-146l1 3l41 36l105 497l-30 36l1 3h237q51 -9 81 -44t30 -83q0 -56 -41 -100.5t-110 -61.5q12 -81 54 -182t86 -155l-2 -2q-69 24 -132 122.5t-81 208.5h-73l-51 -239zM277 551h-31l-53 -248h75q66 0 108 36.5t42 95.5
q0 54 -37.5 85t-103.5 31z" />
    <glyph glyph-name="Rcaron.small" horiz-adv-x="506" 
d="M325 619h-20l-82 128l3 2l93 -80h4l135 80l3 -2zM168 3l-1 -3h-146l1 3l41 36l105 497l-30 36l1 3h237q51 -9 81 -44t30 -83q0 -56 -41 -100.5t-110 -61.5q12 -81 54 -182t86 -155l-2 -2q-69 24 -132 122.5t-81 208.5h-73l-51 -239zM277 551h-31l-53 -248h75
q66 0 108 36.5t42 95.5q0 54 -37.5 85t-103.5 31z" />
    <glyph glyph-name="Rcommaaccent.small" horiz-adv-x="506" 
d="M168 3l-1 -3h-146l1 3l41 36l105 497l-30 36l1 3h237q51 -9 81 -44t30 -83q0 -56 -41 -100.5t-110 -61.5q12 -81 54 -182t86 -155l-2 -2q-69 24 -132 122.5t-81 208.5h-73l-51 -239zM277 551h-31l-53 -248h75q66 0 108 36.5t42 95.5q0 54 -37.5 85t-103.5 31zM184 -200
l-1 4q21 11 40 35q19 22 24 41v4l-55 13q-4 4 -4 14q0 17 14 28.5t34 11.5q24 0 40 -15t16 -38q0 -31 -30.5 -59t-77.5 -39z" />
    <glyph glyph-name="S.small" horiz-adv-x="428" 
d="M188 -12q-51 0 -100 18.5t-78 48.5l17 82h4l102 -112q20 -13 61 -13q53 0 85.5 31t32.5 80q0 32 -19 63t-46 57t-54 53t-46 61.5t-19 71.5q0 68 49 113t125 45q85 0 142 -44l-19 -78h-4l-86 87q-19 11 -41 11q-45 0 -74 -30.5t-29 -75.5q0 -32 19 -62.5t46 -57t54 -53.5
t46 -61.5t19 -71.5q0 -71 -53 -117t-134 -46z" />
    <glyph glyph-name="Sacute.small" horiz-adv-x="428" 
d="M321 619h-5l83 130h79v-5zM188 -12q-51 0 -100 18.5t-78 48.5l17 82h4l102 -112q20 -13 61 -13q53 0 85.5 31t32.5 80q0 32 -19 63t-46 57t-54 53t-46 61.5t-19 71.5q0 68 49 113t125 45q85 0 142 -44l-19 -78h-4l-86 87q-19 11 -41 11q-45 0 -74 -30.5t-29 -75.5
q0 -32 19 -62.5t46 -57t54 -53.5t46 -61.5t19 -71.5q0 -71 -53 -117t-134 -46z" />
    <glyph glyph-name="Scircumflex.small" horiz-adv-x="428" 
d="M310 749h20l82 -128l-4 -2l-93 80h-4l-135 -80l-2 2zM188 -12q-51 0 -100 18.5t-78 48.5l17 82h4l102 -112q20 -13 61 -13q53 0 85.5 31t32.5 80q0 32 -19 63t-46 57t-54 53t-46 61.5t-19 71.5q0 68 49 113t125 45q85 0 142 -44l-19 -78h-4l-86 87q-19 11 -41 11
q-45 0 -74 -30.5t-29 -75.5q0 -32 19 -62.5t46 -57t54 -53.5t46 -61.5t19 -71.5q0 -71 -53 -117t-134 -46z" />
    <glyph glyph-name="Scaron.small" horiz-adv-x="428" 
d="M303 619h-20l-82 128l3 2l93 -80h4l135 80l3 -2zM188 -12q-51 0 -100 18.5t-78 48.5l17 82h4l102 -112q20 -13 61 -13q53 0 85.5 31t32.5 80q0 32 -19 63t-46 57t-54 53t-46 61.5t-19 71.5q0 68 49 113t125 45q85 0 142 -44l-19 -78h-4l-86 87q-19 11 -41 11
q-45 0 -74 -30.5t-29 -75.5q0 -32 19 -62.5t46 -57t54 -53.5t46 -61.5t19 -71.5q0 -71 -53 -117t-134 -46z" />
    <glyph glyph-name="Scedilla.small" horiz-adv-x="428" 
d="M219 -131q0 -31 -26.5 -50t-71.5 -19t-77 13l9 45h6l72 -40q16 0 26 12t10 29q0 43 -54 91v3l67 35q-49 2 -95 20t-75 47l17 82h4l102 -112q20 -13 61 -13q53 0 85.5 31t32.5 80q0 32 -19 63t-46 57t-54 53t-46 61.5t-19 71.5q0 68 49 113t125 45q85 0 142 -44l-19 -78
h-4l-86 87q-19 11 -41 11q-45 0 -74 -30.5t-29 -75.5q0 -32 19 -62.5t46 -57t54 -53.5t46 -61.5t19 -71.5q0 -66 -45.5 -110.5t-117.5 -51.5l-44 -24q51 -51 51 -96z" />
    <glyph glyph-name="Scommaaccent.small" horiz-adv-x="428" 
d="M188 -12q-51 0 -100 18.5t-78 48.5l17 82h4l102 -112q20 -13 61 -13q53 0 85.5 31t32.5 80q0 32 -19 63t-46 57t-54 53t-46 61.5t-19 71.5q0 68 49 113t125 45q85 0 142 -44l-19 -78h-4l-86 87q-19 11 -41 11q-45 0 -74 -30.5t-29 -75.5q0 -32 19 -62.5t46 -57t54 -53.5
t46 -61.5t19 -71.5q0 -71 -53 -117t-134 -46zM136 -200l-1 4q21 11 40 35q19 22 24 41v4l-55 13q-4 4 -4 14q0 17 14 28.5t34 11.5q24 0 40 -15t16 -38q0 -31 -30.5 -59t-77.5 -39z" />
    <glyph glyph-name="germandbls.small" horiz-adv-x="855" 
d="M188 -12q-51 0 -100 18.5t-78 48.5l17 82h4l102 -112q20 -13 61 -13q53 0 85.5 31t32.5 80q0 32 -19 63t-46 57t-54 53t-46 61.5t-19 71.5q0 68 49 113t125 45q85 0 142 -44l-19 -78h-4l-86 87q-19 11 -41 11q-45 0 -74 -30.5t-29 -75.5q0 -32 19 -62.5t46 -57t54 -53.5
t46 -61.5t19 -71.5q0 -71 -53 -117t-134 -46zM616 -12q-51 0 -100 18.5t-78 48.5l17 82h4l102 -112q20 -13 61 -13q53 0 85.5 31t32.5 80q0 32 -19 63t-46 57t-54 53t-46 61.5t-19 71.5q0 68 49.5 113t124.5 45q85 0 142 -44l-19 -78h-4l-86 87q-19 11 -41 11
q-45 0 -74 -30.5t-29 -75.5q0 -32 19 -62.5t46 -57t54 -53.5t46 -61.5t19 -71.5q0 -71 -53 -117t-134 -46z" />
    <glyph glyph-name="T.small" horiz-adv-x="498" 
d="M280 3v-3h-147l1 3l41 36l109 509h-87l-114 -66h-3l19 93h455l-19 -93h-4l-86 66h-87l-109 -509z" />
    <glyph glyph-name="Tcaron.small" horiz-adv-x="498" 
d="M348 619h-20l-82 128l3 2l93 -80h4l135 80l3 -2zM280 3v-3h-147l1 3l41 36l109 509h-87l-114 -66h-3l19 93h455l-19 -93h-4l-86 66h-87l-109 -509z" />
    <glyph glyph-name="Tcommaaccent.small" horiz-adv-x="498" 
d="M280 3v-3h-147l1 3l41 36l109 509h-87l-114 -66h-3l19 93h455l-19 -93h-4l-86 66h-87l-109 -509zM129 -200l-1 4q21 11 40 35q19 22 24 41v4l-55 13q-4 4 -4 14q0 17 14 28.5t34 11.5q24 0 40 -15t16 -38q0 -31 -30.5 -59t-77.5 -39z" />
    <glyph glyph-name="Tbar.small" horiz-adv-x="498" 
d="M280 3v-3h-147l1 3l41 36l51 239h-101l5 27h102l52 243h-87l-114 -66h-3l19 93h455l-19 -93h-4l-86 66h-87l-52 -243h104l-6 -27h-104l-51 -239z" />
    <glyph glyph-name="Thorn.small" horiz-adv-x="472" 
d="M168 3l-1 -3h-146l1 3l42 36l105 497l-31 36l1 3h147l-1 -3l-42 -36l-14 -68h110q56 -11 89 -52t33 -99q0 -78 -59 -132.5t-144 -54.5q-8 0 -21.5 2t-15.5 2l-19 13v4q84 1 138 46q53 44 53 114q0 60 -39 96t-106 36h-25l-85 -404z" />
    <glyph glyph-name="U.small" horiz-adv-x="570" 
d="M274 -12q-97 0 -147.5 64t-30.5 158l69 326l-31 36l1 3h146l-1 -3l-40 -36l-68 -315q-19 -88 15 -136.5t113 -48.5q63 0 105 34t54 94l75 357l-44 51v3h122l-1 -3l-45 -51l-74 -354q-38 -179 -218 -179z" />
    <glyph glyph-name="Ugrave.small" horiz-adv-x="570" 
d="M285 749h70l31 -130h-5l-96 125v5zM274 -12q-97 0 -147.5 64t-30.5 158l69 326l-31 36l1 3h146l-1 -3l-40 -36l-68 -315q-19 -88 15 -136.5t113 -48.5q63 0 105 34t54 94l75 357l-44 51v3h122l-1 -3l-45 -51l-74 -354q-38 -179 -218 -179z" />
    <glyph glyph-name="Uacute.small" horiz-adv-x="570" 
d="M412 619h-5l83 130h79v-5zM274 -12q-97 0 -147.5 64t-30.5 158l69 326l-31 36l1 3h146l-1 -3l-40 -36l-68 -315q-19 -88 15 -136.5t113 -48.5q63 0 105 34t54 94l75 357l-44 51v3h122l-1 -3l-45 -51l-74 -354q-38 -179 -218 -179z" />
    <glyph glyph-name="Ucircumflex.small" horiz-adv-x="570" 
d="M401 749h20l82 -128l-4 -2l-93 80h-4l-135 -80l-2 2zM274 -12q-97 0 -147.5 64t-30.5 158l69 326l-31 36l1 3h146l-1 -3l-40 -36l-68 -315q-19 -88 15 -136.5t113 -48.5q63 0 105 34t54 94l75 357l-44 51v3h122l-1 -3l-45 -51l-74 -354q-38 -179 -218 -179z" />
    <glyph glyph-name="Utilde.small" horiz-adv-x="570" 
d="M458 636q-24 0 -69 26t-69 26q-19 0 -38 -11.5t-57 -47.5l-3 3q47 61 70 80.5t46 19.5q24 0 69 -26t69 -26q16 0 36 11q17 9 59 48l2 -3q-44 -60 -68.5 -80t-46.5 -20zM274 -12q-97 0 -147.5 64t-30.5 158l69 326l-31 36l1 3h146l-1 -3l-40 -36l-68 -315
q-19 -88 15 -136.5t113 -48.5q63 0 105 34t54 94l75 357l-44 51v3h122l-1 -3l-45 -51l-74 -354q-38 -179 -218 -179z" />
    <glyph glyph-name="Udieresis.small" horiz-adv-x="570" 
d="M311 646q-15 0 -24 9t-9 24q0 18 13 31.5t32 13.5q34 0 34 -33q0 -18 -13 -31.5t-33 -13.5zM471 646q-15 0 -24.5 9t-9.5 24q0 18 13.5 31.5t32.5 13.5q15 0 24.5 -9t9.5 -24q0 -18 -13 -31.5t-33 -13.5zM274 -12q-97 0 -147.5 64t-30.5 158l69 326l-31 36l1 3h146l-1 -3
l-40 -36l-68 -315q-19 -88 15 -136.5t113 -48.5q63 0 105 34t54 94l75 357l-44 51v3h122l-1 -3l-45 -51l-74 -354q-38 -179 -218 -179z" />
    <glyph glyph-name="Umacron.small" horiz-adv-x="570" 
d="M530 670h-254l7 30h254zM274 -12q-97 0 -147.5 64t-30.5 158l69 326l-31 36l1 3h146l-1 -3l-40 -36l-68 -315q-19 -88 15 -136.5t113 -48.5q63 0 105 34t54 94l75 357l-44 51v3h122l-1 -3l-45 -51l-74 -354q-38 -179 -218 -179z" />
    <glyph glyph-name="Ubreve.small" horiz-adv-x="570" 
d="M376 619q-52 0 -81.5 25.5t-29.5 69.5q0 19 4 35h4q6 -90 107 -90q102 0 145 90h4q-13 -62 -53 -96t-100 -34zM274 -12q-97 0 -147.5 64t-30.5 158l69 326l-31 36l1 3h146l-1 -3l-40 -36l-68 -315q-19 -88 15 -136.5t113 -48.5q63 0 105 34t54 94l75 357l-44 51v3h122
l-1 -3l-45 -51l-74 -354q-38 -179 -218 -179z" />
    <glyph glyph-name="Uring.small" horiz-adv-x="570" 
d="M383 619q-40 0 -64.5 20.5t-24.5 54.5q0 42 36 71q38 30 89 30q41 0 65 -20.5t24 -54.5q0 -42 -36 -71.5t-89 -29.5zM392 639q28 0 47 24t19 55q0 26 -13 41.5t-35 15.5q-27 0 -46.5 -24.5t-19.5 -55.5q0 -25 13 -40.5t35 -15.5zM274 -12q-97 0 -147.5 64t-30.5 158
l69 326l-31 36l1 3h146l-1 -3l-40 -36l-68 -315q-19 -88 15 -136.5t113 -48.5q63 0 105 34t54 94l75 357l-44 51v3h122l-1 -3l-45 -51l-74 -354q-38 -179 -218 -179z" />
    <glyph glyph-name="Uhungarumlaut.small" horiz-adv-x="570" 
d="M310 620h-5l83 130h79v-5zM274 -12q-97 0 -147.5 64t-30.5 158l69 326l-31 36l1 3h146l-1 -3l-40 -36l-68 -315q-19 -88 15 -136.5t113 -48.5q63 0 105 34t54 94l75 357l-44 51v3h122l-1 -3l-45 -51l-74 -354q-38 -179 -218 -179z" />
    <glyph glyph-name="Uogonek.small" horiz-adv-x="570" 
d="M320 -149l3 -3q-27 -48 -81 -48q-34 0 -57.5 18.5t-23.5 46.5q0 25 13 44l87 79q-91 4 -138.5 67.5t-27.5 154.5l69 326l-31 36l1 3h146l-1 -3l-40 -36l-68 -315q-19 -88 15 -136.5t113 -48.5q63 0 105 34t54 94l75 357l-44 51v3h122l-1 -3l-45 -51l-74 -354
q-36 -171 -205 -179q-39 -38 -53.5 -61t-14.5 -45q0 -24 13.5 -37.5t37.5 -13.5q25 0 51 20z" />
    <glyph glyph-name="V.small" horiz-adv-x="502" 
d="M532 536l-352 -536h-28l-46 536l-15 36l1 3h134l-1 -3l-45 -36l34 -435l271 420l-53 51l1 3h133l-1 -3z" />
    <glyph glyph-name="W.small" horiz-adv-x="714" 
d="M388 419l-261 -419h-26l1 536l-12 36v3h135l-1 -3l-46 -36l-6 -412l220 355l3 57l-10 36l2 3h126l-1 -3l-41 -36l-31 -407l256 392l-41 51l2 3h134l-1 -3l-56 -51l-347 -521h-23z" />
    <glyph glyph-name="Wgrave.small" horiz-adv-x="714" 
d="M352 749h70l31 -130h-5l-96 125v5zM388 419l-261 -419h-26l1 536l-12 36v3h135l-1 -3l-46 -36l-6 -412l220 355l3 57l-10 36l2 3h126l-1 -3l-41 -36l-31 -407l256 392l-41 51l2 3h134l-1 -3l-56 -51l-347 -521h-23z" />
    <glyph glyph-name="Wacute.small" horiz-adv-x="714" 
d="M479 619h-5l83 130h79v-5zM388 419l-261 -419h-26l1 536l-12 36v3h135l-1 -3l-46 -36l-6 -412l220 355l3 57l-10 36l2 3h126l-1 -3l-41 -36l-31 -407l256 392l-41 51l2 3h134l-1 -3l-56 -51l-347 -521h-23z" />
    <glyph glyph-name="Wcircumflex.small" horiz-adv-x="714" 
d="M469 749h20l82 -128l-4 -2l-93 80h-4l-135 -80l-2 2zM388 419l-261 -419h-26l1 536l-12 36v3h135l-1 -3l-46 -36l-6 -412l220 355l3 57l-10 36l2 3h126l-1 -3l-41 -36l-31 -407l256 392l-41 51l2 3h134l-1 -3l-56 -51l-347 -521h-23z" />
    <glyph glyph-name="Wdieresis.small" horiz-adv-x="714" 
d="M379 646q-15 0 -24 9t-9 24q0 18 13 31.5t32 13.5q34 0 34 -33q0 -18 -13 -31.5t-33 -13.5zM539 646q-15 0 -24.5 9t-9.5 24q0 18 13.5 31.5t32.5 13.5q15 0 24.5 -9t9.5 -24q0 -18 -13 -31.5t-33 -13.5zM388 419l-261 -419h-26l1 536l-12 36v3h135l-1 -3l-46 -36
l-6 -412l220 355l3 57l-10 36l2 3h126l-1 -3l-41 -36l-31 -407l256 392l-41 51l2 3h134l-1 -3l-56 -51l-347 -521h-23z" />
    <glyph glyph-name="X.small" horiz-adv-x="535" 
d="M458 3l-1 -3h-142l1 3l39 37l-90 227l-185 -214l33 -50l-1 -3h-127l1 3l51 50l214 242l-98 241l-22 36l1 3h140v-3l-38 -36l73 -192l153 177l-33 51l1 3h128l-1 -3l-51 -50l-184 -206l115 -277z" />
    <glyph glyph-name="Y.small" horiz-adv-x="492" 
d="M279 3l-1 -3h-146l1 3l40 36l51 234l-105 263l-20 35l1 4h140l-1 -4l-42 -35l92 -236l174 221l-34 50l1 4h116v-4l-44 -50l-205 -252l-49 -230z" />
    <glyph glyph-name="Ygrave.small" horiz-adv-x="492" 
d="M236 749h70l31 -130h-5l-96 125v5zM279 3l-1 -3h-146l1 3l40 36l51 234l-105 263l-20 35l1 4h140l-1 -4l-42 -35l92 -236l174 221l-34 50l1 4h116v-4l-44 -50l-205 -252l-49 -230z" />
    <glyph glyph-name="Yacute.small" horiz-adv-x="492" 
d="M363 619h-5l83 130h79v-5zM279 3l-1 -3h-146l1 3l40 36l51 234l-105 263l-20 35l1 4h140l-1 -4l-42 -35l92 -236l174 221l-34 50l1 4h116v-4l-44 -50l-205 -252l-49 -230z" />
    <glyph glyph-name="Ycircumflex.small" horiz-adv-x="492" 
d="M352 749h20l82 -128l-4 -2l-93 80h-4l-135 -80l-2 2zM279 3l-1 -3h-146l1 3l40 36l51 234l-105 263l-20 35l1 4h140l-1 -4l-42 -35l92 -236l174 221l-34 50l1 4h116v-4l-44 -50l-205 -252l-49 -230z" />
    <glyph glyph-name="Ydieresis.small" horiz-adv-x="492" 
d="M262 646q-15 0 -24 9t-9 24q0 18 13 31.5t32 13.5q34 0 34 -33q0 -18 -13 -31.5t-33 -13.5zM422 646q-15 0 -24.5 9t-9.5 24q0 18 13.5 31.5t32.5 13.5q15 0 24.5 -9t9.5 -24q0 -18 -13 -31.5t-33 -13.5zM279 3l-1 -3h-146l1 3l40 36l51 234l-105 263l-20 35l1 4h140
l-1 -4l-42 -35l92 -236l174 221l-34 50l1 4h116v-4l-44 -50l-205 -252l-49 -230z" />
    <glyph glyph-name="Z.small" horiz-adv-x="509" 
d="M441 109l-23 -109h-411l1 3l414 545h-179l-112 -74h-5l22 101h378l-1 -3l-413 -545h204l121 82h4z" />
    <glyph glyph-name="Zacute.small" horiz-adv-x="509" 
d="M375 619h-5l83 130h79v-5zM441 109l-23 -109h-411l1 3l414 545h-179l-112 -74h-5l22 101h378l-1 -3l-413 -545h204l121 82h4z" />
    <glyph glyph-name="Zcaron.small" horiz-adv-x="509" 
d="M357 619h-20l-82 128l3 2l93 -80h4l135 80l3 -2zM441 109l-23 -109h-411l1 3l414 545h-179l-112 -74h-5l22 101h378l-1 -3l-413 -545h204l121 82h4z" />
    <glyph glyph-name="Zdotaccent.small" horiz-adv-x="509" 
d="M352 636q-19 0 -30 11t-11 30q0 23 16.5 39t38.5 16q19 0 30.5 -11t11.5 -30q0 -22 -16.5 -38.5t-39.5 -16.5zM441 109l-23 -109h-411l1 3l414 545h-179l-112 -74h-5l22 101h378l-1 -3l-413 -545h204l121 82h4z" />
    <glyph glyph-name="a.superior" horiz-adv-x="369" 
d="M142 339q-55 0 -55 89q0 107 70.5 195t155.5 88q41 0 63 -18l55 31l2 -2l-34 -91l-52 -247h3l59 49l2 -3q-19 -41 -45.5 -66t-52.5 -25q-16 0 -24.5 11.5t-4.5 26.5l31 138h-3q-35 -75 -83 -125.5t-87 -50.5zM149 442q0 -61 28 -61q31 0 87.5 84t70.5 152l10 49l-71 22
q-49 -24 -87 -99t-38 -147z" />
    <glyph glyph-name="b.superior" horiz-adv-x="366" 
d="M194 339q-23 0 -57 7.5t-48 16.5l11 26l88 414l-48 19l1 4l114 29h7l-72 -320h3q36 77 83.5 126.5t86.5 49.5q56 0 56 -86q0 -104 -71 -195t-154 -91zM170 433l-9 -49l73 -22q49 24 86 98.5t37 146.5q0 62 -28 62q-31 0 -89 -85t-70 -151z" />
    <glyph glyph-name="c.superior" horiz-adv-x="267" 
d="M175 339q-43 0 -65.5 28.5t-22.5 81.5q0 94 62 178t133 84q61 0 61 -34q0 -25 -24 -30l-70 40q-40 -18 -70.5 -85.5t-30.5 -134.5q0 -84 50 -84q54 0 109 91l3 -2q-40 -133 -135 -133z" />
    <glyph glyph-name="d.superior" horiz-adv-x="378" 
d="M142 339q-55 0 -55 89q0 107 70.5 195t155.5 88q22 0 40 -6l21 98l-47 19l1 4l113 29h7l-101 -471h3l59 48l2 -2q-19 -41 -45.5 -66t-52.5 -25q-16 0 -24.5 11.5t-4.5 26.5l31 138h-3q-35 -75 -83.5 -125.5t-86.5 -50.5zM149 442q0 -61 28 -61q31 0 87.5 84t70.5 152
l10 49l-71 22q-49 -24 -87 -99t-38 -147z" />
    <glyph glyph-name="e.superior" horiz-adv-x="287" 
d="M175 339q-41 0 -64.5 27.5t-23.5 78.5q0 97 63.5 181.5t136.5 84.5q29 0 46 -15.5t17 -41.5q0 -82 -196 -130q-6 -28 -6 -57q0 -84 53 -84q63 0 124 109l2 -1q-20 -73 -61.5 -112.5t-90.5 -39.5zM267 689q-31 0 -62.5 -44.5t-46.5 -104.5q141 37 141 109q0 40 -32 40z
" />
    <glyph glyph-name="f.superior" horiz-adv-x="224" 
d="M63 219q-23 0 -35.5 8.5t-12.5 21.5q0 11 7.5 19.5t16.5 8.5l66 -28q7 7 18.5 70t15.5 110l31 248h-57l5 23h55q13 73 54.5 114t101.5 41q27 0 44.5 -9.5t17.5 -26.5q0 -18 -17 -29l-100 34q-19 -5 -40 -124h93l-9 -23h-88l-36 -250q-15 -108 -47.5 -158t-83.5 -50z" />
    <glyph glyph-name="g.superior" horiz-adv-x="339" 
d="M189 219q-68 0 -113 27q-45 28 -45 70q0 23 14 34l104 49q-62 19 -62 58v9l74 41q-25 22 -25 60q0 57 46 100.5t106 43.5q26 0 50 -11l93 8h3l-4 -41h-4l-78 22v-4q10 -6 17.5 -23t7.5 -37q0 -54 -44.5 -96.5t-102.5 -42.5q-30 0 -51 12l-36 -21q0 -17 25 -26.5
t60.5 -15.5t70.5 -14.5t60 -28.5t25 -52q0 -49 -56 -85t-135 -36zM229 505q31 0 58 43t27 93q0 51 -33 51q-31 0 -58.5 -43t-27.5 -92q0 -52 34 -52zM80 326q0 -34 38.5 -58t93.5 -24q52 0 87 21.5t35 50.5q0 16 -9 27.5t-30 19.5t-35.5 12t-47 10.5t-43.5 8.5l-26 -13
q-37 -16 -50 -27t-13 -28z" />
    <glyph glyph-name="h.superior" horiz-adv-x="386" 
d="M196 505l-35 -155h-62l98 453l-48 19l1 4l114 29h7l-62 -272h2q72 128 150 128q32 0 46 -22t6 -58l-52 -247h2l59 49l2 -3q-19 -40 -46 -65.5t-52 -25.5q-16 0 -24.5 10.5t-5.5 24.5l54 253q9 41 -23 41q-33 0 -75.5 -52.5t-55.5 -110.5z" />
    <glyph glyph-name="i.superior" horiz-adv-x="206" 
d="M232 776q-34 0 -34 33q0 19 12.5 31t32.5 12q15 0 24 -9t9 -24q0 -20 -12 -31.5t-32 -11.5zM141 339q-16 0 -24 10.5t-5 24.5l60 281h-3l-60 -49l-1 4q44 90 109 90h26l-67 -316h3l58 49l3 -3q-19 -40 -46 -65.5t-53 -25.5z" />
    <glyph glyph-name="j.superior" horiz-adv-x="199" 
d="M232 776q-34 0 -34 33q0 19 12.5 31t32.5 12q15 0 24 -9t9 -24q0 -20 -12 -31.5t-32 -11.5zM73 219q-56 0 -56 33q0 11 6.5 19t15.5 9l70 -33l64 408h-3l-59 -48l-2 3q43 90 110 90h25l-48 -280q-19 -115 -46 -158t-77 -43z" />
    <glyph glyph-name="k.superior" horiz-adv-x="370" 
d="M179 429l-18 -79h-62l97 453l-47 19v4l115 29h6l-60 -273h2q25 61 59.5 95t71.5 34q29 0 47 -18.5t18 -47.5q0 -40 -17 -61l-95 -53l61 -146h3l55 47l3 -1q-13 -43 -35 -67.5t-49 -24.5q-30 0 -45 40l-49 133v3l56 35q52 32 52 80q0 44 -34 44q-38 0 -73 -65t-62 -180z
" />
    <glyph glyph-name="l.superior" horiz-adv-x="202" 
d="M139 339q-16 0 -25 10.5t-5 25.5l91 428l-47 19l1 4l113 29h7l-101 -471h2l59 49l3 -3q-19 -40 -46 -65.5t-52 -25.5z" />
    <glyph glyph-name="m.superior" horiz-adv-x="586" 
d="M394 505l-33 -155h-62l58 277q9 41 -22 41q-36 0 -78.5 -53.5t-54.5 -110.5l-33 -154h-62l66 305h-3l-59 -48l-2 3q42 90 109 90h18l-21 -119h3q70 130 153 130q32 0 44.5 -21t4.5 -58l-9 -44h3q65 123 149 123q32 0 44.5 -21.5t4.5 -58.5l-51 -247h3l58 49l2 -3
q-19 -40 -46 -65.5t-51 -25.5q-16 0 -24.5 10.5t-5.5 24.5l53 254q9 40 -22 40q-35 0 -78 -52.5t-56 -110.5z" />
    <glyph glyph-name="n.superior" horiz-adv-x="394" 
d="M333 339q-16 0 -24.5 10.5t-5.5 24.5l54 253q11 41 -22 41q-34 0 -77 -52.5t-55 -110.5l-34 -155h-62l66 305h-3l-59 -48l-3 3q43 90 110 90h19l-22 -119h3q73 130 151 130q32 0 45.5 -22t5.5 -58l-52 -247h3l58 49l3 -3q-19 -40 -46 -65.5t-53 -25.5z" />
    <glyph glyph-name="o.superior" horiz-adv-x="325" 
d="M192 339q-49 0 -77.5 34.5t-28.5 95.5q0 96 56.5 169t130.5 73q49 0 77 -34.5t28 -95.5q0 -95 -56 -168.5t-130 -73.5zM194 359q44 0 82.5 79t38.5 169q0 84 -45 84q-44 0 -82.5 -79.5t-38.5 -169.5q0 -83 45 -83z" />
    <glyph glyph-name="p.superior" horiz-adv-x="350" 
d="M173 222v-3h-129v3l35 29l84 392q-45 -30 -90 -83l-2 3q31 65 99 110l24 114l62 19h3l-22 -102q21 7 48 7q53 0 85.5 -33.5t32.5 -89.5q0 -87 -68 -168t-141 -81q-18 0 -34 3l-19 -91zM256 674q-12 0 -26 -3l-61 -290l65 -17q43 24 75.5 86t32.5 122q0 48 -23.5 75
t-62.5 27z" />
    <glyph glyph-name="q.superior" horiz-adv-x="369" 
d="M142 339q-55 0 -55 89q0 107 70.5 195t155.5 88q41 0 63 -18l55 31l2 -2l-33 -91l-80 -380l24 -29l-1 -3h-132l1 3l46 30l57 263h-3q-35 -75 -83 -125.5t-87 -50.5zM149 442q0 -61 28 -61q31 0 87.5 84t70.5 152l10 49l-71 22q-49 -24 -87 -99t-38 -147z" />
    <glyph glyph-name="r.superior" horiz-adv-x="270" 
d="M202 504l-33 -154h-62l66 305h-3l-59 -48l-2 3q43 90 110 90h18l-18 -105h3q50 116 112 116q18 0 28.5 -9.5t10.5 -25.5q0 -14 -9 -25.5t-22 -14.5l-48 29q-23 -11 -52.5 -62t-39.5 -99z" />
    <glyph glyph-name="s.superior" horiz-adv-x="259" 
d="M166 339q-39 0 -68 16.5t-29 38.5q0 12 9 21t20 9l69 -65q30 0 48 17.5t18 45.5q0 23 -14.5 46t-31.5 39t-31.5 41.5t-14.5 52.5q0 46 37.5 78t91.5 32q30 0 48.5 -10.5t18.5 -26.5q0 -24 -25 -29l-64 43q-24 -1 -39.5 -16.5t-15.5 -42.5q0 -24 14.5 -47t32 -39.5t32 -42
t14.5 -53.5q0 -48 -33.5 -78t-86.5 -30z" />
    <glyph glyph-name="t.superior" horiz-adv-x="248" 
d="M162 339q-29 0 -42 20.5t-5 53.5l66 264h-59l5 23h60l21 86l63 19h4l-26 -105h88l-8 -23h-86l-68 -272q-6 -26 10 -26t50 27t60 60l2 -1q-22 -56 -59 -91t-76 -35z" />
    <glyph glyph-name="u.superior" horiz-adv-x="395" 
d="M336 339q-16 0 -24 10.5t-5 24.5l23 95h-3q-70 -130 -151 -130q-30 0 -44.5 21.5t-7.5 58.5l50 236h-3l-58 -48l-3 3q44 90 110 90h26l-58 -277q-8 -41 22 -41q34 0 77.5 52.5t55.5 109.5l34 156h61l-68 -316h3l58 49l3 -3q-19 -41 -45.5 -66t-52.5 -25z" />
    <glyph glyph-name="v.superior" horiz-adv-x="324" 
d="M282 449l-78 -99h-25l-32 314h-3l-55 -18l-2 2q21 25 52 42.5t59 17.5h6l29 -294l22 31q51 72 69 108.5t18 67.5q0 61 -59 61h-6l-1 3q34 26 66 26q24 0 39 -15t15 -41q0 -33 -25 -79t-89 -127z" />
    <glyph glyph-name="w.superior" horiz-adv-x="499" 
d="M337 526l-133 -176h-25l-32 314h-3l-55 -18l-2 2q21 25 51.5 42.5t59.5 17.5h6l29 -290l101 135l-11 111h-3l-55 -19l-2 3q21 25 51.5 42.5t58.5 17.5h7l28 -294l22 31q52 74 70 109.5t18 66.5q0 61 -60 61h-6l-2 3q34 26 67 26q24 0 38.5 -15t14.5 -41q0 -33 -24 -78
t-88 -128l-78 -99h-25z" />
    <glyph glyph-name="x.superior" horiz-adv-x="345" 
d="M90 339q-19 0 -25 14l23 61h3l24 -10q26 5 59 47l52 62l-52 143l-3 -1l-48 -31l-4 3q15 30 41.5 53.5t55.5 30.5l56 -150l67 91q25 34 39.5 46.5t31.5 12.5q19 0 25 -13l-23 -61h-2l-25 9q-22 -2 -59 -46l-48 -57l55 -148h3l48 31l3 -2q-13 -29 -40 -53t-57 -32l-57 157
l-72 -98q-26 -35 -40 -47t-31 -12z" />
    <glyph glyph-name="y.superior" horiz-adv-x="325" 
d="M63 219q-23 0 -38 11t-15 29q0 22 21 28l80 -36q35 12 75 67l-37 346h-3l-54 -18l-2 2q21 26 51.5 43t58.5 17h6l32 -323l54 97q52 89 52 144q0 27 -15.5 41.5t-43.5 14.5h-6l-2 3q32 26 67 26q25 0 39 -14.5t14 -40.5q0 -28 -19 -67t-63 -109l-75 -123
q-88 -138 -177 -138z" />
    <glyph glyph-name="z.superior" horiz-adv-x="306" 
d="M279 330q-45 0 -144 87h-2l-56 -70h-4l-2 11q-2 10 -2 15q0 36 24.5 64t57.5 28l167 188h-138l-35 -30h-3l15 77h235v-4l-222 -242q90 -72 135 -77l42 66l4 -2q-18 -111 -72 -111z" />
    <glyph glyph-name="grave.cap" horiz-adv-x="500" 
d="M264 875h70l31 -130h-5l-96 125v5z" />
    <glyph glyph-name="acute.cap" horiz-adv-x="500" 
d="M215 745h-5l83 130h79v-5z" />
    <glyph glyph-name="circumflex.cap" horiz-adv-x="500" 
d="M333 875h20l82 -128l-4 -2l-93 80h-4l-135 -80l-2 2z" />
    <glyph glyph-name="caron.cap" horiz-adv-x="500" 
d="M326 745h-20l-82 128l3 2l93 -80h4l135 80l3 -2z" />
    <glyph glyph-name="caronSlovak" horiz-adv-x="501" 
d="M227 504h-4l82 196h72l-1 -5z" />
    <glyph glyph-name="tilde.cap" horiz-adv-x="500" 
d="M390 762q-24 0 -69 26t-69 26q-19 0 -38 -11.5t-57 -47.5l-3 3q47 62 69.5 81t46.5 19t69 -26t69 -26q16 0 36 11q17 9 59 48l2 -3q-44 -60 -68.5 -80t-46.5 -20z" />
    <glyph glyph-name="dieresis.cap" horiz-adv-x="500" 
d="M243 771q-15 0 -24 9t-9 24q0 18 13 31.5t32 13.5q34 0 34 -33q0 -18 -13 -31.5t-33 -13.5zM403 771q-15 0 -24.5 9t-9.5 24q0 18 13.5 31.5t32.5 13.5q15 0 24.5 -9t9.5 -24q0 -18 -13 -31.5t-33 -13.5z" />
    <glyph glyph-name="macron.cap" horiz-adv-x="500" 
d="M462 795h-254l7 30h254z" />
    <glyph glyph-name="breve.cap" horiz-adv-x="500" 
d="M308 745q-52 0 -81.5 25.5t-29.5 69.5q0 19 4 35h4q6 -90 107 -90q102 0 145 90h4q-13 -62 -53 -96t-100 -34z" />
    <glyph glyph-name="ring.cap" horiz-adv-x="500" 
d="M316 745q-40 0 -64.5 20.5t-24.5 54.5q0 42 36 71q37 30 89 30q41 0 65 -20.5t24 -54.5q0 -42 -36 -71.5t-89 -29.5zM325 765q28 0 47 24t19 55q0 26 -13 41.5t-35 15.5q-27 0 -46.5 -24.5t-19.5 -55.5q0 -25 13 -40.5t35 -15.5z" />
    <glyph glyph-name="hungarumlaut.cap" horiz-adv-x="501" 
d="M242 745h-5l83 130h79v-5zM367 745h-5l83 130h79v-5z" />
    <glyph glyph-name="dotaccent.cap" horiz-adv-x="500" 
d="M321 761q-19 0 -30 11t-11 30q0 23 16.5 39t38.5 16q19 0 30.5 -11t11.5 -30q0 -22 -16.5 -38.5t-39.5 -16.5z" />
    <glyph glyph-name="commaaccent.alt" horiz-adv-x="500" 
d="M366 739l1 -4q-20 -12 -40 -35.5t-24 -40.5v-4l55 -13q4 -4 4 -14q0 -17 -14 -28.5t-34 -11.5q-23 0 -39.5 15.5t-16.5 37.5q0 32 31 60t77 38z" />
    <glyph glyph-name="hyphen.cap" horiz-adv-x="223" 
d="M225 331h-184l7 38h185z" />
    <glyph glyph-name="exclamdown.cap" horiz-adv-x="351" 
d="M272 715q45 0 45 -47q0 -29 -17.5 -43t-42.5 -14q-45 0 -45 47q0 28 18 42.5t42 14.5zM222 502h17l-61 -494h-106z" />
    <glyph glyph-name="questiondown.cap" horiz-adv-x="385" 
d="M284 715q45 0 45 -47q0 -29 -17.5 -43t-42.5 -14q-45 0 -45 47q0 28 18 42.5t42 14.5zM221 504l2 3q47 -15 47 -66q0 -32 -20 -64t-48 -60.5t-56.5 -57.5t-48.5 -65t-20 -73q0 -44 25 -70.5t66 -26.5q18 0 37 8l120 101h4l-21 -106q-57 -34 -135 -34q-77 0 -124 38
t-47 100q0 43 24 83.5t58 72.5t67.5 61t57.5 60t24 59q0 22 -12 37z" />
    <glyph glyph-name="guilsinglleft.cap" horiz-adv-x="191" 
d="M170 184l-3 -14l-118 168l5 22l189 169l-3 -14l-134 -169v-2z" />
    <glyph glyph-name="guilsinglright.cap" horiz-adv-x="191" 
d="M72 514l3 14l118 -168l-5 -22l-189 -169l3 14l134 169v2z" />
    <glyph glyph-name="guillemotleft.cap" horiz-adv-x="319" 
d="M170 185l-3 -14l-118 168l5 22l189 169l-3 -14l-134 -169v-2zM298 185l-3 -14l-118 168l5 22l189 169l-3 -14l-134 -169v-2z" />
    <glyph glyph-name="guillemotright.cap" horiz-adv-x="308" 
d="M72 515l3 14l118 -168l-5 -22l-189 -169l3 14l134 169v2zM204 515l3 14l118 -168l-5 -22l-189 -169l3 14l134 169v2z" />
    <glyph glyph-name="endash.cap" horiz-adv-x="500" 
d="M502 335h-460l7 33h460z" />
    <glyph glyph-name="emdash.cap" horiz-adv-x="1000" 
d="M1002 334h-960l7 33h960z" />
    <glyph glyph-name="periodcentered.cap" horiz-adv-x="231" 
d="M137 298q-20 0 -32.5 12.5t-12.5 34.5q0 29 17.5 43t42.5 14q45 0 45 -47q0 -28 -18 -42.5t-42 -14.5z" />
    <glyph glyph-name="parenleft.cap" horiz-adv-x="303" 
d="M55 221q0 179 88 334.5t231 231.5l1 -3q-275 -251 -275 -569q0 -178 91 -299l-3 -3q-64 45 -98.5 124.5t-34.5 183.5z" />
    <glyph glyph-name="parenright.cap" horiz-adv-x="303" 
d="M270 479q0 -179 -88 -334.5t-231 -231.5l-1 3q275 251 275 569q0 178 -91 299l3 3q133 -92 133 -308z" />
    <glyph glyph-name="parenleft.small" horiz-adv-x="271" 
d="M75 274q22 120 91 222t169 150l1 -3q-173 -156 -211 -377q-19 -97 -5 -176.5t65 -158.5l-2 -3q-74 50 -101 142t-7 204z" />
    <glyph glyph-name="parenright.small" horiz-adv-x="276" 
d="M239 301q-20 -119 -90 -221.5t-170 -150.5l-1 3q174 157 211 377q19 96 5.5 177t-65.5 158l2 3q75 -48 102.5 -141t5.5 -205z" />
    <glyph glyph-name="bracketleft.cap" horiz-adv-x="303" 
d="M183 -50l-5 -22h-149l179 844h149l-5 -22h-104l-170 -800h105z" />
    <glyph glyph-name="bracketright.cap" horiz-adv-x="303" 
d="M144 749l5 22h149l-179 -844h-149l5 22h104l170 800h-105z" />
    <glyph glyph-name="bracketleft.small" horiz-adv-x="282" 
d="M168 -37l-4 -23h-129l147 693h129l-6 -23h-82l-137 -647h82z" />
    <glyph glyph-name="bracketright.small" horiz-adv-x="282" 
d="M118 610l4 23h129l-147 -693h-129l6 23h82l137 647h-82z" />
    <glyph glyph-name="braceleft.cap" horiz-adv-x="303" 
d="M58 48q0 46 31 124.5t31 116.5q0 23 -13 34.5t-43 15.5l4 22q56 12 74 41t22 115q8 133 52.5 192.5t153.5 77.5l1 -3q-84 -36 -119 -93t-41 -168q-7 -111 -45 -145l-67 -27l-1 -4l55 -27q9 -12 9 -37q0 -37 -28 -116.5t-28 -123.5q0 -83 80 -127l-2 -3q-126 27 -126 135z
" />
    <glyph glyph-name="braceright.cap" horiz-adv-x="303" 
d="M258 652q0 -45 -31 -124.5t-31 -116.5q0 -22 13 -33.5t43 -16.5l-4 -22q-55 -10 -73 -40t-23 -116q-6 -133 -51 -191.5t-155 -78.5l-1 3q84 36 119 93.5t41 167.5q7 108 45 145l67 27l1 4l-55 27q-9 12 -9 37q0 37 28 116.5t28 123.5q0 85 -80 127l2 3q126 -27 126 -135z
" />
    <glyph glyph-name="braceleft.small" horiz-adv-x="270" 
d="M64 40q0 38 24.5 102t24.5 89q0 46 -49 46l4 19q42 3 59.5 29.5t21.5 103.5q7 111 43 155t128 61v-2q-62 -29 -88.5 -75t-37.5 -140q-7 -87 -40 -120l-55 -21l-1 -3l42 -15q12 -13 12 -39q0 -30 -22.5 -96t-22.5 -103q0 -64 61 -100l-2 -3q-102 23 -102 112z" />
    <glyph glyph-name="braceright.small" horiz-adv-x="270" 
d="M210 533q0 -38 -24.5 -102t-24.5 -89q0 -46 49 -46l-4 -19q-42 -3 -58.5 -29t-22.5 -104q-7 -111 -43 -155t-128 -61v2q63 30 90 76t36 139q10 93 40 120l55 21l1 3l-42 15q-12 14 -12 39q0 31 22.5 97t22.5 102q0 66 -61 100l2 3q102 -23 102 -112z" />
    <glyph glyph-name="at.small" horiz-adv-x="692" 
d="M370 -63q-134 0 -219.5 89t-85.5 232q0 161 103 270.5t254 109.5q123 0 200.5 -74t77.5 -193q0 -112 -68.5 -183t-184.5 -80q-12 -1 -21.5 9t-6.5 20l29 138h-3q-32 -74 -77 -121q-45 -46 -83 -46q-56 0 -56 82q0 97 75.5 193t153.5 96q31 0 54 -17l58 26l2 -1l-32 -85
l-59 -265q89 14 140 76t51 155q0 111 -68.5 178t-179.5 67q-132 0 -221.5 -100.5t-89.5 -245.5q0 -132 77 -215.5t201 -83.5q65 0 125 24t93 64l4 -2q-29 -53 -95 -84q-68 -33 -148 -33zM290 217q0 -29 8.5 -46t21.5 -17q32 0 83 79.5t69 157.5l8 41l-62 18
q-49 -24 -88.5 -95t-39.5 -138z" />
    <glyph glyph-name="at.cap" horiz-adv-x="837" 
d="M455 -83q-169 0 -272.5 109t-103.5 286q0 197 123 332t302 135q148 0 243 -92.5t95 -236.5q0 -135 -83 -222.5t-221 -99.5q-15 -1 -27.5 12.5t-9.5 26.5l39 176h-4q-42 -94 -98.5 -154t-103.5 -60q-31 0 -48 25.5t-17 72.5q0 77 43 161t108 139.5t124 55.5q39 0 66 -21
l65 32l3 -2l-40 -104l-71 -328q112 15 178 92t66 193q0 135 -84.5 220t-220.5 85q-158 0 -266.5 -123t-108.5 -303q0 -165 94 -269.5t242 -104.5q80 0 152.5 30.5t113.5 81.5l5 -3q-36 -63 -114.5 -102.5t-168.5 -39.5zM333 263q0 -39 10.5 -61.5t29.5 -22.5
q42 0 105.5 97.5t87.5 199.5l11 52l-84 23q-62 -29 -111 -116t-49 -172z" />
    <glyph glyph-name="zero.slash" horiz-adv-x="534" 
d="M73 73l-58 -73h-26l75 95q-16 41 -16 103q0 135 43.5 254.5t117 191t156.5 71.5q85 0 129 -74l46 59h29l-64 -81q21 -48 21 -117q0 -134 -43.5 -254t-117 -191.5t-155.5 -71.5q-95 0 -137 88zM364 687q-58 0 -114 -75.5t-91 -195.5t-35 -244l324 411q-14 104 -84 104z
M210 13q58 0 114.5 75.5t91.5 197t35 246.5v18l-326 -411q9 -126 85 -126z" />
    <glyph glyph-name="numbersign.LT" 
d="M89 0h-23l80 217h-131l14 64h141l51 137h-132l15 64h140l81 218h23l-81 -218h129l81 218h23l-81 -218h132l-14 -64h-141l-51 -137h132l-15 -64h-141l-80 -217h-23l80 217h-129zM244 418l-51 -137h129l51 137h-129z" />
    <glyph glyph-name="Euro.LT" 
d="M75 276h-77l5 20h74q5 59 14 95h-68l4 20h69q39 136 133.5 220t213.5 84q79 0 131 -31l-18 -79h-5l-105 77q-9 3 -24 3q-79 0 -146.5 -76.5t-101.5 -197.5h259l-11 -20h-253q-10 -42 -15 -95h227l-10 -20h-219q-1 -13 -1 -39q0 -95 43.5 -158.5t108.5 -63.5q15 0 24 3
l123 91h4l-20 -92q-50 -32 -129 -32q-105 0 -167.5 73t-62.5 195v23z" />
    <glyph glyph-name="dollar.LT" 
d="M186 -8l-39 -107h-23l41 111q-79 19 -135 68l18 86h4l111 -119q5 -3 13 -5l106 285q-1 1 -20.5 20t-22 22t-18.5 20.5t-20 23.5t-16 21.5t-15.5 25t-9.5 24t-8 28t-2 28.5q0 82 58.5 136.5t147.5 54.5q39 0 73 -10l41 110h23l-43 -117q51 -20 86 -52l-19 -80h-4l-78 94
l-105 -284q52 -50 80 -93t28 -96q0 -87 -58.5 -143t-149.5 -56q-24 0 -44 4zM213 562q0 -30 16 -62t34 -53t51 -54l104 281q-26 12 -67 12q-63 0 -100.5 -33.5t-37.5 -90.5zM376 150q0 65 -78 145l-101 -275q18 -3 39 -3q63 0 101.5 36.5t38.5 96.5z" />
    <glyph glyph-name="cent.LT" 
d="M153 -115h-23l39 106q-79 25 -79 146q0 86 39.5 173.5t102 144t124.5 56.5h7l41 109h23l-41 -111q53 -8 53 -41q0 -13 -8 -24t-21 -14l-45 23l-154 -411q9 -3 20 -3q76 0 158 132l4 -2q-60 -184 -185 -184q-12 0 -17 1zM158 160q0 -83 34 -108l153 410l-33 17
q-61 -24 -107.5 -121t-46.5 -198z" />
    <glyph glyph-name="sterling.LT" 
d="M469 99l-23 -119h-22q-174 0 -290 119h-4l-143 -94q-27 24 -27 57q0 29 22 48.5t64 19.5q36 0 79 -10q28 65 32 212h-131l7 21h124v28q0 163 63.5 248.5t178.5 85.5q76 0 150 -44l-19 -88h-5l-96 96q-15 7 -44 7q-70 0 -111 -79.5t-43 -225.5q0 -5 -0.5 -14t-0.5 -14h213
l-6 -21h-208q-13 -154 -79 -220q142 -75 254 -75l62 65z" />
    <glyph glyph-name="florin.LT" 
d="M-35 -200q-68 0 -112 22l16 79h5l101 -66q5 -3 11 -3q67 0 117 185l86 315h-140l6 21h140l26 96q72 266 255 266q75 0 130 -35l-19 -84h-5l-100 87q-8 3 -16 3q-49 0 -91 -57.5t-72 -161.5l-32 -114h210l-6 -21h-210l-88 -309q-64 -223 -212 -223z" />
    <glyph glyph-name="yen.LT" 
d="M246 276h-183l5 20h182l9 41l-21 54h-150l5 20h137l-100 251l-20 35l1 3h140l-1 -3l-41 -36l115 -297l222 283l-35 50l1 3h116v-3l-44 -50l-190 -236h141l-5 -20h-152l-46 -56l-8 -39h186l-5 -20h-185l-49 -237l30 -36l-1 -3h-146l1 3l41 36z" />
    <glyph glyph-name="zero.slash.LT" 
d="M70 73l-56 -73h-26l73 95q-14 47 -14 102q0 135 41.5 255t111 191.5t147.5 71.5q88 0 127 -85l54 70h29l-74 -95q15 -43 15 -102q0 -135 -41 -255t-110.5 -191.5t-147.5 -71.5q-90 0 -129 88zM347 687q-52 0 -103.5 -76t-85 -195t-36.5 -242l302 392q-6 121 -77 121z
M198 13q52 0 104.5 76.5t87 197.5t35.5 243l-303 -390q6 -127 76 -127z" />
    <glyph glyph-name="zero.LT" 
d="M199 -15q-70 0 -111 57t-41 155q0 135 41.5 255t111 191.5t147.5 71.5q70 0 110.5 -57t40.5 -155q0 -135 -41 -255t-110.5 -191.5t-147.5 -71.5zM198 13q53 0 106.5 79t87 203.5t33.5 247.5q0 144 -78 144q-53 0 -105.5 -79t-86 -203t-33.5 -247q0 -70 19.5 -107.5
t56.5 -37.5z" />
    <glyph glyph-name="one.LT" 
d="M283 4l-1 -4h-160l1 4l49 41l122 575h-75l1 4l136 76h30l-140 -655z" />
    <glyph glyph-name="two.LT" 
d="M419 103l-20 -103h-410l1 5l225 208q131 121 171.5 182.5t40.5 140.5q0 55 -36.5 90.5t-95.5 35.5q-58 0 -104.5 -39t-72.5 -110l-5 1q8 90 64.5 145.5t141.5 55.5q79 0 131 -49t52 -126q0 -81 -67 -166l-349 -315h279l49 44h5z" />
    <glyph glyph-name="three.LT" 
d="M204 -15q-54 0 -103 16.5t-76 43.5l18 91h5l91 -102q28 -19 76 -19q74 0 123 48t49 120q0 81 -63 130t-167 51l1 5l68 36q25 0 52 -5q71 29 103.5 64t32.5 84q0 52 -33 83t-86 31q-107 0 -161 -136l-4 1q6 84 60 136t133 52q71 0 115 -40t44 -104q0 -83 -72 -134
l-105 -43q69 -19 108.5 -68.5t39.5 -118.5q0 -95 -71 -158.5t-178 -63.5z" />
    <glyph glyph-name="four.LT" 
d="M388 4l-1 -4h-161l1 4l49 41l30 142h-305l1 5l434 508h55l-101 -478h40l49 44h5l-17 -79h-85l-30 -142zM396 608l-330 -386h248z" />
    <glyph glyph-name="five.LT" 
d="M200 -15q-52 0 -101.5 16.5t-76.5 43.5l19 90h4l90 -102q28 -19 73 -19q74 0 122 52.5t48 133.5q0 80 -52.5 163.5t-167.5 190.5v4l52 133l211 18l49 44h5l-21 -104l-245 -20l-7 -15q243 -212 243 -396q0 -102 -69.5 -167.5t-175.5 -65.5z" />
    <glyph glyph-name="six.LT" 
d="M246 -15q-93 0 -150.5 65t-57.5 170q0 169 138 306t360 189l2 -4q-202 -91 -315.5 -223.5t-113.5 -277.5q0 -87 40.5 -141.5t104.5 -54.5q57 0 93 43.5t36 112.5q0 78 -48 127t-131 57v3l69 20q82 -3 134 -55t52 -132q0 -87 -61.5 -146t-151.5 -59z" />
    <glyph glyph-name="seven.LT" 
d="M556 695l-429 -695h-63v5l416 613v4h-289l-49 -44h-5l24 122h396z" />
    <glyph glyph-name="eight.LT" 
d="M221 -15q-86 0 -142 50.5t-56 128.5q0 76 59 129l142 73q-44 39 -68 77t-24 87q0 77 58 131t139 54q73 0 120.5 -42.5t47.5 -107.5q0 -69 -50 -110l-131 -66q34 -27 51 -42t41 -41.5t34.5 -55t10.5 -61.5q0 -84 -68.5 -144t-163.5 -60zM200 557q0 -46 26 -81.5t77 -76.5
q79 43 108.5 77t29.5 82q0 57 -32 93t-83 36q-54 0 -90 -38t-36 -92zM82 172q0 -69 43 -114t108 -45t109 43.5t44 103.5q0 18 -4 34t-14 32t-17.5 27.5t-25.5 28t-26 23.5t-31 25.5t-29 23.5q-83 -38 -120 -81t-37 -101z" />
    <glyph glyph-name="nine.LT" 
d="M302 715q93 0 150.5 -64.5t57.5 -170.5q0 -169 -138 -306t-360 -189l-2 4q203 92 316 224t113 277q0 87 -40.5 141.5t-104.5 54.5q-57 0 -93 -43.5t-36 -112.5q0 -78 48 -127t131 -57v-3l-69 -20q-83 5 -134.5 56t-51.5 131q0 87 61.5 146t151.5 59z" />
    <glyph glyph-name="numbersign.OT" 
d="M90 0h-23l57 155h-121l14 64h131l50 137h-121l15 64h130l57 154h23l-57 -154h130l57 154h23l-57 -154h141l-14 -64h-151l-51 -137h142l-15 -64h-150l-58 -155h-23l58 155h-130zM221 356l-50 -137h129l51 137h-130z" />
    <glyph glyph-name="Euro.OT" horiz-adv-x="528" 
d="M76 219h-90l5 21h85q2 52 14 95h-79l4 21h82q37 103 122.5 167t193.5 64q95 0 137 -36l-18 -84h-4l-96 85q-22 8 -45 8q-65 0 -123 -57.5t-89 -146.5h245l-9 -21h-242q-14 -49 -15 -95h214l-9 -21h-206q0 -93 46 -148q47 -56 120 -56q16 0 25 3l123 91h4l-19 -92
q-50 -32 -133 -32q-108 0 -173 63.5t-70 170.5z" />
    <glyph glyph-name="dollar.OT" horiz-adv-x="528" 
d="M163 -115h-23l40 109q-99 18 -169 74l20 91h5l110 -120q23 -9 46 -14l89 241q-83 42 -110 66q-40 37 -40 88q0 71 59.5 119t152.5 48q25 0 58 -5l40 108h23l-42 -112q72 -16 122 -53l-18 -81h-4l-86 88q-15 9 -27 13l-84 -225q36 -17 56 -28t46 -30t38 -43t12 -54
q0 -78 -67 -127.5t-172 -49.5q-12 0 -36 2zM194 449q0 -40 28 -65.5t84 -54.5l83 222q-30 8 -60 8q-61 0 -98 -29.5t-37 -80.5zM415 136q0 44 -35 71q-34 26 -79 49l-88 -236q5 0 22 -2t26 -2q67 0 110 34q44 35 44 86z" />
    </font>
</defs>
</svg>
