<svg xmlns="http://www.w3.org/2000/svg">
<defs>
<font id="Cambon-Italic" horiz-adv-x="518" >
  <font-face 
    font-family="Cambon"
    font-weight="400"
    font-style="italic"
    font-stretch="normal"
    units-per-em="1000"
    panose-1="2 14 5 3 7 0 0 0 0 7"
    ascent="780"
    descent="-220"
    x-height="501"
    cap-height="700"
    bbox="-162 -208 1069 1080"
    underline-thickness="37"
    underline-position="-179"
    slope="-12"
    unicode-range="U+0020-1F784"
  />
<missing-glyph horiz-adv-x="700" 
d="M369 -80q-113 0 -190 78.5t-77 187.5v18l-19 31q-15 25 -9 53q6 29 31 44l7 4q18 13 43 11q-7 24 0.5 46t28.5 35l7 4q20 12 41 11l-76 120q-12 21 -12 39q0 30 21.5 52.5t51.5 22.5q42 0 65 -35l139 -221v224q0 31 21.5 53t52.5 22t52.5 -22t21.5 -53v-286
q30 -15 48 -43t18 -63v-62q0 -65 -30 -126t-92.5 -103t-143.5 -42zM451 645v-274h66q17 0 22 -2v276q0 18 -13 31t-31 13t-31 -13t-13 -31zM182 579l127 -203l24 -37q6 14 20 23t30 9h33l-160 255q-12 20 -37 20q-18 0 -31 -13t-13 -31q0 -12 7 -23zM313 220l8 5
q14 9 17.5 25.5t-5.5 29.5l-72 114q-9 14 -24.5 17.5t-29.5 -4.5l-8 -5q-13 -9 -17 -24.5t5 -30.5l72 -114q9 -14 25 -17.5t29 4.5zM359 138q0 24 13 49.5t29 33.5q-16 1 -34 15q-7 -25 -29 -37l-7 -4q-18 -11 -43 -11q17 -49 -29 -81l-8 -5q-24 -15 -51.5 -8.5t-44.5 31.5
l-20 30q12 -85 79.5 -143t153.5 -58q99 0 168 72t69 169v62q0 36 -26 62t-62 26h-134q-10 0 -17 -7.5t-7 -19.5q0 -27 19 -47.5t48 -20.5h42q6 0 10.5 -4.5t4.5 -10.5t-4.5 -10.5t-10.5 -4.5q-34 0 -55.5 -23.5t-21.5 -54.5q0 -6 -5 -10.5t-11 -4.5t-11 4.5t-5 10.5z
M235 124l8 5q14 9 17.5 25.5t-5.5 29.5l-72 114q-9 14 -24.5 17.5t-29.5 -4.5l-8 -5q-13 -9 -17 -24.5t5 -30.5l72 -114q9 -14 25 -17.5t29 4.5z" />
    <glyph glyph-name="f_f" unicode="ff" horiz-adv-x="591" 
d="M-15 -200q-32 0 -49.5 12.5t-17.5 31.5q0 14 10.5 26.5t23.5 12.5l92 -40q18 18 50 257l46 368h-81l7 33h78q20 130 78.5 199.5t150.5 69.5q52 0 74 -20l-6 -66l-135 43q-38 -10 -76 -226h193q22 130 81.5 199.5t148.5 69.5q39 0 64 -14t25 -37q0 -27 -23 -42l-142 48
q-37 -8 -68 -224h131l-12 -33h-124l-52 -342q-24 -151 -67 -218.5t-113 -67.5q-31 0 -48.5 12.5t-17.5 29.5q0 15 10 26.5t23 12.5l89 -38q17 17 48 246l43 339h-194l-55 -372q-25 -156 -69 -226t-116 -70z" />
    <glyph glyph-name="fi" unicode="fi" horiz-adv-x="548" 
d="M-7 -200q-29 0 -45.5 12.5t-16.5 31.5q0 14 10.5 26.5t23.5 12.5l79 -40q9 10 25 95.5t25 162.5l46 364v3h-81l7 33h80q26 125 101 197t180 72q53 0 86.5 -18.5t33.5 -47.5q0 -32 -28 -44l-158 73q-90 -19 -126 -232h269l-97 -453h4l83 69l3 -3q-27 -59 -65.5 -94
t-73.5 -35q-21 0 -33 14t-8 35l93 434h-180l-56 -356q-26 -162 -69.5 -237t-111.5 -75z" />
    <glyph glyph-name="fl" unicode="fl" horiz-adv-x="565" 
d="M-15 -200q-32 0 -49.5 12.5t-17.5 31.5q0 14 10.5 26.5t23.5 12.5l92 -40q18 18 50 257l47 368h-82l7 33h79q21 129 80.5 199t147.5 70q60 0 106 -24l89 24h11l-154 -722h3l84 69l3 -3q-27 -58 -65.5 -93.5t-73.5 -35.5q-22 0 -33.5 14.5t-7.5 35.5l139 656l-173 39
q-35 -10 -71 -229h127l-12 -33h-120l-55 -372q-25 -156 -69 -226t-116 -70z" />
    <glyph glyph-name="f_f_i" unicode="ffi" horiz-adv-x="826" 
d="M-15 -200q-32 0 -49.5 12.5t-17.5 31.5q0 14 10.5 26.5t23.5 12.5l92 -40q18 18 50 257l46 368h-81l7 33h78q20 130 78.5 199.5t150.5 69.5q52 0 74 -20l-6 -66l-135 43q-38 -10 -76 -226h194q26 125 101 197t180 72q53 0 86.5 -18.5t33.5 -47.5q0 -32 -29 -44l-157 73
q-92 -21 -128 -232h271l-97 -453h4l83 69l3 -3q-27 -59 -65.5 -94t-73.5 -35q-21 0 -33 14t-8 35l93 434h-182l-54 -342q-25 -150 -68 -218t-112 -68q-31 0 -48.5 12.5t-17.5 29.5q0 15 10 26.5t23 12.5l89 -38q17 17 48 246l42 336v3h-193l-55 -372q-25 -156 -69 -226
t-116 -70z" />
    <glyph glyph-name="f_f_l" unicode="ffl" horiz-adv-x="843" 
d="M-15 -200q-32 0 -49.5 12.5t-17.5 31.5q0 14 10.5 26.5t23.5 12.5l92 -40q18 18 50 257l46 368h-81l7 33h78q20 130 78.5 199.5t150.5 69.5q52 0 74 -20l-6 -66l-135 43q-38 -10 -76 -226h193q22 129 81.5 199t147.5 70q60 0 106 -24l89 24h9l-154 -722h4l83 69l3 -3
q-27 -58 -65 -93.5t-74 -35.5q-22 0 -33.5 14.5t-7.5 35.5l140 656l-174 39q-18 -6 -37 -72.5t-32 -156.5h131l-12 -33h-124l-52 -342q-24 -151 -67 -218.5t-113 -67.5q-31 0 -48.5 12.5t-17.5 29.5q0 15 10 26.5t23 12.5l89 -38q17 17 48 246l43 339h-194l-55 -372
q-25 -156 -69 -226t-116 -70z" />
    <glyph glyph-name="T_h" unicode="Th" horiz-adv-x="1031" 
d="M343 4l-1 -4h-185l1 4l51 44l132 619h-103l-140 -83h-4l23 116h567l87 70h10l-98 -437h4q100 183 212 183q45 0 64.5 -31.5t8.5 -82.5l-75 -354h4l83 69l3 -3q-27 -58 -65.5 -93.5t-73.5 -35.5q-22 0 -33.5 14.5t-7.5 34.5l77 363q14 59 -32 59q-49 0 -110 -75t-79 -160
l-48 -221h-87l144 667h-235l-132 -619z" />
    <glyph glyph-name="f_b" unicode="fb" horiz-adv-x="813" 
d="M-15 -200q-32 0 -49.5 12.5t-17.5 31.5q0 14 10.5 26.5t23.5 12.5l92 -40q18 18 50 257l47 368h-82l7 33h79q21 129 80.5 199t147.5 70q60 0 106 -24l89 24h11l-112 -506h4q50 108 119 180.5t123 72.5q79 0 79 -124q0 -96 -46.5 -191.5t-121.5 -156t-151 -60.5
q-32 0 -80 10.5t-69 22.5l15 36l135 637l-173 39q-35 -10 -71 -229h132l-12 -33h-125l-55 -372q-25 -156 -69 -226t-116 -70zM438 119l-14 -71l104 -31q70 34 123.5 140.5t53.5 210.5q0 88 -40 88q-49 0 -126.5 -115.5t-100.5 -221.5z" />
    <glyph glyph-name="f_f_b" unicode="ffb" horiz-adv-x="1090" 
d="M-15 -200q-32 0 -49.5 12.5t-17.5 31.5q0 14 10.5 26.5t23.5 12.5l92 -40q18 18 50 257l46 368h-81l7 33h78q20 130 78.5 199.5t150.5 69.5q52 0 74 -20l-6 -66l-135 43q-38 -10 -76 -226h193q22 129 81.5 199t147.5 70q60 0 106 -24l89 24h9l-112 -506h4
q50 108 119 180.5t123 72.5q79 0 79 -124q0 -96 -46.5 -191.5t-121 -156t-150.5 -60.5q-33 0 -80 10.5t-70 22.5l14 33l137 640l-174 39q-18 -6 -37 -72.5t-32 -156.5h131l-12 -33h-124l-52 -342q-24 -151 -67 -218.5t-113 -67.5q-31 0 -48.5 12.5t-17.5 29.5q0 15 10 26.5
t23 12.5l89 -38q17 17 48 246l43 339h-194l-55 -372q-25 -156 -69 -226t-116 -70zM716 119l-15 -71l104 -31q70 34 124 140.5t54 210.5q0 88 -41 88q-31 0 -79.5 -54.5t-90 -134.5t-56.5 -148z" />
    <glyph glyph-name="f_h" unicode="fh" horiz-adv-x="828" 
d="M-15 -200q-32 0 -49.5 12.5t-17.5 31.5q0 14 10.5 26.5t23.5 12.5l92 -40q18 18 50 257l47 368h-82l7 33h79q21 129 80.5 199t147.5 70q60 0 106 -24l89 24h11l-98 -437h3q100 183 213 183q45 0 64 -31.5t8 -82.5l-74 -354h3l83 69l4 -3q-27 -58 -65.5 -93.5t-73.5 -35.5
q-22 0 -33.5 14.5t-7.5 34.5l77 363q12 59 -32 59q-49 0 -110 -75t-79 -160l-49 -221h-86l148 691l-173 39q-35 -10 -71 -229h132l-12 -33h-125l-55 -372q-25 -156 -69 -226t-116 -70z" />
    <glyph glyph-name="f_f_h" unicode="ffh" horiz-adv-x="1106" 
d="M-15 -200q-32 0 -49.5 12.5t-17.5 31.5q0 14 10.5 26.5t23.5 12.5l92 -40q18 18 50 257l46 368h-81l7 33h78q20 130 78.5 199.5t150.5 69.5q52 0 74 -20l-6 -66l-135 43q-38 -10 -76 -226h193q22 129 81.5 199t147.5 70q60 0 106 -24l89 24h9l-98 -437h4q100 183 213 183
q45 0 64.5 -31.5t8.5 -82.5l-75 -354h3l84 69l3 -3q-27 -58 -65.5 -93.5t-73.5 -35.5q-22 0 -33.5 14.5t-7.5 34.5l77 363q12 59 -32 59q-49 0 -110 -75t-79 -160l-48 -221h-88l149 691l-174 39q-18 -6 -37 -72.5t-32 -156.5h131l-12 -33h-124l-52 -342q-24 -151 -67 -218.5
t-113 -67.5q-31 0 -48.5 12.5t-17.5 29.5q0 15 10 26.5t23 12.5l89 -38q17 17 48 246l43 339h-194l-55 -372q-25 -156 -69 -226t-116 -70z" />
    <glyph glyph-name="f_j" unicode="fj" horiz-adv-x="548" 
d="M-2 -160q-29 0 -45.5 12.5t-16.5 31.5q0 15 10.5 27t23.5 13l79 -41q10 11 25 90t24 156l42 336v3h-81l7 33h80q26 125 101 197t180 72q53 0 86.5 -18.5t33.5 -47.5q0 -32 -28 -44l-158 73q-90 -19 -126 -232h269l-76 -413q-28 -154 -71 -221t-113 -67q-31 0 -48.5 12
t-17.5 32q0 15 9.5 27.5t21.5 13.5l95 -43l107 626h-182l-52 -326q-26 -162 -68 -232t-111 -70z" />
    <glyph glyph-name="f_f_j" unicode="ffj" horiz-adv-x="826" 
d="M-15 -200q-32 0 -49.5 12.5t-17.5 31.5q0 14 10.5 26.5t23.5 12.5l92 -40q18 18 50 257l46 368h-81l7 33h78q20 130 78.5 199.5t150.5 69.5q52 0 74 -20l-6 -66l-135 43q-38 -10 -76 -226h194q24 124 100 196.5t181 72.5q53 0 86.5 -18.5t33.5 -47.5q0 -32 -29 -44
l-158 73q-89 -19 -125 -232h269l-76 -413q-28 -154 -71 -221t-113 -67q-31 0 -48.5 12t-17.5 32q0 15 9.5 27.5t21.5 13.5l95 -43l107 626h-182l-55 -342q-25 -150 -68 -218t-112 -68q-31 0 -48.5 12.5t-17.5 29.5q0 15 10 26.5t23 12.5l89 -38q17 17 48 246l42 336v3h-193
l-55 -372q-25 -156 -69 -226t-116 -70z" />
    <glyph glyph-name="f_k" unicode="fk" horiz-adv-x="806" 
d="M-15 -200q-32 0 -49.5 12.5t-17.5 31.5q0 14 10.5 26.5t23.5 12.5l92 -40q18 18 50 257l47 368h-82l7 33h79q21 129 80.5 199t147.5 70q60 0 106 -24l89 24h10l-96 -439h4q35 87 84 136t102 49q41 0 66.5 -26t25.5 -69q0 -53 -25 -86l-135 -77l87 -209h4l80 68l4 -2
q-19 -61 -50.5 -95.5t-69.5 -34.5q-43 0 -63 56l-71 191v4l82 50q73 46 73 115q0 63 -47 63q-56 0 -108 -94q-54 -96 -88 -258l-24 -112h-86l147 691l-173 39q-35 -10 -71 -229h132l-12 -33h-125l-55 -372q-25 -156 -69 -226t-116 -70z" />
    <glyph glyph-name="f_f_k" unicode="ffk" horiz-adv-x="1083" 
d="M-15 -200q-32 0 -49.5 12.5t-17.5 31.5q0 14 10.5 26.5t23.5 12.5l92 -40q18 18 50 257l46 368h-81l7 33h78q20 130 78.5 199.5t150.5 69.5q52 0 74 -20l-6 -66l-135 43q-38 -10 -76 -226h193q22 129 81.5 199t147.5 70q60 0 106 -24l89 24h9l-96 -439h3q35 87 84.5 136
t102.5 49q41 0 66 -26t25 -69q0 -53 -23 -86l-136 -77l86 -209h4l81 68l4 -2q-19 -61 -50.5 -95.5t-69.5 -34.5q-43 0 -63 56l-71 191v4l81 50q74 46 74 115q0 63 -48 63q-56 0 -108 -94q-52 -93 -87 -258l-24 -112h-87l148 691l-174 39q-18 -6 -37 -72.5t-32 -156.5h131
l-12 -33h-124l-52 -342q-24 -151 -67 -218.5t-113 -67.5q-31 0 -48.5 12.5t-17.5 29.5q0 15 10 26.5t23 12.5l89 -38q17 17 48 246l43 339h-194l-55 -372q-25 -156 -69 -226t-116 -70z" />
    <glyph glyph-name="f_t" unicode="ft" horiz-adv-x="623" 
d="M-15 -200q-32 0 -49.5 12.5t-17.5 31.5q0 14 10.5 26.5t23.5 12.5l92 -40q18 18 50 257l47 368h-82l7 33h79q21 130 81 199.5t149 69.5q39 0 64 -14t25 -37q0 -27 -23 -42l-143 48q-33 -7 -68 -224h203l28 112l89 27h5l-35 -139h127l-12 -33h-123l-97 -390q-9 -37 14 -37
q22 0 69.5 38.5t87.5 85.5l4 -2q-31 -79 -85 -128.5t-107 -49.5q-42 0 -60.5 29t-6.5 76l94 378h-200l-55 -372q-25 -156 -69 -226t-116 -70z" />
    <glyph glyph-name="f_f_t" unicode="fft" horiz-adv-x="901" 
d="M-15 -200q-32 0 -49.5 12.5t-17.5 31.5q0 14 10.5 26.5t23.5 12.5l92 -40q18 18 50 257l46 368h-81l7 33h78q20 130 78.5 199.5t150.5 69.5q52 0 74 -20l-6 -66l-135 43q-38 -10 -76 -226h193q22 130 81.5 199.5t148.5 69.5q39 0 64 -14t25 -37q0 -27 -23 -42l-142 48
q-37 -8 -68 -224h202l28 112l89 27h4l-34 -139h126l-12 -33h-123l-96 -390q-9 -37 14 -37q22 0 69.5 38.5t86.5 85.5l4 -2q-32 -80 -84.5 -129t-106.5 -49q-42 0 -60.5 29t-6.5 76l94 378h-199l-52 -342q-24 -151 -67 -218.5t-113 -67.5q-31 0 -48.5 12.5t-17.5 29.5
q0 15 10 26.5t23 12.5l89 -38q17 17 48 246l43 339h-194l-55 -372q-25 -156 -69 -226t-116 -70z" />
    <glyph glyph-name=".notdef" horiz-adv-x="700" 
d="M369 -80q-113 0 -190 78.5t-77 187.5v18l-19 31q-15 25 -9 53q6 29 31 44l7 4q18 13 43 11q-7 24 0.5 46t28.5 35l7 4q20 12 41 11l-76 120q-12 21 -12 39q0 30 21.5 52.5t51.5 22.5q42 0 65 -35l139 -221v224q0 31 21.5 53t52.5 22t52.5 -22t21.5 -53v-286
q30 -15 48 -43t18 -63v-62q0 -65 -30 -126t-92.5 -103t-143.5 -42zM451 645v-274h66q17 0 22 -2v276q0 18 -13 31t-31 13t-31 -13t-13 -31zM182 579l127 -203l24 -37q6 14 20 23t30 9h33l-160 255q-12 20 -37 20q-18 0 -31 -13t-13 -31q0 -12 7 -23zM313 220l8 5
q14 9 17.5 25.5t-5.5 29.5l-72 114q-9 14 -24.5 17.5t-29.5 -4.5l-8 -5q-13 -9 -17 -24.5t5 -30.5l72 -114q9 -14 25 -17.5t29 4.5zM359 138q0 24 13 49.5t29 33.5q-16 1 -34 15q-7 -25 -29 -37l-7 -4q-18 -11 -43 -11q17 -49 -29 -81l-8 -5q-24 -15 -51.5 -8.5t-44.5 31.5
l-20 30q12 -85 79.5 -143t153.5 -58q99 0 168 72t69 169v62q0 36 -26 62t-62 26h-134q-10 0 -17 -7.5t-7 -19.5q0 -27 19 -47.5t48 -20.5h42q6 0 10.5 -4.5t4.5 -10.5t-4.5 -10.5t-10.5 -4.5q-34 0 -55.5 -23.5t-21.5 -54.5q0 -6 -5 -10.5t-11 -4.5t-11 4.5t-5 10.5z
M235 124l8 5q14 9 17.5 25.5t-5.5 29.5l-72 114q-9 14 -24.5 17.5t-29.5 -4.5l-8 -5q-13 -9 -17 -24.5t5 -30.5l72 -114q9 -14 25 -17.5t29 4.5z" />
    <glyph glyph-name=".null" horiz-adv-x="0" 
 />
    <glyph glyph-name="nonmarkingreturn" horiz-adv-x="333" 
 />
    <glyph glyph-name="space" unicode=" " horiz-adv-x="223" 
 />
    <glyph glyph-name="exclam" unicode="!" horiz-adv-x="355" 
d="M180 211h-23l53 489h125zM126 -8q-24 0 -38 13.5t-14 37.5q0 30 20 46.5t48 16.5q52 0 52 -50q0 -31 -20 -47.5t-48 -16.5z" />
    <glyph glyph-name="quotedbl" unicode="&#x22;" horiz-adv-x="299" 
d="M280 475h-10l4 194q0 61 51 61q27 0 36 -16t-3 -45zM131 475h-10l4 194q0 61 51 61q27 0 36 -16t-3 -45z" />
    <glyph glyph-name="numbersign" unicode="#" 
d="M96 0h-26l77 209h-130l16 75h142l49 131h-132l17 75h142l78 210h25l-77 -210h128l78 210h25l-78 -210h132l-17 -75h-142l-49 -131h132l-18 -75h-142l-77 -209h-25l77 209h-128zM249 415l-48 -131h128l49 131h-129z" />
    <glyph glyph-name="dollar" unicode="$" 
d="M193 -9l-39 -106h-25l41 111q-86 19 -140 69l19 93h4l117 -126q8 -3 12 -5l102 278q-5 5 -26 26.5t-27.5 29t-23.5 26.5t-23.5 31t-16 30t-13 35t-3.5 36q0 85 61 140.5t154 55.5q32 0 69 -8l40 108h25l-43 -115q58 -19 94 -54l-21 -87h-4l-83 102l-102 -275
q37 -37 56 -59t38 -60t19 -75q0 -89 -62.5 -146.5t-157.5 -57.5q-20 0 -41 3zM230 565q0 -41 23.5 -77t69.5 -84l100 270q-21 10 -60 10q-61 0 -97 -31.5t-36 -87.5zM375 148q0 65 -72 139l-98 -265q17 -3 34 -3q61 0 98.5 35.5t37.5 93.5z" />
    <glyph glyph-name="percent" unicode="%" horiz-adv-x="690" 
d="M198 344q-52 0 -82.5 35.5t-30.5 96.5q0 95 57.5 167.5t133.5 72.5q53 0 82.5 -35t29.5 -97q0 -95 -57 -167.5t-133 -72.5zM146 0h-42l478 700h42zM199 365q28 0 55.5 37.5t44.5 96t17 116.5q0 80 -42 80t-79.5 -81t-37.5 -170q0 -79 42 -79zM453 -15q-52 0 -82.5 35.5
t-30.5 96.5q0 95 57.5 167.5t133.5 72.5q53 0 82.5 -35t29.5 -97q0 -95 -57 -167.5t-133 -72.5zM454 6q28 0 55.5 37.5t44.5 96t17 116.5q0 80 -42 80t-79.5 -81t-37.5 -170q0 -79 42 -79z" />
    <glyph glyph-name="ampersand" unicode="&#x26;" horiz-adv-x="761" 
d="M356 -15q-139 0 -223.5 72.5t-84.5 189.5q0 111 89 184q-47 47 -47 110q0 83 68 146t160 63q57 0 57 -44q0 -28 -21 -55t-55 -41l-3 1l25 71q-76 -1 -131.5 -53.5t-55.5 -119.5q0 -46 21 -63q73 77 109 77q15 0 23.5 -9t8.5 -24q0 -18 -7 -29l-135 -43q-22 -18 -36 -54.5
t-14 -75.5q0 -92 70 -152t187 -60q130 0 224 81.5t94 197.5q0 77 -46 132l-219 -92l-32 -44h-5v111l408 170l32 44h5v-110l-166 -70q67 -74 67 -172q0 -149 -103 -244t-264 -95z" />
    <glyph glyph-name="quotesingle" unicode="'" horiz-adv-x="149" 
d="M131 475h-10l4 194q0 61 51 61q27 0 36 -16t-3 -45z" />
    <glyph glyph-name="parenleft" unicode="(" horiz-adv-x="305" 
d="M43 172q0 181 89 334.5t236 228.5l1 -3q-272 -251 -272 -571q0 -169 88 -297l-3 -3q-67 45 -103 125.5t-36 185.5z" />
    <glyph glyph-name="parenright" unicode=")" horiz-adv-x="305" 
d="M262 424q0 -181 -88.5 -334.5t-236.5 -228.5l-1 3q272 251 272 571q0 173 -88 297l3 3q139 -92 139 -311z" />
    <glyph glyph-name="asterisk" unicode="*" horiz-adv-x="343" 
d="M401 684l17 -43l-146 -60l120 -61l-34 -43l-101 85l-16 -145h-51l45 145l-136 -85l-17 43l146 61l-119 60l34 43l100 -84l17 145h50l-45 -145z" />
    <glyph glyph-name="plus" unicode="+" horiz-adv-x="431" 
d="M199 252h-171v41h171v171h41v-171h171v-41h-171v-171h-41v171z" />
    <glyph glyph-name="comma" unicode="," horiz-adv-x="235" 
d="M-40 -136l-2 4q65 21 104.5 59t39.5 78q0 19 -9 27l-60 19q-4 7 -4 21q0 26 16 42.5t41 16.5q31 0 49.5 -24t18.5 -63q0 -68 -54.5 -119t-139.5 -61z" />
    <glyph glyph-name="hyphen" unicode="-" horiz-adv-x="227" 
d="M208 250h-184l8 45h186z" />
    <glyph glyph-name="period" unicode="." horiz-adv-x="235" 
d="M73 -8q-24 0 -38 13.5t-14 37.5q0 30 20 46.5t48 16.5q52 0 52 -50q0 -31 -20 -47.5t-48 -16.5z" />
    <glyph glyph-name="slash" unicode="/" horiz-adv-x="439" 
d="M16 -40h-42l511 780h42z" />
    <glyph glyph-name="zero" unicode="0" horiz-adv-x="555" 
d="M223 -15q-82 0 -129 59.5t-47 162.5q0 134 44.5 251.5t120 187t161.5 69.5q82 0 128.5 -59.5t46.5 -162.5q0 -134 -44 -251.5t-119.5 -187t-161.5 -69.5zM223 16q57 0 111.5 74.5t88 193.5t33.5 243q0 157 -84 157q-56 0 -110.5 -74.5t-88 -193.5t-33.5 -243
q0 -76 21.5 -116.5t61.5 -40.5z" />
    <glyph glyph-name="one" unicode="1" horiz-adv-x="328" 
d="M201 4l-1 -4h-177l1 4l50 43l120 565h-79l1 4l144 84h44l-139 -653z" />
    <glyph glyph-name="two" unicode="2" 
d="M437 114l-22 -114h-427l1 5l216 198q129 119 172 184t43 143q0 55 -36 90t-93 35t-103 -38.5t-72 -107.5l-5 1q7 93 65 149t146 56q82 0 135.5 -49.5t53.5 -128.5q0 -82 -65 -163l-348 -304h285l49 44h5z" />
    <glyph glyph-name="three" unicode="3" 
d="M207 -15q-55 0 -105.5 15.5t-80.5 42.5l20 99h5l96 -108q26 -17 71 -17q73 0 121 46.5t48 116.5q0 79 -61.5 127.5t-165.5 49.5v5l82 46q31 0 56 -6q62 26 91 59.5t29 79.5q0 53 -33 83.5t-87 30.5q-106 0 -158 -133l-4 1q6 86 60.5 139t139.5 53q73 0 118.5 -39.5
t45.5 -103.5q0 -79 -67 -129l-109 -47q69 -20 108.5 -69.5t39.5 -117.5q0 -97 -74 -160.5t-186 -63.5z" />
    <glyph glyph-name="four" unicode="4" 
d="M401 4l-1 -4h-177l1 4l49 43l30 141h-304l1 5l427 507h78l-101 -473h41l49 44h5l-18 -83h-85l-30 -141zM393 609l-322 -382h240z" />
    <glyph glyph-name="five" unicode="5" 
d="M203 -15q-51 0 -101.5 15.5t-80.5 42.5l21 98h4l95 -108q29 -17 70 -17q72 0 118.5 50t46.5 128q0 77 -53 156t-169 180v4l59 157l222 19l49 44h5l-23 -115l-257 -21l-6 -14q254 -196 254 -383q0 -102 -72 -169t-182 -67z" />
    <glyph glyph-name="six" unicode="6" 
d="M253 -15q-96 0 -156.5 65.5t-60.5 171.5q0 169 141 306t368 187l2 -4q-201 -94 -312.5 -227.5t-111.5 -277.5q0 -85 38 -137.5t99 -52.5q55 0 89.5 42.5t34.5 109.5q0 77 -46 126t-126 57v3l80 25q81 -1 132 -53.5t51 -131.5q0 -88 -64 -148.5t-158 -60.5z" />
    <glyph glyph-name="seven" unicode="7" 
d="M570 695l-431 -695h-70v5l415 600v4h-299l-49 -44h-5l27 135h413z" />
    <glyph glyph-name="eight" unicode="8" 
d="M227 -15q-90 0 -148 50.5t-58 129.5q0 73 56 126l145 72q-44 38 -68 76t-24 87q0 79 61 134t148 55q77 0 127 -42.5t50 -108.5q0 -68 -46 -104l-136 -67q34 -26 51.5 -41.5t41.5 -41.5t34.5 -54.5t10.5 -61.5q0 -85 -72.5 -147t-172.5 -62zM216 560q0 -46 26.5 -81
t76.5 -74q72 39 100.5 73.5t28.5 80.5q0 56 -31 90.5t-81 34.5q-52 0 -86 -36.5t-34 -87.5zM92 172q0 -68 42 -112t105 -44t105.5 41.5t42.5 99.5q0 16 -4 31.5t-8.5 27t-16.5 26.5t-18.5 23t-24 22.5t-24.5 20.5t-27.5 22t-26.5 20q-76 -37 -110.5 -79t-34.5 -99z" />
    <glyph glyph-name="nine" unicode="9" 
d="M309 715q97 0 157 -65.5t60 -171.5q0 -169 -140.5 -305t-368.5 -188l-2 4q201 94 312.5 227.5t111.5 277.5q0 86 -38 138t-99 52q-55 0 -89.5 -42.5t-34.5 -109.5q0 -76 46.5 -125.5t125.5 -57.5v-3l-80 -25q-81 3 -132 54.5t-51 130.5q0 88 64 148.5t158 60.5z" />
    <glyph glyph-name="colon" unicode=":" horiz-adv-x="246" 
d="M162 401q-24 0 -38 13.5t-14 37.5q0 30 20 46.5t48 16.5q52 0 52 -50q0 -31 -20 -47.5t-48 -16.5zM75 -8q-24 0 -38 13.5t-14 37.5q0 30 20 46.5t48 16.5q52 0 52 -50q0 -31 -20 -47.5t-48 -16.5z" />
    <glyph glyph-name="semicolon" unicode=";" horiz-adv-x="246" 
d="M163 402q-24 0 -38 13.5t-14 37.5q0 30 20 46.5t48 16.5q52 0 52 -50q0 -31 -20 -47.5t-48 -16.5zM-46 -136l-2 4q65 21 104.5 59t39.5 78q0 19 -9 27l-60 19q-4 7 -4 21q0 26 16 42.5t41 16.5q31 0 49.5 -24t18.5 -63q0 -68 -54.5 -118.5t-139.5 -61.5z" />
    <glyph glyph-name="less" unicode="&#x3c;" horiz-adv-x="431" 
d="M123 271l293 -108v-40l-393 145v9l393 145v-40l-293 -107v-4z" />
    <glyph glyph-name="equal" unicode="=" horiz-adv-x="431" 
d="M411 333h-383v40h383v-40zM411 172h-383v41h383v-41z" />
    <glyph glyph-name="greater" unicode="&#x3e;" horiz-adv-x="431" 
d="M296 274l-293 108v40l393 -145v-9l-393 -145v40l293 107v4z" />
    <glyph glyph-name="question" unicode="?" horiz-adv-x="398" 
d="M207 207l-1 -3q-29 6 -45.5 25.5t-16.5 47.5q0 32 20 64t48 59.5t56.5 56t48.5 63.5t20 72q0 41 -22.5 65t-60.5 24q-20 0 -34 -7l-130 -108h-4l23 116q61 33 140 33q83 0 132.5 -38.5t49.5 -102.5q0 -43 -24.5 -83t-59.5 -70.5t-70 -58.5t-59.5 -58t-24.5 -58
q0 -25 14 -39zM141 -8q-24 0 -38 13.5t-14 37.5q0 30 20 46.5t48 16.5q52 0 52 -50q0 -31 -20 -47.5t-48 -16.5z" />
    <glyph glyph-name="at" unicode="@" horiz-adv-x="861" 
d="M445 -151q-168 0 -272.5 109t-104.5 285q0 197 125.5 332.5t307.5 135.5q149 0 245 -92t96 -236q0 -135 -85.5 -224t-223.5 -100q-19 0 -31 14t-8 30l36 164h-3q-41 -90 -97 -148.5t-104 -58.5q-33 0 -51 26.5t-18 75.5q0 78 44 162.5t110.5 140t128.5 55.5q42 0 70 -22
l72 28l3 -2l-39 -100l-72 -328q108 17 171 92.5t63 189.5q0 134 -85 217.5t-221 83.5q-158 0 -267 -122.5t-109 -301.5q0 -164 93.5 -266.5t242.5 -102.5q81 0 154 31t115 82l5 -4q-34 -64 -115.5 -105t-175.5 -41zM335 201q0 -83 39 -83q42 0 100.5 92.5t82.5 195.5l13 55
l-83 24q-59 -29 -105.5 -115t-46.5 -169z" />
    <glyph glyph-name="A" unicode="A" horiz-adv-x="609" 
d="M542 4l-1 -4h-168l1 4l55 44l-12 154h-270l-87 -136l64 -62l-1 -4h-162l1 4l42 45l377 575l-9 72l1 4h99l53 -652zM415 237l-26 341l-219 -341h245z" />
    <glyph glyph-name="B" unicode="B" horiz-adv-x="634" 
d="M568 207q0 -87 -79 -147t-203 -60h-265l1 4l50 44l129 604l-38 44l1 4h280q59 -10 95.5 -51.5t36.5 -97.5q0 -59 -42.5 -107t-111.5 -65q64 -14 105 -62t41 -110zM332 670h-31l-60 -282h102q65 0 106 40t41 103q0 62 -43.5 100.5t-114.5 38.5zM281 356h-47l-68 -323h97
q97 0 152.5 43.5t55.5 116.5t-53 118t-137 45z" />
    <glyph glyph-name="C" unicode="C" horiz-adv-x="610" 
d="M309 -15q-113 0 -181.5 79.5t-68.5 210.5q0 186 117 313t287 127q115 0 168 -43l-23 -106h-5l-119 107q-26 8 -52 8q-108 0 -190.5 -122.5t-82.5 -283.5q0 -115 47 -177.5t133 -62.5q143 0 236 173l4 -3q-23 -99 -96.5 -159.5t-173.5 -60.5z" />
    <glyph glyph-name="D" unicode="D" horiz-adv-x="703" 
d="M686 398q0 -176 -120.5 -287t-347.5 -111h-197l1 4l50 44l129 604l-38 44l1 4h278q105 -21 174.5 -107.5t69.5 -194.5zM301 672l-136 -639h47q176 0 275.5 95.5t99.5 258.5q0 119 -79.5 198.5t-206.5 86.5z" />
    <glyph glyph-name="E" unicode="E" horiz-adv-x="610" 
d="M524 129l-27 -129h-476l1 4l50 44l129 604l-38 44l1 4h446l-23 -111h-5l-106 78h-175l-60 -281h175l100 58h5l-32 -151h-5l-77 59h-174l-67 -319h205l149 96h4z" />
    <glyph glyph-name="F" unicode="F" horiz-adv-x="576" 
d="M206 4l-1 -4h-184l1 4l50 44l129 604l-38 44l1 4h447l-23 -111h-5l-104 78h-179l-62 -296h170l101 58h5l-32 -152h-5l-77 60h-169l-63 -289z" />
    <glyph glyph-name="G" unicode="G" horiz-adv-x="704" 
d="M363 -15q-131 0 -214 89.5t-83 228.5q0 177 124 294.5t309 117.5q58 0 116 -16t84 -36l-22 -107h-5l-128 118q-26 8 -63 8q-133 0 -224 -104.5t-91 -256.5q0 -129 72 -213.5t181 -84.5q27 0 50 6l70 329l-37 44l1 4h184l-1 -4l-51 -44l-80 -372h-5l-58 33h-4
q-60 -34 -125 -34z" />
    <glyph glyph-name="H" unicode="H" horiz-adv-x="751" 
d="M205 0h-184l1 4l50 44l129 604l-38 44l1 4h184l-1 -4l-50 -44l-59 -279h326l60 279l-37 44l1 4h184l-1 -4l-50 -44l-129 -604l37 -44l-1 -4h-184l1 4l51 44l61 289h-326l-63 -289l38 -44z" />
    <glyph glyph-name="I" unicode="I" horiz-adv-x="328" 
d="M205 4l-1 -4h-183l1 4l50 44l129 604l-38 44l1 4h185l-1 -4l-51 -44l-129 -604z" />
    <glyph glyph-name="J" unicode="J" horiz-adv-x="327" 
d="M-73 -200q-44 0 -89 13l20 96h5l97 -79q30 4 57.5 47.5t40.5 108.5l143 666l-38 44l1 4h184l-1 -4l-50 -44l-132 -618q-49 -234 -238 -234z" />
    <glyph glyph-name="K" unicode="K" horiz-adv-x="665" 
d="M206 4l-1 -4h-184l1 4l50 44l129 604l-38 44l1 4h184l-1 -4l-50 -44l-65 -305l352 287l-43 61l1 5h172l-1 -5l-329 -266l227 -425l-1 -4h-175l1 5l44 43l-171 320l-87 -70l-54 -250z" />
    <glyph glyph-name="L" unicode="L" horiz-adv-x="543" 
d="M490 132l-27 -132h-442l1 4l50 44l128 604l-38 44l1 4h184l-1 -4l-49 -44l-131 -619h171l148 99h5z" />
    <glyph glyph-name="M" unicode="M" horiz-adv-x="846" 
d="M704 609l-339 -529h-9l-98 472h-5l-168 -486l62 -62l-1 -4h-166l1 4l59 62l194 545l-40 85l1 4h127l98 -463l293 463h148l-1 -4l-49 -44l-107 -604l39 -44l-1 -4h-184l1 4l49 43l101 562h-5z" />
    <glyph glyph-name="N" unicode="N" horiz-adv-x="707" 
d="M683 634l-135 -634h-26l-296 569l-107 -503l54 -62l-1 -4h-152l1 4l54 62l119 559l-47 71l1 4h119l274 -527l98 461l-54 62l1 4h152l-1 -4z" />
    <glyph glyph-name="O" unicode="O" horiz-adv-x="696" 
d="M306 -15q-115 0 -181 76t-66 209q0 185 109 315t264 130q115 0 181 -76t66 -209q0 -184 -109.5 -314.5t-263.5 -130.5zM319 18q107 0 184 126t77 297q0 113 -43 177t-119 64q-106 0 -183.5 -126t-77.5 -297q0 -113 43 -177t119 -64z" />
    <glyph glyph-name="P" unicode="P" horiz-adv-x="582" 
d="M205 4l-1 -4h-183l1 4l50 44l128 604l-37 44l1 4h280q68 -14 108 -63.5t40 -120.5q0 -97 -72 -162.5t-176 -65.5q-30 0 -46 4l-25 17v4q103 3 166 57t63 138q0 73 -47.5 117.5t-125.5 44.5h-29l-132 -622z" />
    <glyph glyph-name="Q" unicode="Q" horiz-adv-x="696" 
d="M677 -150h-169l-262 130q-100 53 -143.5 122.5t-43.5 176.5q0 180 109 308t263 128q116 0 182 -76t66 -209q0 -180 -104 -308t-255 -134l-2 -4q54 -14 121 -38l239 -91zM320 18q70 0 130.5 58t95.5 155.5t35 209.5q0 113 -43.5 177t-119.5 64q-106 0 -183.5 -126
t-77.5 -297q0 -113 43.5 -177t119.5 -64z" />
    <glyph glyph-name="R" unicode="R" horiz-adv-x="614" 
d="M205 4l-1 -4h-183l1 4l50 44l128 604l-37 44l1 4h298q62 -11 98.5 -53.5t36.5 -101.5q0 -68 -50 -121.5t-134 -73.5q14 -99 64.5 -223.5t104.5 -189.5l-3 -2q-85 28 -163 148.5t-100 254.5h-87l-61 -290zM337 671h-37l-64 -302h89q79 0 130 44.5t51 116.5
q0 66 -44.5 103.5t-124.5 37.5z" />
    <glyph glyph-name="S" unicode="S" 
d="M228 -15q-63 0 -123 22q-61 22 -97 60l22 103h4l127 -140q24 -15 71 -15q63 0 102.5 37.5t39.5 97.5q0 39 -23 76t-55.5 69t-65 64.5t-55.5 75t-23 88.5q0 83 60.5 137.5t153.5 54.5q47 0 95 -14.5t79 -38.5l-23 -98h-5l-107 109q-21 12 -48 12q-53 0 -88 -36t-35 -90
q0 -38 23 -76t55.5 -69.5t65 -65t55.5 -75.5t23 -88q0 -88 -64.5 -144t-163.5 -56z" />
    <glyph glyph-name="T" unicode="T" horiz-adv-x="603" 
d="M343 4l-1 -4h-185l1 4l51 44l132 619h-103l-140 -83h-4l23 116h557l-24 -116h-4l-106 83h-103l-132 -619z" />
    <glyph glyph-name="U" unicode="U" horiz-adv-x="689" 
d="M329 -15q-119 0 -180.5 77.5t-37.5 192.5l84 397l-38 44l1 4h184l-1 -4l-49 -44l-82 -384q-23 -106 18.5 -163.5t135.5 -57.5q75 0 125 40t66 114l91 433l-54 62l1 4h149l-1 -4l-54 -62l-91 -430q-22 -107 -89.5 -163t-177.5 -56z" />
    <glyph glyph-name="V" unicode="V" horiz-adv-x="609" 
d="M648 651l-427 -651h-39l-56 652l-17 44l1 4h169l-1 -4l-55 -44l39 -527l328 509l-64 62l1 4h164l-1 -4z" />
    <glyph glyph-name="W" unicode="W" horiz-adv-x="871" 
d="M473 509l-317 -509h-35l1 652l-17 44l1 4h171l-1 -4l-57 -44l-6 -497l264 426l4 71l-13 44l2 4h162l-2 -4l-51 -44l-37 -491l308 473l-50 62l2 4h165l-1 -4l-68 -62l-423 -634h-32z" />
    <glyph glyph-name="X" unicode="X" horiz-adv-x="646" 
d="M556 4l-1 -4h-181l1 4l50 45l-109 273l-222 -256l41 -62l-1 -4h-157l1 4l63 62l259 291l-118 295l-28 44l1 4h178l-1 -4l-46 -44l87 -230l185 212l-41 62l1 4h159l-1 -4l-64 -61l-223 -249l139 -338z" />
    <glyph glyph-name="Y" unicode="Y" horiz-adv-x="595" 
d="M340 4l-1 -4h-184l1 4l50 44l62 284l-127 321l-24 43l1 4h178l-1 -4l-52 -44l110 -285l209 267l-42 62l1 4h144l-1 -4l-54 -62l-246 -303l-61 -283z" />
    <glyph glyph-name="Z" unicode="Z" horiz-adv-x="615" 
d="M537 137l-30 -137h-502l1 4l500 663h-211l-140 -92h-6l27 125h463l-1 -4l-499 -663h242l151 104h5z" />
    <glyph glyph-name="bracketleft" unicode="[" horiz-adv-x="305" 
d="M176 -100l-5 -24h-157l179 844h157l-5 -24h-103l-169 -796h103z" />
    <glyph glyph-name="backslash" unicode="\" horiz-adv-x="439" 
d="M110 740h39l231 -780h-39z" />
    <glyph glyph-name="bracketright" unicode="]" horiz-adv-x="305" 
d="M134 696l5 24h157l-179 -844h-157l5 24h103l169 796h-103z" />
    <glyph glyph-name="asciicircum" unicode="^" horiz-adv-x="370" 
d="M210 540l-110 -301h-40l148 401h9l148 -401h-41l-109 301h-5z" />
    <glyph glyph-name="underscore" unicode="_" horiz-adv-x="460" 
d="M383 -125h-460l8 37h460z" />
    <glyph glyph-name="grave" unicode="`" horiz-adv-x="500" 
d="M255 745h80l31 -180h-5l-106 175v5z" />
    <glyph glyph-name="a" unicode="a" 
d="M100 -15q-79 0 -79 125q0 99 47 193.5t122.5 153.5t153.5 59q53 0 88 -24l77 43l3 -2l-47 -131l-75 -354h3l84 69l3 -3q-27 -58 -65 -93.5t-73 -35.5q-22 0 -34 15.5t-7 37.5l45 200h-4q-50 -108 -119 -180.5t-123 -72.5zM108 132q0 -88 40 -88q49 0 126.5 116t100.5 222
l14 69l-101 32q-71 -33 -125.5 -141t-54.5 -210z" />
    <glyph glyph-name="b" unicode="b" horiz-adv-x="514" 
d="M173 -15q-32 0 -79.5 10.5t-68.5 22.5l13 31l138 645l-68 28l1 5l161 43h9l-111 -506h4q50 108 118.5 180t123.5 72q79 0 79 -122q0 -96 -47 -191.5t-122 -156.5t-151 -61zM139 119l-14 -71l104 -31q70 34 123.5 140.5t53.5 210.5q0 88 -40 88q-49 0 -126.5 -115.5
t-100.5 -221.5z" />
    <glyph glyph-name="c" unicode="c" horiz-adv-x="373" 
d="M146 -15q-60 0 -92.5 40t-32.5 116q0 87 41 175t106 144t131 56q86 0 86 -48q0 -15 -9.5 -27.5t-24.5 -15.5l-100 57q-57 -26 -101 -121.5t-44 -193.5q0 -120 72 -120q76 0 155 130l4 -2q-58 -190 -191 -190z" />
    <glyph glyph-name="d" unicode="d" horiz-adv-x="531" 
d="M100 -15q-79 0 -79 125q0 98 47 193t122.5 154t153.5 59q32 0 57 -9l40 187l-68 28l1 5l160 43h10l-154 -722h3l84 69l3 -4q-27 -58 -65 -93t-73 -35q-22 0 -34 15.5t-7 37.5l45 200h-4q-50 -108 -119 -180.5t-123 -72.5zM108 132q0 -88 40 -88q31 0 79.5 54.5t90.5 135
t57 148.5l15 69l-102 32q-71 -34 -125.5 -140.5t-54.5 -210.5z" />
    <glyph glyph-name="e" unicode="e" horiz-adv-x="401" 
d="M147 -15q-59 0 -92.5 39t-33.5 111q0 90 42 179.5t108.5 145.5t133.5 56q42 0 66 -22t24 -58q0 -119 -280 -188q-9 -40 -9 -81q0 -120 76 -120q88 0 176 156l4 -2q-29 -104 -87.5 -160t-127.5 -56zM277 484q-45 0 -90 -63.5t-67 -150.5q105 29 154.5 67t49.5 90
q0 27 -12.5 42t-34.5 15z" />
    <glyph glyph-name="f" unicode="f" horiz-adv-x="313" 
d="M-15 -200q-32 0 -49.5 12.5t-17.5 31.5q0 14 10.5 26.5t23.5 12.5l92 -40q18 18 50 257l47 368h-82l7 33h79q21 130 81 199.5t149 69.5q39 0 64 -14t25 -37q0 -27 -23 -42l-143 48q-33 -7 -68 -224h132l-12 -33h-125l-55 -372q-25 -156 -69 -226t-116 -70z" />
    <glyph glyph-name="g" unicode="g" horiz-adv-x="476" 
d="M168 -200q-98 0 -162 41t-64 103q0 35 18 53l137 67q-76 29 -76 85v14l107 61q-35 32 -35 86q0 81 64.5 143.5t149.5 62.5q41 0 71 -15l133 11h4l-7 -58h-5l-112 31v-5q15 -9 25.5 -33.5t10.5 -53.5q0 -77 -63 -137.5t-145 -60.5q-42 0 -73 16l-52 -30q0 -28 35.5 -44
t86 -24.5t100.5 -20.5t85.5 -41t35.5 -76q0 -71 -79.5 -123t-189.5 -52zM224 221q45 0 82.5 61t37.5 133q0 74 -47 74q-45 0 -83.5 -61t-38.5 -132q0 -75 49 -75zM10 -41q0 -52 56 -87.5t137 -35.5q73 0 121.5 29.5t48.5 72.5q0 25 -15 42.5t-44 28.5t-57 17.5t-69 14.5
t-65 15l-23 -12q-54 -25 -72 -42t-18 -43z" />
    <glyph glyph-name="h" unicode="h" horiz-adv-x="542" 
d="M175 221l-49 -221h-87l150 694l-68 28l1 5l161 43h9l-98 -437h4q100 183 213 183q45 0 64.5 -31.5t8.5 -82.5l-75 -354h4l83 69l3 -3q-27 -58 -65.5 -93.5t-73.5 -35.5q-22 0 -33.5 14.5t-7.5 34.5l77 363q12 59 -32 59q-49 0 -110 -75t-79 -160z" />
    <glyph glyph-name="i" unicode="i" horiz-adv-x="287" 
d="M237 656q-48 0 -48 46q0 27 18 44.5t45 17.5q48 0 48 -47q0 -27 -18 -44t-45 -17zM98 -15q-22 0 -33.5 14.5t-7.5 34.5l86 403h-5l-84 -70l-2 5q62 129 154 129h36l-95 -453h3l84 69l3 -3q-27 -58 -65.5 -93.5t-73.5 -35.5z" />
    <glyph glyph-name="j" unicode="j" horiz-adv-x="277" 
d="M237 656q-48 0 -48 46q0 27 18 44.5t45 17.5q48 0 48 -47q0 -27 -18 -44t-45 -17zM-17 -200q-30 0 -48 12t-18 31q0 15 9.5 28t22.5 14l95 -43l100 595h-4l-84 -69l-3 4q33 67 69.5 98t85.5 31h36l-76 -413q-28 -154 -71.5 -221t-113.5 -67z" />
    <glyph glyph-name="k" unicode="k" 
d="M150 112l-24 -112h-87l149 694l-67 28l1 5l160 43h9l-96 -439h3q35 87 84.5 136t103.5 49q41 0 65.5 -26t24.5 -69q0 -55 -24 -86l-135 -77l87 -209h4l80 68l4 -2q-19 -61 -50.5 -95.5t-69.5 -34.5q-43 0 -63 56l-71 191v4l81 50q74 47 74 115q0 63 -48 63
q-55 0 -108 -94t-87 -258z" />
    <glyph glyph-name="l" unicode="l" horiz-adv-x="281" 
d="M93 -15q-22 0 -33.5 14.5t-7.5 35.5l141 659l-68 28l1 5l161 43h9l-154 -722h4l83 69l3 -3q-27 -58 -65 -93.5t-74 -35.5z" />
    <glyph glyph-name="m" unicode="m" horiz-adv-x="827" 
d="M456 221l-46 -221h-88l84 397q14 59 -32 59q-51 0 -113 -78t-78 -157l-47 -221h-87l95 437h-4l-83 -69l-4 4q61 129 154 129h26l-30 -171h4q98 186 218 186q44 0 61.5 -29.5t6.5 -83.5l-12 -63h4q95 176 212 176q45 0 63 -30t7 -84l-74 -354h4l83 69l4 -3
q-28 -58 -66 -93.5t-74 -35.5q-22 0 -33.5 14.5t-7.5 34.5l77 364q12 58 -32 58q-50 0 -112 -75t-80 -160z" />
    <glyph glyph-name="n" unicode="n" horiz-adv-x="553" 
d="M370 -15q-22 0 -33.5 14.5t-7.5 34.5l77 363q14 59 -32 59q-49 0 -110 -75t-79 -160l-49 -221h-87l95 437h-4l-84 -69l-4 4q33 66 70 97.5t85 31.5h27l-31 -171h3q103 186 215 186q45 0 64.5 -31.5t8.5 -82.5l-75 -354h4l83 69l3 -3q-27 -58 -65.5 -93.5t-73.5 -35.5z
" />
    <glyph glyph-name="o" unicode="o" horiz-adv-x="455" 
d="M170 -15q-70 0 -109.5 49t-39.5 135q0 137 80 242t185 105q69 0 108.5 -49t39.5 -136q0 -136 -80 -241t-184 -105zM173 12q41 0 81.5 53t66 136.5t25.5 166.5q0 120 -64 120q-62 0 -118 -114.5t-56 -241.5q0 -120 65 -120z" />
    <glyph glyph-name="p" unicode="p" horiz-adv-x="491" 
d="M172 -15q-9 0 -26 2t-21 2l-31 -144l46 -40l-1 -5h-182l1 5l49 40l123 574q-64 -39 -129 -118l-3 3q47 97 141 159l35 163l87 26h5l-31 -145q33 9 67 9q76 0 122 -47.5t46 -127.5q0 -81 -45.5 -164.5t-115.5 -137.5t-137 -54zM261 463q-20 0 -36 -4l-89 -415l93 -23
q62 32 108.5 121t46.5 175q0 68 -33 107t-90 39z" />
    <glyph glyph-name="q" unicode="q" horiz-adv-x="517" 
d="M100 -15q-79 0 -79 125q0 98 47 193t122.5 154t153.5 59q53 0 88 -25l78 44l3 -2l-48 -131l-117 -557l34 -40l-1 -5h-185l1 5l65 43l84 390h-4q-50 -108 -118.5 -180.5t-123.5 -72.5zM108 132q0 -88 40 -88q49 0 126.5 116t100.5 222l14 69l-101 32
q-71 -34 -125.5 -140.5t-54.5 -210.5z" />
    <glyph glyph-name="r" unicode="r" horiz-adv-x="377" 
d="M184 221l-48 -221h-87l95 437h-4l-84 -69l-3 4q33 67 69.5 98t85.5 31h26l-26 -150h4q74 165 160 165q26 0 40.5 -13.5t14.5 -34.5t-12.5 -37t-31.5 -21l-68 41q-33 -16 -74.5 -87.5t-56.5 -142.5z" />
    <glyph glyph-name="s" unicode="s" horiz-adv-x="361" 
d="M133 -15q-55 0 -96 23t-41 54q0 18 12.5 30.5t28.5 12.5l98 -93q43 1 69 26t26 65q0 34 -20.5 67t-45 56t-45 58.5t-20.5 74.5q0 66 53 111.5t130 45.5q42 0 68 -15t26 -38q0 -16 -10 -27.5t-24 -13.5l-92 61q-34 -1 -56 -23.5t-22 -60.5q0 -34 20.5 -67.5t45 -56.5
t45 -59.5t20.5 -76.5q0 -69 -48 -112q-48 -42 -122 -42z" />
    <glyph glyph-name="t" unicode="t" horiz-adv-x="346" 
d="M128 -15q-42 0 -60.5 29t-6.5 76l94 378h-83l7 33h84l31 124l89 27h5l-38 -151h127l-12 -33h-123l-97 -390q-9 -37 14 -37q22 0 69.5 38.5t87.5 85.5l4 -2q-31 -78 -85 -129q-52 -49 -107 -49z" />
    <glyph glyph-name="u" unicode="u" horiz-adv-x="553" 
d="M375 -15q-22 0 -33.5 14.5t-7.5 34.5l33 137h-4q-99 -186 -215 -186q-43 0 -63.5 31.5t-9.5 82.5l72 338h-4l-84 -69l-4 4q33 66 70 97.5t85 31.5h37l-84 -397q-11 -59 32 -59q49 0 111 74.5t80 158.5l48 223h86l-97 -453h3l83 69l4 -3q-27 -58 -65 -93.5t-73 -35.5z" />
    <glyph glyph-name="v" unicode="v" horiz-adv-x="454" 
d="M298 142l-111 -142h-35l-45 449h-4l-78 -26l-3 4q30 36 73.5 60t83.5 24h9l40 -420l32 45q75 104 100 155.5t25 96.5q0 88 -84 88h-9l-2 4q45 36 94 36q34 0 54.5 -21.5t20.5 -58.5q0 -48 -35 -112t-126 -182z" />
    <glyph glyph-name="w" unicode="w" horiz-adv-x="702" 
d="M376 252l-189 -252h-35l-45 449h-4l-78 -26l-3 4q30 37 73 60.5t84 23.5h9l40 -415l144 193l-16 160h-4l-77 -26l-3 4q31 36 73.5 60t81.5 24h9l40 -420l32 45q73 103 99 155.5t26 96.5q0 88 -84 88h-9l-2 4q45 36 94 36q35 0 55.5 -21.5t20.5 -58.5q0 -47 -35 -110.5
t-126 -183.5l-110 -142h-35z" />
    <glyph glyph-name="x" unicode="x" horiz-adv-x="485" 
d="M26 -15q-12 0 -22.5 6t-13.5 13l33 86h3l35 -13q32 5 85 66l75 91l-74 204h-5l-69 -45l-4 4q19 42 57 75.5t79 43.5l79 -217l97 133q34 48 55.5 66t45.5 18q28 0 35 -18l-33 -87h-3l-35 13q-34 -2 -84 -65l-69 -85l77 -211h5l69 45l4 -3q-19 -42 -57 -75.5t-80 -44.5
l-82 225l-103 -141q-35 -49 -55.5 -66.5t-44.5 -17.5z" />
    <glyph glyph-name="y" unicode="y" horiz-adv-x="456" 
d="M-22 -200q-33 0 -54 15.5t-21 42.5q0 32 30 38l113 -49q23 8 57 39.5t59 68.5l-51 494h-4l-78 -26l-3 4q30 36 73.5 60t82.5 24h9l44 -462l79 140q73 126 73 206q0 39 -22 60t-62 21h-9l-2 4q45 36 94 36q35 0 55.5 -21t20.5 -58q0 -38 -27.5 -96t-89.5 -155l-107 -177
q-134 -209 -260 -209z" />
    <glyph glyph-name="z" unicode="z" horiz-adv-x="428" 
d="M294 -29q-66 0 -206 123h-3l-78 -98h-5q-6 16 -6 37q0 52 34 91.5t81 39.5l239 270h-196l-49 -43h-5l21 110h332v-5l-315 -348q125 -101 192 -108l60 91l5 -2q-24 -158 -101 -158z" />
    <glyph glyph-name="braceleft" unicode="{" horiz-adv-x="305" 
d="M50 -4q0 45 31 125t31 117q0 23 -12.5 33.5t-44.5 14.5l4 24q56 11 75 41t22 115q6 132 52.5 191.5t157.5 77.5l1 -3q-82 -36 -115 -92.5t-39 -167.5q-7 -108 -45 -144l-72 -28l-1 -4l58 -29q9 -12 9 -39q0 -35 -28 -114.5t-28 -124.5q0 -82 76 -125l-2 -3
q-130 28 -130 135z" />
    <glyph glyph-name="bar" unicode="|" horiz-adv-x="230" 
d="M75 -40h-38l166 780h38z" />
    <glyph glyph-name="braceright" unicode="}" horiz-adv-x="305" 
d="M257 600q0 -45 -31 -124.5t-31 -117.5q0 -22 13 -33t44 -15l-4 -24q-56 -9 -74 -39t-23 -117q-6 -132 -52 -191t-158 -78l-1 3q82 38 115 93.5t39 166.5q7 108 45 144l72 28l1 4l-58 29q-9 12 -9 39q0 37 28 116t28 123q0 82 -76 125l2 3q130 -28 130 -135z" />
    <glyph glyph-name="asciitilde" unicode="~" horiz-adv-x="431" 
d="M322 229q-34 0 -93.5 33.5t-83.5 33.5q-40 0 -82 -49l-28 28q56 62 111 62q35 0 94 -33.5t83 -33.5q40 0 83 49l27 -28q-56 -62 -111 -62z" />
    <glyph glyph-name="exclamdown" unicode="&#xa1;" horiz-adv-x="355" 
d="M230 523q24 0 38 -13.5t14 -37.5q0 -30 -20 -46.5t-48 -16.5q-52 0 -52 50q0 30 20.5 47t47.5 17zM176 304h23l-53 -489h-125z" />
    <glyph glyph-name="cent" unicode="&#xa2;" horiz-adv-x="373" 
d="M95 -115h-26l39 105q-87 23 -87 151q0 87 41 175t106 144t131 56h8l40 107h25l-41 -109q54 -10 54 -46q0 -15 -9.5 -27.5t-24.5 -15.5l-44 25l-150 -400q9 -3 21 -3q76 0 155 130l4 -2q-58 -190 -191 -190q-10 0 -13 1zM106 167q0 -77 30 -104l150 399l-35 20
q-57 -26 -101 -121.5t-44 -193.5z" />
    <glyph glyph-name="sterling" unicode="&#xa3;" 
d="M490 111l-25 -131h-23q-185 0 -296 123h-4l-148 -98q-27 24 -27 58q0 31 24 52t67 21q31 0 76 -9q29 68 30 204h-130l7 23h123v24q0 165 65.5 251t184.5 86q80 0 154 -44l-20 -94h-5l-98 101q-13 6 -39 6q-67 0 -105.5 -76t-43.5 -220q0 -12 -2 -34h210l-6 -23h-206
q-18 -148 -91 -214q134 -68 263 -68l62 65z" />
    <glyph glyph-name="currency" unicode="&#xa4;" horiz-adv-x="457" 
d="M257 266q-25 0 -45 11l-126 -126l-29 29l126 126q-10 16 -10 44q0 26 10 45l-126 126l29 29l126 -127q20 11 45 11q23 0 43 -11l127 127l29 -29l-126 -126q11 -20 11 -45q0 -24 -11 -44l126 -126l-29 -29l-126 126q-20 -11 -44 -11zM257 300q23 0 35.5 14t12.5 36
t-13 36.5t-35 14.5q-23 0 -36.5 -14.5t-13.5 -36.5t13.5 -36t36.5 -14z" />
    <glyph glyph-name="yen" unicode="&#xa5;" horiz-adv-x="540" 
d="M255 275h-182l6 22h180l9 41l-20 52h-150l5 22h136l-96 247l-21 37l1 4h162l-1 -3l-44 -38l110 -291l214 277l-35 52l1 3h122v-3l-47 -52l-186 -233h140l-5 -22h-153l-41 -52l-9 -41h183l-5 -22h-182l-50 -234l30 -38l-1 -3h-164l1 3l42 38z" />
    <glyph glyph-name="brokenbar" unicode="&#xa6;" horiz-adv-x="230" 
d="M178 440h-38l63 300h38zM75 -40h-38l64 300h38z" />
    <glyph glyph-name="section" unicode="&#xa7;" horiz-adv-x="424" 
d="M315 75q0 -70 -50 -117.5t-123 -47.5q-64 0 -100 26l15 75h4l66 -69q12 -5 26 -5q44 0 72 29.5t28 75.5q0 35 -19 68.5t-45.5 60.5t-53.5 53.5t-46 60t-19 68.5q0 30 12.5 62t30.5 49l53 34v1q-8 26 -8 51q0 71 49.5 118t123.5 47q65 0 99 -26l-15 -75h-4l-65 69
q-13 5 -26 5q-45 0 -73 -29t-28 -76q0 -35 19 -68.5t45.5 -60.5t53.5 -53.5t46 -60t19 -68.5q0 -29 -12 -61.5t-31 -48.5l-53 -34q9 -24 9 -53zM131 393q0 -32 13.5 -60t35 -50.5t44 -43t45 -47t33.5 -52.5q39 41 39 93q0 38 -21 73t-47.5 58t-57 56.5t-44.5 65.5
q-40 -40 -40 -93z" />
    <glyph glyph-name="dieresis" unicode="&#xa8;" horiz-adv-x="500" 
d="M226 613q-17 0 -27 9.5t-10 25.5q0 20 14.5 34.5t35.5 14.5q17 0 27 -9.5t10 -25.5q0 -20 -14 -34.5t-36 -14.5zM390 613q-17 0 -27 9.5t-10 25.5q0 20 15 34.5t36 14.5q36 0 36 -35q0 -20 -14 -34.5t-36 -14.5z" />
    <glyph glyph-name="copyright" unicode="&#xa9;" horiz-adv-x="838" 
d="M441 -15q-157 0 -256.5 101t-99.5 260q0 163 102.5 266t263.5 103q158 0 257 -101t99 -260q0 -162 -102 -265.5t-264 -103.5zM459 20q141 0 221 83.5t80 231.5q0 156 -89 250.5t-238 94.5q-140 0 -220.5 -83.5t-80.5 -231.5q0 -156 89.5 -250.5t237.5 -94.5zM458 155
q-76 0 -127 54.5t-51 135.5q0 91 59 148.5t151 57.5q52 0 93 -18v-84h-2l-95 77q-10 2 -17 2q-45 0 -73 -43q-29 -43 -29 -106q0 -74 38 -123q38 -47 97 -47q62 0 94 51l3 -2q-8 -46 -47 -74.5t-94 -28.5z" />
    <glyph glyph-name="ordfeminine" unicode="&#xaa;" horiz-adv-x="381" 
d="M145 339q-60 0 -60 91q0 106 72 193.5t159 87.5q38 0 64 -18l61 31l2 -2l-33 -93l-51 -241h2l60 50l3 -2q-19 -43 -47.5 -70t-55.5 -27q-18 0 -28.5 13t-6.5 29l29 127h-3q-35 -74 -81 -122q-47 -47 -86 -47zM158 444q0 -59 27 -59q30 0 82.5 79.5t66.5 146.5l11 52
l-70 23q-45 -24 -81 -98.5t-36 -143.5z" />
    <glyph glyph-name="guillemotleft" unicode="&#xab;" horiz-adv-x="333" 
d="M157 106l-4 -18l-120 170l6 30l193 170l-4 -18l-132 -171v-2zM291 106l-4 -18l-120 170l6 30l193 170l-4 -18l-132 -171v-2z" />
    <glyph glyph-name="logicalnot" unicode="&#xac;" horiz-adv-x="431" 
d="M371 252h-343v41h383v-212h-40v171z" />
    <glyph glyph-name="registered" unicode="&#xae;" horiz-adv-x="838" 
d="M441 -15q-157 0 -256.5 101t-99.5 260q0 163 102.5 266t263.5 103q158 0 257 -101t99 -260q0 -162 -102 -265.5t-264 -103.5zM459 20q141 0 221 83.5t80 231.5q0 156 -89 250.5t-238 94.5q-140 0 -220.5 -83.5t-80.5 -231.5q0 -156 89.5 -250.5t237.5 -94.5zM418 166v-3
h-140v3l28 30v314l-28 30v3h232q41 -7 66 -34t25 -64q0 -34 -23.5 -57.5t-65.5 -31.5l96 -161l35 -29v-3h-113l-96 181h-44v-148zM404 527h-14v-161h37q91 0 91 72q0 41 -30.5 65t-83.5 24z" />
    <glyph glyph-name="overscore" unicode="&#xaf;" horiz-adv-x="500" 
d="M442 638h-257l8 34h256z" />
    <glyph glyph-name="degree" unicode="&#xb0;" horiz-adv-x="210" 
d="M308 611q0 -51 -33.5 -85t-84.5 -34t-84.5 34t-33.5 85t33.5 85t84.5 34t84.5 -34t33.5 -85zM274 611q0 39 -23 64t-61 25q-37 0 -60.5 -25.5t-23.5 -63.5t23.5 -63t60.5 -25q38 0 61 24.5t23 63.5z" />
    <glyph glyph-name="plusminus" unicode="&#xb1;" horiz-adv-x="311" 
d="M139 315h-111v41h111v121h41v-121h111v-41h-111v-121h-41v121zM291 83h-263v41h263v-41z" />
    <glyph glyph-name="twosuperior" unicode="&#xb2;" horiz-adv-x="341" 
d="M369 436l-18 -86h-281l1 3l109 98q73 63 102.5 108t29.5 92q0 32 -19 51.5t-50 19.5q-66 0 -98 -85l-3 1q5 60 41.5 95.5t93.5 35.5q53 0 86 -30t33 -79q0 -50 -34 -90l-203 -160h178l29 26h3z" />
    <glyph glyph-name="threesuperior" unicode="&#xb3;" horiz-adv-x="341" 
d="M206 341q-75 0 -121 31l15 72h3l66 -73q11 -7 31 -7q42 0 69 24.5t27 61.5q0 42 -35 68.5t-96 28.5v3l72 44q29 -2 34 -4q49 25 49 64q0 31 -19.5 49.5t-50.5 18.5q-60 0 -90 -74l-3 1q2 56 37 88t92 32q49 0 79 -22.5t30 -59.5t-33 -66l-77 -34q44 -12 68.5 -41
t24.5 -70q0 -58 -49 -96.5t-123 -38.5z" />
    <glyph glyph-name="acute" unicode="&#xb4;" horiz-adv-x="500" 
d="M190 565h-4l102 180h90v-5z" />
    <glyph glyph-name="mu" unicode="&#xb5;" horiz-adv-x="553" 
d="M375 -15q-22 0 -33.5 14.5t-7.5 34.5l33 137h-4q-46 -89 -99.5 -137.5t-106.5 -48.5q-26 0 -35 9h-4l-18 -189l-1 -5h-87l135 637h-4l-84 -69l-4 4q33 66 70 97.5t85 31.5h37l-84 -397q-11 -59 32 -59q49 0 111 74.5t80 158.5l48 223h86l-97 -453h3l83 69l4 -3
q-27 -58 -65 -93.5t-73 -35.5z" />
    <glyph glyph-name="paragraph" unicode="&#xb6;" horiz-adv-x="422" 
d="M126 -67l93 441l-85 10q-43 36 -43 101q0 69 51 112t133 43h38l-162 -760h-88l1 5zM298 -120h-87l161 760h87l-1 -5l-60 -49l-139 -653l40 -48z" />
    <glyph glyph-name="middot" unicode="&#xb7;" horiz-adv-x="235" 
d="M121 215q-24 0 -38 13.5t-14 37.5q0 30 20 46.5t48 16.5q52 0 52 -50q0 -31 -20 -47.5t-48 -16.5z" />
    <glyph glyph-name="cedilla" unicode="&#xb8;" horiz-adv-x="500" 
d="M208 -49l97 51h29l-65 -36q52 -49 52 -94q0 -32 -29 -52t-76 -20q-48 0 -79 13l10 47h6l74 -42q15 1 24.5 12.5t9.5 28.5q0 42 -53 89v3z" />
    <glyph glyph-name="onesuperior" unicode="&#xb9;" horiz-adv-x="242" 
d="M232 352l-1 -2h-133v2l30 29l67 315h-52v2l100 62h51l-81 -379z" />
    <glyph glyph-name="ordmasculine" unicode="&#xba;" horiz-adv-x="334" 
d="M198 339q-52 0 -82.5 35.5t-30.5 96.5q0 95 57.5 167.5t133.5 72.5q53 0 82.5 -35t29.5 -97q0 -95 -57 -167.5t-133 -72.5zM199 360q28 0 55.5 37.5t44.5 96t17 116.5q0 80 -42 80t-79.5 -81t-37.5 -170q0 -79 42 -79z" />
    <glyph glyph-name="guillemotright" unicode="&#xbb;" horiz-adv-x="320" 
d="M58 440l4 18l120 -170l-6 -30l-193 -170l4 18l132 171v2zM195 440l4 18l120 -170l-6 -30l-193 -170l4 18l132 171v2z" />
    <glyph glyph-name="onequarter" unicode="&#xbc;" horiz-adv-x="765" 
d="M219 292l-1 -2h-133v2l30 29l67 315h-52v2l100 62h51l-81 -379zM227 0h-42l478 700h42zM689 2l-1 -2h-133v2l30 29l17 80h-177l1 3l237 296h89l-57 -267h23l28 26h3l-12 -58h-49l-17 -80zM654 359l-173 -216h128z" />
    <glyph glyph-name="onehalf" unicode="&#xbd;" horiz-adv-x="810" 
d="M219 292l-1 -2h-133v2l30 29l67 315h-52v2l100 62h51l-81 -379zM227 0h-42l478 700h42zM764 86l-18 -86h-281l1 3l109 98q72 63 102 108.5t30 91.5q0 32 -19 51.5t-50 19.5q-64 0 -98 -85l-3 1q5 60 41.5 95.5t93.5 35.5q53 0 86 -30t33 -79q0 -50 -34 -90l-203 -160h178
l29 26h3z" />
    <glyph glyph-name="threequarters" unicode="&#xbe;" horiz-adv-x="765" 
d="M193 281q-75 0 -121 31l15 72h3l66 -73q11 -7 31 -7q42 0 69 24.5t27 61.5q0 42 -35 68.5t-96 28.5v3l72 44q29 -2 34 -4q49 25 49 64q0 31 -19 49.5t-50 18.5q-62 0 -91 -74l-3 1q2 55 38 87.5t93 32.5q48 0 77.5 -23t29.5 -60q0 -38 -33 -65l-77 -34q44 -12 68.5 -41
t24.5 -70q0 -58 -49 -96.5t-123 -38.5zM227 0h-42l478 700h42zM689 2l-1 -2h-133v2l30 29l17 80h-177l1 3l237 296h89l-57 -267h23l28 26h3l-12 -58h-49l-17 -80zM654 359l-173 -216h128z" />
    <glyph glyph-name="questiondown" unicode="&#xbf;" horiz-adv-x="398" 
d="M248 523q24 0 38 -13.5t14 -37.5q0 -30 -20 -46.5t-48 -16.5q-52 0 -52 50q0 30 20.5 47t47.5 17zM182 308l1 3q62 -13 62 -73q0 -32 -20 -64t-48.5 -59.5t-56.5 -56t-48 -63.5t-20 -72q0 -40 22.5 -64.5t60.5 -24.5q20 0 34 7l130 108h4l-23 -116q-61 -33 -140 -33
q-82 0 -132 38.5t-50 102.5q0 43 24.5 83t59.5 70.5t70 58.5t59.5 58t24.5 58q0 25 -14 39z" />
    <glyph glyph-name="Agrave" unicode="&#xc0;" horiz-adv-x="609" 
d="M334 875h82l27 -130h-5l-104 125v5zM542 4l-1 -4h-168l1 4l55 44l-12 154h-270l-87 -136l64 -62l-1 -4h-162l1 4l42 45l377 575l-9 72l1 4h99l53 -652zM415 237l-26 341l-219 -341h245z" />
    <glyph glyph-name="Aacute" unicode="&#xc1;" horiz-adv-x="609" 
d="M442 745h-5l80 130h90v-5zM542 4l-1 -4h-168l1 4l55 44l-12 154h-270l-87 -136l64 -62l-1 -4h-162l1 4l42 45l377 575l-9 72l1 4h99l53 -652zM415 237l-26 341l-219 -341h245z" />
    <glyph glyph-name="Acircumflex" unicode="&#xc2;" horiz-adv-x="609" 
d="M454 875h28l85 -128l-4 -2l-100 78h-4l-142 -78l-2 2zM542 4l-1 -4h-168l1 4l55 44l-12 154h-270l-87 -136l64 -62l-1 -4h-162l1 4l42 45l377 575l-9 72l1 4h99l53 -652zM415 237l-26 341l-219 -341h245z" />
    <glyph glyph-name="Atilde" unicode="&#xc3;" horiz-adv-x="609" 
d="M514 760q-23 0 -69 25.5t-70 25.5q-19 0 -38.5 -11.5t-57.5 -46.5l-3 2q46 64 70.5 84.5t48.5 20.5t69 -25.5t70 -25.5q19 0 39.5 11.5t57.5 46.5l2 -2q-44 -63 -69.5 -84t-49.5 -21zM542 4l-1 -4h-168l1 4l55 44l-12 154h-270l-87 -136l64 -62l-1 -4h-162l1 4l42 45
l377 575l-9 72l1 4h99l53 -652zM415 237l-26 341l-219 -341h245z" />
    <glyph glyph-name="Adieresis" unicode="&#xc4;" horiz-adv-x="609" 
d="M365 768q-17 0 -27 9.5t-10 25.5q0 20 14.5 34.5t35.5 14.5q17 0 27 -9.5t10 -25.5q0 -21 -14.5 -35t-35.5 -14zM529 768q-17 0 -27 9.5t-10 25.5q0 20 15 34.5t36 14.5q36 0 36 -35q0 -21 -14.5 -35t-35.5 -14zM542 4l-1 -4h-168l1 4l55 44l-12 154h-270l-87 -136
l64 -62l-1 -4h-162l1 4l42 45l377 575l-9 72l1 4h99l53 -652zM415 237l-26 341l-219 -341h245z" />
    <glyph glyph-name="Aring" unicode="&#xc5;" horiz-adv-x="609" 
d="M441 745q-44 0 -70 20.5t-26 55.5q0 44 38 73q39 30 94 30q44 0 69.5 -20.5t25.5 -55.5q0 -43 -38 -73t-93 -30zM450 767q28 0 46.5 24.5t18.5 55.5q0 25 -12.5 40t-34.5 15q-27 0 -46 -24.5t-19 -55.5q0 -25 12.5 -40t34.5 -15zM542 4l-1 -4h-168l1 4l55 44l-12 154
h-270l-87 -136l64 -62l-1 -4h-162l1 4l42 45l377 575l-9 72l1 4h99l53 -652zM415 237l-26 341l-219 -341h245z" />
    <glyph glyph-name="AE" unicode="&#xc6;" horiz-adv-x="905" 
d="M819 129l-27 -129h-477l1 4l51 44l34 160h-235l-107 -142l64 -62l-1 -4h-157l1 4l465 620l-10 72l1 4h483l-23 -111h-5l-106 78h-175l-60 -281h175l100 58h5l-32 -151h-5l-77 59h-174l-67 -319h205l149 96h4zM492 636h-3l-296 -393h216z" />
    <glyph glyph-name="Ccedilla" unicode="&#xc7;" horiz-adv-x="610" 
d="M326 -15h-17q-113 0 -181.5 79.5t-68.5 210.5q0 186 117 313t287 127q115 0 168 -43l-23 -106h-5l-119 107q-26 8 -52 8q-108 0 -190.5 -122.5t-82.5 -283.5q0 -115 47 -177.5t133 -62.5q143 0 236 173l4 -3q-20 -85 -77 -142t-137 -73l-44 -24q52 -49 52 -94
q0 -32 -29 -52t-76 -20q-48 0 -79 13l10 47h6l74 -42q15 1 24.5 12.5t9.5 28.5q0 42 -53 89v3z" />
    <glyph glyph-name="Egrave" unicode="&#xc8;" horiz-adv-x="610" 
d="M291 875h82l27 -130h-5l-104 125v5zM524 129l-27 -129h-476l1 4l50 44l129 604l-38 44l1 4h446l-23 -111h-5l-106 78h-175l-60 -281h175l100 58h5l-32 -151h-5l-77 59h-174l-67 -319h205l149 96h4z" />
    <glyph glyph-name="Eacute" unicode="&#xc9;" horiz-adv-x="610" 
d="M399 745h-5l80 130h90v-5zM524 129l-27 -129h-476l1 4l50 44l129 604l-38 44l1 4h446l-23 -111h-5l-106 78h-175l-60 -281h175l100 58h5l-32 -151h-5l-77 59h-174l-67 -319h205l149 96h4z" />
    <glyph glyph-name="Ecircumflex" unicode="&#xca;" horiz-adv-x="610" 
d="M411 875h28l85 -128l-4 -2l-100 78h-4l-142 -78l-2 2zM524 129l-27 -129h-476l1 4l50 44l129 604l-38 44l1 4h446l-23 -111h-5l-106 78h-175l-60 -281h175l100 58h5l-32 -151h-5l-77 59h-174l-67 -319h205l149 96h4z" />
    <glyph glyph-name="Edieresis" unicode="&#xcb;" horiz-adv-x="610" 
d="M322 768q-17 0 -27 9.5t-10 25.5q0 20 14.5 34.5t35.5 14.5q17 0 27 -9.5t10 -25.5q0 -21 -14 -35t-36 -14zM486 768q-17 0 -27 9.5t-10 25.5q0 20 15 34.5t36 14.5q36 0 36 -35q0 -21 -14 -35t-36 -14zM524 129l-27 -129h-476l1 4l50 44l129 604l-38 44l1 4h446
l-23 -111h-5l-106 78h-175l-60 -281h175l100 58h5l-32 -151h-5l-77 59h-174l-67 -319h205l149 96h4z" />
    <glyph glyph-name="Igrave" unicode="&#xcc;" horiz-adv-x="328" 
d="M163 875h82l27 -130h-5l-104 125v5zM205 4l-1 -4h-183l1 4l50 44l129 604l-38 44l1 4h185l-1 -4l-51 -44l-129 -604z" />
    <glyph glyph-name="Iacute" unicode="&#xcd;" horiz-adv-x="328" 
d="M271 745h-5l80 130h90v-5zM205 4l-1 -4h-183l1 4l50 44l129 604l-38 44l1 4h185l-1 -4l-51 -44l-129 -604z" />
    <glyph glyph-name="Icircumflex" unicode="&#xce;" horiz-adv-x="328" 
d="M283 875h28l85 -128l-4 -2l-100 78h-4l-142 -78l-2 2zM205 4l-1 -4h-183l1 4l50 44l129 604l-38 44l1 4h185l-1 -4l-51 -44l-129 -604z" />
    <glyph glyph-name="Idieresis" unicode="&#xcf;" horiz-adv-x="328" 
d="M194 768q-17 0 -27 9.5t-10 25.5q0 20 14.5 34.5t35.5 14.5q17 0 27 -9.5t10 -25.5q0 -21 -14 -35t-36 -14zM358 768q-17 0 -27 9.5t-10 25.5q0 20 15 34.5t36 14.5q36 0 36 -35q0 -21 -14 -35t-36 -14zM205 4l-1 -4h-183l1 4l50 44l129 604l-38 44l1 4h185l-1 -4
l-51 -44l-129 -604z" />
    <glyph glyph-name="Eth" unicode="&#xd0;" horiz-adv-x="703" 
d="M135 342h-42l7 34h42l59 276l-38 44l1 4h278q105 -21 174.5 -107.5t69.5 -194.5q0 -176 -120.5 -287t-347.5 -111h-197l1 4l50 44zM393 376l-7 -34h-155l-66 -309h47q176 0 275.5 95.5t99.5 258.5q0 119 -79.5 198.5t-206.5 86.5l-63 -296h155z" />
    <glyph glyph-name="Ntilde" unicode="&#xd1;" horiz-adv-x="709" 
d="M532 760q-23 0 -69 25.5t-70 25.5q-19 0 -38.5 -11.5t-57.5 -46.5l-3 2q46 64 70.5 84.5t48.5 20.5t69 -25.5t70 -25.5q19 0 39.5 11.5t57.5 46.5l2 -2q-44 -63 -69.5 -84t-49.5 -21zM684 634l-135 -634h-26l-296 569l-107 -503l54 -62l-1 -4h-152l1 4l54 62l119 559
l-47 71l1 4h119l274 -527l98 461l-54 62l1 4h152l-1 -4z" />
    <glyph glyph-name="Ograve" unicode="&#xd2;" horiz-adv-x="696" 
d="M346 875h82l27 -130h-5l-104 125v5zM306 -15q-115 0 -181 76t-66 209q0 185 109 315t264 130q115 0 181 -76t66 -209q0 -184 -109.5 -314.5t-263.5 -130.5zM319 18q107 0 184 126t77 297q0 113 -43 177t-119 64q-106 0 -183.5 -126t-77.5 -297q0 -113 43 -177t119 -64z
" />
    <glyph glyph-name="Oacute" unicode="&#xd3;" horiz-adv-x="696" 
d="M454 745h-5l80 130h90v-5zM306 -15q-115 0 -181 76t-66 209q0 185 109 315t264 130q115 0 181 -76t66 -209q0 -184 -109.5 -314.5t-263.5 -130.5zM319 18q107 0 184 126t77 297q0 113 -43 177t-119 64q-106 0 -183.5 -126t-77.5 -297q0 -113 43 -177t119 -64z" />
    <glyph glyph-name="Ocircumflex" unicode="&#xd4;" horiz-adv-x="696" 
d="M466 875h28l85 -128l-4 -2l-100 78h-4l-142 -78l-2 2zM306 -15q-115 0 -181 76t-66 209q0 185 109 315t264 130q115 0 181 -76t66 -209q0 -184 -109.5 -314.5t-263.5 -130.5zM319 18q107 0 184 126t77 297q0 113 -43 177t-119 64q-106 0 -183.5 -126t-77.5 -297
q0 -113 43 -177t119 -64z" />
    <glyph glyph-name="Otilde" unicode="&#xd5;" horiz-adv-x="696" 
d="M526 760q-23 0 -69 25.5t-70 25.5q-19 0 -38.5 -11.5t-57.5 -46.5l-3 2q46 64 70.5 84.5t48.5 20.5t69 -25.5t70 -25.5q19 0 39.5 11.5t57.5 46.5l2 -2q-44 -63 -69.5 -84t-49.5 -21zM306 -15q-115 0 -181 76t-66 209q0 185 109 315t264 130q115 0 181 -76t66 -209
q0 -184 -109.5 -314.5t-263.5 -130.5zM319 18q107 0 184 126t77 297q0 113 -43 177t-119 64q-106 0 -183.5 -126t-77.5 -297q0 -113 43 -177t119 -64z" />
    <glyph glyph-name="Odieresis" unicode="&#xd6;" horiz-adv-x="696" 
d="M377 768q-17 0 -27 9.5t-10 25.5q0 20 14.5 34.5t35.5 14.5q17 0 27 -9.5t10 -25.5q0 -21 -14.5 -35t-35.5 -14zM541 768q-17 0 -27 9.5t-10 25.5q0 20 15 34.5t36 14.5q36 0 36 -35q0 -21 -14.5 -35t-35.5 -14zM306 -15q-115 0 -181 76t-66 209q0 185 109 315t264 130
q115 0 181 -76t66 -209q0 -184 -109.5 -314.5t-263.5 -130.5zM319 18q107 0 184 126t77 297q0 113 -43 177t-119 64q-106 0 -183.5 -126t-77.5 -297q0 -113 43 -177t119 -64z" />
    <glyph glyph-name="multiply" unicode="&#xd7;" horiz-adv-x="401" 
d="M205 244l-143 -142l-29 28l143 143l-143 142l29 28l143 -142l142 142l29 -28l-143 -142l143 -143l-29 -28z" />
    <glyph glyph-name="Oslash" unicode="&#xd8;" horiz-adv-x="696" 
d="M146 40l-70 -89l-25 22l72 91q-64 74 -64 206q0 185 109 315t264 130q98 0 160 -55l67 84l27 -22l-69 -88q62 -76 62 -204q0 -184 -109.5 -314.5t-263.5 -130.5q-98 0 -160 55zM157 259q0 -71 19 -128l371 471q-44 80 -129 80q-106 0 -183.5 -126t-77.5 -297zM319 18
q107 0 184 126t77 297q0 73 -18 125l-371 -469q43 -79 128 -79z" />
    <glyph glyph-name="Ugrave" unicode="&#xd9;" horiz-adv-x="689" 
d="M354 875h82l27 -130h-5l-104 125v5zM329 -15q-119 0 -180.5 77.5t-37.5 192.5l84 397l-38 44l1 4h184l-1 -4l-49 -44l-82 -384q-23 -106 18.5 -163.5t135.5 -57.5q75 0 125 40t66 114l91 433l-54 62l1 4h149l-1 -4l-54 -62l-91 -430q-22 -107 -89.5 -163t-177.5 -56z" />
    <glyph glyph-name="Uacute" unicode="&#xda;" horiz-adv-x="689" 
d="M462 745h-5l80 130h90v-5zM329 -15q-119 0 -180.5 77.5t-37.5 192.5l84 397l-38 44l1 4h184l-1 -4l-49 -44l-82 -384q-23 -106 18.5 -163.5t135.5 -57.5q75 0 125 40t66 114l91 433l-54 62l1 4h149l-1 -4l-54 -62l-91 -430q-22 -107 -89.5 -163t-177.5 -56z" />
    <glyph glyph-name="Ucircumflex" unicode="&#xdb;" horiz-adv-x="689" 
d="M474 875h28l85 -128l-4 -2l-100 78h-4l-142 -78l-2 2zM329 -15q-119 0 -180.5 77.5t-37.5 192.5l84 397l-38 44l1 4h184l-1 -4l-49 -44l-82 -384q-23 -106 18.5 -163.5t135.5 -57.5q75 0 125 40t66 114l91 433l-54 62l1 4h149l-1 -4l-54 -62l-91 -430
q-22 -107 -89.5 -163t-177.5 -56z" />
    <glyph glyph-name="Udieresis" unicode="&#xdc;" horiz-adv-x="689" 
d="M386 768q-17 0 -27 9.5t-10 25.5q0 20 14.5 34.5t35.5 14.5q17 0 27 -9.5t10 -25.5q0 -21 -14 -35t-36 -14zM550 768q-17 0 -27 9.5t-10 25.5q0 20 15 34.5t36 14.5q36 0 36 -35q0 -21 -14 -35t-36 -14zM329 -15q-119 0 -180.5 77.5t-37.5 192.5l84 397l-38 44l1 4h184
l-1 -4l-49 -44l-82 -384q-23 -106 18.5 -163.5t135.5 -57.5q75 0 125 40t66 114l91 433l-54 62l1 4h149l-1 -4l-54 -62l-91 -430q-22 -107 -89.5 -163t-177.5 -56z" />
    <glyph glyph-name="Yacute" unicode="&#xdd;" horiz-adv-x="595" 
d="M405 745h-5l80 130h90v-5zM340 4l-1 -4h-184l1 4l50 44l62 284l-127 321l-24 43l1 4h178l-1 -4l-52 -44l110 -285l209 267l-42 62l1 4h144l-1 -4l-54 -62l-246 -303l-61 -283z" />
    <glyph glyph-name="Thorn" unicode="&#xde;" horiz-adv-x="574" 
d="M205 4l-1 -4h-183l1 4l50 44l129 604l-38 44l1 4h185l-1 -4l-51 -44l-18 -82h137q68 -14 108 -63.5t40 -120.5q0 -97 -72 -162.5t-176 -65.5q-29 0 -45 4l-25 17v4q103 3 166 57t63 138q0 73 -47.5 117.5t-125.5 44.5h-29l-105 -492z" />
    <glyph glyph-name="germandbls" unicode="&#xdf;" horiz-adv-x="517" 
d="M321 -15q-65 0 -107 30l8 90h5l94 -93q41 1 66 25.5t25 65.5q0 31 -16 64.5t-34.5 59t-34.5 62.5t-16 75q0 69 45.5 126.5t155.5 142.5l2 7l-132 100q-57 -3 -97 -72t-56 -175l-59 -397q-25 -156 -69 -226t-116 -70q-32 0 -49.5 12.5t-17.5 31.5q0 14 10.5 26.5
t23.5 12.5l92 -40q18 18 50 257l47 368h-82l7 33h79q21 120 92.5 194.5t165.5 74.5q54 0 97 -25q44 -24 58 -62l-10 -49q-72 -59 -102.5 -87.5t-48 -62t-17.5 -75.5q0 -35 16 -71t35 -62t35 -63t16 -73q0 -66 -45.5 -110.5t-115.5 -44.5z" />
    <glyph glyph-name="agrave" unicode="&#xe0;" 
d="M244 738h80l31 -180h-5l-106 175v5zM100 -15q-79 0 -79 125q0 99 47 193.5t122.5 153.5t153.5 59q53 0 88 -24l77 43l3 -2l-47 -131l-75 -354h3l84 69l3 -3q-27 -58 -65 -93.5t-73 -35.5q-22 0 -34 15.5t-7 37.5l45 200h-4q-50 -108 -119 -180.5t-123 -72.5zM108 132
q0 -88 40 -88q49 0 126.5 116t100.5 222l14 69l-101 32q-71 -33 -125.5 -141t-54.5 -210z" />
    <glyph glyph-name="aacute" unicode="&#xe1;" 
d="M353 558h-4l102 180h90v-5zM100 -15q-79 0 -79 125q0 99 47 193.5t122.5 153.5t153.5 59q53 0 88 -24l77 43l3 -2l-47 -131l-75 -354h3l84 69l3 -3q-27 -58 -65 -93.5t-73 -35.5q-22 0 -34 15.5t-7 37.5l45 200h-4q-50 -108 -119 -180.5t-123 -72.5zM108 132
q0 -88 40 -88q49 0 126.5 116t100.5 222l14 69l-101 32q-71 -33 -125.5 -141t-54.5 -210z" />
    <glyph glyph-name="acircumflex" unicode="&#xe2;" 
d="M377 745h26l75 -178l-3 -2l-94 109h-4l-148 -109l-2 2zM100 -15q-79 0 -79 125q0 99 47 193.5t122.5 153.5t153.5 59q53 0 88 -24l77 43l3 -2l-47 -131l-75 -354h3l84 69l3 -3q-27 -58 -65 -93.5t-73 -35.5q-22 0 -34 15.5t-7 37.5l45 200h-4q-50 -108 -119 -180.5
t-123 -72.5zM108 132q0 -88 40 -88q49 0 126.5 116t100.5 222l14 69l-101 32q-71 -33 -125.5 -141t-54.5 -210z" />
    <glyph glyph-name="atilde" unicode="&#xe3;" 
d="M429 603q-23 0 -69 27.5t-69 27.5q-19 0 -39.5 -12.5t-58.5 -49.5l-3 3q43 61 70 84.5t51 23.5t69 -27.5t70 -27.5q19 0 38.5 12.5t57.5 49.5l3 -3q-42 -61 -68.5 -84.5t-51.5 -23.5zM100 -15q-79 0 -79 125q0 99 47 193.5t122.5 153.5t153.5 59q53 0 88 -24l77 43l3 -2
l-47 -131l-75 -354h3l84 69l3 -3q-27 -58 -65 -93.5t-73 -35.5q-22 0 -34 15.5t-7 37.5l45 200h-4q-50 -108 -119 -180.5t-123 -72.5zM108 132q0 -88 40 -88q49 0 126.5 116t100.5 222l14 69l-101 32q-71 -33 -125.5 -141t-54.5 -210z" />
    <glyph glyph-name="adieresis" unicode="&#xe4;" 
d="M282 613q-17 0 -27 9.5t-10 25.5q0 20 14.5 34.5t35.5 14.5q17 0 27 -9.5t10 -25.5q0 -20 -14 -34.5t-36 -14.5zM446 613q-17 0 -27 9.5t-10 25.5q0 20 15 34.5t36 14.5q36 0 36 -35q0 -20 -14 -34.5t-36 -14.5zM100 -15q-79 0 -79 125q0 99 47 193.5t122.5 153.5
t153.5 59q53 0 88 -24l77 43l3 -2l-47 -131l-75 -354h3l84 69l3 -3q-27 -58 -65 -93.5t-73 -35.5q-22 0 -34 15.5t-7 37.5l45 200h-4q-50 -108 -119 -180.5t-123 -72.5zM108 132q0 -88 40 -88q49 0 126.5 116t100.5 222l14 69l-101 32q-71 -33 -125.5 -141t-54.5 -210z" />
    <glyph glyph-name="aring" unicode="&#xe5;" 
d="M353 569q-44 0 -70 20.5t-26 55.5q0 44 38 73q39 30 94 30q44 0 69.5 -20.5t25.5 -55.5q0 -43 -38 -73t-93 -30zM362 591q28 0 46.5 24.5t18.5 55.5q0 25 -12.5 40t-34.5 15q-27 0 -46 -24.5t-19 -55.5q0 -25 12.5 -40t34.5 -15zM100 -15q-79 0 -79 125q0 99 47 193.5
t122.5 153.5t153.5 59q53 0 88 -24l77 43l3 -2l-47 -131l-75 -354h3l84 69l3 -3q-27 -58 -65 -93.5t-73 -35.5q-22 0 -34 15.5t-7 37.5l45 200h-4q-50 -108 -119 -180.5t-123 -72.5zM108 132q0 -88 40 -88q49 0 126.5 116t100.5 222l14 69l-101 32q-71 -33 -125.5 -141
t-54.5 -210z" />
    <glyph glyph-name="ae" unicode="&#xe6;" horiz-adv-x="708" 
d="M100 -15q-79 0 -79 127q0 101 47 195t124 151.5t159 57.5q42 0 78 -16t47 -41q70 57 135 57q42 0 66 -22t24 -58q0 -119 -280 -188q-9 -40 -9 -81q0 -120 76 -120q88 0 176 156l4 -2q-29 -104 -87.5 -160t-127.5 -56q-59 0 -92.5 39t-33.5 111q0 52 13 98
q-50 -107 -118 -177.5t-122 -70.5zM108 132q0 -88 40 -88q36 0 91.5 68t91.5 147q21 50 52 96t58 71v2l-143 57q-74 -35 -132 -142t-58 -211zM583 484q-45 0 -90 -63.5t-67 -150.5q105 29 154.5 67t49.5 90q0 27 -12.5 42t-34.5 15z" />
    <glyph glyph-name="ccedilla" unicode="&#xe7;" horiz-adv-x="381" 
d="M162 -15h-8q-60 0 -92.5 40t-32.5 116q0 87 41 175t106 144t131 56q86 0 86 -48q0 -15 -9.5 -27.5t-24.5 -15.5l-100 57q-57 -26 -101 -121.5t-44 -193.5q0 -120 72 -120q76 0 155 130l4 -2q-47 -147 -135 -180l-52 -29q52 -49 52 -94q0 -32 -29 -52t-76 -20
q-48 0 -79 13l10 47h6l74 -42q15 1 24.5 12.5t9.5 28.5q0 42 -53 89v3z" />
    <glyph glyph-name="egrave" unicode="&#xe8;" horiz-adv-x="401" 
d="M204 738h80l31 -180h-5l-106 175v5zM147 -15q-59 0 -92.5 39t-33.5 111q0 90 42 179.5t108.5 145.5t133.5 56q42 0 66 -22t24 -58q0 -119 -280 -188q-9 -40 -9 -81q0 -120 76 -120q88 0 176 156l4 -2q-29 -104 -87.5 -160t-127.5 -56zM277 484q-45 0 -90 -63.5
t-67 -150.5q105 29 154.5 67t49.5 90q0 27 -12.5 42t-34.5 15z" />
    <glyph glyph-name="eacute" unicode="&#xe9;" horiz-adv-x="401" 
d="M313 558h-4l102 180h90v-5zM147 -15q-59 0 -92.5 39t-33.5 111q0 90 42 179.5t108.5 145.5t133.5 56q42 0 66 -22t24 -58q0 -119 -280 -188q-9 -40 -9 -81q0 -120 76 -120q88 0 176 156l4 -2q-29 -104 -87.5 -160t-127.5 -56zM277 484q-45 0 -90 -63.5t-67 -150.5
q105 29 154.5 67t49.5 90q0 27 -12.5 42t-34.5 15z" />
    <glyph glyph-name="ecircumflex" unicode="&#xea;" horiz-adv-x="401" 
d="M337 745h26l75 -178l-3 -2l-94 109h-4l-148 -109l-2 2zM147 -15q-59 0 -92.5 39t-33.5 111q0 90 42 179.5t108.5 145.5t133.5 56q42 0 66 -22t24 -58q0 -119 -280 -188q-9 -40 -9 -81q0 -120 76 -120q88 0 176 156l4 -2q-29 -104 -87.5 -160t-127.5 -56zM277 484
q-45 0 -90 -63.5t-67 -150.5q105 29 154.5 67t49.5 90q0 27 -12.5 42t-34.5 15z" />
    <glyph glyph-name="edieresis" unicode="&#xeb;" horiz-adv-x="401" 
d="M242 613q-17 0 -27 9.5t-10 25.5q0 20 14.5 34.5t35.5 14.5q17 0 27 -9.5t10 -25.5q0 -20 -14 -34.5t-36 -14.5zM406 613q-17 0 -27 9.5t-10 25.5q0 20 15 34.5t36 14.5q36 0 36 -35q0 -20 -14 -34.5t-36 -14.5zM147 -15q-59 0 -92.5 39t-33.5 111q0 90 42 179.5
t108.5 145.5t133.5 56q42 0 66 -22t24 -58q0 -119 -280 -188q-9 -40 -9 -81q0 -120 76 -120q88 0 176 156l4 -2q-29 -104 -87.5 -160t-127.5 -56zM277 484q-45 0 -90 -63.5t-67 -150.5q105 29 154.5 67t49.5 90q0 27 -12.5 42t-34.5 15z" />
    <glyph glyph-name="igrave" unicode="&#xec;" horiz-adv-x="287" 
d="M107 738h80l31 -180h-5l-106 175v5zM98 -15q-22 0 -33.5 14.5t-7.5 34.5l86 403h-5l-84 -70l-2 5q62 129 154 129h36l-95 -453h3l84 69l3 -3q-27 -58 -65.5 -93.5t-73.5 -35.5z" />
    <glyph glyph-name="iacute" unicode="&#xed;" horiz-adv-x="287" 
d="M216 558h-4l102 180h90v-5zM98 -15q-22 0 -33.5 14.5t-7.5 34.5l86 403h-5l-84 -70l-2 5q62 129 154 129h36l-95 -453h3l84 69l3 -3q-27 -58 -65.5 -93.5t-73.5 -35.5z" />
    <glyph glyph-name="icircumflex" unicode="&#xee;" horiz-adv-x="287" 
d="M240 745h26l75 -178l-3 -2l-94 109h-4l-148 -109l-2 2zM98 -15q-22 0 -33.5 14.5t-7.5 34.5l86 403h-5l-84 -70l-2 5q62 129 154 129h36l-95 -453h3l84 69l3 -3q-27 -58 -65.5 -93.5t-73.5 -35.5z" />
    <glyph glyph-name="idieresis" unicode="&#xef;" horiz-adv-x="287" 
d="M144 613q-17 0 -27 9.5t-10 25.5q0 20 14.5 34.5t35.5 14.5q17 0 27 -9.5t10 -25.5q0 -20 -14 -34.5t-36 -14.5zM308 613q-17 0 -27 9.5t-10 25.5q0 20 15 34.5t36 14.5q36 0 36 -35q0 -20 -14 -34.5t-36 -14.5zM98 -15q-22 0 -33.5 14.5t-7.5 34.5l86 403h-5l-84 -70
l-2 5q62 129 154 129h36l-95 -453h3l84 69l3 -3q-27 -58 -65.5 -93.5t-73.5 -35.5z" />
    <glyph glyph-name="eth" unicode="&#xf0;" horiz-adv-x="452" 
d="M168 -15q-69 0 -108 49t-39 135q0 135 78 241t178 106q32 0 52 -17l3 3q-16 51 -58 107l-139 -52l-10 26l131 49q-55 66 -102 93l-64 18v5l133 21q71 -52 112 -108l86 32l11 -26l-80 -30q78 -115 78 -264q0 -159 -78.5 -273.5t-183.5 -114.5zM173 12q41 0 81.5 53
t66 136.5t25.5 166.5q0 120 -64 120q-62 0 -118 -114.5t-56 -241.5q0 -120 65 -120z" />
    <glyph glyph-name="ntilde" unicode="&#xf1;" horiz-adv-x="553" 
d="M432 603q-24 0 -69 27.5t-69 27.5q-19 0 -39.5 -12.5t-58.5 -49.5l-3 3q43 61 70 84.5t51 23.5t69 -27.5t70 -27.5q19 0 38.5 12.5t57.5 49.5l3 -3q-42 -61 -68.5 -84.5t-51.5 -23.5zM370 -15q-22 0 -33.5 14.5t-7.5 34.5l77 363q14 59 -32 59q-49 0 -110 -75t-79 -160
l-49 -221h-87l95 437h-4l-84 -69l-4 4q33 66 70 97.5t85 31.5h27l-31 -171h3q103 186 215 186q45 0 64.5 -31.5t8.5 -82.5l-75 -354h4l83 69l3 -3q-27 -58 -65.5 -93.5t-73.5 -35.5z" />
    <glyph glyph-name="ograve" unicode="&#xf2;" horiz-adv-x="455" 
d="M191 738h80l31 -180h-5l-106 175v5zM170 -15q-70 0 -109.5 49t-39.5 135q0 137 80 242t185 105q69 0 108.5 -49t39.5 -136q0 -136 -80 -241t-184 -105zM173 12q41 0 81.5 53t66 136.5t25.5 166.5q0 120 -64 120q-62 0 -118 -114.5t-56 -241.5q0 -120 65 -120z" />
    <glyph glyph-name="oacute" unicode="&#xf3;" horiz-adv-x="455" 
d="M300 558h-4l102 180h90v-5zM170 -15q-70 0 -109.5 49t-39.5 135q0 137 80 242t185 105q69 0 108.5 -49t39.5 -136q0 -136 -80 -241t-184 -105zM173 12q41 0 81.5 53t66 136.5t25.5 166.5q0 120 -64 120q-62 0 -118 -114.5t-56 -241.5q0 -120 65 -120z" />
    <glyph glyph-name="ocircumflex" unicode="&#xf4;" horiz-adv-x="455" 
d="M324 745h26l75 -178l-3 -2l-94 109h-4l-148 -109l-2 2zM170 -15q-70 0 -109.5 49t-39.5 135q0 137 80 242t185 105q69 0 108.5 -49t39.5 -136q0 -136 -80 -241t-184 -105zM173 12q41 0 81.5 53t66 136.5t25.5 166.5q0 120 -64 120q-62 0 -118 -114.5t-56 -241.5
q0 -120 65 -120z" />
    <glyph glyph-name="otilde" unicode="&#xf5;" horiz-adv-x="455" 
d="M376 603q-24 0 -69 27.5t-69 27.5q-19 0 -39.5 -12.5t-58.5 -49.5l-3 3q43 61 70 84.5t51 23.5t69 -27.5t70 -27.5q19 0 38.5 12.5t57.5 49.5l3 -3q-42 -61 -68.5 -84.5t-51.5 -23.5zM170 -15q-70 0 -109.5 49t-39.5 135q0 137 80 242t185 105q69 0 108.5 -49t39.5 -136
q0 -136 -80 -241t-184 -105zM173 12q41 0 81.5 53t66 136.5t25.5 166.5q0 120 -64 120q-62 0 -118 -114.5t-56 -241.5q0 -120 65 -120z" />
    <glyph glyph-name="odieresis" unicode="&#xf6;" horiz-adv-x="455" 
d="M229 613q-17 0 -27 9.5t-10 25.5q0 20 14.5 34.5t35.5 14.5q17 0 27 -9.5t10 -25.5q0 -20 -14.5 -34.5t-35.5 -14.5zM393 613q-17 0 -27 9.5t-10 25.5q0 20 15 34.5t36 14.5q36 0 36 -35q0 -20 -14.5 -34.5t-35.5 -14.5zM170 -15q-70 0 -109.5 49t-39.5 135q0 137 80 242
t185 105q69 0 108.5 -49t39.5 -136q0 -136 -80 -241t-184 -105zM173 12q41 0 81.5 53t66 136.5t25.5 166.5q0 120 -64 120q-62 0 -118 -114.5t-56 -241.5q0 -120 65 -120z" />
    <glyph glyph-name="divide" unicode="&#xf7;" horiz-adv-x="423" 
d="M243 374q-22 0 -35.5 12.5t-13.5 34.5q0 28 18.5 43t44.5 15q48 0 48 -46q0 -28 -18.5 -43.5t-43.5 -15.5zM408 252h-384v41h384v-41zM178 72q-22 0 -35.5 12.5t-13.5 34.5q0 28 18.5 43t44.5 15q48 0 48 -46q0 -28 -18.5 -43.5t-43.5 -15.5z" />
    <glyph glyph-name="oslash" unicode="&#xf8;" horiz-adv-x="455" 
d="M87 10l-40 -59l-24 17l41 61q-43 49 -43 140q0 137 80 242t185 105q51 0 88 -28l42 62l24 -17l-45 -67q39 -48 39 -135q0 -136 -80 -241t-184 -105q-49 0 -83 25zM108 132q0 -13 2 -35l228 338q-14 53 -56 53q-62 0 -118 -114.5t-56 -241.5zM173 12q41 0 81.5 53
t66 136.5t25.5 166.5q0 17 -1 25l-226 -336q15 -45 54 -45z" />
    <glyph glyph-name="ugrave" unicode="&#xf9;" horiz-adv-x="553" 
d="M251 738h80l31 -180h-5l-106 175v5zM375 -15q-22 0 -33.5 14.5t-7.5 34.5l33 137h-4q-99 -186 -215 -186q-43 0 -63.5 31.5t-9.5 82.5l72 338h-4l-84 -69l-4 4q33 66 70 97.5t85 31.5h37l-84 -397q-11 -59 32 -59q49 0 111 74.5t80 158.5l48 223h86l-97 -453h3l83 69
l4 -3q-27 -58 -65 -93.5t-73 -35.5z" />
    <glyph glyph-name="uacute" unicode="&#xfa;" horiz-adv-x="553" 
d="M360 558h-4l102 180h90v-5zM375 -15q-22 0 -33.5 14.5t-7.5 34.5l33 137h-4q-99 -186 -215 -186q-43 0 -63.5 31.5t-9.5 82.5l72 338h-4l-84 -69l-4 4q33 66 70 97.5t85 31.5h37l-84 -397q-11 -59 32 -59q49 0 111 74.5t80 158.5l48 223h86l-97 -453h3l83 69l4 -3
q-27 -58 -65 -93.5t-73 -35.5z" />
    <glyph glyph-name="ucircumflex" unicode="&#xfb;" horiz-adv-x="553" 
d="M384 745h26l75 -178l-3 -2l-94 109h-4l-148 -109l-2 2zM375 -15q-22 0 -33.5 14.5t-7.5 34.5l33 137h-4q-99 -186 -215 -186q-43 0 -63.5 31.5t-9.5 82.5l72 338h-4l-84 -69l-4 4q33 66 70 97.5t85 31.5h37l-84 -397q-11 -59 32 -59q49 0 111 74.5t80 158.5l48 223h86
l-97 -453h3l83 69l4 -3q-27 -58 -65 -93.5t-73 -35.5z" />
    <glyph glyph-name="udieresis" unicode="&#xfc;" horiz-adv-x="553" 
d="M289 613q-17 0 -27 9.5t-10 25.5q0 20 14.5 34.5t35.5 14.5q17 0 27 -9.5t10 -25.5q0 -20 -14.5 -34.5t-35.5 -14.5zM453 613q-17 0 -27 9.5t-10 25.5q0 20 15 34.5t36 14.5q36 0 36 -35q0 -20 -14.5 -34.5t-35.5 -14.5zM375 -15q-22 0 -33.5 14.5t-7.5 34.5l33 137h-4
q-99 -186 -215 -186q-43 0 -63.5 31.5t-9.5 82.5l72 338h-4l-84 -69l-4 4q33 66 70 97.5t85 31.5h37l-84 -397q-11 -59 32 -59q49 0 111 74.5t80 158.5l48 223h86l-97 -453h3l83 69l4 -3q-27 -58 -65 -93.5t-73 -35.5z" />
    <glyph glyph-name="yacute" unicode="&#xfd;" horiz-adv-x="456" 
d="M296 558h-4l102 180h90v-5zM-22 -200q-33 0 -54 15.5t-21 42.5q0 32 30 38l113 -49q23 8 57 39.5t59 68.5l-51 494h-4l-78 -26l-3 4q30 36 73.5 60t82.5 24h9l44 -462l79 140q73 126 73 206q0 39 -22 60t-62 21h-9l-2 4q45 36 94 36q35 0 55.5 -21t20.5 -58
q0 -38 -27.5 -96t-89.5 -155l-107 -177q-134 -209 -260 -209z" />
    <glyph glyph-name="thorn" unicode="&#xfe;" horiz-adv-x="491" 
d="M172 -15q-9 0 -26 2t-21 2l-30 -144l46 -40l-1 -5h-182l1 5l49 40l120 573q-64 -42 -127 -117l-3 3q46 94 139 158l49 232l-68 28l1 5l161 43h9l-55 -264q31 10 68 10q76 0 122 -47.5t46 -127.5q0 -81 -45.5 -164.5t-115.5 -137.5t-137 -54zM261 463q-21 0 -37 -4
l-87 -415l92 -23q62 32 108.5 121t46.5 175q0 68 -33 107t-90 39z" />
    <glyph glyph-name="ydieresis" unicode="&#xff;" horiz-adv-x="456" 
d="M225 613q-17 0 -27 9.5t-10 25.5q0 20 14.5 34.5t35.5 14.5q17 0 27 -9.5t10 -25.5q0 -20 -14.5 -34.5t-35.5 -14.5zM389 613q-17 0 -27 9.5t-10 25.5q0 20 15 34.5t36 14.5q36 0 36 -35q0 -20 -14.5 -34.5t-35.5 -14.5zM-22 -200q-33 0 -54 15.5t-21 42.5q0 32 30 38
l113 -49q23 8 57 39.5t59 68.5l-51 494h-4l-78 -26l-3 4q30 36 73.5 60t82.5 24h9l44 -462l79 140q73 126 73 206q0 39 -22 60t-62 21h-9l-2 4q45 36 94 36q35 0 55.5 -21t20.5 -58q0 -38 -27.5 -96t-89.5 -155l-107 -177q-134 -209 -260 -209z" />
    <glyph glyph-name="Amacron" unicode="&#x100;" horiz-adv-x="609" 
d="M589 793h-257l8 34h256zM542 4l-1 -4h-168l1 4l55 44l-12 154h-270l-87 -136l64 -62l-1 -4h-162l1 4l42 45l377 575l-9 72l1 4h99l53 -652zM415 237l-26 341l-219 -341h245z" />
    <glyph glyph-name="amacron" unicode="&#x101;" 
d="M497 638h-257l8 34h256zM100 -15q-79 0 -79 125q0 99 47 193.5t122.5 153.5t153.5 59q53 0 88 -24l77 43l3 -2l-47 -131l-75 -354h3l84 69l3 -3q-27 -58 -65 -93.5t-73 -35.5q-22 0 -34 15.5t-7 37.5l45 200h-4q-50 -108 -119 -180.5t-123 -72.5zM108 132q0 -88 40 -88
q49 0 126.5 116t100.5 222l14 69l-101 32q-71 -33 -125.5 -141t-54.5 -210z" />
    <glyph glyph-name="Abreve" unicode="&#x102;" horiz-adv-x="609" 
d="M433 745q-52 0 -81.5 25.5t-29.5 69.5q0 20 4 35h4q7 -85 108 -85q102 0 144 85h4q-13 -63 -52.5 -96.5t-100.5 -33.5zM542 4l-1 -4h-168l1 4l55 44l-12 154h-270l-87 -136l64 -62l-1 -4h-162l1 4l42 45l377 575l-9 72l1 4h99l53 -652zM415 237l-26 341l-219 -341h245z
" />
    <glyph glyph-name="abreve" unicode="&#x103;" 
d="M360 581q-50 0 -79.5 28.5t-29.5 74.5q0 22 6 48h4q5 -104 105 -104q96 0 147 104h4q-16 -73 -57 -112t-100 -39zM100 -15q-79 0 -79 125q0 99 47 193.5t122.5 153.5t153.5 59q53 0 88 -24l77 43l3 -2l-47 -131l-75 -354h3l84 69l3 -3q-27 -58 -65 -93.5t-73 -35.5
q-22 0 -34 15.5t-7 37.5l45 200h-4q-50 -108 -119 -180.5t-123 -72.5zM108 132q0 -88 40 -88q49 0 126.5 116t100.5 222l14 69l-101 32q-71 -33 -125.5 -141t-54.5 -210z" />
    <glyph glyph-name="Aogonek" unicode="&#x104;" horiz-adv-x="609" 
d="M474 -147l3 -3q-29 -50 -87 -50q-36 0 -60 19t-24 47q0 24 13 43l114 97l-15 196h-271l-87 -136l64 -62l-1 -4h-162l1 4l42 45l377 575l-9 72l1 4h99l53 -652l17 -44l-1 -4h-90q-45 -42 -62 -67t-17 -49q0 -22 13.5 -36t37.5 -14q29 0 51 19zM415 237l-26 341l-219 -341
h245z" />
    <glyph glyph-name="aogonek" unicode="&#x105;" 
d="M100 -15q-79 0 -79 125q0 99 47 193.5t122.5 153.5t153.5 59q53 0 88 -24l77 43l3 -2l-47 -131l-75 -354h3l84 69l3 -3q-35 -73 -81 -107q-50 -47 -68 -73t-18 -50q0 -22 13.5 -36t37.5 -14q29 0 51 19l3 -3q-29 -50 -87 -50q-36 0 -60 19t-24 47q0 24 13 43l89 76h-7
q-22 0 -34 15.5t-7 37.5l45 200h-4q-50 -108 -119 -180.5t-123 -72.5zM108 132q0 -88 40 -88q49 0 126.5 116t100.5 222l14 69l-101 32q-71 -33 -125.5 -141t-54.5 -210z" />
    <glyph glyph-name="Cacute" unicode="&#x106;" horiz-adv-x="610" 
d="M427 745h-5l80 130h90v-5zM309 -15q-113 0 -181.5 79.5t-68.5 210.5q0 186 117 313t287 127q115 0 168 -43l-23 -106h-5l-119 107q-26 8 -52 8q-108 0 -190.5 -122.5t-82.5 -283.5q0 -115 47 -177.5t133 -62.5q143 0 236 173l4 -3q-23 -99 -96.5 -159.5t-173.5 -60.5z
" />
    <glyph glyph-name="cacute" unicode="&#x107;" horiz-adv-x="373" 
d="M295 558h-4l102 180h90v-5zM146 -15q-60 0 -92.5 40t-32.5 116q0 87 41 175t106 144t131 56q86 0 86 -48q0 -15 -9.5 -27.5t-24.5 -15.5l-100 57q-57 -26 -101 -121.5t-44 -193.5q0 -120 72 -120q76 0 155 130l4 -2q-58 -190 -191 -190z" />
    <glyph glyph-name="Ccircumflex" unicode="&#x108;" horiz-adv-x="610" 
d="M439 875h28l85 -128l-4 -2l-100 78h-4l-142 -78l-2 2zM309 -15q-113 0 -181.5 79.5t-68.5 210.5q0 186 117 313t287 127q115 0 168 -43l-23 -106h-5l-119 107q-26 8 -52 8q-108 0 -190.5 -122.5t-82.5 -283.5q0 -115 47 -177.5t133 -62.5q143 0 236 173l4 -3
q-23 -99 -96.5 -159.5t-173.5 -60.5z" />
    <glyph glyph-name="ccircumflex" unicode="&#x109;" horiz-adv-x="373" 
d="M320 745h26l75 -178l-3 -2l-94 109h-4l-148 -109l-2 2zM146 -15q-60 0 -92.5 40t-32.5 116q0 87 41 175t106 144t131 56q86 0 86 -48q0 -15 -9.5 -27.5t-24.5 -15.5l-100 57q-57 -26 -101 -121.5t-44 -193.5q0 -120 72 -120q76 0 155 130l4 -2q-58 -190 -191 -190z" />
    <glyph glyph-name="Cdotaccent" unicode="&#x10a;" horiz-adv-x="610" 
d="M430 758q-20 0 -32.5 12t-12.5 31q0 24 18 41.5t43 17.5q20 0 32.5 -11.5t12.5 -31.5q0 -24 -17.5 -41.5t-43.5 -17.5zM309 -15q-113 0 -181.5 79.5t-68.5 210.5q0 186 117 313t287 127q115 0 168 -43l-23 -106h-5l-119 107q-26 8 -52 8q-108 0 -190.5 -122.5
t-82.5 -283.5q0 -115 47 -177.5t133 -62.5q143 0 236 173l4 -3q-23 -99 -96.5 -159.5t-173.5 -60.5z" />
    <glyph glyph-name="cdotaccent" unicode="&#x10b;" horiz-adv-x="373" 
d="M306 604q-20 0 -32.5 12t-12.5 31q0 24 18 41.5t43 17.5q20 0 32.5 -11.5t12.5 -31.5q0 -24 -17.5 -41.5t-43.5 -17.5zM146 -15q-60 0 -92.5 40t-32.5 116q0 87 41 175t106 144t131 56q86 0 86 -48q0 -15 -9.5 -27.5t-24.5 -15.5l-100 57q-57 -26 -101 -121.5t-44 -193.5
q0 -120 72 -120q76 0 155 130l4 -2q-58 -190 -191 -190z" />
    <glyph glyph-name="Ccaron" unicode="&#x10c;" horiz-adv-x="610" 
d="M440 745h-29l-84 128l3 2l100 -78h4l142 78l2 -2zM309 -15q-113 0 -181.5 79.5t-68.5 210.5q0 186 117 313t287 127q115 0 168 -43l-23 -106h-5l-119 107q-26 8 -52 8q-108 0 -190.5 -122.5t-82.5 -283.5q0 -115 47 -177.5t133 -62.5q143 0 236 173l4 -3
q-23 -99 -96.5 -159.5t-173.5 -60.5z" />
    <glyph glyph-name="ccaron" unicode="&#x10d;" horiz-adv-x="373" 
d="M310 565h-32l-72 178l3 2l94 -109h4l148 109l3 -2zM146 -15q-60 0 -92.5 40t-32.5 116q0 87 41 175t106 144t131 56q86 0 86 -48q0 -15 -9.5 -27.5t-24.5 -15.5l-100 57q-57 -26 -101 -121.5t-44 -193.5q0 -120 72 -120q76 0 155 130l4 -2q-58 -190 -191 -190z" />
    <glyph glyph-name="Dcaron" unicode="&#x10e;" horiz-adv-x="703" 
d="M410 745h-29l-84 128l3 2l100 -78h4l142 78l2 -2zM686 398q0 -176 -120.5 -287t-347.5 -111h-197l1 4l50 44l129 604l-38 44l1 4h278q105 -21 174.5 -107.5t69.5 -194.5zM301 672l-136 -639h47q176 0 275.5 95.5t99.5 258.5q0 119 -79.5 198.5t-206.5 86.5z" />
    <glyph glyph-name="dcaron" unicode="&#x10f;" horiz-adv-x="592" 
d="M100 -15q-79 0 -79 125q0 98 47 193t122.5 154t153.5 59q32 0 57 -9l40 187l-68 28l1 5l160 43h10l-154 -722h3l84 69l3 -4q-27 -58 -65 -93t-73 -35q-22 0 -34 15.5t-7 37.5l45 200h-4q-50 -108 -119 -180.5t-123 -72.5zM550 569h-4l82 201h83l-1 -5zM108 132
q0 -88 40 -88q31 0 79.5 54.5t90.5 135t57 148.5l15 69l-102 32q-71 -34 -125.5 -140.5t-54.5 -210.5z" />
    <glyph glyph-name="Dcroat" unicode="&#x110;" horiz-adv-x="703" 
d="M135 342h-42l7 34h42l59 276l-38 44l1 4h278q105 -21 174.5 -107.5t69.5 -194.5q0 -176 -120.5 -287t-347.5 -111h-197l1 4l50 44zM393 376l-7 -34h-155l-66 -309h47q176 0 275.5 95.5t99.5 258.5q0 119 -79.5 198.5t-206.5 86.5l-63 -296h155z" />
    <glyph glyph-name="dslash" unicode="&#x111;" horiz-adv-x="531" 
d="M100 -15q-79 0 -79 125q0 98 47 193t122.5 154t153.5 59q32 0 57 -9l17 76h-145l7 29h144l17 82l-68 28l1 5l160 43h10l-34 -158h58l-7 -29h-57l-114 -535h3l84 69l3 -4q-27 -58 -65 -93t-73 -35q-22 0 -34 15.5t-7 37.5l45 200h-4q-50 -108 -119 -180.5t-123 -72.5z
M108 132q0 -88 40 -88q31 0 79.5 54.5t90.5 135t57 148.5l15 69l-102 32q-71 -34 -125.5 -140.5t-54.5 -210.5z" />
    <glyph glyph-name="Emacron" unicode="&#x112;" horiz-adv-x="610" 
d="M546 793h-257l8 34h256zM524 129l-27 -129h-476l1 4l50 44l129 604l-38 44l1 4h446l-23 -111h-5l-106 78h-175l-60 -281h175l100 58h5l-32 -151h-5l-77 59h-174l-67 -319h205l149 96h4z" />
    <glyph glyph-name="emacron" unicode="&#x113;" horiz-adv-x="401" 
d="M457 638h-257l8 34h256zM147 -15q-59 0 -92.5 39t-33.5 111q0 90 42 179.5t108.5 145.5t133.5 56q42 0 66 -22t24 -58q0 -119 -280 -188q-9 -40 -9 -81q0 -120 76 -120q88 0 176 156l4 -2q-29 -104 -87.5 -160t-127.5 -56zM277 484q-45 0 -90 -63.5t-67 -150.5
q105 29 154.5 67t49.5 90q0 27 -12.5 42t-34.5 15z" />
    <glyph glyph-name="Ebreve" unicode="&#x114;" horiz-adv-x="610" 
d="M390 745q-52 0 -81.5 25.5t-29.5 69.5q0 20 4 35h4q7 -85 108 -85q102 0 144 85h4q-13 -63 -52.5 -96.5t-100.5 -33.5zM524 129l-27 -129h-476l1 4l50 44l129 604l-38 44l1 4h446l-23 -111h-5l-106 78h-175l-60 -281h175l100 58h5l-32 -151h-5l-77 59h-174l-67 -319h205
l149 96h4z" />
    <glyph glyph-name="ebreve" unicode="&#x115;" horiz-adv-x="401" 
d="M320 581q-50 0 -79.5 28.5t-29.5 74.5q0 22 6 48h4q5 -104 105 -104q96 0 147 104h4q-16 -73 -57 -112t-100 -39zM147 -15q-59 0 -92.5 39t-33.5 111q0 90 42 179.5t108.5 145.5t133.5 56q42 0 66 -22t24 -58q0 -119 -280 -188q-9 -40 -9 -81q0 -120 76 -120
q88 0 176 156l4 -2q-29 -104 -87.5 -160t-127.5 -56zM277 484q-45 0 -90 -63.5t-67 -150.5q105 29 154.5 67t49.5 90q0 27 -12.5 42t-34.5 15z" />
    <glyph glyph-name="Edotaccent" unicode="&#x116;" horiz-adv-x="610" 
d="M402 758q-20 0 -32.5 12t-12.5 31q0 24 18 41.5t43 17.5q20 0 32.5 -11.5t12.5 -31.5q0 -24 -17.5 -41.5t-43.5 -17.5zM524 129l-27 -129h-476l1 4l50 44l129 604l-38 44l1 4h446l-23 -111h-5l-106 78h-175l-60 -281h175l100 58h5l-32 -151h-5l-77 59h-174l-67 -319h205
l149 96h4z" />
    <glyph glyph-name="edotaccent" unicode="&#x117;" horiz-adv-x="401" 
d="M323 604q-20 0 -32.5 12t-12.5 31q0 24 18 41.5t43 17.5q20 0 32.5 -11.5t12.5 -31.5q0 -24 -17.5 -41.5t-43.5 -17.5zM147 -15q-59 0 -92.5 39t-33.5 111q0 90 42 179.5t108.5 145.5t133.5 56q42 0 66 -22t24 -58q0 -119 -280 -188q-9 -40 -9 -81q0 -120 76 -120
q88 0 176 156l4 -2q-29 -104 -87.5 -160t-127.5 -56zM277 484q-45 0 -90 -63.5t-67 -150.5q105 29 154.5 67t49.5 90q0 27 -12.5 42t-34.5 15z" />
    <glyph glyph-name="Eogonek" unicode="&#x118;" horiz-adv-x="610" 
d="M462 -147l3 -3q-29 -50 -87 -50q-36 0 -60 19t-24 47q0 24 13 43l106 91h-392l1 4l50 44l129 604l-38 44l1 4h446l-23 -111h-5l-106 78h-175l-60 -281h175l100 58h5l-32 -151h-5l-77 59h-174l-67 -319h205l149 96h4l-27 -129h-58q-45 -42 -62 -67t-17 -49q0 -22 13.5 -36
t37.5 -14q29 0 51 19z" />
    <glyph glyph-name="eogonek" unicode="&#x119;" horiz-adv-x="401" 
d="M171 -200q-36 0 -60 19t-24 47q0 24 13 43l98 83l-3 3q-16 -10 -51 -10q-56 0 -88.5 40t-32.5 111q0 90 42 179t108.5 145t133.5 56q42 0 66 -22t24 -58q0 -119 -280 -188q-9 -40 -9 -81q0 -120 76 -120q88 0 176 156l4 -2q-31 -110 -115 -185q-56 -50 -76 -77.5
t-20 -52.5q0 -24 13.5 -38t37.5 -14q28 0 51 19l3 -3q-27 -50 -87 -50zM279 484q-45 0 -90 -63.5t-67 -150.5q105 29 154.5 67t49.5 90q0 27 -12.5 42t-34.5 15z" />
    <glyph glyph-name="Ecaron" unicode="&#x11a;" horiz-adv-x="610" 
d="M412 745h-29l-84 128l3 2l100 -78h4l142 78l2 -2zM524 129l-27 -129h-476l1 4l50 44l129 604l-38 44l1 4h446l-23 -111h-5l-106 78h-175l-60 -281h175l100 58h5l-32 -151h-5l-77 59h-174l-67 -319h205l149 96h4z" />
    <glyph glyph-name="ecaron" unicode="&#x11b;" horiz-adv-x="401" 
d="M328 565h-32l-72 178l3 2l94 -109h4l148 109l3 -2zM147 -15q-59 0 -92.5 39t-33.5 111q0 90 42 179.5t108.5 145.5t133.5 56q42 0 66 -22t24 -58q0 -119 -280 -188q-9 -40 -9 -81q0 -120 76 -120q88 0 176 156l4 -2q-29 -104 -87.5 -160t-127.5 -56zM277 484
q-45 0 -90 -63.5t-67 -150.5q105 29 154.5 67t49.5 90q0 27 -12.5 42t-34.5 15z" />
    <glyph glyph-name="Gcircumflex" unicode="&#x11c;" horiz-adv-x="704" 
d="M466 875h28l85 -128l-4 -2l-100 78h-4l-142 -78l-2 2zM363 -15q-131 0 -214 89.5t-83 228.5q0 177 124 294.5t309 117.5q58 0 116 -16t84 -36l-22 -107h-5l-128 118q-26 8 -63 8q-133 0 -224 -104.5t-91 -256.5q0 -129 72 -213.5t181 -84.5q27 0 50 6l70 329l-37 44l1 4
h184l-1 -4l-51 -44l-80 -372h-5l-58 33h-4q-60 -34 -125 -34z" />
    <glyph glyph-name="gcircumflex" unicode="&#x11d;" horiz-adv-x="476" 
d="M342 745h26l75 -178l-3 -2l-94 109h-4l-148 -109l-2 2zM168 -200q-98 0 -162 41t-64 103q0 35 18 53l137 67q-76 29 -76 85v14l107 61q-35 32 -35 86q0 81 64.5 143.5t149.5 62.5q41 0 71 -15l133 11h4l-7 -58h-5l-112 31v-5q15 -9 25.5 -33.5t10.5 -53.5
q0 -77 -63 -137.5t-145 -60.5q-42 0 -73 16l-52 -30q0 -28 35.5 -44t86 -24.5t100.5 -20.5t85.5 -41t35.5 -76q0 -71 -79.5 -123t-189.5 -52zM224 221q45 0 82.5 61t37.5 133q0 74 -47 74q-45 0 -83.5 -61t-38.5 -132q0 -75 49 -75zM10 -41q0 -52 56 -87.5t137 -35.5
q73 0 121.5 29.5t48.5 72.5q0 25 -15 42.5t-44 28.5t-57 17.5t-69 14.5t-65 15l-23 -12q-54 -25 -72 -42t-18 -43z" />
    <glyph glyph-name="Gbreve" unicode="&#x11e;" horiz-adv-x="704" 
d="M445 745q-52 0 -81.5 25.5t-29.5 69.5q0 20 4 35h4q7 -85 108 -85q102 0 144 85h4q-13 -63 -52.5 -96.5t-100.5 -33.5zM363 -15q-131 0 -214 89.5t-83 228.5q0 177 124 294.5t309 117.5q58 0 116 -16t84 -36l-22 -107h-5l-128 118q-26 8 -63 8q-133 0 -224 -104.5
t-91 -256.5q0 -129 72 -213.5t181 -84.5q27 0 50 6l70 329l-37 44l1 4h184l-1 -4l-51 -44l-80 -372h-5l-58 33h-4q-60 -34 -125 -34z" />
    <glyph glyph-name="gbreve" unicode="&#x11f;" horiz-adv-x="476" 
d="M325 581q-50 0 -79.5 28.5t-29.5 74.5q0 22 6 48h4q5 -104 105 -104q96 0 147 104h4q-16 -73 -57 -112t-100 -39zM168 -200q-98 0 -162 41t-64 103q0 35 18 53l137 67q-76 29 -76 85v14l107 61q-35 32 -35 86q0 81 64.5 143.5t149.5 62.5q41 0 71 -15l133 11h4l-7 -58h-5
l-112 31v-5q15 -9 25.5 -33.5t10.5 -53.5q0 -77 -63 -137.5t-145 -60.5q-42 0 -73 16l-52 -30q0 -28 35.5 -44t86 -24.5t100.5 -20.5t85.5 -41t35.5 -76q0 -71 -79.5 -123t-189.5 -52zM224 221q45 0 82.5 61t37.5 133q0 74 -47 74q-45 0 -83.5 -61t-38.5 -132q0 -75 49 -75z
M10 -41q0 -52 56 -87.5t137 -35.5q73 0 121.5 29.5t48.5 72.5q0 25 -15 42.5t-44 28.5t-57 17.5t-69 14.5t-65 15l-23 -12q-54 -25 -72 -42t-18 -43z" />
    <glyph glyph-name="Gdotaccent" unicode="&#x120;" horiz-adv-x="704" 
d="M457 758q-20 0 -32.5 12t-12.5 31q0 24 18 41.5t43 17.5q20 0 32.5 -11.5t12.5 -31.5q0 -24 -17.5 -41.5t-43.5 -17.5zM363 -15q-131 0 -214 89.5t-83 228.5q0 177 124 294.5t309 117.5q58 0 116 -16t84 -36l-22 -107h-5l-128 118q-26 8 -63 8q-133 0 -224 -104.5
t-91 -256.5q0 -129 72 -213.5t181 -84.5q27 0 50 6l70 329l-37 44l1 4h184l-1 -4l-51 -44l-80 -372h-5l-58 33h-4q-60 -34 -125 -34z" />
    <glyph glyph-name="gdotaccent" unicode="&#x121;" horiz-adv-x="476" 
d="M327 604q-20 0 -32.5 12t-12.5 31q0 24 18 41.5t43 17.5q20 0 32.5 -11.5t12.5 -31.5q0 -24 -17.5 -41.5t-43.5 -17.5zM168 -200q-98 0 -162 41t-64 103q0 35 18 53l137 67q-76 29 -76 85v14l107 61q-35 32 -35 86q0 81 64.5 143.5t149.5 62.5q41 0 71 -15l133 11h4
l-7 -58h-5l-112 31v-5q15 -9 25.5 -33.5t10.5 -53.5q0 -77 -63 -137.5t-145 -60.5q-42 0 -73 16l-52 -30q0 -28 35.5 -44t86 -24.5t100.5 -20.5t85.5 -41t35.5 -76q0 -71 -79.5 -123t-189.5 -52zM224 221q45 0 82.5 61t37.5 133q0 74 -47 74q-45 0 -83.5 -61t-38.5 -132
q0 -75 49 -75zM10 -41q0 -52 56 -87.5t137 -35.5q73 0 121.5 29.5t48.5 72.5q0 25 -15 42.5t-44 28.5t-57 17.5t-69 14.5t-65 15l-23 -12q-54 -25 -72 -42t-18 -43z" />
    <glyph glyph-name="Gcommaaccent" unicode="&#x122;" horiz-adv-x="704" 
d="M363 -15q-131 0 -214 89.5t-83 228.5q0 177 124 294.5t309 117.5q58 0 116 -16t84 -36l-22 -107h-5l-128 118q-26 8 -63 8q-133 0 -224 -104.5t-91 -256.5q0 -129 72 -213.5t181 -84.5q27 0 50 6l70 329l-37 44l1 4h184l-1 -4l-51 -44l-80 -372h-5l-58 33h-4
q-60 -34 -125 -34zM308 -200l-1 4q20 11 40 34q20 22 25 39v4l-58 14q-5 5 -5 14q0 19 16 31.5t38 12.5q25 0 42.5 -16t17.5 -40q0 -31 -32 -58.5t-83 -38.5z" />
    <glyph glyph-name="gcommaaccent" unicode="&#x123;" horiz-adv-x="476" 
d="M392 739l1 -4q-19 -12 -39.5 -34t-25.5 -39v-4l58 -14q5 -5 5 -14q0 -19 -15.5 -31.5t-38.5 -12.5q-25 0 -42.5 16t-17.5 40q0 32 32 59.5t83 37.5zM168 -200q-98 0 -162 41t-64 103q0 35 18 53l137 67q-76 29 -76 85v14l107 61q-35 32 -35 86q0 81 64.5 143.5
t149.5 62.5q41 0 71 -15l133 11h4l-7 -58h-5l-112 31v-5q15 -9 25.5 -33.5t10.5 -53.5q0 -77 -63 -137.5t-145 -60.5q-42 0 -73 16l-52 -30q0 -28 35.5 -44t86 -24.5t100.5 -20.5t85.5 -41t35.5 -76q0 -71 -79.5 -123t-189.5 -52zM224 221q45 0 82.5 61t37.5 133
q0 74 -47 74q-45 0 -83.5 -61t-38.5 -132q0 -75 49 -75zM10 -41q0 -52 56 -87.5t137 -35.5q73 0 121.5 29.5t48.5 72.5q0 25 -15 42.5t-44 28.5t-57 17.5t-69 14.5t-65 15l-23 -12q-54 -25 -72 -42t-18 -43z" />
    <glyph glyph-name="Hcircumflex" unicode="&#x124;" horiz-adv-x="751" 
d="M493 875h28l85 -128l-4 -2l-100 78h-4l-142 -78l-2 2zM205 0h-184l1 4l50 44l129 604l-38 44l1 4h184l-1 -4l-50 -44l-59 -279h326l60 279l-37 44l1 4h184l-1 -4l-50 -44l-129 -604l37 -44l-1 -4h-184l1 4l51 44l61 289h-326l-63 -289l38 -44z" />
    <glyph glyph-name="hcircumflex" unicode="&#x125;" horiz-adv-x="542" 
d="M231 999h26l75 -178l-3 -2l-94 109h-4l-148 -109l-2 2zM175 221l-49 -221h-87l150 694l-68 28l1 5l161 43h9l-98 -437h4q100 183 213 183q45 0 64.5 -31.5t8.5 -82.5l-75 -354h4l83 69l3 -3q-27 -58 -65.5 -93.5t-73.5 -35.5q-22 0 -33.5 14.5t-7.5 34.5l77 363
q12 59 -32 59q-49 0 -110 -75t-79 -160z" />
    <glyph glyph-name="Hbar" unicode="&#x126;" horiz-adv-x="751" 
d="M205 0h-184l1 4l50 44l97 453h-44l7 34h44l25 117l-38 44l1 4h184l-1 -4l-50 -44l-25 -117h327l25 117l-37 44l1 4h184l-1 -4l-50 -44l-25 -117h42l-8 -34h-41l-97 -453l37 -44l-1 -4h-184l1 4l51 44l61 289h-326l-63 -289l38 -44zM265 501l-27 -128h326l28 128h-327z
" />
    <glyph glyph-name="hbar" unicode="&#x127;" horiz-adv-x="542" 
d="M175 221l-49 -221h-87l126 583h-58l6 29h58l18 82l-68 28l1 5l161 43h9l-35 -158h145l-7 -29h-145l-56 -250h4q100 183 213 183q45 0 64.5 -31.5t8.5 -82.5l-75 -354h4l83 69l3 -3q-27 -58 -65.5 -93.5t-73.5 -35.5q-22 0 -33.5 14.5t-7.5 34.5l77 363q12 59 -32 59
q-49 0 -110 -75t-79 -160z" />
    <glyph glyph-name="Itilde" unicode="&#x128;" horiz-adv-x="328" 
d="M343 760q-23 0 -69 25.5t-70 25.5q-19 0 -38.5 -11.5t-57.5 -46.5l-3 2q46 64 70.5 84.5t48.5 20.5t69 -25.5t70 -25.5q19 0 39.5 11.5t57.5 46.5l2 -2q-44 -63 -69.5 -84t-49.5 -21zM205 4l-1 -4h-183l1 4l50 44l129 604l-38 44l1 4h185l-1 -4l-51 -44l-129 -604z" />
    <glyph glyph-name="itilde" unicode="&#x129;" horiz-adv-x="287" 
d="M292 603q-24 0 -69 27.5t-69 27.5q-19 0 -39.5 -12.5t-58.5 -49.5l-3 3q43 61 70 84.5t51 23.5t69 -27.5t70 -27.5q19 0 38.5 12.5t57.5 49.5l3 -3q-42 -61 -68.5 -84.5t-51.5 -23.5zM98 -15q-22 0 -33.5 14.5t-7.5 34.5l86 403h-5l-84 -70l-2 5q62 129 154 129h36
l-95 -453h3l84 69l3 -3q-27 -58 -65.5 -93.5t-73.5 -35.5z" />
    <glyph glyph-name="Imacron" unicode="&#x12a;" horiz-adv-x="328" 
d="M418 793h-257l8 34h256zM205 4l-1 -4h-183l1 4l50 44l129 604l-38 44l1 4h185l-1 -4l-51 -44l-129 -604z" />
    <glyph glyph-name="imacron" unicode="&#x12b;" horiz-adv-x="287" 
d="M359 638h-257l8 34h256zM98 -15q-22 0 -33.5 14.5t-7.5 34.5l86 403h-5l-84 -70l-2 5q62 129 154 129h36l-95 -453h3l84 69l3 -3q-27 -58 -65.5 -93.5t-73.5 -35.5z" />
    <glyph glyph-name="Ibreve" unicode="&#x12c;" horiz-adv-x="328" 
d="M262 745q-52 0 -81.5 25.5t-29.5 69.5q0 20 4 35h4q7 -85 108 -85q102 0 144 85h4q-13 -63 -52.5 -96.5t-100.5 -33.5zM205 4l-1 -4h-183l1 4l50 44l129 604l-38 44l1 4h185l-1 -4l-51 -44l-129 -604z" />
    <glyph glyph-name="ibreve" unicode="&#x12d;" horiz-adv-x="287" 
d="M223 581q-50 0 -79.5 28.5t-29.5 74.5q0 22 6 48h4q5 -104 105 -104q96 0 147 104h4q-16 -73 -57 -112t-100 -39zM98 -15q-22 0 -33.5 14.5t-7.5 34.5l86 403h-5l-84 -70l-2 5q62 129 154 129h36l-95 -453h3l84 69l3 -3q-27 -58 -65.5 -93.5t-73.5 -35.5z" />
    <glyph glyph-name="Iogonek" unicode="&#x12e;" horiz-adv-x="328" 
d="M205 4l-1 -4h-82q-45 -42 -62 -67t-17 -49q0 -22 13.5 -36t37.5 -14q29 0 51 19l3 -3q-29 -50 -87 -50q-36 0 -60 19t-24 47q0 24 13 43l106 91h-75l1 4l50 44l129 604l-38 44l1 4h185l-1 -4l-51 -44l-129 -604z" />
    <glyph glyph-name="iogonek" unicode="&#x12f;" horiz-adv-x="287" 
d="M237 656q-48 0 -48 46q0 27 18 44.5t45 17.5q48 0 48 -47q0 -27 -18 -44t-45 -17zM105 -15h-7q-22 0 -33.5 14.5t-7.5 34.5l86 403h-5l-84 -70l-2 5q62 129 154 129h36l-95 -453h3l84 69l3 -3q-34 -73 -82 -107q-50 -47 -68 -73t-18 -50q0 -22 13.5 -36t37.5 -14
q29 0 51 19l3 -3q-29 -50 -87 -50q-36 0 -60 19t-24 47q0 24 13 43z" />
    <glyph glyph-name="Idot" unicode="&#x130;" horiz-adv-x="328" 
d="M274 758q-20 0 -32.5 12t-12.5 31q0 24 18 41.5t43 17.5q20 0 32.5 -11.5t12.5 -31.5q0 -24 -17.5 -41.5t-43.5 -17.5zM205 4l-1 -4h-183l1 4l50 44l129 604l-38 44l1 4h185l-1 -4l-51 -44l-129 -604z" />
    <glyph glyph-name="dotlessi" unicode="&#x131;" horiz-adv-x="287" 
d="M98 -15q-22 0 -33.5 14.5t-7.5 34.5l86 403h-5l-84 -70l-2 5q62 129 154 129h36l-95 -453h3l84 69l3 -3q-27 -58 -65.5 -93.5t-73.5 -35.5z" />
    <glyph glyph-name="IJ" unicode="&#x132;" horiz-adv-x="655" 
d="M205 4l-1 -4h-183l1 4l50 44l129 604l-38 44l1 4h185l-1 -4l-51 -44l-129 -604zM255 -200q-44 0 -89 13l20 96h5l97 -79q30 4 57.5 47.5t40.5 108.5l143 666l-38 44l1 4h184l-1 -4l-50 -44l-132 -618q-50 -234 -238 -234z" />
    <glyph glyph-name="ij" unicode="&#x133;" horiz-adv-x="564" 
d="M237 656q-48 0 -48 46q0 27 18 44.5t45 17.5q48 0 48 -47q0 -27 -18 -44t-45 -17zM524 656q-48 0 -48 46q0 27 18 44.5t45 17.5q48 0 48 -47q0 -27 -18 -44t-45 -17zM98 -15q-22 0 -33.5 14.5t-7.5 34.5l86 403h-5l-84 -70l-2 5q62 129 154 129h36l-95 -453h3l84 69l3 -3
q-27 -58 -65.5 -93.5t-73.5 -35.5zM270 -200q-30 0 -48 12t-18 31q0 15 9.5 28t22.5 14l95 -43l100 595h-4l-84 -69l-3 4q33 67 69.5 98t85.5 31h36l-76 -413q-28 -154 -71.5 -221t-113.5 -67z" />
    <glyph glyph-name="Jcircumflex" unicode="&#x134;" horiz-adv-x="327" 
d="M283 875h28l85 -128l-4 -2l-100 78h-4l-142 -78l-2 2zM-73 -200q-44 0 -89 13l20 96h5l97 -79q30 4 57.5 47.5t40.5 108.5l143 666l-38 44l1 4h184l-1 -4l-50 -44l-132 -618q-49 -234 -238 -234z" />
    <glyph glyph-name="jcircumflex" unicode="&#x135;" horiz-adv-x="277" 
d="M240 745h26l75 -178l-3 -2l-94 109h-4l-148 -109l-2 2zM-17 -200q-30 0 -48 12t-18 31q0 15 9.5 28t22.5 14l95 -43l100 595h-4l-84 -69l-3 4q33 67 69.5 98t85.5 31h36l-76 -413q-28 -154 -71.5 -221t-113.5 -67z" />
    <glyph glyph-name="Kcommaaccent" unicode="&#x136;" horiz-adv-x="665" 
d="M206 4l-1 -4h-184l1 4l50 44l129 604l-38 44l1 4h184l-1 -4l-50 -44l-65 -305l352 287l-43 61l1 5h172l-1 -5l-329 -266l227 -425l-1 -4h-175l1 5l44 43l-171 320l-87 -70l-54 -250zM243 -200l-1 4q20 11 40 34q20 22 25 39v4l-58 14q-5 5 -5 14q0 19 16 31.5t38 12.5
q25 0 42.5 -16t17.5 -40q0 -31 -32 -58.5t-83 -38.5z" />
    <glyph glyph-name="kcommaaccent" unicode="&#x137;" 
d="M150 112l-24 -112h-87l149 694l-67 28l1 5l160 43h9l-96 -439h3q35 87 84.5 136t103.5 49q41 0 65.5 -26t24.5 -69q0 -55 -24 -86l-135 -77l87 -209h4l80 68l4 -2q-19 -61 -50.5 -95.5t-69.5 -34.5q-43 0 -63 56l-71 191v4l81 50q74 47 74 115q0 63 -48 63
q-55 0 -108 -94t-87 -258zM146 -200l-1 4q20 11 40 34q20 22 25 39v4l-58 14q-5 5 -5 14q0 19 16 31.5t38 12.5q25 0 42.5 -16t17.5 -40q0 -31 -32 -58.5t-83 -38.5z" />
    <glyph glyph-name="Lacute" unicode="&#x139;" horiz-adv-x="543" 
d="M271 745h-5l80 130h90v-5zM490 132l-27 -132h-442l1 4l50 44l128 604l-38 44l1 4h184l-1 -4l-49 -44l-131 -619h171l148 99h5z" />
    <glyph glyph-name="lacute" unicode="&#x13a;" horiz-adv-x="281" 
d="M248 800h-5l80 130h90v-5zM93 -15q-22 0 -33.5 14.5t-7.5 35.5l141 659l-68 28l1 5l161 43h9l-154 -722h4l83 69l3 -3q-27 -58 -65 -93.5t-74 -35.5z" />
    <glyph glyph-name="Lcommaaccent" unicode="&#x13b;" horiz-adv-x="543" 
d="M490 132l-27 -132h-442l1 4l50 44l128 604l-38 44l1 4h184l-1 -4l-49 -44l-131 -619h171l148 99h5zM163 -200l-1 4q20 11 40 34q20 22 25 39v4l-58 14q-5 5 -5 14q0 19 16 31.5t38 12.5q25 0 42.5 -16t17.5 -40q0 -31 -32 -58.5t-83 -38.5z" />
    <glyph glyph-name="lcommaaccent" unicode="&#x13c;" horiz-adv-x="281" 
d="M93 -15q-22 0 -33.5 14.5t-7.5 35.5l141 659l-68 28l1 5l161 43h9l-154 -722h4l83 69l3 -3q-27 -58 -65 -93.5t-74 -35.5zM104 -200l-1 4q20 11 40 34q20 22 25 39v4l-58 14q-5 5 -5 14q0 19 16 31.5t38 12.5q25 0 42.5 -16t17.5 -40q0 -31 -32 -58.5t-83 -38.5z" />
    <glyph glyph-name="Lcaron" unicode="&#x13d;" horiz-adv-x="543" 
d="M490 132l-27 -132h-442l1 4l50 44l128 604l-38 44l1 4h184l-1 -4l-49 -44l-131 -619h171l148 99h5zM361 499h-4l82 201h83l-1 -5z" />
    <glyph glyph-name="lcaron" unicode="&#x13e;" horiz-adv-x="342" 
d="M93 -15q-22 0 -33.5 14.5t-7.5 35.5l141 659l-68 28l1 5l161 43h9l-154 -722h4l83 69l3 -3q-27 -58 -65 -93.5t-74 -35.5zM302 569h-4l82 201h83l-1 -5z" />
    <glyph glyph-name="Ldot" unicode="&#x13f;" horiz-adv-x="543" 
d="M490 132l-27 -132h-442l1 4l50 44l128 604l-38 44l1 4h184l-1 -4l-49 -44l-131 -619h171l148 99h5zM458 320q-20 0 -32.5 12t-12.5 31q0 24 18 41.5t43 17.5q20 0 32.5 -11.5t12.5 -31.5q0 -24 -17.5 -41.5t-43.5 -17.5z" />
    <glyph glyph-name="ldot" unicode="&#x140;" horiz-adv-x="411" 
d="M93 -15q-22 0 -33.5 14.5t-7.5 35.5l141 659l-68 28l1 5l161 43h9l-154 -722h4l83 69l3 -3q-27 -58 -65 -93.5t-74 -35.5zM341 214q-20 0 -32.5 12t-12.5 31q0 24 18 41.5t43 17.5q20 0 32.5 -11.5t12.5 -31.5q0 -24 -17.5 -41.5t-43.5 -17.5z" />
    <glyph glyph-name="Lslash" unicode="&#x141;" horiz-adv-x="543" 
d="M121 280l-34 -12l-12 32l54 19l71 333l-38 44l1 4h184l-1 -4l-49 -44l-63 -297l151 52l12 -33l-171 -59l-60 -282h171l148 99h5l-27 -132h-442l1 4l50 44z" />
    <glyph glyph-name="lslash" unicode="&#x142;" horiz-adv-x="281" 
d="M93 -15q-22 0 -33.5 14.5t-7.5 35.5l78 366l-54 -33l-13 24l75 45l55 257l-68 28l1 5l161 43h9l-58 -273l76 46l13 -24l-97 -58l-88 -413h4l83 69l3 -3q-27 -58 -65 -93.5t-74 -35.5z" />
    <glyph glyph-name="Nacute" unicode="&#x143;" horiz-adv-x="709" 
d="M460 745h-5l80 130h90v-5zM684 634l-135 -634h-26l-296 569l-107 -503l54 -62l-1 -4h-152l1 4l54 62l119 559l-47 71l1 4h119l274 -527l98 461l-54 62l1 4h152l-1 -4z" />
    <glyph glyph-name="nacute" unicode="&#x144;" horiz-adv-x="553" 
d="M356 558h-4l102 180h90v-5zM370 -15q-22 0 -33.5 14.5t-7.5 34.5l77 363q14 59 -32 59q-49 0 -110 -75t-79 -160l-49 -221h-87l95 437h-4l-84 -69l-4 4q33 66 70 97.5t85 31.5h27l-31 -171h3q103 186 215 186q45 0 64.5 -31.5t8.5 -82.5l-75 -354h4l83 69l3 -3
q-27 -58 -65.5 -93.5t-73.5 -35.5z" />
    <glyph glyph-name="Ncommaaccent" unicode="&#x145;" horiz-adv-x="709" 
d="M684 634l-135 -634h-26l-296 569l-107 -503l54 -62l-1 -4h-152l1 4l54 62l119 559l-47 71l1 4h119l274 -527l98 461l-54 62l1 4h152l-1 -4zM229 -200l-1 4q20 11 40 34q20 22 25 39v4l-58 14q-5 5 -5 14q0 19 16 31.5t38 12.5q25 0 42.5 -16t17.5 -40q0 -31 -32 -58.5
t-83 -38.5z" />
    <glyph glyph-name="ncommaaccent" unicode="&#x146;" horiz-adv-x="553" 
d="M370 -15q-22 0 -33.5 14.5t-7.5 34.5l77 363q14 59 -32 59q-49 0 -110 -75t-79 -160l-49 -221h-87l95 437h-4l-84 -69l-4 4q33 66 70 97.5t85 31.5h27l-31 -171h3q103 186 215 186q45 0 64.5 -31.5t8.5 -82.5l-75 -354h4l83 69l3 -3q-27 -58 -65.5 -93.5t-73.5 -35.5z
M163 -200l-1 4q20 11 40 34q20 22 25 39v4l-58 14q-5 5 -5 14q0 19 16 31.5t38 12.5q25 0 42.5 -16t17.5 -40q0 -31 -32 -58.5t-83 -38.5z" />
    <glyph glyph-name="Ncaron" unicode="&#x147;" horiz-adv-x="709" 
d="M473 745h-29l-84 128l3 2l100 -78h4l142 78l2 -2zM684 634l-135 -634h-26l-296 569l-107 -503l54 -62l-1 -4h-152l1 4l54 62l119 559l-47 71l1 4h119l274 -527l98 461l-54 62l1 4h152l-1 -4z" />
    <glyph glyph-name="ncaron" unicode="&#x148;" horiz-adv-x="553" 
d="M371 565h-32l-72 178l3 2l94 -109h4l148 109l3 -2zM370 -15q-22 0 -33.5 14.5t-7.5 34.5l77 363q14 59 -32 59q-49 0 -110 -75t-79 -160l-49 -221h-87l95 437h-4l-84 -69l-4 4q33 66 70 97.5t85 31.5h27l-31 -171h3q103 186 215 186q45 0 64.5 -31.5t8.5 -82.5l-75 -354
h4l83 69l3 -3q-27 -58 -65.5 -93.5t-73.5 -35.5z" />
    <glyph glyph-name="Eng" unicode="&#x14a;" horiz-adv-x="707" 
d="M331 -200q-38 0 -83 13l19 96h5l97 -79q43 3 82 57.5t57 137.5v2l-282 542l-107 -503l54 -62l-1 -4h-152l1 4l54 62l119 559l-47 71l1 4h119l274 -527l98 461l-54 62l1 4h153l-1 -4l-55 -62l-106 -499l-22 -101q-53 -234 -224 -234z" />
    <glyph glyph-name="eng" unicode="&#x14b;" horiz-adv-x="533" 
d="M210 -200q-33 0 -53 11.5t-20 30.5q0 17 12 29.5t28 12.5l111 -44l118 557q14 59 -32 59q-49 0 -110 -75t-79 -160l-49 -221h-87l95 437h-4l-84 -69l-4 4q33 66 70 97.5t85 31.5h27l-31 -171h3q103 186 215 186q45 0 64.5 -31.5t8.5 -82.5l-66 -314q-14 -66 -30 -113.5
t-41 -89.5t-62 -63.5t-85 -21.5z" />
    <glyph glyph-name="Omacron" unicode="&#x14c;" horiz-adv-x="696" 
d="M600 793h-257l8 34h256zM306 -15q-115 0 -181 76t-66 209q0 185 109 315t264 130q115 0 181 -76t66 -209q0 -184 -109.5 -314.5t-263.5 -130.5zM319 18q107 0 184 126t77 297q0 113 -43 177t-119 64q-106 0 -183.5 -126t-77.5 -297q0 -113 43 -177t119 -64z" />
    <glyph glyph-name="omacron" unicode="&#x14d;" horiz-adv-x="455" 
d="M444 638h-257l8 34h256zM170 -15q-70 0 -109.5 49t-39.5 135q0 137 80 242t185 105q69 0 108.5 -49t39.5 -136q0 -136 -80 -241t-184 -105zM173 12q41 0 81.5 53t66 136.5t25.5 166.5q0 120 -64 120q-62 0 -118 -114.5t-56 -241.5q0 -120 65 -120z" />
    <glyph glyph-name="Obreve" unicode="&#x14e;" horiz-adv-x="696" 
d="M445 745q-52 0 -81.5 25.5t-29.5 69.5q0 20 4 35h4q7 -85 108 -85q102 0 144 85h4q-13 -63 -52.5 -96.5t-100.5 -33.5zM306 -15q-115 0 -181 76t-66 209q0 185 109 315t264 130q115 0 181 -76t66 -209q0 -184 -109.5 -314.5t-263.5 -130.5zM319 18q107 0 184 126t77 297
q0 113 -43 177t-119 64q-106 0 -183.5 -126t-77.5 -297q0 -113 43 -177t119 -64z" />
    <glyph glyph-name="obreve" unicode="&#x14f;" horiz-adv-x="455" 
d="M307 581q-50 0 -79.5 28.5t-29.5 74.5q0 22 6 48h4q5 -104 105 -104q96 0 147 104h4q-16 -73 -57 -112t-100 -39zM170 -15q-70 0 -109.5 49t-39.5 135q0 137 80 242t185 105q69 0 108.5 -49t39.5 -136q0 -136 -80 -241t-184 -105zM173 12q41 0 81.5 53t66 136.5
t25.5 166.5q0 120 -64 120q-62 0 -118 -114.5t-56 -241.5q0 -120 65 -120z" />
    <glyph glyph-name="Ohungarumlaut" unicode="&#x150;" horiz-adv-x="696" 
d="M376 745h-5l80 130h90v-5zM306 -15q-115 0 -181 76t-66 209q0 185 109 315t264 130q115 0 181 -76t66 -209q0 -184 -109.5 -314.5t-263.5 -130.5zM319 18q107 0 184 126t77 297q0 113 -43 177t-119 64q-106 0 -183.5 -126t-77.5 -297q0 -113 43 -177t119 -64z" />
    <glyph glyph-name="ohungarumlaut" unicode="&#x151;" horiz-adv-x="455" 
d="M229 565h-4l102 180h90v-5zM170 -15q-70 0 -109.5 49t-39.5 135q0 137 80 242t185 105q69 0 108.5 -49t39.5 -136q0 -136 -80 -241t-184 -105zM173 12q41 0 81.5 53t66 136.5t25.5 166.5q0 120 -64 120q-62 0 -118 -114.5t-56 -241.5q0 -120 65 -120z" />
    <glyph glyph-name="OE" unicode="&#x152;" horiz-adv-x="986" 
d="M900 129l-27 -129h-570q-108 23 -176 105.5t-68 190.5q0 178 121 291t347 113h459l-24 -111h-5l-106 78h-174l-60 -281h174l101 58h5l-33 -151h-5l-76 59h-175l-67 -319h206l149 96h4zM443 28h1l136 639h-47q-176 0 -275.5 -95.5t-99.5 -258.5q0 -119 79 -197.5
t206 -87.5z" />
    <glyph glyph-name="oe" unicode="&#x153;" horiz-adv-x="712" 
d="M170 -15q-70 0 -109.5 49t-39.5 135q0 137 80 242t185 105q53 0 89.5 -30t50.5 -84q89 114 189 114q42 0 66 -22t24 -58q0 -120 -280 -187l-3 -17q-6 -33 -6 -65q0 -120 76 -120q88 0 176 156l4 -2q-29 -104 -87.5 -160t-127.5 -56q-92 0 -118 87q-77 -87 -169 -87z
M173 12q41 0 81.5 53t66 136.5t25.5 166.5q0 120 -64 120q-62 0 -118 -114.5t-56 -241.5q0 -120 65 -120zM587 484q-45 0 -90 -63.5t-67 -150.5q105 29 154.5 67t49.5 90q0 27 -12.5 42t-34.5 15z" />
    <glyph glyph-name="Racute" unicode="&#x154;" horiz-adv-x="614" 
d="M381 745h-5l80 130h90v-5zM205 4l-1 -4h-183l1 4l50 44l128 604l-37 44l1 4h298q62 -11 98.5 -53.5t36.5 -101.5q0 -68 -50 -121.5t-134 -73.5q14 -99 64.5 -223.5t104.5 -189.5l-3 -2q-85 28 -163 148.5t-100 254.5h-87l-61 -290zM337 671h-37l-64 -302h89
q79 0 130 44.5t51 116.5q0 66 -44.5 103.5t-124.5 37.5z" />
    <glyph glyph-name="racute" unicode="&#x155;" horiz-adv-x="377" 
d="M291 558h-4l102 180h90v-5zM184 221l-48 -221h-87l95 437h-4l-84 -69l-3 4q33 67 69.5 98t85.5 31h26l-26 -150h4q74 165 160 165q26 0 40.5 -13.5t14.5 -34.5t-12.5 -37t-31.5 -21l-68 41q-33 -16 -74.5 -87.5t-56.5 -142.5z" />
    <glyph glyph-name="Rcommaaccent" unicode="&#x156;" horiz-adv-x="614" 
d="M205 4l-1 -4h-183l1 4l50 44l128 604l-37 44l1 4h298q62 -11 98.5 -53.5t36.5 -101.5q0 -68 -50 -121.5t-134 -73.5q14 -99 64.5 -223.5t104.5 -189.5l-3 -2q-85 28 -163 148.5t-100 254.5h-87l-61 -290zM337 671h-37l-64 -302h89q79 0 130 44.5t51 116.5
q0 66 -44.5 103.5t-124.5 37.5zM238 -200l-1 4q20 11 40 34q20 22 25 39v4l-58 14q-5 5 -5 14q0 19 16 31.5t38 12.5q25 0 42.5 -16t17.5 -40q0 -31 -32 -58.5t-83 -38.5z" />
    <glyph glyph-name="rcommaaccent" unicode="&#x157;" horiz-adv-x="377" 
d="M184 221l-48 -221h-87l95 437h-4l-84 -69l-3 4q33 67 69.5 98t85.5 31h26l-26 -150h4q74 165 160 165q26 0 40.5 -13.5t14.5 -34.5t-12.5 -37t-31.5 -21l-68 41q-33 -16 -74.5 -87.5t-56.5 -142.5zM16 -200l-1 4q20 11 40 34q20 22 25 39v4l-58 14q-5 5 -5 14
q0 19 16 31.5t38 12.5q25 0 42.5 -16t17.5 -40q0 -31 -32 -58.5t-83 -38.5z" />
    <glyph glyph-name="Rcaron" unicode="&#x158;" horiz-adv-x="614" 
d="M394 745h-29l-84 128l3 2l100 -78h4l142 78l2 -2zM205 4l-1 -4h-183l1 4l50 44l128 604l-37 44l1 4h298q62 -11 98.5 -53.5t36.5 -101.5q0 -68 -50 -121.5t-134 -73.5q14 -99 64.5 -223.5t104.5 -189.5l-3 -2q-85 28 -163 148.5t-100 254.5h-87l-61 -290zM337 671h-37
l-64 -302h89q79 0 130 44.5t51 116.5q0 66 -44.5 103.5t-124.5 37.5z" />
    <glyph glyph-name="rcaron" unicode="&#x159;" horiz-adv-x="377" 
d="M306 565h-32l-72 178l3 2l94 -109h4l148 109l3 -2zM184 221l-48 -221h-87l95 437h-4l-84 -69l-3 4q33 67 69.5 98t85.5 31h26l-26 -150h4q74 165 160 165q26 0 40.5 -13.5t14.5 -34.5t-12.5 -37t-31.5 -21l-68 41q-33 -16 -74.5 -87.5t-56.5 -142.5z" />
    <glyph glyph-name="Sacute" unicode="&#x15a;" horiz-adv-x="519" 
d="M355 745h-5l80 130h90v-5zM229 -15q-63 0 -123 22q-61 22 -97 60l22 103h4l127 -140q24 -15 71 -15q63 0 102.5 37.5t39.5 97.5q0 39 -23 76t-55.5 69t-65 64.5t-55.5 75t-23 88.5q0 83 60.5 137.5t153.5 54.5q47 0 95 -14.5t79 -38.5l-23 -98h-5l-107 109q-21 12 -48 12
q-53 0 -88 -36t-35 -90q0 -38 23 -76t55.5 -69.5t65 -65t55.5 -75.5t23 -88q0 -88 -64.5 -144t-163.5 -56z" />
    <glyph glyph-name="sacute" unicode="&#x15b;" horiz-adv-x="361" 
d="M288 558h-4l102 180h90v-5zM133 -15q-55 0 -96 23t-41 54q0 18 12.5 30.5t28.5 12.5l98 -93q43 1 69 26t26 65q0 34 -20.5 67t-45 56t-45 58.5t-20.5 74.5q0 66 53 111.5t130 45.5q42 0 68 -15t26 -38q0 -16 -10 -27.5t-24 -13.5l-92 61q-34 -1 -56 -23.5t-22 -60.5
q0 -34 20.5 -67.5t45 -56.5t45 -59.5t20.5 -76.5q0 -69 -48 -112q-48 -42 -122 -42z" />
    <glyph glyph-name="Scircumflex" unicode="&#x15c;" horiz-adv-x="519" 
d="M368 875h28l85 -128l-4 -2l-100 78h-4l-142 -78l-2 2zM229 -15q-63 0 -123 22q-61 22 -97 60l22 103h4l127 -140q24 -15 71 -15q63 0 102.5 37.5t39.5 97.5q0 39 -23 76t-55.5 69t-65 64.5t-55.5 75t-23 88.5q0 83 60.5 137.5t153.5 54.5q47 0 95 -14.5t79 -38.5l-23 -98
h-5l-107 109q-21 12 -48 12q-53 0 -88 -36t-35 -90q0 -38 23 -76t55.5 -69.5t65 -65t55.5 -75.5t23 -88q0 -88 -64.5 -144t-163.5 -56z" />
    <glyph glyph-name="scircumflex" unicode="&#x15d;" horiz-adv-x="361" 
d="M312 745h26l75 -178l-3 -2l-94 109h-4l-148 -109l-2 2zM133 -15q-55 0 -96 23t-41 54q0 18 12.5 30.5t28.5 12.5l98 -93q43 1 69 26t26 65q0 34 -20.5 67t-45 56t-45 58.5t-20.5 74.5q0 66 53 111.5t130 45.5q42 0 68 -15t26 -38q0 -16 -10 -27.5t-24 -13.5l-92 61
q-34 -1 -56 -23.5t-22 -60.5q0 -34 20.5 -67.5t45 -56.5t45 -59.5t20.5 -76.5q0 -69 -48 -112q-48 -42 -122 -42z" />
    <glyph glyph-name="Scedilla" unicode="&#x15e;" horiz-adv-x="519" 
d="M276 -128q0 -32 -29 -52t-76 -20q-48 0 -79 13l10 47h6l74 -42q15 1 24.5 12.5t9.5 28.5q0 42 -53 89v3l65 34q-62 0 -122.5 22.5t-96.5 59.5l22 103h4l127 -140q24 -15 71 -15q63 0 102.5 37.5t39.5 97.5q0 39 -23 76t-55.5 69t-65 64.5t-55.5 75t-23 88.5
q0 83 60.5 137.5t153.5 54.5q47 0 95 -14.5t79 -38.5l-23 -98h-5l-107 109q-21 12 -48 12q-53 0 -88 -36t-35 -90q0 -38 23 -76t55.5 -69.5t65 -65t55.5 -75.5t23 -88q0 -80 -54.5 -134.5t-140.5 -63.5l-38 -21q52 -49 52 -94z" />
    <glyph glyph-name="scedilla" unicode="&#x15f;" horiz-adv-x="361" 
d="M148 -15h-15q-55 0 -96 23t-41 54q0 18 12.5 30.5t28.5 12.5l98 -93q43 1 69 26t26 65q0 34 -20.5 67t-45 56t-45 58.5t-20.5 74.5q0 66 53 111.5t130 45.5q42 0 68 -15t26 -38q0 -16 -10 -27.5t-24 -13.5l-92 61q-34 -1 -56 -23.5t-22 -60.5q0 -34 20.5 -67.5t45 -56.5
t45 -59.5t20.5 -76.5q0 -53 -30 -92t-81 -54l-49 -27q52 -49 52 -94q0 -32 -29 -52t-76 -20q-48 0 -79 13l10 47h6l74 -42q15 1 24.5 12.5t9.5 28.5q0 42 -53 89v3z" />
    <glyph glyph-name="Scaron" unicode="&#x160;" horiz-adv-x="519" 
d="M368 745h-29l-84 128l3 2l100 -78h4l142 78l2 -2zM229 -15q-63 0 -123 22q-61 22 -97 60l22 103h4l127 -140q24 -15 71 -15q63 0 102.5 37.5t39.5 97.5q0 39 -23 76t-55.5 69t-65 64.5t-55.5 75t-23 88.5q0 83 60.5 137.5t153.5 54.5q47 0 95 -14.5t79 -38.5l-23 -98h-5
l-107 109q-21 12 -48 12q-53 0 -88 -36t-35 -90q0 -38 23 -76t55.5 -69.5t65 -65t55.5 -75.5t23 -88q0 -88 -64.5 -144t-163.5 -56z" />
    <glyph glyph-name="scaron" unicode="&#x161;" horiz-adv-x="361" 
d="M303 565h-32l-72 178l3 2l94 -109h4l148 109l3 -2zM133 -15q-55 0 -96 23t-41 54q0 18 12.5 30.5t28.5 12.5l98 -93q43 1 69 26t26 65q0 34 -20.5 67t-45 56t-45 58.5t-20.5 74.5q0 66 53 111.5t130 45.5q42 0 68 -15t26 -38q0 -16 -10 -27.5t-24 -13.5l-92 61
q-34 -1 -56 -23.5t-22 -60.5q0 -34 20.5 -67.5t45 -56.5t45 -59.5t20.5 -76.5q0 -69 -48 -112q-48 -42 -122 -42z" />
    <glyph glyph-name="Tcaron" unicode="&#x164;" horiz-adv-x="603" 
d="M421 745h-29l-84 128l3 2l100 -78h4l142 78l2 -2zM343 4l-1 -4h-185l1 4l51 44l132 619h-103l-140 -83h-4l23 116h557l-24 -116h-4l-106 83h-103l-132 -619z" />
    <glyph glyph-name="tcaron" unicode="&#x165;" horiz-adv-x="346" 
d="M312 540h-4l82 201h83l-1 -5zM128 -15q-42 0 -60.5 29t-6.5 76l94 378h-83l7 33h84l31 124l89 27h5l-38 -151h127l-12 -33h-123l-97 -390q-9 -37 14 -37q22 0 69.5 38.5t87.5 85.5l4 -2q-31 -78 -85 -129q-52 -49 -107 -49z" />
    <glyph glyph-name="Tbar" unicode="&#x166;" horiz-adv-x="603" 
d="M343 4l-1 -4h-185l1 4l51 44l62 290h-123l8 34h122l63 295h-103l-140 -83h-4l23 116h557l-24 -116h-4l-106 83h-103l-63 -295h125l-7 -34h-125l-62 -290z" />
    <glyph glyph-name="tbar" unicode="&#x167;" horiz-adv-x="346" 
d="M121 -15q-42 0 -60.5 29t-6.5 76l39 155h-62l8 29h61l48 194h-83l7 33h84l31 124l89 27h5l-38 -151h127l-12 -33h-123l-48 -194h117l-7 -29h-117l-42 -167q-9 -37 14 -37q22 0 69.5 38.5t87.5 85.5l4 -2q-31 -78 -85 -129q-52 -49 -107 -49z" />
    <glyph glyph-name="Utilde" unicode="&#x168;" horiz-adv-x="689" 
d="M534 760q-23 0 -69 25.5t-70 25.5q-19 0 -38.5 -11.5t-57.5 -46.5l-3 2q46 64 70.5 84.5t48.5 20.5t69 -25.5t70 -25.5q19 0 39.5 11.5t57.5 46.5l2 -2q-44 -63 -69.5 -84t-49.5 -21zM329 -15q-119 0 -180.5 77.5t-37.5 192.5l84 397l-38 44l1 4h184l-1 -4l-49 -44
l-82 -384q-23 -106 18.5 -163.5t135.5 -57.5q75 0 125 40t66 114l91 433l-54 62l1 4h149l-1 -4l-54 -62l-91 -430q-22 -107 -89.5 -163t-177.5 -56z" />
    <glyph glyph-name="utilde" unicode="&#x169;" horiz-adv-x="553" 
d="M437 603q-23 0 -69 27.5t-69 27.5q-19 0 -39.5 -12.5t-58.5 -49.5l-3 3q43 61 70 84.5t51 23.5t69 -27.5t70 -27.5q19 0 38.5 12.5t57.5 49.5l3 -3q-42 -61 -68.5 -84.5t-51.5 -23.5zM375 -15q-22 0 -33.5 14.5t-7.5 34.5l33 137h-4q-99 -186 -215 -186q-43 0 -63.5 31.5
t-9.5 82.5l72 338h-4l-84 -69l-4 4q33 66 70 97.5t85 31.5h37l-84 -397q-11 -59 32 -59q49 0 111 74.5t80 158.5l48 223h86l-97 -453h3l83 69l4 -3q-27 -58 -65 -93.5t-73 -35.5z" />
    <glyph glyph-name="Umacron" unicode="&#x16a;" horiz-adv-x="689" 
d="M609 793h-257l8 34h256zM329 -15q-119 0 -180.5 77.5t-37.5 192.5l84 397l-38 44l1 4h184l-1 -4l-49 -44l-82 -384q-23 -106 18.5 -163.5t135.5 -57.5q75 0 125 40t66 114l91 433l-54 62l1 4h149l-1 -4l-54 -62l-91 -430q-22 -107 -89.5 -163t-177.5 -56z" />
    <glyph glyph-name="umacron" unicode="&#x16b;" horiz-adv-x="553" 
d="M504 638h-257l8 34h256zM375 -15q-22 0 -33.5 14.5t-7.5 34.5l33 137h-4q-99 -186 -215 -186q-43 0 -63.5 31.5t-9.5 82.5l72 338h-4l-84 -69l-4 4q33 66 70 97.5t85 31.5h37l-84 -397q-11 -59 32 -59q49 0 111 74.5t80 158.5l48 223h86l-97 -453h3l83 69l4 -3
q-27 -58 -65 -93.5t-73 -35.5z" />
    <glyph glyph-name="Ubreve" unicode="&#x16c;" horiz-adv-x="689" 
d="M453 745q-52 0 -81.5 25.5t-29.5 69.5q0 20 4 35h4q7 -85 108 -85q102 0 144 85h4q-13 -63 -52.5 -96.5t-100.5 -33.5zM329 -15q-119 0 -180.5 77.5t-37.5 192.5l84 397l-38 44l1 4h184l-1 -4l-49 -44l-82 -384q-23 -106 18.5 -163.5t135.5 -57.5q75 0 125 40t66 114
l91 433l-54 62l1 4h149l-1 -4l-54 -62l-91 -430q-22 -107 -89.5 -163t-177.5 -56z" />
    <glyph glyph-name="ubreve" unicode="&#x16d;" horiz-adv-x="553" 
d="M367 581q-50 0 -79.5 28.5t-29.5 74.5q0 22 6 48h4q5 -104 105 -104q96 0 147 104h4q-16 -73 -57 -112t-100 -39zM375 -15q-22 0 -33.5 14.5t-7.5 34.5l33 137h-4q-99 -186 -215 -186q-43 0 -63.5 31.5t-9.5 82.5l72 338h-4l-84 -69l-4 4q33 66 70 97.5t85 31.5h37
l-84 -397q-11 -59 32 -59q49 0 111 74.5t80 158.5l48 223h86l-97 -453h3l83 69l4 -3q-27 -58 -65 -93.5t-73 -35.5z" />
    <glyph glyph-name="Uring" unicode="&#x16e;" horiz-adv-x="689" 
d="M461 745q-44 0 -70 20.5t-26 55.5q0 44 38 73q39 30 94 30q44 0 69.5 -20.5t25.5 -55.5q0 -43 -38 -73t-93 -30zM470 767q28 0 46.5 24.5t18.5 55.5q0 25 -12.5 40t-34.5 15q-27 0 -46 -24.5t-19 -55.5q0 -25 12.5 -40t34.5 -15zM329 -15q-119 0 -180.5 77.5t-37.5 192.5
l84 397l-38 44l1 4h184l-1 -4l-49 -44l-82 -384q-23 -106 18.5 -163.5t135.5 -57.5q75 0 125 40t66 114l91 433l-54 62l1 4h149l-1 -4l-54 -62l-91 -430q-22 -107 -89.5 -163t-177.5 -56z" />
    <glyph glyph-name="uring" unicode="&#x16f;" horiz-adv-x="553" 
d="M360 569q-44 0 -70 20.5t-26 55.5q0 44 38 73q39 30 94 30q44 0 69.5 -20.5t25.5 -55.5q0 -43 -38 -73q-37 -30 -93 -30zM369 591q28 0 46.5 24.5t18.5 55.5q0 25 -12.5 40t-34.5 15q-27 0 -46 -24.5t-19 -55.5q0 -25 12.5 -40t34.5 -15zM375 -15q-22 0 -33.5 14.5
t-7.5 34.5l33 137h-4q-99 -186 -215 -186q-43 0 -63.5 31.5t-9.5 82.5l72 338h-4l-84 -69l-4 4q33 66 70 97.5t85 31.5h37l-84 -397q-11 -59 32 -59q49 0 111 74.5t80 158.5l48 223h86l-97 -453h3l83 69l4 -3q-27 -58 -65 -93.5t-73 -35.5z" />
    <glyph glyph-name="Uhungarumlaut" unicode="&#x170;" horiz-adv-x="689" 
d="M384 745h-5l80 130h90v-5zM329 -15q-119 0 -180.5 77.5t-37.5 192.5l84 397l-38 44l1 4h184l-1 -4l-49 -44l-82 -384q-23 -106 18.5 -163.5t135.5 -57.5q75 0 125 40t66 114l91 433l-54 62l1 4h149l-1 -4l-54 -62l-91 -430q-22 -107 -89.5 -163t-177.5 -56z" />
    <glyph glyph-name="uhungarumlaut" unicode="&#x171;" horiz-adv-x="553" 
d="M290 565h-5l102 180h91v-5zM375 -15q-22 0 -33.5 14.5t-7.5 34.5l33 137h-4q-99 -186 -215 -186q-43 0 -63.5 31.5t-9.5 82.5l72 338h-4l-84 -69l-4 4q33 66 70 97.5t85 31.5h37l-84 -397q-11 -59 32 -59q49 0 111 74.5t80 158.5l48 223h86l-97 -453h3l83 69l4 -3
q-27 -58 -65 -93.5t-73 -35.5z" />
    <glyph glyph-name="Uogonek" unicode="&#x172;" horiz-adv-x="689" 
d="M383 -147l3 -3q-29 -50 -87 -50q-36 0 -60 19t-24 47q0 24 13 43l89 76q-113 4 -171 81t-35 189l84 397l-38 44l1 4h184l-1 -4l-49 -44l-82 -384q-23 -106 18.5 -163.5t135.5 -57.5q75 0 125 40t66 114l91 433l-54 62l1 4h149l-1 -4l-54 -62l-91 -430q-44 -209 -251 -219
q-36 -36 -50 -58t-14 -43q0 -22 13.5 -36t37.5 -14q29 0 51 19z" />
    <glyph glyph-name="uogonek" unicode="&#x173;" horiz-adv-x="553" 
d="M382 -15h-7q-22 0 -33.5 14.5t-7.5 34.5l33 137h-4q-99 -186 -215 -186q-43 0 -63.5 31.5t-9.5 82.5l72 338h-4l-84 -69l-4 4q33 66 70 97.5t85 31.5h37l-84 -397q-11 -59 32 -59q49 0 111 74.5t80 158.5l48 223h86l-97 -453h3l83 69l4 -3q-35 -73 -81 -107
q-50 -47 -68 -73t-18 -50q0 -22 13.5 -36t37.5 -14q29 0 51 19l3 -3q-29 -50 -87 -50q-36 0 -60 19t-24 47q0 24 13 43z" />
    <glyph glyph-name="Wcircumflex" unicode="&#x174;" horiz-adv-x="871" 
d="M561 875h28l85 -128l-4 -2l-100 78h-4l-142 -78l-2 2zM473 509l-317 -509h-35l1 652l-17 44l1 4h171l-1 -4l-57 -44l-6 -497l264 426l4 71l-13 44l2 4h162l-2 -4l-51 -44l-37 -491l308 473l-50 62l2 4h165l-1 -4l-68 -62l-423 -634h-32z" />
    <glyph glyph-name="wcircumflex" unicode="&#x175;" horiz-adv-x="702" 
d="M467 745h26l75 -178l-3 -2l-94 109h-4l-148 -109l-2 2zM376 252l-189 -252h-35l-45 449h-4l-78 -26l-3 4q30 37 73 60.5t84 23.5h9l40 -415l144 193l-16 160h-4l-77 -26l-3 4q31 36 73.5 60t81.5 24h9l40 -420l32 45q73 103 99 155.5t26 96.5q0 88 -84 88h-9l-2 4
q45 36 94 36q35 0 55.5 -21.5t20.5 -58.5q0 -47 -35 -110.5t-126 -183.5l-110 -142h-35z" />
    <glyph glyph-name="Ycircumflex" unicode="&#x176;" horiz-adv-x="595" 
d="M417 875h28l85 -128l-4 -2l-100 78h-4l-142 -78l-2 2zM340 4l-1 -4h-184l1 4l50 44l62 284l-127 321l-24 43l1 4h178l-1 -4l-52 -44l110 -285l209 267l-42 62l1 4h144l-1 -4l-54 -62l-246 -303l-61 -283z" />
    <glyph glyph-name="ycircumflex" unicode="&#x177;" horiz-adv-x="456" 
d="M320 745h26l75 -178l-3 -2l-94 109h-4l-148 -109l-2 2zM-22 -200q-33 0 -54 15.5t-21 42.5q0 32 30 38l113 -49q23 8 57 39.5t59 68.5l-51 494h-4l-78 -26l-3 4q30 36 73.5 60t82.5 24h9l44 -462l79 140q73 126 73 206q0 39 -22 60t-62 21h-9l-2 4q45 36 94 36
q35 0 55.5 -21t20.5 -58q0 -38 -27.5 -96t-89.5 -155l-107 -177q-134 -209 -260 -209z" />
    <glyph glyph-name="Ydieresis" unicode="&#x178;" horiz-adv-x="595" 
d="M328 768q-17 0 -27 9.5t-10 25.5q0 20 14.5 34.5t35.5 14.5q17 0 27 -9.5t10 -25.5q0 -21 -14 -35t-36 -14zM492 768q-17 0 -27 9.5t-10 25.5q0 20 15 34.5t36 14.5q36 0 36 -35q0 -21 -14 -35t-36 -14zM340 4l-1 -4h-184l1 4l50 44l62 284l-127 321l-24 43l1 4h178
l-1 -4l-52 -44l110 -285l209 267l-42 62l1 4h144l-1 -4l-54 -62l-246 -303l-61 -283z" />
    <glyph glyph-name="Zacute" unicode="&#x179;" horiz-adv-x="615" 
d="M419 745h-5l80 130h90v-5zM537 137l-30 -137h-502l1 4l500 663h-211l-140 -92h-6l27 125h463l-1 -4l-499 -663h242l151 104h5z" />
    <glyph glyph-name="zacute" unicode="&#x17a;" horiz-adv-x="428" 
d="M302 558h-4l102 180h90v-5zM294 -29q-66 0 -206 123h-3l-78 -98h-5q-6 16 -6 37q0 52 34 91.5t81 39.5l239 270h-196l-49 -43h-5l21 110h332v-5l-315 -348q125 -101 192 -108l60 91l5 -2q-24 -158 -101 -158z" />
    <glyph glyph-name="Zdotaccent" unicode="&#x17b;" horiz-adv-x="615" 
d="M422 758q-20 0 -32.5 12t-12.5 31q0 24 18 41.5t43 17.5q20 0 32.5 -11.5t12.5 -31.5q0 -24 -17.5 -41.5t-43.5 -17.5zM537 137l-30 -137h-502l1 4l500 663h-211l-140 -92h-6l27 125h463l-1 -4l-499 -663h242l151 104h5z" />
    <glyph glyph-name="zdotaccent" unicode="&#x17c;" horiz-adv-x="428" 
d="M312 604q-20 0 -32.5 12t-12.5 31q0 24 18 41.5t43 17.5q20 0 32.5 -11.5t12.5 -31.5q0 -24 -17.5 -41.5t-43.5 -17.5zM294 -29q-66 0 -206 123h-3l-78 -98h-5q-6 16 -6 37q0 52 34 91.5t81 39.5l239 270h-196l-49 -43h-5l21 110h332v-5l-315 -348q125 -101 192 -108
l60 91l5 -2q-24 -158 -101 -158z" />
    <glyph glyph-name="Zcaron" unicode="&#x17d;" horiz-adv-x="615" 
d="M432 745h-29l-84 128l3 2l100 -78h4l142 78l2 -2zM537 137l-30 -137h-502l1 4l500 663h-211l-140 -92h-6l27 125h463l-1 -4l-499 -663h242l151 104h5z" />
    <glyph glyph-name="zcaron" unicode="&#x17e;" horiz-adv-x="428" 
d="M317 565h-32l-72 178l3 2l94 -109h4l148 109l3 -2zM294 -29q-66 0 -206 123h-3l-78 -98h-5q-6 16 -6 37q0 52 34 91.5t81 39.5l239 270h-196l-49 -43h-5l21 110h332v-5l-315 -348q125 -101 192 -108l60 91l5 -2q-24 -158 -101 -158z" />
    <glyph glyph-name="florin" unicode="&#x192;" horiz-adv-x="539" 
d="M-16 -200q-69 0 -118 24l18 86h4l105 -73q5 -3 10 -3q61 0 109 174l89 323h-141l7 23h140l26 95q74 266 261 266q84 0 137 -37l-20 -90h-4l-105 92q-6 3 -15 3q-46 0 -85 -54.5t-67 -152.5l-35 -122h205l-7 -23h-204l-86 -302q-64 -229 -224 -229z" />
    <glyph glyph-name="Aringacute" unicode="&#x1fa;" horiz-adv-x="609" 
d="M442 950h-5l80 130h90v-5zM440 740q-44 0 -70 20.5t-26 55.5q0 44 38 73q39 30 94 30q44 0 69.5 -20.5t25.5 -55.5q0 -43 -38 -73q-37 -30 -93 -30zM449 762q28 0 46.5 24.5t18.5 55.5q0 25 -12.5 40t-34.5 15q-27 0 -46 -24.5t-19 -55.5q0 -25 12.5 -40t34.5 -15zM542 4
l-1 -4h-168l1 4l55 44l-12 154h-270l-87 -136l64 -62l-1 -4h-162l1 4l42 45l377 575l-9 72l1 4h99l53 -652zM415 237l-26 341l-219 -341h245z" />
    <glyph glyph-name="aringacute" unicode="&#x1fb;" 
d="M392 749h-5l80 130h90v-5zM347 545q-44 0 -70 20.5t-26 55.5q0 44 38 73q39 30 94 30q44 0 69.5 -20.5t25.5 -55.5q0 -43 -38 -73t-93 -30zM356 567q28 0 46.5 24.5t18.5 55.5q0 25 -12.5 40t-34.5 15q-27 0 -46 -24.5t-19 -55.5q0 -25 12.5 -40t34.5 -15zM100 -15
q-79 0 -79 125q0 99 47 193.5t122.5 153.5t153.5 59q53 0 88 -24l77 43l3 -2l-47 -131l-75 -354h3l84 69l3 -3q-27 -58 -65 -93.5t-73 -35.5q-22 0 -34 15.5t-7 37.5l45 200h-4q-50 -108 -119 -180.5t-123 -72.5zM108 132q0 -88 40 -88q49 0 126.5 116t100.5 222l14 69
l-101 32q-71 -33 -125.5 -141t-54.5 -210z" />
    <glyph glyph-name="AEacute" unicode="&#x1fc;" horiz-adv-x="905" 
d="M566 745h-5l80 130h90v-5zM819 129l-27 -129h-477l1 4l51 44l34 160h-235l-107 -142l64 -62l-1 -4h-157l1 4l465 620l-10 72l1 4h483l-23 -111h-5l-106 78h-175l-60 -281h175l100 58h5l-32 -151h-5l-77 59h-174l-67 -319h205l149 96h4zM492 636h-3l-296 -393h216z" />
    <glyph glyph-name="aeacute" unicode="&#x1fd;" horiz-adv-x="707" 
d="M453 558h-4l102 180h90v-5zM100 -15q-79 0 -79 127q0 101 47 195t124 151.5t159 57.5q42 0 78 -16t47 -41q70 57 135 57q42 0 66 -22t24 -58q0 -119 -280 -188q-9 -40 -9 -81q0 -120 76 -120q88 0 176 156l4 -2q-29 -104 -87.5 -160t-127.5 -56q-59 0 -92.5 39t-33.5 111
q0 52 13 98q-50 -107 -118 -177.5t-122 -70.5zM108 132q0 -88 40 -88q36 0 91.5 68t91.5 147q21 50 52 96t58 71v2l-143 57q-74 -35 -132 -142t-58 -211zM583 484q-45 0 -90 -63.5t-67 -150.5q105 29 154.5 67t49.5 90q0 27 -12.5 42t-34.5 15z" />
    <glyph glyph-name="Oslashacute" unicode="&#x1fe;" horiz-adv-x="696" 
d="M454 745h-5l80 130h90v-5zM146 40l-70 -89l-25 22l72 91q-64 74 -64 206q0 185 109 315t264 130q98 0 160 -55l67 84l27 -22l-69 -88q62 -76 62 -204q0 -184 -109.5 -314.5t-263.5 -130.5q-98 0 -160 55zM157 259q0 -71 19 -128l371 471q-44 80 -129 80
q-106 0 -183.5 -126t-77.5 -297zM319 18q107 0 184 126t77 297q0 73 -18 125l-371 -469q43 -79 128 -79z" />
    <glyph glyph-name="oslashacute" unicode="&#x1ff;" horiz-adv-x="455" 
d="M300 558h-4l102 180h90v-5zM87 10l-40 -59l-24 17l41 61q-43 49 -43 140q0 137 80 242t185 105q51 0 88 -28l42 62l24 -17l-45 -67q39 -48 39 -135q0 -136 -80 -241t-184 -105q-49 0 -83 25zM108 132q0 -13 2 -35l228 338q-14 53 -56 53q-62 0 -118 -114.5t-56 -241.5z
M173 12q41 0 81.5 53t66 136.5t25.5 166.5q0 17 -1 25l-226 -336q15 -45 54 -45z" />
    <glyph glyph-name="Scommaaccent" unicode="&#x218;" horiz-adv-x="519" 
d="M229 -15q-63 0 -123 22q-61 22 -97 60l22 103h4l127 -140q24 -15 71 -15q63 0 102.5 37.5t39.5 97.5q0 39 -23 76t-55.5 69t-65 64.5t-55.5 75t-23 88.5q0 83 60.5 137.5t153.5 54.5q47 0 95 -14.5t79 -38.5l-23 -98h-5l-107 109q-21 12 -48 12q-53 0 -88 -36t-35 -90
q0 -38 23 -76t55.5 -69.5t65 -65t55.5 -75.5t23 -88q0 -88 -64.5 -144t-163.5 -56zM177 -200l-1 4q20 11 40 34q20 22 25 39v4l-58 14q-5 5 -5 14q0 19 16 31.5t38 12.5q25 0 42.5 -16t17.5 -40q0 -31 -32 -58.5t-83 -38.5z" />
    <glyph glyph-name="scommaaccent" unicode="&#x219;" horiz-adv-x="361" 
d="M133 -15q-55 0 -96 23t-41 54q0 18 12.5 30.5t28.5 12.5l98 -93q43 1 69 26t26 65q0 34 -20.5 67t-45 56t-45 58.5t-20.5 74.5q0 66 53 111.5t130 45.5q42 0 68 -15t26 -38q0 -16 -10 -27.5t-24 -13.5l-92 61q-34 -1 -56 -23.5t-22 -60.5q0 -34 20.5 -67.5t45 -56.5
t45 -59.5t20.5 -76.5q0 -69 -48 -112q-48 -42 -122 -42zM87 -200l-1 4q20 11 40 34q20 22 25 39v4l-58 14q-5 5 -5 14q0 19 16 31.5t38 12.5q25 0 42.5 -16t17.5 -40q0 -31 -32 -58.5t-83 -38.5z" />
    <glyph glyph-name="Tcommaaccent" unicode="&#x21a;" horiz-adv-x="603" 
d="M343 4l-1 -4h-185l1 4l51 44l132 619h-103l-140 -83h-4l23 116h557l-24 -116h-4l-106 83h-103l-132 -619zM169 -200l-1 4q20 11 40 34q20 22 25 39v4l-58 14q-5 5 -5 14q0 19 16 31.5t38 12.5q25 0 42.5 -16t17.5 -40q0 -31 -32 -58.5t-83 -38.5z" />
    <glyph glyph-name="tcommaaccent" unicode="&#x21b;" horiz-adv-x="346" 
d="M128 -15q-42 0 -60.5 29t-6.5 76l94 378h-83l7 33h84l31 124l89 27h5l-38 -151h127l-12 -33h-123l-97 -390q-9 -37 14 -37q22 0 69.5 38.5t87.5 85.5l4 -2q-31 -78 -85 -129q-52 -49 -107 -49zM59 -200l-1 4q20 11 40 34q20 22 25 39v4l-58 14q-5 5 -5 14q0 19 16 31.5
t38 12.5q25 0 42.5 -16t17.5 -40q0 -31 -32 -58.5t-83 -38.5z" />
    <glyph glyph-name="circumflex" unicode="&#x2c6;" horiz-adv-x="500" 
d="M316 745h26l75 -178l-3 -2l-94 109h-4l-148 -109l-2 2z" />
    <glyph glyph-name="caron" unicode="&#x2c7;" horiz-adv-x="500" 
d="M307 565h-32l-72 178l3 2l94 -109h4l148 109l3 -2z" />
    <glyph glyph-name="breve" unicode="&#x2d8;" horiz-adv-x="500" 
d="M301 581q-50 0 -79.5 28.5t-29.5 74.5q0 22 6 48h4q5 -104 105 -104q96 0 147 104h4q-16 -73 -57 -112t-100 -39z" />
    <glyph glyph-name="dotaccent" unicode="&#x2d9;" horiz-adv-x="500" 
d="M306 604q-20 0 -32.5 12t-12.5 31q0 24 18 41.5t43 17.5q20 0 32.5 -11.5t12.5 -31.5q0 -24 -17.5 -41.5t-43.5 -17.5z" />
    <glyph glyph-name="ring" unicode="&#x2da;" horiz-adv-x="500" 
d="M292 569q-44 0 -70 20.5t-26 55.5q0 44 38 73q39 30 94 30q44 0 69.5 -20.5t25.5 -55.5q0 -43 -38 -73q-37 -30 -93 -30zM301 591q28 0 46.5 24.5t18.5 55.5q0 25 -12.5 40t-34.5 15q-27 0 -46 -24.5t-19 -55.5q0 -25 12.5 -40t34.5 -15z" />
    <glyph glyph-name="ogonek" unicode="&#x2db;" horiz-adv-x="500" 
d="M306 -147l3 -3q-29 -50 -87 -50q-36 0 -60 19t-24 47q0 24 13 43l126 108h24q-57 -53 -77 -80t-20 -53q0 -22 13.5 -36t37.5 -14q29 0 51 19z" />
    <glyph glyph-name="tilde" unicode="&#x2dc;" horiz-adv-x="500" 
d="M372 603q-24 0 -69 27.5t-69 27.5q-19 0 -39.5 -12.5t-58.5 -49.5l-3 3q43 61 70 84.5t51 23.5t69 -27.5t70 -27.5q19 0 38.5 12.5t57.5 49.5l3 -3q-42 -61 -68.5 -84.5t-51.5 -23.5z" />
    <glyph glyph-name="hungarumlaut" unicode="&#x2dd;" horiz-adv-x="500" 
d="M147 565h-4l102 180h90v-5zM285 565h-4l102 180h90v-5z" />
    <glyph glyph-name="commaaccent" unicode="&#x326;" horiz-adv-x="500" 
d="M176 -200l-1 4q20 11 40 34q20 22 25 39v4l-58 14q-5 5 -5 14q0 19 16 31.5t38 12.5q25 0 42.5 -16t17.5 -40q0 -31 -32 -58.5t-83 -38.5z" />
    <glyph glyph-name="pi" unicode="&#x3c0;" horiz-adv-x="563" 
d="M87 0h-111l1 5l115 75l120 320l1 6h-135l38 95h483l-20 -95h-114q-81 -171 -81 -263q0 -37 18 -59t50 -22q39 0 73 40l3 -3q-50 -114 -116 -114q-35 0 -57 28t-22 76q0 57 31 150t70 167h-192q-88 -313 -155 -406z" />
    <glyph glyph-name="Wgrave" unicode="&#x1e80;" horiz-adv-x="871" 
d="M441 875h82l27 -130h-5l-104 125v5zM473 509l-317 -509h-35l1 652l-17 44l1 4h171l-1 -4l-57 -44l-6 -497l264 426l4 71l-13 44l2 4h162l-2 -4l-51 -44l-37 -491l308 473l-50 62l2 4h165l-1 -4l-68 -62l-423 -634h-32z" />
    <glyph glyph-name="wgrave" unicode="&#x1e81;" horiz-adv-x="702" 
d="M334 738h80l31 -180h-5l-106 175v5zM376 252l-189 -252h-35l-45 449h-4l-78 -26l-3 4q30 37 73 60.5t84 23.5h9l40 -415l144 193l-16 160h-4l-77 -26l-3 4q31 36 73.5 60t81.5 24h9l40 -420l32 45q73 103 99 155.5t26 96.5q0 88 -84 88h-9l-2 4q45 36 94 36
q35 0 55.5 -21.5t20.5 -58.5q0 -47 -35 -110.5t-126 -183.5l-110 -142h-35z" />
    <glyph glyph-name="Wacute" unicode="&#x1e82;" horiz-adv-x="871" 
d="M549 745h-5l80 130h90v-5zM473 509l-317 -509h-35l1 652l-17 44l1 4h171l-1 -4l-57 -44l-6 -497l264 426l4 71l-13 44l2 4h162l-2 -4l-51 -44l-37 -491l308 473l-50 62l2 4h165l-1 -4l-68 -62l-423 -634h-32z" />
    <glyph glyph-name="wacute" unicode="&#x1e83;" horiz-adv-x="702" 
d="M443 558h-4l102 180h90v-5zM376 252l-189 -252h-35l-45 449h-4l-78 -26l-3 4q30 37 73 60.5t84 23.5h9l40 -415l144 193l-16 160h-4l-77 -26l-3 4q31 36 73.5 60t81.5 24h9l40 -420l32 45q73 103 99 155.5t26 96.5q0 88 -84 88h-9l-2 4q45 36 94 36q35 0 55.5 -21.5
t20.5 -58.5q0 -47 -35 -110.5t-126 -183.5l-110 -142h-35z" />
    <glyph glyph-name="Wdieresis" unicode="&#x1e84;" horiz-adv-x="871" 
d="M472 768q-17 0 -27 9.5t-10 25.5q0 20 14.5 34.5t35.5 14.5q17 0 27 -9.5t10 -25.5q0 -21 -14 -35t-36 -14zM636 768q-17 0 -27 9.5t-10 25.5q0 20 15 34.5t36 14.5q36 0 36 -35q0 -21 -14 -35t-36 -14zM473 509l-317 -509h-35l1 652l-17 44l1 4h171l-1 -4l-57 -44
l-6 -497l264 426l4 71l-13 44l2 4h162l-2 -4l-51 -44l-37 -491l308 473l-50 62l2 4h165l-1 -4l-68 -62l-423 -634h-32z" />
    <glyph glyph-name="wdieresis" unicode="&#x1e85;" horiz-adv-x="702" 
d="M372 613q-17 0 -27 9.5t-10 25.5q0 20 14.5 34.5t35.5 14.5q17 0 27 -9.5t10 -25.5q0 -20 -14 -34.5t-36 -14.5zM536 613q-17 0 -27 9.5t-10 25.5q0 20 15 34.5t36 14.5q36 0 36 -35q0 -20 -14 -34.5t-36 -14.5zM376 252l-189 -252h-35l-45 449h-4l-78 -26l-3 4
q30 37 73 60.5t84 23.5h9l40 -415l144 193l-16 160h-4l-77 -26l-3 4q31 36 73.5 60t81.5 24h9l40 -420l32 45q73 103 99 155.5t26 96.5q0 88 -84 88h-9l-2 4q45 36 94 36q35 0 55.5 -21.5t20.5 -58.5q0 -47 -35 -110.5t-126 -183.5l-110 -142h-35z" />
    <glyph glyph-name="Ygrave" unicode="&#x1ef2;" horiz-adv-x="595" 
d="M297 875h82l27 -130h-5l-104 125v5zM340 4l-1 -4h-184l1 4l50 44l62 284l-127 321l-24 43l1 4h178l-1 -4l-52 -44l110 -285l209 267l-42 62l1 4h144l-1 -4l-54 -62l-246 -303l-61 -283z" />
    <glyph glyph-name="ygrave" unicode="&#x1ef3;" horiz-adv-x="456" 
d="M187 738h80l31 -180h-5l-106 175v5zM-22 -200q-33 0 -54 15.5t-21 42.5q0 32 30 38l113 -49q23 8 57 39.5t59 68.5l-51 494h-4l-78 -26l-3 4q30 36 73.5 60t82.5 24h9l44 -462l79 140q73 126 73 206q0 39 -22 60t-62 21h-9l-2 4q45 36 94 36q35 0 55.5 -21t20.5 -58
q0 -38 -27.5 -96t-89.5 -155l-107 -177q-134 -209 -260 -209z" />
    <glyph glyph-name="endash" unicode="&#x2013;" horiz-adv-x="500" 
d="M483 254h-460l8 37h460z" />
    <glyph glyph-name="emdash" unicode="&#x2014;" horiz-adv-x="1000" 
d="M983 254h-960l8 38h960z" />
    <glyph glyph-name="quoteleft" unicode="&#x2018;" horiz-adv-x="235" 
d="M313 720l2 -4q-65 -21 -104.5 -58.5t-39.5 -78.5q0 -19 9 -27l60 -19q4 -7 4 -21q0 -26 -15.5 -42.5t-41.5 -16.5q-31 0 -49.5 24t-18.5 63q0 69 54.5 119t139.5 61z" />
    <glyph glyph-name="quoteright" unicode="&#x2019;" horiz-adv-x="235" 
d="M84 457l-2 4q65 21 104.5 59t39.5 78q0 20 -9 27l-60 19q-4 7 -4 21q0 26 16 42.5t41 16.5q31 0 49.5 -24t18.5 -63q0 -68 -54.5 -119t-139.5 -61z" />
    <glyph glyph-name="quotesinglbase" unicode="&#x201a;" horiz-adv-x="235" 
d="M-40 -136l-2 4q65 21 104.5 59t39.5 78q0 19 -9 27l-60 19q-4 7 -4 21q0 26 16 42.5t41 16.5q31 0 49.5 -24t18.5 -63q0 -68 -54.5 -119t-139.5 -61z" />
    <glyph glyph-name="quotedblleft" unicode="&#x201c;" horiz-adv-x="422" 
d="M314 720l2 -4q-65 -21 -104.5 -58.5t-39.5 -78.5q0 -19 9 -27l60 -19q4 -7 4 -21q0 -26 -15.5 -42.5t-41.5 -16.5q-31 0 -49.5 24t-18.5 63q0 69 54.5 119t139.5 61zM500 720l2 -4q-65 -21 -104.5 -58.5t-39.5 -78.5q0 -19 9 -27l60 -19q4 -7 4 -21q0 -26 -15.5 -42.5
t-41.5 -16.5q-31 0 -49.5 24t-18.5 63q0 70 54 119.5t140 60.5z" />
    <glyph glyph-name="quotedblright" unicode="&#x201d;" horiz-adv-x="422" 
d="M84 457l-2 4q65 21 104.5 59t39.5 78q0 20 -9 27l-60 19q-4 7 -4 21q0 26 16 42.5t41 16.5q31 0 49.5 -24t18.5 -63q0 -68 -54.5 -119t-139.5 -61zM270 457l-2 4q65 21 104.5 59t39.5 78q0 20 -9 27l-60 19q-4 7 -4 21q0 26 16 42.5t41 16.5q31 0 49.5 -24t18.5 -63
q0 -68 -54.5 -119t-139.5 -61z" />
    <glyph glyph-name="quotedblbase" unicode="&#x201e;" horiz-adv-x="422" 
d="M-40 -136l-2 4q65 21 104.5 59t39.5 78q0 19 -9 27l-60 19q-4 7 -4 21q0 26 16 42.5t41 16.5q31 0 49.5 -24t18.5 -63q0 -68 -54.5 -119t-139.5 -61zM144 -136l-2 4q65 21 104.5 59t39.5 78q0 19 -9 27l-60 19q-4 7 -4 21q0 26 16 42.5t41 16.5q31 0 49.5 -24t18.5 -63
q0 -68 -54.5 -119t-139.5 -61z" />
    <glyph glyph-name="dagger" unicode="&#x2020;" horiz-adv-x="318" 
d="M238 446l-103 -381h-21l59 381l46 117l-133 -15l13 61l128 -14l7 150h71l-57 -150l134 14l-13 -61l-128 15z" />
    <glyph glyph-name="daggerdbl" unicode="&#x2021;" horiz-adv-x="318" 
d="M167 215l-15 -150h-55l48 150l-133 -14l13 61l128 -15l9 150l4 16l53 150l-133 -15l13 61l127 -14l8 150h71l-57 -150l134 14l-13 -61l-128 15l-10 -150l-4 -16l-53 -150l134 15l-13 -61z" />
    <glyph glyph-name="bullet" unicode="&#x2022;" horiz-adv-x="462" 
d="M53 350q0 85 57 140.5t144 55.5t144 -55.5t57 -140.5q0 -84 -57 -139.5t-144 -55.5t-144 55.5t-57 139.5z" />
    <glyph glyph-name="ellipsis" unicode="&#x2026;" horiz-adv-x="706" 
d="M66 -8q-24 0 -38 13.5t-14 37.5q0 30 20 46.5t48 16.5q52 0 52 -50q0 -31 -20 -47.5t-48 -16.5zM302 -8q-24 0 -38 13.5t-14 37.5q0 30 20 46.5t48 16.5q52 0 52 -50q0 -31 -20 -47.5t-48 -16.5zM537 -8q-24 0 -38 13.5t-14 37.5q0 30 20 46.5t48 16.5q52 0 52 -50
q0 -31 -20 -47.5t-48 -16.5z" />
    <glyph glyph-name="perthousand" unicode="&#x2030;" horiz-adv-x="1020" 
d="M198 344q-52 0 -82.5 35.5t-30.5 96.5q0 95 57.5 167.5t133.5 72.5q53 0 82.5 -35t29.5 -97q0 -95 -57 -167.5t-133 -72.5zM146 0h-42l478 700h42zM199 365q28 0 55.5 37.5t44.5 96t17 116.5q0 80 -42 80t-79.5 -81t-37.5 -170q0 -79 42 -79zM453 -15q-52 0 -82.5 35.5
t-30.5 96.5q0 95 57.5 167.5t133.5 72.5q53 0 82.5 -35t29.5 -97q0 -95 -57 -167.5t-133 -72.5zM783 -15q-52 0 -82.5 35.5t-30.5 96.5q0 95 57.5 167.5t133.5 72.5q53 0 82.5 -35t29.5 -97q0 -95 -57 -167.5t-133 -72.5zM454 6q28 0 55.5 37.5t44.5 96t17 116.5
q0 80 -42 80t-79.5 -81t-37.5 -170q0 -79 42 -79zM784 6q28 0 55.5 37.5t44.5 96t17 116.5q0 80 -42 80t-79.5 -81t-37.5 -170q0 -79 42 -79z" />
    <glyph glyph-name="guilsinglleft" unicode="&#x2039;" horiz-adv-x="199" 
d="M157 106l-4 -18l-120 170l6 30l193 170l-4 -18l-132 -171v-2z" />
    <glyph glyph-name="guilsinglright" unicode="&#x203a;" horiz-adv-x="199" 
d="M58 440l4 18l120 -170l-6 -30l-193 -170l4 18l132 171v2z" />
    <glyph glyph-name="fraction" unicode="&#x2044;" horiz-adv-x="128" 
d="M-114 0h-42l478 700h42z" />
    <glyph glyph-name="zerosuperior" unicode="&#x2070;" horiz-adv-x="341" 
d="M212 341q-51 0 -81 36.5t-30 99.5q0 119 56.5 205.5t136.5 86.5q52 0 81.5 -35.5t29.5 -100.5q0 -119 -56.5 -205.5t-136.5 -86.5zM213 364q43 0 80.5 96t37.5 195q0 91 -39 91q-42 0 -79.5 -96.5t-37.5 -195.5q0 -90 38 -90z" />
    <glyph glyph-name="foursuperior" unicode="&#x2074;" horiz-adv-x="341" 
d="M339 352l-1 -2h-133v2l30 29l17 80h-177l1 3l237 296h89l-57 -267h23l28 26h3l-12 -58h-49l-17 -80zM304 709l-173 -216h128z" />
    <glyph glyph-name="fivesuperior" unicode="&#x2075;" horiz-adv-x="341" 
d="M201 341q-64 0 -110 31l15 72h2l66 -72q11 -8 31 -8q40 0 65.5 24.5t25.5 64.5q0 41 -32.5 80t-102.5 84v2l47 136l153 13l28 25h3l-17 -86l-172 -14l-3 -7q168 -92 168 -200q0 -62 -47.5 -103.5t-119.5 -41.5z" />
    <glyph glyph-name="sixsuperior" unicode="&#x2076;" horiz-adv-x="341" 
d="M240 341q-63 0 -103 40t-40 104q0 100 87.5 178.5t230.5 105.5v-3q-115 -62 -177.5 -140.5t-62.5 -161.5q0 -45 19 -72.5t49 -27.5q28 0 45.5 22.5t17.5 58.5q0 42 -23 70t-63 36v3l65 23q45 0 74 -30t29 -75q0 -55 -42.5 -93t-105.5 -38z" />
    <glyph glyph-name="sevensuperior" unicode="&#x2077;" horiz-adv-x="341" 
d="M438 757l-255 -407h-54v3l241 328v2h-193l-28 -26h-3l21 103h272z" />
    <glyph glyph-name="eightsuperior" unicode="&#x2078;" horiz-adv-x="341" 
d="M218 341q-59 0 -97.5 30.5t-38.5 77.5q0 38 28 66l90 40q-53 42 -53 94q0 50 41.5 85t101.5 35q52 0 86.5 -25.5t34.5 -64.5q0 -32 -22 -51l-89 -40q35 -25 57 -47q27 -25 27 -68q0 -55 -48.5 -93.5t-117.5 -38.5zM229 682q0 -43 60 -86q61 35 61 83q0 30 -16.5 48.5
t-42.5 18.5q-27 0 -44.5 -18.5t-17.5 -45.5zM148 453q0 -39 22 -64t56 -25q33 0 54 21.5t21 52.5q0 15 -4 27t-16 24.5t-18.5 18.5t-26.5 20.5t-25 18.5q-63 -35 -63 -94z" />
    <glyph glyph-name="ninesuperior" unicode="&#x2079;" horiz-adv-x="341" 
d="M265 769q63 0 103 -39.5t40 -104.5q0 -100 -87 -177.5t-231 -106.5v3q115 62 177.5 141t62.5 161q0 45 -19 72.5t-49 27.5q-28 0 -45.5 -22.5t-17.5 -58.5q0 -42 23 -70t63 -36v-3l-65 -23q-45 0 -74 30t-29 75q0 55 43 93t105 38z" />
    <glyph glyph-name="plussuperior" unicode="&#x207a;" horiz-adv-x="277" 
d="M191 539h-99v32h99v98h33v-98h98v-32h-98v-100h-33v100z" />
    <glyph glyph-name="minussuperior" unicode="&#x207b;" horiz-adv-x="205" 
d="M250 539h-158v32h158v-32z" />
    <glyph glyph-name="equalsuperior" unicode="&#x207c;" horiz-adv-x="277" 
d="M322 588h-230v33h230v-33zM322 488h-230v33h230v-33z" />
    <glyph glyph-name="parenleftsuperior" unicode="&#x207d;" horiz-adv-x="183" 
d="M102 496q0 102 53.5 188t147.5 134v-2q-159 -154 -159 -344q0 -98 49 -177l-2 -2q-89 67 -89 203z" />
    <glyph glyph-name="parenrightsuperior" unicode="&#x207e;" horiz-adv-x="183" 
d="M241 614q0 -102 -53.5 -188t-147.5 -134v2q159 155 159 344q0 98 -49 177l2 2q89 -67 89 -203z" />
    <glyph glyph-name="zeroinferior" unicode="&#x2080;" horiz-adv-x="341" 
d="M119 -69q-51 0 -81 36.5t-30 99.5q0 119 57 205.5t136 86.5q52 0 81.5 -35.5t29.5 -100.5q0 -119 -56.5 -205.5t-136.5 -86.5zM120 -46q43 0 80.5 96t37.5 195q0 91 -39 91q-42 0 -79.5 -96.5t-37.5 -195.5q0 -90 38 -90z" />
    <glyph glyph-name="oneinferior" unicode="&#x2081;" horiz-adv-x="242" 
d="M143 -58v-2h-134v2l30 29l67 315h-52l1 2l100 62h51l-81 -379z" />
    <glyph glyph-name="twoinferior" unicode="&#x2082;" horiz-adv-x="341" 
d="M276 26l-18 -86h-281l1 3l109 98q73 63 102.5 108t29.5 92q0 32 -19 51.5t-50 19.5q-66 0 -98 -85l-3 1q5 60 41.5 95.5t93.5 35.5q53 0 86 -30t33 -79q0 -50 -34 -90l-203 -160h178l29 26h3z" />
    <glyph glyph-name="threeinferior" unicode="&#x2083;" horiz-adv-x="341" 
d="M113 -69q-75 0 -121 31l15 72h3l66 -73q11 -7 31 -7q42 0 69 24.5t27 61.5q0 42 -35 68.5t-96 28.5v3l72 44q29 -2 34 -4q49 25 49 64q0 31 -19.5 49.5t-50.5 18.5q-60 0 -90 -74l-3 1q2 56 37 88t92 32q49 0 79 -22.5t30 -59.5t-33 -66l-77 -34q44 -12 68.5 -41
t24.5 -70q0 -58 -49 -96.5t-123 -38.5z" />
    <glyph glyph-name="fourinferior" unicode="&#x2084;" horiz-adv-x="341" 
d="M246 -58l-1 -2h-133v2l30 29l17 80h-177l1 3l237 296h89l-57 -267h23l28 26h3l-12 -58h-49l-17 -80zM211 299l-173 -216h128z" />
    <glyph glyph-name="fiveinferior" unicode="&#x2085;" horiz-adv-x="341" 
d="M108 -69q-64 0 -110 31l15 72h2l66 -72q11 -8 31 -8q40 0 65.5 24.5t25.5 64.5q0 41 -32.5 80t-102.5 84v2l47 136l153 13l28 25h3l-17 -86l-172 -14l-3 -7q168 -92 168 -200q0 -62 -47.5 -103.5t-119.5 -41.5z" />
    <glyph glyph-name="sixinferior" unicode="&#x2086;" horiz-adv-x="341" 
d="M147 -69q-63 0 -103 40t-40 104q0 100 87.5 178.5t230.5 105.5v-3q-115 -62 -177.5 -140.5t-62.5 -161.5q0 -45 19 -72.5t49 -27.5q28 0 45.5 22.5t17.5 58.5q0 42 -23 70t-63 36v3l65 23q45 0 74 -30t29 -75q0 -55 -42.5 -93t-105.5 -38z" />
    <glyph glyph-name="seveninferior" unicode="&#x2087;" horiz-adv-x="341" 
d="M345 347l-255 -407h-54v3l241 328v2h-193l-28 -26h-3l21 103h272z" />
    <glyph glyph-name="eightinferior" unicode="&#x2088;" horiz-adv-x="341" 
d="M130 -69q-60 0 -98 30.5t-38 77.5q0 38 28 66l90 40q-53 44 -53 94t41.5 85t100.5 35q53 0 87 -25.5t34 -64.5q0 -31 -21 -51l-89 -40q36 -27 56 -47q27 -25 27 -68q0 -55 -48 -93.5t-117 -38.5zM141 272q0 -43 60 -86q60 35 60 83q0 30 -16 48.5t-42 18.5
q-27 0 -44.5 -18.5t-17.5 -45.5zM59 43q0 -39 22.5 -64t56.5 -25q33 0 54 21.5t21 52.5q0 13 -4.5 24.5t-9 19.5t-17 19t-17.5 15t-22 16t-21 15q-63 -35 -63 -94z" />
    <glyph glyph-name="nineinferior" unicode="&#x2089;" horiz-adv-x="341" 
d="M176 359q63 0 103 -39.5t40 -104.5q0 -100 -87 -177.5t-231 -106.5v3q115 62 177.5 141t62.5 161q0 45 -19 72.5t-49 27.5q-28 0 -45.5 -22.5t-17.5 -58.5q0 -42 23 -70t63 -36v-3l-65 -23q-45 0 -74 30t-29 75q0 55 43 93t105 38z" />
    <glyph glyph-name="plusinferior" unicode="&#x208a;" horiz-adv-x="277" 
d="M98 129h-99v32h99v98h33v-98h98v-32h-98v-100h-33v100z" />
    <glyph glyph-name="minusinferior" unicode="&#x208b;" horiz-adv-x="205" 
d="M157 129h-158v32h158v-32z" />
    <glyph glyph-name="equalinferior" unicode="&#x208c;" horiz-adv-x="277" 
d="M229 178h-230v33h230v-33zM229 78h-230v33h230v-33z" />
    <glyph glyph-name="parenleftinferior" unicode="&#x208d;" horiz-adv-x="183" 
d="M14 86q0 102 53 188t147 134v-2q-158 -155 -158 -344q0 -100 48 -177l-2 -2q-88 66 -88 203z" />
    <glyph glyph-name="parenrightinferior" unicode="&#x208e;" horiz-adv-x="183" 
d="M154 204q0 -102 -53 -188t-147 -134v2q158 155 158 344q0 100 -48 177l2 2q88 -66 88 -203z" />
    <glyph glyph-name="Euro" unicode="&#x20ac;" 
d="M75 275h-76l5 22h72q5 59 15 93h-68l5 22h68q39 135 134.5 219t214.5 84q84 0 138 -32l-19 -86h-5l-108 83q-9 3 -23 3q-73 0 -138 -76.5t-99 -194.5h255l-11 -22h-249q-10 -45 -15 -93h224l-11 -22h-215q-1 -12 -1 -37q0 -97 41.5 -159t104.5 -62q14 0 23 3l128 95h4
l-22 -99q-51 -31 -134 -31q-109 0 -173.5 73.5t-64.5 198.5v18z" />
    <glyph glyph-name="litre" unicode="&#x2113;" horiz-adv-x="425" 
d="M195 -15q-40 0 -63 28t-23 81q0 39 15 117l-84 -47l5 28l85 46l8 43q50 234 99.5 334t116.5 100q40 0 61.5 -28.5t21.5 -80.5q0 -98 -65.5 -190.5t-166.5 -158.5l-3 -14q-24 -113 -24 -160q0 -65 44 -65q36 0 77 50l4 -3q-15 -35 -44 -57.5t-64 -22.5zM357 687
q-32 0 -64 -87.5t-81 -312.5q80 60 130 146.5t50 176.5q0 77 -35 77z" />
    <glyph glyph-name="numero" unicode="&#x2116;" horiz-adv-x="920" 
d="M784 339q-52 0 -82.5 35.5t-30.5 96.5q0 95 57.5 167.5t133.5 72.5q53 0 82.5 -35t29.5 -97q0 -95 -57 -167.5t-133 -72.5zM785 360q28 0 55.5 37.5t44.5 96t17 116.5q0 80 -42 80t-79.5 -81t-37.5 -170q0 -79 42 -79zM566 523l-111 -523h-27l-244 458l-85 -403l45 -52
l-1 -3h-128l1 3l45 52l96 454l-43 66l1 3h109l226 -423l78 368l-46 52l1 3h128v-3z" />
    <glyph glyph-name="published" unicode="&#x2117;" horiz-adv-x="838" 
d="M441 -15q-157 0 -256.5 101t-99.5 260q0 163 102.5 266t263.5 103q158 0 257 -101t99 -260q0 -162 -102 -265.5t-264 -103.5zM459 20q141 0 221 83.5t80 231.5q0 156 -89 250.5t-238 94.5q-140 0 -220.5 -83.5t-80.5 -231.5q0 -156 89.5 -250.5t237.5 -94.5zM449 166v-3
h-140v3l28 30v314l-28 30v3h220q42 -7 69 -40t27 -75q0 -51 -41.5 -82.5t-108.5 -31.5h-54v-118zM430 527h-9v-192h27q45 0 71 23t26 64q0 46 -32 75.5t-83 29.5z" />
    <glyph glyph-name="trademark" unicode="&#x2122;" horiz-adv-x="815" 
d="M750 611l-126 -223h-2l-123 221v-220l41 -36v-3h-98v3l27 36v263l-27 46v2h88l121 -207l117 207h86v-2l-27 -30v-286l27 -29v-3h-131v3l27 29v229zM311 353v-3h-131v3l27 29v297h-35l-81 -54h-3v75h315v-75h-3l-79 54h-37v-297z" />
    <glyph glyph-name="Omega" unicode="&#x2126;" horiz-adv-x="696" 
d="M634 114l-24 -114h-269l1 5q102 48 176 174.5t74 258.5q0 115 -43 179.5t-119 64.5q-106 0 -184 -124.5t-78 -294.5q0 -86 29.5 -158.5t75.5 -99.5l-1 -5h-270l25 114h4l27 -44h135v4q-120 90 -120 242q0 104 48.5 196t132 147.5t179.5 55.5q115 0 186 -78t71 -199
q0 -119 -65 -217.5t-167 -146.5v-4h122l49 44h5z" />
    <glyph glyph-name="estimated" unicode="&#x212e;" horiz-adv-x="860" 
d="M453 -15q-163 0 -278.5 107.5t-115.5 258.5t115.5 257.5t279.5 106.5t279 -106.5t115 -257.5v-12h-638v-230q43 -42 109.5 -67.5t134.5 -25.5q101 0 187.5 49t129.5 127h38q-47 -93 -143.5 -150t-212.5 -57zM210 593v-221h479v227q-100 85 -235 85q-69 0 -133.5 -24.5
t-110.5 -66.5z" />
    <glyph glyph-name="partialdiff" unicode="&#x2202;" horiz-adv-x="515" 
d="M182 -15q-68 0 -112 51t-44 135q0 128 87 234.5t194 106.5q38 0 66 -15l67 -57h3q13 62 13 110q0 72 -32 129.5t-75 60.5l-117 -75h-4l21 100q23 5 64 5q108 0 168 -73.5t60 -193.5q0 -126 -51.5 -247t-135.5 -196t-172 -75zM172 18q74 0 154 118.5t112 278.5
q-37 37 -88 37q-58 0 -118.5 -49.5t-99.5 -125t-39 -148.5q0 -51 21.5 -81t57.5 -30z" />
    <glyph glyph-name="increment" unicode="&#x2206;" horiz-adv-x="609" 
d="M542 4l-1 -4h-580l1 4l42 45l377 575l-9 72l1 4h99l53 -652zM430 45l-41 533l-342 -533h383z" />
    <glyph glyph-name="product" unicode="&#x220f;" horiz-adv-x="742" 
d="M172 -150h-184l1 4l51 44l161 754l-38 44l1 4h594l-1 -4l-51 -44l-161 -754l37 -44l-1 -4h-184l1 4l51 44l164 766h-312l-165 -766l37 -44z" />
    <glyph glyph-name="summation" unicode="&#x2211;" horiz-adv-x="631" 
d="M524 21l-36 -171h-512l2 11l338 452l-162 382l2 5h490l-25 -113h-5l-114 80h-224l128 -296l-1 -7l-319 -426h287l146 83h5z" />
    <glyph glyph-name="minus" unicode="&#x2212;" horiz-adv-x="311" 
d="M291 252h-263v41h263v-41z" />
    <glyph glyph-name="radical" unicode="&#x221a;" horiz-adv-x="433" 
d="M547 770l-360 -770h-29l-60 381l-55 -19l-7 33l135 46l43 -309l296 638h37z" />
    <glyph glyph-name="infinity" unicode="&#x221e;" horiz-adv-x="788" 
d="M601 100q-63 0 -106 35t-85 100q-42 -64 -85.5 -99.5t-105.5 -35.5q-76 0 -122.5 50.5t-46.5 122.5q0 71 46.5 121.5t121.5 50.5q64 0 107 -35t85 -100q42 64 85.5 99.5t106.5 35.5q75 0 122 -50.5t47 -121.5t-47.5 -122t-122.5 -51zM603 139q52 0 89 39t37 95
q0 55 -37 94t-89 39q-37 0 -70 -21t-52 -45t-47 -67q22 -33 36 -51.5t35.5 -40.5t45.5 -32t52 -10zM90 273q0 -55 38 -94.5t90 -39.5t89 34t79 99q-41 65 -78 99.5t-90 34.5q-52 0 -90 -39t-38 -94z" />
    <glyph glyph-name="integral" unicode="&#x222b;" horiz-adv-x="391" 
d="M-21 -208q-30 0 -56 14l13 61h5l86 -38q16 9 39.5 77.5t40.5 141.5l93 435q61 287 211 287q33 0 56 -14l-13 -61h-4l-87 38q-16 -8 -40 -77.5t-40 -141.5l-92 -435q-63 -287 -212 -287z" />
    <glyph glyph-name="approxequal" unicode="&#x2248;" horiz-adv-x="431" 
d="M322 297q-34 0 -93.5 33.5t-83.5 33.5q-40 0 -82 -49l-28 28q56 62 111 62q35 0 94 -33.5t83 -33.5q40 0 83 49l27 -28q-56 -62 -111 -62zM322 141q-34 0 -93.5 33.5t-83.5 33.5q-40 0 -82 -49l-28 28q56 62 111 62q35 0 94 -33.5t83 -33.5q40 0 83 49l27 -28
q-56 -62 -111 -62z" />
    <glyph glyph-name="notequal" unicode="&#x2260;" horiz-adv-x="431" 
d="M133 57h-44l56 115h-121v41h140l59 120h-199v40h218l55 114h44l-55 -114h121v-40h-140l-59 -120h199v-41h-218z" />
    <glyph glyph-name="lessequal" unicode="&#x2264;" horiz-adv-x="431" 
d="M117 311l293 -108v-40l-393 145v9l393 145v-40l-293 -107v-4zM411 85h-383v40h383v-40z" />
    <glyph glyph-name="greaterequal" unicode="&#x2265;" horiz-adv-x="431" 
d="M301 314l-293 108v40l393 -145v-9l-393 -145v40l293 107v4zM411 85h-383v40h383v-40z" />
    <glyph glyph-name="blacksquare" unicode="&#x25a0;" horiz-adv-x="462" 
d="M437 172h-356v356h356v-356z" />
    <glyph glyph-name="squaresmallblack" unicode="&#x25aa;" horiz-adv-x="262" 
d="M228 279h-142v143h142v-143z" />
    <glyph glyph-name="blackdiamond" unicode="&#x25c6;" horiz-adv-x="462" 
d="M259 121l-229 229l229 229l229 -229z" />
    <glyph glyph-name="lozenge" unicode="&#x25ca;" horiz-adv-x="430" 
d="M258 605l138 -322l-138 -322h-56l-139 322l138 322h57zM232 563h-6l-120 -280l121 -280h6l120 280z" />
    <glyph glyph-name="blackcircle" unicode="&#x25cf;" horiz-adv-x="462" 
d="M56 350q0 85 57 140.5t144 55.5t144 -55.5t57 -140.5q0 -84 -57 -139.5t-144 -55.5t-144 55.5t-57 139.5z" />
    <glyph glyph-name="blacksmalldiamond" unicode="&#x2b29;" horiz-adv-x="262" 
d="M158 259l-92 91l92 92l91 -92z" />
    <glyph glyph-name="s_t" unicode="&#xfb06;" horiz-adv-x="707" 
d="M133 -15q-55 0 -96 23t-41 54q0 18 12.5 30.5t28.5 12.5l98 -93q43 1 69 26t26 65q0 34 -20.5 67t-45 56t-45 58.5t-20.5 74.5q0 56 39.5 98.5t100.5 54.5q-46 71 -46 134q0 124 148 124q111 0 240 -60l76 23h5l-58 -232h127l-12 -33h-123l-97 -390q-7 -37 14 -37
q22 0 69.5 38.5t87.5 85.5l4 -2q-31 -78 -85 -129q-52 -49 -107 -49q-42 0 -60 29t-7 76l94 378h-83l7 33h84l49 198q-128 32 -200 32q-133 0 -133 -115q0 -40 22 -102q18 2 27 2q42 0 68 -15t26 -38q0 -16 -10 -27.5t-24 -13.5l-92 61q-34 -1 -56 -23.5t-22 -60.5
q0 -34 20.5 -67.5t45 -56.5t45 -59.5t20.5 -76.5q0 -69 -48 -112q-48 -42 -122 -42z" />
    <glyph glyph-name="blackslightlysmallcircle" unicode="&#x1f784;" horiz-adv-x="262" 
d="M77 350q0 34 23 56.5t57 22.5q35 0 58 -22.5t23 -56.5t-23 -56t-58 -22q-34 0 -57 22t-23 56z" />
    <glyph glyph-name="germandbls.cap" horiz-adv-x="1038" 
d="M229 -15q-63 0 -123 22q-61 22 -97 60l22 103h4l127 -140q24 -15 71 -15q63 0 102.5 37.5t39.5 97.5q0 39 -23 76t-55.5 69t-65 64.5t-55.5 75t-23 88.5q0 83 60.5 137.5t153.5 54.5q47 0 95 -14.5t79 -38.5l-23 -98h-5l-107 109q-21 12 -48 12q-53 0 -88 -36t-35 -90
q0 -38 23 -76t55.5 -69.5t65 -65t55.5 -75.5t23 -88q0 -88 -64.5 -144t-163.5 -56zM748 -15q-63 0 -123 22q-61 22 -97 60l22 103h4l127 -140q24 -15 71 -15q63 0 102.5 37.5t39.5 97.5q0 39 -23 76t-55.5 69t-65 64.5t-55.5 75t-23 88.5q0 83 60.5 137.5t153.5 54.5
q47 0 95 -14.5t79 -38.5l-23 -98h-5l-107 109q-21 12 -48 12q-53 0 -88 -36t-35 -90q0 -38 23 -76t55.5 -69.5t65 -65t55.5 -75.5t23 -88q0 -88 -64.5 -144t-163.5 -56z" />
    <glyph glyph-name="i.TRK" horiz-adv-x="287" 
d="M237 656q-48 0 -48 46q0 27 18 44.5t45 17.5q48 0 48 -47q0 -27 -18 -44t-45 -17zM98 -15q-22 0 -33.5 14.5t-7.5 34.5l86 403h-5l-84 -70l-2 5q62 129 154 129h36l-95 -453h3l84 69l3 -3q-27 -58 -65.5 -93.5t-73.5 -35.5z" />
    <glyph glyph-name="A.small" horiz-adv-x="513" 
d="M456 3l-1 -3h-153l1 3l47 38l-9 124h-220l-70 -110l53 -52l-1 -3h-136l1 3l37 40l307 470l-7 62l1 3h94l41 -537zM339 195l-20 279l-178 -279h198z" />
    <glyph glyph-name="Agrave.small" horiz-adv-x="513" 
d="M262 753h82l27 -130h-5l-104 125v5zM456 3l-1 -3h-153l1 3l47 38l-9 124h-220l-70 -110l53 -52l-1 -3h-136l1 3l37 40l307 470l-7 62l1 3h94l41 -537zM339 195l-20 279l-178 -279h198z" />
    <glyph glyph-name="Aacute.small" horiz-adv-x="513" 
d="M396 623h-5l80 130h90v-5zM456 3l-1 -3h-153l1 3l47 38l-9 124h-220l-70 -110l53 -52l-1 -3h-136l1 3l37 40l307 470l-7 62l1 3h94l41 -537zM339 195l-20 279l-178 -279h198z" />
    <glyph glyph-name="Acircumflex.small" horiz-adv-x="513" 
d="M382 753h28l85 -128l-4 -2l-100 78h-4l-142 -78l-2 2zM456 3l-1 -3h-153l1 3l47 38l-9 124h-220l-70 -110l53 -52l-1 -3h-136l1 3l37 40l307 470l-7 62l1 3h94l41 -537zM339 195l-20 279l-178 -279h198z" />
    <glyph glyph-name="Atilde.small" horiz-adv-x="513" 
d="M442 638q-23 0 -69 25.5t-70 25.5q-19 0 -38.5 -11.5t-57.5 -46.5l-3 2q46 64 70.5 84.5t48.5 20.5t69 -25.5t70 -25.5q19 0 39.5 11.5t57.5 46.5l2 -2q-44 -63 -69.5 -84t-49.5 -21zM456 3l-1 -3h-153l1 3l47 38l-9 124h-220l-70 -110l53 -52l-1 -3h-136l1 3l37 40
l307 470l-7 62l1 3h94l41 -537zM339 195l-20 279l-178 -279h198z" />
    <glyph glyph-name="Adieresis.small" horiz-adv-x="513" 
d="M294 646q-17 0 -27 9.5t-10 25.5q0 20 14.5 34.5t35.5 14.5q17 0 27 -9.5t10 -25.5q0 -21 -14 -35t-36 -14zM458 646q-17 0 -27 9.5t-10 25.5q0 20 15 34.5t36 14.5q36 0 36 -35q0 -21 -14 -35t-36 -14zM456 3l-1 -3h-153l1 3l47 38l-9 124h-220l-70 -110l53 -52l-1 -3
h-136l1 3l37 40l307 470l-7 62l1 3h94l41 -537zM339 195l-20 279l-178 -279h198z" />
    <glyph glyph-name="Amacron.small" horiz-adv-x="513" 
d="M517 671h-257l8 34h256zM456 3l-1 -3h-153l1 3l47 38l-9 124h-220l-70 -110l53 -52l-1 -3h-136l1 3l37 40l307 470l-7 62l1 3h94l41 -537zM339 195l-20 279l-178 -279h198z" />
    <glyph glyph-name="Abreve.small" horiz-adv-x="513" 
d="M361 623q-52 0 -81.5 25.5t-29.5 69.5q0 20 4 35h4q7 -85 108 -85q102 0 144 85h4q-13 -63 -52.5 -96.5t-100.5 -33.5zM456 3l-1 -3h-153l1 3l47 38l-9 124h-220l-70 -110l53 -52l-1 -3h-136l1 3l37 40l307 470l-7 62l1 3h94l41 -537zM339 195l-20 279l-178 -279h198z
" />
    <glyph glyph-name="Aring.small" horiz-adv-x="513" 
d="M369 623q-44 0 -70 20.5t-26 55.5q0 44 38 73q39 30 94 30q44 0 69.5 -20.5t25.5 -55.5q0 -43 -38 -73t-93 -30zM378 645q28 0 46.5 24.5t18.5 55.5q0 25 -12.5 40t-34.5 15q-27 0 -46 -24.5t-19 -55.5q0 -25 12.5 -40t34.5 -15zM456 3l-1 -3h-153l1 3l47 38l-9 124h-220
l-70 -110l53 -52l-1 -3h-136l1 3l37 40l307 470l-7 62l1 3h94l41 -537zM339 195l-20 279l-178 -279h198z" />
    <glyph glyph-name="Aringacute.small" horiz-adv-x="513" 
d="M397 802h-5l80 130h90v-5zM365 603q-44 0 -70 20.5t-26 55.5q0 44 38 73q39 30 94 30q44 0 69.5 -20.5t25.5 -55.5q0 -43 -38 -73t-93 -30zM374 625q28 0 46.5 24.5t18.5 55.5q0 25 -12.5 40t-34.5 15q-27 0 -46 -24.5t-19 -55.5q0 -25 12.5 -40t34.5 -15zM456 3l-1 -3
h-153l1 3l47 38l-9 124h-220l-70 -110l53 -52l-1 -3h-136l1 3l37 40l307 470l-7 62l1 3h94l41 -537zM339 195l-20 279l-178 -279h198z" />
    <glyph glyph-name="Aogonek.small" horiz-adv-x="513" 
d="M391 -147l3 -3q-29 -50 -87 -50q-36 0 -60 19t-24 47q0 24 13 43l116 100l-11 156h-220l-70 -110l53 -52l-1 -3h-136l1 3l37 40l307 470l-7 62l1 3h94l41 -537l15 -38l-1 -3h-87q-45 -42 -62 -67t-17 -49q0 -22 13.5 -36t37.5 -14q29 0 51 19zM339 195l-20 279l-178 -279
h198z" />
    <glyph glyph-name="AE.small" horiz-adv-x="754" 
d="M684 115l-24 -115h-401l1 3l43 38l27 128h-193l-86 -114l52 -52l-1 -3h-132l1 3l379 507l-8 65l1 3h411l-20 -98h-4l-90 70h-137l-49 -231h137l86 52h4l-29 -133h-4l-65 52h-137l-55 -262h159l131 87h3zM405 523h-3l-243 -324h178z" />
    <glyph glyph-name="AEacute.small" horiz-adv-x="754" 
d="M501 623h-5l80 130h90v-5zM684 115l-24 -115h-401l1 3l43 38l27 128h-193l-86 -114l52 -52l-1 -3h-132l1 3l379 507l-8 65l1 3h411l-20 -98h-4l-90 70h-137l-49 -231h137l86 52h4l-29 -133h-4l-65 52h-137l-55 -262h159l131 87h3zM405 523h-3l-243 -324h178z" />
    <glyph glyph-name="B.small" horiz-adv-x="534" 
d="M481 171q0 -72 -66 -121.5t-168 -49.5h-232l1 3l43 38l105 496l-31 38l1 3h248q47 -8 78 -42.5t31 -80.5q0 -49 -36.5 -88t-95.5 -53q54 -11 88 -50.5t34 -92.5zM281 553h-22l-49 -232h77q53 0 87 32.5t34 84.5t-35 83.5t-92 31.5zM238 293h-34l-56 -265h72
q79 0 124.5 36t45.5 97q0 59 -42.5 95.5t-109.5 36.5z" />
    <glyph glyph-name="C.small" horiz-adv-x="511" 
d="M259 -12q-95 0 -152.5 65t-57.5 173q0 153 98 258.5t238 105.5q92 0 141 -34l-20 -94h-4l-102 93q-18 6 -39 6q-84 0 -150.5 -101.5t-66.5 -231.5q0 -94 37.5 -144.5t105.5 -50.5q114 0 191 140l4 -2q-17 -82 -78 -132.5t-145 -50.5z" />
    <glyph glyph-name="Cacute.small" horiz-adv-x="511" 
d="M382 623h-5l80 130h90v-5zM259 -12q-95 0 -152.5 65t-57.5 173q0 153 98 258.5t238 105.5q92 0 141 -34l-20 -94h-4l-102 93q-18 6 -39 6q-84 0 -150.5 -101.5t-66.5 -231.5q0 -94 37.5 -144.5t105.5 -50.5q114 0 191 140l4 -2q-17 -82 -78 -132.5t-145 -50.5z" />
    <glyph glyph-name="Ccircumflex.small" horiz-adv-x="511" 
d="M368 753h28l85 -128l-4 -2l-100 78h-4l-142 -78l-2 2zM259 -12q-95 0 -152.5 65t-57.5 173q0 153 98 258.5t238 105.5q92 0 141 -34l-20 -94h-4l-102 93q-18 6 -39 6q-84 0 -150.5 -101.5t-66.5 -231.5q0 -94 37.5 -144.5t105.5 -50.5q114 0 191 140l4 -2
q-17 -82 -78 -132.5t-145 -50.5z" />
    <glyph glyph-name="Ccaron.small" horiz-adv-x="511" 
d="M369 623h-29l-84 128l3 2l100 -78h4l142 78l2 -2zM259 -12q-95 0 -152.5 65t-57.5 173q0 153 98 258.5t238 105.5q92 0 141 -34l-20 -94h-4l-102 93q-18 6 -39 6q-84 0 -150.5 -101.5t-66.5 -231.5q0 -94 37.5 -144.5t105.5 -50.5q114 0 191 140l4 -2q-17 -82 -78 -132.5
t-145 -50.5z" />
    <glyph glyph-name="Cdotaccent.small" horiz-adv-x="511" 
d="M360 636q-20 0 -32.5 12t-12.5 31q0 24 18 41.5t43 17.5q20 0 32.5 -11.5t12.5 -31.5q0 -24 -17.5 -41.5t-43.5 -17.5zM259 -12q-95 0 -152.5 65t-57.5 173q0 153 98 258.5t238 105.5q92 0 141 -34l-20 -94h-4l-102 93q-18 6 -39 6q-84 0 -150.5 -101.5t-66.5 -231.5
q0 -94 37.5 -144.5t105.5 -50.5q114 0 191 140l4 -2q-17 -82 -78 -132.5t-145 -50.5z" />
    <glyph glyph-name="Ccedilla.small" horiz-adv-x="511" 
d="M285 -128q0 -32 -29 -52t-76 -20q-48 0 -79 13l10 47h6l74 -42q15 1 24.5 12.5t9.5 28.5q0 42 -53 89v3l71 37q-90 6 -142 70t-52 168q0 153 98 258.5t238 105.5q92 0 141 -34l-20 -94h-4l-102 93q-18 6 -39 6q-84 0 -150.5 -101.5t-66.5 -231.5q0 -94 37.5 -144.5
t105.5 -50.5q114 0 191 140l4 -2q-17 -80 -73 -129q-55 -49 -136 -54l-40 -22q52 -49 52 -94z" />
    <glyph glyph-name="D.small" horiz-adv-x="593" 
d="M576 328q0 -146 -99 -237t-285 -91h-177l1 3l43 38l105 496l-31 38l1 3h245q86 -18 141.5 -89t55.5 -161zM258 554l-111 -526h36q139 0 219.5 79.5t80.5 211.5q0 96 -62.5 161t-162.5 74z" />
    <glyph glyph-name="Dcaron.small" horiz-adv-x="592" 
d="M346 623h-29l-84 128l3 2l100 -78h4l142 78l2 -2zM576 328q0 -146 -99 -237t-285 -91h-177l1 3l43 38l105 496l-31 38l1 3h245q86 -18 141.5 -89t55.5 -161zM258 554l-111 -526h36q139 0 219.5 79.5t80.5 211.5q0 96 -62.5 161t-162.5 74z" />
    <glyph glyph-name="Dcroat.small" horiz-adv-x="592" 
d="M110 281h-36l7 31h35l48 225l-31 38l1 3h245q86 -18 141.5 -89t55.5 -161q0 -146 -99 -237t-285 -91h-177l1 3l43 38zM330 312l-7 -31h-123l-53 -253h36q139 0 219.5 79.5t80.5 211.5q0 96 -62.5 161t-162.5 74l-51 -242h123z" />
    <glyph glyph-name="Eth.small" horiz-adv-x="592" 
d="M110 281h-36l7 31h35l48 225l-31 38l1 3h245q86 -18 141.5 -89t55.5 -161q0 -146 -99 -237t-285 -91h-177l1 3l43 38zM330 312l-7 -31h-123l-53 -253h36q139 0 219.5 79.5t80.5 211.5q0 96 -62.5 161t-162.5 74l-51 -242h123z" />
    <glyph glyph-name="E.small" horiz-adv-x="509" 
d="M440 115l-24 -115h-401l1 3l43 38l105 496l-31 38l1 3h376l-20 -98h-5l-90 70h-137l-49 -231h138l85 52h4l-28 -133h-4l-65 52h-137l-55 -262h159l131 87h3z" />
    <glyph glyph-name="Egrave.small" horiz-adv-x="509" 
d="M226 753h82l27 -130h-5l-104 125v5zM440 115l-24 -115h-401l1 3l43 38l105 496l-31 38l1 3h376l-20 -98h-5l-90 70h-137l-49 -231h138l85 52h4l-28 -133h-4l-65 52h-137l-55 -262h159l131 87h3z" />
    <glyph glyph-name="Eacute.small" horiz-adv-x="509" 
d="M360 623h-5l80 130h90v-5zM440 115l-24 -115h-401l1 3l43 38l105 496l-31 38l1 3h376l-20 -98h-5l-90 70h-137l-49 -231h138l85 52h4l-28 -133h-4l-65 52h-137l-55 -262h159l131 87h3z" />
    <glyph glyph-name="Ecircumflex.small" horiz-adv-x="509" 
d="M346 753h28l85 -128l-4 -2l-100 78h-4l-142 -78l-2 2zM440 115l-24 -115h-401l1 3l43 38l105 496l-31 38l1 3h376l-20 -98h-5l-90 70h-137l-49 -231h138l85 52h4l-28 -133h-4l-65 52h-137l-55 -262h159l131 87h3z" />
    <glyph glyph-name="Ecaron.small" horiz-adv-x="509" 
d="M347 623h-29l-84 128l3 2l100 -78h4l142 78l2 -2zM440 115l-24 -115h-401l1 3l43 38l105 496l-31 38l1 3h376l-20 -98h-5l-90 70h-137l-49 -231h138l85 52h4l-28 -133h-4l-65 52h-137l-55 -262h159l131 87h3z" />
    <glyph glyph-name="Edieresis.small" horiz-adv-x="509" 
d="M257 646q-17 0 -27 9.5t-10 25.5q0 20 14.5 34.5t35.5 14.5q17 0 27 -9.5t10 -25.5q0 -21 -14.5 -35t-35.5 -14zM421 646q-17 0 -27 9.5t-10 25.5q0 20 15 34.5t36 14.5q36 0 36 -35q0 -21 -14.5 -35t-35.5 -14zM440 115l-24 -115h-401l1 3l43 38l105 496l-31 38l1 3h376
l-20 -98h-5l-90 70h-137l-49 -231h138l85 52h4l-28 -133h-4l-65 52h-137l-55 -262h159l131 87h3z" />
    <glyph glyph-name="Emacron.small" horiz-adv-x="509" 
d="M481 671h-257l8 34h256zM440 115l-24 -115h-401l1 3l43 38l105 496l-31 38l1 3h376l-20 -98h-5l-90 70h-137l-49 -231h138l85 52h4l-28 -133h-4l-65 52h-137l-55 -262h159l131 87h3z" />
    <glyph glyph-name="Ebreve.small" horiz-adv-x="509" 
d="M325 623q-52 0 -81.5 25.5t-29.5 69.5q0 20 4 35h4q7 -85 108 -85q102 0 144 85h4q-13 -63 -52.5 -96.5t-100.5 -33.5zM440 115l-24 -115h-401l1 3l43 38l105 496l-31 38l1 3h376l-20 -98h-5l-90 70h-137l-49 -231h138l85 52h4l-28 -133h-4l-65 52h-137l-55 -262h159
l131 87h3z" />
    <glyph glyph-name="Edotaccent.small" horiz-adv-x="509" 
d="M337 636q-20 0 -32.5 12t-12.5 31q0 24 18 41.5t43 17.5q20 0 32.5 -11.5t12.5 -31.5q0 -24 -17.5 -41.5t-43.5 -17.5zM440 115l-24 -115h-401l1 3l43 38l105 496l-31 38l1 3h376l-20 -98h-5l-90 70h-137l-49 -231h138l85 52h4l-28 -133h-4l-65 52h-137l-55 -262h159
l131 87h3z" />
    <glyph glyph-name="Eogonek.small" horiz-adv-x="509" 
d="M440 115l-24 -115h-47q-45 -42 -62 -67t-17 -49q0 -22 13.5 -36t37.5 -14q29 0 51 19l3 -3q-29 -50 -87 -50q-36 0 -60 19t-24 47q0 24 13 43l106 91h-328l1 3l43 38l105 496l-31 38l1 3h376l-20 -98h-5l-90 70h-137l-49 -231h138l85 52h4l-28 -133h-4l-65 52h-137
l-55 -262h159l131 87h3z" />
    <glyph glyph-name="F.small" horiz-adv-x="483" 
d="M180 3l-1 -3h-164l1 3l43 38l105 496l-31 38l1 3h377l-21 -98h-4l-89 70h-139l-51 -243h134l87 52h4l-29 -134h-4l-65 53h-133l-51 -237z" />
    <glyph glyph-name="G.small" horiz-adv-x="592" 
d="M299 -12q-108 0 -176 73t-68 187q0 147 103.5 244.5t257.5 97.5q49 0 97.5 -12.5t71.5 -29.5l-20 -95h-4l-110 102q-15 7 -50 7q-106 0 -178 -86.5t-72 -212.5q0 -104 57 -173t143 -69q18 0 33 3l58 272l-30 38l1 3h164l-1 -3l-43 -38l-66 -308h-4l-55 28h-2
q-54 -28 -107 -28z" />
    <glyph glyph-name="Gcircumflex.small" horiz-adv-x="592" 
d="M394 753h28l85 -128l-4 -2l-100 78h-4l-142 -78l-2 2zM299 -12q-108 0 -176 73t-68 187q0 147 103.5 244.5t257.5 97.5q49 0 97.5 -12.5t71.5 -29.5l-20 -95h-4l-110 102q-15 7 -50 7q-106 0 -178 -86.5t-72 -212.5q0 -104 57 -173t143 -69q18 0 33 3l58 272l-30 38l1 3
h164l-1 -3l-43 -38l-66 -308h-4l-55 28h-2q-54 -28 -107 -28z" />
    <glyph glyph-name="Gbreve.small" horiz-adv-x="592" 
d="M373 623q-52 0 -81.5 25.5t-29.5 69.5q0 20 4 35h4q7 -85 108 -85q102 0 144 85h4q-13 -63 -52.5 -96.5t-100.5 -33.5zM299 -12q-108 0 -176 73t-68 187q0 147 103.5 244.5t257.5 97.5q49 0 97.5 -12.5t71.5 -29.5l-20 -95h-4l-110 102q-15 7 -50 7q-106 0 -178 -86.5
t-72 -212.5q0 -104 57 -173t143 -69q18 0 33 3l58 272l-30 38l1 3h164l-1 -3l-43 -38l-66 -308h-4l-55 28h-2q-54 -28 -107 -28z" />
    <glyph glyph-name="Gdotaccent.small" horiz-adv-x="592" 
d="M385 636q-20 0 -32.5 12t-12.5 31q0 24 18 41.5t43 17.5q20 0 32.5 -11.5t12.5 -31.5q0 -24 -17.5 -41.5t-43.5 -17.5zM299 -12q-108 0 -176 73t-68 187q0 147 103.5 244.5t257.5 97.5q49 0 97.5 -12.5t71.5 -29.5l-20 -95h-4l-110 102q-15 7 -50 7q-106 0 -178 -86.5
t-72 -212.5q0 -104 57 -173t143 -69q18 0 33 3l58 272l-30 38l1 3h164l-1 -3l-43 -38l-66 -308h-4l-55 28h-2q-54 -28 -107 -28z" />
    <glyph glyph-name="Gcommaaccent.small" horiz-adv-x="592" 
d="M299 -12q-108 0 -176 73t-68 187q0 147 103.5 244.5t257.5 97.5q49 0 97.5 -12.5t71.5 -29.5l-20 -95h-4l-110 102q-15 7 -50 7q-106 0 -178 -86.5t-72 -212.5q0 -104 57 -173t143 -69q18 0 33 3l58 272l-30 38l1 3h164l-1 -3l-43 -38l-66 -308h-4l-55 28h-2
q-54 -28 -107 -28zM242 -200l-1 4q20 11 40 34q20 22 25 39v4l-58 14q-5 5 -5 14q0 19 16 31.5t38 12.5q25 0 42.5 -16t17.5 -40q0 -31 -32 -58.5t-83 -38.5z" />
    <glyph glyph-name="H.small" horiz-adv-x="629" 
d="M179 0h-164l1 3l43 38l105 496l-31 38l1 3h164l-1 -3l-42 -38l-48 -228h257l49 228l-30 38v3h164l-1 -3l-41 -38l-107 -496l31 -38l-1 -3h-163l1 3l41 38l50 236h-257l-50 -236l30 -38z" />
    <glyph glyph-name="Hcircumflex.small" horiz-adv-x="629" 
d="M415 753h28l85 -128l-4 -2l-100 78h-4l-142 -78l-2 2zM179 0h-164l1 3l43 38l105 496l-31 38l1 3h164l-1 -3l-42 -38l-48 -228h257l49 228l-30 38v3h164l-1 -3l-41 -38l-107 -496l31 -38l-1 -3h-163l1 3l41 38l50 236h-257l-50 -236l30 -38z" />
    <glyph glyph-name="Hbar.small" horiz-adv-x="629" 
d="M179 0h-164l1 3l43 38l79 372h-37l7 30h36l20 94l-31 38l1 3h164l-1 -3l-42 -38l-20 -94h258l20 94l-30 38v3h164l-1 -3l-41 -38l-20 -94h34l-7 -30h-34l-80 -372l31 -38l-1 -3h-163l1 3l41 38l50 236h-257l-50 -236l30 -38zM229 413l-22 -104h257l22 104h-257z" />
    <glyph glyph-name="I.small" horiz-adv-x="280" 
d="M179 3l-1 -3h-163l1 3l43 38l105 496l-31 38l1 3h164l-1 -3l-42 -38l-105 -496z" />
    <glyph glyph-name="Igrave.small" horiz-adv-x="280" 
d="M122 753h82l27 -130h-5l-104 125v5zM179 3l-1 -3h-163l1 3l43 38l105 496l-31 38l1 3h164l-1 -3l-42 -38l-105 -496z" />
    <glyph glyph-name="Iacute.small" horiz-adv-x="280" 
d="M256 623h-5l80 130h90v-5zM179 3l-1 -3h-163l1 3l43 38l105 496l-31 38l1 3h164l-1 -3l-42 -38l-105 -496z" />
    <glyph glyph-name="Icircumflex.small" horiz-adv-x="280" 
d="M242 753h28l85 -128l-4 -2l-100 78h-4l-142 -78l-2 2zM179 3l-1 -3h-163l1 3l43 38l105 496l-31 38l1 3h164l-1 -3l-42 -38l-105 -496z" />
    <glyph glyph-name="Itilde.small" horiz-adv-x="280" 
d="M302 638q-23 0 -69 25.5t-70 25.5q-19 0 -38.5 -11.5t-57.5 -46.5l-3 2q46 64 70.5 84.5t48.5 20.5t69 -25.5t70 -25.5q19 0 39.5 11.5t57.5 46.5l2 -2q-44 -63 -69.5 -84t-49.5 -21zM179 3l-1 -3h-163l1 3l43 38l105 496l-31 38l1 3h164l-1 -3l-42 -38l-105 -496z" />
    <glyph glyph-name="Idieresis.small" horiz-adv-x="280" 
d="M153 646q-17 0 -27 9.5t-10 25.5q0 20 14.5 34.5t35.5 14.5q17 0 27 -9.5t10 -25.5q0 -21 -14.5 -35t-35.5 -14zM317 646q-17 0 -27 9.5t-10 25.5q0 20 15 34.5t36 14.5q36 0 36 -35q0 -21 -14.5 -35t-35.5 -14zM179 3l-1 -3h-163l1 3l43 38l105 496l-31 38l1 3h164
l-1 -3l-42 -38l-105 -496z" />
    <glyph glyph-name="Imacron.small" horiz-adv-x="280" 
d="M377 671h-257l8 34h256zM179 3l-1 -3h-163l1 3l43 38l105 496l-31 38l1 3h164l-1 -3l-42 -38l-105 -496z" />
    <glyph glyph-name="Ibreve.small" horiz-adv-x="280" 
d="M221 623q-52 0 -81.5 25.5t-29.5 69.5q0 20 4 35h4q7 -85 108 -85q102 0 144 85h4q-13 -63 -52.5 -96.5t-100.5 -33.5zM179 3l-1 -3h-163l1 3l43 38l105 496l-31 38l1 3h164l-1 -3l-42 -38l-105 -496z" />
    <glyph glyph-name="Idotaccent.small" horiz-adv-x="280" 
d="M233 636q-20 0 -32.5 12t-12.5 31q0 24 18 41.5t43 17.5q20 0 32.5 -11.5t12.5 -31.5q0 -24 -17.5 -41.5t-43.5 -17.5zM179 3l-1 -3h-163l1 3l43 38l105 496l-31 38l1 3h164l-1 -3l-42 -38l-105 -496z" />
    <glyph glyph-name="Iogonek.small" horiz-adv-x="280" 
d="M179 3l-1 -3h-70q-45 -42 -62 -67t-17 -49q0 -22 13.5 -36t37.5 -14q29 0 51 19l3 -3q-29 -50 -87 -50q-36 0 -60 19t-24 47q0 24 13 43l106 91h-67l1 3l43 38l105 496l-31 38l1 3h164l-1 -3l-42 -38l-105 -496z" />
    <glyph glyph-name="IJ.small" horiz-adv-x="559" 
d="M179 3l-1 -3h-163l1 3l43 38l105 496l-31 38l1 3h164l-1 -3l-42 -38l-105 -496zM223 -165q-40 0 -76 12l16 84h4l84 -70q23 3 43.5 37t31.5 86l118 553l-31 38l1 3h164l-1 -3l-42 -38l-109 -508q-41 -194 -203 -194z" />
    <glyph glyph-name="J.small" horiz-adv-x="279" 
d="M-57 -165q-40 0 -76 12l16 84h4l84 -70q23 3 43.5 37t31.5 86l118 553l-31 38l1 3h164l-1 -3l-42 -38l-109 -508q-41 -194 -203 -194z" />
    <glyph glyph-name="Jcircumflex.small" horiz-adv-x="279" 
d="M242 753h28l85 -128l-4 -2l-100 78h-4l-142 -78l-2 2zM-57 -165q-40 0 -76 12l16 84h4l84 -70q23 3 43.5 37t31.5 86l118 553l-31 38l1 3h164l-1 -3l-42 -38l-109 -508q-41 -194 -203 -194z" />
    <glyph glyph-name="K.small" horiz-adv-x="560" 
d="M180 3l-1 -3h-164l1 3l43 38l105 496l-31 38l1 3h164l-1 -3l-42 -38l-53 -251l287 237l-35 51l1 4h146l-1 -4l-266 -217l180 -354l-1 -3h-155l1 4l36 37l-133 258l-70 -57l-42 -201z" />
    <glyph glyph-name="Kcommaaccent.small" horiz-adv-x="560" 
d="M180 3l-1 -3h-164l1 3l43 38l105 496l-31 38l1 3h164l-1 -3l-42 -38l-53 -251l287 237l-35 51l1 4h146l-1 -4l-266 -217l180 -354l-1 -3h-155l1 4l36 37l-133 258l-70 -57l-42 -201zM191 -200l-1 4q20 11 40 34q20 22 25 39v4l-58 14q-5 5 -5 14q0 19 16 31.5t38 12.5
q25 0 42.5 -16t17.5 -40q0 -31 -32 -58.5t-83 -38.5z" />
    <glyph glyph-name="L.small" horiz-adv-x="456" 
d="M412 118l-24 -118h-373l1 3l43 38l104 496l-30 38l1 3h163l-1 -3l-41 -38l-108 -509h132l130 90h3z" />
    <glyph glyph-name="Lacute.small" horiz-adv-x="456" 
d="M256 623h-5l80 130h90v-5zM412 118l-24 -118h-373l1 3l43 38l104 496l-30 38l1 3h163l-1 -3l-41 -38l-108 -509h132l130 90h3z" />
    <glyph glyph-name="Lcaron.small" horiz-adv-x="456" 
d="M412 118l-24 -118h-373l1 3l43 38l104 496l-30 38l1 3h163l-1 -3l-41 -38l-108 -509h132l130 90h3zM293 377h-4l82 201h83l-1 -5z" />
    <glyph glyph-name="Lcommaaccent.small" horiz-adv-x="456" 
d="M412 118l-24 -118h-373l1 3l43 38l104 496l-30 38l1 3h163l-1 -3l-41 -38l-108 -509h132l130 90h3zM123 -200l-1 4q20 11 40 34q20 22 25 39v4l-58 14q-5 5 -5 14q0 19 16 31.5t38 12.5q25 0 42.5 -16t17.5 -40q0 -31 -32 -58.5t-83 -38.5z" />
    <glyph glyph-name="Lslash.small" horiz-adv-x="456" 
d="M98 228l-28 -10l-10 29l45 16l58 274l-30 38l1 3h163l-1 -3l-41 -38l-51 -240l122 42l10 -30l-140 -48l-49 -233h132l130 90h3l-24 -118h-373l1 3l43 38z" />
    <glyph glyph-name="Ldot.small" horiz-adv-x="456" 
d="M412 118l-24 -118h-373l1 3l43 38l104 496l-30 38l1 3h163l-1 -3l-41 -38l-108 -509h132l130 90h3zM384 260q-20 0 -32.5 12t-12.5 31q0 24 18 41.5t43 17.5q20 0 32.5 -11.5t12.5 -31.5q0 -24 -17.5 -41.5t-43.5 -17.5z" />
    <glyph glyph-name="M.small" horiz-adv-x="710" 
d="M579 495l-279 -434h-7l-82 390h-4l-134 -396l49 -52l-1 -3h-137l1 3l48 52l158 448l-32 72v3h115l80 -372l236 372h132l-1 -3l-41 -38l-88 -496l32 -38l-1 -3h-163l1 3l40 38l82 454h-4z" />
    <glyph glyph-name="N.small" horiz-adv-x="586" 
d="M566 523l-111 -523h-27l-244 458l-85 -403l45 -52l-1 -3h-128l1 3l45 52l96 454l-43 66l1 3h109l226 -423l78 368l-46 52l1 3h128v-3z" />
    <glyph glyph-name="Nacute.small" horiz-adv-x="586" 
d="M406 623h-5l80 130h90v-5zM566 523l-111 -523h-27l-244 458l-85 -403l45 -52l-1 -3h-128l1 3l45 52l96 454l-43 66l1 3h109l226 -423l78 368l-46 52l1 3h128v-3z" />
    <glyph glyph-name="Ncaron.small" horiz-adv-x="586" 
d="M393 623h-29l-84 128l3 2l100 -78h4l142 78l2 -2zM566 523l-111 -523h-27l-244 458l-85 -403l45 -52l-1 -3h-128l1 3l45 52l96 454l-43 66l1 3h109l226 -423l78 368l-46 52l1 3h128v-3z" />
    <glyph glyph-name="Ntilde.small" horiz-adv-x="586" 
d="M452 638q-23 0 -69 25.5t-70 25.5q-19 0 -38.5 -11.5t-57.5 -46.5l-3 2q46 64 70.5 84.5t48.5 20.5t69 -25.5t70 -25.5q19 0 39.5 11.5t57.5 46.5l2 -2q-44 -63 -69.5 -84t-49.5 -21zM566 523l-111 -523h-27l-244 458l-85 -403l45 -52l-1 -3h-128l1 3l45 52l96 454
l-43 66l1 3h109l226 -423l78 368l-46 52l1 3h128v-3z" />
    <glyph glyph-name="Ncommaaccent.small" horiz-adv-x="586" 
d="M566 523l-111 -523h-27l-244 458l-85 -403l45 -52l-1 -3h-128l1 3l45 52l96 454l-43 66l1 3h109l226 -423l78 368l-46 52l1 3h128v-3zM175 -200l-1 4q20 11 40 34q20 22 25 39v4l-58 14q-5 5 -5 14q0 19 16 31.5t38 12.5q25 0 42.5 -16t17.5 -40q0 -31 -32 -58.5
t-83 -38.5z" />
    <glyph glyph-name="Eng.small" horiz-adv-x="586" 
d="M273 -165q-36 0 -72 12l18 84h4l83 -70q35 1 67 46q31 43 45 111l-234 440l-85 -403l45 -52l-1 -3h-128l1 3l45 52l96 454l-43 66l1 3h109l226 -419l78 364l-45 52l1 3h128l-1 -3l-45 -52l-99 -466l-6 -28q-41 -194 -188 -194z" />
    <glyph glyph-name="O.small" horiz-adv-x="586" 
d="M257 -12q-97 0 -152.5 62t-55.5 171q0 153 92 261t222 108q97 0 152.5 -62t55.5 -171q0 -154 -91 -261.5t-223 -107.5zM268 17q86 0 148 106t62 249q0 89 -33 139t-92 50q-85 0 -148 -106.5t-63 -248.5q0 -89 34 -139t92 -50z" />
    <glyph glyph-name="Ograve.small" horiz-adv-x="586" 
d="M274 753h82l27 -130h-5l-104 125v5zM257 -12q-97 0 -152.5 62t-55.5 171q0 153 92 261t222 108q97 0 152.5 -62t55.5 -171q0 -154 -91 -261.5t-223 -107.5zM268 17q86 0 148 106t62 249q0 89 -33 139t-92 50q-85 0 -148 -106.5t-63 -248.5q0 -89 34 -139t92 -50z" />
    <glyph glyph-name="Oacute.small" horiz-adv-x="586" 
d="M408 623h-5l80 130h90v-5zM257 -12q-97 0 -152.5 62t-55.5 171q0 153 92 261t222 108q97 0 152.5 -62t55.5 -171q0 -154 -91 -261.5t-223 -107.5zM268 17q86 0 148 106t62 249q0 89 -33 139t-92 50q-85 0 -148 -106.5t-63 -248.5q0 -89 34 -139t92 -50z" />
    <glyph glyph-name="Ocircumflex.small" horiz-adv-x="586" 
d="M394 753h28l85 -128l-4 -2l-100 78h-4l-142 -78l-2 2zM257 -12q-97 0 -152.5 62t-55.5 171q0 153 92 261t222 108q97 0 152.5 -62t55.5 -171q0 -154 -91 -261.5t-223 -107.5zM268 17q86 0 148 106t62 249q0 89 -33 139t-92 50q-85 0 -148 -106.5t-63 -248.5
q0 -89 34 -139t92 -50z" />
    <glyph glyph-name="Otilde.small" horiz-adv-x="586" 
d="M454 638q-23 0 -69 25.5t-70 25.5q-19 0 -38.5 -11.5t-57.5 -46.5l-3 2q46 64 70.5 84.5t48.5 20.5t69 -25.5t70 -25.5q19 0 39.5 11.5t57.5 46.5l2 -2q-44 -63 -69.5 -84t-49.5 -21zM257 -12q-97 0 -152.5 62t-55.5 171q0 153 92 261t222 108q97 0 152.5 -62t55.5 -171
q0 -154 -91 -261.5t-223 -107.5zM268 17q86 0 148 106t62 249q0 89 -33 139t-92 50q-85 0 -148 -106.5t-63 -248.5q0 -89 34 -139t92 -50z" />
    <glyph glyph-name="Odieresis.small" horiz-adv-x="586" 
d="M305 646q-17 0 -27 9.5t-10 25.5q0 20 14.5 34.5t35.5 14.5q17 0 27 -9.5t10 -25.5q0 -21 -14.5 -35t-35.5 -14zM469 646q-17 0 -27 9.5t-10 25.5q0 20 15 34.5t36 14.5q36 0 36 -35q0 -21 -14.5 -35t-35.5 -14zM257 -12q-97 0 -152.5 62t-55.5 171q0 153 92 261t222 108
q97 0 152.5 -62t55.5 -171q0 -154 -91 -261.5t-223 -107.5zM268 17q86 0 148 106t62 249q0 89 -33 139t-92 50q-85 0 -148 -106.5t-63 -248.5q0 -89 34 -139t92 -50z" />
    <glyph glyph-name="Omacron.small" horiz-adv-x="586" 
d="M529 671h-257l8 34h256zM257 -12q-97 0 -152.5 62t-55.5 171q0 153 92 261t222 108q97 0 152.5 -62t55.5 -171q0 -154 -91 -261.5t-223 -107.5zM268 17q86 0 148 106t62 249q0 89 -33 139t-92 50q-85 0 -148 -106.5t-63 -248.5q0 -89 34 -139t92 -50z" />
    <glyph glyph-name="Obreve.small" horiz-adv-x="586" 
d="M373 623q-52 0 -81.5 25.5t-29.5 69.5q0 20 4 35h4q7 -85 108 -85q102 0 144 85h4q-13 -63 -52.5 -96.5t-100.5 -33.5zM257 -12q-97 0 -152.5 62t-55.5 171q0 153 92 261t222 108q97 0 152.5 -62t55.5 -171q0 -154 -91 -261.5t-223 -107.5zM268 17q86 0 148 106t62 249
q0 89 -33 139t-92 50q-85 0 -148 -106.5t-63 -248.5q0 -89 34 -139t92 -50z" />
    <glyph glyph-name="Ohungarumlaut.small" horiz-adv-x="586" 
d="M304 623h-5l80 130h90v-5zM257 -12q-97 0 -152.5 62t-55.5 171q0 153 92 261t222 108q97 0 152.5 -62t55.5 -171q0 -154 -91 -261.5t-223 -107.5zM268 17q86 0 148 106t62 249q0 89 -33 139t-92 50q-85 0 -148 -106.5t-63 -248.5q0 -89 34 -139t92 -50z" />
    <glyph glyph-name="Oslash.small" horiz-adv-x="586" 
d="M124 32l-58 -73l-21 20l58 73q-54 62 -54 169q0 153 92 261t222 108q80 0 133 -44l55 69l24 -19l-57 -71q53 -61 53 -168q0 -154 -91 -261.5t-223 -107.5q-80 0 -133 44zM142 206q0 -52 12 -90l301 378q-34 67 -102 67q-85 0 -148 -106.5t-63 -248.5zM268 17
q86 0 148 106t62 249q0 48 -11 89l-301 -377q33 -67 102 -67z" />
    <glyph glyph-name="Oslashacute.small" horiz-adv-x="586" 
d="M408 623h-5l80 130h90v-5zM257 -12q-97 0 -152.5 62t-55.5 171q0 153 92 261t222 108q97 0 152.5 -62t55.5 -171q0 -154 -91 -261.5t-223 -107.5zM268 17q86 0 148 106t62 249q0 89 -33 139t-92 50q-85 0 -148 -106.5t-63 -248.5q0 -89 34 -139t92 -50z" />
    <glyph glyph-name="OE.small" horiz-adv-x="823" 
d="M753 115l-24 -115h-482q-86 18 -142 87t-56 158q0 146 100.5 239.5t285.5 93.5h389l-22 -98h-4l-90 70h-137l-49 -231h137l86 52h4l-28 -133h-4l-65 52h-137l-56 -262h160l131 87h3zM367 24h1l111 526h-36q-139 0 -219.5 -79.5t-80.5 -211.5q0 -96 62 -160t162 -75z" />
    <glyph glyph-name="P.small" horiz-adv-x="496" 
d="M179 3l-1 -3h-163l1 3l42 38l105 496l-30 38l1 3h247q56 -13 88.5 -53.5t32.5 -99.5q0 -80 -59 -134.5t-146 -54.5q-8 0 -23.5 2t-16.5 2l-22 15v4q81 3 131.5 47.5t50.5 112.5q0 60 -38 97t-100 37h-21l-109 -512z" />
    <glyph glyph-name="Q.small" horiz-adv-x="586" 
d="M569 -125h-155l-239 125q-126 68 -126 221t92 261t222 108q97 0 152.5 -62t55.5 -171q0 -149 -83.5 -253t-209.5 -114l-2 -5q54 -12 88 -26l206 -80zM268 17q86 0 148 106t62 249q0 89 -33 139t-92 50q-85 0 -148 -106.5t-63 -248.5q0 -89 34 -139t92 -50z" />
    <glyph glyph-name="R.small" horiz-adv-x="520" 
d="M179 3l-1 -3h-163l1 3l42 38l105 496l-30 38l1 3h264q49 -9 79 -44.5t30 -83.5q0 -56 -41.5 -99.5t-110.5 -60.5q12 -82 52.5 -186t83.5 -156l-2 -2q-74 21 -140.5 121t-84.5 212h-64l-51 -238zM285 554h-27l-53 -249h69q64 0 105.5 36.5t41.5 95.5q0 54 -36.5 85.5
t-99.5 31.5z" />
    <glyph glyph-name="Racute.small" horiz-adv-x="520" 
d="M347 623h-5l80 130h90v-5zM179 3l-1 -3h-163l1 3l42 38l105 496l-30 38l1 3h264q49 -9 79 -44.5t30 -83.5q0 -56 -41.5 -99.5t-110.5 -60.5q12 -82 52.5 -186t83.5 -156l-2 -2q-74 21 -140.5 121t-84.5 212h-64l-51 -238zM285 554h-27l-53 -249h69q64 0 105.5 36.5
t41.5 95.5q0 54 -36.5 85.5t-99.5 31.5z" />
    <glyph glyph-name="Rcaron.small" horiz-adv-x="520" 
d="M334 623h-29l-84 128l3 2l100 -78h4l142 78l2 -2zM179 3l-1 -3h-163l1 3l42 38l105 496l-30 38l1 3h264q49 -9 79 -44.5t30 -83.5q0 -56 -41.5 -99.5t-110.5 -60.5q12 -82 52.5 -186t83.5 -156l-2 -2q-74 21 -140.5 121t-84.5 212h-64l-51 -238zM285 554h-27l-53 -249h69
q64 0 105.5 36.5t41.5 95.5q0 54 -36.5 85.5t-99.5 31.5z" />
    <glyph glyph-name="Rcommaaccent.small" horiz-adv-x="520" 
d="M179 3l-1 -3h-163l1 3l42 38l105 496l-30 38l1 3h264q49 -9 79 -44.5t30 -83.5q0 -56 -41.5 -99.5t-110.5 -60.5q12 -82 52.5 -186t83.5 -156l-2 -2q-74 21 -140.5 121t-84.5 212h-64l-51 -238zM285 554h-27l-53 -249h69q64 0 105.5 36.5t41.5 95.5q0 54 -36.5 85.5
t-99.5 31.5zM189 -200l-1 4q20 11 40 34q20 22 25 39v4l-58 14q-5 5 -5 14q0 19 16 31.5t38 12.5q25 0 42.5 -16t17.5 -40q0 -31 -32 -58.5t-83 -38.5z" />
    <glyph glyph-name="S.small" horiz-adv-x="436" 
d="M190 -12q-52 0 -102.5 18t-79.5 48l19 90h4l109 -119q26 -12 55 -12q50 0 80.5 30.5t30.5 76.5q0 32 -18.5 63t-45 57t-53.5 53t-45.5 61.5t-18.5 71.5q0 72 51 118t130 46q41 0 82.5 -12t65.5 -32l-20 -86h-4l-93 96q-17 9 -35 9q-42 0 -70 -30t-28 -73
q0 -32 18.5 -62.5t45 -56.5t53.5 -53t45.5 -62t18.5 -72q0 -72 -55.5 -120t-139.5 -48z" />
    <glyph glyph-name="Sacute.small" horiz-adv-x="436" 
d="M325 623h-5l80 130h90v-5zM190 -12q-52 0 -102.5 18t-79.5 48l19 90h4l109 -119q26 -12 55 -12q50 0 80.5 30.5t30.5 76.5q0 32 -18.5 63t-45 57t-53.5 53t-45.5 61.5t-18.5 71.5q0 72 51 118t130 46q41 0 82.5 -12t65.5 -32l-20 -86h-4l-93 96q-17 9 -35 9
q-42 0 -70 -30t-28 -73q0 -32 18.5 -62.5t45 -56.5t53.5 -53t45.5 -62t18.5 -72q0 -72 -55.5 -120t-139.5 -48z" />
    <glyph glyph-name="Scircumflex.small" horiz-adv-x="436" 
d="M311 753h28l85 -128l-4 -2l-100 78h-4l-142 -78l-2 2zM190 -12q-52 0 -102.5 18t-79.5 48l19 90h4l109 -119q26 -12 55 -12q50 0 80.5 30.5t30.5 76.5q0 32 -18.5 63t-45 57t-53.5 53t-45.5 61.5t-18.5 71.5q0 72 51 118t130 46q41 0 82.5 -12t65.5 -32l-20 -86h-4
l-93 96q-17 9 -35 9q-42 0 -70 -30t-28 -73q0 -32 18.5 -62.5t45 -56.5t53.5 -53t45.5 -62t18.5 -72q0 -72 -55.5 -120t-139.5 -48z" />
    <glyph glyph-name="Scaron.small" horiz-adv-x="436" 
d="M312 623h-29l-84 128l3 2l100 -78h4l142 78l2 -2zM190 -12q-52 0 -102.5 18t-79.5 48l19 90h4l109 -119q26 -12 55 -12q50 0 80.5 30.5t30.5 76.5q0 32 -18.5 63t-45 57t-53.5 53t-45.5 61.5t-18.5 71.5q0 72 51 118t130 46q41 0 82.5 -12t65.5 -32l-20 -86h-4l-93 96
q-17 9 -35 9q-42 0 -70 -30t-28 -73q0 -32 18.5 -62.5t45 -56.5t53.5 -53t45.5 -62t18.5 -72q0 -72 -55.5 -120t-139.5 -48z" />
    <glyph glyph-name="Scedilla.small" horiz-adv-x="436" 
d="M225 -128q0 -32 -29 -52t-76 -20q-48 0 -79 13l10 47h6l74 -42q15 1 24.5 12.5t9.5 28.5q0 42 -53 89v3l71 37q-50 2 -98.5 20t-76.5 46l19 90h4l109 -119q26 -12 55 -12q50 0 80.5 30.5t30.5 76.5q0 32 -18.5 63t-45 57t-53.5 53t-45.5 61.5t-18.5 71.5q0 72 51 118
t130 46q41 0 82.5 -12t65.5 -32l-20 -86h-4l-93 96q-17 9 -35 9q-42 0 -70 -30t-28 -73q0 -32 18.5 -62.5t45 -56.5t53.5 -53t45.5 -62t18.5 -72q0 -67 -47.5 -113t-122.5 -54l-42 -23q52 -49 52 -94z" />
    <glyph glyph-name="Scommaaccent.small" horiz-adv-x="436" 
d="M190 -12q-52 0 -102.5 18t-79.5 48l19 90h4l109 -119q26 -12 55 -12q50 0 80.5 30.5t30.5 76.5q0 32 -18.5 63t-45 57t-53.5 53t-45.5 61.5t-18.5 71.5q0 72 51 118t130 46q41 0 82.5 -12t65.5 -32l-20 -86h-4l-93 96q-17 9 -35 9q-42 0 -70 -30t-28 -73
q0 -32 18.5 -62.5t45 -56.5t53.5 -53t45.5 -62t18.5 -72q0 -72 -55.5 -120t-139.5 -48zM132 -200l-1 4q20 11 40 34q20 22 25 39v4l-58 14q-5 5 -5 14q0 19 16 31.5t38 12.5q25 0 42.5 -16t17.5 -40q0 -31 -32 -58.5t-83 -38.5z" />
    <glyph glyph-name="germandbls.small" horiz-adv-x="871" 
d="M190 -12q-52 0 -102.5 18t-79.5 48l19 90h4l109 -119q26 -12 55 -12q50 0 80.5 30.5t30.5 76.5q0 32 -18.5 63t-45 57t-53.5 53t-45.5 61.5t-18.5 71.5q0 72 51 118t130 46q41 0 82.5 -12t65.5 -32l-20 -86h-4l-93 96q-17 9 -35 9q-42 0 -70 -30t-28 -73
q0 -32 18.5 -62.5t45 -56.5t53.5 -53t45.5 -62t18.5 -72q0 -72 -55.5 -120t-139.5 -48zM626 -12q-52 0 -102.5 18t-79.5 48l19 90h4l109 -119q26 -12 55 -12q50 0 80.5 30.5t30.5 76.5q0 32 -18.5 63t-45 57t-53.5 53t-45.5 61.5t-18.5 71.5q0 72 51 118t130 46
q41 0 82.5 -12t65.5 -32l-20 -86h-4l-93 96q-17 9 -35 9q-42 0 -70 -30t-28 -73q0 -32 18.5 -62.5t45 -56.5t53.5 -53t45.5 -62t18.5 -72q0 -72 -55.5 -120t-139.5 -48z" />
    <glyph glyph-name="T.small" horiz-adv-x="507" 
d="M293 3l-1 -3h-164l1 3l43 38l109 509h-78l-122 -74h-3l21 102h465l-21 -102h-4l-91 74h-76l-109 -509z" />
    <glyph glyph-name="Tcaron.small" horiz-adv-x="507" 
d="M357 623h-29l-84 128l3 2l100 -78h4l142 78l2 -2zM293 3l-1 -3h-164l1 3l43 38l109 509h-78l-122 -74h-3l21 102h465l-21 -102h-4l-91 74h-76l-109 -509z" />
    <glyph glyph-name="Tcommaaccent.small" horiz-adv-x="507" 
d="M293 3l-1 -3h-164l1 3l43 38l109 509h-78l-122 -74h-3l21 102h465l-21 -102h-4l-91 74h-76l-109 -509zM130 -200l-1 4q20 11 40 34q20 22 25 39v4l-58 14q-5 5 -5 14q0 19 16 31.5t38 12.5q25 0 42.5 -16t17.5 -40q0 -31 -32 -58.5t-83 -38.5z" />
    <glyph glyph-name="Tbar.small" horiz-adv-x="507" 
d="M293 3l-1 -3h-164l1 3l43 38l51 236h-100l7 30h99l52 243h-78l-122 -74h-3l21 102h465l-21 -102h-4l-91 74h-76l-52 -243h100l-6 -30h-100l-51 -236z" />
    <glyph glyph-name="Thorn.small" horiz-adv-x="487" 
d="M179 3l-1 -3h-163l1 3l43 38l105 496l-31 38l1 3h164l-1 -3l-42 -38l-14 -66h118q56 -13 88.5 -54t32.5 -99q0 -79 -60 -134t-146 -55q-25 0 -40 4l-22 14v5q81 3 131.5 47.5t50.5 113.5q0 59 -38 96t-100 37h-20l-86 -405z" />
    <glyph glyph-name="U.small" horiz-adv-x="571" 
d="M275 -12q-100 0 -153 63t-33 157l70 329l-30 38v3h164l-1 -3l-41 -38l-68 -318q-18 -84 15 -130t109 -46q60 0 100 32.5t52 92.5l74 355l-44 52v3h126l-1 -3l-45 -52l-74 -352q-39 -183 -220 -183z" />
    <glyph glyph-name="Ugrave.small" horiz-adv-x="571" 
d="M276 753h82l27 -130h-5l-104 125v5zM275 -12q-100 0 -153 63t-33 157l70 329l-30 38v3h164l-1 -3l-41 -38l-68 -318q-18 -84 15 -130t109 -46q60 0 100 32.5t52 92.5l74 355l-44 52v3h126l-1 -3l-45 -52l-74 -352q-39 -183 -220 -183z" />
    <glyph glyph-name="Uacute.small" horiz-adv-x="571" 
d="M410 623h-5l80 130h90v-5zM275 -12q-100 0 -153 63t-33 157l70 329l-30 38v3h164l-1 -3l-41 -38l-68 -318q-18 -84 15 -130t109 -46q60 0 100 32.5t52 92.5l74 355l-44 52v3h126l-1 -3l-45 -52l-74 -352q-39 -183 -220 -183z" />
    <glyph glyph-name="Ucircumflex.small" horiz-adv-x="571" 
d="M396 753h28l85 -128l-4 -2l-100 78h-4l-142 -78l-2 2zM275 -12q-100 0 -153 63t-33 157l70 329l-30 38v3h164l-1 -3l-41 -38l-68 -318q-18 -84 15 -130t109 -46q60 0 100 32.5t52 92.5l74 355l-44 52v3h126l-1 -3l-45 -52l-74 -352q-39 -183 -220 -183z" />
    <glyph glyph-name="Utilde.small" horiz-adv-x="571" 
d="M456 638q-23 0 -69 25.5t-70 25.5q-19 0 -38.5 -11.5t-57.5 -46.5l-3 2q46 64 70.5 84.5t48.5 20.5t69 -25.5t70 -25.5q19 0 39.5 11.5t57.5 46.5l2 -2q-44 -63 -69.5 -84t-49.5 -21zM275 -12q-100 0 -153 63t-33 157l70 329l-30 38v3h164l-1 -3l-41 -38l-68 -318
q-18 -84 15 -130t109 -46q60 0 100 32.5t52 92.5l74 355l-44 52v3h126l-1 -3l-45 -52l-74 -352q-39 -183 -220 -183z" />
    <glyph glyph-name="Udieresis.small" horiz-adv-x="571" 
d="M308 646q-17 0 -27 9.5t-10 25.5q0 20 14.5 34.5t35.5 14.5q17 0 27 -9.5t10 -25.5q0 -21 -14 -35t-36 -14zM472 646q-17 0 -27 9.5t-10 25.5q0 20 15 34.5t36 14.5q36 0 36 -35q0 -21 -14 -35t-36 -14zM275 -12q-100 0 -153 63t-33 157l70 329l-30 38v3h164l-1 -3
l-41 -38l-68 -318q-18 -84 15 -130t109 -46q60 0 100 32.5t52 92.5l74 355l-44 52v3h126l-1 -3l-45 -52l-74 -352q-39 -183 -220 -183z" />
    <glyph glyph-name="Umacron.small" horiz-adv-x="571" 
d="M531 671h-257l8 34h256zM275 -12q-100 0 -153 63t-33 157l70 329l-30 38v3h164l-1 -3l-41 -38l-68 -318q-18 -84 15 -130t109 -46q60 0 100 32.5t52 92.5l74 355l-44 52v3h126l-1 -3l-45 -52l-74 -352q-39 -183 -220 -183z" />
    <glyph glyph-name="Ubreve.small" horiz-adv-x="571" 
d="M375 623q-52 0 -81.5 25.5t-29.5 69.5q0 20 4 35h4q7 -85 108 -85q102 0 144 85h4q-13 -63 -52.5 -96.5t-100.5 -33.5zM275 -12q-100 0 -153 63t-33 157l70 329l-30 38v3h164l-1 -3l-41 -38l-68 -318q-18 -84 15 -130t109 -46q60 0 100 32.5t52 92.5l74 355l-44 52v3h126
l-1 -3l-45 -52l-74 -352q-39 -183 -220 -183z" />
    <glyph glyph-name="Uring.small" horiz-adv-x="571" 
d="M383 623q-44 0 -70 20.5t-26 55.5q0 44 38 73q39 30 94 30q44 0 69.5 -20.5t25.5 -55.5q0 -43 -38 -73t-93 -30zM392 645q28 0 46.5 24.5t18.5 55.5q0 25 -12.5 40t-34.5 15q-27 0 -46 -24.5t-19 -55.5q0 -25 12.5 -40t34.5 -15zM275 -12q-100 0 -153 63t-33 157l70 329
l-30 38v3h164l-1 -3l-41 -38l-68 -318q-18 -84 15 -130t109 -46q60 0 100 32.5t52 92.5l74 355l-44 52v3h126l-1 -3l-45 -52l-74 -352q-39 -183 -220 -183z" />
    <glyph glyph-name="Uhungarumlaut.small" horiz-adv-x="571" 
d="M306 623h-5l80 130h90v-5zM275 -12q-100 0 -153 63t-33 157l70 329l-30 38v3h164l-1 -3l-41 -38l-68 -318q-18 -84 15 -130t109 -46q60 0 100 32.5t52 92.5l74 355l-44 52v3h126l-1 -3l-45 -52l-74 -352q-39 -183 -220 -183z" />
    <glyph glyph-name="Uogonek.small" horiz-adv-x="571" 
d="M326 -147l3 -3q-29 -50 -87 -50q-36 0 -60 19t-24 47q0 24 13 43l92 79q-95 5 -143.5 66.5t-30.5 153.5l70 329l-30 38v3h164l-1 -3l-41 -38l-68 -318q-18 -84 15 -130t109 -46q60 0 100 32.5t52 92.5l74 355l-44 52v3h126l-1 -3l-45 -52l-74 -352q-37 -175 -204 -183
q-67 -63 -67 -104q0 -22 13.5 -36t37.5 -14q29 0 51 19z" />
    <glyph glyph-name="V.small" horiz-adv-x="513" 
d="M544 535l-351 -535h-42l-44 537l-15 38l1 3h153l-1 -3l-47 -38l30 -430l267 416l-52 52v3h138l-1 -3z" />
    <glyph glyph-name="W.small" horiz-adv-x="735" 
d="M397 413l-256 -413h-39l1 537l-14 38v3h155l-1 -3l-48 -38l-5 -401l211 340l3 61l-11 38l2 3h147l-1 -3l-44 -38l-30 -395l248 381l-42 52l2 3h139l-1 -3l-56 -52l-348 -523h-35z" />
    <glyph glyph-name="Wgrave.small" horiz-adv-x="735" 
d="M356 753h82l27 -130h-5l-104 125v5zM397 413l-256 -413h-39l1 537l-14 38v3h155l-1 -3l-48 -38l-5 -401l211 340l3 61l-11 38l2 3h147l-1 -3l-44 -38l-30 -395l248 381l-42 52l2 3h139l-1 -3l-56 -52l-348 -523h-35z" />
    <glyph glyph-name="Wacute.small" horiz-adv-x="735" 
d="M490 623h-5l80 130h90v-5zM397 413l-256 -413h-39l1 537l-14 38v3h155l-1 -3l-48 -38l-5 -401l211 340l3 61l-11 38l2 3h147l-1 -3l-44 -38l-30 -395l248 381l-42 52l2 3h139l-1 -3l-56 -52l-348 -523h-35z" />
    <glyph glyph-name="Wcircumflex.small" horiz-adv-x="735" 
d="M476 753h28l85 -128l-4 -2l-100 78h-4l-142 -78l-2 2zM397 413l-256 -413h-39l1 537l-14 38v3h155l-1 -3l-48 -38l-5 -401l211 340l3 61l-11 38l2 3h147l-1 -3l-44 -38l-30 -395l248 381l-42 52l2 3h139l-1 -3l-56 -52l-348 -523h-35z" />
    <glyph glyph-name="Wdieresis.small" horiz-adv-x="735" 
d="M387 646q-17 0 -27 9.5t-10 25.5q0 20 14.5 34.5t35.5 14.5q17 0 27 -9.5t10 -25.5q0 -21 -14.5 -35t-35.5 -14zM551 646q-17 0 -27 9.5t-10 25.5q0 20 15 34.5t36 14.5q36 0 36 -35q0 -21 -14.5 -35t-35.5 -14zM397 413l-256 -413h-39l1 537l-14 38v3h155l-1 -3l-48 -38
l-5 -401l211 340l3 61l-11 38l2 3h147l-1 -3l-44 -38l-30 -395l248 381l-42 52l2 3h139l-1 -3l-56 -52l-348 -523h-35z" />
    <glyph glyph-name="X.small" horiz-adv-x="539" 
d="M466 3l-1 -3h-165l1 3l42 39l-85 219l-178 -206l33 -52l-1 -3h-132l1 3l51 52l213 236l-98 246l-23 38l1 3h162l-1 -3l-40 -38l69 -185l148 171l-33 52l1 3h134l-1 -3l-54 -52l-182 -202l113 -280z" />
    <glyph glyph-name="Y.small" horiz-adv-x="499" 
d="M290 3l-1 -3h-163l1 3l41 38l51 236l-101 260l-21 37l1 4h161l-1 -3l-44 -38l87 -231l168 217l-36 52l1 3h122v-3l-46 -52l-199 -247l-51 -235z" />
    <glyph glyph-name="Ygrave.small" horiz-adv-x="499" 
d="M232 753h82l27 -130h-5l-104 125v5zM290 3l-1 -3h-163l1 3l41 38l51 236l-101 260l-21 37l1 4h161l-1 -3l-44 -38l87 -231l168 217l-36 52l1 3h122v-3l-46 -52l-199 -247l-51 -235z" />
    <glyph glyph-name="Yacute.small" horiz-adv-x="499" 
d="M366 623h-5l80 130h90v-5zM290 3l-1 -3h-163l1 3l41 38l51 236l-101 260l-21 37l1 4h161l-1 -3l-44 -38l87 -231l168 217l-36 52l1 3h122v-3l-46 -52l-199 -247l-51 -235z" />
    <glyph glyph-name="Ycircumflex.small" horiz-adv-x="499" 
d="M352 753h28l85 -128l-4 -2l-100 78h-4l-142 -78l-2 2zM290 3l-1 -3h-163l1 3l41 38l51 236l-101 260l-21 37l1 4h161l-1 -3l-44 -38l87 -231l168 217l-36 52l1 3h122v-3l-46 -52l-199 -247l-51 -235z" />
    <glyph glyph-name="Ydieresis.small" horiz-adv-x="499" 
d="M263 646q-17 0 -27 9.5t-10 25.5q0 20 14.5 34.5t35.5 14.5q17 0 27 -9.5t10 -25.5q0 -21 -14.5 -35t-35.5 -14zM427 646q-17 0 -27 9.5t-10 25.5q0 20 15 34.5t36 14.5q36 0 36 -35q0 -21 -14.5 -35t-35.5 -14zM290 3l-1 -3h-163l1 3l41 38l51 236l-101 260l-21 37l1 4
h161l-1 -3l-44 -38l87 -231l168 217l-36 52l1 3h122v-3l-46 -52l-199 -247l-51 -235z" />
    <glyph glyph-name="Z.small" horiz-adv-x="512" 
d="M449 122l-26 -122h-420l1 3l406 547h-162l-121 -80h-5l23 108h388l-1 -3l-405 -547h187l131 94h4z" />
    <glyph glyph-name="Zacute.small" horiz-adv-x="512" 
d="M377 623h-5l80 130h90v-5zM449 122l-26 -122h-420l1 3l406 547h-162l-121 -80h-5l23 108h388l-1 -3l-405 -547h187l131 94h4z" />
    <glyph glyph-name="Zcaron.small" horiz-adv-x="512" 
d="M364 623h-29l-84 128l3 2l100 -78h4l142 78l2 -2zM449 122l-26 -122h-420l1 3l406 547h-162l-121 -80h-5l23 108h388l-1 -3l-405 -547h187l131 94h4z" />
    <glyph glyph-name="Zdotaccent.small" horiz-adv-x="512" 
d="M354 636q-20 0 -32.5 12t-12.5 31q0 24 18 41.5t43 17.5q20 0 32.5 -11.5t12.5 -31.5q0 -24 -17.5 -41.5t-43.5 -17.5zM449 122l-26 -122h-420l1 3l406 547h-162l-121 -80h-5l23 108h388l-1 -3l-405 -547h187l131 94h4z" />
    <glyph glyph-name="a.superior" horiz-adv-x="381" 
d="M145 339q-60 0 -60 91q0 106 72 193.5t159 87.5q38 0 64 -18l61 31l2 -2l-33 -93l-51 -241h2l60 50l3 -2q-19 -43 -47.5 -70t-55.5 -27q-18 0 -28.5 13t-6.5 29l29 127h-3q-35 -74 -81 -122q-47 -47 -86 -47zM158 444q0 -59 27 -59q30 0 82.5 79.5t66.5 146.5l11 52
l-70 23q-45 -24 -81 -98.5t-36 -143.5z" />
    <glyph glyph-name="b.superior" horiz-adv-x="374" 
d="M198 339q-24 0 -60 8.5t-52 17.5l11 28l87 407l-47 23l1 3l122 30h8l-70 -313h3q35 75 81 121q46 48 85 48q61 0 61 -89q0 -104 -72.5 -194t-157.5 -90zM178 439l-9 -53l71 -22q45 23 80 97t35 144q0 60 -27 60q-30 0 -84 -80.5t-66 -145.5z" />
    <glyph glyph-name="c.superior" horiz-adv-x="272" 
d="M178 339q-44 0 -68.5 28.5t-24.5 82.5q0 94 64 177.5t138 83.5q63 0 63 -36q0 -12 -7.5 -22t-19.5 -12l-71 45q-37 -20 -66 -86t-29 -130q0 -82 49 -82q52 0 107 88l3 -1q-40 -136 -138 -136z" />
    <glyph glyph-name="d.superior" horiz-adv-x="388" 
d="M145 339q-60 0 -60 91q0 106 72 193.5t159 87.5q20 0 38 -6l20 95l-47 23l1 3l123 30h7l-99 -469h2l60 50l3 -2q-19 -43 -47 -69.5t-56 -26.5q-18 0 -28.5 13t-6.5 29l29 127h-3q-35 -74 -81.5 -121.5t-85.5 -47.5zM158 444q0 -59 27 -59q30 0 82.5 79.5t66.5 146.5
l11 52l-70 23q-45 -24 -81 -98.5t-36 -143.5z" />
    <glyph glyph-name="e.superior" horiz-adv-x="293" 
d="M178 339q-43 0 -68 28t-25 79q0 99 64.5 182t141.5 83q32 0 49.5 -15.5t17.5 -42.5q0 -43 -49 -73t-146 -55q-6 -27 -6 -55q0 -82 52 -82q62 0 122 106l2 -2q-18 -74 -61 -113.5t-94 -39.5zM270 688q-30 0 -60 -44t-44 -103q134 38 134 108q0 39 -30 39z" />
    <glyph glyph-name="f.superior" horiz-adv-x="228" 
d="M59 219q-24 0 -38 9.5t-14 22.5q0 12 8.5 21.5t18.5 9.5l68 -32q6 6 18.5 79t16.5 115l29 231h-53l5 25h52q14 71 58.5 113.5t105.5 42.5q28 0 45.5 -10.5t17.5 -27.5q0 -22 -18 -32l-104 35q-14 -4 -34 -121h90l-8 -25h-86l-35 -233q-18 -116 -53 -169.5t-90 -53.5z" />
    <glyph glyph-name="g.superior" horiz-adv-x="348" 
d="M192 219q-70 0 -115.5 27.5t-45.5 69.5q0 23 13 35l99 46q-57 19 -57 58v11l76 42q-29 21 -29 62q0 55 47 98t110 43q31 0 55 -11l96 9h3l-6 -44h-3l-79 23v-4q11 -6 19 -23t8 -37q0 -54 -46 -95t-107 -41q-33 0 -52 10l-34 -19q0 -21 38.5 -32.5t84 -16t84 -26.5
t38.5 -62q0 -50 -58 -86.5t-139 -36.5zM233 508q31 0 56.5 42t25.5 91q0 50 -32 50q-30 0 -56 -42t-26 -91q0 -50 32 -50zM86 328q0 -35 38.5 -59t94.5 -24q51 0 84 20.5t33 48.5q0 17 -10 28.5t-30 18.5t-39 11.5t-47.5 9.5t-45.5 9l-16 -8q-37 -15 -49.5 -26t-12.5 -29z
" />
    <glyph glyph-name="h.superior" horiz-adv-x="395" 
d="M202 506l-34 -156h-72l97 450l-47 23l1 3l122 30h8l-61 -271h3q67 126 149 126q33 0 47.5 -22t7.5 -59l-51 -242h2l60 50l2 -2q-18 -43 -47 -70t-57 -27q-18 0 -28 11.5t-7 27.5l53 246q7 40 -22 40q-32 0 -72.5 -50t-53.5 -108z" />
    <glyph glyph-name="i.superior" horiz-adv-x="214" 
d="M234 771q-38 0 -38 35q0 21 14 34t36 13q37 0 37 -36q0 -21 -13.5 -33.5t-35.5 -12.5zM146 339q-18 0 -28.5 11.5t-6.5 27.5l59 273h-4l-60 -50l-2 3q43 96 119 96h28l-66 -312h3l60 50l2 -2q-18 -43 -47 -70t-57 -27z" />
    <glyph glyph-name="j.superior" horiz-adv-x="204" 
d="M234 771q-38 0 -38 35q0 21 14 34t36 13q37 0 37 -36q0 -21 -13.5 -33.5t-35.5 -12.5zM68 219q-27 0 -42.5 9.5t-15.5 25.5q0 11 7 20t17 10l72 -38l64 405h-3l-60 -49l-2 2q43 96 119 96h28l-48 -278q-19 -113 -50.5 -158t-85.5 -45z" />
    <glyph glyph-name="k.superior" horiz-adv-x="378" 
d="M188 443l-20 -93h-72l97 450l-47 23v3l123 30h8l-60 -269h3q50 124 130 124q31 0 49.5 -19t18.5 -49q0 -38 -16 -58l-95 -51l59 -141h3l54 46l3 -1q-13 -46 -36 -72.5t-52 -26.5q-34 0 -48 44l-48 129v3l56 34q51 31 51 77q0 43 -34 43q-36 0 -69.5 -60t-57.5 -166z" />
    <glyph glyph-name="l.superior" horiz-adv-x="208" 
d="M142 339q-18 0 -28.5 12t-6.5 28l90 421l-46 23l1 3l122 30h8l-100 -468h2l60 50l3 -2q-19 -43 -47.5 -70t-57.5 -27z" />
    <glyph glyph-name="m.superior" horiz-adv-x="600" 
d="M405 506l-32 -156h-73l58 274q9 40 -22 40q-34 0 -74 -51.5t-52 -107.5l-33 -155h-72l65 301h-3l-60 -49l-2 2q41 96 118 96h18l-17 -116h3q66 127 152 127q33 0 46.5 -21.5t5.5 -58.5l-8 -39h3q65 119 148 119q33 0 47 -22t6 -59l-51 -242h3l60 50l2 -2
q-19 -43 -47.5 -70t-56.5 -27q-18 0 -28 11.5t-7 27.5l52 247q8 39 -22 39q-33 0 -73.5 -49.5t-53.5 -108.5z" />
    <glyph glyph-name="n.superior" horiz-adv-x="404" 
d="M341 339q-18 0 -28.5 11.5t-6.5 27.5l52 246q10 40 -22 40t-72.5 -50t-52.5 -108l-34 -156h-72l65 301h-3l-60 -49l-3 2q43 96 119 96h19l-18 -116h3q66 127 150 127q32 0 47 -22.5t7 -58.5l-51 -242h3l59 50l3 -2q-18 -43 -47 -70t-57 -27z" />
    <glyph glyph-name="o.superior" horiz-adv-x="334" 
d="M198 339q-52 0 -82.5 35.5t-30.5 96.5q0 95 57.5 167.5t133.5 72.5q53 0 82.5 -35t29.5 -97q0 -95 -57 -167.5t-133 -72.5zM199 360q28 0 55.5 37.5t44.5 96t17 116.5q0 80 -42 80t-79.5 -81t-37.5 -170q0 -79 42 -79z" />
    <glyph glyph-name="p.superior" horiz-adv-x="363" 
d="M181 222v-3h-137v3l35 29l81 385q-49 -33 -87 -79l-2 2q31 64 96 109l25 117l73 19h3l-21 -100q21 7 48 7q55 0 88 -33.5t33 -90.5q0 -88 -69 -168t-145 -80q-16 0 -33 3l-19 -91zM260 670q-7 0 -21 -2l-61 -285l66 -18q41 26 70.5 85.5t29.5 118.5q0 47 -22.5 74
t-61.5 27z" />
    <glyph glyph-name="q.superior" horiz-adv-x="376" 
d="M145 339q-60 0 -60 91q0 106 72 193.5t159 87.5q41 0 64 -19l62 32l2 -2l-34 -93l-79 -378l23 -29l-1 -3h-140l1 3l45 31l56 255h-3q-35 -74 -81 -122q-47 -47 -86 -47zM158 444q0 -59 27 -59q30 0 82.5 79.5t66.5 146.5l11 52l-70 23q-45 -24 -81 -98.5t-36 -143.5z" />
    <glyph glyph-name="r.superior" horiz-adv-x="282" 
d="M210 505l-33 -155h-72l65 301h-3l-60 -49l-2 2q43 96 119 96h18l-15 -104h3q49 115 111 115q19 0 30 -10.5t11 -27.5q0 -16 -10 -28.5t-25 -15.5l-50 31q-21 -11 -49 -59.5t-38 -95.5z" />
    <glyph glyph-name="s.superior" horiz-adv-x="267" 
d="M168 339q-40 0 -69.5 17t-29.5 40q0 14 9 23t22 9l71 -68q29 1 45.5 17t16.5 43q0 23 -14.5 46t-32 39t-32 41.5t-14.5 52.5q0 47 39 79.5t96 32.5q32 0 51 -11t19 -28q0 -27 -28 -32l-65 47q-22 -1 -36.5 -16t-14.5 -41q0 -23 14.5 -46t32 -39t32 -41.5t14.5 -53.5
q0 -49 -35 -80t-91 -31z" />
    <glyph glyph-name="t.superior" horiz-adv-x="254" 
d="M166 339q-31 0 -45.5 22.5t-6.5 57.5l64 256h-58l6 25h58l21 82l74 23h4l-26 -105h86l-8 -25h-85l-67 -267q-4 -25 10 -25q16 0 49 26.5t60 58.5l2 -1q-22 -58 -59.5 -93t-78.5 -35z" />
    <glyph glyph-name="u.superior" horiz-adv-x="406" 
d="M344 339q-18 0 -28 11.5t-6 27.5l21 88h-3q-67 -127 -151 -127q-31 0 -46.5 22.5t-8.5 58.5l50 231h-3l-61 -49l-2 2q43 96 119 96h29l-58 -274q-9 -40 22 -40q33 0 73.5 50t52.5 108l34 156h71l-67 -312h3l60 50l2 -2q-18 -43 -46 -70t-57 -27z" />
    <glyph glyph-name="v.superior" horiz-adv-x="335" 
d="M291 451l-82 -101h-33l-31 310h-3l-54 -18l-2 2q21 27 54 45.5t66 18.5h6l27 -292l22 31q50 73 66.5 106.5t16.5 64.5q0 62 -59 62h-6l-1 3q35 28 72 28q24 0 39.5 -15.5t15.5 -41.5q0 -33 -25 -78t-89 -125z" />
    <glyph glyph-name="w.superior" horiz-adv-x="514" 
d="M339 522l-131 -172h-32l-31 310h-3l-54 -18l-2 2q21 27 54 45.5t66 18.5h6l27 -286l98 128l-11 110h-3l-55 -19l-1 3q21 28 53.5 46t64.5 18h7l27 -292l21 31q50 71 67 105.5t17 65.5q0 62 -59 62h-6l-2 3q35 28 71 28q25 0 40.5 -15.5t15.5 -41.5q0 -33 -24.5 -77
t-88.5 -126l-82 -101h-33z" />
    <glyph glyph-name="x.superior" horiz-adv-x="346" 
d="M89 339q-18 0 -26 13l25 68h2l26 -9q25 5 59 44l47 56l-53 139l-3 -1l-48 -32l-3 2q14 33 41.5 57.5t60.5 34.5l57 -147l62 86q24 34 40 47.5t34 13.5q20 0 26 -12l-25 -69h-3l-25 9q-24 -2 -60 -43l-42 -51l55 -144h4l47 32l2 -2q-13 -31 -40.5 -56.5t-60.5 -35.5
l-59 154l-66 -93q-25 -36 -40 -48.5t-34 -12.5z" />
    <glyph glyph-name="y.superior" horiz-adv-x="335" 
d="M60 219q-24 0 -39.5 11.5t-15.5 29.5q0 12 7.5 21t16.5 10l82 -38q39 14 71 61l-35 346h-3l-54 -18l-2 2q21 27 53.5 45.5t65.5 18.5h6l30 -321l50 87q52 91 52 147q0 59 -59 59h-6l-2 3q37 28 72 28q26 0 40.5 -15.5t14.5 -41.5q0 -49 -86 -180l-73 -115
q-94 -140 -186 -140z" />
    <glyph glyph-name="z.superior" horiz-adv-x="315" 
d="M284 331q-48 0 -149 86h-2l-57 -70h-4q0 1 -2 12t-2 16q0 38 26 67q26 30 63 30l160 175h-139l-35 -29h-3l16 82h245v-4l-224 -236q89 -70 135 -75l44 67l4 -2q-20 -119 -76 -119z" />
    <glyph glyph-name="grave.cap" horiz-adv-x="500" 
d="M256 875h82l27 -130h-5l-104 125v5z" />
    <glyph glyph-name="acute.cap" horiz-adv-x="500" 
d="M215 745h-5l80 130h90v-5z" />
    <glyph glyph-name="circumflex.cap" horiz-adv-x="500" 
d="M329 875h28l85 -128l-4 -2l-100 78h-4l-142 -78l-2 2z" />
    <glyph glyph-name="caron.cap" horiz-adv-x="500" 
d="M330 745h-29l-84 128l3 2l100 -78h4l142 78l2 -2z" />
    <glyph glyph-name="caronSlovak" horiz-adv-x="501" 
d="M220 499h-4l82 201h83l-1 -5z" />
    <glyph glyph-name="tilde.cap" horiz-adv-x="500" 
d="M389 760q-23 0 -69 25.5t-70 25.5q-19 0 -38.5 -11.5t-57.5 -46.5l-3 2q46 64 70.5 84.5t48.5 20.5t69 -25.5t70 -25.5q19 0 39.5 11.5t57.5 46.5l2 -2q-44 -63 -69.5 -84t-49.5 -21z" />
    <glyph glyph-name="dieresis.cap" horiz-adv-x="500" 
d="M240 768q-17 0 -27 9.5t-10 25.5q0 20 14.5 34.5t35.5 14.5q17 0 27 -9.5t10 -25.5q0 -21 -14 -35t-36 -14zM404 768q-17 0 -27 9.5t-10 25.5q0 20 15 34.5t36 14.5q36 0 36 -35q0 -21 -14 -35t-36 -14z" />
    <glyph glyph-name="macron.cap" horiz-adv-x="500" 
d="M464 793h-257l8 34h256z" />
    <glyph glyph-name="breve.cap" horiz-adv-x="500" 
d="M308 745q-52 0 -81.5 25.5t-29.5 69.5q0 20 4 35h4q7 -85 108 -85q102 0 144 85h4q-13 -63 -52.5 -96.5t-100.5 -33.5z" />
    <glyph glyph-name="ring.cap" horiz-adv-x="500" 
d="M316 745q-44 0 -70 20.5t-26 55.5q0 44 38 73q39 30 94 30q44 0 69.5 -20.5t25.5 -55.5q0 -43 -38 -73q-37 -30 -93 -30zM325 767q28 0 46.5 24.5t18.5 55.5q0 25 -12.5 40t-34.5 15q-27 0 -46 -24.5t-19 -55.5q0 -25 12.5 -40t34.5 -15z" />
    <glyph glyph-name="hungarumlaut.cap" horiz-adv-x="501" 
d="M238 745h-5l80 130h90v-5zM372 745h-5l80 130h90v-5z" />
    <glyph glyph-name="dotaccent.cap" horiz-adv-x="500" 
d="M320 758q-20 0 -32.5 12t-12.5 31q0 24 18 41.5t43 17.5q20 0 32.5 -11.5t12.5 -31.5q0 -24 -17.5 -41.5t-43.5 -17.5z" />
    <glyph glyph-name="commaaccent.alt" horiz-adv-x="500" 
d="M368 739l1 -4q-19 -12 -39.5 -34t-25.5 -39v-4l58 -14q5 -5 5 -14q0 -19 -15.5 -31.5t-38.5 -12.5q-25 0 -42.5 16t-17.5 40q0 32 32 59.5t83 37.5z" />
    <glyph glyph-name="hyphen.cap" horiz-adv-x="227" 
d="M224 328h-184l8 45h186z" />
    <glyph glyph-name="exclamdown.cap" horiz-adv-x="355" 
d="M273 715q24 0 38 -13.5t14 -37.5q0 -30 -20 -46.5t-48 -16.5q-52 0 -52 50q0 30 20.5 47t47.5 17zM219 496h23l-53 -489h-125z" />
    <glyph glyph-name="questiondown.cap" horiz-adv-x="398" 
d="M292 715q24 0 38 -13.5t14 -37.5q0 -30 -20 -46.5t-48 -16.5q-52 0 -52 50q0 30 20.5 47t47.5 17zM226 500l1 3q62 -13 62 -73q0 -32 -20 -64t-48.5 -59.5t-56.5 -56t-48 -63.5t-20 -72q0 -40 22.5 -64.5t60.5 -24.5q20 0 34 7l130 108h4l-23 -116q-61 -33 -140 -33
q-82 0 -132 38.5t-50 102.5q0 43 24.5 83t59.5 70.5t70 58.5t59.5 58t24.5 58q0 25 -14 39z" />
    <glyph glyph-name="guilsinglleft.cap" horiz-adv-x="199" 
d="M173 183l-4 -18l-120 170l6 30l193 170l-4 -18l-132 -171v-2z" />
    <glyph glyph-name="guilsinglright.cap" horiz-adv-x="199" 
d="M74 516l4 18l120 -170l-6 -30l-193 -170l4 18l132 171v2z" />
    <glyph glyph-name="guillemotleft.cap" horiz-adv-x="333" 
d="M173 183l-4 -18l-120 170l6 30l193 170l-4 -18l-132 -171v-2zM307 183l-4 -18l-120 170l6 30l193 170l-4 -18l-132 -171v-2z" />
    <glyph glyph-name="guillemotright.cap" horiz-adv-x="320" 
d="M74 517l4 18l120 -170l-6 -30l-193 -170l4 18l132 171v2zM211 517l4 18l120 -170l-6 -30l-193 -170l4 18l132 171v2z" />
    <glyph glyph-name="endash.cap" horiz-adv-x="500" 
d="M499 332h-460l8 37h460z" />
    <glyph glyph-name="emdash.cap" horiz-adv-x="1000" 
d="M999 331h-960l8 38h960z" />
    <glyph glyph-name="periodcentered.cap" horiz-adv-x="235" 
d="M137 293q-24 0 -38 13.5t-14 37.5q0 30 20 46.5t48 16.5q52 0 52 -50q0 -31 -20 -47.5t-48 -16.5z" />
    <glyph glyph-name="parenleft.cap" horiz-adv-x="305" 
d="M54 224q0 181 89 334.5t236 228.5l1 -3q-272 -251 -272 -571q0 -169 88 -297l-3 -3q-67 45 -103 125.5t-36 185.5z" />
    <glyph glyph-name="parenright.cap" horiz-adv-x="305" 
d="M274 476q0 -181 -88.5 -334.5t-236.5 -228.5l-1 3q272 251 272 571q0 173 -88 297l3 3q139 -92 139 -311z" />
    <glyph glyph-name="parenleft.small" horiz-adv-x="274" 
d="M77 266q18 125 91 231t178 153l2 -3q-180 -158 -212 -396q-16 -93 -2.5 -169.5t61.5 -150.5l-2 -3q-77 50 -105 140q-28 89 -11 198z" />
    <glyph glyph-name="parenright.small" horiz-adv-x="282" 
d="M243 312q-17 -123 -90.5 -230t-178.5 -154l-2 3q179 157 212 396q16 93 2.5 169.5t-61.5 150.5l2 3q77 -50 105 -140q28 -89 11 -198z" />
    <glyph glyph-name="bracketleft.cap" horiz-adv-x="305" 
d="M187 -48l-5 -24h-157l179 844h157l-5 -24h-103l-169 -796h103z" />
    <glyph glyph-name="bracketright.cap" horiz-adv-x="305" 
d="M145 747l5 24h157l-179 -844h-157l5 24h103l169 796h-103z" />
    <glyph glyph-name="bracketleft.small" horiz-adv-x="285" 
d="M172 -35l-5 -25h-137l148 697h137l-5 -25h-81l-138 -647h81z" />
    <glyph glyph-name="bracketright.small" horiz-adv-x="285" 
d="M121 612l5 25h137l-148 -697h-137l5 25h81l138 647h-81z" />
    <glyph glyph-name="braceleft.cap" horiz-adv-x="305" 
d="M56 48q0 45 31 124.5t31 117.5q0 23 -12.5 33.5t-44.5 14.5l4 24q56 11 75 41t22 115q6 132 52.5 191.5t157.5 77.5l1 -3q-82 -36 -115 -92.5t-39 -167.5q-7 -108 -45 -144l-72 -28l-1 -4l58 -29q9 -12 9 -39q0 -36 -28 -115t-28 -124q0 -82 76 -125l-2 -3
q-130 28 -130 135z" />
    <glyph glyph-name="braceright.cap" horiz-adv-x="305" 
d="M264 652q0 -45 -31 -124.5t-31 -117.5q0 -22 13 -33t44 -15l-4 -24q-56 -9 -74 -39t-23 -117q-6 -132 -52 -191t-158 -78l-1 3q81 36 114.5 92.5t39.5 167.5q7 108 45 144l72 28l1 4l-58 29q-9 12 -9 39q0 37 28 116t28 123q0 82 -76 125l2 3q130 -28 130 -135z" />
    <glyph glyph-name="braceleft.small" horiz-adv-x="274" 
d="M60 42q0 39 25 102.5t25 88.5q0 45 -51 45l5 21q44 3 61 28.5t21 103.5q7 113 43.5 157t133.5 61v-2q-60 -30 -86.5 -75.5t-36.5 -138.5q-9 -91 -40 -122l-60 -22v-3l45 -18q13 -13 13 -39q0 -30 -23 -97t-23 -103q0 -63 58 -99l-2 -2q-108 22 -108 114z" />
    <glyph glyph-name="braceright.small" horiz-adv-x="274" 
d="M221 535q0 -38 -25 -102t-25 -89q0 -45 51 -45l-5 -21q-43 -2 -60.5 -28t-21.5 -104q-6 -112 -43 -156.5t-134 -61.5v2q60 30 87 76t36 138q9 91 40 122l60 22v3l-45 18q-13 13 -13 39q0 31 23 97.5t23 102.5q0 63 -58 99l2 2q108 -23 108 -114z" />
    <glyph glyph-name="at.small" horiz-adv-x="702" 
d="M373 -64q-138 0 -224.5 89.5t-86.5 233.5q0 163 106 273t262 110q125 0 203 -73.5t78 -192.5q0 -115 -71.5 -188t-191.5 -80q-13 0 -22 10t-7 21l28 129h-3q-31 -71 -74.5 -115.5t-83.5 -44.5q-28 0 -44 22.5t-16 63.5q0 98 77.5 194t159.5 96q31 0 56 -15l66 24l2 -1
l-32 -85l-61 -265q87 16 137 78.5t50 153.5q0 109 -69 174.5t-182 65.5q-132 0 -223 -101t-91 -245q0 -133 77.5 -214.5t204.5 -81.5q66 0 126 25q60 23 95 63l3 -2q-27 -54 -96.5 -88t-152.5 -34zM299 223q0 -29 8.5 -45.5t21.5 -16.5q31 0 79.5 77t63.5 154l8 42l-60 19
q-46 -26 -83.5 -96t-37.5 -134z" />
    <glyph glyph-name="at.cap" horiz-adv-x="844" 
d="M454 -84q-168 0 -272.5 109t-104.5 285q0 197 125.5 332.5t307.5 135.5q149 0 245 -92t96 -236q0 -135 -85.5 -224t-223.5 -100q-19 0 -31 14t-8 30l36 164h-3q-41 -90 -97 -148.5t-104 -58.5q-33 0 -51 26.5t-18 75.5q0 78 44 162.5t110.5 140t128.5 55.5q42 0 70 -22
l72 28l3 -2l-39 -100l-72 -328q108 17 171 92.5t63 189.5q0 134 -85 217.5t-221 83.5q-158 0 -267 -122.5t-109 -301.5q0 -164 93.5 -266.5t242.5 -102.5q81 0 154 31t115 82l5 -4q-34 -64 -115.5 -105t-175.5 -41zM344 268q0 -83 39 -83q42 0 100.5 92.5t82.5 195.5l13 55
l-83 24q-59 -29 -105.5 -115t-46.5 -169z" />
    <glyph glyph-name="zero.slash" horiz-adv-x="555" 
d="M76 72l-59 -72h-30l79 96q-19 45 -19 111q0 134 44.5 251.5t120 187t161.5 69.5q94 0 139 -75l50 60h32l-69 -84q23 -54 23 -123q0 -134 -44 -251.5t-119.5 -187t-161.5 -69.5q-101 0 -147 87zM372 684q-56 0 -109 -72t-87 -187.5t-36 -238.5l314 383q-10 115 -82 115z
M223 16q57 0 111.5 74.5t88 193.5t33.5 243v6l-315 -383q6 -134 82 -134z" />
    <glyph glyph-name="numbersign.LT" 
d="M96 0h-26l77 209h-130l16 75h142l49 131h-132l17 75h142l78 210h25l-77 -210h128l78 210h25l-78 -210h132l-17 -75h-142l-49 -131h132l-18 -75h-142l-77 -209h-25l77 209h-128zM249 415l-48 -131h128l49 131h-129z" />
    <glyph glyph-name="Euro.LT" 
d="M75 275h-76l5 22h72q5 59 15 93h-68l5 22h68q39 135 134.5 219t214.5 84q84 0 138 -32l-19 -86h-5l-108 83q-9 3 -23 3q-73 0 -138 -76.5t-99 -194.5h255l-11 -22h-249q-10 -45 -15 -93h224l-11 -22h-215q-1 -12 -1 -37q0 -97 41.5 -159t104.5 -62q14 0 23 3l128 95h4
l-22 -99q-51 -31 -134 -31q-109 0 -173.5 73.5t-64.5 198.5v18z" />
    <glyph glyph-name="dollar.LT" 
d="M193 -9l-39 -106h-25l41 111q-86 19 -140 69l19 93h4l117 -126q8 -3 12 -5l102 278q-5 5 -26 26.5t-27.5 29t-23.5 26.5t-23.5 31t-16 30t-13 35t-3.5 36q0 85 61 140.5t154 55.5q32 0 69 -8l40 108h25l-43 -115q58 -19 94 -54l-21 -87h-4l-83 102l-102 -275
q37 -37 56 -59t38 -60t19 -75q0 -89 -62.5 -146.5t-157.5 -57.5q-20 0 -41 3zM230 565q0 -41 23.5 -77t69.5 -84l100 270q-21 10 -60 10q-61 0 -97 -31.5t-36 -87.5zM375 148q0 65 -72 139l-98 -265q17 -3 34 -3q61 0 98.5 35.5t37.5 93.5z" />
    <glyph glyph-name="cent.LT" 
d="M164 -115h-26l39 105q-87 23 -87 151q0 87 41 175t106 144t131 56h8l40 107h25l-41 -109q54 -10 54 -46q0 -15 -9.5 -27.5t-24.5 -15.5l-44 25l-150 -400q9 -3 21 -3q76 0 155 130l4 -2q-58 -190 -191 -190q-10 0 -13 1zM175 167q0 -77 30 -104l150 399l-35 20
q-57 -26 -101 -121.5t-44 -193.5z" />
    <glyph glyph-name="sterling.LT" 
d="M484 111l-25 -131h-23q-185 0 -296 123h-4l-148 -98q-27 24 -27 58q0 31 24 52t67 21q31 0 76 -9q29 68 30 204h-130l7 23h123v24q0 165 65.5 251t184.5 86q80 0 154 -44l-20 -94h-5l-98 101q-14 6 -39 6q-67 0 -105.5 -76t-43.5 -220q0 -12 -2 -34h210l-6 -23h-206
q-18 -148 -91 -214q134 -68 263 -68l62 65z" />
    <glyph glyph-name="florin.LT" 
d="M-26 -200q-69 0 -118 24l18 86h4l105 -73q4 -3 10 -3q61 0 109 174l89 323h-141l7 23h140l26 95q74 266 261 266q84 0 137 -37l-20 -90h-4l-105 92q-6 3 -15 3q-46 0 -85 -54.5t-67 -152.5l-35 -122h205l-7 -23h-204l-86 -302q-64 -229 -224 -229z" />
    <glyph glyph-name="yen.LT" horiz-adv-x="519" 
d="M245 275h-182l6 22h180l9 41l-20 52h-150l5 22h136l-96 247l-21 37l1 4h162l-1 -3l-44 -38l110 -291l214 277l-35 52l1 3h122v-3l-47 -52l-186 -233h140l-5 -22h-153l-41 -52l-9 -41h183l-5 -22h-182l-50 -234l30 -38l-1 -3h-164l1 3l42 38z" />
    <glyph glyph-name="zero.slash.LT" 
d="M72 72l-58 -72h-28l76 96q-16 55 -16 108q0 134 42 252t113 188.5t151 70.5q92 0 134 -85l56 70h32l-77 -96q16 -45 16 -108q0 -134 -41.5 -252t-112 -188.5t-151.5 -70.5q-94 0 -136 87zM354 684q-49 0 -98 -73.5t-82 -189.5t-38 -233l289 365q-3 131 -71 131zM206 16
q49 0 98 74t82 190t38 233l-289 -362q1 -135 71 -135z" />
    <glyph glyph-name="zero.LT" 
d="M208 -15q-76 0 -119 58.5t-43 160.5q0 134 42 252t113 188.5t151 70.5q75 0 118 -58.5t43 -160.5q0 -134 -41.5 -252t-112 -188.5t-151.5 -70.5zM206 16q51 0 102.5 80.5t84 204.5t32.5 245q0 138 -71 138q-51 0 -102.5 -80.5t-84 -204.5t-32.5 -245q0 -138 71 -138z" />
    <glyph glyph-name="one.LT" 
d="M299 4l-1 -4h-177l1 4l50 43l120 565h-79l1 4l144 84h44l-139 -653z" />
    <glyph glyph-name="two.LT" 
d="M437 114l-22 -114h-427l1 5l216 198q129 119 172 184t43 143q0 55 -36 90t-93 35t-103 -38.5t-72 -107.5l-5 1q7 93 65 149t146 56q82 0 135.5 -49.5t53.5 -128.5q0 -82 -65 -163l-348 -304h285l49 44h5z" />
    <glyph glyph-name="three.LT" 
d="M207 -15q-55 0 -105.5 15.5t-80.5 42.5l20 99h5l96 -108q26 -17 71 -17q73 0 121 46.5t48 116.5q0 79 -61.5 127.5t-165.5 49.5v5l82 46q31 0 56 -6q62 26 91 59.5t29 79.5q0 53 -33 83.5t-87 30.5q-106 0 -158 -133l-4 1q6 86 60.5 139t139.5 53q73 0 118.5 -39.5
t45.5 -103.5q0 -79 -67 -129l-109 -47q69 -20 108.5 -69.5t39.5 -117.5q0 -97 -74 -160.5t-186 -63.5z" />
    <glyph glyph-name="four.LT" 
d="M401 4l-1 -4h-177l1 4l49 43l30 141h-304l1 5l427 507h78l-101 -473h41l49 44h5l-18 -83h-85l-30 -141zM393 609l-322 -382h240z" />
    <glyph glyph-name="five.LT" 
d="M203 -15q-51 0 -101.5 15.5t-80.5 42.5l21 98h4l95 -108q29 -17 70 -17q72 0 118.5 50t46.5 128q0 77 -53 156t-169 180v4l59 157l222 19l49 44h5l-23 -115l-257 -21l-6 -14q254 -196 254 -383q0 -102 -72 -169t-182 -67z" />
    <glyph glyph-name="six.LT" 
d="M253 -15q-96 0 -156.5 65.5t-60.5 171.5q0 169 141 306t368 187l2 -4q-201 -94 -312.5 -227.5t-111.5 -277.5q0 -85 38 -137.5t99 -52.5q55 0 89.5 42.5t34.5 109.5q0 77 -46 126t-126 57v3l80 25q81 -1 132 -53.5t51 -131.5q0 -88 -64 -148.5t-158 -60.5z" />
    <glyph glyph-name="seven.LT" 
d="M570 695l-431 -695h-70v5l415 600v4h-299l-49 -44h-5l27 135h413z" />
    <glyph glyph-name="eight.LT" 
d="M227 -15q-90 0 -148 50.5t-58 129.5q0 73 56 126l145 72q-44 38 -68 76t-24 87q0 79 61 134t148 55q77 0 127 -42.5t50 -108.5q0 -68 -46 -104l-136 -67q34 -26 51.5 -41.5t41.5 -41.5t34.5 -54.5t10.5 -61.5q0 -85 -72.5 -147t-172.5 -62zM216 560q0 -46 26.5 -81
t76.5 -74q72 39 100.5 73.5t28.5 80.5q0 56 -31 90.5t-81 34.5q-52 0 -86 -36.5t-34 -87.5zM92 172q0 -68 42 -112t105 -44t105.5 41.5t42.5 99.5q0 16 -4 31.5t-8.5 27t-16.5 26.5t-18.5 23t-24 22.5t-24.5 20.5t-27.5 22t-26.5 20q-76 -37 -110.5 -79t-34.5 -99z" />
    <glyph glyph-name="nine.LT" 
d="M309 715q97 0 157 -65.5t60 -171.5q0 -169 -140.5 -305t-368.5 -188l-2 4q201 94 312.5 227.5t111.5 277.5q0 86 -38 138t-99 52q-55 0 -89.5 -42.5t-34.5 -109.5q0 -76 46.5 -125.5t125.5 -57.5v-3l-80 -25q-81 3 -132 54.5t-51 130.5q0 88 64 148.5t158 60.5z" />
    <glyph glyph-name="numbersign.OT" 
d="M96 0h-25l55 149h-121l17 76h132l49 130h-122l17 75h132l55 147h25l-55 -147h129l55 147h25l-55 -147h141l-16 -75h-152l-49 -130h142l-18 -76h-152l-55 -149h-25l55 149h-129zM228 355l-49 -130h129l49 130h-129z" />
    </font>
</defs>
</svg>
