<svg width="451" height="159" viewBox="0 0 451 159" fill="none" xmlns="http://www.w3.org/2000/svg">
<g clip-path="url(#clip0_1004_15251)">
<g opacity="0.9">
<g opacity="0.4">
<path d="M2.79965 76.9C6.49965 -23.2 196.7 18.5 263.1 19.1C342.3 19.9 440.7 -28.3 444.7 82.9C446.4 130.6 399.1 147.8 364 153.7C279.8 167.8 216.3 143 167.1 142.4C96.3997 141.7 55.9996 159.3 33.9996 146.7C9.19965 132.4 2.39965 88.6 2.79965 76.9Z" fill="#C9B7A3"/>
</g>
<g opacity="0.5">
<path d="M16.5996 78.2C18.2996 18.1 96.9996 22.3 104.3 21.8C183.4 16.5 261.1 2.79997 340.6 7.09997C367.7 8.59997 397.1 14.7 415.6 37.6C432.4 58.5 436 88.7 433.4 116.2C432.7 123.7 431.4 131.4 427.2 137.1C423.9 141.6 419 144.4 414.3 146.8C389.1 159.5 260.4 143.5 189.9 138.6C125.6 134.1 74.5996 147.1 47.0996 132.1C21.4996 118.1 16.1996 94.8 16.5996 78.2Z" fill="#C9B7A3"/>
</g>
<g opacity="0.72">
<path d="M116.1 153C129.2 153.4 142.2 153 154.8 152.6C220.4 150.5 286.4 148.6 351.3 145.8C412.1 143.2 441.7 134.2 448.2 116.4C458.2 89.3 434.3 47.5 385.5 24.5C326.9 -3.1 292.2 22.8 168 4.3C150.2 1.6 112.3 -3.6 68.3 6.3C42.5 12.1 27.8 22.6 18 33.6C-2.29998 56.2 -4.99998 82.3 10.1 108.8C18.7 123.8 38 141.3 76.8 149C89.7 151.5 102.9 152.6 116.1 153Z" stroke="#C9B7A3" stroke-miterlimit="10"/>
</g>
</g>
</g>
<defs>
<clipPath id="clip0_1004_15251">
<rect width="450.9" height="158.1" fill="white"/>
</clipPath>
</defs>
</svg>
